<svg xmlns="http://www.w3.org/2000/svg" viewBox="0 0 260.5 285.67"><defs><style>.\30 a162f7b-cc1b-41cc-9b00-fcbb582df3a4,.b5b8bb23-3e3b-456e-a62a-c0f927dbda5c,.db22ddd2-1a56-4f60-a7da-5e7529a068ae{fill:none;stroke:#575756;}.b5b8bb23-3e3b-456e-a62a-c0f927dbda5c,.db22ddd2-1a56-4f60-a7da-5e7529a068ae{stroke-miterlimit:10;}.b51bbbcc-5dd1-4f0f-9b2d-b7dda79640ab{fill:#575756;}.\34 1730f14-71dc-497b-bf9b-75561569e8be{fill:#a7cee3;}.\35 fcff119-53f5-4a1e-b435-192208993da7{fill:#fffbbf;}.\33 75940d2-8c16-4f89-81ae-8372f57d44cc{fill:#c7a0ce;}.d0d31664-fd46-4c5a-8d81-f01f50b1d4bd{fill:#74e0c1;}.eaa6454a-1164-4214-bad7-77a625f05c39{fill:#e69e6c;}.\34 4a1b488-cc96-4c30-81a5-2c2f7068f3d8{fill:#fb8072;}.db22ddd2-1a56-4f60-a7da-5e7529a068ae{stroke-width:2px;}</style></defs><title>rnaseq</title><g id="d4f34a45-0694-4b8a-875f-cfc0d88f845f" data-name="lines"><line class="b5b8bb23-3e3b-456e-a62a-c0f927dbda5c" x1="51.37" y1="16.07" x2="172.84" y2="16.07"/><polygon class="b51bbbcc-5dd1-4f0f-9b2d-b7dda79640ab" points="52.1 18.56 47.78 16.07 52.1 13.57 52.1 18.56"/><polygon class="b51bbbcc-5dd1-4f0f-9b2d-b7dda79640ab" points="172.11 18.56 176.42 16.07 172.11 13.57 172.11 18.56"/></g><g id="c0c43538-a199-49f6-aa14-d4fea29198f4" data-name="boxes"><rect class="41730f14-71dc-497b-bf9b-75561569e8be" x="74.2" y="134.24" width="17.38" height="15.83"/><path class="b51bbbcc-5dd1-4f0f-9b2d-b7dda79640ab" d="M91.32,134.49v15.33H74.45V134.49H91.32m.5-.5H74v16.33H91.82V134Z"/><rect class="41730f14-71dc-497b-bf9b-75561569e8be" x="124.99" y="134.24" width="9.45" height="15.83"/><path class="b51bbbcc-5dd1-4f0f-9b2d-b7dda79640ab" d="M134.19,134.49v15.33h-9V134.49h9m.5-.5h-10v16.33h10V134Z"/><rect class="41730f14-71dc-497b-bf9b-75561569e8be" x="43.05" y="134.24" width="9.45" height="15.83"/><path class="b51bbbcc-5dd1-4f0f-9b2d-b7dda79640ab" d="M52.26,134.49v15.33h-9V134.49h9m.5-.5h-10v16.33h10V134Z"/><rect class="41730f14-71dc-497b-bf9b-75561569e8be" x="102.06" y="152.66" width="12.18" height="15.83"/><path class="b51bbbcc-5dd1-4f0f-9b2d-b7dda79640ab" d="M114,152.91v15.33H102.31V152.91H114m.5-.5H101.81v16.33h12.67V152.41Z"/><rect class="41730f14-71dc-497b-bf9b-75561569e8be" x="225.34" y="152.66" width="12.18" height="15.83"/><path class="b51bbbcc-5dd1-4f0f-9b2d-b7dda79640ab" d="M237.26,152.91v15.33H225.59V152.91h11.67m.5-.5H225.09v16.33h12.67V152.41Z"/><rect class="41730f14-71dc-497b-bf9b-75561569e8be" x="111.7" y="134.24" width="9.55" height="15.83"/><path class="b51bbbcc-5dd1-4f0f-9b2d-b7dda79640ab" d="M121,134.49v15.33h-9V134.49h9m.5-.5h-10v16.33h10V134Z"/><rect class="41730f14-71dc-497b-bf9b-75561569e8be" x="156.79" y="134.24" width="12.59" height="15.83"/><path class="b51bbbcc-5dd1-4f0f-9b2d-b7dda79640ab" d="M169.13,134.49v15.33H157V134.49h12.09m.5-.5H156.54v16.33h13.09V134Z"/><rect class="41730f14-71dc-497b-bf9b-75561569e8be" x="87.32" y="152.66" width="11.53" height="15.83"/><path class="b51bbbcc-5dd1-4f0f-9b2d-b7dda79640ab" d="M98.59,152.91v15.33h-11V152.91h11m.5-.5h-12v16.33h12V152.41Z"/><rect class="5fcff119-53f5-4a1e-b435-192208993da7" x="171.53" y="152.66" width="6.01" height="15.83"/><path class="b51bbbcc-5dd1-4f0f-9b2d-b7dda79640ab" d="M177.29,152.91v15.33h-5.51V152.91h5.51m.5-.5h-6.51v16.33h6.51V152.41Z"/><rect class="41730f14-71dc-497b-bf9b-75561569e8be" x="188.01" y="152.66" width="6.01" height="15.83"/><path class="b51bbbcc-5dd1-4f0f-9b2d-b7dda79640ab" d="M193.77,152.91v15.33h-5.51V152.91h5.51m.5-.5h-6.51v16.33h6.51V152.41Z"/><rect class="41730f14-71dc-497b-bf9b-75561569e8be" x="196.35" y="152.66" width="7.01" height="15.83"/><path class="b51bbbcc-5dd1-4f0f-9b2d-b7dda79640ab" d="M203.11,152.91v15.33H196.6V152.91h6.51m.5-.5H196.1v16.33h7.51V152.41Z"/><rect class="41730f14-71dc-497b-bf9b-75561569e8be" x="179.62" y="152.66" width="6.01" height="15.83"/><path class="b51bbbcc-5dd1-4f0f-9b2d-b7dda79640ab" d="M185.38,152.91v15.33h-5.51V152.91h5.51m.5-.5h-6.51v16.33h6.51V152.41Z"/><rect class="5fcff119-53f5-4a1e-b435-192208993da7" x="116.99" y="152.66" width="6.01" height="15.83"/><path class="b51bbbcc-5dd1-4f0f-9b2d-b7dda79640ab" d="M122.76,152.91v15.33h-5.52V152.91h5.52m.5-.5h-6.52v16.33h6.52V152.41Z"/><rect class="41730f14-71dc-497b-bf9b-75561569e8be" x="184.81" y="134.24" width="7.44" height="15.83"/><path class="b51bbbcc-5dd1-4f0f-9b2d-b7dda79640ab" d="M192,134.49v15.33h-6.94V134.49H192m.5-.5h-7.94v16.33h7.94V134Z"/><rect class="41730f14-71dc-497b-bf9b-75561569e8be" x="78.12" y="152.66" width="6.01" height="15.83"/><path class="b51bbbcc-5dd1-4f0f-9b2d-b7dda79640ab" d="M83.89,152.91v15.33H78.37V152.91h5.52m.5-.5H77.87v16.33h6.52V152.41Z"/><rect class="41730f14-71dc-497b-bf9b-75561569e8be" x="21.67" y="152.66" width="6.01" height="15.83"/><path class="b51bbbcc-5dd1-4f0f-9b2d-b7dda79640ab" d="M27.43,152.91v15.33H21.92V152.91h5.51m.5-.5H21.42v16.33h6.51V152.41Z"/><rect class="41730f14-71dc-497b-bf9b-75561569e8be" x="59.25" y="152.66" width="8.19" height="15.83"/><path class="b51bbbcc-5dd1-4f0f-9b2d-b7dda79640ab" d="M67.19,152.91v15.33H59.5V152.91h7.69m.5-.5H59v16.33h8.69V152.41Z"/><rect class="41730f14-71dc-497b-bf9b-75561569e8be" x="215.23" y="152.66" width="8.19" height="15.83"/><path class="b51bbbcc-5dd1-4f0f-9b2d-b7dda79640ab" d="M223.17,152.91v15.33h-7.69V152.91h7.69m.5-.5H215v16.33h8.69V152.41Z"/><rect class="375940d2-8c16-4f89-81ae-8372f57d44cc" x="69.8" y="152.66" width="6.01" height="15.83"/><path class="b51bbbcc-5dd1-4f0f-9b2d-b7dda79640ab" d="M75.57,152.91v15.33H70.05V152.91h5.52m.5-.5H69.55v16.33h6.52V152.41Z"/><rect class="41730f14-71dc-497b-bf9b-75561569e8be" x="134.28" y="152.66" width="6.01" height="15.83"/><path class="b51bbbcc-5dd1-4f0f-9b2d-b7dda79640ab" d="M140,152.91v15.33h-5.51V152.91H140m.5-.5H134v16.33h6.51V152.41Z"/><rect class="41730f14-71dc-497b-bf9b-75561569e8be" x="51.03" y="152.66" width="6.01" height="15.83"/><path class="b51bbbcc-5dd1-4f0f-9b2d-b7dda79640ab" d="M56.79,152.91v15.33H51.28V152.91h5.51m.5-.5H50.78v16.33h6.51V152.41Z"/><rect class="41730f14-71dc-497b-bf9b-75561569e8be" x="55.03" y="134.24" width="6.01" height="15.83"/><path class="b51bbbcc-5dd1-4f0f-9b2d-b7dda79640ab" d="M60.79,134.49v15.33H55.28V134.49h5.51m.5-.5H54.78v16.33h6.51V134Z"/><rect class="41730f14-71dc-497b-bf9b-75561569e8be" x="194.45" y="134.24" width="6.01" height="15.83"/><path class="b51bbbcc-5dd1-4f0f-9b2d-b7dda79640ab" d="M200.21,134.49v15.33H194.7V134.49h5.51m.5-.5H194.2v16.33h6.51V134Z"/><rect class="41730f14-71dc-497b-bf9b-75561569e8be" x="211.48" y="134.24" width="6.01" height="15.83"/><path class="b51bbbcc-5dd1-4f0f-9b2d-b7dda79640ab" d="M217.24,134.49v15.33h-5.51V134.49h5.51m.5-.5h-6.51v16.33h6.51V134Z"/><rect class="d0d31664-fd46-4c5a-8d81-f01f50b1d4bd" x="202.86" y="134.24" width="6.01" height="15.83"/><path class="b51bbbcc-5dd1-4f0f-9b2d-b7dda79640ab" d="M208.62,134.49v15.33h-5.51V134.49h5.51m.5-.5h-6.51v16.33h6.51V134Z"/><rect class="375940d2-8c16-4f89-81ae-8372f57d44cc" x="30.96" y="21.4" width="17.07" height="15.83"/><path class="b51bbbcc-5dd1-4f0f-9b2d-b7dda79640ab" d="M47.78,21.65V37H31.22V21.65H47.78m.5-.5H30.72V37.48H48.28V21.15Z"/><rect class="eaa6454a-1164-4214-bad7-77a625f05c39" x="21.32" y="21.4" width="10.14" height="15.83"/><path class="b51bbbcc-5dd1-4f0f-9b2d-b7dda79640ab" d="M31.22,21.65V37H21.57V21.65h9.65m.5-.5H21.07V37.48H31.72V21.15Z"/><rect class="5fcff119-53f5-4a1e-b435-192208993da7" x="137.45" y="134.24" width="16.03" height="15.83"/><path class="b51bbbcc-5dd1-4f0f-9b2d-b7dda79640ab" d="M153.23,134.49v15.33H137.7V134.49h15.53m.5-.5H137.2v16.33h16.53V134Z"/><rect class="d0d31664-fd46-4c5a-8d81-f01f50b1d4bd" x="163.13" y="152.66" width="6.25" height="15.83"/><path class="b51bbbcc-5dd1-4f0f-9b2d-b7dda79640ab" d="M169.13,152.91v15.33h-5.75V152.91h5.75m.5-.5h-6.75v16.33h6.75V152.41Z"/><rect class="d0d31664-fd46-4c5a-8d81-f01f50b1d4bd" x="125.59" y="152.66" width="6.25" height="15.83"/><path class="b51bbbcc-5dd1-4f0f-9b2d-b7dda79640ab" d="M131.59,152.91v15.33h-5.75V152.91h5.75m.5-.5h-6.75v16.33h6.75V152.41Z"/><rect class="41730f14-71dc-497b-bf9b-75561569e8be" x="94.69" y="134.24" width="13.7" height="15.83"/><path class="b51bbbcc-5dd1-4f0f-9b2d-b7dda79640ab" d="M108.15,134.49v15.33H94.94V134.49h13.21m.5-.5H94.44v16.33h14.21V134Z"/><rect class="0a162f7b-cc1b-41cc-9b00-fcbb582df3a4" x="176.9" y="134.49" width="5.43" height="15.33"/><rect class="0a162f7b-cc1b-41cc-9b00-fcbb582df3a4" x="172.16" y="134.49" width="4.75" height="15.33"/><rect class="41730f14-71dc-497b-bf9b-75561569e8be" x="176.9" y="134.49" width="5.43" height="15.33"/><rect class="5fcff119-53f5-4a1e-b435-192208993da7" x="172.16" y="134.49" width="4.75" height="15.33"/><rect class="0a162f7b-cc1b-41cc-9b00-fcbb582df3a4" x="34.67" y="134.49" width="5.43" height="15.33"/><rect class="0a162f7b-cc1b-41cc-9b00-fcbb582df3a4" x="29.93" y="134.49" width="4.75" height="15.33"/><rect class="375940d2-8c16-4f89-81ae-8372f57d44cc" x="34.67" y="134.49" width="5.43" height="15.33"/><rect class="41730f14-71dc-497b-bf9b-75561569e8be" x="29.93" y="134.49" width="4.75" height="15.33"/><rect class="0a162f7b-cc1b-41cc-9b00-fcbb582df3a4" x="67.24" y="134.49" width="4.16" height="15.33"/><rect class="0a162f7b-cc1b-41cc-9b00-fcbb582df3a4" x="63.61" y="134.49" width="3.64" height="15.33"/><rect class="41730f14-71dc-497b-bf9b-75561569e8be" x="67.24" y="134.49" width="4.16" height="15.33"/><rect class="375940d2-8c16-4f89-81ae-8372f57d44cc" x="63.61" y="134.49" width="3.64" height="15.33"/><rect class="0a162f7b-cc1b-41cc-9b00-fcbb582df3a4" x="150.04" y="152.91" width="10.26" height="15.33"/><rect class="0a162f7b-cc1b-41cc-9b00-fcbb582df3a4" x="143.13" y="152.91" width="6.93" height="15.33"/><rect class="41730f14-71dc-497b-bf9b-75561569e8be" x="150.04" y="152.91" width="10.26" height="15.33"/><rect class="5fcff119-53f5-4a1e-b435-192208993da7" x="143.13" y="152.91" width="6.93" height="15.33"/><rect class="0a162f7b-cc1b-41cc-9b00-fcbb582df3a4" x="135.25" y="208.95" width="9.22" height="15.33"/><rect class="0a162f7b-cc1b-41cc-9b00-fcbb582df3a4" x="132.14" y="208.95" width="3.12" height="15.33"/><rect class="0a162f7b-cc1b-41cc-9b00-fcbb582df3a4" x="144.48" y="208.95" width="3.12" height="15.33"/><rect class="41730f14-71dc-497b-bf9b-75561569e8be" x="135.25" y="208.95" width="9.22" height="15.33"/><rect class="44a1b488-cc96-4c30-81a5-2c2f7068f3d8" x="132.14" y="208.95" width="3.12" height="15.33"/><rect class="44a1b488-cc96-4c30-81a5-2c2f7068f3d8" x="144.48" y="208.95" width="3.12" height="15.33"/><rect class="0a162f7b-cc1b-41cc-9b00-fcbb582df3a4" x="97.32" y="208.95" width="9.22" height="15.33"/><rect class="0a162f7b-cc1b-41cc-9b00-fcbb582df3a4" x="94.22" y="208.95" width="3.12" height="15.33"/><rect class="0a162f7b-cc1b-41cc-9b00-fcbb582df3a4" x="106.55" y="208.95" width="3.12" height="15.33"/><rect class="41730f14-71dc-497b-bf9b-75561569e8be" x="97.32" y="208.95" width="9.22" height="15.33"/><rect class="44a1b488-cc96-4c30-81a5-2c2f7068f3d8" x="94.22" y="208.95" width="3.12" height="15.33"/><rect class="44a1b488-cc96-4c30-81a5-2c2f7068f3d8" x="106.55" y="208.95" width="3.12" height="15.33"/><rect class="0a162f7b-cc1b-41cc-9b00-fcbb582df3a4" x="125.09" y="228.62" width="5.24" height="15.33"/><rect class="0a162f7b-cc1b-41cc-9b00-fcbb582df3a4" x="130.33" y="228.62" width="3.99" height="15.33"/><rect class="0a162f7b-cc1b-41cc-9b00-fcbb582df3a4" x="121.99" y="228.62" width="3.12" height="15.33"/><rect class="0a162f7b-cc1b-41cc-9b00-fcbb582df3a4" x="134.33" y="228.62" width="3.12" height="15.33"/><rect class="5fcff119-53f5-4a1e-b435-192208993da7" x="125.09" y="228.62" width="5.24" height="15.33"/><rect class="41730f14-71dc-497b-bf9b-75561569e8be" x="130.33" y="228.62" width="3.99" height="15.33"/><rect class="44a1b488-cc96-4c30-81a5-2c2f7068f3d8" x="121.99" y="228.62" width="3.12" height="15.33"/><rect class="44a1b488-cc96-4c30-81a5-2c2f7068f3d8" x="134.33" y="228.62" width="3.12" height="15.33"/><rect class="0a162f7b-cc1b-41cc-9b00-fcbb582df3a4" x="172.09" y="248.28" width="5.24" height="15.33"/><rect class="0a162f7b-cc1b-41cc-9b00-fcbb582df3a4" x="177.33" y="248.28" width="3.99" height="15.33"/><rect class="0a162f7b-cc1b-41cc-9b00-fcbb582df3a4" x="168.99" y="248.28" width="3.12" height="15.33"/><rect class="0a162f7b-cc1b-41cc-9b00-fcbb582df3a4" x="181.33" y="248.28" width="3.12" height="15.33"/><rect class="375940d2-8c16-4f89-81ae-8372f57d44cc" x="172.09" y="248.28" width="5.24" height="15.33"/><rect class="d0d31664-fd46-4c5a-8d81-f01f50b1d4bd" x="177.33" y="248.28" width="3.99" height="15.33"/><rect class="44a1b488-cc96-4c30-81a5-2c2f7068f3d8" x="168.99" y="248.28" width="3.12" height="15.33"/><rect class="44a1b488-cc96-4c30-81a5-2c2f7068f3d8" x="181.33" y="248.28" width="3.12" height="15.33"/><rect class="0a162f7b-cc1b-41cc-9b00-fcbb582df3a4" x="54.88" y="248.28" width="5.24" height="15.33"/><rect class="0a162f7b-cc1b-41cc-9b00-fcbb582df3a4" x="60.12" y="248.28" width="3.99" height="15.33"/><rect class="0a162f7b-cc1b-41cc-9b00-fcbb582df3a4" x="51.77" y="248.28" width="3.12" height="15.33"/><rect class="0a162f7b-cc1b-41cc-9b00-fcbb582df3a4" x="64.11" y="248.28" width="3.12" height="15.33"/><rect class="41730f14-71dc-497b-bf9b-75561569e8be" x="54.88" y="248.28" width="5.24" height="15.33"/><rect class="5fcff119-53f5-4a1e-b435-192208993da7" x="60.12" y="248.28" width="3.99" height="15.33"/><rect class="44a1b488-cc96-4c30-81a5-2c2f7068f3d8" x="51.77" y="248.28" width="3.12" height="15.33"/><rect class="44a1b488-cc96-4c30-81a5-2c2f7068f3d8" x="64.11" y="248.28" width="3.12" height="15.33"/><rect class="0a162f7b-cc1b-41cc-9b00-fcbb582df3a4" x="209.86" y="208.95" width="9.22" height="15.33"/><rect class="0a162f7b-cc1b-41cc-9b00-fcbb582df3a4" x="206.76" y="208.95" width="3.12" height="15.33"/><rect class="0a162f7b-cc1b-41cc-9b00-fcbb582df3a4" x="219.09" y="208.95" width="3.12" height="15.33"/><rect class="41730f14-71dc-497b-bf9b-75561569e8be" x="209.86" y="208.95" width="9.22" height="15.33"/><rect class="44a1b488-cc96-4c30-81a5-2c2f7068f3d8" x="206.76" y="208.95" width="3.12" height="15.33"/><rect class="44a1b488-cc96-4c30-81a5-2c2f7068f3d8" x="219.09" y="208.95" width="3.12" height="15.33"/><rect class="0a162f7b-cc1b-41cc-9b00-fcbb582df3a4" x="78.26" y="208.95" width="9.22" height="15.33"/><rect class="0a162f7b-cc1b-41cc-9b00-fcbb582df3a4" x="75.16" y="208.95" width="3.12" height="15.33"/><rect class="0a162f7b-cc1b-41cc-9b00-fcbb582df3a4" x="87.49" y="208.95" width="3.12" height="15.33"/><rect class="41730f14-71dc-497b-bf9b-75561569e8be" x="78.26" y="208.95" width="9.22" height="15.33"/><rect class="44a1b488-cc96-4c30-81a5-2c2f7068f3d8" x="75.16" y="208.95" width="3.12" height="15.33"/><rect class="44a1b488-cc96-4c30-81a5-2c2f7068f3d8" x="87.49" y="208.95" width="3.12" height="15.33"/><rect class="0a162f7b-cc1b-41cc-9b00-fcbb582df3a4" x="58.72" y="208.95" width="9.22" height="15.33"/><rect class="0a162f7b-cc1b-41cc-9b00-fcbb582df3a4" x="55.62" y="208.95" width="3.12" height="15.33"/><rect class="0a162f7b-cc1b-41cc-9b00-fcbb582df3a4" x="67.95" y="208.95" width="3.12" height="15.33"/><rect class="41730f14-71dc-497b-bf9b-75561569e8be" x="58.72" y="208.95" width="9.22" height="15.33"/><rect class="44a1b488-cc96-4c30-81a5-2c2f7068f3d8" x="55.62" y="208.95" width="3.12" height="15.33"/><rect class="44a1b488-cc96-4c30-81a5-2c2f7068f3d8" x="67.95" y="208.95" width="3.12" height="15.33"/><rect class="0a162f7b-cc1b-41cc-9b00-fcbb582df3a4" x="38.68" y="208.95" width="9.22" height="15.33"/><rect class="0a162f7b-cc1b-41cc-9b00-fcbb582df3a4" x="35.58" y="208.95" width="3.12" height="15.33"/><rect class="0a162f7b-cc1b-41cc-9b00-fcbb582df3a4" x="47.91" y="208.95" width="3.12" height="15.33"/><rect class="41730f14-71dc-497b-bf9b-75561569e8be" x="38.68" y="208.95" width="9.22" height="15.33"/><rect class="44a1b488-cc96-4c30-81a5-2c2f7068f3d8" x="35.58" y="208.95" width="3.12" height="15.33"/><rect class="44a1b488-cc96-4c30-81a5-2c2f7068f3d8" x="47.91" y="208.95" width="3.12" height="15.33"/><rect class="0a162f7b-cc1b-41cc-9b00-fcbb582df3a4" x="154.89" y="208.95" width="9.22" height="15.33"/><rect class="0a162f7b-cc1b-41cc-9b00-fcbb582df3a4" x="151.79" y="208.95" width="3.12" height="15.33"/><rect class="0a162f7b-cc1b-41cc-9b00-fcbb582df3a4" x="164.13" y="208.95" width="3.12" height="15.33"/><rect class="41730f14-71dc-497b-bf9b-75561569e8be" x="154.89" y="208.95" width="9.22" height="15.33"/><rect class="44a1b488-cc96-4c30-81a5-2c2f7068f3d8" x="151.79" y="208.95" width="3.12" height="15.33"/><rect class="44a1b488-cc96-4c30-81a5-2c2f7068f3d8" x="164.13" y="208.95" width="3.12" height="15.33"/><rect class="0a162f7b-cc1b-41cc-9b00-fcbb582df3a4" x="143.78" y="228.62" width="9.22" height="15.33"/><rect class="0a162f7b-cc1b-41cc-9b00-fcbb582df3a4" x="140.67" y="228.62" width="3.12" height="15.33"/><rect class="0a162f7b-cc1b-41cc-9b00-fcbb582df3a4" x="153.01" y="228.62" width="3.12" height="15.33"/><rect class="41730f14-71dc-497b-bf9b-75561569e8be" x="143.78" y="228.62" width="9.22" height="15.33"/><rect class="44a1b488-cc96-4c30-81a5-2c2f7068f3d8" x="140.67" y="228.62" width="3.12" height="15.33"/><rect class="44a1b488-cc96-4c30-81a5-2c2f7068f3d8" x="153.01" y="228.62" width="3.12" height="15.33"/><rect class="0a162f7b-cc1b-41cc-9b00-fcbb582df3a4" x="105.41" y="228.62" width="9.22" height="15.33"/><rect class="0a162f7b-cc1b-41cc-9b00-fcbb582df3a4" x="102.31" y="228.62" width="3.12" height="15.33"/><rect class="0a162f7b-cc1b-41cc-9b00-fcbb582df3a4" x="114.64" y="228.62" width="3.12" height="15.33"/><rect class="41730f14-71dc-497b-bf9b-75561569e8be" x="105.41" y="228.62" width="9.22" height="15.33"/><rect class="44a1b488-cc96-4c30-81a5-2c2f7068f3d8" x="102.31" y="228.62" width="3.12" height="15.33"/><rect class="44a1b488-cc96-4c30-81a5-2c2f7068f3d8" x="114.64" y="228.62" width="3.12" height="15.33"/><rect class="0a162f7b-cc1b-41cc-9b00-fcbb582df3a4" x="85.99" y="228.62" width="9.22" height="15.33"/><rect class="0a162f7b-cc1b-41cc-9b00-fcbb582df3a4" x="82.89" y="228.62" width="3.12" height="15.33"/><rect class="0a162f7b-cc1b-41cc-9b00-fcbb582df3a4" x="95.22" y="228.62" width="3.12" height="15.33"/><rect class="41730f14-71dc-497b-bf9b-75561569e8be" x="85.99" y="228.62" width="9.22" height="15.33"/><rect class="44a1b488-cc96-4c30-81a5-2c2f7068f3d8" x="82.89" y="228.62" width="3.12" height="15.33"/><rect class="44a1b488-cc96-4c30-81a5-2c2f7068f3d8" x="95.22" y="228.62" width="3.12" height="15.33"/><rect class="0a162f7b-cc1b-41cc-9b00-fcbb582df3a4" x="46.66" y="228.62" width="9.22" height="15.33"/><rect class="0a162f7b-cc1b-41cc-9b00-fcbb582df3a4" x="43.56" y="228.62" width="3.12" height="15.33"/><rect class="0a162f7b-cc1b-41cc-9b00-fcbb582df3a4" x="55.89" y="228.62" width="3.12" height="15.33"/><rect class="41730f14-71dc-497b-bf9b-75561569e8be" x="46.66" y="228.62" width="9.22" height="15.33"/><rect class="44a1b488-cc96-4c30-81a5-2c2f7068f3d8" x="43.56" y="228.62" width="3.12" height="15.33"/><rect class="44a1b488-cc96-4c30-81a5-2c2f7068f3d8" x="55.89" y="228.62" width="3.12" height="15.33"/><rect class="0a162f7b-cc1b-41cc-9b00-fcbb582df3a4" x="162.62" y="228.62" width="9.22" height="15.33"/><rect class="0a162f7b-cc1b-41cc-9b00-fcbb582df3a4" x="159.52" y="228.62" width="3.12" height="15.33"/><rect class="0a162f7b-cc1b-41cc-9b00-fcbb582df3a4" x="171.85" y="228.62" width="3.12" height="15.33"/><rect class="41730f14-71dc-497b-bf9b-75561569e8be" x="162.62" y="228.62" width="9.22" height="15.33"/><rect class="44a1b488-cc96-4c30-81a5-2c2f7068f3d8" x="159.52" y="228.62" width="3.12" height="15.33"/><rect class="44a1b488-cc96-4c30-81a5-2c2f7068f3d8" x="171.85" y="228.62" width="3.12" height="15.33"/><rect class="0a162f7b-cc1b-41cc-9b00-fcbb582df3a4" x="66.45" y="228.62" width="9.22" height="15.33"/><rect class="0a162f7b-cc1b-41cc-9b00-fcbb582df3a4" x="63.34" y="228.62" width="3.12" height="15.33"/><rect class="0a162f7b-cc1b-41cc-9b00-fcbb582df3a4" x="75.68" y="228.62" width="3.12" height="15.33"/><rect class="d0d31664-fd46-4c5a-8d81-f01f50b1d4bd" x="66.45" y="228.62" width="9.22" height="15.33"/><rect class="44a1b488-cc96-4c30-81a5-2c2f7068f3d8" x="63.34" y="228.62" width="3.12" height="15.33"/><rect class="44a1b488-cc96-4c30-81a5-2c2f7068f3d8" x="75.68" y="228.62" width="3.12" height="15.33"/><rect class="0a162f7b-cc1b-41cc-9b00-fcbb582df3a4" x="181.22" y="228.62" width="9.22" height="15.33"/><rect class="0a162f7b-cc1b-41cc-9b00-fcbb582df3a4" x="178.12" y="228.62" width="3.12" height="15.33"/><rect class="0a162f7b-cc1b-41cc-9b00-fcbb582df3a4" x="190.45" y="228.62" width="3.12" height="15.33"/><rect class="41730f14-71dc-497b-bf9b-75561569e8be" x="181.22" y="228.62" width="9.22" height="15.33"/><rect class="44a1b488-cc96-4c30-81a5-2c2f7068f3d8" x="178.12" y="228.62" width="3.12" height="15.33"/><rect class="44a1b488-cc96-4c30-81a5-2c2f7068f3d8" x="190.45" y="228.62" width="3.12" height="15.33"/><rect class="0a162f7b-cc1b-41cc-9b00-fcbb582df3a4" x="199.7" y="228.62" width="9.22" height="15.33"/><rect class="0a162f7b-cc1b-41cc-9b00-fcbb582df3a4" x="196.6" y="228.62" width="3.12" height="15.33"/><rect class="0a162f7b-cc1b-41cc-9b00-fcbb582df3a4" x="208.93" y="228.62" width="3.12" height="15.33"/><rect class="41730f14-71dc-497b-bf9b-75561569e8be" x="199.7" y="228.62" width="9.22" height="15.33"/><rect class="44a1b488-cc96-4c30-81a5-2c2f7068f3d8" x="196.6" y="228.62" width="3.12" height="15.33"/><rect class="44a1b488-cc96-4c30-81a5-2c2f7068f3d8" x="208.93" y="228.62" width="3.12" height="15.33"/><rect class="0a162f7b-cc1b-41cc-9b00-fcbb582df3a4" x="191.7" y="248.28" width="9.22" height="15.33"/><rect class="0a162f7b-cc1b-41cc-9b00-fcbb582df3a4" x="188.6" y="248.28" width="3.12" height="15.33"/><rect class="0a162f7b-cc1b-41cc-9b00-fcbb582df3a4" x="200.93" y="248.28" width="3.12" height="15.33"/><rect class="41730f14-71dc-497b-bf9b-75561569e8be" x="191.7" y="248.28" width="9.22" height="15.33"/><rect class="44a1b488-cc96-4c30-81a5-2c2f7068f3d8" x="188.6" y="248.28" width="3.12" height="15.33"/><rect class="44a1b488-cc96-4c30-81a5-2c2f7068f3d8" x="200.93" y="248.28" width="3.12" height="15.33"/><rect class="0a162f7b-cc1b-41cc-9b00-fcbb582df3a4" x="152.41" y="248.28" width="9.22" height="15.33"/><rect class="0a162f7b-cc1b-41cc-9b00-fcbb582df3a4" x="149.31" y="248.28" width="3.12" height="15.33"/><rect class="0a162f7b-cc1b-41cc-9b00-fcbb582df3a4" x="161.65" y="248.28" width="3.12" height="15.33"/><rect class="41730f14-71dc-497b-bf9b-75561569e8be" x="152.41" y="248.28" width="9.22" height="15.33"/><rect class="44a1b488-cc96-4c30-81a5-2c2f7068f3d8" x="149.31" y="248.28" width="3.12" height="15.33"/><rect class="44a1b488-cc96-4c30-81a5-2c2f7068f3d8" x="161.65" y="248.28" width="3.12" height="15.33"/><rect class="0a162f7b-cc1b-41cc-9b00-fcbb582df3a4" x="133.08" y="248.28" width="9.22" height="15.33"/><rect class="0a162f7b-cc1b-41cc-9b00-fcbb582df3a4" x="129.98" y="248.28" width="3.12" height="15.33"/><rect class="0a162f7b-cc1b-41cc-9b00-fcbb582df3a4" x="142.31" y="248.28" width="3.12" height="15.33"/><rect class="41730f14-71dc-497b-bf9b-75561569e8be" x="133.08" y="248.28" width="9.22" height="15.33"/><rect class="44a1b488-cc96-4c30-81a5-2c2f7068f3d8" x="129.98" y="248.28" width="3.12" height="15.33"/><rect class="44a1b488-cc96-4c30-81a5-2c2f7068f3d8" x="142.31" y="248.28" width="3.12" height="15.33"/><rect class="0a162f7b-cc1b-41cc-9b00-fcbb582df3a4" x="113.14" y="248.28" width="9.22" height="15.33"/><rect class="0a162f7b-cc1b-41cc-9b00-fcbb582df3a4" x="110.03" y="248.28" width="3.12" height="15.33"/><rect class="0a162f7b-cc1b-41cc-9b00-fcbb582df3a4" x="122.37" y="248.28" width="3.12" height="15.33"/><rect class="41730f14-71dc-497b-bf9b-75561569e8be" x="113.14" y="248.28" width="9.22" height="15.33"/><rect class="44a1b488-cc96-4c30-81a5-2c2f7068f3d8" x="110.03" y="248.28" width="3.12" height="15.33"/><rect class="44a1b488-cc96-4c30-81a5-2c2f7068f3d8" x="122.37" y="248.28" width="3.12" height="15.33"/><rect class="0a162f7b-cc1b-41cc-9b00-fcbb582df3a4" x="93.71" y="248.28" width="9.22" height="15.33"/><rect class="0a162f7b-cc1b-41cc-9b00-fcbb582df3a4" x="90.61" y="248.28" width="3.12" height="15.33"/><rect class="0a162f7b-cc1b-41cc-9b00-fcbb582df3a4" x="102.95" y="248.28" width="3.12" height="15.33"/><rect class="41730f14-71dc-497b-bf9b-75561569e8be" x="93.71" y="248.28" width="9.22" height="15.33"/><rect class="44a1b488-cc96-4c30-81a5-2c2f7068f3d8" x="90.61" y="248.28" width="3.12" height="15.33"/><rect class="44a1b488-cc96-4c30-81a5-2c2f7068f3d8" x="102.95" y="248.28" width="3.12" height="15.33"/><rect class="0a162f7b-cc1b-41cc-9b00-fcbb582df3a4" x="74.17" y="248.28" width="9.22" height="15.33"/><rect class="0a162f7b-cc1b-41cc-9b00-fcbb582df3a4" x="71.07" y="248.28" width="3.12" height="15.33"/><rect class="0a162f7b-cc1b-41cc-9b00-fcbb582df3a4" x="83.4" y="248.28" width="3.12" height="15.33"/><rect class="41730f14-71dc-497b-bf9b-75561569e8be" x="74.17" y="248.28" width="9.22" height="15.33"/><rect class="44a1b488-cc96-4c30-81a5-2c2f7068f3d8" x="71.07" y="248.28" width="3.12" height="15.33"/><rect class="44a1b488-cc96-4c30-81a5-2c2f7068f3d8" x="83.4" y="248.28" width="3.12" height="15.33"/><rect class="0a162f7b-cc1b-41cc-9b00-fcbb582df3a4" x="35.47" y="248.28" width="9.22" height="15.33"/><rect class="0a162f7b-cc1b-41cc-9b00-fcbb582df3a4" x="32.37" y="248.28" width="3.12" height="15.33"/><rect class="0a162f7b-cc1b-41cc-9b00-fcbb582df3a4" x="44.71" y="248.28" width="3.12" height="15.33"/><rect class="41730f14-71dc-497b-bf9b-75561569e8be" x="35.47" y="248.28" width="9.22" height="15.33"/><rect class="44a1b488-cc96-4c30-81a5-2c2f7068f3d8" x="32.37" y="248.28" width="3.12" height="15.33"/><rect class="44a1b488-cc96-4c30-81a5-2c2f7068f3d8" x="44.71" y="248.28" width="3.12" height="15.33"/><rect class="0a162f7b-cc1b-41cc-9b00-fcbb582df3a4" x="210.86" y="248.28" width="9.22" height="15.33"/><rect class="0a162f7b-cc1b-41cc-9b00-fcbb582df3a4" x="207.76" y="248.28" width="3.12" height="15.33"/><rect class="0a162f7b-cc1b-41cc-9b00-fcbb582df3a4" x="220.09" y="248.28" width="3.12" height="15.33"/><rect class="5fcff119-53f5-4a1e-b435-192208993da7" x="210.86" y="248.28" width="9.22" height="15.33"/><rect class="44a1b488-cc96-4c30-81a5-2c2f7068f3d8" x="207.76" y="248.28" width="3.12" height="15.33"/><rect class="44a1b488-cc96-4c30-81a5-2c2f7068f3d8" x="220.09" y="248.28" width="3.12" height="15.33"/><rect class="0a162f7b-cc1b-41cc-9b00-fcbb582df3a4" x="191.73" y="208.95" width="8.5" height="15.33"/><rect class="0a162f7b-cc1b-41cc-9b00-fcbb582df3a4" x="188.87" y="208.95" width="2.87" height="15.33"/><rect class="0a162f7b-cc1b-41cc-9b00-fcbb582df3a4" x="200.24" y="208.95" width="2.87" height="15.33"/><rect class="5fcff119-53f5-4a1e-b435-192208993da7" x="191.73" y="208.95" width="8.5" height="15.33"/><rect class="44a1b488-cc96-4c30-81a5-2c2f7068f3d8" x="188.87" y="208.95" width="2.87" height="15.33"/><rect class="44a1b488-cc96-4c30-81a5-2c2f7068f3d8" x="200.24" y="208.95" width="2.87" height="15.33"/><rect class="0a162f7b-cc1b-41cc-9b00-fcbb582df3a4" x="116.74" y="208.95" width="8.5" height="15.33"/><rect class="0a162f7b-cc1b-41cc-9b00-fcbb582df3a4" x="113.88" y="208.95" width="2.87" height="15.33"/><rect class="0a162f7b-cc1b-41cc-9b00-fcbb582df3a4" x="125.25" y="208.95" width="2.87" height="15.33"/><rect class="5fcff119-53f5-4a1e-b435-192208993da7" x="116.74" y="208.95" width="8.5" height="15.33"/><rect class="44a1b488-cc96-4c30-81a5-2c2f7068f3d8" x="113.88" y="208.95" width="2.87" height="15.33"/><rect class="44a1b488-cc96-4c30-81a5-2c2f7068f3d8" x="125.25" y="208.95" width="2.87" height="15.33"/><rect class="0a162f7b-cc1b-41cc-9b00-fcbb582df3a4" x="174.03" y="208.95" width="8.18" height="15.33"/><rect class="0a162f7b-cc1b-41cc-9b00-fcbb582df3a4" x="171.28" y="208.95" width="2.76" height="15.33"/><rect class="0a162f7b-cc1b-41cc-9b00-fcbb582df3a4" x="182.22" y="208.95" width="2.76" height="15.33"/><rect class="41730f14-71dc-497b-bf9b-75561569e8be" x="174.03" y="208.95" width="8.18" height="15.33"/><rect class="44a1b488-cc96-4c30-81a5-2c2f7068f3d8" x="171.28" y="208.95" width="2.76" height="15.33"/><rect class="44a1b488-cc96-4c30-81a5-2c2f7068f3d8" x="182.22" y="208.95" width="2.76" height="15.33"/><rect class="0a162f7b-cc1b-41cc-9b00-fcbb582df3a4" x="208.66" y="152.91" width="4.14" height="15.33"/><rect class="0a162f7b-cc1b-41cc-9b00-fcbb582df3a4" x="205.87" y="152.91" width="2.8" height="15.33"/><rect class="5fcff119-53f5-4a1e-b435-192208993da7" x="208.66" y="152.91" width="4.14" height="15.33"/><rect class="41730f14-71dc-497b-bf9b-75561569e8be" x="205.87" y="152.91" width="2.8" height="15.33"/><rect class="0a162f7b-cc1b-41cc-9b00-fcbb582df3a4" x="34.01" y="152.91" width="4.14" height="15.33"/><rect class="0a162f7b-cc1b-41cc-9b00-fcbb582df3a4" x="31.22" y="152.91" width="2.8" height="15.33"/><rect class="5fcff119-53f5-4a1e-b435-192208993da7" x="34.01" y="152.91" width="4.14" height="15.33"/><rect class="41730f14-71dc-497b-bf9b-75561569e8be" x="31.22" y="152.91" width="2.8" height="15.33"/><rect class="0a162f7b-cc1b-41cc-9b00-fcbb582df3a4" x="223.5" y="134.49" width="4.14" height="15.33"/><rect class="0a162f7b-cc1b-41cc-9b00-fcbb582df3a4" x="220.71" y="134.49" width="2.8" height="15.33"/><rect class="5fcff119-53f5-4a1e-b435-192208993da7" x="223.5" y="134.49" width="4.14" height="15.33"/><rect class="41730f14-71dc-497b-bf9b-75561569e8be" x="220.71" y="134.49" width="2.8" height="15.33"/><rect class="0a162f7b-cc1b-41cc-9b00-fcbb582df3a4" x="44.18" y="152.91" width="4.14" height="15.33"/><rect class="0a162f7b-cc1b-41cc-9b00-fcbb582df3a4" x="41.39" y="152.91" width="2.8" height="15.33"/><rect class="375940d2-8c16-4f89-81ae-8372f57d44cc" x="44.18" y="152.91" width="4.14" height="15.33"/><rect class="eaa6454a-1164-4214-bad7-77a625f05c39" x="41.39" y="152.91" width="2.8" height="15.33"/><rect class="0a162f7b-cc1b-41cc-9b00-fcbb582df3a4" x="47.78" y="21.65" width="47.25" height="15.33"/><rect class="0a162f7b-cc1b-41cc-9b00-fcbb582df3a4" x="95.03" y="21.65" width="41.26" height="15.33"/><rect class="0a162f7b-cc1b-41cc-9b00-fcbb582df3a4" x="136.26" y="21.65" width="40.17" height="15.33"/><rect class="41730f14-71dc-497b-bf9b-75561569e8be" x="47.78" y="21.65" width="47.25" height="15.33"/><rect class="5fcff119-53f5-4a1e-b435-192208993da7" x="95.03" y="21.65" width="41.26" height="15.33"/><rect class="41730f14-71dc-497b-bf9b-75561569e8be" x="136.26" y="21.65" width="40.17" height="15.33"/><rect class="0a162f7b-cc1b-41cc-9b00-fcbb582df3a4" x="56.99" y="77.75" width="47.25" height="15.33"/><rect class="0a162f7b-cc1b-41cc-9b00-fcbb582df3a4" x="56.65" y="77.75" width="13.11" height="15.33"/><rect class="0a162f7b-cc1b-41cc-9b00-fcbb582df3a4" x="172.83" y="77.75" width="13.11" height="15.33"/><rect class="0a162f7b-cc1b-41cc-9b00-fcbb582df3a4" x="186.17" y="77.75" width="17.68" height="15.33"/><rect class="0a162f7b-cc1b-41cc-9b00-fcbb582df3a4" x="104.24" y="77.75" width="41.26" height="15.33"/><rect class="0a162f7b-cc1b-41cc-9b00-fcbb582df3a4" x="145.46" y="77.75" width="27.41" height="15.33"/><rect class="41730f14-71dc-497b-bf9b-75561569e8be" x="56.99" y="77.75" width="47.25" height="15.33"/><rect class="375940d2-8c16-4f89-81ae-8372f57d44cc" x="56.65" y="77.75" width="13.11" height="15.33"/><rect class="375940d2-8c16-4f89-81ae-8372f57d44cc" x="172.83" y="77.75" width="13.11" height="15.33"/><rect class="d0d31664-fd46-4c5a-8d81-f01f50b1d4bd" x="186.17" y="77.75" width="17.68" height="15.33"/><rect class="5fcff119-53f5-4a1e-b435-192208993da7" x="104.24" y="77.75" width="41.26" height="15.33"/><rect class="41730f14-71dc-497b-bf9b-75561569e8be" x="145.46" y="77.75" width="27.41" height="15.33"/><rect class="375940d2-8c16-4f89-81ae-8372f57d44cc" x="176.17" y="21.4" width="17.78" height="15.83"/><path class="b51bbbcc-5dd1-4f0f-9b2d-b7dda79640ab" d="M193.7,21.65V37H176.42V21.65H193.7m.5-.5H175.92V37.48H194.2V21.15Z"/><rect class="d0d31664-fd46-4c5a-8d81-f01f50b1d4bd" x="193.45" y="21.4" width="46.53" height="15.83"/><path class="b51bbbcc-5dd1-4f0f-9b2d-b7dda79640ab" d="M239.73,21.65V37h-46V21.65h46m.5-.5h-47V37.48h47V21.15Z"/></g><g id="b28b7dc0-cba7-4000-8bc1-dbca301e0f51" data-name="text-annotations"><path class="b51bbbcc-5dd1-4f0f-9b2d-b7dda79640ab" d="M204.24,13.29v2.95h-1.06V8.35h2.32a4.28,4.28,0,0,1,1.31.18,2.48,2.48,0,0,1,.91.49,2,2,0,0,1,.54.77,2.71,2.71,0,0,1,.18,1,2.51,2.51,0,0,1-.19,1,2.23,2.23,0,0,1-.56.79,2.6,2.6,0,0,1-.93.51,3.71,3.71,0,0,1-1.26.19Zm0-.85h1.26a2.47,2.47,0,0,0,.81-.12,1.63,1.63,0,0,0,.59-.34,1.45,1.45,0,0,0,.35-.52,1.76,1.76,0,0,0,.13-.66,1.51,1.51,0,0,0-.47-1.18,2,2,0,0,0-1.41-.42h-1.26Z"/><path class="b51bbbcc-5dd1-4f0f-9b2d-b7dda79640ab" d="M211.73,10.58a2.8,2.8,0,0,1,1.1.2,2.35,2.35,0,0,1,.83.58,2.52,2.52,0,0,1,.53.9,3.82,3.82,0,0,1,0,2.38,2.52,2.52,0,0,1-.53.9,2.2,2.2,0,0,1-.83.57,3.15,3.15,0,0,1-2.21,0,2.24,2.24,0,0,1-.84-.57,2.68,2.68,0,0,1-.53-.9,3.82,3.82,0,0,1,0-2.38,2.68,2.68,0,0,1,.53-.9,2.38,2.38,0,0,1,.84-.58A2.82,2.82,0,0,1,211.73,10.58Zm0,5A1.44,1.44,0,0,0,213,15a2.6,2.6,0,0,0,.4-1.55,2.6,2.6,0,0,0-.4-1.55,1.42,1.42,0,0,0-1.23-.55,1.64,1.64,0,0,0-.73.14,1.21,1.21,0,0,0-.51.41,1.84,1.84,0,0,0-.31.66,3.51,3.51,0,0,0-.1.89,3.46,3.46,0,0,0,.1.89,1.84,1.84,0,0,0,.31.66,1.38,1.38,0,0,0,.51.41A1.79,1.79,0,0,0,211.73,15.55Z"/><path class="b51bbbcc-5dd1-4f0f-9b2d-b7dda79640ab" d="M216.68,8.13v8.11h-1V8.13Z"/><path class="b51bbbcc-5dd1-4f0f-9b2d-b7dda79640ab" d="M220,17.88a.83.83,0,0,1-.13.18.35.35,0,0,1-.23.06H219l1-2.21-2.3-5.25h.84a.3.3,0,0,1,.2.07.49.49,0,0,1,.11.14l1.49,3.51a2.25,2.25,0,0,1,.08.24,1,1,0,0,1,.06.25c0-.09.06-.17.08-.25l.09-.25,1.45-3.5a.33.33,0,0,1,.11-.15.27.27,0,0,1,.17-.06h.78Z"/><path class="b51bbbcc-5dd1-4f0f-9b2d-b7dda79640ab" d="M230.22,16.24h-.82a.32.32,0,0,1-.23-.08A.37.37,0,0,1,229,16l-.73-1.9h-3.54L224,16a.38.38,0,0,1-.13.18.36.36,0,0,1-.23.08h-.82L226,8.35h1.08Zm-5.16-2.93H228l-1.24-3.21a4.71,4.71,0,0,1-.23-.74q-.06.23-.12.42t-.12.33Z"/><path class="b51bbbcc-5dd1-4f0f-9b2d-b7dda79640ab" d="M104.66,9.77a.23.23,0,0,1,.18.09l.51.55a3.21,3.21,0,0,1-1.19.9,4.09,4.09,0,0,1-1.68.32,4,4,0,0,1-1.57-.3,3.42,3.42,0,0,1-1.2-.84A3.72,3.72,0,0,1,99,9.21a4.72,4.72,0,0,1-.26-1.63A4.55,4.55,0,0,1,99,5.94a3.75,3.75,0,0,1,.8-1.28A3.52,3.52,0,0,1,101,3.83a4,4,0,0,1,1.58-.3,3.76,3.76,0,0,1,2.66,1l-.43.6a.47.47,0,0,1-.1.1.29.29,0,0,1-.17,0,.48.48,0,0,1-.25-.11L103.94,5a3.26,3.26,0,0,0-.55-.23,3.11,3.11,0,0,0-.82-.1,2.75,2.75,0,0,0-1,.2,2.2,2.2,0,0,0-.81.58,2.68,2.68,0,0,0-.53.92A3.67,3.67,0,0,0,100,7.58a3.66,3.66,0,0,0,.2,1.24,2.65,2.65,0,0,0,.54.93,2.33,2.33,0,0,0,.82.57,2.38,2.38,0,0,0,1,.2,5.15,5.15,0,0,0,.59,0,3.19,3.19,0,0,0,.49-.12,2.22,2.22,0,0,0,.41-.2,2.55,2.55,0,0,0,.39-.3A.34.34,0,0,1,104.66,9.77Z"/><path class="b51bbbcc-5dd1-4f0f-9b2d-b7dda79640ab" d="M113.42,7.58a4.39,4.39,0,0,1-.29,1.61,3.77,3.77,0,0,1-.8,1.25,3.55,3.55,0,0,1-1.25.81,4.45,4.45,0,0,1-1.62.29h-3V3.62h3a4.45,4.45,0,0,1,1.62.29,3.55,3.55,0,0,1,1.25.81,3.67,3.67,0,0,1,.8,1.25A4.39,4.39,0,0,1,113.42,7.58Zm-1.31,0a3.92,3.92,0,0,0-.19-1.23,2.53,2.53,0,0,0-.53-.92,2.2,2.2,0,0,0-.83-.57,3,3,0,0,0-1.1-.2h-1.7V10.5h1.7a3,3,0,0,0,1.1-.2,2.2,2.2,0,0,0,.83-.57,2.53,2.53,0,0,0,.53-.92A3.87,3.87,0,0,0,112.11,7.58Z"/><path class="b51bbbcc-5dd1-4f0f-9b2d-b7dda79640ab" d="M119,5a.69.69,0,0,1-.13.15.31.31,0,0,1-.17,0,.4.4,0,0,1-.23-.08,3.71,3.71,0,0,0-.32-.2,2.74,2.74,0,0,0-.45-.2,1.87,1.87,0,0,0-.61-.09,1.68,1.68,0,0,0-.58.09,1.06,1.06,0,0,0-.42.23.83.83,0,0,0-.26.35,1,1,0,0,0-.09.43.86.86,0,0,0,.16.51,1.6,1.6,0,0,0,.42.34,4.16,4.16,0,0,0,.6.25l.69.23c.23.08.46.17.68.27a2.82,2.82,0,0,1,.6.39,1.8,1.8,0,0,1,.58,1.41,2.72,2.72,0,0,1-.18,1,2.32,2.32,0,0,1-.53.81,2.38,2.38,0,0,1-.85.54,3.09,3.09,0,0,1-1.14.2,3.65,3.65,0,0,1-.74-.08,3.94,3.94,0,0,1-.69-.21,3.21,3.21,0,0,1-.61-.32,3.05,3.05,0,0,1-.51-.43l.37-.62a.35.35,0,0,1,.3-.16.56.56,0,0,1,.28.11,3.3,3.3,0,0,0,.37.26,2.52,2.52,0,0,0,.52.26,2.09,2.09,0,0,0,.74.12,1.54,1.54,0,0,0,1.08-.34,1.18,1.18,0,0,0,.38-.94.88.88,0,0,0-.16-.55,1.13,1.13,0,0,0-.42-.35,2.91,2.91,0,0,0-.59-.25l-.69-.21a6.31,6.31,0,0,1-.68-.26,2,2,0,0,1-.59-.4,1.63,1.63,0,0,1-.42-.6,2.16,2.16,0,0,1-.16-.9,2.15,2.15,0,0,1,.16-.83,2.2,2.2,0,0,1,.49-.71,2.32,2.32,0,0,1,.8-.5,2.78,2.78,0,0,1,1.08-.19,3.39,3.39,0,0,1,1.25.22,2.75,2.75,0,0,1,1,.61Z"/><path class="b51bbbcc-5dd1-4f0f-9b2d-b7dda79640ab" d="M17.55,5.61a.45.45,0,0,1-.13.34.62.62,0,0,1-.45.13H14.5l-.36,2.07A5.32,5.32,0,0,1,15.28,8a3,3,0,0,1,1.08.18,2.27,2.27,0,0,1,.79.5,2.23,2.23,0,0,1,.48.76,2.61,2.61,0,0,1,.16.94,2.71,2.71,0,0,1-.22,1.13A2.54,2.54,0,0,1,16.07,13a3.08,3.08,0,0,1-1.11.2,3.53,3.53,0,0,1-.67-.07,3.4,3.4,0,0,1-.59-.19,2.44,2.44,0,0,1-.51-.26,2.86,2.86,0,0,1-.42-.31l.29-.42a.32.32,0,0,1,.27-.15.45.45,0,0,1,.24.09l.34.19a3.05,3.05,0,0,0,.47.19,2,2,0,0,0,.63.08,1.92,1.92,0,0,0,.74-.13,1.7,1.7,0,0,0,.57-.37,2,2,0,0,0,.36-.59,2.29,2.29,0,0,0,.12-.76,2,2,0,0,0-.1-.67,1.25,1.25,0,0,0-.33-.51A1.44,1.44,0,0,0,15.83,9a2.2,2.2,0,0,0-.76-.12,4.3,4.3,0,0,0-.61.05A5.28,5.28,0,0,0,13.8,9l-.62-.18.64-3.68h3.73Z"/><path class="b51bbbcc-5dd1-4f0f-9b2d-b7dda79640ab" d="M20,4.76a1.85,1.85,0,0,1,.23.53,2,2,0,0,1,.08.53,2,2,0,0,1-.25.95,3,3,0,0,1-.68.84l-.3-.19-.06-.06a.15.15,0,0,1,0-.07.21.21,0,0,1,.05-.13,1.37,1.37,0,0,0,.17-.23,1.28,1.28,0,0,0,.15-.25,1.45,1.45,0,0,0,.11-.29,1.55,1.55,0,0,0,0-.31,1.13,1.13,0,0,0-.06-.36,1.27,1.27,0,0,0-.18-.4.27.27,0,0,1,0-.12A.19.19,0,0,1,19.44,5Z"/><path class="b51bbbcc-5dd1-4f0f-9b2d-b7dda79640ab" d="M27.61,8.48a.38.38,0,0,1-.09.09.21.21,0,0,1-.12,0,.27.27,0,0,1-.18-.07L27,8.38a2.62,2.62,0,0,0-.36-.15,1.87,1.87,0,0,0-.52-.07,1.66,1.66,0,0,0-.72.15,1.42,1.42,0,0,0-.52.42,1.82,1.82,0,0,0-.32.67,3.34,3.34,0,0,0-.11.87,3.06,3.06,0,0,0,.12.9,1.85,1.85,0,0,0,.32.66,1.45,1.45,0,0,0,.51.41,1.6,1.6,0,0,0,.67.14,1.63,1.63,0,0,0,.59-.09A1.77,1.77,0,0,0,27,12.1l.25-.19a.29.29,0,0,1,.2-.08.22.22,0,0,1,.19.09l.27.36a2.15,2.15,0,0,1-.91.65,3.13,3.13,0,0,1-1.15.21,2.44,2.44,0,0,1-1-.2,2,2,0,0,1-.77-.56,2.5,2.5,0,0,1-.53-.9,3.76,3.76,0,0,1-.18-1.21,3.55,3.55,0,0,1,.17-1.15,2.35,2.35,0,0,1,1.33-1.51A2.8,2.8,0,0,1,26,7.4a2.56,2.56,0,0,1,1,.19,2.38,2.38,0,0,1,.8.53Z"/><path class="b51bbbcc-5dd1-4f0f-9b2d-b7dda79640ab" d="M33,13.06h-.43a.54.54,0,0,1-.24-.05.27.27,0,0,1-.11-.18l-.11-.52-.43.36a2.82,2.82,0,0,1-.44.26,2.56,2.56,0,0,1-.49.16,2.65,2.65,0,0,1-.58.06,2,2,0,0,1-.61-.09,1.57,1.57,0,0,1-.49-.28,1.35,1.35,0,0,1-.34-.46,1.62,1.62,0,0,1-.12-.66,1.27,1.27,0,0,1,.18-.64,1.65,1.65,0,0,1,.59-.54,3.69,3.69,0,0,1,1.06-.39,7.25,7.25,0,0,1,1.6-.15V9.5a1.58,1.58,0,0,0-.28-1A1,1,0,0,0,31,8.18a1.72,1.72,0,0,0-.6.09,2.48,2.48,0,0,0-.43.2l-.31.21a.43.43,0,0,1-.25.09.35.35,0,0,1-.18,0,.69.69,0,0,1-.11-.13l-.18-.32a3.16,3.16,0,0,1,1-.66,3,3,0,0,1,1.18-.22,2.16,2.16,0,0,1,.83.15,1.78,1.78,0,0,1,.61.43,1.82,1.82,0,0,1,.37.67,2.57,2.57,0,0,1,.13.85Zm-2.54-.6a2.26,2.26,0,0,0,.47-.05,1.84,1.84,0,0,0,.77-.39,3.18,3.18,0,0,0,.34-.31V10.56a6.24,6.24,0,0,0-1.15.09,3,3,0,0,0-.77.22,1,1,0,0,0-.43.33.68.68,0,0,0-.14.42,1.07,1.07,0,0,0,.07.38.65.65,0,0,0,.2.26.69.69,0,0,0,.28.15A1.36,1.36,0,0,0,30.5,12.46Z"/><path class="b51bbbcc-5dd1-4f0f-9b2d-b7dda79640ab" d="M34.52,14.94V7.49h.59a.24.24,0,0,1,.26.2l.08.66a3,3,0,0,1,.82-.7,2.16,2.16,0,0,1,1.06-.26,2.05,2.05,0,0,1,.87.18,1.74,1.74,0,0,1,.66.55,2.46,2.46,0,0,1,.43.89,4.55,4.55,0,0,1,.15,1.23,3.78,3.78,0,0,1-.17,1.14,2.85,2.85,0,0,1-.47.92,2.25,2.25,0,0,1-.76.61,2.21,2.21,0,0,1-1,.23,2,2,0,0,1-.88-.18,2,2,0,0,1-.65-.48v2.46ZM37,8.18a1.54,1.54,0,0,0-.83.22A2.58,2.58,0,0,0,35.5,9v2.7a1.63,1.63,0,0,0,.59.51,1.72,1.72,0,0,0,.72.15,1.42,1.42,0,0,0,1.2-.56,2.65,2.65,0,0,0,.41-1.58,4.22,4.22,0,0,0-.09-.94,2,2,0,0,0-.28-.64,1.07,1.07,0,0,0-.45-.37A1.57,1.57,0,0,0,37,8.18Z"/><polygon class="b51bbbcc-5dd1-4f0f-9b2d-b7dda79640ab" points="28.39 15.61 25.67 20.32 22.95 15.61 28.39 15.61"/></g><g id="0a8cd0e4-f643-4873-a57b-1a6f31b54bcf" data-name="text-ends"><path class="b51bbbcc-5dd1-4f0f-9b2d-b7dda79640ab" d="M12.56,24.73a.6.6,0,0,1-.17.44.78.78,0,0,1-.56.17H8.68L8.21,28a7.13,7.13,0,0,1,1.45-.16,3.72,3.72,0,0,1,1.39.23,2.84,2.84,0,0,1,1,.63,2.67,2.67,0,0,1,.61,1,3.38,3.38,0,0,1,.21,1.21,3.52,3.52,0,0,1-.28,1.44,3.21,3.21,0,0,1-.77,1.1,3.16,3.16,0,0,1-1.14.7,4.12,4.12,0,0,1-2.27.16A4.48,4.48,0,0,1,7.65,34,4.44,4.44,0,0,1,7,33.67a3.67,3.67,0,0,1-.53-.4l.38-.53a.38.38,0,0,1,.34-.18.58.58,0,0,1,.31.11l.43.24a3,3,0,0,0,.59.24,2.73,2.73,0,0,0,.81.11,2.54,2.54,0,0,0,.94-.17,2,2,0,0,0,.72-.48,2.25,2.25,0,0,0,.46-.74,2.76,2.76,0,0,0,.16-1,2.47,2.47,0,0,0-.14-.84,1.68,1.68,0,0,0-.41-.65,1.81,1.81,0,0,0-.69-.41,2.86,2.86,0,0,0-1-.15,5.32,5.32,0,0,0-.78.06,5.73,5.73,0,0,0-.84.21L7,28.88l.81-4.69h4.75Z"/><path class="b51bbbcc-5dd1-4f0f-9b2d-b7dda79640ab" d="M15.73,23.66a3,3,0,0,1,.3.67,2.55,2.55,0,0,1-.22,1.89,3.9,3.9,0,0,1-.87,1.06L14.56,27a.19.19,0,0,1-.08-.07.29.29,0,0,1,0-.09.25.25,0,0,1,.08-.17c.07-.09.14-.18.21-.29a2.59,2.59,0,0,0,.19-.33,1.4,1.4,0,0,0,.13-.36,1.29,1.29,0,0,0,0-.4,1.94,1.94,0,0,0-.06-.46,2.19,2.19,0,0,0-.23-.5.3.3,0,0,1-.05-.16A.25.25,0,0,1,15,24Z"/><path class="b51bbbcc-5dd1-4f0f-9b2d-b7dda79640ab" d="M247.38,24.07a3.44,3.44,0,0,1,1.18.19,2.79,2.79,0,0,1,.93.51,2.32,2.32,0,0,1,.6.82,2.41,2.41,0,0,1,.22,1.05,2.77,2.77,0,0,1-.12.85,2,2,0,0,1-.9,1.14,3.35,3.35,0,0,1-.72.32,2.74,2.74,0,0,1,1.47.86,2.36,2.36,0,0,1,.49,1.53,3,3,0,0,1-.26,1.25,2.78,2.78,0,0,1-.72.94,3,3,0,0,1-1.06.59,3.9,3.9,0,0,1-1.3.21,4.19,4.19,0,0,1-1.36-.2,2.81,2.81,0,0,1-1-.55,2.75,2.75,0,0,1-.64-.83,6.47,6.47,0,0,1-.43-1l.53-.22a.82.82,0,0,1,.29-.07.49.49,0,0,1,.25.06.39.39,0,0,1,.17.19l0,.06a.25.25,0,0,0,0,.07l.24.45a1.87,1.87,0,0,0,.38.48,2.07,2.07,0,0,0,.59.38,2.27,2.27,0,0,0,.88.16,2.19,2.19,0,0,0,.92-.18,2.06,2.06,0,0,0,.66-.44,2,2,0,0,0,.39-.61,1.78,1.78,0,0,0,.14-.66,2.51,2.51,0,0,0-.11-.75,1.39,1.39,0,0,0-.39-.58,2.08,2.08,0,0,0-.79-.38,4.58,4.58,0,0,0-1.28-.14v-.91a3.9,3.9,0,0,0,1.09-.14,2,2,0,0,0,.73-.36,1.31,1.31,0,0,0,.42-.55,2.07,2.07,0,0,0,0-1.47,1.37,1.37,0,0,0-.37-.53,1.64,1.64,0,0,0-.56-.32,2.34,2.34,0,0,0-.71-.1,2,2,0,0,0-.7.11,2,2,0,0,0-.57.31,1.85,1.85,0,0,0-.41.47,2.27,2.27,0,0,0-.26.6.54.54,0,0,1-.16.3.46.46,0,0,1-.29.09h-.16l-.65-.11a3.65,3.65,0,0,1,.37-1.21,3.13,3.13,0,0,1,.71-.89,3,3,0,0,1,1-.54A3.87,3.87,0,0,1,247.38,24.07Z"/><path class="b51bbbcc-5dd1-4f0f-9b2d-b7dda79640ab" d="M253.06,23.66a3,3,0,0,1,.29.67,2.65,2.65,0,0,1,.09.68,2.51,2.51,0,0,1-.31,1.21,3.86,3.86,0,0,1-.86,1.06l-.39-.24a.23.23,0,0,1-.07-.07.29.29,0,0,1,0-.09.28.28,0,0,1,.07-.17,2.21,2.21,0,0,0,.22-.29,2.59,2.59,0,0,0,.19-.33,1.91,1.91,0,0,0,.13-.36,1.68,1.68,0,0,0,0-.4,1.56,1.56,0,0,0-.07-.46,2.12,2.12,0,0,0-.22-.5.24.24,0,0,1,0-.16.25.25,0,0,1,.19-.24Z"/></g><g id="dde0bc23-eb2e-4ab0-bb03-2741bce82435" data-name="text-titles"><path class="b51bbbcc-5dd1-4f0f-9b2d-b7dda79640ab" d="M85.59,53.42V47.26h.91a.37.37,0,0,1,.38.27L87,48a3.51,3.51,0,0,1,.34-.33,2.33,2.33,0,0,1,.38-.26,2,2,0,0,1,.94-.24,1.44,1.44,0,0,1,1,.32,1.94,1.94,0,0,1,.56.84,1.66,1.66,0,0,1,.36-.53,2.35,2.35,0,0,1,.47-.36,2.13,2.13,0,0,1,.55-.2,2.87,2.87,0,0,1,.58-.07,2.55,2.55,0,0,1,.91.16,1.75,1.75,0,0,1,.67.46,2.07,2.07,0,0,1,.41.73,3.33,3.33,0,0,1,.14,1v3.92H92.76V49.5a1.35,1.35,0,0,0-.26-.89,1,1,0,0,0-.76-.29,1.16,1.16,0,0,0-.42.07,1.13,1.13,0,0,0-.34.23.93.93,0,0,0-.23.37,1.36,1.36,0,0,0-.09.51v3.92H89.17V49.5a1.38,1.38,0,0,0-.24-.9.94.94,0,0,0-.74-.28,1.17,1.17,0,0,0-.6.16,2.05,2.05,0,0,0-.52.43v4.51Z"/><path class="b51bbbcc-5dd1-4f0f-9b2d-b7dda79640ab" d="M97.45,50v3.39H95.83V44.74h2.65a5.61,5.61,0,0,1,1.52.18,2.9,2.9,0,0,1,1,.52,1.89,1.89,0,0,1,.59.79,2.53,2.53,0,0,1,.19,1,2.47,2.47,0,0,1-.13.82,2.29,2.29,0,0,1-.37.71,2.48,2.48,0,0,1-.6.56,3,3,0,0,1-.81.38,1.79,1.79,0,0,1,.53.5l2.17,3.21h-1.45a.69.69,0,0,1-.36-.09.64.64,0,0,1-.25-.24l-1.82-2.78a.79.79,0,0,0-.23-.22.84.84,0,0,0-.36-.06Zm0-1.16h1a2.34,2.34,0,0,0,.79-.12,1.51,1.51,0,0,0,.56-.31,1.25,1.25,0,0,0,.33-.48,1.64,1.64,0,0,0,.1-.6,1.25,1.25,0,0,0-.43-1A2.11,2.11,0,0,0,98.48,46h-1Z"/><path class="b51bbbcc-5dd1-4f0f-9b2d-b7dda79640ab" d="M104.67,44.75a.25.25,0,0,1,.12,0,.37.37,0,0,1,.12.07L105,45l4.55,5.8a2.93,2.93,0,0,1,0-.41c0-.14,0-.26,0-.38V44.74H111v8.68h-.83a.73.73,0,0,1-.32-.06.72.72,0,0,1-.25-.22L105,47.36c0,.13,0,.26,0,.38s0,.24,0,.35v5.33h-1.42V44.74h1Z"/><path class="b51bbbcc-5dd1-4f0f-9b2d-b7dda79640ab" d="M120.34,53.42h-1.25a.51.51,0,0,1-.34-.11.63.63,0,0,1-.2-.26l-.65-1.77h-3.59l-.65,1.77a.5.5,0,0,1-.19.25.5.5,0,0,1-.34.12h-1.26l3.41-8.68h1.65Zm-5.62-3.28h2.77l-1.06-2.89c-.05-.12-.1-.27-.16-.45s-.11-.36-.17-.57c0,.21-.11.4-.16.57l-.16.47Z"/><path class="b51bbbcc-5dd1-4f0f-9b2d-b7dda79640ab" d="M125.49,53.51a1.6,1.6,0,0,1-1.23-.45,1.73,1.73,0,0,1-.44-1.25V48.37h-.62a.28.28,0,0,1-.29-.31v-.59l1-.16.31-1.68a.29.29,0,0,1,.11-.19.38.38,0,0,1,.22-.06h.77v1.93h1.62v1.06h-1.62v3.34a.64.64,0,0,0,.14.45.51.51,0,0,0,.38.16.83.83,0,0,0,.24,0l.16-.07.12-.07a.25.25,0,0,1,.11,0,.21.21,0,0,1,.11,0l.09.1.44.72a2.21,2.21,0,0,1-.74.4A2.56,2.56,0,0,1,125.49,53.51Z"/><path class="b51bbbcc-5dd1-4f0f-9b2d-b7dda79640ab" d="M128.11,53.42V47.26H129a.51.51,0,0,1,.32.08.52.52,0,0,1,.12.29l.09.75a2.86,2.86,0,0,1,.77-.9,1.64,1.64,0,0,1,1-.33,1.28,1.28,0,0,1,.75.21l-.19,1.11a.22.22,0,0,1-.08.15.25.25,0,0,1-.16,0,1,1,0,0,1-.25,0,1.53,1.53,0,0,0-.41,0,1.31,1.31,0,0,0-.79.25,1.94,1.94,0,0,0-.56.75v3.84Z"/><path class="b51bbbcc-5dd1-4f0f-9b2d-b7dda79640ab" d="M137.66,53.42H137a.62.62,0,0,1-.33-.07.38.38,0,0,1-.18-.25l-.13-.44a5,5,0,0,1-.46.37,3.07,3.07,0,0,1-.46.27,2.76,2.76,0,0,1-.51.16,3.64,3.64,0,0,1-.6,0,2.37,2.37,0,0,1-.72-.1,1.59,1.59,0,0,1-.57-.32,1.41,1.41,0,0,1-.37-.52,1.83,1.83,0,0,1-.13-.73,1.48,1.48,0,0,1,.18-.69,1.69,1.69,0,0,1,.61-.61,3.7,3.7,0,0,1,1.14-.46,7.18,7.18,0,0,1,1.75-.18v-.36a1.31,1.31,0,0,0-.26-.92.94.94,0,0,0-.76-.3,1.74,1.74,0,0,0-.6.08,2.26,2.26,0,0,0-.41.19l-.33.19a.73.73,0,0,1-.33.08.38.38,0,0,1-.26-.08.52.52,0,0,1-.17-.19l-.27-.47a3.65,3.65,0,0,1,2.56-1,2.61,2.61,0,0,1,1,.17,2,2,0,0,1,.72.49,2.07,2.07,0,0,1,.45.76,2.93,2.93,0,0,1,.15,1Zm-2.88-.93a1.87,1.87,0,0,0,.42,0,1.9,1.9,0,0,0,.36-.12,1.85,1.85,0,0,0,.33-.21,2.07,2.07,0,0,0,.32-.28v-1a5.54,5.54,0,0,0-1.08.08,2.54,2.54,0,0,0-.7.21.87.87,0,0,0-.37.29.62.62,0,0,0-.11.37.63.63,0,0,0,.23.56A.93.93,0,0,0,134.78,52.49Z"/><path class="b51bbbcc-5dd1-4f0f-9b2d-b7dda79640ab" d="M139.12,53.42V47.26h.9a.36.36,0,0,1,.38.27l.1.49a3.23,3.23,0,0,1,.4-.35,2.2,2.2,0,0,1,.43-.27,2.13,2.13,0,0,1,.5-.18,2.65,2.65,0,0,1,.58-.06,2.28,2.28,0,0,1,.89.17,1.87,1.87,0,0,1,.65.48,2.12,2.12,0,0,1,.4.74,3.16,3.16,0,0,1,.13,1v3.92H143V49.5a1.31,1.31,0,0,0-.26-.87,1,1,0,0,0-.78-.31,1.47,1.47,0,0,0-.72.17,2.57,2.57,0,0,0-.64.47v4.46Z"/><path class="b51bbbcc-5dd1-4f0f-9b2d-b7dda79640ab" d="M149.59,48.46a.58.58,0,0,1-.12.14.43.43,0,0,1-.17,0,.53.53,0,0,1-.23-.06l-.29-.13a2.46,2.46,0,0,0-.36-.14,1.83,1.83,0,0,0-.49-.06,1.13,1.13,0,0,0-.69.19.58.58,0,0,0-.26.49.49.49,0,0,0,.13.33,1.19,1.19,0,0,0,.35.24,3.74,3.74,0,0,0,.48.18l.55.18a5.2,5.2,0,0,1,.55.21,2.3,2.3,0,0,1,.49.32,1.41,1.41,0,0,1,.34.45,1.55,1.55,0,0,1,.13.64,2,2,0,0,1-.17.82,1.64,1.64,0,0,1-.47.64,2.06,2.06,0,0,1-.77.43,3.41,3.41,0,0,1-1.05.15,4.1,4.1,0,0,1-.62,0,5.08,5.08,0,0,1-.59-.16,4,4,0,0,1-.51-.24,3.82,3.82,0,0,1-.42-.3l.34-.57a.45.45,0,0,1,.16-.15.39.39,0,0,1,.23-.06.52.52,0,0,1,.26.08l.28.17c.11.06.24.11.38.17a1.78,1.78,0,0,0,.56.07,1.49,1.49,0,0,0,.45-.06,1,1,0,0,0,.31-.16.59.59,0,0,0,.18-.24.67.67,0,0,0,.06-.28.48.48,0,0,0-.13-.35.87.87,0,0,0-.34-.24,3.87,3.87,0,0,0-.49-.19l-.56-.17c-.18-.07-.37-.14-.55-.23a1.83,1.83,0,0,1-.49-.33,1.39,1.39,0,0,1-.34-.48,1.65,1.65,0,0,1-.13-.7,1.79,1.79,0,0,1,.15-.72,1.69,1.69,0,0,1,.44-.59,2.24,2.24,0,0,1,.73-.41,2.8,2.8,0,0,1,1-.16,3.07,3.07,0,0,1,1.16.21,2.56,2.56,0,0,1,.87.56Z"/><path class="b51bbbcc-5dd1-4f0f-9b2d-b7dda79640ab" d="M155.51,48.56a.53.53,0,0,1-.13.13.24.24,0,0,1-.18.05.36.36,0,0,1-.22-.07l-.26-.15a2,2,0,0,0-.36-.16,1.53,1.53,0,0,0-.51-.07,1.67,1.67,0,0,0-.69.14,1.35,1.35,0,0,0-.48.41,1.73,1.73,0,0,0-.3.64,3.63,3.63,0,0,0-.09.85,3.3,3.3,0,0,0,.1.87,1.79,1.79,0,0,0,.31.65,1.29,1.29,0,0,0,.48.39,1.42,1.42,0,0,0,.63.14,1.57,1.57,0,0,0,.58-.09,2,2,0,0,0,.36-.19l.27-.19a.36.36,0,0,1,.24-.09.31.31,0,0,1,.27.14l.43.54a2.65,2.65,0,0,1-.53.48,3.11,3.11,0,0,1-.6.31,2.88,2.88,0,0,1-.64.17,4.87,4.87,0,0,1-.65,0,2.64,2.64,0,0,1-1.08-.22,2.56,2.56,0,0,1-.88-.62,3,3,0,0,1-.59-1,3.73,3.73,0,0,1-.22-1.34,3.66,3.66,0,0,1,.2-1.26,2.81,2.81,0,0,1,.57-1,2.64,2.64,0,0,1,.93-.67,3.26,3.26,0,0,1,1.29-.24,3,3,0,0,1,1.21.23,3,3,0,0,1,.93.63Z"/><path class="b51bbbcc-5dd1-4f0f-9b2d-b7dda79640ab" d="M156.91,53.42V47.26h.87a.51.51,0,0,1,.32.08.52.52,0,0,1,.12.29l.09.75a2.86,2.86,0,0,1,.77-.9,1.64,1.64,0,0,1,1-.33,1.28,1.28,0,0,1,.75.21l-.19,1.11a.22.22,0,0,1-.08.15.25.25,0,0,1-.16,0,1,1,0,0,1-.25,0,1.53,1.53,0,0,0-.41,0,1.31,1.31,0,0,0-.79.25,1.94,1.94,0,0,0-.56.75v3.84Z"/><path class="b51bbbcc-5dd1-4f0f-9b2d-b7dda79640ab" d="M163.61,45.47a.94.94,0,0,1-.08.36,1,1,0,0,1-.2.29,1.1,1.1,0,0,1-.31.2.91.91,0,0,1-.37.08.86.86,0,0,1-.36-.08.93.93,0,0,1-.3-.2,1,1,0,0,1-.2-.29.94.94,0,0,1-.08-.36,1,1,0,0,1,.08-.38,1.21,1.21,0,0,1,.2-.3.93.93,0,0,1,.3-.2.86.86,0,0,1,.36-.07.9.9,0,0,1,.37.07,1.1,1.1,0,0,1,.31.2,1.21,1.21,0,0,1,.2.3A1,1,0,0,1,163.61,45.47Zm-.22,1.79v6.16h-1.48V47.26Z"/><path class="b51bbbcc-5dd1-4f0f-9b2d-b7dda79640ab" d="M165.06,55.43V47.26H166a.38.38,0,0,1,.24.07.3.3,0,0,1,.14.2l.12.57a3.14,3.14,0,0,1,.85-.69,2.27,2.27,0,0,1,1.13-.26,2,2,0,0,1,.92.21,2.07,2.07,0,0,1,.72.6,3,3,0,0,1,.47,1,5,5,0,0,1,.17,1.34,4.35,4.35,0,0,1-.19,1.28,3.09,3.09,0,0,1-.53,1,2.38,2.38,0,0,1-.84.67,2.43,2.43,0,0,1-1.09.25,2.27,2.27,0,0,1-.88-.16,2.46,2.46,0,0,1-.66-.44v2.52Zm2.88-7.11a1.52,1.52,0,0,0-.79.19,2.38,2.38,0,0,0-.61.55v2.76a1.43,1.43,0,0,0,.55.43,1.53,1.53,0,0,0,.64.13,1.33,1.33,0,0,0,.61-.13,1.12,1.12,0,0,0,.46-.38,1.69,1.69,0,0,0,.29-.65,3.59,3.59,0,0,0,.11-.93,3.94,3.94,0,0,0-.09-.91,1.72,1.72,0,0,0-.25-.61,1.08,1.08,0,0,0-.39-.35A1.29,1.29,0,0,0,167.94,48.32Z"/><path class="b51bbbcc-5dd1-4f0f-9b2d-b7dda79640ab" d="M173.87,53.51a1.63,1.63,0,0,1-1.23-.45,1.73,1.73,0,0,1-.43-1.25V48.37h-.63a.28.28,0,0,1-.2-.08.29.29,0,0,1-.09-.23v-.59l1-.16.31-1.68a.33.33,0,0,1,.11-.19.38.38,0,0,1,.22-.06h.77v1.93h1.62v1.06h-1.62v3.34a.69.69,0,0,0,.14.45.53.53,0,0,0,.39.16.75.75,0,0,0,.23,0l.16-.07.12-.07a.3.3,0,0,1,.11,0,.18.18,0,0,1,.11,0,.3.3,0,0,1,.09.1l.44.72a2.12,2.12,0,0,1-.74.4A2.56,2.56,0,0,1,173.87,53.51Z"/><path class="b51bbbcc-5dd1-4f0f-9b2d-b7dda79640ab" d="M119.23,104.85a.79.79,0,0,1-.13.13.29.29,0,0,1-.19,0,.38.38,0,0,1-.22-.07l-.26-.15a2.29,2.29,0,0,0-.35-.16,1.87,1.87,0,0,0-.52-.07,1.62,1.62,0,0,0-.68.14,1.3,1.3,0,0,0-.49.41,1.79,1.79,0,0,0-.29.64,3.6,3.6,0,0,0-.1.85,3.28,3.28,0,0,0,.11.87,2,2,0,0,0,.3.65,1.29,1.29,0,0,0,.48.39,1.47,1.47,0,0,0,.64.14,1.55,1.55,0,0,0,.57-.09,1.81,1.81,0,0,0,.37-.19l.26-.19a.38.38,0,0,1,.25-.09.31.31,0,0,1,.27.14l.42.54a2.65,2.65,0,0,1-.53.48,2.44,2.44,0,0,1-.6.31,2.66,2.66,0,0,1-.63.17,4.89,4.89,0,0,1-.66,0,2.56,2.56,0,0,1-1.07-.22,2.47,2.47,0,0,1-.88-.62,3,3,0,0,1-.6-1,4.33,4.33,0,0,1,0-2.6,2.81,2.81,0,0,1,.57-1,2.68,2.68,0,0,1,.94-.67,3.4,3.4,0,0,1,1.28-.23,3,3,0,0,1,1.21.22,3.1,3.1,0,0,1,.94.63Z"/><path class="b51bbbcc-5dd1-4f0f-9b2d-b7dda79640ab" d="M128.41,105.37a4.54,4.54,0,0,1-.32,1.75,4.15,4.15,0,0,1-.89,1.38,4,4,0,0,1-1.39.89,4.91,4.91,0,0,1-1.79.32h-3.31V101H124a4.91,4.91,0,0,1,1.79.32,4,4,0,0,1,1.39.9,3.91,3.91,0,0,1,.89,1.37A4.51,4.51,0,0,1,128.41,105.37Zm-1.65,0a3.91,3.91,0,0,0-.19-1.28,2.66,2.66,0,0,0-.55-1,2.44,2.44,0,0,0-.86-.61,3.17,3.17,0,0,0-1.14-.21h-1.69v6.11H124a3,3,0,0,0,1.14-.21,2.3,2.3,0,0,0,.86-.6,2.66,2.66,0,0,0,.55-1A3.91,3.91,0,0,0,126.76,105.37Z"/><path class="b51bbbcc-5dd1-4f0f-9b2d-b7dda79640ab" d="M130.7,101l.13,0a.26.26,0,0,1,.11.07.87.87,0,0,1,.12.14l4.56,5.8c0-.14,0-.28,0-.41V101H137v8.68h-.84a.79.79,0,0,1-.32-.06.69.69,0,0,1-.24-.22l-4.54-5.78c0,.13,0,.26,0,.38s0,.24,0,.35v5.33h-1.42V101h1Z"/><path class="b51bbbcc-5dd1-4f0f-9b2d-b7dda79640ab" d="M146.38,109.71h-1.25a.56.56,0,0,1-.35-.11.55.55,0,0,1-.19-.26l-.65-1.77h-3.6l-.64,1.77a.56.56,0,0,1-.19.25.53.53,0,0,1-.35.12h-1.25l3.41-8.68H143Zm-5.62-3.28h2.76l-1.05-2.89c-.05-.12-.1-.27-.16-.45a5.6,5.6,0,0,1-.17-.57c-.06.21-.11.4-.17.58a4.09,4.09,0,0,1-.16.46Z"/><path class="b51bbbcc-5dd1-4f0f-9b2d-b7dda79640ab" d="M90.74,179.45a.53.53,0,0,1-.13.13.3.3,0,0,1-.18,0,.36.36,0,0,1-.22-.07L90,179.4a2.06,2.06,0,0,0-.36-.15,1.53,1.53,0,0,0-.51-.07,1.67,1.67,0,0,0-.69.14,1.26,1.26,0,0,0-.48.41,1.67,1.67,0,0,0-.29.63,3.2,3.2,0,0,0-.1.85,3.38,3.38,0,0,0,.1.88,1.66,1.66,0,0,0,.31.64,1.23,1.23,0,0,0,.48.4,1.42,1.42,0,0,0,.63.14,1.57,1.57,0,0,0,.58-.09A2,2,0,0,0,90,183l.27-.2a.41.41,0,0,1,.25-.08.26.26,0,0,1,.26.14l.43.54a2.65,2.65,0,0,1-.53.48,3.11,3.11,0,0,1-.6.31,3.55,3.55,0,0,1-.64.17,4.82,4.82,0,0,1-.65,0,2.81,2.81,0,0,1-1.08-.21,2.56,2.56,0,0,1-.88-.62,3.08,3.08,0,0,1-.59-1,3.75,3.75,0,0,1-.22-1.35,3.85,3.85,0,0,1,.2-1.25,3,3,0,0,1,.57-1,2.57,2.57,0,0,1,.94-.66,3.18,3.18,0,0,1,1.28-.24,3.22,3.22,0,0,1,1.21.22,3,3,0,0,1,.93.64Z"/><path class="b51bbbcc-5dd1-4f0f-9b2d-b7dda79640ab" d="M99.93,180a4.74,4.74,0,0,1-.32,1.75,3.89,3.89,0,0,1-.9,1.37,4,4,0,0,1-1.38.9,4.91,4.91,0,0,1-1.79.31H92.22v-8.67h3.32a4.71,4.71,0,0,1,1.79.32,4,4,0,0,1,1.38.89,3.89,3.89,0,0,1,.9,1.37A4.79,4.79,0,0,1,99.93,180Zm-1.65,0a4,4,0,0,0-.2-1.29,2.82,2.82,0,0,0-.54-1,2.38,2.38,0,0,0-.86-.6,3,3,0,0,0-1.14-.21H93.85V183h1.69a3,3,0,0,0,1.14-.21,2.38,2.38,0,0,0,.86-.6,2.82,2.82,0,0,0,.54-1A4,4,0,0,0,98.28,180Z"/><path class="b51bbbcc-5dd1-4f0f-9b2d-b7dda79640ab" d="M102.22,175.64a.28.28,0,0,1,.13,0l.11.08a.94.94,0,0,1,.12.14l4.55,5.8,0-.41c0-.14,0-.26,0-.38v-5.27h1.42v8.67h-.83a.73.73,0,0,1-.32-.06.78.78,0,0,1-.25-.21l-4.53-5.78,0,.38v5.67h-1.42v-8.67h1Z"/><path class="b51bbbcc-5dd1-4f0f-9b2d-b7dda79640ab" d="M117.89,184.3h-1.25a.53.53,0,0,1-.34-.1.63.63,0,0,1-.2-.26l-.65-1.77h-3.59l-.65,1.77a.54.54,0,0,1-.19.25.5.5,0,0,1-.34.11h-1.26l3.41-8.67h1.65ZM112.27,181H115L114,178.14c0-.13-.1-.28-.15-.45s-.12-.36-.18-.57c-.05.21-.11.4-.16.57a4.79,4.79,0,0,1-.16.46Z"/><path class="b51bbbcc-5dd1-4f0f-9b2d-b7dda79640ab" d="M121.28,184.3v-5l-.53-.08a.56.56,0,0,1-.28-.12.31.31,0,0,1-.11-.25v-.61h.92v-.45a2.56,2.56,0,0,1,.16-.95,1.93,1.93,0,0,1,.46-.72,2,2,0,0,1,.72-.45,3,3,0,0,1,1.75,0l0,.75a.22.22,0,0,1-.16.21,1.25,1.25,0,0,1-.35,0,1.68,1.68,0,0,0-.47.06.72.72,0,0,0-.35.2.85.85,0,0,0-.22.37,1.86,1.86,0,0,0-.08.57v.41h1.61v1.06h-1.56v5Z"/><path class="b51bbbcc-5dd1-4f0f-9b2d-b7dda79640ab" d="M125.22,184.3v-6.15h.87a.51.51,0,0,1,.32.08.49.49,0,0,1,.12.29l.09.74a3,3,0,0,1,.77-.9,1.64,1.64,0,0,1,1-.33,1.31,1.31,0,0,1,.76.21l-.2,1.11a.22.22,0,0,1-.07.16.29.29,0,0,1-.17,0,.85.85,0,0,1-.24,0,1.61,1.61,0,0,0-.42,0,1.26,1.26,0,0,0-.79.25,2,2,0,0,0-.56.75v3.83Z"/><path class="b51bbbcc-5dd1-4f0f-9b2d-b7dda79640ab" d="M134.77,184.3h-.66a.75.75,0,0,1-.33-.06.41.41,0,0,1-.18-.25l-.13-.44c-.16.14-.31.26-.46.37a3.1,3.1,0,0,1-.47.26,2.18,2.18,0,0,1-.51.17,3.64,3.64,0,0,1-.6.05,2.36,2.36,0,0,1-.72-.11,1.45,1.45,0,0,1-.56-.31,1.34,1.34,0,0,1-.37-.53,1.78,1.78,0,0,1-.14-.72,1.43,1.43,0,0,1,.19-.69,1.71,1.71,0,0,1,.61-.62,3.9,3.9,0,0,1,1.13-.45,7.27,7.27,0,0,1,1.76-.18v-.37a1.4,1.4,0,0,0-.26-.92,1,1,0,0,0-.76-.3,1.72,1.72,0,0,0-.6.09,2,2,0,0,0-.42.19l-.33.19a.73.73,0,0,1-.33.08.41.41,0,0,1-.25-.08.55.55,0,0,1-.18-.19l-.27-.47a3.66,3.66,0,0,1,2.56-1,2.47,2.47,0,0,1,1,.18,2,2,0,0,1,1.16,1.25,2.93,2.93,0,0,1,.15,1Zm-2.88-.92a1.76,1.76,0,0,0,.42,0,1.63,1.63,0,0,0,.37-.13,1.94,1.94,0,0,0,.33-.2,4,4,0,0,0,.32-.29v-1a5.45,5.45,0,0,0-1.08.09,2.84,2.84,0,0,0-.7.2,1,1,0,0,0-.38.3.7.7,0,0,0-.11.37.66.66,0,0,0,.23.56A1,1,0,0,0,131.89,183.38Z"/><path class="b51bbbcc-5dd1-4f0f-9b2d-b7dda79640ab" d="M138.36,178a3.52,3.52,0,0,1,.75.08,2.17,2.17,0,0,1,.63.24h1.77v.55a.32.32,0,0,1-.07.22.45.45,0,0,1-.25.1l-.55.11a2.58,2.58,0,0,1,.1.33,2,2,0,0,1,0,.36,1.87,1.87,0,0,1-.18.83,1.91,1.91,0,0,1-.51.62,2.12,2.12,0,0,1-.76.4,2.93,2.93,0,0,1-1,.14,3.82,3.82,0,0,1-.68-.06.47.47,0,0,0-.28.39.28.28,0,0,0,.17.28,1.45,1.45,0,0,0,.45.12,5.73,5.73,0,0,0,.63,0l.73,0a5.43,5.43,0,0,1,.72.1,2.12,2.12,0,0,1,.64.24,1.45,1.45,0,0,1,.45.44,1.42,1.42,0,0,1,.17.72,1.79,1.79,0,0,1-.2.8,2.21,2.21,0,0,1-.59.68,3.14,3.14,0,0,1-.93.49,4.08,4.08,0,0,1-1.26.18,4.87,4.87,0,0,1-1.22-.14,2.79,2.79,0,0,1-.85-.36,1.55,1.55,0,0,1-.51-.51,1.26,1.26,0,0,1-.17-.62,1,1,0,0,1,.27-.72,1.78,1.78,0,0,1,.73-.47,1,1,0,0,1-.37-.34,1,1,0,0,1-.13-.54,1,1,0,0,1,0-.29,1.34,1.34,0,0,1,.15-.29,1.57,1.57,0,0,1,.25-.27,1.77,1.77,0,0,1,.35-.23,2,2,0,0,1-.73-.67,1.79,1.79,0,0,1-.27-1,1.83,1.83,0,0,1,.18-.82,2,2,0,0,1,.51-.63,2.22,2.22,0,0,1,.78-.4A3.34,3.34,0,0,1,138.36,178Zm1.63,6.52a.44.44,0,0,0-.11-.3.65.65,0,0,0-.29-.18,2.43,2.43,0,0,0-.44-.09,4.33,4.33,0,0,0-.53,0h-.57a2.79,2.79,0,0,1-.58-.07,1.31,1.31,0,0,0-.4.33.66.66,0,0,0-.15.43.52.52,0,0,0,.08.3.63.63,0,0,0,.26.25,1.47,1.47,0,0,0,.45.16,4.44,4.44,0,0,0,.69,0,3.73,3.73,0,0,0,.72-.06,1.48,1.48,0,0,0,.49-.18.69.69,0,0,0,.29-.27A.67.67,0,0,0,140,184.56Zm-1.63-3.48a1.34,1.34,0,0,0,.48-.08.89.89,0,0,0,.34-.21.85.85,0,0,0,.21-.31,1.35,1.35,0,0,0,.07-.41,1,1,0,0,0-.28-.73,1.15,1.15,0,0,0-.82-.26,1.19,1.19,0,0,0-.82.26,1,1,0,0,0-.27.73,1.05,1.05,0,0,0,.07.4,1,1,0,0,0,.2.32.93.93,0,0,0,.35.21A1.32,1.32,0,0,0,138.36,181.08Z"/><path class="b51bbbcc-5dd1-4f0f-9b2d-b7dda79640ab" d="M142.44,184.3v-6.15h.91a.37.37,0,0,1,.38.27l.09.45a3.51,3.51,0,0,1,.34-.33,2.26,2.26,0,0,1,.38-.25,1.76,1.76,0,0,1,.94-.24,1.44,1.44,0,0,1,1,.32,2,2,0,0,1,.56.83,1.61,1.61,0,0,1,.36-.52,1.79,1.79,0,0,1,.47-.36,2.13,2.13,0,0,1,.55-.2,2.3,2.3,0,0,1,.58-.07,2.35,2.35,0,0,1,.91.16,1.73,1.73,0,0,1,.67.45,2.12,2.12,0,0,1,.41.74,3.24,3.24,0,0,1,.14,1v3.91h-1.48v-3.91a1.33,1.33,0,0,0-.26-.89,1,1,0,0,0-.76-.3,1.16,1.16,0,0,0-.42.08,1,1,0,0,0-.34.23.87.87,0,0,0-.23.37,1.29,1.29,0,0,0-.09.51v3.91H146v-3.91a1.35,1.35,0,0,0-.24-.9,1,1,0,0,0-.74-.29,1.28,1.28,0,0,0-.6.16,2.1,2.1,0,0,0-.52.44v4.5Z"/><path class="b51bbbcc-5dd1-4f0f-9b2d-b7dda79640ab" d="M155.09,178.05a2.83,2.83,0,0,1,1.07.19,2.17,2.17,0,0,1,.84.54,2.55,2.55,0,0,1,.56.88,3.32,3.32,0,0,1,.19,1.18,2.27,2.27,0,0,1,0,.28.58.58,0,0,1-.05.17.16.16,0,0,1-.11.09.4.4,0,0,1-.17,0h-3.8a2.07,2.07,0,0,0,.51,1.39,1.58,1.58,0,0,0,1.17.45,2,2,0,0,0,.63-.09,2.34,2.34,0,0,0,.45-.18l.34-.19a.67.67,0,0,1,.29-.08.33.33,0,0,1,.15,0,.32.32,0,0,1,.12.11l.43.54a2.5,2.5,0,0,1-.55.48,3.42,3.42,0,0,1-.64.31,4,4,0,0,1-.68.17,5.12,5.12,0,0,1-.67,0,3.31,3.31,0,0,1-1.19-.21,2.59,2.59,0,0,1-1-.63,2.9,2.9,0,0,1-.64-1,3.93,3.93,0,0,1-.24-1.43,3.29,3.29,0,0,1,.21-1.18,2.88,2.88,0,0,1,.58-1,2.94,2.94,0,0,1,.93-.65A3.08,3.08,0,0,1,155.09,178.05Zm0,1.06a1.38,1.38,0,0,0-1,.37,1.77,1.77,0,0,0-.47,1h2.78a1.67,1.67,0,0,0-.08-.55,1.18,1.18,0,0,0-.24-.44,1.13,1.13,0,0,0-.4-.31A1.5,1.5,0,0,0,155.12,179.11Z"/><path class="b51bbbcc-5dd1-4f0f-9b2d-b7dda79640ab" d="M159,184.3v-6.15h.91a.36.36,0,0,1,.37.27l.11.48a3.17,3.17,0,0,1,.39-.34,2,2,0,0,1,.44-.27,2.05,2.05,0,0,1,.49-.18,2.65,2.65,0,0,1,.58-.06,2.28,2.28,0,0,1,.89.17,1.87,1.87,0,0,1,.65.48,2,2,0,0,1,.4.74,3.16,3.16,0,0,1,.13.95v3.91h-1.48v-3.91a1.36,1.36,0,0,0-.26-.88,1,1,0,0,0-.78-.31,1.48,1.48,0,0,0-.72.18,2.34,2.34,0,0,0-.64.47v4.45Z"/><path class="b51bbbcc-5dd1-4f0f-9b2d-b7dda79640ab" d="M167.8,184.4a1.63,1.63,0,0,1-1.23-.45,1.79,1.79,0,0,1-.43-1.25v-3.44h-.62a.32.32,0,0,1-.21-.08.29.29,0,0,1-.09-.23v-.59l1-.16.32-1.68a.27.27,0,0,1,.11-.19.38.38,0,0,1,.22-.07h.76v1.94h1.62v1.06h-1.62v3.33a.61.61,0,0,0,.15.45.47.47,0,0,0,.38.17.73.73,0,0,0,.23,0,.48.48,0,0,0,.16-.07l.13-.07a.2.2,0,0,1,.11,0,.15.15,0,0,1,.1,0l.09.1.45.72a2.28,2.28,0,0,1-.75.41A2.83,2.83,0,0,1,167.8,184.4Z"/><path class="b51bbbcc-5dd1-4f0f-9b2d-b7dda79640ab" d="M174.08,179.35a.32.32,0,0,1-.13.13.27.27,0,0,1-.16,0,.57.57,0,0,1-.24-.06l-.28-.13a2.61,2.61,0,0,0-.37-.14,1.77,1.77,0,0,0-.49-.06,1.11,1.11,0,0,0-.69.19.56.56,0,0,0-.25.48.45.45,0,0,0,.13.34,1,1,0,0,0,.34.23,3.69,3.69,0,0,0,.48.19l.56.17.55.22a2,2,0,0,1,.48.31,1.41,1.41,0,0,1,.34.46,1.36,1.36,0,0,1,.13.63,2,2,0,0,1-.16.82,1.9,1.9,0,0,1-.47.65,2.49,2.49,0,0,1-.77.43,3.43,3.43,0,0,1-1.06.15,3.18,3.18,0,0,1-.62-.06,3.53,3.53,0,0,1-.58-.16,2.25,2.25,0,0,1-.52-.24,2.17,2.17,0,0,1-.41-.3l.34-.56a.46.46,0,0,1,.15-.16.52.52,0,0,1,.23,0,.5.5,0,0,1,.26.08l.29.17a2.29,2.29,0,0,0,.38.16,1.45,1.45,0,0,0,.55.08,1.56,1.56,0,0,0,.46-.06.92.92,0,0,0,.31-.17.58.58,0,0,0,.18-.23.71.71,0,0,0,.06-.28.55.55,0,0,0-.13-.36,1.28,1.28,0,0,0-.34-.24,4.6,4.6,0,0,0-.49-.18l-.56-.18c-.19-.06-.37-.14-.56-.22a2,2,0,0,1-.48-.33,1.27,1.27,0,0,1-.34-.48,1.68,1.68,0,0,1-.13-.7,1.79,1.79,0,0,1,.15-.72,1.61,1.61,0,0,1,.44-.6,2.26,2.26,0,0,1,.72-.41,3.38,3.38,0,0,1,2.17.06,2.94,2.94,0,0,1,.87.55Z"/><path class="b51bbbcc-5dd1-4f0f-9b2d-b7dda79640ab" d="M113.44,279.41h3.47v1.33h-5.09v-8.68h1.62Z"/><path class="b51bbbcc-5dd1-4f0f-9b2d-b7dda79640ab" d="M119.74,272.79a.73.73,0,0,1-.08.36,1,1,0,0,1-.2.29,1,1,0,0,1-.31.21.9.9,0,0,1-.37.07.86.86,0,0,1-.36-.07.9.9,0,0,1-.3-.21,1,1,0,0,1-.2-.29.86.86,0,0,1-.07-.36.9.9,0,0,1,.07-.37.93.93,0,0,1,.2-.3.88.88,0,0,1,.3-.2.86.86,0,0,1,.36-.08.91.91,0,0,1,.37.08.9.9,0,0,1,.51.5A.77.77,0,0,1,119.74,272.79Zm-.22,1.79v6.16H118v-6.16Z"/><path class="b51bbbcc-5dd1-4f0f-9b2d-b7dda79640ab" d="M121.21,280.74v-8.92h1.48v3.52a2.91,2.91,0,0,1,.83-.62,2.45,2.45,0,0,1,1.08-.23,2,2,0,0,1,.92.21,1.87,1.87,0,0,1,.72.6,2.88,2.88,0,0,1,.47,1,4.83,4.83,0,0,1,.17,1.33,4.35,4.35,0,0,1-.19,1.28,3.09,3.09,0,0,1-.53,1,2.39,2.39,0,0,1-1.93.92,2.12,2.12,0,0,1-.52-.06,1.52,1.52,0,0,1-.42-.16,1.74,1.74,0,0,1-.36-.24,3.26,3.26,0,0,1-.31-.33l-.07.41a.35.35,0,0,1-.12.22.36.36,0,0,1-.24.07Zm2.88-5.1a1.52,1.52,0,0,0-.79.2,2.35,2.35,0,0,0-.61.54v2.76a1.39,1.39,0,0,0,.55.44,1.75,1.75,0,0,0,.65.12,1.46,1.46,0,0,0,.6-.12,1.23,1.23,0,0,0,.46-.39,1.69,1.69,0,0,0,.29-.65,3.59,3.59,0,0,0,.11-.93,3.94,3.94,0,0,0-.09-.91,1.81,1.81,0,0,0-.25-.61,1,1,0,0,0-.39-.34A1.29,1.29,0,0,0,124.09,275.64Z"/><path class="b51bbbcc-5dd1-4f0f-9b2d-b7dda79640ab" d="M128,280.74v-6.16h.87a.44.44,0,0,1,.32.09.46.46,0,0,1,.12.29l.09.74a2.89,2.89,0,0,1,.78-.9,1.6,1.6,0,0,1,1-.33,1.29,1.29,0,0,1,.76.21l-.19,1.11a.27.27,0,0,1-.08.15.28.28,0,0,1-.16.05l-.25,0a1.47,1.47,0,0,0-.41-.05,1.28,1.28,0,0,0-.8.26,1.93,1.93,0,0,0-.55.75v3.83Z"/><path class="b51bbbcc-5dd1-4f0f-9b2d-b7dda79640ab" d="M137.59,280.74h-.67a.75.75,0,0,1-.33-.06.41.41,0,0,1-.18-.26l-.13-.44a4.66,4.66,0,0,1-.46.37,2.48,2.48,0,0,1-.47.27,2.16,2.16,0,0,1-.51.16,2.77,2.77,0,0,1-.6.06,2.36,2.36,0,0,1-.72-.11,1.45,1.45,0,0,1-.56-.31,1.54,1.54,0,0,1-.37-.53,1.83,1.83,0,0,1-.13-.73,1.48,1.48,0,0,1,.18-.69,1.69,1.69,0,0,1,.61-.61,4.19,4.19,0,0,1,1.13-.46,7.27,7.27,0,0,1,1.76-.18v-.36a1.4,1.4,0,0,0-.26-.92,1,1,0,0,0-.76-.3,2,2,0,0,0-.6.08,2.76,2.76,0,0,0-.42.19l-.32.19a.63.63,0,0,1-.33.09.45.45,0,0,1-.26-.08.81.81,0,0,1-.18-.19l-.27-.48a3.67,3.67,0,0,1,2.57-1,2.42,2.42,0,0,1,1,.18,2,2,0,0,1,1.16,1.24,2.93,2.93,0,0,1,.16,1Zm-2.88-.92a1.86,1.86,0,0,0,.42-.05,1.27,1.27,0,0,0,.36-.12,1.94,1.94,0,0,0,.33-.2,4,4,0,0,0,.32-.29v-1a6.45,6.45,0,0,0-1.08.08,3.29,3.29,0,0,0-.7.21.85.85,0,0,0-.38.3.66.66,0,0,0-.11.36.68.68,0,0,0,.23.57A1,1,0,0,0,134.71,279.82Z"/><path class="b51bbbcc-5dd1-4f0f-9b2d-b7dda79640ab" d="M139,280.74v-6.16h.87a.44.44,0,0,1,.32.09.46.46,0,0,1,.12.29l.09.74a3,3,0,0,1,.77-.9,1.64,1.64,0,0,1,1-.33,1.29,1.29,0,0,1,.76.21l-.19,1.11a.27.27,0,0,1-.08.15.28.28,0,0,1-.16.05l-.25,0a1.47,1.47,0,0,0-.41-.05,1.28,1.28,0,0,0-.8.26,1.93,1.93,0,0,0-.55.75v3.83Z"/><path class="b51bbbcc-5dd1-4f0f-9b2d-b7dda79640ab" d="M146.13,282.43a.57.57,0,0,1-.17.24.56.56,0,0,1-.32.08h-1.11l1.16-2.47-2.49-5.7h1.29a.41.41,0,0,1,.28.09.52.52,0,0,1,.14.19l1.31,3.19a1.85,1.85,0,0,1,.12.33c0,.11.06.22.08.33,0-.11.07-.23.11-.33l.12-.33,1.24-3.19a.39.39,0,0,1,.16-.2.41.41,0,0,1,.24-.08h1.19Z"/></g><g id="fcd9b4ec-1bb3-44e2-92c0-dbca43075af1" data-name="shapes"><polygon class="b51bbbcc-5dd1-4f0f-9b2d-b7dda79640ab" points="134.67 61.07 130.25 68.72 125.83 61.07 134.67 61.07"/><polygon class="b51bbbcc-5dd1-4f0f-9b2d-b7dda79640ab" points="134.67 117.36 130.25 125.02 125.83 117.36 134.67 117.36"/><polygon class="b51bbbcc-5dd1-4f0f-9b2d-b7dda79640ab" points="134.67 191.96 130.25 199.61 125.83 191.96 134.67 191.96"/><line class="db22ddd2-1a56-4f60-a7da-5e7529a068ae" x1="47.78" y1="21.65" x2="47.78" y2="36.98"/><line class="db22ddd2-1a56-4f60-a7da-5e7529a068ae" x1="176.42" y1="21.65" x2="176.42" y2="36.98"/></g></svg>