<svg xmlns="http://www.w3.org/2000/svg" viewBox="0 0 243.5 204.1"><defs><style>.da639be4-ecfd-46a3-9b7b-e8aba8e34a62{fill:none;stroke:#575756;}.\36 652143d-ef6f-4cff-8e3f-aee01bbe3945{fill:#a7cee3;}.\35 fdad5c6-dda8-4c69-9856-1d2eca8a2e5b{fill:#fffbbf;}.a940668f-43c2-4bbf-8a74-23c8e48da884{fill:#fb8072;}.\38 c01e69d-d91e-45b5-8568-20692abf753e{fill:#74e0c1;}.\33 449abe1-0084-4f42-8eb2-e90853fbb1da{fill:#575756;}</style></defs><title>rnaseq</title><g id="a99da214-b0a4-4d84-84dc-4684611469dc" data-name="boxes"><rect class="da639be4-ecfd-46a3-9b7b-e8aba8e34a62" x="163.66" y="94.37" width="5.24" height="15.33"/><rect class="da639be4-ecfd-46a3-9b7b-e8aba8e34a62" x="168.89" y="94.37" width="3.99" height="15.33"/><rect class="da639be4-ecfd-46a3-9b7b-e8aba8e34a62" x="160.55" y="94.37" width="3.12" height="15.33"/><rect class="da639be4-ecfd-46a3-9b7b-e8aba8e34a62" x="172.89" y="94.37" width="3.12" height="15.33"/><rect class="6652143d-ef6f-4cff-8e3f-aee01bbe3945" x="163.66" y="94.37" width="5.24" height="15.33"/><rect class="5fdad5c6-dda8-4c69-9856-1d2eca8a2e5b" x="168.89" y="94.37" width="3.99" height="15.33"/><rect class="a940668f-43c2-4bbf-8a74-23c8e48da884" x="160.55" y="94.37" width="3.12" height="15.33"/><rect class="a940668f-43c2-4bbf-8a74-23c8e48da884" x="172.89" y="94.37" width="3.12" height="15.33"/><rect class="da639be4-ecfd-46a3-9b7b-e8aba8e34a62" x="31.97" y="94.37" width="5.24" height="15.33"/><rect class="da639be4-ecfd-46a3-9b7b-e8aba8e34a62" x="37.21" y="94.37" width="3.99" height="15.33"/><rect class="da639be4-ecfd-46a3-9b7b-e8aba8e34a62" x="28.87" y="94.37" width="3.12" height="15.33"/><rect class="da639be4-ecfd-46a3-9b7b-e8aba8e34a62" x="41.2" y="94.37" width="3.12" height="15.33"/><rect class="6652143d-ef6f-4cff-8e3f-aee01bbe3945" x="31.97" y="94.37" width="5.24" height="15.33"/><rect class="5fdad5c6-dda8-4c69-9856-1d2eca8a2e5b" x="37.21" y="94.37" width="3.99" height="15.33"/><rect class="a940668f-43c2-4bbf-8a74-23c8e48da884" x="28.87" y="94.37" width="3.12" height="15.33"/><rect class="a940668f-43c2-4bbf-8a74-23c8e48da884" x="41.2" y="94.37" width="3.12" height="15.33"/><rect class="da639be4-ecfd-46a3-9b7b-e8aba8e34a62" x="66.52" y="4.93" width="5.24" height="15.33"/><rect class="da639be4-ecfd-46a3-9b7b-e8aba8e34a62" x="71.76" y="4.93" width="3.99" height="15.33"/><rect class="da639be4-ecfd-46a3-9b7b-e8aba8e34a62" x="63.42" y="4.93" width="3.12" height="15.33"/><rect class="da639be4-ecfd-46a3-9b7b-e8aba8e34a62" x="75.75" y="4.93" width="3.12" height="15.33"/><rect class="6652143d-ef6f-4cff-8e3f-aee01bbe3945" x="66.52" y="4.93" width="5.24" height="15.33"/><rect class="5fdad5c6-dda8-4c69-9856-1d2eca8a2e5b" x="71.76" y="4.93" width="3.99" height="15.33"/><rect class="a940668f-43c2-4bbf-8a74-23c8e48da884" x="63.42" y="4.93" width="3.12" height="15.33"/><rect class="a940668f-43c2-4bbf-8a74-23c8e48da884" x="75.75" y="4.93" width="3.12" height="15.33"/><rect class="da639be4-ecfd-46a3-9b7b-e8aba8e34a62" x="123.75" y="4.93" width="9.22" height="15.33"/><rect class="da639be4-ecfd-46a3-9b7b-e8aba8e34a62" x="120.64" y="4.93" width="3.12" height="15.33"/><rect class="da639be4-ecfd-46a3-9b7b-e8aba8e34a62" x="132.98" y="4.93" width="3.12" height="15.33"/><rect class="6652143d-ef6f-4cff-8e3f-aee01bbe3945" x="123.75" y="4.93" width="9.22" height="15.33"/><rect class="a940668f-43c2-4bbf-8a74-23c8e48da884" x="120.64" y="4.93" width="3.12" height="15.33"/><rect class="a940668f-43c2-4bbf-8a74-23c8e48da884" x="132.98" y="4.93" width="3.12" height="15.33"/><rect class="da639be4-ecfd-46a3-9b7b-e8aba8e34a62" x="85.82" y="4.93" width="9.22" height="15.33"/><rect class="da639be4-ecfd-46a3-9b7b-e8aba8e34a62" x="82.72" y="4.93" width="3.12" height="15.33"/><rect class="da639be4-ecfd-46a3-9b7b-e8aba8e34a62" x="95.05" y="4.93" width="3.12" height="15.33"/><rect class="6652143d-ef6f-4cff-8e3f-aee01bbe3945" x="85.82" y="4.93" width="9.22" height="15.33"/><rect class="a940668f-43c2-4bbf-8a74-23c8e48da884" x="82.72" y="4.93" width="3.12" height="15.33"/><rect class="a940668f-43c2-4bbf-8a74-23c8e48da884" x="95.05" y="4.93" width="3.12" height="15.33"/><rect class="da639be4-ecfd-46a3-9b7b-e8aba8e34a62" x="198.36" y="4.93" width="9.22" height="15.33"/><rect class="da639be4-ecfd-46a3-9b7b-e8aba8e34a62" x="195.26" y="4.93" width="3.12" height="15.33"/><rect class="da639be4-ecfd-46a3-9b7b-e8aba8e34a62" x="207.59" y="4.93" width="3.12" height="15.33"/><rect class="6652143d-ef6f-4cff-8e3f-aee01bbe3945" x="198.36" y="4.93" width="9.22" height="15.33"/><rect class="a940668f-43c2-4bbf-8a74-23c8e48da884" x="195.26" y="4.93" width="3.12" height="15.33"/><rect class="a940668f-43c2-4bbf-8a74-23c8e48da884" x="207.59" y="4.93" width="3.12" height="15.33"/><rect class="da639be4-ecfd-46a3-9b7b-e8aba8e34a62" x="47.22" y="4.93" width="9.22" height="15.33"/><rect class="da639be4-ecfd-46a3-9b7b-e8aba8e34a62" x="44.12" y="4.93" width="3.12" height="15.33"/><rect class="da639be4-ecfd-46a3-9b7b-e8aba8e34a62" x="56.45" y="4.93" width="3.12" height="15.33"/><rect class="6652143d-ef6f-4cff-8e3f-aee01bbe3945" x="47.22" y="4.93" width="9.22" height="15.33"/><rect class="a940668f-43c2-4bbf-8a74-23c8e48da884" x="44.12" y="4.93" width="3.12" height="15.33"/><rect class="a940668f-43c2-4bbf-8a74-23c8e48da884" x="56.45" y="4.93" width="3.12" height="15.33"/><rect class="da639be4-ecfd-46a3-9b7b-e8aba8e34a62" x="27.18" y="4.93" width="9.22" height="15.33"/><rect class="da639be4-ecfd-46a3-9b7b-e8aba8e34a62" x="24.08" y="4.93" width="3.12" height="15.33"/><rect class="da639be4-ecfd-46a3-9b7b-e8aba8e34a62" x="36.41" y="4.93" width="3.12" height="15.33"/><rect class="6652143d-ef6f-4cff-8e3f-aee01bbe3945" x="27.18" y="4.93" width="9.22" height="15.33"/><rect class="a940668f-43c2-4bbf-8a74-23c8e48da884" x="24.08" y="4.93" width="3.12" height="15.33"/><rect class="a940668f-43c2-4bbf-8a74-23c8e48da884" x="36.41" y="4.93" width="3.12" height="15.33"/><rect class="da639be4-ecfd-46a3-9b7b-e8aba8e34a62" x="143.39" y="4.93" width="9.22" height="15.33"/><rect class="da639be4-ecfd-46a3-9b7b-e8aba8e34a62" x="140.29" y="4.93" width="3.12" height="15.33"/><rect class="da639be4-ecfd-46a3-9b7b-e8aba8e34a62" x="152.63" y="4.93" width="3.12" height="15.33"/><rect class="6652143d-ef6f-4cff-8e3f-aee01bbe3945" x="143.39" y="4.93" width="9.22" height="15.33"/><rect class="a940668f-43c2-4bbf-8a74-23c8e48da884" x="140.29" y="4.93" width="3.12" height="15.33"/><rect class="a940668f-43c2-4bbf-8a74-23c8e48da884" x="152.63" y="4.93" width="3.12" height="15.33"/><rect class="da639be4-ecfd-46a3-9b7b-e8aba8e34a62" x="132.28" y="24.59" width="9.22" height="15.33"/><rect class="da639be4-ecfd-46a3-9b7b-e8aba8e34a62" x="129.17" y="24.59" width="3.12" height="15.33"/><rect class="da639be4-ecfd-46a3-9b7b-e8aba8e34a62" x="141.51" y="24.59" width="3.12" height="15.33"/><rect class="6652143d-ef6f-4cff-8e3f-aee01bbe3945" x="132.28" y="24.59" width="9.22" height="15.33"/><rect class="a940668f-43c2-4bbf-8a74-23c8e48da884" x="129.17" y="24.59" width="3.12" height="15.33"/><rect class="a940668f-43c2-4bbf-8a74-23c8e48da884" x="141.51" y="24.59" width="3.12" height="15.33"/><rect class="da639be4-ecfd-46a3-9b7b-e8aba8e34a62" x="93.91" y="24.59" width="9.22" height="15.33"/><rect class="da639be4-ecfd-46a3-9b7b-e8aba8e34a62" x="90.81" y="24.59" width="3.12" height="15.33"/><rect class="da639be4-ecfd-46a3-9b7b-e8aba8e34a62" x="103.14" y="24.59" width="3.12" height="15.33"/><rect class="6652143d-ef6f-4cff-8e3f-aee01bbe3945" x="93.91" y="24.59" width="9.22" height="15.33"/><rect class="a940668f-43c2-4bbf-8a74-23c8e48da884" x="90.81" y="24.59" width="3.12" height="15.33"/><rect class="a940668f-43c2-4bbf-8a74-23c8e48da884" x="103.14" y="24.59" width="3.12" height="15.33"/><rect class="da639be4-ecfd-46a3-9b7b-e8aba8e34a62" x="74.49" y="24.59" width="9.22" height="15.33"/><rect class="da639be4-ecfd-46a3-9b7b-e8aba8e34a62" x="71.39" y="24.59" width="3.12" height="15.33"/><rect class="da639be4-ecfd-46a3-9b7b-e8aba8e34a62" x="83.72" y="24.59" width="3.12" height="15.33"/><rect class="6652143d-ef6f-4cff-8e3f-aee01bbe3945" x="74.49" y="24.59" width="9.22" height="15.33"/><rect class="a940668f-43c2-4bbf-8a74-23c8e48da884" x="71.39" y="24.59" width="3.12" height="15.33"/><rect class="a940668f-43c2-4bbf-8a74-23c8e48da884" x="83.72" y="24.59" width="3.12" height="15.33"/><rect class="da639be4-ecfd-46a3-9b7b-e8aba8e34a62" x="35.16" y="24.59" width="9.22" height="15.33"/><rect class="da639be4-ecfd-46a3-9b7b-e8aba8e34a62" x="32.06" y="24.59" width="3.12" height="15.33"/><rect class="da639be4-ecfd-46a3-9b7b-e8aba8e34a62" x="44.39" y="24.59" width="3.12" height="15.33"/><rect class="6652143d-ef6f-4cff-8e3f-aee01bbe3945" x="35.16" y="24.59" width="9.22" height="15.33"/><rect class="a940668f-43c2-4bbf-8a74-23c8e48da884" x="32.06" y="24.59" width="3.12" height="15.33"/><rect class="a940668f-43c2-4bbf-8a74-23c8e48da884" x="44.39" y="24.59" width="3.12" height="15.33"/><rect class="da639be4-ecfd-46a3-9b7b-e8aba8e34a62" x="151.12" y="24.59" width="9.22" height="15.33"/><rect class="da639be4-ecfd-46a3-9b7b-e8aba8e34a62" x="148.02" y="24.59" width="3.12" height="15.33"/><rect class="da639be4-ecfd-46a3-9b7b-e8aba8e34a62" x="160.35" y="24.59" width="3.12" height="15.33"/><rect class="6652143d-ef6f-4cff-8e3f-aee01bbe3945" x="151.12" y="24.59" width="9.22" height="15.33"/><rect class="a940668f-43c2-4bbf-8a74-23c8e48da884" x="148.02" y="24.59" width="3.12" height="15.33"/><rect class="a940668f-43c2-4bbf-8a74-23c8e48da884" x="160.35" y="24.59" width="3.12" height="15.33"/><rect class="da639be4-ecfd-46a3-9b7b-e8aba8e34a62" x="54.95" y="24.59" width="9.22" height="15.33"/><rect class="da639be4-ecfd-46a3-9b7b-e8aba8e34a62" x="51.84" y="24.59" width="3.12" height="15.33"/><rect class="da639be4-ecfd-46a3-9b7b-e8aba8e34a62" x="64.18" y="24.59" width="3.12" height="15.33"/><rect class="8c01e69d-d91e-45b5-8568-20692abf753e" x="54.95" y="24.59" width="9.22" height="15.33"/><rect class="a940668f-43c2-4bbf-8a74-23c8e48da884" x="51.84" y="24.59" width="3.12" height="15.33"/><rect class="a940668f-43c2-4bbf-8a74-23c8e48da884" x="64.18" y="24.59" width="3.12" height="15.33"/><rect class="da639be4-ecfd-46a3-9b7b-e8aba8e34a62" x="169.72" y="24.59" width="9.22" height="15.33"/><rect class="da639be4-ecfd-46a3-9b7b-e8aba8e34a62" x="166.62" y="24.59" width="3.12" height="15.33"/><rect class="da639be4-ecfd-46a3-9b7b-e8aba8e34a62" x="178.95" y="24.59" width="3.12" height="15.33"/><rect class="6652143d-ef6f-4cff-8e3f-aee01bbe3945" x="169.72" y="24.59" width="9.22" height="15.33"/><rect class="a940668f-43c2-4bbf-8a74-23c8e48da884" x="166.62" y="24.59" width="3.12" height="15.33"/><rect class="a940668f-43c2-4bbf-8a74-23c8e48da884" x="178.95" y="24.59" width="3.12" height="15.33"/><rect class="da639be4-ecfd-46a3-9b7b-e8aba8e34a62" x="188.2" y="24.59" width="9.22" height="15.33"/><rect class="da639be4-ecfd-46a3-9b7b-e8aba8e34a62" x="185.1" y="24.59" width="3.12" height="15.33"/><rect class="da639be4-ecfd-46a3-9b7b-e8aba8e34a62" x="197.43" y="24.59" width="3.12" height="15.33"/><rect class="6652143d-ef6f-4cff-8e3f-aee01bbe3945" x="188.2" y="24.59" width="9.22" height="15.33"/><rect class="a940668f-43c2-4bbf-8a74-23c8e48da884" x="185.1" y="24.59" width="3.12" height="15.33"/><rect class="a940668f-43c2-4bbf-8a74-23c8e48da884" x="197.43" y="24.59" width="3.12" height="15.33"/><rect class="da639be4-ecfd-46a3-9b7b-e8aba8e34a62" x="180.23" y="4.93" width="8.5" height="15.33"/><rect class="da639be4-ecfd-46a3-9b7b-e8aba8e34a62" x="177.37" y="4.93" width="2.87" height="15.33"/><rect class="da639be4-ecfd-46a3-9b7b-e8aba8e34a62" x="188.74" y="4.93" width="2.87" height="15.33"/><rect class="5fdad5c6-dda8-4c69-9856-1d2eca8a2e5b" x="180.23" y="4.93" width="8.5" height="15.33"/><rect class="a940668f-43c2-4bbf-8a74-23c8e48da884" x="177.37" y="4.93" width="2.87" height="15.33"/><rect class="a940668f-43c2-4bbf-8a74-23c8e48da884" x="188.74" y="4.93" width="2.87" height="15.33"/><rect class="da639be4-ecfd-46a3-9b7b-e8aba8e34a62" x="105.24" y="4.93" width="8.5" height="15.33"/><rect class="da639be4-ecfd-46a3-9b7b-e8aba8e34a62" x="102.38" y="4.93" width="2.87" height="15.33"/><rect class="da639be4-ecfd-46a3-9b7b-e8aba8e34a62" x="113.75" y="4.93" width="2.87" height="15.33"/><rect class="5fdad5c6-dda8-4c69-9856-1d2eca8a2e5b" x="105.24" y="4.93" width="8.5" height="15.33"/><rect class="a940668f-43c2-4bbf-8a74-23c8e48da884" x="102.38" y="4.93" width="2.87" height="15.33"/><rect class="a940668f-43c2-4bbf-8a74-23c8e48da884" x="113.75" y="4.93" width="2.87" height="15.33"/><rect class="da639be4-ecfd-46a3-9b7b-e8aba8e34a62" x="51.76" y="94.37" width="9.22" height="15.33"/><rect class="da639be4-ecfd-46a3-9b7b-e8aba8e34a62" x="48.66" y="94.37" width="3.12" height="15.33"/><rect class="da639be4-ecfd-46a3-9b7b-e8aba8e34a62" x="60.99" y="94.37" width="3.12" height="15.33"/><rect class="6652143d-ef6f-4cff-8e3f-aee01bbe3945" x="51.76" y="94.37" width="9.22" height="15.33"/><rect class="a940668f-43c2-4bbf-8a74-23c8e48da884" x="48.66" y="94.37" width="3.12" height="15.33"/><rect class="a940668f-43c2-4bbf-8a74-23c8e48da884" x="60.99" y="94.37" width="3.12" height="15.33"/><rect class="da639be4-ecfd-46a3-9b7b-e8aba8e34a62" x="12.18" y="94.37" width="9.22" height="15.33"/><rect class="da639be4-ecfd-46a3-9b7b-e8aba8e34a62" x="9.08" y="94.37" width="3.12" height="15.33"/><rect class="da639be4-ecfd-46a3-9b7b-e8aba8e34a62" x="21.41" y="94.37" width="3.12" height="15.33"/><rect class="6652143d-ef6f-4cff-8e3f-aee01bbe3945" x="12.18" y="94.37" width="9.22" height="15.33"/><rect class="a940668f-43c2-4bbf-8a74-23c8e48da884" x="9.08" y="94.37" width="3.12" height="15.33"/><rect class="a940668f-43c2-4bbf-8a74-23c8e48da884" x="21.41" y="94.37" width="3.12" height="15.33"/><rect class="da639be4-ecfd-46a3-9b7b-e8aba8e34a62" x="90.24" y="94.37" width="8.5" height="15.33"/><rect class="da639be4-ecfd-46a3-9b7b-e8aba8e34a62" x="87.38" y="94.37" width="2.87" height="15.33"/><rect class="da639be4-ecfd-46a3-9b7b-e8aba8e34a62" x="98.75" y="94.37" width="2.87" height="15.33"/><rect class="5fdad5c6-dda8-4c69-9856-1d2eca8a2e5b" x="90.24" y="94.37" width="8.5" height="15.33"/><rect class="a940668f-43c2-4bbf-8a74-23c8e48da884" x="87.38" y="94.37" width="2.87" height="15.33"/><rect class="a940668f-43c2-4bbf-8a74-23c8e48da884" x="98.75" y="94.37" width="2.87" height="15.33"/><rect class="da639be4-ecfd-46a3-9b7b-e8aba8e34a62" x="162.53" y="4.93" width="8.18" height="15.33"/><rect class="da639be4-ecfd-46a3-9b7b-e8aba8e34a62" x="159.78" y="4.93" width="2.76" height="15.33"/><rect class="da639be4-ecfd-46a3-9b7b-e8aba8e34a62" x="170.72" y="4.93" width="2.76" height="15.33"/><rect class="6652143d-ef6f-4cff-8e3f-aee01bbe3945" x="162.53" y="4.93" width="8.18" height="15.33"/><rect class="a940668f-43c2-4bbf-8a74-23c8e48da884" x="159.78" y="4.93" width="2.76" height="15.33"/><rect class="a940668f-43c2-4bbf-8a74-23c8e48da884" x="170.72" y="4.93" width="2.76" height="15.33"/><rect class="da639be4-ecfd-46a3-9b7b-e8aba8e34a62" x="89.87" y="75.62" width="4.14" height="15.33"/><rect class="da639be4-ecfd-46a3-9b7b-e8aba8e34a62" x="87.08" y="75.62" width="2.8" height="15.33"/><rect class="5fdad5c6-dda8-4c69-9856-1d2eca8a2e5b" x="89.87" y="75.62" width="4.14" height="15.33"/><rect class="a940668f-43c2-4bbf-8a74-23c8e48da884" x="87.08" y="75.62" width="2.8" height="15.33"/><rect class="da639be4-ecfd-46a3-9b7b-e8aba8e34a62" x="11.77" y="75.5" width="4.14" height="15.33"/><rect class="da639be4-ecfd-46a3-9b7b-e8aba8e34a62" x="8.97" y="75.5" width="2.8" height="15.33"/><rect class="6652143d-ef6f-4cff-8e3f-aee01bbe3945" x="11.77" y="75.5" width="4.14" height="15.33"/><rect class="a940668f-43c2-4bbf-8a74-23c8e48da884" x="8.97" y="75.5" width="2.8" height="15.33"/><rect class="da639be4-ecfd-46a3-9b7b-e8aba8e34a62" x="32.01" y="75.5" width="4.14" height="15.33"/><rect class="da639be4-ecfd-46a3-9b7b-e8aba8e34a62" x="29.22" y="75.5" width="2.8" height="15.33"/><rect class="6652143d-ef6f-4cff-8e3f-aee01bbe3945" x="32.01" y="75.5" width="4.14" height="15.33"/><rect class="a940668f-43c2-4bbf-8a74-23c8e48da884" x="29.22" y="75.5" width="2.8" height="15.33"/><rect class="da639be4-ecfd-46a3-9b7b-e8aba8e34a62" x="51.43" y="75.5" width="4.14" height="15.33"/><rect class="da639be4-ecfd-46a3-9b7b-e8aba8e34a62" x="48.64" y="75.5" width="2.8" height="15.33"/><rect class="6652143d-ef6f-4cff-8e3f-aee01bbe3945" x="51.43" y="75.5" width="4.14" height="15.33"/><rect class="a940668f-43c2-4bbf-8a74-23c8e48da884" x="48.64" y="75.5" width="2.8" height="15.33"/><rect class="da639be4-ecfd-46a3-9b7b-e8aba8e34a62" x="70.76" y="75.5" width="4.14" height="15.33"/><rect class="da639be4-ecfd-46a3-9b7b-e8aba8e34a62" x="67.97" y="75.5" width="2.8" height="15.33"/><rect class="5fdad5c6-dda8-4c69-9856-1d2eca8a2e5b" x="70.76" y="75.5" width="4.14" height="15.33"/><rect class="a940668f-43c2-4bbf-8a74-23c8e48da884" x="67.97" y="75.5" width="2.8" height="15.33"/><rect class="da639be4-ecfd-46a3-9b7b-e8aba8e34a62" x="80.76" y="157.17" width="4.14" height="15.33"/><rect class="da639be4-ecfd-46a3-9b7b-e8aba8e34a62" x="77.97" y="157.17" width="2.8" height="15.33"/><rect class="5fdad5c6-dda8-4c69-9856-1d2eca8a2e5b" x="80.76" y="157.17" width="4.14" height="15.33"/><rect class="a940668f-43c2-4bbf-8a74-23c8e48da884" x="77.97" y="157.17" width="2.8" height="15.33"/><rect class="da639be4-ecfd-46a3-9b7b-e8aba8e34a62" x="21.51" y="157.17" width="4.14" height="15.33"/><rect class="da639be4-ecfd-46a3-9b7b-e8aba8e34a62" x="18.72" y="157.17" width="2.8" height="15.33"/><rect class="6652143d-ef6f-4cff-8e3f-aee01bbe3945" x="21.51" y="157.17" width="4.14" height="15.33"/><rect class="a940668f-43c2-4bbf-8a74-23c8e48da884" x="18.72" y="157.17" width="2.8" height="15.33"/><rect class="da639be4-ecfd-46a3-9b7b-e8aba8e34a62" x="36.55" y="157.17" width="4.14" height="15.33"/><rect class="da639be4-ecfd-46a3-9b7b-e8aba8e34a62" x="33.76" y="157.17" width="2.8" height="15.33"/><rect class="6652143d-ef6f-4cff-8e3f-aee01bbe3945" x="36.55" y="157.17" width="4.14" height="15.33"/><rect class="a940668f-43c2-4bbf-8a74-23c8e48da884" x="33.76" y="157.17" width="2.8" height="15.33"/><rect class="da639be4-ecfd-46a3-9b7b-e8aba8e34a62" x="51.09" y="157.17" width="4.14" height="15.33"/><rect class="da639be4-ecfd-46a3-9b7b-e8aba8e34a62" x="48.3" y="157.17" width="2.8" height="15.33"/><rect class="6652143d-ef6f-4cff-8e3f-aee01bbe3945" x="51.09" y="157.17" width="4.14" height="15.33"/><rect class="a940668f-43c2-4bbf-8a74-23c8e48da884" x="48.3" y="157.17" width="2.8" height="15.33"/><rect class="da639be4-ecfd-46a3-9b7b-e8aba8e34a62" x="66.16" y="157.17" width="4.14" height="15.33"/><rect class="da639be4-ecfd-46a3-9b7b-e8aba8e34a62" x="63.37" y="157.17" width="2.8" height="15.33"/><rect class="5fdad5c6-dda8-4c69-9856-1d2eca8a2e5b" x="66.16" y="157.17" width="4.14" height="15.33"/><rect class="a940668f-43c2-4bbf-8a74-23c8e48da884" x="63.37" y="157.17" width="2.8" height="15.33"/><rect class="da639be4-ecfd-46a3-9b7b-e8aba8e34a62" x="202.62" y="94.37" width="6.25" height="15.33"/><rect class="da639be4-ecfd-46a3-9b7b-e8aba8e34a62" x="208.87" y="94.37" width="2.98" height="15.33"/><rect class="da639be4-ecfd-46a3-9b7b-e8aba8e34a62" x="199.52" y="94.37" width="3.12" height="15.33"/><rect class="da639be4-ecfd-46a3-9b7b-e8aba8e34a62" x="211.85" y="94.37" width="3.12" height="15.33"/><rect class="5fdad5c6-dda8-4c69-9856-1d2eca8a2e5b" x="202.62" y="94.37" width="6.25" height="15.33"/><rect class="6652143d-ef6f-4cff-8e3f-aee01bbe3945" x="208.87" y="94.37" width="2.98" height="15.33"/><rect class="a940668f-43c2-4bbf-8a74-23c8e48da884" x="199.52" y="94.37" width="3.12" height="15.33"/><rect class="a940668f-43c2-4bbf-8a74-23c8e48da884" x="211.85" y="94.37" width="3.12" height="15.33"/><rect class="da639be4-ecfd-46a3-9b7b-e8aba8e34a62" x="71.07" y="94.37" width="6.25" height="15.33"/><rect class="da639be4-ecfd-46a3-9b7b-e8aba8e34a62" x="77.32" y="94.37" width="2.98" height="15.33"/><rect class="da639be4-ecfd-46a3-9b7b-e8aba8e34a62" x="67.97" y="94.37" width="3.12" height="15.33"/><rect class="da639be4-ecfd-46a3-9b7b-e8aba8e34a62" x="80.31" y="94.37" width="3.12" height="15.33"/><rect class="5fdad5c6-dda8-4c69-9856-1d2eca8a2e5b" x="71.07" y="94.37" width="6.25" height="15.33"/><rect class="6652143d-ef6f-4cff-8e3f-aee01bbe3945" x="77.32" y="94.37" width="2.98" height="15.33"/><rect class="a940668f-43c2-4bbf-8a74-23c8e48da884" x="67.97" y="94.37" width="3.12" height="15.33"/><rect class="a940668f-43c2-4bbf-8a74-23c8e48da884" x="80.31" y="94.37" width="3.12" height="15.33"/><rect class="da639be4-ecfd-46a3-9b7b-e8aba8e34a62" x="113.09" y="24.59" width="6.25" height="15.33"/><rect class="da639be4-ecfd-46a3-9b7b-e8aba8e34a62" x="119.34" y="24.59" width="2.98" height="15.33"/><rect class="da639be4-ecfd-46a3-9b7b-e8aba8e34a62" x="109.99" y="24.59" width="3.12" height="15.33"/><rect class="da639be4-ecfd-46a3-9b7b-e8aba8e34a62" x="122.33" y="24.59" width="3.12" height="15.33"/><rect class="5fdad5c6-dda8-4c69-9856-1d2eca8a2e5b" x="113.09" y="24.59" width="6.25" height="15.33"/><rect class="6652143d-ef6f-4cff-8e3f-aee01bbe3945" x="119.34" y="24.59" width="2.98" height="15.33"/><rect class="a940668f-43c2-4bbf-8a74-23c8e48da884" x="109.99" y="24.59" width="3.12" height="15.33"/><rect class="a940668f-43c2-4bbf-8a74-23c8e48da884" x="122.33" y="24.59" width="3.12" height="15.33"/><rect class="da639be4-ecfd-46a3-9b7b-e8aba8e34a62" x="202.39" y="75.5" width="4.14" height="15.33"/><rect class="da639be4-ecfd-46a3-9b7b-e8aba8e34a62" x="199.59" y="75.5" width="2.8" height="15.33"/><rect class="5fdad5c6-dda8-4c69-9856-1d2eca8a2e5b" x="202.39" y="75.5" width="4.14" height="15.33"/><rect class="a940668f-43c2-4bbf-8a74-23c8e48da884" x="199.59" y="75.5" width="2.8" height="15.33"/><rect class="da639be4-ecfd-46a3-9b7b-e8aba8e34a62" x="183.45" y="94.37" width="9.22" height="15.33"/><rect class="da639be4-ecfd-46a3-9b7b-e8aba8e34a62" x="180.34" y="94.37" width="3.12" height="15.33"/><rect class="da639be4-ecfd-46a3-9b7b-e8aba8e34a62" x="192.68" y="94.37" width="3.12" height="15.33"/><rect class="6652143d-ef6f-4cff-8e3f-aee01bbe3945" x="183.45" y="94.37" width="9.22" height="15.33"/><rect class="a940668f-43c2-4bbf-8a74-23c8e48da884" x="180.34" y="94.37" width="3.12" height="15.33"/><rect class="a940668f-43c2-4bbf-8a74-23c8e48da884" x="192.68" y="94.37" width="3.12" height="15.33"/><rect class="da639be4-ecfd-46a3-9b7b-e8aba8e34a62" x="143.86" y="94.37" width="9.22" height="15.33"/><rect class="da639be4-ecfd-46a3-9b7b-e8aba8e34a62" x="140.76" y="94.37" width="3.12" height="15.33"/><rect class="da639be4-ecfd-46a3-9b7b-e8aba8e34a62" x="153.1" y="94.37" width="3.12" height="15.33"/><rect class="6652143d-ef6f-4cff-8e3f-aee01bbe3945" x="143.86" y="94.37" width="9.22" height="15.33"/><rect class="a940668f-43c2-4bbf-8a74-23c8e48da884" x="140.76" y="94.37" width="3.12" height="15.33"/><rect class="a940668f-43c2-4bbf-8a74-23c8e48da884" x="153.1" y="94.37" width="3.12" height="15.33"/><rect class="da639be4-ecfd-46a3-9b7b-e8aba8e34a62" x="221.92" y="94.37" width="8.5" height="15.33"/><rect class="da639be4-ecfd-46a3-9b7b-e8aba8e34a62" x="219.06" y="94.37" width="2.87" height="15.33"/><rect class="da639be4-ecfd-46a3-9b7b-e8aba8e34a62" x="230.43" y="94.37" width="2.87" height="15.33"/><rect class="5fdad5c6-dda8-4c69-9856-1d2eca8a2e5b" x="221.92" y="94.37" width="8.5" height="15.33"/><rect class="a940668f-43c2-4bbf-8a74-23c8e48da884" x="219.06" y="94.37" width="2.87" height="15.33"/><rect class="a940668f-43c2-4bbf-8a74-23c8e48da884" x="230.43" y="94.37" width="2.87" height="15.33"/><rect class="da639be4-ecfd-46a3-9b7b-e8aba8e34a62" x="221.58" y="75.5" width="4.14" height="15.33"/><rect class="da639be4-ecfd-46a3-9b7b-e8aba8e34a62" x="218.79" y="75.5" width="2.8" height="15.33"/><rect class="5fdad5c6-dda8-4c69-9856-1d2eca8a2e5b" x="221.58" y="75.5" width="4.14" height="15.33"/><rect class="a940668f-43c2-4bbf-8a74-23c8e48da884" x="218.79" y="75.5" width="2.8" height="15.33"/><rect class="da639be4-ecfd-46a3-9b7b-e8aba8e34a62" x="143.45" y="75.5" width="4.14" height="15.33"/><rect class="da639be4-ecfd-46a3-9b7b-e8aba8e34a62" x="140.66" y="75.5" width="2.8" height="15.33"/><rect class="6652143d-ef6f-4cff-8e3f-aee01bbe3945" x="143.45" y="75.5" width="4.14" height="15.33"/><rect class="a940668f-43c2-4bbf-8a74-23c8e48da884" x="140.66" y="75.5" width="2.8" height="15.33"/><rect class="da639be4-ecfd-46a3-9b7b-e8aba8e34a62" x="163.7" y="75.5" width="4.14" height="15.33"/><rect class="da639be4-ecfd-46a3-9b7b-e8aba8e34a62" x="160.91" y="75.5" width="2.8" height="15.33"/><rect class="6652143d-ef6f-4cff-8e3f-aee01bbe3945" x="163.7" y="75.5" width="4.14" height="15.33"/><rect class="a940668f-43c2-4bbf-8a74-23c8e48da884" x="160.91" y="75.5" width="2.8" height="15.33"/><rect class="da639be4-ecfd-46a3-9b7b-e8aba8e34a62" x="183.11" y="75.5" width="4.14" height="15.33"/><rect class="da639be4-ecfd-46a3-9b7b-e8aba8e34a62" x="180.32" y="75.5" width="2.8" height="15.33"/><rect class="6652143d-ef6f-4cff-8e3f-aee01bbe3945" x="183.11" y="75.5" width="4.14" height="15.33"/><rect class="a940668f-43c2-4bbf-8a74-23c8e48da884" x="180.32" y="75.5" width="2.8" height="15.33"/><rect class="da639be4-ecfd-46a3-9b7b-e8aba8e34a62" x="201.39" y="154.17" width="4.14" height="15.33"/><rect class="da639be4-ecfd-46a3-9b7b-e8aba8e34a62" x="198.59" y="154.17" width="2.8" height="15.33"/><rect class="5fdad5c6-dda8-4c69-9856-1d2eca8a2e5b" x="201.39" y="154.17" width="4.14" height="15.33"/><rect class="a940668f-43c2-4bbf-8a74-23c8e48da884" x="198.59" y="154.17" width="2.8" height="15.33"/><rect class="da639be4-ecfd-46a3-9b7b-e8aba8e34a62" x="221.44" y="154.17" width="4.14" height="15.33"/><rect class="da639be4-ecfd-46a3-9b7b-e8aba8e34a62" x="218.65" y="154.17" width="2.8" height="15.33"/><rect class="5fdad5c6-dda8-4c69-9856-1d2eca8a2e5b" x="221.44" y="154.17" width="4.14" height="15.33"/><rect class="a940668f-43c2-4bbf-8a74-23c8e48da884" x="218.65" y="154.17" width="2.8" height="15.33"/><rect class="da639be4-ecfd-46a3-9b7b-e8aba8e34a62" x="138.19" y="154.17" width="4.14" height="15.33"/><rect class="da639be4-ecfd-46a3-9b7b-e8aba8e34a62" x="135.4" y="154.17" width="2.8" height="15.33"/><rect class="6652143d-ef6f-4cff-8e3f-aee01bbe3945" x="138.19" y="154.17" width="4.14" height="15.33"/><rect class="a940668f-43c2-4bbf-8a74-23c8e48da884" x="135.4" y="154.17" width="2.8" height="15.33"/><rect class="da639be4-ecfd-46a3-9b7b-e8aba8e34a62" x="160.23" y="154.17" width="4.14" height="15.33"/><rect class="da639be4-ecfd-46a3-9b7b-e8aba8e34a62" x="157.44" y="154.17" width="2.8" height="15.33"/><rect class="6652143d-ef6f-4cff-8e3f-aee01bbe3945" x="160.23" y="154.17" width="4.14" height="15.33"/><rect class="a940668f-43c2-4bbf-8a74-23c8e48da884" x="157.44" y="154.17" width="2.8" height="15.33"/><rect class="da639be4-ecfd-46a3-9b7b-e8aba8e34a62" x="180.77" y="154.17" width="4.14" height="15.33"/><rect class="da639be4-ecfd-46a3-9b7b-e8aba8e34a62" x="177.98" y="154.17" width="2.8" height="15.33"/><rect class="6652143d-ef6f-4cff-8e3f-aee01bbe3945" x="180.77" y="154.17" width="4.14" height="15.33"/><rect class="a940668f-43c2-4bbf-8a74-23c8e48da884" x="177.98" y="154.17" width="2.8" height="15.33"/><rect class="da639be4-ecfd-46a3-9b7b-e8aba8e34a62" x="169.22" y="113.25" width="4.14" height="15.33"/><rect class="da639be4-ecfd-46a3-9b7b-e8aba8e34a62" x="173.35" y="113.25" width="2.8" height="15.33"/><rect class="5fdad5c6-dda8-4c69-9856-1d2eca8a2e5b" x="169.22" y="113.25" width="4.14" height="15.33"/><rect class="a940668f-43c2-4bbf-8a74-23c8e48da884" x="173.35" y="113.25" width="2.8" height="15.33"/><rect class="da639be4-ecfd-46a3-9b7b-e8aba8e34a62" x="149.17" y="113.25" width="4.14" height="15.33"/><rect class="da639be4-ecfd-46a3-9b7b-e8aba8e34a62" x="153.3" y="113.25" width="2.8" height="15.33"/><rect class="6652143d-ef6f-4cff-8e3f-aee01bbe3945" x="149.17" y="113.25" width="4.14" height="15.33"/><rect class="a940668f-43c2-4bbf-8a74-23c8e48da884" x="153.3" y="113.25" width="2.8" height="15.33"/><rect class="da639be4-ecfd-46a3-9b7b-e8aba8e34a62" x="226.42" y="113.25" width="4.14" height="15.33"/><rect class="da639be4-ecfd-46a3-9b7b-e8aba8e34a62" x="230.55" y="113.25" width="2.8" height="15.33"/><rect class="5fdad5c6-dda8-4c69-9856-1d2eca8a2e5b" x="226.42" y="113.25" width="4.14" height="15.33"/><rect class="a940668f-43c2-4bbf-8a74-23c8e48da884" x="230.55" y="113.25" width="2.8" height="15.33"/><rect class="da639be4-ecfd-46a3-9b7b-e8aba8e34a62" x="188.83" y="113.25" width="4.14" height="15.33"/><rect class="da639be4-ecfd-46a3-9b7b-e8aba8e34a62" x="192.97" y="113.25" width="2.8" height="15.33"/><rect class="6652143d-ef6f-4cff-8e3f-aee01bbe3945" x="188.83" y="113.25" width="4.14" height="15.33"/><rect class="a940668f-43c2-4bbf-8a74-23c8e48da884" x="192.97" y="113.25" width="2.8" height="15.33"/><rect class="da639be4-ecfd-46a3-9b7b-e8aba8e34a62" x="167.22" y="163.17" width="4.14" height="15.33"/><rect class="da639be4-ecfd-46a3-9b7b-e8aba8e34a62" x="171.35" y="163.17" width="2.8" height="15.33"/><rect class="5fdad5c6-dda8-4c69-9856-1d2eca8a2e5b" x="167.22" y="163.17" width="4.14" height="15.33"/><rect class="a940668f-43c2-4bbf-8a74-23c8e48da884" x="171.35" y="163.17" width="2.8" height="15.33"/><rect class="da639be4-ecfd-46a3-9b7b-e8aba8e34a62" x="145.17" y="163.17" width="4.14" height="15.33"/><rect class="da639be4-ecfd-46a3-9b7b-e8aba8e34a62" x="149.3" y="163.17" width="2.8" height="15.33"/><rect class="6652143d-ef6f-4cff-8e3f-aee01bbe3945" x="145.17" y="163.17" width="4.14" height="15.33"/><rect class="a940668f-43c2-4bbf-8a74-23c8e48da884" x="149.3" y="163.17" width="2.8" height="15.33"/><rect class="da639be4-ecfd-46a3-9b7b-e8aba8e34a62" x="228.42" y="163.17" width="4.14" height="15.33"/><rect class="da639be4-ecfd-46a3-9b7b-e8aba8e34a62" x="232.55" y="163.17" width="2.8" height="15.33"/><rect class="5fdad5c6-dda8-4c69-9856-1d2eca8a2e5b" x="228.42" y="163.17" width="4.14" height="15.33"/><rect class="a940668f-43c2-4bbf-8a74-23c8e48da884" x="232.55" y="163.17" width="2.8" height="15.33"/><rect class="da639be4-ecfd-46a3-9b7b-e8aba8e34a62" x="187.83" y="163.17" width="4.14" height="15.33"/><rect class="da639be4-ecfd-46a3-9b7b-e8aba8e34a62" x="191.97" y="163.17" width="2.8" height="15.33"/><rect class="6652143d-ef6f-4cff-8e3f-aee01bbe3945" x="187.83" y="163.17" width="4.14" height="15.33"/><rect class="a940668f-43c2-4bbf-8a74-23c8e48da884" x="191.97" y="163.17" width="2.8" height="15.33"/><rect class="da639be4-ecfd-46a3-9b7b-e8aba8e34a62" x="208.11" y="113.06" width="1.16" height="15.33"/><rect class="da639be4-ecfd-46a3-9b7b-e8aba8e34a62" x="209.27" y="113.06" width="2.97" height="15.33"/><rect class="da639be4-ecfd-46a3-9b7b-e8aba8e34a62" x="212.24" y="113.06" width="2.8" height="15.33"/><rect class="5fdad5c6-dda8-4c69-9856-1d2eca8a2e5b" x="208.11" y="113.06" width="1.16" height="15.33"/><rect class="6652143d-ef6f-4cff-8e3f-aee01bbe3945" x="209.27" y="113.06" width="2.97" height="15.33"/><rect class="a940668f-43c2-4bbf-8a74-23c8e48da884" x="212.24" y="113.06" width="2.8" height="15.33"/><rect class="da639be4-ecfd-46a3-9b7b-e8aba8e34a62" x="208.11" y="163.17" width="1.16" height="15.33"/><rect class="da639be4-ecfd-46a3-9b7b-e8aba8e34a62" x="209.27" y="163.17" width="2.97" height="15.33"/><rect class="da639be4-ecfd-46a3-9b7b-e8aba8e34a62" x="212.24" y="163.17" width="2.8" height="15.33"/><rect class="5fdad5c6-dda8-4c69-9856-1d2eca8a2e5b" x="208.11" y="163.17" width="1.16" height="15.33"/><rect class="6652143d-ef6f-4cff-8e3f-aee01bbe3945" x="209.27" y="163.17" width="2.97" height="15.33"/><rect class="a940668f-43c2-4bbf-8a74-23c8e48da884" x="212.24" y="163.17" width="2.8" height="15.33"/></g><g id="23c07b70-4949-4dcc-a5cd-82475e82b222" data-name="text-titles"><path class="3449abe1-0084-4f42-8eb2-e90853fbb1da" d="M99,53.38h3.47v1.34H97.41V46H99Z"/><path class="3449abe1-0084-4f42-8eb2-e90853fbb1da" d="M105.33,46.77a.94.94,0,0,1-.08.36.86.86,0,0,1-.21.29,1.21,1.21,0,0,1-.3.2.9.9,0,0,1-.74,0,1,1,0,0,1-.29-.2.86.86,0,0,1-.21-.29.92.92,0,0,1-.07-.36,1,1,0,0,1,.07-.38,1,1,0,0,1,.21-.3,1,1,0,0,1,.29-.2,1,1,0,0,1,.74,0,1.21,1.21,0,0,1,.3.2,1,1,0,0,1,.21.3A1,1,0,0,1,105.33,46.77Zm-.23,1.79v6.16h-1.48V48.56Z"/><path class="3449abe1-0084-4f42-8eb2-e90853fbb1da" d="M106.79,54.72V45.8h1.49v3.52a3,3,0,0,1,.83-.63,2.39,2.39,0,0,1,1.08-.23,2,2,0,0,1,.92.21,2.27,2.27,0,0,1,.72.6,3,3,0,0,1,.46,1,5,5,0,0,1,.17,1.34,4,4,0,0,1-.19,1.28,3.09,3.09,0,0,1-.53,1,2.43,2.43,0,0,1-.83.67,2.34,2.34,0,0,1-1.1.25,2,2,0,0,1-.51-.06,1.82,1.82,0,0,1-.43-.16,1.78,1.78,0,0,1-.36-.25,3.26,3.26,0,0,1-.31-.33l-.07.42a.34.34,0,0,1-.12.22.43.43,0,0,1-.24.07Zm2.88-5.1a1.48,1.48,0,0,0-.78.19,2.09,2.09,0,0,0-.61.55v2.76a1.49,1.49,0,0,0,.55.44,1.66,1.66,0,0,0,.64.12,1.33,1.33,0,0,0,.61-.13,1.19,1.19,0,0,0,.46-.38,2.06,2.06,0,0,0,.29-.65,3.63,3.63,0,0,0,.1-.93,3.94,3.94,0,0,0-.09-.91,1.72,1.72,0,0,0-.25-.61,1,1,0,0,0-.39-.35A1.25,1.25,0,0,0,109.67,49.62Z"/><path class="3449abe1-0084-4f42-8eb2-e90853fbb1da" d="M113.62,54.72V48.56h.87a.46.46,0,0,1,.31.08.41.41,0,0,1,.12.29l.09.75a3,3,0,0,1,.78-.9,1.62,1.62,0,0,1,1-.33,1.28,1.28,0,0,1,.75.21l-.19,1.11a.22.22,0,0,1-.08.15.25.25,0,0,1-.16,0,1,1,0,0,1-.25,0,1.53,1.53,0,0,0-.41,0,1.25,1.25,0,0,0-.79.26,1.9,1.9,0,0,0-.56.74v3.84Z"/><path class="3449abe1-0084-4f42-8eb2-e90853fbb1da" d="M123.17,54.72h-.67a.74.74,0,0,1-.33-.07.38.38,0,0,1-.18-.25l-.13-.44a5,5,0,0,1-.46.37,3.07,3.07,0,0,1-.46.27,2.76,2.76,0,0,1-.51.16,3.64,3.64,0,0,1-.6.05,2.37,2.37,0,0,1-.72-.1,1.59,1.59,0,0,1-.57-.32,1.41,1.41,0,0,1-.37-.52,1.83,1.83,0,0,1-.13-.73,1.48,1.48,0,0,1,.18-.69,1.69,1.69,0,0,1,.61-.61,3.74,3.74,0,0,1,1.13-.46,7.33,7.33,0,0,1,1.76-.18v-.36a1.31,1.31,0,0,0-.26-.92.94.94,0,0,0-.76-.3,1.74,1.74,0,0,0-.6.08,2.26,2.26,0,0,0-.41.19l-.33.19a.73.73,0,0,1-.33.08.38.38,0,0,1-.26-.08.52.52,0,0,1-.17-.19l-.27-.47a3.65,3.65,0,0,1,2.56-1,2.61,2.61,0,0,1,1,.17,2.14,2.14,0,0,1,.72.49,2.39,2.39,0,0,1,.45.76,2.93,2.93,0,0,1,.15,1Zm-2.88-.93a1.87,1.87,0,0,0,.42,0,1.9,1.9,0,0,0,.36-.12,1.85,1.85,0,0,0,.33-.21,2.07,2.07,0,0,0,.32-.28v-1a5.54,5.54,0,0,0-1.08.08,2.54,2.54,0,0,0-.7.21.81.81,0,0,0-.37.29.64.64,0,0,0-.11.37.63.63,0,0,0,.23.56A.93.93,0,0,0,120.29,53.79Z"/><path class="3449abe1-0084-4f42-8eb2-e90853fbb1da" d="M124.63,54.72V48.56h.87a.48.48,0,0,1,.31.08.41.41,0,0,1,.12.29l.09.75a3,3,0,0,1,.78-.9,1.62,1.62,0,0,1,1-.33,1.29,1.29,0,0,1,.76.21l-.19,1.11a.22.22,0,0,1-.08.15.25.25,0,0,1-.16,0,1,1,0,0,1-.25,0,1.53,1.53,0,0,0-.41,0,1.25,1.25,0,0,0-.79.26,1.9,1.9,0,0,0-.56.74v3.84Z"/><path class="3449abe1-0084-4f42-8eb2-e90853fbb1da" d="M131.71,56.41a.61.61,0,0,1-.17.24.56.56,0,0,1-.32.08h-1.1l1.15-2.47-2.49-5.7h1.29a.44.44,0,0,1,.28.08.56.56,0,0,1,.14.2L131.81,52a3,3,0,0,1,.11.32l.09.34a3.37,3.37,0,0,1,.1-.34l.12-.33,1.24-3.18a.45.45,0,0,1,.16-.2.44.44,0,0,1,.25-.08h1.19Z"/><path class="3449abe1-0084-4f42-8eb2-e90853fbb1da" d="M14.54,181.12a.35.35,0,0,1-.15.18.37.37,0,0,1-.21.06.54.54,0,0,1-.27-.09,3.64,3.64,0,0,0-.83-.42,2,2,0,0,0-.64-.09,1.76,1.76,0,0,0-.59.08,1.4,1.4,0,0,0-.42.22.87.87,0,0,0-.25.35,1,1,0,0,0-.09.44.8.8,0,0,0,.17.51,1.51,1.51,0,0,0,.46.35,5.66,5.66,0,0,0,.64.26l.73.24c.25.09.5.19.74.3a2.57,2.57,0,0,1,.64.43,1.85,1.85,0,0,1,.45.64,2.13,2.13,0,0,1,.18.92,2.87,2.87,0,0,1-.21,1.1,2.54,2.54,0,0,1-.58.89,2.66,2.66,0,0,1-1,.6,3.4,3.4,0,0,1-1.28.22,4.45,4.45,0,0,1-.81-.08,3.82,3.82,0,0,1-.77-.23,3.75,3.75,0,0,1-.69-.36,3.4,3.4,0,0,1-.58-.47l.47-.77a.7.7,0,0,1,.16-.14.37.37,0,0,1,.21-.06.56.56,0,0,1,.32.12l.41.28a3.24,3.24,0,0,0,.56.27,2.22,2.22,0,0,0,.77.12,1.63,1.63,0,0,0,1.07-.32,1.2,1.2,0,0,0,.38-.94.89.89,0,0,0-.17-.56,1.27,1.27,0,0,0-.46-.36,2.67,2.67,0,0,0-.64-.25l-.73-.23a6.46,6.46,0,0,1-.73-.28,2.42,2.42,0,0,1-.64-.44,2.09,2.09,0,0,1-.46-.68,2.64,2.64,0,0,1-.17-1,2.3,2.3,0,0,1,.19-.92,2.44,2.44,0,0,1,.55-.8,2.76,2.76,0,0,1,.89-.56,3.3,3.3,0,0,1,1.21-.21,4.11,4.11,0,0,1,1.42.24,3.15,3.15,0,0,1,1.1.68Z"/><path class="3449abe1-0084-4f42-8eb2-e90853fbb1da" d="M18.05,180.27a.94.94,0,0,1-.08.36.86.86,0,0,1-.21.29.93.93,0,0,1-.3.2.9.9,0,0,1-.74,0,1,1,0,0,1-.29-.2.84.84,0,0,1-.2-.29.94.94,0,0,1-.08-.36,1,1,0,0,1,.08-.38,1,1,0,0,1,.2-.3,1,1,0,0,1,.29-.2,1,1,0,0,1,.74,0,.93.93,0,0,1,.3.2,1,1,0,0,1,.21.3A1,1,0,0,1,18.05,180.27Zm-.22,1.79v6.16H16.34v-6.16Z"/><path class="3449abe1-0084-4f42-8eb2-e90853fbb1da" d="M19.5,188.22v-6.16h.91a.36.36,0,0,1,.37.27l.11.49a2.57,2.57,0,0,1,.39-.35,2,2,0,0,1,.44-.27,2.05,2.05,0,0,1,.49-.18,2.65,2.65,0,0,1,.58-.06,2.11,2.11,0,0,1,.89.18,1.73,1.73,0,0,1,.65.47,2.12,2.12,0,0,1,.4.74,3.16,3.16,0,0,1,.13,1v3.92H23.38V184.3a1.31,1.31,0,0,0-.26-.87.94.94,0,0,0-.78-.31,1.47,1.47,0,0,0-.72.17,2.57,2.57,0,0,0-.64.47v4.46Z"/><path class="3449abe1-0084-4f42-8eb2-e90853fbb1da" d="M28.45,182a3.59,3.59,0,0,1,.75.08,2.94,2.94,0,0,1,.63.24H31.6v.55a.31.31,0,0,1-.07.22.45.45,0,0,1-.25.11l-.55.1a1.59,1.59,0,0,1,.09.33,1.42,1.42,0,0,1,0,.36,1.75,1.75,0,0,1-.19.83,1.91,1.91,0,0,1-.5.63,2.49,2.49,0,0,1-.76.4,3.27,3.27,0,0,1-1,.14,3.82,3.82,0,0,1-.68-.07.49.49,0,0,0-.28.39.28.28,0,0,0,.17.28,1.22,1.22,0,0,0,.45.12,3.92,3.92,0,0,0,.63,0l.73,0a5.67,5.67,0,0,1,.72.1,2,2,0,0,1,.63.24,1.27,1.27,0,0,1,.45.44,1.33,1.33,0,0,1,.18.72,1.65,1.65,0,0,1-.21.8,2,2,0,0,1-.58.68,2.92,2.92,0,0,1-.93.49,4.08,4.08,0,0,1-1.26.18,4.91,4.91,0,0,1-1.22-.13,2.79,2.79,0,0,1-.85-.36,1.57,1.57,0,0,1-.51-.52,1.25,1.25,0,0,1-.17-.61A1,1,0,0,1,26,188a1.78,1.78,0,0,1,.73-.47,1,1,0,0,1-.37-.33,1,1,0,0,1-.14-.55.92.92,0,0,1,.05-.28,1.05,1.05,0,0,1,.15-.3,1.54,1.54,0,0,1,.25-.27,1.77,1.77,0,0,1,.35-.23,1.89,1.89,0,0,1-.73-.67,1.79,1.79,0,0,1-.27-1,1.83,1.83,0,0,1,.18-.82,1.73,1.73,0,0,1,.51-.63,2.22,2.22,0,0,1,.78-.4A3.29,3.29,0,0,1,28.45,182Zm1.63,6.52a.44.44,0,0,0-.11-.3.9.9,0,0,0-.29-.18,2.43,2.43,0,0,0-.44-.09,4.45,4.45,0,0,0-.53,0h-.57a2.25,2.25,0,0,1-.58-.07,1.31,1.31,0,0,0-.4.33.68.68,0,0,0-.15.43.58.58,0,0,0,.08.31.72.72,0,0,0,.25.24,1.65,1.65,0,0,0,.46.16,3.4,3.4,0,0,0,.69.06,3.65,3.65,0,0,0,.72-.07,1.48,1.48,0,0,0,.49-.18.69.69,0,0,0,.29-.27A.64.64,0,0,0,30.08,188.47ZM28.45,185a1.34,1.34,0,0,0,.48-.08,1,1,0,0,0,.34-.2.83.83,0,0,0,.2-.32,1.1,1.1,0,0,0,.07-.41,1,1,0,0,0-.27-.72,1.11,1.11,0,0,0-.82-.27,1.13,1.13,0,0,0-.82.27,1,1,0,0,0-.27.72,1.05,1.05,0,0,0,.07.4.76.76,0,0,0,.2.32,1,1,0,0,0,.34.21A1.42,1.42,0,0,0,28.45,185Z"/><path class="3449abe1-0084-4f42-8eb2-e90853fbb1da" d="M34.11,179.3v8.92H32.63V179.3Z"/><path class="3449abe1-0084-4f42-8eb2-e90853fbb1da" d="M38.33,182a3.08,3.08,0,0,1,1.07.19,2.33,2.33,0,0,1,1.39,1.42,3.14,3.14,0,0,1,.2,1.18,2.18,2.18,0,0,1,0,.28.38.38,0,0,1-.06.18.22.22,0,0,1-.1.09l-.17,0h-3.8a2.09,2.09,0,0,0,.51,1.4,1.58,1.58,0,0,0,1.17.44,2.22,2.22,0,0,0,.62-.08,2.91,2.91,0,0,0,.46-.19l.34-.19a.63.63,0,0,1,.29-.08.24.24,0,0,1,.15,0,.28.28,0,0,1,.12.1l.43.54a2.75,2.75,0,0,1-.55.48,2.9,2.9,0,0,1-.64.31,3.38,3.38,0,0,1-.68.17,5.16,5.16,0,0,1-.67.05,3.27,3.27,0,0,1-1.19-.22,2.59,2.59,0,0,1-1-.63,2.84,2.84,0,0,1-.65-1,4.1,4.1,0,0,1-.23-1.42,3.58,3.58,0,0,1,.2-1.19,2.77,2.77,0,0,1,.59-1,2.62,2.62,0,0,1,.93-.66A3,3,0,0,1,38.33,182Zm0,1.07a1.41,1.41,0,0,0-1,.36,1.79,1.79,0,0,0-.46,1h2.78a1.91,1.91,0,0,0-.08-.54,1.22,1.22,0,0,0-.24-.45,1,1,0,0,0-.41-.3A1.26,1.26,0,0,0,38.36,183Z"/><path class="3449abe1-0084-4f42-8eb2-e90853fbb1da" d="M42,184h3.11v1.24H42Z"/><path class="3449abe1-0084-4f42-8eb2-e90853fbb1da" d="M49.05,182a3.08,3.08,0,0,1,1.07.19,2.29,2.29,0,0,1,.84.54,2.4,2.4,0,0,1,.55.88,3.14,3.14,0,0,1,.2,1.18,2.18,2.18,0,0,1,0,.28.38.38,0,0,1-.06.18.22.22,0,0,1-.1.09l-.17,0h-3.8a2.09,2.09,0,0,0,.51,1.4,1.58,1.58,0,0,0,1.17.44,2.22,2.22,0,0,0,.62-.08,2.91,2.91,0,0,0,.46-.19l.34-.19a.67.67,0,0,1,.29-.08.24.24,0,0,1,.15,0,.23.23,0,0,1,.12.1l.43.54a2.5,2.5,0,0,1-.55.48,2.9,2.9,0,0,1-.64.31,3.22,3.22,0,0,1-.68.17,5.16,5.16,0,0,1-.67.05,3.27,3.27,0,0,1-1.19-.22,2.59,2.59,0,0,1-1-.63,2.82,2.82,0,0,1-.64-1,3.88,3.88,0,0,1-.24-1.42,3.58,3.58,0,0,1,.2-1.19,2.92,2.92,0,0,1,.59-1,2.62,2.62,0,0,1,.93-.66A3.08,3.08,0,0,1,49.05,182Zm0,1.07a1.37,1.37,0,0,0-1,.36,1.8,1.8,0,0,0-.47,1h2.78a1.61,1.61,0,0,0-.08-.54,1.22,1.22,0,0,0-.24-.45,1,1,0,0,0-.4-.3A1.34,1.34,0,0,0,49.08,183Z"/><path class="3449abe1-0084-4f42-8eb2-e90853fbb1da" d="M52.92,188.22v-6.16h.91a.36.36,0,0,1,.37.27l.1.49a3.23,3.23,0,0,1,.4-.35,2,2,0,0,1,.44-.27,2.05,2.05,0,0,1,.49-.18,2.65,2.65,0,0,1,.58-.06,2.11,2.11,0,0,1,.89.18,1.73,1.73,0,0,1,.65.47,2.12,2.12,0,0,1,.4.74,3.16,3.16,0,0,1,.13,1v3.92H56.8V184.3a1.31,1.31,0,0,0-.26-.87,1,1,0,0,0-.78-.31,1.47,1.47,0,0,0-.72.17,2.57,2.57,0,0,0-.64.47v4.46Z"/><path class="3449abe1-0084-4f42-8eb2-e90853fbb1da" d="M64.07,188.22a.37.37,0,0,1-.38-.27l-.12-.6a2.45,2.45,0,0,1-.4.39,2.21,2.21,0,0,1-.45.3,2.33,2.33,0,0,1-.52.2,2.92,2.92,0,0,1-.61.07,2,2,0,0,1-.92-.21,2.1,2.1,0,0,1-.72-.61,3,3,0,0,1-.47-1,5,5,0,0,1-.17-1.34,4.4,4.4,0,0,1,.19-1.28,3.09,3.09,0,0,1,.53-1,2.59,2.59,0,0,1,.84-.67A2.42,2.42,0,0,1,62,182a2.13,2.13,0,0,1,.88.16,2.46,2.46,0,0,1,.66.44V179.3H65v8.92Zm-2-1.09a1.46,1.46,0,0,0,.78-.19,2.41,2.41,0,0,0,.62-.55v-2.76a1.45,1.45,0,0,0-.55-.43,1.7,1.7,0,0,0-.64-.13,1.48,1.48,0,0,0-.61.13,1.12,1.12,0,0,0-.46.38,1.69,1.69,0,0,0-.29.65,3.59,3.59,0,0,0-.11.93,3.94,3.94,0,0,0,.09.91,1.81,1.81,0,0,0,.25.61.87.87,0,0,0,.4.34A1.1,1.1,0,0,0,62.1,187.13Z"/><path class="3449abe1-0084-4f42-8eb2-e90853fbb1da" d="M68.9,188.22v-6.16h.87a.48.48,0,0,1,.31.08.52.52,0,0,1,.12.29l.09.75a2.89,2.89,0,0,1,.78-.9,1.62,1.62,0,0,1,1-.33,1.29,1.29,0,0,1,.76.21l-.19,1.11a.22.22,0,0,1-.08.15.25.25,0,0,1-.16,0,1,1,0,0,1-.25,0,1.53,1.53,0,0,0-.41,0,1.25,1.25,0,0,0-.79.26,1.9,1.9,0,0,0-.56.74v3.84Z"/><path class="3449abe1-0084-4f42-8eb2-e90853fbb1da" d="M76.34,182a3,3,0,0,1,1.07.19,2.42,2.42,0,0,1,.85.54,2.53,2.53,0,0,1,.55.88,3.36,3.36,0,0,1,.2,1.18,1.91,1.91,0,0,1,0,.28.56.56,0,0,1,0,.18.24.24,0,0,1-.11.09l-.17,0h-3.8a2.09,2.09,0,0,0,.51,1.4,1.62,1.62,0,0,0,1.18.44,2.28,2.28,0,0,0,.62-.08,3.21,3.21,0,0,0,.45-.19l.34-.19a.67.67,0,0,1,.29-.08.29.29,0,0,1,.16,0,.26.26,0,0,1,.11.1l.43.54a2.5,2.5,0,0,1-.55.48,2.7,2.7,0,0,1-.64.31,3.22,3.22,0,0,1-.68.17,5.16,5.16,0,0,1-.67.05,3.35,3.35,0,0,1-1.19-.22,2.59,2.59,0,0,1-1-.63,2.82,2.82,0,0,1-.64-1,3.88,3.88,0,0,1-.24-1.42,3.35,3.35,0,0,1,.21-1.19,2.74,2.74,0,0,1,.58-1,2.81,2.81,0,0,1,.93-.66A3.08,3.08,0,0,1,76.34,182Zm0,1.07a1.37,1.37,0,0,0-1,.36,1.8,1.8,0,0,0-.47,1h2.78a1.9,1.9,0,0,0-.07-.54,1.61,1.61,0,0,0-.24-.45,1.12,1.12,0,0,0-.41-.3A1.34,1.34,0,0,0,76.37,183Z"/><path class="3449abe1-0084-4f42-8eb2-e90853fbb1da" d="M85,188.22h-.67a.74.74,0,0,1-.33-.07.38.38,0,0,1-.18-.25l-.13-.44c-.16.14-.31.26-.46.37a3.17,3.17,0,0,1-.47.27,2.76,2.76,0,0,1-.51.16,3.64,3.64,0,0,1-.6.05,2.37,2.37,0,0,1-.72-.1,1.47,1.47,0,0,1-.56-.32,1.41,1.41,0,0,1-.37-.52,1.83,1.83,0,0,1-.13-.73,1.48,1.48,0,0,1,.18-.69,1.62,1.62,0,0,1,.61-.61,3.63,3.63,0,0,1,1.13-.46,7.27,7.27,0,0,1,1.76-.18v-.36a1.37,1.37,0,0,0-.26-.92,1,1,0,0,0-.76-.3,1.74,1.74,0,0,0-.6.08,2.76,2.76,0,0,0-.42.19l-.32.19a.73.73,0,0,1-.33.08.38.38,0,0,1-.26-.08.66.66,0,0,1-.18-.19l-.27-.47a3.67,3.67,0,0,1,2.57-1,2.61,2.61,0,0,1,1,.17,2.14,2.14,0,0,1,.72.49,2.2,2.2,0,0,1,.44.76,2.93,2.93,0,0,1,.16,1Zm-2.88-.93a1.87,1.87,0,0,0,.42,0,2.53,2.53,0,0,0,.36-.12,3,3,0,0,0,.33-.21,2.67,2.67,0,0,0,.32-.28v-1a5.54,5.54,0,0,0-1.08.08,2.43,2.43,0,0,0-.7.21.91.91,0,0,0-.38.29.72.72,0,0,0-.11.37.66.66,0,0,0,.23.56A1,1,0,0,0,82.16,187.29Z"/><path class="3449abe1-0084-4f42-8eb2-e90853fbb1da" d="M90.83,188.22a.36.36,0,0,1-.38-.27l-.12-.6a2.92,2.92,0,0,1-.4.39,2.27,2.27,0,0,1-.46.3,2.16,2.16,0,0,1-.52.2,2.9,2.9,0,0,1-.6.07,2.05,2.05,0,0,1-.93-.21,2.1,2.1,0,0,1-.72-.61,3,3,0,0,1-.47-1,5,5,0,0,1-.16-1.34,4.4,4.4,0,0,1,.18-1.28,3.31,3.31,0,0,1,.54-1,2.56,2.56,0,0,1,.83-.67,2.45,2.45,0,0,1,1.09-.24,2.18,2.18,0,0,1,.89.16,2.4,2.4,0,0,1,.65.44V179.3h1.48v8.92Zm-2-1.09a1.52,1.52,0,0,0,.79-.19,2.38,2.38,0,0,0,.61-.55v-2.76a1.45,1.45,0,0,0-.55-.43,1.7,1.7,0,0,0-.64-.13,1.51,1.51,0,0,0-.61.13,1.19,1.19,0,0,0-.46.38,2.06,2.06,0,0,0-.29.65,3.63,3.63,0,0,0-.1.93,4.66,4.66,0,0,0,.08.91,2,2,0,0,0,.25.61.87.87,0,0,0,.4.34A1.13,1.13,0,0,0,88.85,187.13Z"/><path class="3449abe1-0084-4f42-8eb2-e90853fbb1da" d="M97,183.26a.44.44,0,0,1-.13.14.4.4,0,0,1-.17,0,.53.53,0,0,1-.23-.06l-.28-.13a2.61,2.61,0,0,0-.37-.14,1.77,1.77,0,0,0-.49-.06,1.18,1.18,0,0,0-.69.19.57.57,0,0,0-.25.49.44.44,0,0,0,.13.33,1.14,1.14,0,0,0,.34.24,3.74,3.74,0,0,0,.48.18c.18.05.37.11.55.18a5.37,5.37,0,0,1,.56.21,2,2,0,0,1,.48.32,1.37,1.37,0,0,1,.47,1.09,2,2,0,0,1-.16.82,1.77,1.77,0,0,1-.48.64,2,2,0,0,1-.77.43,3.32,3.32,0,0,1-1,.15,4.21,4.21,0,0,1-.62-.05,4.91,4.91,0,0,1-.58-.16,3.56,3.56,0,0,1-.52-.24,3.82,3.82,0,0,1-.42-.3l.35-.57a.36.36,0,0,1,.15-.15.41.41,0,0,1,.23-.06.5.5,0,0,1,.26.08l.29.17a2.81,2.81,0,0,0,.38.17,1.71,1.71,0,0,0,.55.07,1.56,1.56,0,0,0,.46-.06,1.29,1.29,0,0,0,.31-.16.69.69,0,0,0,.18-.24.87.87,0,0,0,0-.28.51.51,0,0,0-.12-.35,1,1,0,0,0-.35-.24,3.69,3.69,0,0,0-.48-.19l-.56-.17a5.48,5.48,0,0,1-.56-.23,1.76,1.76,0,0,1-.49-.33,1.54,1.54,0,0,1-.34-.48,1.82,1.82,0,0,1-.13-.7,1.79,1.79,0,0,1,.15-.72,1.73,1.73,0,0,1,.44-.6,2.42,2.42,0,0,1,.73-.4,3.1,3.1,0,0,1,1-.16,3,3,0,0,1,1.15.21,2.56,2.56,0,0,1,.87.56Z"/><path class="3449abe1-0084-4f42-8eb2-e90853fbb1da" d="M141.82,197.16v3.06h-1.61v-8.68H143a5.21,5.21,0,0,1,1.51.2,3.1,3.1,0,0,1,1.05.57,2.33,2.33,0,0,1,.61.88,3.1,3.1,0,0,1,.2,1.12,3.06,3.06,0,0,1-.21,1.15,2.37,2.37,0,0,1-.63.9,2.82,2.82,0,0,1-1.05.59,4.68,4.68,0,0,1-1.48.21Zm0-1.26H143a2.57,2.57,0,0,0,.78-.11,1.32,1.32,0,0,0,.54-.32,1.25,1.25,0,0,0,.33-.5,2,2,0,0,0,.1-.66,1.74,1.74,0,0,0-.1-.63,1.25,1.25,0,0,0-.33-.48,1.3,1.3,0,0,0-.54-.31,2.59,2.59,0,0,0-.78-.1h-1.21Z"/><path class="3449abe1-0084-4f42-8eb2-e90853fbb1da" d="M152.09,200.22h-.66a.74.74,0,0,1-.33-.07.38.38,0,0,1-.18-.25l-.13-.44c-.16.14-.31.26-.46.37a3.17,3.17,0,0,1-.47.27,2.76,2.76,0,0,1-.51.16,3.64,3.64,0,0,1-.6.05,2.37,2.37,0,0,1-.72-.1,1.59,1.59,0,0,1-.57-.32,1.53,1.53,0,0,1-.37-.52,2,2,0,0,1-.13-.73,1.38,1.38,0,0,1,.19-.69,1.66,1.66,0,0,1,.6-.61,3.81,3.81,0,0,1,1.14-.46,7.27,7.27,0,0,1,1.76-.18v-.36a1.37,1.37,0,0,0-.26-.92,1,1,0,0,0-.76-.3,1.74,1.74,0,0,0-.6.08,2.76,2.76,0,0,0-.42.19l-.33.19a.73.73,0,0,1-.33.08.4.4,0,0,1-.26-.08.52.52,0,0,1-.17-.19l-.27-.47a3.65,3.65,0,0,1,2.56-1,2.7,2.7,0,0,1,1,.17,2,2,0,0,1,.71.49,2.07,2.07,0,0,1,.45.76,2.93,2.93,0,0,1,.15,1Zm-2.88-.93a1.82,1.82,0,0,0,.42,0,2.29,2.29,0,0,0,.37-.12,3,3,0,0,0,.33-.21,3.76,3.76,0,0,0,.32-.28v-1a5.58,5.58,0,0,0-1.09.08,2.36,2.36,0,0,0-.69.21.85.85,0,0,0-.38.29.72.72,0,0,0-.11.37.66.66,0,0,0,.23.56A.93.93,0,0,0,149.21,199.29Z"/><path class="3449abe1-0084-4f42-8eb2-e90853fbb1da" d="M155.35,192.27a.94.94,0,0,1-.08.36,1,1,0,0,1-.2.29,1.1,1.1,0,0,1-.31.2.91.91,0,0,1-.37.08.86.86,0,0,1-.36-.08.93.93,0,0,1-.3-.2,1,1,0,0,1-.2-.29.94.94,0,0,1-.08-.36,1,1,0,0,1,.08-.38,1.21,1.21,0,0,1,.2-.3.93.93,0,0,1,.3-.2.86.86,0,0,1,.36-.07.9.9,0,0,1,.37.07,1.1,1.1,0,0,1,.31.2,1.21,1.21,0,0,1,.2.3A1,1,0,0,1,155.35,192.27Zm-.22,1.79v6.16h-1.48v-6.16Z"/><path class="3449abe1-0084-4f42-8eb2-e90853fbb1da" d="M156.8,200.22v-6.16h.87a.51.51,0,0,1,.32.08.52.52,0,0,1,.12.29l.09.75a3,3,0,0,1,.77-.9,1.64,1.64,0,0,1,1-.33,1.31,1.31,0,0,1,.76.21l-.2,1.11a.21.21,0,0,1-.07.15.29.29,0,0,1-.17,0,.85.85,0,0,1-.24,0,1.61,1.61,0,0,0-.42,0,1.27,1.27,0,0,0-.79.26,2,2,0,0,0-.56.74v3.84Z"/><path class="3449abe1-0084-4f42-8eb2-e90853fbb1da" d="M164.25,194a3.08,3.08,0,0,1,1.07.19,2.29,2.29,0,0,1,.84.54,2.4,2.4,0,0,1,.55.88,3.14,3.14,0,0,1,.2,1.18,2.18,2.18,0,0,1,0,.28.38.38,0,0,1-.06.18.22.22,0,0,1-.1.09l-.17,0h-3.8a2.09,2.09,0,0,0,.51,1.4,1.58,1.58,0,0,0,1.17.44,2.22,2.22,0,0,0,.62-.08,2.91,2.91,0,0,0,.46-.19l.34-.19a.63.63,0,0,1,.29-.08.24.24,0,0,1,.15,0,.28.28,0,0,1,.12.1l.43.54a2.75,2.75,0,0,1-.55.48,2.9,2.9,0,0,1-.64.31,3.22,3.22,0,0,1-.68.17,5.16,5.16,0,0,1-.67.05,3.27,3.27,0,0,1-1.19-.22,2.59,2.59,0,0,1-1-.63,2.84,2.84,0,0,1-.65-1,4.1,4.1,0,0,1-.23-1.42,3.58,3.58,0,0,1,.2-1.19,2.92,2.92,0,0,1,.59-1,2.62,2.62,0,0,1,.93-.66A3.08,3.08,0,0,1,164.25,194Zm0,1.07a1.41,1.41,0,0,0-1,.36,1.79,1.79,0,0,0-.46,1h2.78a1.91,1.91,0,0,0-.08-.54,1.22,1.22,0,0,0-.24-.45,1,1,0,0,0-.41-.3A1.26,1.26,0,0,0,164.28,195Z"/><path class="3449abe1-0084-4f42-8eb2-e90853fbb1da" d="M172.45,200.22a.37.37,0,0,1-.38-.27l-.12-.6a2.92,2.92,0,0,1-.4.39,2.21,2.21,0,0,1-.45.3,2.54,2.54,0,0,1-.52.2,2.92,2.92,0,0,1-.61.07,2,2,0,0,1-.92-.21,2.1,2.1,0,0,1-.72-.61,2.84,2.84,0,0,1-.47-1,5,5,0,0,1-.17-1.34,4.09,4.09,0,0,1,.19-1.28,3.09,3.09,0,0,1,.53-1,2.49,2.49,0,0,1,.84-.67,2.39,2.39,0,0,1,1.09-.24,2.13,2.13,0,0,1,.88.16,2.4,2.4,0,0,1,.65.44V191.3h1.49v8.92Zm-2-1.09a1.48,1.48,0,0,0,.78-.19,2.22,2.22,0,0,0,.61-.55v-2.76a1.43,1.43,0,0,0-.54-.43,1.74,1.74,0,0,0-.64-.13,1.48,1.48,0,0,0-.61.13,1.06,1.06,0,0,0-.46.38,1.86,1.86,0,0,0-.3.65,4.14,4.14,0,0,0-.1.93,3.94,3.94,0,0,0,.09.91,1.81,1.81,0,0,0,.25.61.89.89,0,0,0,.39.34A1.14,1.14,0,0,0,170.48,199.13Z"/><path class="3449abe1-0084-4f42-8eb2-e90853fbb1da" d="M174.77,196h3.1v1.24h-3.1Z"/><path class="3449abe1-0084-4f42-8eb2-e90853fbb1da" d="M181.81,194a3.08,3.08,0,0,1,1.07.19,2.29,2.29,0,0,1,.84.54,2.55,2.55,0,0,1,.56.88,3.36,3.36,0,0,1,.19,1.18,2.18,2.18,0,0,1,0,.28.56.56,0,0,1-.05.18.31.31,0,0,1-.11.09l-.17,0h-3.8a2.09,2.09,0,0,0,.51,1.4,1.6,1.6,0,0,0,1.17.44,2.22,2.22,0,0,0,.62-.08,2.91,2.91,0,0,0,.46-.19l.34-.19a.67.67,0,0,1,.29-.08.24.24,0,0,1,.15,0,.23.23,0,0,1,.12.1l.43.54a2.5,2.5,0,0,1-.55.48,2.9,2.9,0,0,1-.64.31,3.22,3.22,0,0,1-.68.17,5.16,5.16,0,0,1-.67.05,3.31,3.31,0,0,1-1.19-.22,2.59,2.59,0,0,1-1-.63,2.82,2.82,0,0,1-.64-1,3.88,3.88,0,0,1-.24-1.42,3.35,3.35,0,0,1,.21-1.19,2.74,2.74,0,0,1,.58-1,2.71,2.71,0,0,1,.93-.66A3.08,3.08,0,0,1,181.81,194Zm0,1.07a1.37,1.37,0,0,0-1,.36,1.8,1.8,0,0,0-.47,1h2.78a1.61,1.61,0,0,0-.08-.54,1.22,1.22,0,0,0-.24-.45,1,1,0,0,0-.4-.3A1.34,1.34,0,0,0,181.84,195Z"/><path class="3449abe1-0084-4f42-8eb2-e90853fbb1da" d="M185.68,200.22v-6.16h.91a.36.36,0,0,1,.37.27l.11.49a2.57,2.57,0,0,1,.39-.35,2,2,0,0,1,.44-.27,2.05,2.05,0,0,1,.49-.18A2.65,2.65,0,0,1,189,194a2.11,2.11,0,0,1,.89.18,1.73,1.73,0,0,1,.65.47,2.12,2.12,0,0,1,.4.74,3.16,3.16,0,0,1,.13,1v3.92h-1.48V196.3a1.31,1.31,0,0,0-.26-.87.94.94,0,0,0-.78-.31,1.47,1.47,0,0,0-.72.17,2.57,2.57,0,0,0-.64.47v4.46Z"/><path class="3449abe1-0084-4f42-8eb2-e90853fbb1da" d="M196.83,200.22a.36.36,0,0,1-.37-.27l-.13-.6a2.45,2.45,0,0,1-.4.39,2.21,2.21,0,0,1-.45.3,2.33,2.33,0,0,1-.52.2,2.9,2.9,0,0,1-.6.07,2.05,2.05,0,0,1-.93-.21,2.1,2.1,0,0,1-.72-.61,3,3,0,0,1-.47-1,5,5,0,0,1-.16-1.34,4.4,4.4,0,0,1,.18-1.28,3.09,3.09,0,0,1,.53-1,2.7,2.7,0,0,1,.84-.67,2.42,2.42,0,0,1,1.09-.24,2.1,2.1,0,0,1,.88.16,2.31,2.31,0,0,1,.66.44V191.3h1.48v8.92Zm-2-1.09a1.52,1.52,0,0,0,.79-.19,2.38,2.38,0,0,0,.61-.55v-2.76a1.45,1.45,0,0,0-.55-.43,1.7,1.7,0,0,0-.64-.13,1.48,1.48,0,0,0-.61.13,1.12,1.12,0,0,0-.46.38,1.86,1.86,0,0,0-.29.65,3.63,3.63,0,0,0-.1.93,4,4,0,0,0,.08.91,1.81,1.81,0,0,0,.25.61.87.87,0,0,0,.4.34A1.1,1.1,0,0,0,194.86,199.13Z"/><path class="3449abe1-0084-4f42-8eb2-e90853fbb1da" d="M201.66,200.22v-6.16h.87a.46.46,0,0,1,.31.08.41.41,0,0,1,.12.29l.09.75a3,3,0,0,1,.78-.9,1.64,1.64,0,0,1,1-.33,1.28,1.28,0,0,1,.75.21l-.19,1.11a.22.22,0,0,1-.08.15.25.25,0,0,1-.16,0,1,1,0,0,1-.25,0,1.53,1.53,0,0,0-.41,0,1.25,1.25,0,0,0-.79.26,1.9,1.9,0,0,0-.56.74v3.84Z"/><path class="3449abe1-0084-4f42-8eb2-e90853fbb1da" d="M209.1,194a3,3,0,0,1,1.07.19,2.42,2.42,0,0,1,.85.54,2.53,2.53,0,0,1,.55.88,3.36,3.36,0,0,1,.2,1.18,1.91,1.91,0,0,1,0,.28.56.56,0,0,1-.05.18.24.24,0,0,1-.11.09l-.17,0h-3.8a2.15,2.15,0,0,0,.51,1.4,1.62,1.62,0,0,0,1.18.44,2.28,2.28,0,0,0,.62-.08,3.21,3.21,0,0,0,.45-.19l.35-.19a.6.6,0,0,1,.28-.08.29.29,0,0,1,.16,0,.26.26,0,0,1,.11.1l.43.54a2.29,2.29,0,0,1-.55.48,2.7,2.7,0,0,1-.64.31,3.22,3.22,0,0,1-.68.17,5.16,5.16,0,0,1-.67.05,3.35,3.35,0,0,1-1.19-.22,2.59,2.59,0,0,1-1-.63,3,3,0,0,1-.64-1,3.88,3.88,0,0,1-.24-1.42,3.35,3.35,0,0,1,.21-1.19,2.74,2.74,0,0,1,.58-1,2.81,2.81,0,0,1,.93-.66A3.08,3.08,0,0,1,209.1,194Zm0,1.07a1.37,1.37,0,0,0-1,.36,1.86,1.86,0,0,0-.47,1h2.78a1.9,1.9,0,0,0-.07-.54,1.61,1.61,0,0,0-.24-.45,1.12,1.12,0,0,0-.41-.3A1.34,1.34,0,0,0,209.13,195Z"/><path class="3449abe1-0084-4f42-8eb2-e90853fbb1da" d="M217.8,200.22h-.67a.74.74,0,0,1-.33-.07.38.38,0,0,1-.18-.25l-.13-.44c-.16.14-.31.26-.46.37a3.17,3.17,0,0,1-.47.27,2.76,2.76,0,0,1-.51.16,3.64,3.64,0,0,1-.6.05,2.37,2.37,0,0,1-.72-.1,1.55,1.55,0,0,1-.56-.32,1.41,1.41,0,0,1-.37-.52,1.83,1.83,0,0,1-.13-.73,1.48,1.48,0,0,1,.18-.69,1.62,1.62,0,0,1,.61-.61,3.63,3.63,0,0,1,1.13-.46,7.27,7.27,0,0,1,1.76-.18v-.36a1.37,1.37,0,0,0-.26-.92,1,1,0,0,0-.76-.3,1.74,1.74,0,0,0-.6.08,2.76,2.76,0,0,0-.42.19l-.32.19a.73.73,0,0,1-.33.08.38.38,0,0,1-.26-.08.66.66,0,0,1-.18-.19l-.27-.47a3.67,3.67,0,0,1,2.57-1,2.61,2.61,0,0,1,1,.17,2.14,2.14,0,0,1,.72.49,2.2,2.2,0,0,1,.44.76,2.69,2.69,0,0,1,.16,1Zm-2.88-.93a1.87,1.87,0,0,0,.42,0,2.53,2.53,0,0,0,.36-.12,3,3,0,0,0,.33-.21,2.67,2.67,0,0,0,.32-.28v-1a5.54,5.54,0,0,0-1.08.08,2.43,2.43,0,0,0-.7.21.91.91,0,0,0-.38.29.72.72,0,0,0-.11.37.66.66,0,0,0,.23.56A1,1,0,0,0,214.92,199.29Z"/><path class="3449abe1-0084-4f42-8eb2-e90853fbb1da" d="M223.59,200.22a.36.36,0,0,1-.38-.27l-.12-.6a2.92,2.92,0,0,1-.4.39,2,2,0,0,1-.46.3,2.16,2.16,0,0,1-.52.2,2.82,2.82,0,0,1-.6.07,2.05,2.05,0,0,1-.93-.21,2.1,2.1,0,0,1-.72-.61,3,3,0,0,1-.47-1,5,5,0,0,1-.16-1.34,4.4,4.4,0,0,1,.18-1.28,3.31,3.31,0,0,1,.54-1,2.56,2.56,0,0,1,.83-.67,2.45,2.45,0,0,1,1.09-.24,2.18,2.18,0,0,1,.89.16,2.4,2.4,0,0,1,.65.44V191.3h1.48v8.92Zm-2-1.09a1.52,1.52,0,0,0,.79-.19,2.38,2.38,0,0,0,.61-.55v-2.76a1.45,1.45,0,0,0-.55-.43,1.7,1.7,0,0,0-.64-.13,1.55,1.55,0,0,0-.61.13,1.19,1.19,0,0,0-.46.38,2.06,2.06,0,0,0-.29.65,3.63,3.63,0,0,0-.1.93,3.94,3.94,0,0,0,.09.91,1.81,1.81,0,0,0,.24.61.87.87,0,0,0,.4.34A1.13,1.13,0,0,0,221.61,199.13Z"/><path class="3449abe1-0084-4f42-8eb2-e90853fbb1da" d="M229.75,195.26a.44.44,0,0,1-.13.14.4.4,0,0,1-.17,0,.56.56,0,0,1-.23-.06l-.28-.13a2.61,2.61,0,0,0-.37-.14,1.77,1.77,0,0,0-.49-.06,1.18,1.18,0,0,0-.69.19.57.57,0,0,0-.25.49.44.44,0,0,0,.13.33,1.14,1.14,0,0,0,.34.24,3.74,3.74,0,0,0,.48.18c.18.05.37.11.55.18a5.37,5.37,0,0,1,.56.21,2,2,0,0,1,.48.32,1.28,1.28,0,0,1,.34.45,1.41,1.41,0,0,1,.13.64,2,2,0,0,1-.16.82,1.77,1.77,0,0,1-.48.64,2,2,0,0,1-.77.43,3.32,3.32,0,0,1-1.05.15,4.21,4.21,0,0,1-.62-.05,4.91,4.91,0,0,1-.58-.16,3.56,3.56,0,0,1-.52-.24,3.82,3.82,0,0,1-.42-.3l.35-.57a.36.36,0,0,1,.15-.15.41.41,0,0,1,.23-.06.5.5,0,0,1,.26.08l.29.17a2.81,2.81,0,0,0,.38.17,1.71,1.71,0,0,0,.55.07,1.56,1.56,0,0,0,.46-.06,1.13,1.13,0,0,0,.31-.16.69.69,0,0,0,.18-.24.66.66,0,0,0,0-.28.51.51,0,0,0-.12-.35.91.91,0,0,0-.35-.24,3.69,3.69,0,0,0-.48-.19l-.56-.17a5.48,5.48,0,0,1-.56-.23,1.58,1.58,0,0,1-.48-.33,1.42,1.42,0,0,1-.35-.48,1.82,1.82,0,0,1-.13-.7,1.79,1.79,0,0,1,.15-.72,1.64,1.64,0,0,1,.45-.6,2.25,2.25,0,0,1,.72-.4,3.1,3.1,0,0,1,1-.16,3,3,0,0,1,1.15.21,2.56,2.56,0,0,1,.87.56Z"/></g><g id="e1937189-619c-4be3-bb84-cb1113538c6a" data-name="shapes"><polygon class="3449abe1-0084-4f42-8eb2-e90853fbb1da" points="120.25 133.89 115.83 141.54 111.42 133.89 120.25 133.89"/><polygon class="3449abe1-0084-4f42-8eb2-e90853fbb1da" points="120.25 62.51 115.83 70.16 111.42 62.51 120.25 62.51"/><polygon class="3449abe1-0084-4f42-8eb2-e90853fbb1da" points="18.49 80.96 22.32 83.17 18.49 85.38 18.49 80.96"/><polygon class="3449abe1-0084-4f42-8eb2-e90853fbb1da" points="18.72 150.56 22.55 152.77 18.72 154.97 18.72 150.56"/><polygon class="3449abe1-0084-4f42-8eb2-e90853fbb1da" points="33.76 150.56 37.59 152.77 33.76 154.97 33.76 150.56"/><polygon class="3449abe1-0084-4f42-8eb2-e90853fbb1da" points="48.31 150.56 52.13 152.77 48.31 154.97 48.31 150.56"/><polygon class="3449abe1-0084-4f42-8eb2-e90853fbb1da" points="62.94 150.56 66.76 152.77 62.94 154.97 62.94 150.56"/><polygon class="3449abe1-0084-4f42-8eb2-e90853fbb1da" points="77.9 150.56 81.73 152.77 77.9 154.97 77.9 150.56"/><polygon class="3449abe1-0084-4f42-8eb2-e90853fbb1da" points="134.97 147.56 138.8 149.77 134.97 151.97 134.97 147.56"/><polygon class="3449abe1-0084-4f42-8eb2-e90853fbb1da" points="156.93 147.56 160.75 149.77 156.93 151.97 156.93 147.56"/><polygon class="3449abe1-0084-4f42-8eb2-e90853fbb1da" points="178.07 147.56 181.89 149.77 178.07 151.97 178.07 147.56"/><polygon class="3449abe1-0084-4f42-8eb2-e90853fbb1da" points="198.08 147.56 201.91 149.77 198.08 151.97 198.08 147.56"/><polygon class="3449abe1-0084-4f42-8eb2-e90853fbb1da" points="218.58 147.56 222.41 149.77 218.58 151.97 218.58 147.56"/><polygon class="3449abe1-0084-4f42-8eb2-e90853fbb1da" points="38.32 80.96 42.15 83.17 38.32 85.38 38.32 80.96"/><polygon class="3449abe1-0084-4f42-8eb2-e90853fbb1da" points="57.99 80.96 61.82 83.17 57.99 85.38 57.99 80.96"/><polygon class="3449abe1-0084-4f42-8eb2-e90853fbb1da" points="77.79 80.96 81.61 83.17 77.79 85.38 77.79 80.96"/><polygon class="3449abe1-0084-4f42-8eb2-e90853fbb1da" points="96.96 81.08 100.78 83.28 96.96 85.49 96.96 81.08"/><polygon class="3449abe1-0084-4f42-8eb2-e90853fbb1da" points="150.18 80.96 154 83.17 150.18 85.38 150.18 80.96"/><polygon class="3449abe1-0084-4f42-8eb2-e90853fbb1da" points="170.01 80.96 173.83 83.17 170.01 85.38 170.01 80.96"/><polygon class="3449abe1-0084-4f42-8eb2-e90853fbb1da" points="189.68 80.96 193.5 83.17 189.68 85.38 189.68 80.96"/><polygon class="3449abe1-0084-4f42-8eb2-e90853fbb1da" points="208.87 80.96 212.69 83.17 208.87 85.38 208.87 80.96"/><polygon class="3449abe1-0084-4f42-8eb2-e90853fbb1da" points="228.66 80.96 232.49 83.17 228.66 85.38 228.66 80.96"/><polygon class="3449abe1-0084-4f42-8eb2-e90853fbb1da" points="223.83 118.7 220 120.91 223.83 123.12 223.83 118.7"/><polygon class="3449abe1-0084-4f42-8eb2-e90853fbb1da" points="206.21 118.7 202.38 120.91 206.21 123.12 206.21 118.7"/><polygon class="3449abe1-0084-4f42-8eb2-e90853fbb1da" points="186.41 118.7 182.58 120.91 186.41 123.12 186.41 118.7"/><polygon class="3449abe1-0084-4f42-8eb2-e90853fbb1da" points="166.88 118.7 163.05 120.91 166.88 123.12 166.88 118.7"/><polygon class="3449abe1-0084-4f42-8eb2-e90853fbb1da" points="146.22 118.7 142.4 120.91 146.22 123.12 146.22 118.7"/><polygon class="3449abe1-0084-4f42-8eb2-e90853fbb1da" points="152.61 180.56 148.78 182.77 152.61 184.97 152.61 180.56"/><polygon class="3449abe1-0084-4f42-8eb2-e90853fbb1da" points="174.66 180.56 170.84 182.77 174.66 184.97 174.66 180.56"/><polygon class="3449abe1-0084-4f42-8eb2-e90853fbb1da" points="195.18 180.56 191.35 182.77 195.18 184.97 195.18 180.56"/><polygon class="3449abe1-0084-4f42-8eb2-e90853fbb1da" points="215.82 180.56 212 182.77 215.82 184.97 215.82 180.56"/><polygon class="3449abe1-0084-4f42-8eb2-e90853fbb1da" points="235.86 180.56 232.03 182.77 235.86 184.97 235.86 180.56"/></g></svg>