<svg xmlns="http://www.w3.org/2000/svg" viewBox="0 0 306.83 174.75"><defs><style>.\34 db916c9-d5a1-4d88-acdd-a4098cbe0cfc{fill:#ededed;}.\32 a3f3ed2-0796-41b5-bc5d-2200193509a7{fill:#3c3c3b;}</style></defs><title>rnaseq</title><g id="73b46121-3743-41f7-af17-40bcb308efea" data-name="background"><rect class="4db916c9-d5a1-4d88-acdd-a4098cbe0cfc" x="99" y="3.17" width="88.33" height="167.79" rx="5" ry="5"/></g><g id="2f9a4dbc-40c3-47ee-b9a9-7c49c601c487" data-name="text-titles"><path class="2a3f3ed2-0796-41b5-bc5d-2200193509a7" d="M11.43,15.4v3.48H10V10.24h2.54a5.71,5.71,0,0,1,1.47.17,2.81,2.81,0,0,1,1,.5,1.9,1.9,0,0,1,.58.77,2.48,2.48,0,0,1,.19,1,2.55,2.55,0,0,1-.13.84,2.34,2.34,0,0,1-.39.71,2.4,2.4,0,0,1-.63.55,3.27,3.27,0,0,1-.85.37,1.45,1.45,0,0,1,.45.44l2.33,3.29H15.35a.58.58,0,0,1-.54-.29l-2-2.91a.62.62,0,0,0-.22-.21.7.7,0,0,0-.36-.07Zm0-1h1.1a2.66,2.66,0,0,0,.84-.12,1.71,1.71,0,0,0,.6-.32,1.32,1.32,0,0,0,.36-.51,1.62,1.62,0,0,0,.12-.64A1.3,1.3,0,0,0,14,11.71a2.27,2.27,0,0,0-1.42-.37H11.43Z"/><path class="2a3f3ed2-0796-41b5-bc5d-2200193509a7" d="M19.57,12.66a2.76,2.76,0,0,1,1.05.19,2.28,2.28,0,0,1,.82.53,2.44,2.44,0,0,1,.55.87,3.26,3.26,0,0,1,.19,1.17.89.89,0,0,1-.06.4.27.27,0,0,1-.24.1H18a2.9,2.9,0,0,0,.16.9,1.74,1.74,0,0,0,.37.64,1.31,1.31,0,0,0,.55.37,2,2,0,0,0,.72.13,2.08,2.08,0,0,0,.65-.09,3.69,3.69,0,0,0,.48-.19l.35-.2a.56.56,0,0,1,.26-.08.26.26,0,0,1,.24.12l.37.47a2.52,2.52,0,0,1-.52.46,3.14,3.14,0,0,1-.61.3,3.87,3.87,0,0,1-.67.17,5,5,0,0,1-.66,0,3.22,3.22,0,0,1-1.18-.21,2.64,2.64,0,0,1-.94-.63,2.88,2.88,0,0,1-.63-1,4,4,0,0,1-.22-1.41,3.25,3.25,0,0,1,.2-1.18,2.74,2.74,0,0,1,.58-1,2.52,2.52,0,0,1,.91-.65A2.9,2.9,0,0,1,19.57,12.66Zm0,.94a1.5,1.5,0,0,0-1.11.4A2,2,0,0,0,18,15.13h3a1.89,1.89,0,0,0-.09-.6,1.37,1.37,0,0,0-.27-.49,1.12,1.12,0,0,0-.45-.32A1.48,1.48,0,0,0,19.6,13.6Z"/><path class="2a3f3ed2-0796-41b5-bc5d-2200193509a7" d="M27.33,18.88a.53.53,0,0,1-.28-.06.35.35,0,0,1-.16-.23l-.13-.5a4.85,4.85,0,0,1-.46.38,3.24,3.24,0,0,1-.47.28,3.16,3.16,0,0,1-.52.17,3,3,0,0,1-.62.06,2.17,2.17,0,0,1-.69-.11,1.46,1.46,0,0,1-.93-.82,1.75,1.75,0,0,1-.13-.72,1.38,1.38,0,0,1,.19-.69,1.7,1.7,0,0,1,.62-.6,3.78,3.78,0,0,1,1.15-.44,8.28,8.28,0,0,1,1.75-.2V15a1.43,1.43,0,0,0-.28-1,1,1,0,0,0-.83-.33,1.61,1.61,0,0,0-.62.1,2.61,2.61,0,0,0-.44.2l-.33.2a.59.59,0,0,1-.31.09.34.34,0,0,1-.22-.07.5.5,0,0,1-.15-.17l-.24-.42a3.52,3.52,0,0,1,2.47-1,2.29,2.29,0,0,1,.94.17,1.72,1.72,0,0,1,.69.48,2.09,2.09,0,0,1,.43.74,2.87,2.87,0,0,1,.15,1v3.89Zm-2.25-.8a2,2,0,0,0,.87-.19,2.86,2.86,0,0,0,.7-.55V16.2a8.15,8.15,0,0,0-1.16.12,3,3,0,0,0-.77.22,1,1,0,0,0-.42.32.67.67,0,0,0-.13.41.8.8,0,0,0,.07.36.63.63,0,0,0,.19.26.87.87,0,0,0,.29.14A1.36,1.36,0,0,0,25.08,18.08Z"/><path class="2a3f3ed2-0796-41b5-bc5d-2200193509a7" d="M33.83,18.88a.31.31,0,0,1-.33-.25L33.38,18a3.11,3.11,0,0,1-.4.41,2.39,2.39,0,0,1-.47.31,2.44,2.44,0,0,1-.53.21,2.37,2.37,0,0,1-.61.07,2,2,0,0,1-1.65-.81,2.88,2.88,0,0,1-.47-1,5,5,0,0,1-.16-1.34,4.28,4.28,0,0,1,.18-1.27,3,3,0,0,1,.53-1,2.26,2.26,0,0,1,.83-.67,2.42,2.42,0,0,1,1.09-.24,2.13,2.13,0,0,1,.92.17,2.24,2.24,0,0,1,.68.47V10h1.29v8.88Zm-2-.95a1.61,1.61,0,0,0,.84-.21,2.48,2.48,0,0,0,.67-.6V14.27a1.54,1.54,0,0,0-1.3-.63,1.41,1.41,0,0,0-1.18.56,2.68,2.68,0,0,0-.43,1.64,4.35,4.35,0,0,0,.1,1,1.77,1.77,0,0,0,.28.65,1.08,1.08,0,0,0,.43.37A1.59,1.59,0,0,0,31.81,17.93Z"/><path class="2a3f3ed2-0796-41b5-bc5d-2200193509a7" d="M39.83,13.87a.25.25,0,0,1-.1.12.33.33,0,0,1-.15,0,.55.55,0,0,1-.23-.07l-.28-.14a2.35,2.35,0,0,0-.38-.14,2.08,2.08,0,0,0-.95,0,1,1,0,0,0-.33.17.64.64,0,0,0-.2.24.68.68,0,0,0-.08.31.52.52,0,0,0,.14.36,1.14,1.14,0,0,0,.34.24,2.9,2.9,0,0,0,.5.19l.56.18a5.48,5.48,0,0,1,.56.23,2.07,2.07,0,0,1,.5.3,1.37,1.37,0,0,1,.34.45,1.33,1.33,0,0,1,.14.63,2.08,2.08,0,0,1-.16.8,1.8,1.8,0,0,1-.46.64,2.14,2.14,0,0,1-.74.42,3.24,3.24,0,0,1-1,.15,3.08,3.08,0,0,1-.61-.06,3.41,3.41,0,0,1-.57-.16,2.75,2.75,0,0,1-.49-.23,3.64,3.64,0,0,1-.41-.3l.3-.5a.44.44,0,0,1,.13-.14.39.39,0,0,1,.2-.05.46.46,0,0,1,.25.08,2.45,2.45,0,0,0,.29.18,3.11,3.11,0,0,0,.4.18,1.89,1.89,0,0,0,.58.08,1.51,1.51,0,0,0,.5-.07,1.17,1.17,0,0,0,.35-.19.73.73,0,0,0,.2-.27A.93.93,0,0,0,39,17.2a.54.54,0,0,0-.14-.38,1,1,0,0,0-.35-.26,2.61,2.61,0,0,0-.5-.19l-.56-.18c-.19-.07-.38-.14-.57-.23a1.86,1.86,0,0,1-.5-.32,1.65,1.65,0,0,1-.35-.47,1.56,1.56,0,0,1-.13-.68,1.66,1.66,0,0,1,.15-.7,1.6,1.6,0,0,1,.43-.58,2.07,2.07,0,0,1,.7-.4,2.85,2.85,0,0,1,1-.15,3.11,3.11,0,0,1,1.13.2,2.43,2.43,0,0,1,.84.54Z"/><path class="2a3f3ed2-0796-41b5-bc5d-2200193509a7" d="M14.49,53.85a2.5,2.5,0,0,1,.15.38l.15-.38c.06-.13.11-.25.17-.37l2.73-5c.06-.11.12-.18.19-.2a1.07,1.07,0,0,1,.29,0h1v8.64H18V51c0-.1,0-.2,0-.31s0-.23,0-.35l-2.77,5.13a.53.53,0,0,1-.5.32h-.2a.52.52,0,0,1-.49-.32l-2.83-5.14,0,.35c0,.11,0,.22,0,.32v5.92H10V48.24h1.05a1,1,0,0,1,.28,0c.07,0,.13.09.19.2l2.77,5C14.38,53.61,14.43,53.73,14.49,53.85Z"/><path class="2a3f3ed2-0796-41b5-bc5d-2200193509a7" d="M24.81,56.88a.53.53,0,0,1-.28-.06.35.35,0,0,1-.16-.23l-.13-.5a4.85,4.85,0,0,1-.46.38,3.24,3.24,0,0,1-.47.28,3,3,0,0,1-.53.17,2.87,2.87,0,0,1-.61.06,2.17,2.17,0,0,1-.69-.11,1.46,1.46,0,0,1-.93-.82,1.75,1.75,0,0,1-.13-.72,1.38,1.38,0,0,1,.19-.69,1.7,1.7,0,0,1,.62-.6,3.78,3.78,0,0,1,1.15-.44,8.28,8.28,0,0,1,1.75-.2V53a1.43,1.43,0,0,0-.28-1,1,1,0,0,0-.83-.33,1.61,1.61,0,0,0-.62.1A2.61,2.61,0,0,0,22,52l-.33.2a.59.59,0,0,1-.31.09.34.34,0,0,1-.22-.07A.5.5,0,0,1,21,52l-.24-.42a3.52,3.52,0,0,1,2.47-1,2.29,2.29,0,0,1,.94.17,1.72,1.72,0,0,1,.69.48,2.09,2.09,0,0,1,.43.74,2.87,2.87,0,0,1,.15,1v3.89Zm-2.25-.8a2,2,0,0,0,.87-.19,2.86,2.86,0,0,0,.7-.55V54.2a8.15,8.15,0,0,0-1.16.12,3,3,0,0,0-.77.22,1,1,0,0,0-.42.32.67.67,0,0,0-.13.41.8.8,0,0,0,.07.36.63.63,0,0,0,.19.26.87.87,0,0,0,.29.14A1.36,1.36,0,0,0,22.56,56.08Z"/><path class="2a3f3ed2-0796-41b5-bc5d-2200193509a7" d="M26.89,58.91V50.76h.78A.32.32,0,0,1,28,51l.1.64a3.18,3.18,0,0,1,.41-.41,2.91,2.91,0,0,1,.46-.32,2.49,2.49,0,0,1,.54-.2,2.37,2.37,0,0,1,.61-.07,2,2,0,0,1,.93.2,2,2,0,0,1,.72.61,2.88,2.88,0,0,1,.47,1,4.92,4.92,0,0,1,.16,1.34A4.26,4.26,0,0,1,32.23,55a3,3,0,0,1-.53,1,2.32,2.32,0,0,1-1.92.92,2.06,2.06,0,0,1-1.6-.65v2.59Zm2.8-7.23a1.56,1.56,0,0,0-.85.22,2.48,2.48,0,0,0-.66.61v2.83a1.48,1.48,0,0,0,.59.49,1.67,1.67,0,0,0,.71.14,1.39,1.39,0,0,0,1.18-.55,2.68,2.68,0,0,0,.43-1.64,4.45,4.45,0,0,0-.1-1,1.85,1.85,0,0,0-.28-.65,1.06,1.06,0,0,0-.43-.36A1.41,1.41,0,0,0,29.69,51.68Z"/><path class="2a3f3ed2-0796-41b5-bc5d-2200193509a7" d="M33.67,58.91V50.76h.78a.31.31,0,0,1,.33.25l.1.64a4,4,0,0,1,.41-.41,3,3,0,0,1,.47-.32,2.24,2.24,0,0,1,.53-.2,2.37,2.37,0,0,1,.61-.07,2.09,2.09,0,0,1,.94.2,2,2,0,0,1,.72.61,2.87,2.87,0,0,1,.46,1,4.9,4.9,0,0,1,.17,1.34A4.26,4.26,0,0,1,39,55a2.93,2.93,0,0,1-.52,1,2.59,2.59,0,0,1-.83.68,2.44,2.44,0,0,1-1.1.24,2.32,2.32,0,0,1-.92-.17,2.23,2.23,0,0,1-.67-.48v2.59Zm2.8-7.23a1.54,1.54,0,0,0-.85.22,2.21,2.21,0,0,0-.66.61v2.83a1.41,1.41,0,0,0,.59.49,1.64,1.64,0,0,0,.71.14,1.41,1.41,0,0,0,1.18-.55,2.68,2.68,0,0,0,.42-1.64,3.91,3.91,0,0,0-.1-1,1.85,1.85,0,0,0-.27-.65,1.08,1.08,0,0,0-.44-.36A1.37,1.37,0,0,0,36.47,51.68Z"/><path class="2a3f3ed2-0796-41b5-bc5d-2200193509a7" d="M42,48.91a.72.72,0,0,1-.07.33.77.77,0,0,1-.19.27.92.92,0,0,1-.28.19.77.77,0,0,1-.34.07.71.71,0,0,1-.32-.07.88.88,0,0,1-.27-.19.64.64,0,0,1-.18-.27.81.81,0,0,1,0-.66.75.75,0,0,1,.18-.28.88.88,0,0,1,.59-.25.77.77,0,0,1,.34.07.75.75,0,0,1,.28.18.92.92,0,0,1,.19.28A.72.72,0,0,1,42,48.91Zm-.22,1.85v6.12H40.49V50.76Z"/><path class="2a3f3ed2-0796-41b5-bc5d-2200193509a7" d="M43.41,56.88V50.76h.78a.32.32,0,0,1,.34.25l.09.57a3.59,3.59,0,0,1,.4-.38,2.6,2.6,0,0,1,.45-.28,2.31,2.31,0,0,1,.52-.19,2.73,2.73,0,0,1,.59-.07,2.19,2.19,0,0,1,.88.17,1.62,1.62,0,0,1,.64.48,1.91,1.91,0,0,1,.4.73,3.16,3.16,0,0,1,.13,1v3.89H47.35V53a1.43,1.43,0,0,0-.29-1,1.07,1.07,0,0,0-.87-.35,1.72,1.72,0,0,0-.8.2,2.82,2.82,0,0,0-.69.54v4.46Z"/><path class="2a3f3ed2-0796-41b5-bc5d-2200193509a7" d="M52.33,50.65A2.93,2.93,0,0,1,53.7,51h1.72v.48c0,.16-.1.26-.29.3l-.61.1a2,2,0,0,1,.15.77,1.86,1.86,0,0,1-.18.82,1.82,1.82,0,0,1-.48.62,2.24,2.24,0,0,1-.75.4,3.12,3.12,0,0,1-.93.14,2.34,2.34,0,0,1-.38,0l-.36,0a.92.92,0,0,0-.25.21.4.4,0,0,0-.09.24.31.31,0,0,0,.18.29,1.19,1.19,0,0,0,.45.14,4.23,4.23,0,0,0,.66.05l.74,0c.25,0,.5.05.74.09a2.37,2.37,0,0,1,.65.23,1.27,1.27,0,0,1,.46.43,1.25,1.25,0,0,1,.18.7,1.68,1.68,0,0,1-.2.78,2.1,2.1,0,0,1-.57.67,3,3,0,0,1-.92.47,3.88,3.88,0,0,1-1.23.18,5.22,5.22,0,0,1-1.19-.13,2.9,2.9,0,0,1-.85-.36,1.54,1.54,0,0,1-.5-.52,1.24,1.24,0,0,1-.16-.61A1.07,1.07,0,0,1,50,56.7a1.9,1.9,0,0,1,.74-.48,1.11,1.11,0,0,1-.41-.33.92.92,0,0,1-.15-.55,1,1,0,0,1,0-.28,1,1,0,0,1,.15-.28,1,1,0,0,1,.24-.27,2.36,2.36,0,0,1,.35-.23,1.8,1.8,0,0,1-1-1.65,1.83,1.83,0,0,1,.18-.82,1.73,1.73,0,0,1,.49-.62,2.08,2.08,0,0,1,.75-.4A3.22,3.22,0,0,1,52.33,50.65Zm1.79,6.53a.44.44,0,0,0-.12-.32.87.87,0,0,0-.31-.2,2.56,2.56,0,0,0-.47-.1l-.56-.05-.6,0a5.54,5.54,0,0,1-.6-.06,1.46,1.46,0,0,0-.47.36.74.74,0,0,0-.18.49.69.69,0,0,0,.09.34.85.85,0,0,0,.29.27,2,2,0,0,0,.5.18,3.77,3.77,0,0,0,.73.06,2.51,2.51,0,0,0,1.27-.26A.78.78,0,0,0,54.12,57.18Zm-1.79-3.41a1.23,1.23,0,0,0,.9-.31,1.22,1.22,0,0,0,0-1.6,1.54,1.54,0,0,0-1.8,0,1.09,1.09,0,0,0-.3.8,1.33,1.33,0,0,0,.07.45,1.18,1.18,0,0,0,.23.35,1,1,0,0,0,.38.22A1.38,1.38,0,0,0,52.33,53.77Z"/><path class="2a3f3ed2-0796-41b5-bc5d-2200193509a7" d="M18.15,95.06A5.15,5.15,0,0,1,18,96.19a4.82,4.82,0,0,1-.35,1,3.92,3.92,0,0,1-1.31,1.52l2.21,2.39H17.42A1.25,1.25,0,0,1,17,101a1,1,0,0,1-.37-.25l-1.38-1.52a3.82,3.82,0,0,1-.67.15,5.55,5.55,0,0,1-.72,0,4.56,4.56,0,0,1-1.76-.33,4.08,4.08,0,0,1-1.37-.92,4,4,0,0,1-.88-1.39,5.21,5.21,0,0,1,0-3.54A4,4,0,0,1,12.07,91a4.89,4.89,0,0,1,3.53,0,4,4,0,0,1,1.36.92,4.11,4.11,0,0,1,.88,1.4A4.84,4.84,0,0,1,18.15,95.06Zm-1.43,0a4,4,0,0,0-.21-1.34,2.86,2.86,0,0,0-.57-1,2.56,2.56,0,0,0-.91-.63,3.09,3.09,0,0,0-1.2-.22,3,3,0,0,0-1.19.22,2.69,2.69,0,0,0-.92.63,3,3,0,0,0-.58,1,4.29,4.29,0,0,0-.2,1.34,4.24,4.24,0,0,0,.2,1.34,2.85,2.85,0,0,0,.58,1,2.69,2.69,0,0,0,.92.63,3.19,3.19,0,0,0,1.19.22A3.29,3.29,0,0,0,15,98a2.56,2.56,0,0,0,.91-.63,2.69,2.69,0,0,0,.57-1A4,4,0,0,0,16.72,95.06Z"/><path class="2a3f3ed2-0796-41b5-bc5d-2200193509a7" d="M20.59,93.26v3.89a1.43,1.43,0,0,0,.28,1,1.07,1.07,0,0,0,.87.35,1.66,1.66,0,0,0,.79-.2,2.69,2.69,0,0,0,.7-.54V93.26h1.29v6.12h-.78a.3.3,0,0,1-.33-.25l-.1-.57a3.14,3.14,0,0,1-.86.66,2.29,2.29,0,0,1-1.1.26,2.19,2.19,0,0,1-.88-.17,1.65,1.65,0,0,1-.65-.48,2,2,0,0,1-.39-.73,3.16,3.16,0,0,1-.13-.95V93.26Z"/><path class="2a3f3ed2-0796-41b5-bc5d-2200193509a7" d="M30,99.38a.57.57,0,0,1-.29-.06.44.44,0,0,1-.16-.23l-.12-.5A3.92,3.92,0,0,1,29,99a3.24,3.24,0,0,1-.47.28,2.64,2.64,0,0,1-.52.17,2.93,2.93,0,0,1-.61.06,2.28,2.28,0,0,1-.7-.11,1.36,1.36,0,0,1-.55-.31,1.3,1.3,0,0,1-.37-.51,1.74,1.74,0,0,1-.14-.72,1.5,1.5,0,0,1,.19-.69,1.83,1.83,0,0,1,.63-.6,3.82,3.82,0,0,1,1.14-.44,8.38,8.38,0,0,1,1.76-.2v-.41a1.49,1.49,0,0,0-.28-1,1,1,0,0,0-.83-.33,1.67,1.67,0,0,0-.63.1,2.89,2.89,0,0,0-.43.2l-.33.2a.59.59,0,0,1-.31.09.37.37,0,0,1-.23-.07.5.5,0,0,1-.15-.17l-.23-.42a3.5,3.5,0,0,1,2.47-1,2.35,2.35,0,0,1,.94.17,1.87,1.87,0,0,1,.69.48,2.07,2.07,0,0,1,.42.74,2.87,2.87,0,0,1,.15.95v3.89Zm-2.25-.8a1.91,1.91,0,0,0,.86-.19,2.9,2.9,0,0,0,.71-.55V96.7a8.47,8.47,0,0,0-1.17.12,2.89,2.89,0,0,0-.76.22,1.07,1.07,0,0,0-.43.32.74.74,0,0,0-.13.41,1.06,1.06,0,0,0,.07.37.79.79,0,0,0,.19.25,1,1,0,0,0,.29.14A1.38,1.38,0,0,0,27.79,98.58Z"/><path class="2a3f3ed2-0796-41b5-bc5d-2200193509a7" d="M32.12,99.38V93.26h.78a.31.31,0,0,1,.33.25l.09.57a4.86,4.86,0,0,1,.41-.38,2.6,2.6,0,0,1,.45-.28,2.23,2.23,0,0,1,.51-.19,2.82,2.82,0,0,1,.6-.07,2.19,2.19,0,0,1,.88.17,1.69,1.69,0,0,1,.64.48,1.91,1.91,0,0,1,.4.73,3.52,3.52,0,0,1,.13.95v3.89H36.05V95.49a1.43,1.43,0,0,0-.28-1,1.07,1.07,0,0,0-.87-.35,1.69,1.69,0,0,0-.8.2,2.49,2.49,0,0,0-.69.54v4.46Z"/><path class="2a3f3ed2-0796-41b5-bc5d-2200193509a7" d="M40.73,99.48a1.59,1.59,0,0,1-1.18-.43,1.7,1.7,0,0,1-.41-1.21V94.27h-.67a.24.24,0,0,1-.18-.07.22.22,0,0,1-.08-.2v-.52l1-.15.28-1.77a.29.29,0,0,1,.1-.16.25.25,0,0,1,.19-.07h.66v2h4.28v6H43.42V94.27h-3v3.48a.69.69,0,0,0,.17.5.54.54,0,0,0,.43.18,1,1,0,0,0,.26,0l.18-.09.14-.08a.15.15,0,0,1,.11,0,.19.19,0,0,1,.17.12l.39.63a2.17,2.17,0,0,1-.71.41A2.64,2.64,0,0,1,40.73,99.48ZM45,91.38a.72.72,0,0,1-.07.33,1,1,0,0,1-.19.27.75.75,0,0,1-.28.18.81.81,0,0,1-.66,0,.83.83,0,0,1-.45-.45.72.72,0,0,1-.07-.33.8.8,0,0,1,.07-.34.71.71,0,0,1,.18-.27,1,1,0,0,1,.27-.19.81.81,0,0,1,.66,0,.92.92,0,0,1,.28.19.88.88,0,0,1,.19.27A.8.8,0,0,1,45,91.38Z"/><path class="2a3f3ed2-0796-41b5-bc5d-2200193509a7" d="M46.75,99.38V94.29l-.6-.09a.45.45,0,0,1-.24-.11.27.27,0,0,1-.09-.22v-.53h.93v-.25a2.87,2.87,0,0,1,.18-1,2.09,2.09,0,0,1,.55-.82,2.44,2.44,0,0,1,.91-.55,3.89,3.89,0,0,1,1.29-.19l.49,0a2.26,2.26,0,0,1,.44.09l0,.67a.15.15,0,0,1-.15.14l-.37,0a3.74,3.74,0,0,0-.95.1,1.56,1.56,0,0,0-.63.32,1.14,1.14,0,0,0-.36.53,2.29,2.29,0,0,0-.11.73v.22h3.75v6H50.46V94.27H48v5.11Z"/><path class="2a3f3ed2-0796-41b5-bc5d-2200193509a7" d="M57.71,94.46a.68.68,0,0,1-.12.12.21.21,0,0,1-.15,0,.4.4,0,0,1-.22-.07L57,94.39a1.86,1.86,0,0,0-.37-.16,1.65,1.65,0,0,0-.54-.07,1.67,1.67,0,0,0-.73.15,1.38,1.38,0,0,0-.53.43,1.87,1.87,0,0,0-.32.68,3.46,3.46,0,0,0-.1.89,3.22,3.22,0,0,0,.11.92,1.88,1.88,0,0,0,.33.68,1.48,1.48,0,0,0,.51.42,1.51,1.51,0,0,0,.68.14,1.75,1.75,0,0,0,.61-.09,1.77,1.77,0,0,0,.39-.19l.27-.2a.35.35,0,0,1,.23-.09.26.26,0,0,1,.24.12l.37.47a2.65,2.65,0,0,1-.49.46,3.1,3.1,0,0,1-.57.3,2.66,2.66,0,0,1-.63.17,4.62,4.62,0,0,1-.65,0,2.72,2.72,0,0,1-1.07-.21,2.63,2.63,0,0,1-.86-.62,2.85,2.85,0,0,1-.58-1,4,4,0,0,1-.21-1.34,3.86,3.86,0,0,1,.19-1.25,2.79,2.79,0,0,1,.56-1,2.54,2.54,0,0,1,.91-.66A3.15,3.15,0,0,1,56,93.16a3.07,3.07,0,0,1,1.18.22,2.87,2.87,0,0,1,.9.61Z"/><path class="2a3f3ed2-0796-41b5-bc5d-2200193509a7" d="M63.09,99.38a.53.53,0,0,1-.28-.06.35.35,0,0,1-.16-.23l-.13-.5a4.85,4.85,0,0,1-.46.38,3.24,3.24,0,0,1-.47.28,3,3,0,0,1-.53.17,2.87,2.87,0,0,1-.61.06,2.17,2.17,0,0,1-.69-.11,1.46,1.46,0,0,1-.93-.82,1.75,1.75,0,0,1-.13-.72,1.38,1.38,0,0,1,.19-.69,1.7,1.7,0,0,1,.62-.6,3.78,3.78,0,0,1,1.15-.44,8.28,8.28,0,0,1,1.75-.2v-.41a1.43,1.43,0,0,0-.28-1,1,1,0,0,0-.83-.33,1.61,1.61,0,0,0-.62.1,2.61,2.61,0,0,0-.44.2l-.33.2a.59.59,0,0,1-.31.09.34.34,0,0,1-.22-.07.5.5,0,0,1-.15-.17L59,94.11a3.52,3.52,0,0,1,2.47-1,2.29,2.29,0,0,1,.94.17,1.72,1.72,0,0,1,.69.48,2.09,2.09,0,0,1,.43.74,2.87,2.87,0,0,1,.15.95v3.89Zm-2.25-.8a2,2,0,0,0,.87-.19,2.86,2.86,0,0,0,.7-.55V96.7a8.15,8.15,0,0,0-1.16.12,3,3,0,0,0-.77.22,1,1,0,0,0-.42.32.67.67,0,0,0-.13.41.87.87,0,0,0,.07.37.67.67,0,0,0,.19.25.87.87,0,0,0,.29.14A1.36,1.36,0,0,0,60.84,98.58Z"/><path class="2a3f3ed2-0796-41b5-bc5d-2200193509a7" d="M67.05,99.48a1.56,1.56,0,0,1-1.17-.43,1.66,1.66,0,0,1-.41-1.21V94.27h-.68a.24.24,0,0,1-.18-.07.25.25,0,0,1-.08-.2v-.52l1-.15.28-1.77a.37.37,0,0,1,.1-.16.26.26,0,0,1,.2-.07h.66v2H71v6H69.74V94.27h-3v3.48a.68.68,0,0,0,.16.5.55.55,0,0,0,.43.18,1,1,0,0,0,.26,0l.18-.09.14-.08a.17.17,0,0,1,.11,0,.19.19,0,0,1,.17.12l.39.63a2.17,2.17,0,0,1-.71.41A2.64,2.64,0,0,1,67.05,99.48Zm4.24-8.1a.72.72,0,0,1-.07.33A.83.83,0,0,1,71,92a.75.75,0,0,1-.28.18.72.72,0,0,1-.33.07.78.78,0,0,1-.33-.07.8.8,0,0,1-.27-.18,1,1,0,0,1-.18-.27.72.72,0,0,1-.07-.33.8.8,0,0,1,.07-.34.85.85,0,0,1,.18-.27,1,1,0,0,1,.27-.19,1,1,0,0,1,.33-.07.88.88,0,0,1,.33.07.92.92,0,0,1,.28.19.74.74,0,0,1,.19.27A.8.8,0,0,1,71.29,91.38Z"/><path class="2a3f3ed2-0796-41b5-bc5d-2200193509a7" d="M75.3,93.16a3.25,3.25,0,0,1,1.23.23,2.48,2.48,0,0,1,.93.63,2.74,2.74,0,0,1,.6,1,3.77,3.77,0,0,1,.21,1.3,3.83,3.83,0,0,1-.21,1.31,2.74,2.74,0,0,1-.6,1,2.62,2.62,0,0,1-.93.64,3.24,3.24,0,0,1-1.23.22,3.17,3.17,0,0,1-1.23-.22,2.58,2.58,0,0,1-.94-.64,2.74,2.74,0,0,1-.6-1,3.83,3.83,0,0,1-.21-1.31,3.77,3.77,0,0,1,.21-1.3,2.74,2.74,0,0,1,.6-1,2.44,2.44,0,0,1,.94-.63A3.17,3.17,0,0,1,75.3,93.16Zm0,5.3a1.42,1.42,0,0,0,1.23-.55,3.29,3.29,0,0,0,0-3.18,1.4,1.4,0,0,0-1.23-.56,1.43,1.43,0,0,0-1.25.56,3.29,3.29,0,0,0,0,3.18A1.45,1.45,0,0,0,75.3,98.46Z"/><path class="2a3f3ed2-0796-41b5-bc5d-2200193509a7" d="M79.51,99.38V93.26h.78a.31.31,0,0,1,.33.25l.09.57a3.69,3.69,0,0,1,.41-.38,2.6,2.6,0,0,1,.45-.28,2.23,2.23,0,0,1,.51-.19,2.73,2.73,0,0,1,.59-.07,2.24,2.24,0,0,1,.89.17,1.69,1.69,0,0,1,.64.48,1.9,1.9,0,0,1,.39.73,3.16,3.16,0,0,1,.13.95v3.89H83.44V95.49a1.43,1.43,0,0,0-.28-1,1.07,1.07,0,0,0-.87-.35,1.67,1.67,0,0,0-.8.2,2.49,2.49,0,0,0-.69.54v4.46Z"/><path class="2a3f3ed2-0796-41b5-bc5d-2200193509a7" d="M17.61,132.06a4.66,4.66,0,0,1-.31,1.75,3.89,3.89,0,0,1-.88,1.37,3.94,3.94,0,0,1-1.36.88,4.77,4.77,0,0,1-1.77.32H10v-8.64h3.26a4.77,4.77,0,0,1,1.77.32,3.8,3.8,0,0,1,1.36.88,3.89,3.89,0,0,1,.88,1.37A4.7,4.7,0,0,1,17.61,132.06Zm-1.43,0a4.29,4.29,0,0,0-.2-1.34,2.89,2.89,0,0,0-.58-1,2.56,2.56,0,0,0-.91-.63,3.29,3.29,0,0,0-1.2-.22H11.44v6.38h1.85a3.29,3.29,0,0,0,1.2-.22,2.33,2.33,0,0,0,.91-.63,2.8,2.8,0,0,0,.58-1A4.24,4.24,0,0,0,16.18,132.06Z"/><path class="2a3f3ed2-0796-41b5-bc5d-2200193509a7" d="M20.36,128.41a.88.88,0,0,1-.06.33.77.77,0,0,1-.19.27,1.07,1.07,0,0,1-.28.19.8.8,0,0,1-.34.07.72.72,0,0,1-.33-.07,1,1,0,0,1-.27-.19.91.91,0,0,1-.18-.27.81.81,0,0,1,0-.66,1.12,1.12,0,0,1,.18-.28.8.8,0,0,1,.27-.18.72.72,0,0,1,.33-.07.8.8,0,0,1,.34.07.84.84,0,0,1,.28.18.92.92,0,0,1,.19.28A.88.88,0,0,1,20.36,128.41Zm-.21,1.85v6.12H18.86v-6.12Z"/><path class="2a3f3ed2-0796-41b5-bc5d-2200193509a7" d="M22.19,136.38v-5.09l-.6-.09a.45.45,0,0,1-.24-.11.25.25,0,0,1-.1-.22v-.53h.94v-.41a2.73,2.73,0,0,1,.15-.94,1.86,1.86,0,0,1,.44-.7,1.78,1.78,0,0,1,.69-.44,2.65,2.65,0,0,1,.92-.15,2.6,2.6,0,0,1,.4,0l.37.08,0,.66a.17.17,0,0,1-.15.18,1.35,1.35,0,0,1-.37,0,1.83,1.83,0,0,0-.49.06.85.85,0,0,0-.37.21,1,1,0,0,0-.23.4,1.8,1.8,0,0,0-.08.61v.37H26v-.59a2.73,2.73,0,0,1,.15-.94,1.86,1.86,0,0,1,.44-.7,1.78,1.78,0,0,1,.69-.44,2.63,2.63,0,0,1,.91-.15,2.73,2.73,0,0,1,.41,0l.37.08,0,.66a.18.18,0,0,1-.16.18,1.31,1.31,0,0,1-.37,0,1.88,1.88,0,0,0-.49.06.82.82,0,0,0-.36.21,1,1,0,0,0-.24.4,2.1,2.1,0,0,0-.08.61v.55h1.67v.93H27.31v5.11H26v-5.11H23.48v5.11Z"/><path class="2a3f3ed2-0796-41b5-bc5d-2200193509a7" d="M32.26,130.16a2.75,2.75,0,0,1,1,.19,2.32,2.32,0,0,1,.83.53,2.56,2.56,0,0,1,.54.87,3.26,3.26,0,0,1,.2,1.17.86.86,0,0,1-.07.4.25.25,0,0,1-.24.1H30.63a3.22,3.22,0,0,0,.16.9,1.89,1.89,0,0,0,.37.64,1.45,1.45,0,0,0,.55.37,1.88,1.88,0,0,0,.72.13,2.08,2.08,0,0,0,.65-.09,2.82,2.82,0,0,0,.48-.19,3.34,3.34,0,0,0,.35-.2.63.63,0,0,1,.27-.08.29.29,0,0,1,.24.12l.36.47a2.47,2.47,0,0,1-.51.46,3.54,3.54,0,0,1-.62.3,2.91,2.91,0,0,1-.66.17,5.16,5.16,0,0,1-.67.05,3.29,3.29,0,0,1-1.18-.21,2.73,2.73,0,0,1-.94-.63,3,3,0,0,1-.62-1,4,4,0,0,1-.23-1.41,3.48,3.48,0,0,1,.2-1.18,2.9,2.9,0,0,1,.58-1,2.61,2.61,0,0,1,.91-.65A3,3,0,0,1,32.26,130.16Zm0,.94a1.46,1.46,0,0,0-1.1.4,2,2,0,0,0-.51,1.13h3a1.89,1.89,0,0,0-.09-.6,1.57,1.57,0,0,0-.28-.49,1.28,1.28,0,0,0-.44-.32A1.52,1.52,0,0,0,32.28,131.1Z"/><path class="2a3f3ed2-0796-41b5-bc5d-2200193509a7" d="M36.07,136.38v-6.12h.75a.41.41,0,0,1,.28.08.45.45,0,0,1,.11.26l.07.79a2.75,2.75,0,0,1,.7-.91,1.65,1.65,0,0,1,1.35-.29,1,1,0,0,1,.31.14l-.09,1a.23.23,0,0,1-.07.14.21.21,0,0,1-.14,0,1.09,1.09,0,0,1-.26,0,2,2,0,0,0-.35,0,1.42,1.42,0,0,0-.48.08,1.1,1.1,0,0,0-.37.23,1.48,1.48,0,0,0-.29.36,3.91,3.91,0,0,0-.23.5v3.8Z"/><path class="2a3f3ed2-0796-41b5-bc5d-2200193509a7" d="M42.85,130.16a2.75,2.75,0,0,1,1,.19,2.32,2.32,0,0,1,.83.53,2.56,2.56,0,0,1,.54.87,3.26,3.26,0,0,1,.2,1.17.86.86,0,0,1-.07.4.25.25,0,0,1-.24.1H41.22a3.22,3.22,0,0,0,.16.9,1.89,1.89,0,0,0,.37.64,1.45,1.45,0,0,0,.55.37,1.88,1.88,0,0,0,.72.13,2.08,2.08,0,0,0,.65-.09,2.82,2.82,0,0,0,.48-.19,3.34,3.34,0,0,0,.35-.2.63.63,0,0,1,.27-.08A.29.29,0,0,1,45,135l.36.47a2.47,2.47,0,0,1-.51.46,3.54,3.54,0,0,1-.62.3,2.91,2.91,0,0,1-.66.17,5.16,5.16,0,0,1-.67.05,3.29,3.29,0,0,1-1.18-.21,2.73,2.73,0,0,1-.94-.63,3,3,0,0,1-.62-1,4,4,0,0,1-.23-1.41,3.48,3.48,0,0,1,.2-1.18,2.9,2.9,0,0,1,.58-1,2.61,2.61,0,0,1,.91-.65A3,3,0,0,1,42.85,130.16Zm0,.94a1.46,1.46,0,0,0-1.1.4,2,2,0,0,0-.51,1.13h3a1.89,1.89,0,0,0-.09-.6,1.57,1.57,0,0,0-.28-.49,1.28,1.28,0,0,0-.44-.32A1.52,1.52,0,0,0,42.87,131.1Z"/><path class="2a3f3ed2-0796-41b5-bc5d-2200193509a7" d="M46.66,136.38v-6.12h.78a.31.31,0,0,1,.33.25l.09.57a4.86,4.86,0,0,1,.41-.38,2.6,2.6,0,0,1,.45-.28,2.23,2.23,0,0,1,.51-.19,2.8,2.8,0,0,1,.59-.07,2.21,2.21,0,0,1,.89.17,1.69,1.69,0,0,1,.64.48,1.84,1.84,0,0,1,.39.73,3.16,3.16,0,0,1,.14,1v3.89H50.59v-3.89a1.43,1.43,0,0,0-.28-1,1.07,1.07,0,0,0-.87-.35,1.69,1.69,0,0,0-.8.2,2.49,2.49,0,0,0-.69.54v4.46Z"/><path class="2a3f3ed2-0796-41b5-bc5d-2200193509a7" d="M55.27,136.48a1.59,1.59,0,0,1-1.18-.43,1.7,1.7,0,0,1-.41-1.21v-3.57H53a.33.33,0,0,1-.19-.06.28.28,0,0,1-.07-.21v-.52l1-.15.28-1.77a.29.29,0,0,1,.1-.16.25.25,0,0,1,.19-.07H55v2h4.27v6H58v-5.11H55v3.48a.73.73,0,0,0,.16.5.57.57,0,0,0,.44.18.87.87,0,0,0,.25,0l.19-.09.14-.08a.15.15,0,0,1,.11,0,.19.19,0,0,1,.17.12l.38.63a2.12,2.12,0,0,1-.7.41A2.74,2.74,0,0,1,55.27,136.48Zm4.24-8.1a.72.72,0,0,1-.07.33,1,1,0,0,1-.19.27.82.82,0,0,1-.61.25.88.88,0,0,1-.33-.06A1,1,0,0,1,58,129a.8.8,0,0,1-.18-.27.72.72,0,0,1-.07-.33.88.88,0,0,1,.25-.61,1,1,0,0,1,.27-.19.88.88,0,0,1,.33-.07.88.88,0,0,1,.61.26,1,1,0,0,1,.19.27A.8.8,0,0,1,59.51,128.38Z"/><path class="2a3f3ed2-0796-41b5-bc5d-2200193509a7" d="M64.82,136.38a.51.51,0,0,1-.28-.06.4.4,0,0,1-.17-.23l-.12-.5a4.85,4.85,0,0,1-.46.38,3.87,3.87,0,0,1-.47.28,3,3,0,0,1-.53.17,2.87,2.87,0,0,1-.61.06,2.17,2.17,0,0,1-.69-.11,1.4,1.4,0,0,1-.56-.31,1.3,1.3,0,0,1-.37-.51,1.75,1.75,0,0,1-.13-.72,1.38,1.38,0,0,1,.19-.69,1.7,1.7,0,0,1,.62-.6,3.78,3.78,0,0,1,1.15-.44,8.2,8.2,0,0,1,1.75-.2v-.41a1.43,1.43,0,0,0-.28-1,1,1,0,0,0-.83-.33,1.79,1.79,0,0,0-.62.1,2.61,2.61,0,0,0-.44.2l-.33.2a.59.59,0,0,1-.31.09.32.32,0,0,1-.22-.07.52.52,0,0,1-.16-.17l-.23-.42a3.52,3.52,0,0,1,2.47-1,2.32,2.32,0,0,1,.94.17,1.72,1.72,0,0,1,.69.48,2.18,2.18,0,0,1,.43.74,2.87,2.87,0,0,1,.14,1v3.89Zm-2.25-.8a2,2,0,0,0,.87-.19,2.86,2.86,0,0,0,.7-.55V133.7a8.15,8.15,0,0,0-1.16.12,2.86,2.86,0,0,0-.77.22,1,1,0,0,0-.42.32.67.67,0,0,0-.13.41.87.87,0,0,0,.07.37.67.67,0,0,0,.19.25.87.87,0,0,0,.29.14A1.36,1.36,0,0,0,62.57,135.58Z"/><path class="2a3f3ed2-0796-41b5-bc5d-2200193509a7" d="M68.21,127.5v8.88H66.92V127.5Z"/><path class="2a3f3ed2-0796-41b5-bc5d-2200193509a7" d="M12,144.55a2.93,2.93,0,0,1,1.37.33h1.72v.48c0,.16-.1.26-.29.3l-.61.1a2,2,0,0,1,.16.77,1.82,1.82,0,0,1-.67,1.44,2.29,2.29,0,0,1-.74.4,3.14,3.14,0,0,1-.94.14,2.22,2.22,0,0,1-.37,0l-.36,0a1,1,0,0,0-.26.21.38.38,0,0,0-.08.24.3.3,0,0,0,.17.29,1.32,1.32,0,0,0,.46.14,4.19,4.19,0,0,0,.65.05l.74,0a6.15,6.15,0,0,1,.75.1,2.17,2.17,0,0,1,.65.22,1.18,1.18,0,0,1,.63,1.13,1.56,1.56,0,0,1-.2.78,2.1,2.1,0,0,1-.57.67,2.89,2.89,0,0,1-.91.47A3.88,3.88,0,0,1,12,153a5.09,5.09,0,0,1-1.19-.13,2.9,2.9,0,0,1-.85-.36,1.45,1.45,0,0,1-.5-.52,1.25,1.25,0,0,1-.17-.61,1.07,1.07,0,0,1,.27-.74,2,2,0,0,1,.74-.48,1.08,1.08,0,0,1-.4-.33.92.92,0,0,1-.15-.55,1,1,0,0,1,0-.28,1.91,1.91,0,0,1,.15-.28,1.27,1.27,0,0,1,.25-.27,2.24,2.24,0,0,1,.34-.23,1.91,1.91,0,0,1-.71-.67,1.78,1.78,0,0,1-.27-1,1.83,1.83,0,0,1,.18-.82,1.76,1.76,0,0,1,.5-.62,2.08,2.08,0,0,1,.75-.4A3.21,3.21,0,0,1,12,144.55Zm1.79,6.53a.43.43,0,0,0-.11-.32.92.92,0,0,0-.32-.2,2.44,2.44,0,0,0-.46-.1l-.56-.05-.61,0a5.54,5.54,0,0,1-.6-.06,1.58,1.58,0,0,0-.47.36.74.74,0,0,0-.18.49.61.61,0,0,0,.1.34.81.81,0,0,0,.28.27,2.21,2.21,0,0,0,.5.18,3.84,3.84,0,0,0,.73.06,2.55,2.55,0,0,0,1.28-.26A.78.78,0,0,0,13.76,151.08ZM12,147.67a1.23,1.23,0,0,0,.9-.31,1.22,1.22,0,0,0,0-1.6,1.26,1.26,0,0,0-.9-.29,1.28,1.28,0,0,0-.9.29,1.09,1.09,0,0,0-.3.8,1.33,1.33,0,0,0,.08.45,1,1,0,0,0,.23.35,1.06,1.06,0,0,0,.37.23A1.62,1.62,0,0,0,12,147.67Z"/><path class="2a3f3ed2-0796-41b5-bc5d-2200193509a7" d="M18.54,144.56a2.91,2.91,0,0,1,1,.19,2.32,2.32,0,0,1,.83.53,2.58,2.58,0,0,1,.55.87,3.26,3.26,0,0,1,.19,1.17.74.74,0,0,1-.07.4.25.25,0,0,1-.24.1H16.91a2.88,2.88,0,0,0,.17.9,1.74,1.74,0,0,0,.37.64,1.31,1.31,0,0,0,.55.37,2,2,0,0,0,.71.13,2.15,2.15,0,0,0,.66-.09,3.69,3.69,0,0,0,.48-.19l.35-.19a.48.48,0,0,1,.26-.09.29.29,0,0,1,.24.12l.37.47a2.81,2.81,0,0,1-.52.46,3.45,3.45,0,0,1-.61.3,3.87,3.87,0,0,1-.67.17,5.14,5.14,0,0,1-.66.05,3.22,3.22,0,0,1-1.18-.21,2.64,2.64,0,0,1-.94-.63,2.88,2.88,0,0,1-.63-1,4,4,0,0,1-.22-1.41,3.25,3.25,0,0,1,.2-1.18,2.72,2.72,0,0,1,.57-1,2.65,2.65,0,0,1,.92-.65A2.9,2.9,0,0,1,18.54,144.56Zm0,.94a1.49,1.49,0,0,0-1.1.4A2,2,0,0,0,17,147h3a1.89,1.89,0,0,0-.09-.6,1.37,1.37,0,0,0-.27-.49,1.12,1.12,0,0,0-.45-.32A1.49,1.49,0,0,0,18.56,145.5Z"/><path class="2a3f3ed2-0796-41b5-bc5d-2200193509a7" d="M22.35,150.78v-6.12h.78a.32.32,0,0,1,.34.25l.09.57a3.59,3.59,0,0,1,.4-.38,2.6,2.6,0,0,1,.45-.28,2.31,2.31,0,0,1,.52-.19,2.73,2.73,0,0,1,.59-.07,2.19,2.19,0,0,1,.88.17,1.72,1.72,0,0,1,.65.48,2,2,0,0,1,.39.73,3.16,3.16,0,0,1,.13.95v3.89H26.29v-3.89a1.43,1.43,0,0,0-.29-1,1.07,1.07,0,0,0-.87-.35,1.72,1.72,0,0,0-.8.2,2.82,2.82,0,0,0-.69.54v4.46Z"/><path class="2a3f3ed2-0796-41b5-bc5d-2200193509a7" d="M31.64,144.56a3,3,0,0,1,1,.19,2.41,2.41,0,0,1,.83.53,2.56,2.56,0,0,1,.54.87,3.26,3.26,0,0,1,.19,1.17.89.89,0,0,1-.06.4.27.27,0,0,1-.24.1H30a2.9,2.9,0,0,0,.16.9,1.89,1.89,0,0,0,.37.64,1.37,1.37,0,0,0,.55.37,2.05,2.05,0,0,0,.72.13,2.08,2.08,0,0,0,.65-.09,2.82,2.82,0,0,0,.48-.19l.35-.19a.51.51,0,0,1,.26-.09.26.26,0,0,1,.24.12l.37.47a2.29,2.29,0,0,1-.52.46,3.14,3.14,0,0,1-.61.3,3.76,3.76,0,0,1-.66.17,5.16,5.16,0,0,1-.67.05,3.25,3.25,0,0,1-1.18-.21,2.73,2.73,0,0,1-.94-.63,2.87,2.87,0,0,1-.62-1,4,4,0,0,1-.23-1.41,3.48,3.48,0,0,1,.2-1.18,2.9,2.9,0,0,1,.58-1,2.61,2.61,0,0,1,.91-.65A2.94,2.94,0,0,1,31.64,144.56Zm0,.94a1.5,1.5,0,0,0-1.11.4,2.08,2.08,0,0,0-.51,1.13H33.1a1.64,1.64,0,0,0-.1-.6,1.37,1.37,0,0,0-.27-.49,1.12,1.12,0,0,0-.45-.32A1.44,1.44,0,0,0,31.67,145.5Z"/><path class="2a3f3ed2-0796-41b5-bc5d-2200193509a7" d="M41,144.56a3,3,0,0,1,1,.19,2.41,2.41,0,0,1,.83.53,2.56,2.56,0,0,1,.54.87,3.26,3.26,0,0,1,.19,1.17.89.89,0,0,1-.06.4.27.27,0,0,1-.24.1H39.38a2.9,2.9,0,0,0,.16.9,1.89,1.89,0,0,0,.37.64,1.37,1.37,0,0,0,.55.37,2.05,2.05,0,0,0,.72.13,2.08,2.08,0,0,0,.65-.09,2.82,2.82,0,0,0,.48-.19l.35-.19a.51.51,0,0,1,.26-.09.26.26,0,0,1,.24.12l.37.47a2.29,2.29,0,0,1-.52.46,3.14,3.14,0,0,1-.61.3,3.76,3.76,0,0,1-.66.17,5.16,5.16,0,0,1-.67.05,3.25,3.25,0,0,1-1.18-.21A2.68,2.68,0,0,1,38.33,149a4,4,0,0,1-.23-1.41,3.48,3.48,0,0,1,.2-1.18,2.74,2.74,0,0,1,.58-1,2.61,2.61,0,0,1,.91-.65A2.94,2.94,0,0,1,41,144.56Zm0,.94a1.5,1.5,0,0,0-1.11.4,2.08,2.08,0,0,0-.51,1.13h3.05a1.64,1.64,0,0,0-.1-.6,1.37,1.37,0,0,0-.27-.49,1.12,1.12,0,0,0-.45-.32A1.44,1.44,0,0,0,41,145.5Z"/><path class="2a3f3ed2-0796-41b5-bc5d-2200193509a7" d="M46.15,147.63l-2-3h1.24a.31.31,0,0,1,.34.18L47.07,147a1.59,1.59,0,0,1,.17-.39l1.17-1.76a.37.37,0,0,1,.31-.2H49.9l-2,2.91L50,150.78H48.75a.36.36,0,0,1-.24-.08.75.75,0,0,1-.14-.17L47,148.27a1,1,0,0,1-.14.35l-1.28,1.91a.8.8,0,0,1-.15.17.29.29,0,0,1-.21.08H44Z"/><path class="2a3f3ed2-0796-41b5-bc5d-2200193509a7" d="M50.86,152.81v-8.15h.78a.31.31,0,0,1,.33.25l.1.64a4,4,0,0,1,.41-.41,3,3,0,0,1,.47-.32,2.24,2.24,0,0,1,.53-.2,2.37,2.37,0,0,1,.61-.07,2.09,2.09,0,0,1,.94.2,2,2,0,0,1,.72.61,2.87,2.87,0,0,1,.46,1,4.9,4.9,0,0,1,.17,1.34,4,4,0,0,1-.19,1.26,2.93,2.93,0,0,1-.52,1,2.46,2.46,0,0,1-.83.68,2.44,2.44,0,0,1-1.1.24,2.32,2.32,0,0,1-.92-.17,2.07,2.07,0,0,1-.67-.48v2.59Zm2.8-7.23a1.54,1.54,0,0,0-.85.22,2.21,2.21,0,0,0-.66.61v2.83a1.41,1.41,0,0,0,.59.49,1.64,1.64,0,0,0,.71.14,1.4,1.4,0,0,0,1.18-.55,2.68,2.68,0,0,0,.42-1.64,3.77,3.77,0,0,0-.1-1,1.82,1.82,0,0,0-.27-.66,1.08,1.08,0,0,0-.44-.36A1.37,1.37,0,0,0,53.66,145.58Z"/><path class="2a3f3ed2-0796-41b5-bc5d-2200193509a7" d="M57.63,150.78v-6.12h.75a.39.39,0,0,1,.28.07.49.49,0,0,1,.11.27l.07.79a2.89,2.89,0,0,1,.7-.91,1.53,1.53,0,0,1,1-.33,1.45,1.45,0,0,1,.37,0,1.15,1.15,0,0,1,.32.14l-.09,1a.24.24,0,0,1-.08.14.25.25,0,0,1-.13,0l-.26,0a1.37,1.37,0,0,0-.36,0,1.42,1.42,0,0,0-.48.08,1.1,1.1,0,0,0-.37.23,1.76,1.76,0,0,0-.29.36,3.91,3.91,0,0,0-.23.5v3.8Z"/><path class="2a3f3ed2-0796-41b5-bc5d-2200193509a7" d="M64.41,144.56a2.91,2.91,0,0,1,1,.19,2.32,2.32,0,0,1,.83.53,2.58,2.58,0,0,1,.55.87,3.26,3.26,0,0,1,.19,1.17.74.74,0,0,1-.07.4.25.25,0,0,1-.24.1H62.78a2.88,2.88,0,0,0,.17.9,1.74,1.74,0,0,0,.37.64,1.31,1.31,0,0,0,.55.37,2,2,0,0,0,.71.13,2.15,2.15,0,0,0,.66-.09,3.69,3.69,0,0,0,.48-.19l.35-.19a.48.48,0,0,1,.26-.09.29.29,0,0,1,.24.12l.37.47a2.81,2.81,0,0,1-.52.46,3.45,3.45,0,0,1-.61.3,3.87,3.87,0,0,1-.67.17,5.14,5.14,0,0,1-.66.05,3.22,3.22,0,0,1-1.18-.21,2.64,2.64,0,0,1-.94-.63,2.88,2.88,0,0,1-.63-1,4,4,0,0,1-.22-1.41,3.25,3.25,0,0,1,.2-1.18,2.72,2.72,0,0,1,.57-1,2.65,2.65,0,0,1,.92-.65A2.9,2.9,0,0,1,64.41,144.56Zm0,.94a1.49,1.49,0,0,0-1.1.4,2,2,0,0,0-.51,1.13h3a1.89,1.89,0,0,0-.09-.6,1.37,1.37,0,0,0-.27-.49,1.12,1.12,0,0,0-.45-.32A1.49,1.49,0,0,0,64.43,145.5Z"/><path class="2a3f3ed2-0796-41b5-bc5d-2200193509a7" d="M71.87,145.77a.25.25,0,0,1-.1.12.33.33,0,0,1-.15,0,.55.55,0,0,1-.23-.07l-.28-.14a2.35,2.35,0,0,0-.38-.14,1.93,1.93,0,0,0-.51-.06,2,2,0,0,0-.44,0,1,1,0,0,0-.33.17.64.64,0,0,0-.2.24.68.68,0,0,0-.08.31.52.52,0,0,0,.14.36,1.14,1.14,0,0,0,.34.24,2.26,2.26,0,0,0,.5.19l.56.18a5.48,5.48,0,0,1,.56.23,1.83,1.83,0,0,1,.5.31,1.24,1.24,0,0,1,.34.44,1.33,1.33,0,0,1,.14.63,2.08,2.08,0,0,1-.16.8,1.8,1.8,0,0,1-.46.64,2,2,0,0,1-.74.42,3.24,3.24,0,0,1-1,.15,3.32,3.32,0,0,1-1.17-.22,2.54,2.54,0,0,1-.5-.23,3.64,3.64,0,0,1-.41-.3l.3-.5a.44.44,0,0,1,.13-.14.42.42,0,0,1,.2-.05.46.46,0,0,1,.25.08,2.45,2.45,0,0,0,.29.18,3.11,3.11,0,0,0,.4.18,1.89,1.89,0,0,0,.58.08,1.83,1.83,0,0,0,.5-.07,1.17,1.17,0,0,0,.35-.19.73.73,0,0,0,.2-.27.93.93,0,0,0,.07-.33.54.54,0,0,0-.14-.38,1,1,0,0,0-.35-.26,2.78,2.78,0,0,0-.49-.19l-.57-.18c-.19-.07-.38-.14-.57-.23a2,2,0,0,1-.5-.32,1.52,1.52,0,0,1-.35-.47,1.56,1.56,0,0,1-.13-.68,1.66,1.66,0,0,1,.15-.7,1.72,1.72,0,0,1,.43-.58,2.07,2.07,0,0,1,.7-.4,2.85,2.85,0,0,1,1-.15,3.11,3.11,0,0,1,1.13.2,2.43,2.43,0,0,1,.84.54Z"/><path class="2a3f3ed2-0796-41b5-bc5d-2200193509a7" d="M77.11,145.77a.26.26,0,0,1-.11.12.33.33,0,0,1-.15,0,.55.55,0,0,1-.22-.07l-.28-.14a2.35,2.35,0,0,0-.38-.14,2.08,2.08,0,0,0-1,0,1,1,0,0,0-.33.17.79.79,0,0,0-.21.24.82.82,0,0,0-.07.31.57.57,0,0,0,.13.36,1.35,1.35,0,0,0,.35.24,2.38,2.38,0,0,0,.49.19l.57.18a5.48,5.48,0,0,1,.56.23,1.64,1.64,0,0,1,.49.31,1.27,1.27,0,0,1,.35.44,1.34,1.34,0,0,1,.13.63,2.07,2.07,0,0,1-.15.8,1.94,1.94,0,0,1-.46.64,2.14,2.14,0,0,1-.74.42,3.24,3.24,0,0,1-1,.15,3.08,3.08,0,0,1-.61-.06,3.41,3.41,0,0,1-.57-.16,2.75,2.75,0,0,1-.49-.23,3.82,3.82,0,0,1-.42-.3l.3-.5a.62.62,0,0,1,.14-.14.39.39,0,0,1,.2-.05.49.49,0,0,1,.25.08,2.45,2.45,0,0,0,.29.18,3.11,3.11,0,0,0,.4.18,1.89,1.89,0,0,0,.58.08,1.83,1.83,0,0,0,.5-.07,1,1,0,0,0,.34-.19.76.76,0,0,0,.21-.27.92.92,0,0,0,.06-.33.53.53,0,0,0-.13-.38,1.07,1.07,0,0,0-.35-.26,2.61,2.61,0,0,0-.5-.19l-.56-.18a5.65,5.65,0,0,1-.57-.23,1.86,1.86,0,0,1-.5-.32,1.52,1.52,0,0,1-.35-.47,1.56,1.56,0,0,1-.13-.68,1.66,1.66,0,0,1,.15-.7,1.6,1.6,0,0,1,.43-.58,2.07,2.07,0,0,1,.7-.4,2.85,2.85,0,0,1,1-.15,3.06,3.06,0,0,1,1.12.2,2.38,2.38,0,0,1,.85.54Z"/><path class="2a3f3ed2-0796-41b5-bc5d-2200193509a7" d="M80.26,142.81a.88.88,0,0,1-.07.33.93.93,0,0,1-.47.46.8.8,0,0,1-.34.07.75.75,0,0,1-.33-.07.7.7,0,0,1-.26-.19.77.77,0,0,1-.19-.27.81.81,0,0,1,0-.66.92.92,0,0,1,.19-.28.81.81,0,0,1,.26-.18.75.75,0,0,1,.33-.07.8.8,0,0,1,.34.07.9.9,0,0,1,.28.18.92.92,0,0,1,.19.28A.88.88,0,0,1,80.26,142.81ZM80,144.66v6.12H78.75v-6.12Z"/><path class="2a3f3ed2-0796-41b5-bc5d-2200193509a7" d="M84.31,144.56a3.25,3.25,0,0,1,1.23.23,2.4,2.4,0,0,1,.93.63,2.74,2.74,0,0,1,.6,1,3.77,3.77,0,0,1,.21,1.3,3.83,3.83,0,0,1-.21,1.31,2.74,2.74,0,0,1-.6,1,2.54,2.54,0,0,1-.93.64,3.24,3.24,0,0,1-1.23.22,3.21,3.21,0,0,1-1.23-.22,2.58,2.58,0,0,1-.94-.64,2.74,2.74,0,0,1-.6-1,3.83,3.83,0,0,1-.21-1.31,3.77,3.77,0,0,1,.21-1.3,2.74,2.74,0,0,1,.6-1,2.44,2.44,0,0,1,.94-.63A3.21,3.21,0,0,1,84.31,144.56Zm0,5.3a1.45,1.45,0,0,0,1.24-.55,3.36,3.36,0,0,0,0-3.18,1.66,1.66,0,0,0-2.49,0,3.36,3.36,0,0,0,0,3.18A1.46,1.46,0,0,0,84.31,149.86Z"/><path class="2a3f3ed2-0796-41b5-bc5d-2200193509a7" d="M88.52,150.78v-6.12h.78a.31.31,0,0,1,.33.25l.09.57a4.86,4.86,0,0,1,.41-.38,2.6,2.6,0,0,1,.45-.28,2.14,2.14,0,0,1,.52-.19,2.65,2.65,0,0,1,.59-.07,2.19,2.19,0,0,1,.88.17,1.69,1.69,0,0,1,.64.48,1.91,1.91,0,0,1,.4.73,3.52,3.52,0,0,1,.13.95v3.89H92.45v-3.89a1.43,1.43,0,0,0-.28-1,1.07,1.07,0,0,0-.87-.35,1.69,1.69,0,0,0-.8.2,2.65,2.65,0,0,0-.69.54v4.46Z"/><path class="2a3f3ed2-0796-41b5-bc5d-2200193509a7" d="M133.77,10.25v.94h-4.12v3h3.52v1h-3.52v3.69h-1.17V10.25Z"/><path class="2a3f3ed2-0796-41b5-bc5d-2200193509a7" d="M139.56,18.84h-.47a.6.6,0,0,1-.25,0,.27.27,0,0,1-.13-.21l-.12-.56a5.22,5.22,0,0,1-.47.38,2.36,2.36,0,0,1-.48.29,2.21,2.21,0,0,1-.53.18,3.1,3.1,0,0,1-.64.06,2.07,2.07,0,0,1-.66-.1,1.67,1.67,0,0,1-.54-.3,1.43,1.43,0,0,1-.36-.5,1.75,1.75,0,0,1-.13-.72,1.39,1.39,0,0,1,.19-.7,1.84,1.84,0,0,1,.64-.59,4.3,4.3,0,0,1,1.16-.42,7.81,7.81,0,0,1,1.74-.17V15a1.64,1.64,0,0,0-.3-1.07,1.08,1.08,0,0,0-.9-.37,1.78,1.78,0,0,0-.65.1,2.83,2.83,0,0,0-.46.22c-.14.08-.25.16-.34.22a.48.48,0,0,1-.28.1.41.41,0,0,1-.19-.05.57.57,0,0,1-.13-.14l-.19-.35a3.56,3.56,0,0,1,1.09-.72,3.3,3.3,0,0,1,1.29-.24,2.13,2.13,0,0,1,.9.17,1.78,1.78,0,0,1,.67.46,2.16,2.16,0,0,1,.41.73,3.1,3.1,0,0,1,.13.94Zm-2.77-.65a2.12,2.12,0,0,0,.52-.06,2.32,2.32,0,0,0,.44-.16,2,2,0,0,0,.39-.25,3,3,0,0,0,.37-.35V16.12a7.37,7.37,0,0,0-1.25.09,4,4,0,0,0-.84.25,1.2,1.2,0,0,0-.47.35.77.77,0,0,0-.15.46,1.08,1.08,0,0,0,.08.42.78.78,0,0,0,.21.29,1,1,0,0,0,.31.16A1.6,1.6,0,0,0,136.79,18.19Z"/><path class="2a3f3ed2-0796-41b5-bc5d-2200193509a7" d="M144.66,13.77a.22.22,0,0,1-.22.13.35.35,0,0,1-.2-.07l-.28-.14a1.76,1.76,0,0,0-.39-.15,1.81,1.81,0,0,0-.54-.07,1.49,1.49,0,0,0-.49.07,1.08,1.08,0,0,0-.37.19.83.83,0,0,0-.23.27.72.72,0,0,0-.08.35.56.56,0,0,0,.13.39,1.3,1.3,0,0,0,.36.27,2.89,2.89,0,0,0,.5.2l.58.19a5.77,5.77,0,0,1,.58.22,1.9,1.9,0,0,1,.5.3,1.29,1.29,0,0,1,.36.44A1.32,1.32,0,0,1,145,17a2,2,0,0,1-.15.78,1.71,1.71,0,0,1-.45.62,2.09,2.09,0,0,1-.72.41,2.93,2.93,0,0,1-1,.15,3,3,0,0,1-1.15-.21,2.83,2.83,0,0,1-.88-.53l.25-.41a.34.34,0,0,1,.12-.12.39.39,0,0,1,.17,0,.4.4,0,0,1,.23.09l.29.18a2.26,2.26,0,0,0,.41.19,2.1,2.1,0,0,0,.61.08,1.82,1.82,0,0,0,.55-.08,1.24,1.24,0,0,0,.39-.22.9.9,0,0,0,.23-.32,1,1,0,0,0,.07-.38.64.64,0,0,0-.13-.42,1.15,1.15,0,0,0-.36-.28,2.48,2.48,0,0,0-.5-.2l-.59-.19a4.07,4.07,0,0,1-.58-.22,2.14,2.14,0,0,1-.51-.3,1.6,1.6,0,0,1-.35-.46,1.54,1.54,0,0,1-.14-.67,1.59,1.59,0,0,1,.15-.67,1.5,1.5,0,0,1,.42-.56,2.19,2.19,0,0,1,.67-.39,2.91,2.91,0,0,1,.92-.14,2.85,2.85,0,0,1,1.08.19,2.39,2.39,0,0,1,.82.52Z"/><path class="2a3f3ed2-0796-41b5-bc5d-2200193509a7" d="M148.23,18.94a1.44,1.44,0,0,1-1.1-.4,1.61,1.61,0,0,1-.39-1.16V13.66H146a.21.21,0,0,1-.16-.06.19.19,0,0,1-.07-.17V13l1-.13L147,11a.28.28,0,0,1,.08-.15.24.24,0,0,1,.17-.06h.54v2.1h1.74v.77h-1.74v3.65a.81.81,0,0,0,.18.57.68.68,0,0,0,.48.18.81.81,0,0,0,.29,0,.9.9,0,0,0,.22-.1l.15-.1a.19.19,0,0,1,.11,0,.17.17,0,0,1,.15.1l.31.51a2,2,0,0,1-.66.4A2.24,2.24,0,0,1,148.23,18.94Z"/><path class="2a3f3ed2-0796-41b5-bc5d-2200193509a7" d="M159,14.55a5.34,5.34,0,0,1-.12,1.15,4.41,4.41,0,0,1-.36,1,3.51,3.51,0,0,1-.57.85,3.67,3.67,0,0,1-.75.67l2.2,2.38h-1a1.12,1.12,0,0,1-.38-.06.85.85,0,0,1-.31-.21l-1.51-1.64a5.25,5.25,0,0,1-.71.16,4.72,4.72,0,0,1-.77.06,4.41,4.41,0,0,1-1.73-.32,3.86,3.86,0,0,1-1.34-.9,4,4,0,0,1-.86-1.39,5.24,5.24,0,0,1,0-3.55,4.12,4.12,0,0,1,.86-1.39,4,4,0,0,1,1.34-.91,4.84,4.84,0,0,1,3.46,0,3.93,3.93,0,0,1,1.34.91,4.31,4.31,0,0,1,.87,1.39A5.08,5.08,0,0,1,159,14.55Zm-1.19,0a4.19,4.19,0,0,0-.22-1.42,3,3,0,0,0-.61-1.07,2.64,2.64,0,0,0-1-.67,3.4,3.4,0,0,0-1.26-.23,3.31,3.31,0,0,0-1.25.23,2.76,2.76,0,0,0-1,.67,3,3,0,0,0-.61,1.07,4.19,4.19,0,0,0-.22,1.42A4.19,4.19,0,0,0,152,16a3.07,3.07,0,0,0,.61,1.06,2.62,2.62,0,0,0,1,.66,3.13,3.13,0,0,0,1.25.24,3.22,3.22,0,0,0,1.26-.24,2.5,2.5,0,0,0,1-.66,3.07,3.07,0,0,0,.61-1.06A4.19,4.19,0,0,0,157.83,14.55Z"/><path class="2a3f3ed2-0796-41b5-bc5d-2200193509a7" d="M134.68,49.59a.5.5,0,0,1-.11.13.28.28,0,0,1-.16.05.4.4,0,0,1-.24-.1,2.83,2.83,0,0,0-.34-.23,3,3,0,0,0-.5-.22,2.47,2.47,0,0,0-1.39,0,1.43,1.43,0,0,0-.5.29,1.15,1.15,0,0,0-.31.42,1.5,1.5,0,0,0-.1.52,1,1,0,0,0,.18.6,1.58,1.58,0,0,0,.47.41,4.08,4.08,0,0,0,.66.29l.75.25c.26.09.51.19.76.3a2.65,2.65,0,0,1,.66.42,1.91,1.91,0,0,1,.47.61,2.07,2.07,0,0,1,.17.9,2.85,2.85,0,0,1-.19,1.06,2.37,2.37,0,0,1-.56.86,2.63,2.63,0,0,1-.9.58,3.37,3.37,0,0,1-1.23.21,3.6,3.6,0,0,1-2.69-1.12l.34-.55a.43.43,0,0,1,.11-.12.29.29,0,0,1,.16,0,.44.44,0,0,1,.28.13l.41.3a3,3,0,0,0,.59.3,2.32,2.32,0,0,0,.84.13,2.13,2.13,0,0,0,.74-.11,1.66,1.66,0,0,0,.55-.32,1.35,1.35,0,0,0,.34-.5,1.62,1.62,0,0,0,.12-.64,1.15,1.15,0,0,0-.17-.64,1.56,1.56,0,0,0-.47-.41,2.86,2.86,0,0,0-.66-.29l-.75-.24c-.26-.08-.51-.18-.76-.28a2.84,2.84,0,0,1-.66-.42,2.06,2.06,0,0,1-.46-.65,2.44,2.44,0,0,1,0-1.84,2.38,2.38,0,0,1,.51-.75,2.52,2.52,0,0,1,.83-.53,3.09,3.09,0,0,1,1.14-.2,3.64,3.64,0,0,1,1.31.23,2.89,2.89,0,0,1,1,.66Z"/><path class="2a3f3ed2-0796-41b5-bc5d-2200193509a7" d="M142.49,48.25v1h-2.78v7.62h-1.16V49.22h-2.79v-1Z"/><path class="2a3f3ed2-0796-41b5-bc5d-2200193509a7" d="M150,56.84h-.9a.37.37,0,0,1-.25-.07.48.48,0,0,1-.15-.2l-.8-2.08H144l-.8,2.08a.53.53,0,0,1-.15.19.36.36,0,0,1-.25.08h-.9l3.44-8.59h1.18Zm-5.64-3.19h3.21l-1.35-3.5a6.71,6.71,0,0,1-.25-.81l-.13.46c0,.13-.09.26-.13.36Z"/><path class="2a3f3ed2-0796-41b5-bc5d-2200193509a7" d="M152.36,53.26v3.58H151.2V48.25h2.43a5.26,5.26,0,0,1,1.41.16,2.57,2.57,0,0,1,1,.48,2,2,0,0,1,.58.75,2.57,2.57,0,0,1,.18,1,2.37,2.37,0,0,1-.14.85,2.42,2.42,0,0,1-.42.71,2.51,2.51,0,0,1-.66.54,3,3,0,0,1-.89.33,1.33,1.33,0,0,1,.38.37l2.51,3.41h-1a.51.51,0,0,1-.47-.24l-2.23-3.07a.64.64,0,0,0-.23-.21.84.84,0,0,0-.36-.06Zm0-.85h1.22a3.06,3.06,0,0,0,.9-.12,2.13,2.13,0,0,0,.65-.35,1.5,1.5,0,0,0,.39-.54,1.73,1.73,0,0,0,.13-.69,1.37,1.37,0,0,0-.51-1.16,2.43,2.43,0,0,0-1.51-.39h-1.27Z"/><path class="2a3f3ed2-0796-41b5-bc5d-2200193509a7" d="M106.31,99.34V94.18l-.67-.08a.67.67,0,0,1-.21-.09.26.26,0,0,1-.08-.19v-.43h1V92.8a2.67,2.67,0,0,1,.15-.93,1.87,1.87,0,0,1,.42-.68,1.76,1.76,0,0,1,.66-.43,2.54,2.54,0,0,1,.86-.14,2.37,2.37,0,0,1,.76.12l0,.53a.15.15,0,0,1-.1.15l-.27,0h-.19a2,2,0,0,0-.5.07.88.88,0,0,0-.38.24,1.09,1.09,0,0,0-.25.42,2.1,2.1,0,0,0-.09.66v.56h1.76v.77h-1.72v5.18Z"/><path class="2a3f3ed2-0796-41b5-bc5d-2200193509a7" d="M112.52,93.17a2.75,2.75,0,0,1,1,.18,2.28,2.28,0,0,1,.8.53,2.34,2.34,0,0,1,.52.85,3.25,3.25,0,0,1,.19,1.16.74.74,0,0,1-.05.33.23.23,0,0,1-.21.09h-4a3.27,3.27,0,0,0,.16,1,2,2,0,0,0,.39.71,1.7,1.7,0,0,0,.6.43,2.36,2.36,0,0,0,1.48,0,2.6,2.6,0,0,0,.5-.2l.35-.2a.45.45,0,0,1,.24-.09.21.21,0,0,1,.2.1l.3.39a2.11,2.11,0,0,1-.47.42,2.94,2.94,0,0,1-.59.29,3.66,3.66,0,0,1-.65.17,3.88,3.88,0,0,1-.67.06,3.15,3.15,0,0,1-1.16-.21,2.79,2.79,0,0,1-.92-.63,2.84,2.84,0,0,1-.6-1,4.18,4.18,0,0,1-.22-1.39,3.58,3.58,0,0,1,.2-1.19,2.91,2.91,0,0,1,.56-.95,2.51,2.51,0,0,1,.89-.64A3,3,0,0,1,112.52,93.17Zm0,.79a1.62,1.62,0,0,0-1.22.44,2.07,2.07,0,0,0-.55,1.24h3.3A2.11,2.11,0,0,0,114,95a1.53,1.53,0,0,0-.3-.53,1.3,1.3,0,0,0-.48-.35A1.67,1.67,0,0,0,112.55,94Z"/><path class="2a3f3ed2-0796-41b5-bc5d-2200193509a7" d="M120.87,99.34h-.48a.62.62,0,0,1-.25,0,.29.29,0,0,1-.12-.21l-.12-.56c-.16.14-.32.27-.47.38a2.36,2.36,0,0,1-.48.29,2.45,2.45,0,0,1-.54.18,3.06,3.06,0,0,1-.63.06,2,2,0,0,1-.66-.1,1.41,1.41,0,0,1-.9-.8,1.74,1.74,0,0,1-.14-.72,1.34,1.34,0,0,1,.2-.69,1.63,1.63,0,0,1,.64-.6,4.22,4.22,0,0,1,1.15-.42,7.91,7.91,0,0,1,1.75-.17v-.48a1.59,1.59,0,0,0-.31-1.07,1.07,1.07,0,0,0-.89-.37,1.83,1.83,0,0,0-.66.1,2.83,2.83,0,0,0-.46.22l-.34.22a.44.44,0,0,1-.28.1.35.35,0,0,1-.18,0,.43.43,0,0,1-.13-.14l-.2-.35a3.56,3.56,0,0,1,1.09-.72,3.37,3.37,0,0,1,1.29-.24,2.21,2.21,0,0,1,.91.17,1.83,1.83,0,0,1,.66.46,2,2,0,0,1,.41.73,3.09,3.09,0,0,1,.14.94Zm-2.77-.65a2,2,0,0,0,.51-.06,1.54,1.54,0,0,0,.44-.16,2.42,2.42,0,0,0,.4-.25,3,3,0,0,0,.37-.35V96.62a7.58,7.58,0,0,0-1.26.09,4,4,0,0,0-.84.25,1.28,1.28,0,0,0-.47.35.83.83,0,0,0-.14.46.86.86,0,0,0,.28.71,1.07,1.07,0,0,0,.32.16A1.6,1.6,0,0,0,118.1,98.69Z"/><path class="2a3f3ed2-0796-41b5-bc5d-2200193509a7" d="M124.33,99.44a1.47,1.47,0,0,1-1.11-.4,1.65,1.65,0,0,1-.38-1.16V94.16h-.74a.25.25,0,0,1-.16-.06.22.22,0,0,1-.06-.17V93.5l1-.13.25-1.87a.22.22,0,0,1,.08-.15.23.23,0,0,1,.16-.06h.54v2.1h1.74v.77H123.9v3.65a.81.81,0,0,0,.19.57.65.65,0,0,0,.48.18.85.85,0,0,0,.29,0,1,1,0,0,0,.21-.1l.16-.1a.19.19,0,0,1,.11,0,.19.19,0,0,1,.15.1l.31.51a2,2,0,0,1-.67.4A2.18,2.18,0,0,1,124.33,99.44Z"/><path class="2a3f3ed2-0796-41b5-bc5d-2200193509a7" d="M127.89,93.27v3.87a1.57,1.57,0,0,0,.32,1.07,1.19,1.19,0,0,0,1,.38,1.94,1.94,0,0,0,.88-.22,2.92,2.92,0,0,0,.76-.62V93.27h1.07v6.07h-.64a.27.27,0,0,1-.29-.22l-.08-.65a3.32,3.32,0,0,1-.89.7,2.3,2.3,0,0,1-1.13.27,2.06,2.06,0,0,1-.88-.17,1.71,1.71,0,0,1-.63-.46,1.77,1.77,0,0,1-.39-.73,3.05,3.05,0,0,1-.13-.94V93.27Z"/><path class="2a3f3ed2-0796-41b5-bc5d-2200193509a7" d="M133.64,99.34V93.27h.61a.38.38,0,0,1,.24.06.5.5,0,0,1,.09.23l.07,1a2.75,2.75,0,0,1,.77-1,1.77,1.77,0,0,1,1.08-.35,2,2,0,0,1,.45,0,1.89,1.89,0,0,1,.38.16l-.14.8a.17.17,0,0,1-.18.15.9.9,0,0,1-.26-.06,2,2,0,0,0-.49-.05,1.4,1.4,0,0,0-.93.32,2.5,2.5,0,0,0-.63.94v3.87Z"/><path class="2a3f3ed2-0796-41b5-bc5d-2200193509a7" d="M140.88,93.17a2.79,2.79,0,0,1,1,.18,2.24,2.24,0,0,1,.79.53,2.36,2.36,0,0,1,.53.85,3.48,3.48,0,0,1,.19,1.16.59.59,0,0,1-.06.33.2.2,0,0,1-.2.09h-4a3.29,3.29,0,0,0,.15,1,2.12,2.12,0,0,0,.4.71,1.7,1.7,0,0,0,.6.43,2.13,2.13,0,0,0,.78.14,2,2,0,0,0,.69-.1,2.6,2.6,0,0,0,.5-.2,3.34,3.34,0,0,0,.35-.2.51.51,0,0,1,.25-.09.23.23,0,0,1,.2.1l.3.39a2.11,2.11,0,0,1-.47.42,3.23,3.23,0,0,1-.59.29,3.55,3.55,0,0,1-.66.17,3.68,3.68,0,0,1-.66.06,3.11,3.11,0,0,1-1.16-.21,2.64,2.64,0,0,1-1.52-1.65,3.94,3.94,0,0,1-.22-1.39,3.58,3.58,0,0,1,.19-1.19,2.77,2.77,0,0,1,.57-.95,2.51,2.51,0,0,1,.89-.64A3,3,0,0,1,140.88,93.17Zm0,.79a1.65,1.65,0,0,0-1.22.44,2.13,2.13,0,0,0-.55,1.24h3.31a2.43,2.43,0,0,0-.1-.68,1.53,1.53,0,0,0-.3-.53,1.42,1.42,0,0,0-.49-.35A1.64,1.64,0,0,0,140.9,94Z"/><path class="2a3f3ed2-0796-41b5-bc5d-2200193509a7" d="M151,97.57a.21.21,0,0,1,.17.08l.46.49a3.69,3.69,0,0,1-1.28,1,4.35,4.35,0,0,1-1.82.34,4.3,4.3,0,0,1-1.68-.32,3.74,3.74,0,0,1-1.29-.9,4,4,0,0,1-.83-1.39,5.08,5.08,0,0,1-.3-1.78,4.86,4.86,0,0,1,.32-1.78,4.11,4.11,0,0,1,.88-1.4A4,4,0,0,1,147,91a4.7,4.7,0,0,1,1.75-.32,4.26,4.26,0,0,1,1.64.29,4.37,4.37,0,0,1,1.22.8l-.38.54-.09.09a.25.25,0,0,1-.16,0,.33.33,0,0,1-.16,0l-.21-.14-.28-.18a1.76,1.76,0,0,0-.39-.18,3.09,3.09,0,0,0-.51-.15,4.61,4.61,0,0,0-.68,0,3.5,3.5,0,0,0-1.27.23,2.83,2.83,0,0,0-1,.68,3.1,3.1,0,0,0-.65,1.07,4.17,4.17,0,0,0-.23,1.41,4.25,4.25,0,0,0,.23,1.43,3.4,3.4,0,0,0,.63,1.07,2.62,2.62,0,0,0,.95.66,3,3,0,0,0,1.17.23,4.65,4.65,0,0,0,.69,0,2.38,2.38,0,0,0,.57-.14,2.23,2.23,0,0,0,.49-.24,4.58,4.58,0,0,0,.45-.35A.3.3,0,0,1,151,97.57Z"/><path class="2a3f3ed2-0796-41b5-bc5d-2200193509a7" d="M155.44,93.17a3.09,3.09,0,0,1,1.2.22,2.6,2.6,0,0,1,.92.63,2.68,2.68,0,0,1,.57,1,4,4,0,0,1,.2,1.29,4.08,4.08,0,0,1-.2,1.3,2.72,2.72,0,0,1-.57,1,2.6,2.6,0,0,1-.92.63,3.29,3.29,0,0,1-1.2.22,3.25,3.25,0,0,1-1.2-.22,2.6,2.6,0,0,1-.92-.63,2.9,2.9,0,0,1-.58-1,3.82,3.82,0,0,1-.2-1.3,3.76,3.76,0,0,1,.2-1.29,2.85,2.85,0,0,1,.58-1,2.6,2.6,0,0,1,.92-.63A3.06,3.06,0,0,1,155.44,93.17Zm0,5.42a1.55,1.55,0,0,0,1.34-.6,3.38,3.38,0,0,0,0-3.37,1.53,1.53,0,0,0-1.34-.61,1.77,1.77,0,0,0-.79.16,1.37,1.37,0,0,0-.56.45,1.85,1.85,0,0,0-.34.72,4,4,0,0,0-.11,1,4,4,0,0,0,.11,1,1.85,1.85,0,0,0,.34.72,1.55,1.55,0,0,0,.56.45A1.92,1.92,0,0,0,155.44,98.59Z"/><path class="2a3f3ed2-0796-41b5-bc5d-2200193509a7" d="M160.58,93.27v3.87a1.63,1.63,0,0,0,.31,1.07,1.21,1.21,0,0,0,1,.38,2,2,0,0,0,.89-.22,3.09,3.09,0,0,0,.76-.62V93.27h1.07v6.07h-.64a.27.27,0,0,1-.29-.22l-.08-.65a3.48,3.48,0,0,1-.89.7,2.3,2.3,0,0,1-1.13.27,2.06,2.06,0,0,1-.88-.17,1.84,1.84,0,0,1-.64-.46,1.88,1.88,0,0,1-.38-.73,3.05,3.05,0,0,1-.13-.94V93.27Z"/><path class="2a3f3ed2-0796-41b5-bc5d-2200193509a7" d="M166.32,99.34V93.27H167a.27.27,0,0,1,.29.22l.08.66a3.52,3.52,0,0,1,.89-.71,2.28,2.28,0,0,1,1.13-.27,2.23,2.23,0,0,1,.88.16,1.74,1.74,0,0,1,.63.47,2.13,2.13,0,0,1,.39.73,3.14,3.14,0,0,1,.13.94v3.87h-1.07V95.47A1.64,1.64,0,0,0,170,94.4a1.19,1.19,0,0,0-1-.38,1.82,1.82,0,0,0-.89.23,2.92,2.92,0,0,0-.76.62v4.47Z"/><path class="2a3f3ed2-0796-41b5-bc5d-2200193509a7" d="M174.84,99.44a1.47,1.47,0,0,1-1.11-.4,1.61,1.61,0,0,1-.39-1.16V94.16h-.73a.23.23,0,0,1-.16-.06.22.22,0,0,1-.07-.17V93.5l1-.13.25-1.87a.21.21,0,0,1,.07-.15.25.25,0,0,1,.17-.06h.54v2.1h1.74v.77h-1.74v3.65a.77.77,0,0,0,.19.57.65.65,0,0,0,.48.18.85.85,0,0,0,.29,0,1,1,0,0,0,.21-.1l.15-.1a.21.21,0,0,1,.12,0,.19.19,0,0,1,.15.1l.31.51a2.13,2.13,0,0,1-.67.4A2.22,2.22,0,0,1,174.84,99.44Z"/><path class="2a3f3ed2-0796-41b5-bc5d-2200193509a7" d="M181,94.27a.23.23,0,0,1-.22.13.4.4,0,0,1-.21-.07l-.27-.14a1.68,1.68,0,0,0-.4-.15,1.73,1.73,0,0,0-.54-.07,1.43,1.43,0,0,0-.48.07,1,1,0,0,0-.37.19,1,1,0,0,0-.24.27.85.85,0,0,0-.08.35.56.56,0,0,0,.14.39,1.3,1.3,0,0,0,.36.27,2.6,2.6,0,0,0,.5.2l.58.19a5.77,5.77,0,0,1,.58.22,2.29,2.29,0,0,1,.5.3,1.29,1.29,0,0,1,.36.44,1.32,1.32,0,0,1,.13.62,2,2,0,0,1-.15.78,1.8,1.8,0,0,1-.44.62,2.3,2.3,0,0,1-.72.41,3,3,0,0,1-1,.15,3.06,3.06,0,0,1-1.15-.21,2.71,2.71,0,0,1-.87-.53l.25-.41a.43.43,0,0,1,.11-.12.44.44,0,0,1,.18,0,.37.37,0,0,1,.22.09l.3.18a2.26,2.26,0,0,0,.41.19,2.1,2.1,0,0,0,.61.08,1.82,1.82,0,0,0,.55-.08,1.09,1.09,0,0,0,.38-.22.82.82,0,0,0,.24-.32,1,1,0,0,0,.07-.38.64.64,0,0,0-.13-.42,1.15,1.15,0,0,0-.36-.28,2.36,2.36,0,0,0-.51-.2l-.58-.19a4.07,4.07,0,0,1-.58-.22,2.14,2.14,0,0,1-.51-.3,1.47,1.47,0,0,1-.36-.46,1.54,1.54,0,0,1-.13-.67,1.59,1.59,0,0,1,.56-1.23,2.24,2.24,0,0,1,.68-.39,3.13,3.13,0,0,1,2,0,2.49,2.49,0,0,1,.82.52Z"/><path class="2a3f3ed2-0796-41b5-bc5d-2200193509a7" d="M128.26,132.05a5,5,0,0,1-.3,1.76,3.88,3.88,0,0,1-.87,1.35,3.66,3.66,0,0,1-1.33.87,4.59,4.59,0,0,1-1.73.31h-3.22v-8.59H124a4.59,4.59,0,0,1,1.73.31,3.66,3.66,0,0,1,1.33.87,3.92,3.92,0,0,1,.87,1.36A4.92,4.92,0,0,1,128.26,132.05Zm-1.19,0a4.19,4.19,0,0,0-.22-1.42,2.8,2.8,0,0,0-.61-1,2.5,2.5,0,0,0-1-.66,3.13,3.13,0,0,0-1.25-.23h-2v6.71h2a3.13,3.13,0,0,0,1.25-.23,2.59,2.59,0,0,0,1-.65,2.84,2.84,0,0,0,.61-1.06A4.09,4.09,0,0,0,127.07,132.05Z"/><path class="2a3f3ed2-0796-41b5-bc5d-2200193509a7" d="M135.15,127.75v.94H131v2.86h3.34v.91H131v2.94h4.13v.94h-5.3v-8.59Z"/><path class="2a3f3ed2-0796-41b5-bc5d-2200193509a7" d="M141.22,129.09a.36.36,0,0,1-.11.13.21.21,0,0,1-.16.05.4.4,0,0,1-.23-.1,3,3,0,0,0-.35-.23,2.85,2.85,0,0,0-.49-.22,2.13,2.13,0,0,0-.71-.1,2.09,2.09,0,0,0-.69.1,1.43,1.43,0,0,0-.5.29,1.25,1.25,0,0,0-.3.42,1.3,1.3,0,0,0-.1.52,1,1,0,0,0,.17.6,1.72,1.72,0,0,0,.47.41,3.36,3.36,0,0,0,.66.29l.76.25c.25.09.51.19.75.3a2.48,2.48,0,0,1,.66.42,1.78,1.78,0,0,1,.47.61,2.06,2.06,0,0,1,.18.9,3.07,3.07,0,0,1-.19,1.06,2.4,2.4,0,0,1-.57.86,2.45,2.45,0,0,1-.9.58,3.36,3.36,0,0,1-1.22.21,3.72,3.72,0,0,1-1.52-.3,3.84,3.84,0,0,1-1.18-.82l.34-.55a.34.34,0,0,1,.12-.12.24.24,0,0,1,.15,0,.48.48,0,0,1,.29.13,3.77,3.77,0,0,0,.4.3,3,3,0,0,0,.59.3,2.32,2.32,0,0,0,.84.13,2.1,2.1,0,0,0,.74-.11,1.56,1.56,0,0,0,.55-.32,1.37,1.37,0,0,0,.35-.5,1.62,1.62,0,0,0,.12-.64,1.08,1.08,0,0,0-.18-.64,1.45,1.45,0,0,0-.47-.41,3,3,0,0,0-.65-.29l-.76-.24c-.26-.08-.51-.18-.76-.28a2.59,2.59,0,0,1-.65-.42,2.09,2.09,0,0,1-.47-.65,2.29,2.29,0,0,1-.17-1,2.19,2.19,0,0,1,.69-1.63,2.42,2.42,0,0,1,.83-.53,3,3,0,0,1,1.13-.2,3.73,3.73,0,0,1,1.32.23,3.07,3.07,0,0,1,1,.66Z"/><path class="2a3f3ed2-0796-41b5-bc5d-2200193509a7" d="M145.42,130.17a2.79,2.79,0,0,1,1,.18,2.24,2.24,0,0,1,.79.53,2.36,2.36,0,0,1,.53.85,3.48,3.48,0,0,1,.19,1.16.59.59,0,0,1-.06.33.2.2,0,0,1-.2.09h-4a3.29,3.29,0,0,0,.15,1,2.12,2.12,0,0,0,.4.71,1.7,1.7,0,0,0,.6.43,2.13,2.13,0,0,0,.78.14,2,2,0,0,0,.69-.1,2.6,2.6,0,0,0,.5-.2,3.34,3.34,0,0,0,.35-.2.51.51,0,0,1,.25-.09.23.23,0,0,1,.2.1l.3.39a2.11,2.11,0,0,1-.47.42,3.32,3.32,0,0,1-.6.29,3.45,3.45,0,0,1-.65.17,3.68,3.68,0,0,1-.66.06,3.11,3.11,0,0,1-1.16-.21,2.64,2.64,0,0,1-1.52-1.65,3.94,3.94,0,0,1-.22-1.39,3.58,3.58,0,0,1,.19-1.19,2.77,2.77,0,0,1,.57-1,2.64,2.64,0,0,1,.89-.64A3,3,0,0,1,145.42,130.17Zm0,.79a1.65,1.65,0,0,0-1.22.44,2.13,2.13,0,0,0-.55,1.24H147a2.43,2.43,0,0,0-.1-.68,1.62,1.62,0,0,0-.3-.53,1.42,1.42,0,0,0-.49-.35A1.67,1.67,0,0,0,145.44,131Z"/><path class="2a3f3ed2-0796-41b5-bc5d-2200193509a7" d="M154.21,130.27v8.13h-1.07v-3a3,3,0,0,1-.87.72,2.26,2.26,0,0,1-1.12.27,2.23,2.23,0,0,1-.94-.2,2,2,0,0,1-.73-.59,2.87,2.87,0,0,1-.46-1,4.83,4.83,0,0,1-.17-1.33,4.62,4.62,0,0,1,.18-1.26,3.16,3.16,0,0,1,.52-1,2.56,2.56,0,0,1,.83-.67,2.44,2.44,0,0,1,1.1-.24,2.15,2.15,0,0,1,1,.21,2.44,2.44,0,0,1,.74.59l.07-.47a.27.27,0,0,1,.29-.22Zm-2.7,5.29a1.72,1.72,0,0,0,.91-.24,2.52,2.52,0,0,0,.72-.67v-2.94a1.64,1.64,0,0,0-.64-.55,1.79,1.79,0,0,0-.78-.17,1.5,1.5,0,0,0-1.3.61,2.78,2.78,0,0,0-.46,1.73,4.26,4.26,0,0,0,.1,1,2.05,2.05,0,0,0,.3.7,1.19,1.19,0,0,0,.49.4A1.69,1.69,0,0,0,151.51,135.56Z"/><path class="2a3f3ed2-0796-41b5-bc5d-2200193509a7" d="M158.74,127.65a3.11,3.11,0,0,1,1,.16,2.55,2.55,0,0,1,.82.47,2.19,2.19,0,0,1,.54.76,2.44,2.44,0,0,1,.2,1,2.56,2.56,0,0,1-.15.89,3.22,3.22,0,0,1-.39.79,5.37,5.37,0,0,1-.56.72c-.22.24-.45.47-.69.72l-2.26,2.31a4.26,4.26,0,0,1,.49-.1,2.56,2.56,0,0,1,.47,0h2.88a.37.37,0,0,1,.28.1.36.36,0,0,1,.1.27v.64h-5.73V136a.67.67,0,0,1,0-.24.62.62,0,0,1,.15-.22l2.75-2.76c.23-.24.44-.46.62-.67a5.54,5.54,0,0,0,.49-.65,2.83,2.83,0,0,0,.31-.66,2.3,2.3,0,0,0,.1-.71,1.69,1.69,0,0,0-.12-.66,1.15,1.15,0,0,0-.33-.47,1.31,1.31,0,0,0-.49-.28,1.93,1.93,0,0,0-.6-.09,1.89,1.89,0,0,0-.6.09,1.6,1.6,0,0,0-.85.68,1.45,1.45,0,0,0-.21.51.46.46,0,0,1-.14.25.36.36,0,0,1-.25.08h-.14l-.56-.1a3.09,3.09,0,0,1,.32-1,2.69,2.69,0,0,1,.61-.76,2.59,2.59,0,0,1,.85-.46A3.13,3.13,0,0,1,158.74,127.65Z"/><path class="2a3f3ed2-0796-41b5-bc5d-2200193509a7" d="M163.06,136.47a.65.65,0,0,1-.25.31.61.61,0,0,1-.34.1H162l3.61-9a.59.59,0,0,1,.22-.29.55.55,0,0,1,.34-.1h.45Z"/><path class="2a3f3ed2-0796-41b5-bc5d-2200193509a7" d="M127.64,144.57a2.79,2.79,0,0,1,1,.18,2.43,2.43,0,0,1,.8.53,2.59,2.59,0,0,1,.52.85,3.25,3.25,0,0,1,.19,1.16.74.74,0,0,1,0,.33.23.23,0,0,1-.21.09h-4a3.63,3.63,0,0,0,.15,1,2.12,2.12,0,0,0,.4.71,1.7,1.7,0,0,0,.6.43,2.13,2.13,0,0,0,.78.14,2,2,0,0,0,.69-.1,2.36,2.36,0,0,0,.5-.2,2.17,2.17,0,0,0,.35-.2.51.51,0,0,1,.25-.09.22.22,0,0,1,.2.1l.3.39a2.11,2.11,0,0,1-.47.42,3.23,3.23,0,0,1-.59.29,3.66,3.66,0,0,1-.65.17,3.88,3.88,0,0,1-.67.06,3.11,3.11,0,0,1-1.16-.21A2.64,2.64,0,0,1,125,149a3.94,3.94,0,0,1-.22-1.39,3.58,3.58,0,0,1,.2-1.19,2.75,2.75,0,0,1,.56-.95,2.64,2.64,0,0,1,.89-.64A3,3,0,0,1,127.64,144.57Zm0,.79a1.65,1.65,0,0,0-1.21.44,2.14,2.14,0,0,0-.56,1.24h3.31a2.11,2.11,0,0,0-.1-.68,1.62,1.62,0,0,0-.3-.53,1.33,1.33,0,0,0-.49-.35A1.64,1.64,0,0,0,127.66,145.36Z"/><path class="2a3f3ed2-0796-41b5-bc5d-2200193509a7" d="M135.8,150.74a.27.27,0,0,1-.29-.22l-.09-.74a3.09,3.09,0,0,1-.9.76,2.37,2.37,0,0,1-2.09.09,2,2,0,0,1-.73-.59,2.87,2.87,0,0,1-.46-1,4.85,4.85,0,0,1-.16-1.33,4.26,4.26,0,0,1,.18-1.26,3,3,0,0,1,.52-1,2.42,2.42,0,0,1,.82-.67,2.48,2.48,0,0,1,1.11-.24,2.12,2.12,0,0,1,.95.19,2.24,2.24,0,0,1,.71.53v-3.37h1.07v8.83Zm-2.07-.78a1.69,1.69,0,0,0,.91-.24,2.55,2.55,0,0,0,.73-.67v-2.94a1.69,1.69,0,0,0-.65-.56,1.93,1.93,0,0,0-.77-.16,1.52,1.52,0,0,0-1.31.61,2.78,2.78,0,0,0-.46,1.73,4.85,4.85,0,0,0,.1,1,2.05,2.05,0,0,0,.3.7,1.33,1.33,0,0,0,.49.4A1.69,1.69,0,0,0,133.73,150Z"/><path class="2a3f3ed2-0796-41b5-bc5d-2200193509a7" d="M140.28,144.56a2.94,2.94,0,0,1,.74.09,2,2,0,0,1,.62.26h1.65v.39c0,.13-.08.22-.25.25l-.69.1a1.81,1.81,0,0,1,.21.87,1.88,1.88,0,0,1-.65,1.43,2.08,2.08,0,0,1-.72.39,2.67,2.67,0,0,1-.91.14,3,3,0,0,1-.81-.1,1,1,0,0,0-.29.27.46.46,0,0,0-.1.28.37.37,0,0,0,.18.33,1.08,1.08,0,0,0,.46.17,4.19,4.19,0,0,0,.65,0h.75a3.81,3.81,0,0,1,.75.07,2.16,2.16,0,0,1,.65.21,1.18,1.18,0,0,1,.64,1.12,1.63,1.63,0,0,1-.2.76,2.06,2.06,0,0,1-.56.66,2.77,2.77,0,0,1-.89.46,3.74,3.74,0,0,1-1.2.17,4.6,4.6,0,0,1-1.17-.13,2.77,2.77,0,0,1-.83-.35,1.51,1.51,0,0,1-.49-.52,1.19,1.19,0,0,1-.17-.61,1.09,1.09,0,0,1,.29-.76,1.91,1.91,0,0,1,.78-.5,1.11,1.11,0,0,1-.41-.32.91.91,0,0,1-.15-.54.65.65,0,0,1,.05-.27,1,1,0,0,1,.14-.28,1.52,1.52,0,0,1,.25-.26,1.38,1.38,0,0,1,.33-.23,1.8,1.8,0,0,1-1-1.64,2,2,0,0,1,.17-.81,1.81,1.81,0,0,1,.48-.61,2.15,2.15,0,0,1,.73-.4A3,3,0,0,1,140.28,144.56Zm1.89,6.49a.55.55,0,0,0-.12-.37.88.88,0,0,0-.35-.22,2.21,2.21,0,0,0-.49-.11,3.86,3.86,0,0,0-.6,0H140a2.07,2.07,0,0,1-.62-.08,1.71,1.71,0,0,0-.56.4.79.79,0,0,0-.21.56.75.75,0,0,0,.1.38.81.81,0,0,0,.33.3,1.69,1.69,0,0,0,.54.21,3.49,3.49,0,0,0,.77.07,3,3,0,0,0,.77-.08,1.8,1.8,0,0,0,.58-.22,1.25,1.25,0,0,0,.37-.35A.87.87,0,0,0,142.17,151.05Zm-1.89-3.28a1.7,1.7,0,0,0,.57-.09,1.27,1.27,0,0,0,.42-.25,1.09,1.09,0,0,0,.25-.38,1.64,1.64,0,0,0,.08-.5,1.18,1.18,0,0,0-.34-.89,1.33,1.33,0,0,0-1-.33,1.38,1.38,0,0,0-1,.33,1.21,1.21,0,0,0-.33.89,1.38,1.38,0,0,0,.08.5,1.12,1.12,0,0,0,.26.38,1.13,1.13,0,0,0,.41.25A1.66,1.66,0,0,0,140.28,147.77Z"/><path class="2a3f3ed2-0796-41b5-bc5d-2200193509a7" d="M146.77,144.57a2.79,2.79,0,0,1,1,.18,2.39,2.39,0,0,1,.79.53,2.45,2.45,0,0,1,.53.85,3.48,3.48,0,0,1,.19,1.16.59.59,0,0,1-.06.33.2.2,0,0,1-.2.09h-4a3.29,3.29,0,0,0,.15,1,2.12,2.12,0,0,0,.4.71,1.7,1.7,0,0,0,.6.43,2.13,2.13,0,0,0,.78.14,2,2,0,0,0,.69-.1,2.6,2.6,0,0,0,.5-.2,2.17,2.17,0,0,0,.35-.2.51.51,0,0,1,.25-.09.23.23,0,0,1,.2.1l.3.39a2.11,2.11,0,0,1-.47.42,3.32,3.32,0,0,1-.6.29,3.45,3.45,0,0,1-.65.17,3.68,3.68,0,0,1-.66.06,3.11,3.11,0,0,1-1.16-.21,2.64,2.64,0,0,1-1.52-1.65,3.94,3.94,0,0,1-.22-1.39,3.58,3.58,0,0,1,.19-1.19,2.77,2.77,0,0,1,.57-.95,2.64,2.64,0,0,1,.89-.64A3,3,0,0,1,146.77,144.57Zm0,.79a1.69,1.69,0,0,0-1.22.44A2.13,2.13,0,0,0,145,147h3.31a2.43,2.43,0,0,0-.1-.68,1.62,1.62,0,0,0-.3-.53,1.42,1.42,0,0,0-.49-.35A1.64,1.64,0,0,0,146.79,145.36Z"/><path class="2a3f3ed2-0796-41b5-bc5d-2200193509a7" d="M152.1,147.16v3.58h-1.16v-8.59h2.43a5.37,5.37,0,0,1,1.41.16,2.72,2.72,0,0,1,1,.48,1.88,1.88,0,0,1,.57.75,2.43,2.43,0,0,1,.19,1,2.37,2.37,0,0,1-.15.85,2.2,2.2,0,0,1-.41.71,2.74,2.74,0,0,1-.67.54,3,3,0,0,1-.89.33,1.33,1.33,0,0,1,.38.37l2.51,3.41h-1a.52.52,0,0,1-.47-.24l-2.23-3.07a.62.62,0,0,0-.22-.21.84.84,0,0,0-.36-.06Zm0-.85h1.21a3.06,3.06,0,0,0,.9-.12,2,2,0,0,0,.65-.35,1.5,1.5,0,0,0,.39-.54,1.73,1.73,0,0,0,.13-.69,1.39,1.39,0,0,0-.5-1.16,2.45,2.45,0,0,0-1.51-.39H152.1Z"/><path class="2a3f3ed2-0796-41b5-bc5d-2200193509a7" d="M158.47,150.87a.65.65,0,0,1-.25.31.61.61,0,0,1-.34.1h-.45l3.61-9a.59.59,0,0,1,.22-.29.55.55,0,0,1,.34-.1h.45Z"/><path class="2a3f3ed2-0796-41b5-bc5d-2200193509a7" d="M127.86,164.17h3.72v1H126.7v-8.59h1.16Z"/><path class="2a3f3ed2-0796-41b5-bc5d-2200193509a7" d="M134.13,157.16a.73.73,0,0,1-.07.29.81.81,0,0,1-.17.24.78.78,0,0,1-.24.16.72.72,0,0,1-.29.06.68.68,0,0,1-.29-.06.78.78,0,0,1-.24-.16.81.81,0,0,1-.17-.24.72.72,0,0,1-.06-.29.77.77,0,0,1,.06-.3.7.7,0,0,1,.17-.24.81.81,0,0,1,.24-.17.68.68,0,0,1,.29-.06.72.72,0,0,1,.29.06.81.81,0,0,1,.24.17.7.7,0,0,1,.17.24A.78.78,0,0,1,134.13,157.16Zm-.24,1.91v6.07h-1.07v-6.07Z"/><path class="2a3f3ed2-0796-41b5-bc5d-2200193509a7" d="M135.77,165.14v-6.07h.64a.26.26,0,0,1,.28.22l.08.62a3.67,3.67,0,0,1,.75-.68,1.85,1.85,0,0,1,1-.26,1.43,1.43,0,0,1,1,.34,1.88,1.88,0,0,1,.55.93,2.24,2.24,0,0,1,.33-.57,2,2,0,0,1,.47-.4,2.06,2.06,0,0,1,.55-.23A2.32,2.32,0,0,1,142,159a2.26,2.26,0,0,1,.85.15,1.62,1.62,0,0,1,.64.45,2.1,2.1,0,0,1,.4.72,3.31,3.31,0,0,1,.14,1v3.87h-1.07v-3.87a1.64,1.64,0,0,0-.31-1.08,1.11,1.11,0,0,0-.91-.37,1.24,1.24,0,0,0-.5.1,1.17,1.17,0,0,0-.42.27,1.28,1.28,0,0,0-.28.45,1.73,1.73,0,0,0-.11.63v3.87h-1.06v-3.87a1.69,1.69,0,0,0-.3-1.09,1,1,0,0,0-.86-.36,1.28,1.28,0,0,0-.73.22,2.22,2.22,0,0,0-.62.57v4.53Z"/><path class="2a3f3ed2-0796-41b5-bc5d-2200193509a7" d="M145.62,165.14v-6.07h.64a.27.27,0,0,1,.29.22l.07.62a3.47,3.47,0,0,1,.76-.68,1.8,1.8,0,0,1,1-.26,1.4,1.4,0,0,1,1,.34,1.88,1.88,0,0,1,.55.93,2,2,0,0,1,.34-.57,1.75,1.75,0,0,1,.46-.4,2.21,2.21,0,0,1,.55-.23,2.53,2.53,0,0,1,1.45.08,1.59,1.59,0,0,1,.63.45,2,2,0,0,1,.4.72,3.31,3.31,0,0,1,.14,1v3.87h-1.07v-3.87a1.64,1.64,0,0,0-.31-1.08,1.11,1.11,0,0,0-.91-.37,1.24,1.24,0,0,0-.5.1,1,1,0,0,0-.41.27,1.29,1.29,0,0,0-.29.45,1.73,1.73,0,0,0-.11.63v3.87H149.2v-3.87a1.69,1.69,0,0,0-.3-1.09,1,1,0,0,0-.85-.36,1.31,1.31,0,0,0-.74.22,2.36,2.36,0,0,0-.62.57v4.53Z"/><path class="2a3f3ed2-0796-41b5-bc5d-2200193509a7" d="M159.94,165.14h-.48a.6.6,0,0,1-.25,0,.26.26,0,0,1-.12-.21l-.12-.56-.47.39a2.61,2.61,0,0,1-.48.28,2.45,2.45,0,0,1-.54.18,3.06,3.06,0,0,1-.63.06,2.09,2.09,0,0,1-.67-.1,1.62,1.62,0,0,1-.53-.3,1.45,1.45,0,0,1-.37-.5,1.75,1.75,0,0,1-.13-.72,1.34,1.34,0,0,1,.2-.69,1.7,1.7,0,0,1,.64-.6,4.22,4.22,0,0,1,1.15-.42,7.91,7.91,0,0,1,1.75-.17v-.48a1.59,1.59,0,0,0-.31-1.07,1.07,1.07,0,0,0-.89-.37,1.83,1.83,0,0,0-.66.1,2.83,2.83,0,0,0-.46.22l-.34.23a.49.49,0,0,1-.28.09.32.32,0,0,1-.19-.05.53.53,0,0,1-.12-.14l-.2-.35a3.56,3.56,0,0,1,1.09-.72,3.37,3.37,0,0,1,1.29-.24,2.13,2.13,0,0,1,.9.17,1.78,1.78,0,0,1,.67.46,2,2,0,0,1,.41.73,3.09,3.09,0,0,1,.14.94Zm-2.77-.65a2,2,0,0,0,.51-.06,2.09,2.09,0,0,0,.44-.16,2.42,2.42,0,0,0,.4-.25,4,4,0,0,0,.37-.35v-1.25a7.5,7.5,0,0,0-1.26.09,4,4,0,0,0-.84.25,1.28,1.28,0,0,0-.47.35.76.76,0,0,0-.14.46.86.86,0,0,0,.28.71,1.07,1.07,0,0,0,.32.16A1.48,1.48,0,0,0,157.17,164.49Z"/><path class="2a3f3ed2-0796-41b5-bc5d-2200193509a7" d="M207.27,10.25v.94h-4.12v3h3.52v1h-3.52v3.69H202V10.25Z"/><path class="2a3f3ed2-0796-41b5-bc5d-2200193509a7" d="M213.06,18.84h-.47a.6.6,0,0,1-.25,0,.27.27,0,0,1-.13-.21l-.12-.56a5.22,5.22,0,0,1-.47.38,2.36,2.36,0,0,1-.48.29,2.21,2.21,0,0,1-.53.18,3.1,3.1,0,0,1-.64.06,2.07,2.07,0,0,1-.66-.1,1.67,1.67,0,0,1-.54-.3,1.43,1.43,0,0,1-.36-.5,1.75,1.75,0,0,1-.13-.72,1.39,1.39,0,0,1,.19-.7,1.84,1.84,0,0,1,.64-.59,4.3,4.3,0,0,1,1.16-.42,7.81,7.81,0,0,1,1.74-.17V15a1.64,1.64,0,0,0-.3-1.07,1.08,1.08,0,0,0-.9-.37,1.78,1.78,0,0,0-.65.1,2.83,2.83,0,0,0-.46.22c-.14.08-.25.16-.34.22a.48.48,0,0,1-.28.1.41.41,0,0,1-.19-.05.57.57,0,0,1-.13-.14l-.19-.35a3.56,3.56,0,0,1,1.09-.72,3.3,3.3,0,0,1,1.29-.24,2.13,2.13,0,0,1,.9.17,1.78,1.78,0,0,1,.67.46,2.16,2.16,0,0,1,.41.73,3.1,3.1,0,0,1,.13.94Zm-2.77-.65a2.12,2.12,0,0,0,.52-.06,2.32,2.32,0,0,0,.44-.16,2,2,0,0,0,.39-.25,3,3,0,0,0,.37-.35V16.12a7.37,7.37,0,0,0-1.25.09,4,4,0,0,0-.84.25,1.2,1.2,0,0,0-.47.35.77.77,0,0,0-.15.46,1.08,1.08,0,0,0,.08.42.78.78,0,0,0,.21.29,1,1,0,0,0,.31.16A1.6,1.6,0,0,0,210.29,18.19Z"/><path class="2a3f3ed2-0796-41b5-bc5d-2200193509a7" d="M218.16,13.77a.22.22,0,0,1-.22.13.35.35,0,0,1-.2-.07l-.28-.14a1.76,1.76,0,0,0-.39-.15,1.81,1.81,0,0,0-.54-.07,1.49,1.49,0,0,0-.49.07,1.08,1.08,0,0,0-.37.19.83.83,0,0,0-.23.27.72.72,0,0,0-.08.35.56.56,0,0,0,.13.39,1.3,1.3,0,0,0,.36.27,2.89,2.89,0,0,0,.5.2l.58.19a5.77,5.77,0,0,1,.58.22,1.9,1.9,0,0,1,.5.3,1.29,1.29,0,0,1,.36.44,1.32,1.32,0,0,1,.14.62,2,2,0,0,1-.15.78,1.71,1.71,0,0,1-.45.62,2.09,2.09,0,0,1-.72.41,2.93,2.93,0,0,1-1,.15,3,3,0,0,1-1.15-.21,2.83,2.83,0,0,1-.88-.53l.25-.41a.34.34,0,0,1,.12-.12.39.39,0,0,1,.17,0,.4.4,0,0,1,.23.09l.29.18a2.26,2.26,0,0,0,.41.19,2.1,2.1,0,0,0,.61.08,1.82,1.82,0,0,0,.55-.08,1.24,1.24,0,0,0,.39-.22.9.9,0,0,0,.23-.32,1,1,0,0,0,.07-.38.64.64,0,0,0-.13-.42,1.15,1.15,0,0,0-.36-.28,2.48,2.48,0,0,0-.5-.2l-.59-.19a4.07,4.07,0,0,1-.58-.22,2.14,2.14,0,0,1-.51-.3,1.6,1.6,0,0,1-.35-.46,1.54,1.54,0,0,1-.14-.67,1.59,1.59,0,0,1,.15-.67,1.5,1.5,0,0,1,.42-.56,2.19,2.19,0,0,1,.67-.39,2.91,2.91,0,0,1,.92-.14,2.85,2.85,0,0,1,1.08.19,2.39,2.39,0,0,1,.82.52Z"/><path class="2a3f3ed2-0796-41b5-bc5d-2200193509a7" d="M221.73,18.94a1.44,1.44,0,0,1-1.1-.4,1.61,1.61,0,0,1-.39-1.16V13.66h-.73a.21.21,0,0,1-.16-.06.19.19,0,0,1-.07-.17V13l1-.13.24-1.87a.28.28,0,0,1,.08-.15.24.24,0,0,1,.17-.06h.54v2.1h1.74v.77h-1.74v3.65a.81.81,0,0,0,.18.57.68.68,0,0,0,.48.18.81.81,0,0,0,.29,0,.9.9,0,0,0,.22-.1l.15-.1a.19.19,0,0,1,.11,0,.17.17,0,0,1,.15.1l.31.51a2,2,0,0,1-.66.4A2.24,2.24,0,0,1,221.73,18.94Z"/><path class="2a3f3ed2-0796-41b5-bc5d-2200193509a7" d="M232.52,14.55a5.34,5.34,0,0,1-.12,1.15,4.41,4.41,0,0,1-.36,1,3.51,3.51,0,0,1-.57.85,3.67,3.67,0,0,1-.75.67l2.2,2.38h-1a1.12,1.12,0,0,1-.38-.06.85.85,0,0,1-.31-.21l-1.51-1.64a5.25,5.25,0,0,1-.71.16,4.72,4.72,0,0,1-.77.06,4.41,4.41,0,0,1-1.73-.32,3.86,3.86,0,0,1-1.34-.9,4,4,0,0,1-.86-1.39,5.24,5.24,0,0,1,0-3.55,4.12,4.12,0,0,1,.86-1.39,4,4,0,0,1,1.34-.91,4.84,4.84,0,0,1,3.46,0,3.93,3.93,0,0,1,1.34.91,4.31,4.31,0,0,1,.87,1.39A5.08,5.08,0,0,1,232.52,14.55Zm-1.19,0a4.19,4.19,0,0,0-.22-1.42,3,3,0,0,0-.61-1.07,2.64,2.64,0,0,0-1-.67,3.4,3.4,0,0,0-1.26-.23,3.31,3.31,0,0,0-1.25.23,2.76,2.76,0,0,0-1,.67,3,3,0,0,0-.61,1.07,4.19,4.19,0,0,0-.22,1.42,4.19,4.19,0,0,0,.22,1.42,3.07,3.07,0,0,0,.61,1.06,2.62,2.62,0,0,0,1,.66,3.13,3.13,0,0,0,1.25.24,3.22,3.22,0,0,0,1.26-.24,2.5,2.5,0,0,0,1-.66,3.07,3.07,0,0,0,.61-1.06A4.19,4.19,0,0,0,231.33,14.55Z"/><path class="2a3f3ed2-0796-41b5-bc5d-2200193509a7" d="M207,56.84h-1.17V52.93H201.2v3.91H200V48.25h1.17v3.83h4.63V48.25H207Z"/><path class="2a3f3ed2-0796-41b5-bc5d-2200193509a7" d="M210.36,48.86a.72.72,0,0,1-.06.29.81.81,0,0,1-.17.24.78.78,0,0,1-.24.16.72.72,0,0,1-.29.06.65.65,0,0,1-.29-.06,1,1,0,0,1-.25-.16,1,1,0,0,1-.16-.24.72.72,0,0,1-.06-.29.73.73,0,0,1,.06-.3,1.07,1.07,0,0,1,.16-.25,1,1,0,0,1,.25-.16.65.65,0,0,1,.29-.06.72.72,0,0,1,.29.06.78.78,0,0,1,.24.16.85.85,0,0,1,.17.25A.73.73,0,0,1,210.36,48.86Zm-.24,1.91v6.07h-1.06V50.77Z"/><path class="2a3f3ed2-0796-41b5-bc5d-2200193509a7" d="M216.58,49.59a.5.5,0,0,1-.11.13.28.28,0,0,1-.16.05.4.4,0,0,1-.24-.1,2.83,2.83,0,0,0-.34-.23,3,3,0,0,0-.5-.22,2.47,2.47,0,0,0-1.39,0,1.43,1.43,0,0,0-.5.29,1.15,1.15,0,0,0-.31.42,1.5,1.5,0,0,0-.1.52,1,1,0,0,0,.18.6,1.58,1.58,0,0,0,.47.41,4.08,4.08,0,0,0,.66.29L215,52c.26.09.51.19.76.3a2.65,2.65,0,0,1,.66.42,1.91,1.91,0,0,1,.47.61,2.22,2.22,0,0,1,.17.9,2.85,2.85,0,0,1-.19,1.06,2.37,2.37,0,0,1-.56.86,2.5,2.5,0,0,1-.91.58,3.28,3.28,0,0,1-1.22.21,3.78,3.78,0,0,1-1.52-.3,3.68,3.68,0,0,1-1.17-.82l.34-.55a.43.43,0,0,1,.11-.12.29.29,0,0,1,.16,0,.44.44,0,0,1,.28.13l.41.3a3,3,0,0,0,.59.3,2.32,2.32,0,0,0,.84.13,2.13,2.13,0,0,0,.74-.11,1.66,1.66,0,0,0,.55-.32,1.35,1.35,0,0,0,.34-.5,1.62,1.62,0,0,0,.12-.64,1.08,1.08,0,0,0-.18-.64,1.41,1.41,0,0,0-.46-.41,2.86,2.86,0,0,0-.66-.29l-.75-.24c-.26-.08-.51-.18-.76-.28a2.65,2.65,0,0,1-.66-.42,2.06,2.06,0,0,1-.46-.65,2.44,2.44,0,0,1,0-1.84,2.38,2.38,0,0,1,.51-.75,2.52,2.52,0,0,1,.83-.53,3.09,3.09,0,0,1,1.14-.2,3.64,3.64,0,0,1,1.31.23,2.89,2.89,0,0,1,1,.66Z"/><path class="2a3f3ed2-0796-41b5-bc5d-2200193509a7" d="M222.83,56.84h-.47a.57.57,0,0,1-.25,0,.27.27,0,0,1-.13-.21l-.12-.56c-.16.14-.32.27-.47.38a2.36,2.36,0,0,1-.48.29,2.45,2.45,0,0,1-.54.18,3.06,3.06,0,0,1-.63.06,2,2,0,0,1-.66-.1,1.57,1.57,0,0,1-.54-.3,1.43,1.43,0,0,1-.36-.5,1.74,1.74,0,0,1-.14-.72,1.41,1.41,0,0,1,.2-.7,1.76,1.76,0,0,1,.64-.59,4.3,4.3,0,0,1,1.16-.42,7.75,7.75,0,0,1,1.74-.17V53a1.64,1.64,0,0,0-.3-1.07,1.08,1.08,0,0,0-.9-.37,1.74,1.74,0,0,0-.65.1,3,3,0,0,0-.47.22l-.33.22a.48.48,0,0,1-.28.1.38.38,0,0,1-.19,0,.43.43,0,0,1-.13-.14l-.19-.35a3.52,3.52,0,0,1,1.08-.72,3.37,3.37,0,0,1,1.29-.24,2.17,2.17,0,0,1,.91.17,1.86,1.86,0,0,1,.67.46,2,2,0,0,1,.4.73,2.81,2.81,0,0,1,.14.94Zm-2.77-.65a2.12,2.12,0,0,0,.52-.06,2.11,2.11,0,0,0,.83-.41,3,3,0,0,0,.37-.35V54.12a7.37,7.37,0,0,0-1.25.09,3.7,3.7,0,0,0-.84.25,1.13,1.13,0,0,0-.47.35.77.77,0,0,0-.15.46,1.08,1.08,0,0,0,.08.42.78.78,0,0,0,.21.29,1,1,0,0,0,.31.16A1.6,1.6,0,0,0,220.06,56.19Z"/><path class="2a3f3ed2-0796-41b5-bc5d-2200193509a7" d="M226.29,56.94a1.43,1.43,0,0,1-1.1-.4,1.61,1.61,0,0,1-.39-1.16V51.66h-.73a.21.21,0,0,1-.16-.06.19.19,0,0,1-.07-.17V51l1-.13.24-1.87a.28.28,0,0,1,.08-.15.24.24,0,0,1,.17-.06h.54v2.1h1.74v.77h-1.74v3.65a.81.81,0,0,0,.18.57.68.68,0,0,0,.48.18.81.81,0,0,0,.29,0,.9.9,0,0,0,.22-.1l.15-.1a.19.19,0,0,1,.11,0,.17.17,0,0,1,.15.1l.31.51a2,2,0,0,1-.66.4A2.24,2.24,0,0,1,226.29,56.94Z"/><path class="2a3f3ed2-0796-41b5-bc5d-2200193509a7" d="M231.66,48.15a3.11,3.11,0,0,1,1,.16,2.55,2.55,0,0,1,.82.47,2.19,2.19,0,0,1,.54.76,2.44,2.44,0,0,1,.2,1,2.56,2.56,0,0,1-.15.89,3.16,3.16,0,0,1-.39.78,5.45,5.45,0,0,1-.56.73l-.68.72L230.19,56a4.26,4.26,0,0,1,.49-.1,2.56,2.56,0,0,1,.47,0H234a.37.37,0,0,1,.28.1.36.36,0,0,1,.1.27v.64h-5.73v-.36a.67.67,0,0,1,0-.24.62.62,0,0,1,.15-.22l2.75-2.76.63-.67a5.41,5.41,0,0,0,.48-.65,2.83,2.83,0,0,0,.31-.66,2.3,2.3,0,0,0,.11-.71,1.69,1.69,0,0,0-.12-.66,1.25,1.25,0,0,0-.33-.47,1.44,1.44,0,0,0-.5-.28,1.93,1.93,0,0,0-.6-.09,1.89,1.89,0,0,0-.6.09,1.77,1.77,0,0,0-.49.27,1.59,1.59,0,0,0-.36.41,1.45,1.45,0,0,0-.21.51.46.46,0,0,1-.14.25.36.36,0,0,1-.25.08h-.14l-.56-.1a3.25,3.25,0,0,1,.32-1,2.69,2.69,0,0,1,.61-.76,2.59,2.59,0,0,1,.85-.46A3.13,3.13,0,0,1,231.66,48.15Z"/><path class="2a3f3ed2-0796-41b5-bc5d-2200193509a7" d="M198.45,92.09a.36.36,0,0,1-.11.13.25.25,0,0,1-.16,0,.4.4,0,0,1-.23-.1l-.34-.23a3.39,3.39,0,0,0-.5-.22,2.13,2.13,0,0,0-.71-.1,2.09,2.09,0,0,0-.69.1,1.53,1.53,0,0,0-.5.29,1.25,1.25,0,0,0-.3.42,1.3,1.3,0,0,0-.1.52,1,1,0,0,0,.17.6,1.72,1.72,0,0,0,.47.41,5,5,0,0,0,.66.29l.76.25q.39.14.75.3a2.48,2.48,0,0,1,.66.42,1.78,1.78,0,0,1,.47.61,2.06,2.06,0,0,1,.18.9,3.07,3.07,0,0,1-.19,1.06,2.51,2.51,0,0,1-.56.86,2.58,2.58,0,0,1-.91.58,3.36,3.36,0,0,1-1.22.21,3.75,3.75,0,0,1-1.52-.3,3.84,3.84,0,0,1-1.18-.82l.34-.55a.34.34,0,0,1,.12-.12.24.24,0,0,1,.15,0,.48.48,0,0,1,.29.13,3.77,3.77,0,0,0,.4.3,3.24,3.24,0,0,0,.59.3,2.32,2.32,0,0,0,.84.13,2.1,2.1,0,0,0,.74-.11,1.56,1.56,0,0,0,.55-.32,1.37,1.37,0,0,0,.35-.5,1.62,1.62,0,0,0,.12-.64,1.08,1.08,0,0,0-.18-.64,1.45,1.45,0,0,0-.47-.41,3,3,0,0,0-.65-.29l-.76-.24c-.26-.08-.51-.18-.75-.28a2.48,2.48,0,0,1-.66-.42,2.09,2.09,0,0,1-.47-.65,2.57,2.57,0,0,1,0-1.84,2.25,2.25,0,0,1,.52-.75,2.42,2.42,0,0,1,.83-.53,3.08,3.08,0,0,1,1.13-.2,3.73,3.73,0,0,1,1.32.23,3.07,3.07,0,0,1,1,.66Z"/><path class="2a3f3ed2-0796-41b5-bc5d-2200193509a7" d="M202.08,99.44A1.44,1.44,0,0,1,201,99a1.61,1.61,0,0,1-.39-1.16V94.16h-.73a.21.21,0,0,1-.16-.06.19.19,0,0,1-.07-.17V93.5l1-.13.24-1.87a.28.28,0,0,1,.08-.15.24.24,0,0,1,.17-.06h.54v2.1h1.74v.77h-1.74v3.65a.81.81,0,0,0,.18.57.68.68,0,0,0,.48.18.91.91,0,0,0,.3,0,1,1,0,0,0,.21-.1l.15-.1a.19.19,0,0,1,.11,0,.17.17,0,0,1,.15.1l.31.51a2,2,0,0,1-.66.4A2.24,2.24,0,0,1,202.08,99.44Z"/><path class="2a3f3ed2-0796-41b5-bc5d-2200193509a7" d="M204.72,99.34V93.27h.61a.35.35,0,0,1,.24.06.5.5,0,0,1,.09.23l.07,1a2.86,2.86,0,0,1,.77-1,1.77,1.77,0,0,1,1.08-.35,2.16,2.16,0,0,1,.46,0,2.06,2.06,0,0,1,.37.16l-.13.8a.18.18,0,0,1-.19.15.9.9,0,0,1-.26-.06,2,2,0,0,0-.48-.05,1.41,1.41,0,0,0-.94.32,2.37,2.37,0,0,0-.62.94v3.87Z"/><path class="2a3f3ed2-0796-41b5-bc5d-2200193509a7" d="M211,91.36a.72.72,0,0,1-.06.29.81.81,0,0,1-.17.24.78.78,0,0,1-.24.16.73.73,0,0,1-.3.06.72.72,0,0,1-.29-.06.74.74,0,0,1-.4-.4.72.72,0,0,1-.06-.29.73.73,0,0,1,.06-.3.82.82,0,0,1,.16-.25.78.78,0,0,1,.24-.16.72.72,0,0,1,.29-.06.73.73,0,0,1,.3.06.78.78,0,0,1,.24.16.85.85,0,0,1,.17.25A.73.73,0,0,1,211,91.36Zm-.24,1.91v6.07h-1.07V93.27Z"/><path class="2a3f3ed2-0796-41b5-bc5d-2200193509a7" d="M212.63,99.34V93.27h.63a.27.27,0,0,1,.29.22l.08.66a3.52,3.52,0,0,1,.89-.71,2.28,2.28,0,0,1,1.13-.27,2.23,2.23,0,0,1,.88.16,1.74,1.74,0,0,1,.63.47,2.13,2.13,0,0,1,.39.73,3.14,3.14,0,0,1,.13.94v3.87h-1.06V95.47a1.65,1.65,0,0,0-.32-1.07,1.19,1.19,0,0,0-1-.38,1.84,1.84,0,0,0-.89.23,3.09,3.09,0,0,0-.76.62v4.47Z"/><path class="2a3f3ed2-0796-41b5-bc5d-2200193509a7" d="M221.34,93.16a2.89,2.89,0,0,1,.74.09,2.2,2.2,0,0,1,.63.26h1.65v.39c0,.13-.08.22-.25.25l-.69.1a1.89,1.89,0,0,1-.44,2.3,2.08,2.08,0,0,1-.72.39,2.69,2.69,0,0,1-.92.14,3,3,0,0,1-.8-.1.85.85,0,0,0-.29.27.44.44,0,0,0-.1.28.38.38,0,0,0,.17.33,1.13,1.13,0,0,0,.47.17,4.19,4.19,0,0,0,.65,0h.75a4.52,4.52,0,0,1,.74.06,2.44,2.44,0,0,1,.66.22,1.24,1.24,0,0,1,.46.42,1.22,1.22,0,0,1,.17.69,1.62,1.62,0,0,1-.19.77,2.06,2.06,0,0,1-.56.66,2.82,2.82,0,0,1-.9.46,3.68,3.68,0,0,1-1.19.17,4.6,4.6,0,0,1-1.17-.13,2.77,2.77,0,0,1-.83-.35,1.51,1.51,0,0,1-.49-.52,1.19,1.19,0,0,1-.17-.61,1.09,1.09,0,0,1,.29-.76,1.91,1.91,0,0,1,.78-.5,1.11,1.11,0,0,1-.41-.32.91.91,0,0,1-.15-.54.84.84,0,0,1,0-.27,1.08,1.08,0,0,1,.15-.28,2,2,0,0,1,.24-.26,1.69,1.69,0,0,1,.34-.23,1.83,1.83,0,0,1-.71-.67,1.8,1.8,0,0,1-.25-1,1.92,1.92,0,0,1,.17-.81,1.7,1.7,0,0,1,.48-.62,2,2,0,0,1,.73-.39A3,3,0,0,1,221.34,93.16Zm1.9,6.49a.51.51,0,0,0-.13-.37.7.7,0,0,0-.34-.22,2.18,2.18,0,0,0-.5-.11,3.65,3.65,0,0,0-.59,0H221a2,2,0,0,1-.61-.08,1.71,1.71,0,0,0-.56.4.79.79,0,0,0-.21.56.75.75,0,0,0,.1.38.85.85,0,0,0,.32.3,1.86,1.86,0,0,0,.55.21,3.43,3.43,0,0,0,.77.07,3,3,0,0,0,.77-.08,1.8,1.8,0,0,0,.58-.22,1.1,1.1,0,0,0,.36-.35A.79.79,0,0,0,223.24,99.65Zm-1.9-3.28a1.72,1.72,0,0,0,.58-.09,1.13,1.13,0,0,0,.41-.25,1,1,0,0,0,.26-.39,1.53,1.53,0,0,0,.08-.49,1.18,1.18,0,0,0-.34-.89,1.64,1.64,0,0,0-2,0,1.21,1.21,0,0,0-.34.89,1.3,1.3,0,0,0,.09.49,1,1,0,0,0,.26.39,1.13,1.13,0,0,0,.41.25A1.6,1.6,0,0,0,221.34,96.37Z"/><path class="2a3f3ed2-0796-41b5-bc5d-2200193509a7" d="M231.45,90.75v1h-2.77v7.62h-1.17V91.72h-2.79v-1Z"/><path class="2a3f3ed2-0796-41b5-bc5d-2200193509a7" d="M233.94,91.36a.59.59,0,0,1-.07.29.78.78,0,0,1-.16.24.76.76,0,0,1-.83.16.78.78,0,0,1-.24-.16.81.81,0,0,1-.17-.24.72.72,0,0,1-.06-.29.73.73,0,0,1,.06-.3.85.85,0,0,1,.17-.25.78.78,0,0,1,.24-.16.78.78,0,0,1,.83.16.82.82,0,0,1,.16.25A.6.6,0,0,1,233.94,91.36Zm-.24,1.91v6.07h-1.07V93.27Z"/><path class="2a3f3ed2-0796-41b5-bc5d-2200193509a7" d="M238,93.17a2.79,2.79,0,0,1,1,.18,2.24,2.24,0,0,1,.79.53,2.36,2.36,0,0,1,.53.85,3.48,3.48,0,0,1,.19,1.16.59.59,0,0,1-.06.33.2.2,0,0,1-.2.09h-4a3,3,0,0,0,.15,1,2.12,2.12,0,0,0,.4.71,1.7,1.7,0,0,0,.6.43,2.13,2.13,0,0,0,.78.14,2,2,0,0,0,.69-.1,2.6,2.6,0,0,0,.5-.2l.35-.2a.51.51,0,0,1,.25-.09.23.23,0,0,1,.2.1l.3.39a2.11,2.11,0,0,1-.47.42,3.32,3.32,0,0,1-.6.29,3.45,3.45,0,0,1-.65.17,3.68,3.68,0,0,1-.66.06,3.11,3.11,0,0,1-1.16-.21,2.64,2.64,0,0,1-1.52-1.65,3.94,3.94,0,0,1-.22-1.39,3.58,3.58,0,0,1,.19-1.19,2.77,2.77,0,0,1,.57-.95,2.51,2.51,0,0,1,.89-.64A3,3,0,0,1,238,93.17Zm0,.79a1.65,1.65,0,0,0-1.22.44,2.13,2.13,0,0,0-.55,1.24h3.31a2.43,2.43,0,0,0-.1-.68,1.4,1.4,0,0,0-.31-.53,1.3,1.3,0,0,0-.48-.35A1.64,1.64,0,0,0,238,94Z"/><path class="2a3f3ed2-0796-41b5-bc5d-2200193509a7" d="M193.38,136.34v-8.59h2.74a5.46,5.46,0,0,1,1.37.15,2.65,2.65,0,0,1,.94.45,1.7,1.7,0,0,1,.55.7,2.54,2.54,0,0,1,.17.94,1.77,1.77,0,0,1-.1.61,1.56,1.56,0,0,1-.3.55,2,2,0,0,1-.5.45,2.73,2.73,0,0,1-.71.32,2.67,2.67,0,0,1,1.42.68,1.78,1.78,0,0,1,.48,1.3,2.47,2.47,0,0,1-.2,1,2.13,2.13,0,0,1-.59.78,2.85,2.85,0,0,1-1,.5,4.51,4.51,0,0,1-1.28.17Zm1.17-4.74h1.53a3,3,0,0,0,.85-.11,1.69,1.69,0,0,0,.6-.3,1.08,1.08,0,0,0,.35-.47,1.45,1.45,0,0,0,.12-.59,1.32,1.32,0,0,0-.46-1.11,2.28,2.28,0,0,0-1.42-.36h-1.57Zm0,.83v3h1.86a3,3,0,0,0,.85-.11,1.68,1.68,0,0,0,.59-.33,1.21,1.21,0,0,0,.34-.49,1.8,1.8,0,0,0,.11-.62,1.29,1.29,0,0,0-.48-1.06,2.23,2.23,0,0,0-1.42-.38Z"/><path class="2a3f3ed2-0796-41b5-bc5d-2200193509a7" d="M205.44,136.34H205a.57.57,0,0,1-.25,0,.27.27,0,0,1-.13-.21l-.12-.56c-.16.14-.32.27-.47.38a2.36,2.36,0,0,1-.48.29,2.45,2.45,0,0,1-.54.18,3.06,3.06,0,0,1-.63.06,2,2,0,0,1-.66-.1,1.41,1.41,0,0,1-.9-.8,1.74,1.74,0,0,1-.14-.72,1.34,1.34,0,0,1,.2-.69,1.7,1.7,0,0,1,.64-.6,4.22,4.22,0,0,1,1.15-.42,7.91,7.91,0,0,1,1.75-.17v-.47a1.66,1.66,0,0,0-.3-1.08,1.08,1.08,0,0,0-.9-.37,2.08,2.08,0,0,0-.66.1,3.3,3.3,0,0,0-.46.22l-.33.22a.48.48,0,0,1-.28.1.38.38,0,0,1-.19,0,.43.43,0,0,1-.13-.14l-.19-.35a3.4,3.4,0,0,1,1.08-.72,3.37,3.37,0,0,1,1.29-.24,2.17,2.17,0,0,1,.91.17,1.74,1.74,0,0,1,.66.46,1.87,1.87,0,0,1,.41.73,3.09,3.09,0,0,1,.14.94Zm-2.77-.65a2,2,0,0,0,.51-.06,1.72,1.72,0,0,0,.45-.16,2.34,2.34,0,0,0,.39-.25,3,3,0,0,0,.37-.35v-1.25a7.37,7.37,0,0,0-1.25.09,3.7,3.7,0,0,0-.84.25,1.13,1.13,0,0,0-.47.35.77.77,0,0,0-.15.46,1.08,1.08,0,0,0,.08.42.78.78,0,0,0,.21.29,1,1,0,0,0,.31.16A1.6,1.6,0,0,0,202.67,135.69Z"/><path class="2a3f3ed2-0796-41b5-bc5d-2200193509a7" d="M208.25,127.51v8.83h-1.07v-8.83Z"/><path class="2a3f3ed2-0796-41b5-bc5d-2200193509a7" d="M211.32,127.51v8.83h-1.07v-8.83Z"/><path class="2a3f3ed2-0796-41b5-bc5d-2200193509a7" d="M215.25,130.16a2.94,2.94,0,0,1,.74.09,2.2,2.2,0,0,1,.63.26h1.65v.39c0,.13-.09.22-.25.25l-.69.1a1.92,1.92,0,0,1,.2.87,2,2,0,0,1-.17.81,1.79,1.79,0,0,1-.47.62,2.28,2.28,0,0,1-.72.39,2.73,2.73,0,0,1-.92.14,3,3,0,0,1-.8-.1.85.85,0,0,0-.29.27.44.44,0,0,0-.1.28.36.36,0,0,0,.17.33,1.13,1.13,0,0,0,.46.17,4.33,4.33,0,0,0,.66.05h.74a4.56,4.56,0,0,1,.75.06,2.49,2.49,0,0,1,.65.22,1.19,1.19,0,0,1,.47.42,1.31,1.31,0,0,1,.17.69,1.62,1.62,0,0,1-.19.77,2,2,0,0,1-.57.66,2.77,2.77,0,0,1-.89.46,3.68,3.68,0,0,1-1.19.17,4.5,4.5,0,0,1-1.17-.13,2.77,2.77,0,0,1-.83-.35,1.54,1.54,0,0,1-.5-.52,1.18,1.18,0,0,1-.16-.61,1.08,1.08,0,0,1,.28-.76,1.89,1.89,0,0,1,.79-.5,1,1,0,0,1-.41-.32.85.85,0,0,1-.16-.54.86.86,0,0,1,.05-.27.85.85,0,0,1,.15-.28,1.16,1.16,0,0,1,.24-.26,1.69,1.69,0,0,1,.34-.23,1.88,1.88,0,0,1-.71-.66,1.86,1.86,0,0,1-.25-1,1.81,1.81,0,0,1,.17-.81,1.7,1.7,0,0,1,.48-.62,2.08,2.08,0,0,1,.72-.39A3.07,3.07,0,0,1,215.25,130.16Zm1.9,6.49a.55.55,0,0,0-.13-.37.75.75,0,0,0-.34-.22,2.31,2.31,0,0,0-.5-.11,3.81,3.81,0,0,0-.59,0H215a2.11,2.11,0,0,1-.62-.08,1.66,1.66,0,0,0-.55.4.8.8,0,0,0-.22.56.76.76,0,0,0,.11.38.85.85,0,0,0,.32.3,1.9,1.9,0,0,0,.54.21,3.58,3.58,0,0,0,.78.07,3.09,3.09,0,0,0,.77-.08,1.8,1.8,0,0,0,.58-.22,1.1,1.1,0,0,0,.36-.35A.87.87,0,0,0,217.15,136.65Zm-1.9-3.28a1.62,1.62,0,0,0,.57-.09,1.09,1.09,0,0,0,.42-.25.94.94,0,0,0,.25-.39,1.3,1.3,0,0,0,.09-.49,1.21,1.21,0,0,0-.34-.89,1.38,1.38,0,0,0-1-.33,1.35,1.35,0,0,0-1,.33,1.18,1.18,0,0,0-.34.89,1.3,1.3,0,0,0,.09.49,1,1,0,0,0,.25.39,1.17,1.17,0,0,0,.42.25A1.6,1.6,0,0,0,215.25,133.37Z"/><path class="2a3f3ed2-0796-41b5-bc5d-2200193509a7" d="M221.8,130.17a3.09,3.09,0,0,1,1.2.22,2.56,2.56,0,0,1,.91.63,2.85,2.85,0,0,1,.58,1,4,4,0,0,1,.2,1.29,4.08,4.08,0,0,1-.2,1.3,2.9,2.9,0,0,1-.58,1,2.56,2.56,0,0,1-.91.63,3.41,3.41,0,0,1-2.41,0,2.65,2.65,0,0,1-.91-.63,2.74,2.74,0,0,1-.58-1,3.81,3.81,0,0,1-.21-1.3,3.75,3.75,0,0,1,.21-1.29,2.7,2.7,0,0,1,.58-1,2.65,2.65,0,0,1,.91-.63A3.11,3.11,0,0,1,221.8,130.17Zm0,5.42a1.56,1.56,0,0,0,1.34-.6,3.45,3.45,0,0,0,0-3.37,1.54,1.54,0,0,0-1.34-.61,1.81,1.81,0,0,0-.8.16,1.44,1.44,0,0,0-.56.45,1.84,1.84,0,0,0-.33.72,3.64,3.64,0,0,0-.11,1,3.52,3.52,0,0,0,.11,1,1.84,1.84,0,0,0,.33.72,1.64,1.64,0,0,0,.56.45A2,2,0,0,0,221.8,135.59Z"/><path class="2a3f3ed2-0796-41b5-bc5d-2200193509a7" d="M225.22,130.27h.84a.35.35,0,0,1,.21.06.36.36,0,0,1,.12.16l1.16,3.91.09.42c0,.13.05.27.07.4,0-.13.07-.27.11-.4s.08-.28.13-.42l1.28-3.94a.33.33,0,0,1,.11-.15.28.28,0,0,1,.18-.06H230a.29.29,0,0,1,.19.06.27.27,0,0,1,.11.15l1.26,3.94c0,.14.08.28.11.41s.07.27.1.41c0-.14.05-.27.08-.42s.07-.28.1-.4l1.19-3.91a.31.31,0,0,1,.11-.16.36.36,0,0,1,.2-.06h.81l-2,6.07h-.85c-.1,0-.17-.06-.21-.2L229.87,132c0-.09-.06-.19-.08-.28l-.06-.28-.06.28a2.29,2.29,0,0,1-.07.28l-1.37,4.12a.23.23,0,0,1-.24.2h-.81Z"/><path class="2a3f3ed2-0796-41b5-bc5d-2200193509a7" d="M235.2,136.34v-6.07h.64a.26.26,0,0,1,.28.22l.09.66a3.48,3.48,0,0,1,.88-.71,2.33,2.33,0,0,1,1.13-.27,2,2,0,0,1,.88.17,1.57,1.57,0,0,1,.64.46,2.22,2.22,0,0,1,.39.73,3.5,3.5,0,0,1,.13.94v3.87h-1.07v-3.87a1.64,1.64,0,0,0-.31-1.07,1.21,1.21,0,0,0-1-.38,1.81,1.81,0,0,0-.88.23,2.76,2.76,0,0,0-.76.62v4.47Z"/><path class="2a3f3ed2-0796-41b5-bc5d-2200193509a7" d="M265.27,10.25v.94h-4.12v3h3.53v1h-3.53v3.69H260V10.25Z"/><path class="2a3f3ed2-0796-41b5-bc5d-2200193509a7" d="M271.06,18.84h-.47a.6.6,0,0,1-.25,0,.27.27,0,0,1-.13-.21l-.12-.56a5.22,5.22,0,0,1-.47.38,2.36,2.36,0,0,1-.48.29,2.21,2.21,0,0,1-.53.18,3.1,3.1,0,0,1-.64.06,2.07,2.07,0,0,1-.66-.1,1.78,1.78,0,0,1-.54-.3,1.43,1.43,0,0,1-.36-.5,1.75,1.75,0,0,1-.13-.72,1.39,1.39,0,0,1,.19-.7,1.84,1.84,0,0,1,.64-.59,4.3,4.3,0,0,1,1.16-.42,7.81,7.81,0,0,1,1.74-.17V15a1.64,1.64,0,0,0-.3-1.07,1.08,1.08,0,0,0-.9-.37,1.81,1.81,0,0,0-.65.1,2.83,2.83,0,0,0-.46.22l-.34.22a.46.46,0,0,1-.28.1.41.41,0,0,1-.19-.05.57.57,0,0,1-.13-.14l-.19-.35a3.56,3.56,0,0,1,1.09-.72,3.3,3.3,0,0,1,1.29-.24,2.13,2.13,0,0,1,.9.17,1.78,1.78,0,0,1,.67.46,2.16,2.16,0,0,1,.41.73,3.1,3.1,0,0,1,.13.94Zm-2.77-.65a2.12,2.12,0,0,0,.52-.06,2.09,2.09,0,0,0,.44-.16,2.42,2.42,0,0,0,.4-.25,3.91,3.91,0,0,0,.36-.35V16.12a7.37,7.37,0,0,0-1.25.09,4,4,0,0,0-.84.25,1.2,1.2,0,0,0-.47.35.77.77,0,0,0-.15.46,1.08,1.08,0,0,0,.08.42.78.78,0,0,0,.21.29,1,1,0,0,0,.31.16A1.6,1.6,0,0,0,268.29,18.19Z"/><path class="2a3f3ed2-0796-41b5-bc5d-2200193509a7" d="M276.16,13.77a.22.22,0,0,1-.22.13.35.35,0,0,1-.2-.07l-.28-.14a1.76,1.76,0,0,0-.39-.15,1.81,1.81,0,0,0-.54-.07,1.49,1.49,0,0,0-.49.07,1.08,1.08,0,0,0-.37.19.83.83,0,0,0-.23.27.72.72,0,0,0-.08.35.56.56,0,0,0,.13.39,1.3,1.3,0,0,0,.36.27,2.89,2.89,0,0,0,.5.2l.58.19a5.77,5.77,0,0,1,.58.22,1.9,1.9,0,0,1,.5.3,1.29,1.29,0,0,1,.36.44,1.32,1.32,0,0,1,.14.62,2,2,0,0,1-.15.78,1.71,1.71,0,0,1-.45.62,2.09,2.09,0,0,1-.72.41,2.93,2.93,0,0,1-1,.15,3,3,0,0,1-1.15-.21,2.83,2.83,0,0,1-.88-.53l.25-.41a.34.34,0,0,1,.12-.12.39.39,0,0,1,.17,0,.4.4,0,0,1,.23.09l.29.18a2.26,2.26,0,0,0,.41.19,2.15,2.15,0,0,0,.61.08,1.82,1.82,0,0,0,.55-.08,1.13,1.13,0,0,0,.39-.22.9.9,0,0,0,.23-.32,1,1,0,0,0,.07-.38.64.64,0,0,0-.13-.42,1.15,1.15,0,0,0-.36-.28,2.27,2.27,0,0,0-.5-.2l-.59-.19a4.58,4.58,0,0,1-.58-.22,2.14,2.14,0,0,1-.51-.3,1.6,1.6,0,0,1-.35-.46,1.54,1.54,0,0,1-.14-.67,1.59,1.59,0,0,1,.15-.67,1.5,1.5,0,0,1,.42-.56,2.19,2.19,0,0,1,.67-.39,2.91,2.91,0,0,1,.92-.14,2.85,2.85,0,0,1,1.08.19,2.39,2.39,0,0,1,.82.52Z"/><path class="2a3f3ed2-0796-41b5-bc5d-2200193509a7" d="M279.73,18.94a1.44,1.44,0,0,1-1.1-.4,1.61,1.61,0,0,1-.39-1.16V13.66h-.73a.21.21,0,0,1-.16-.06.19.19,0,0,1-.07-.17V13l1-.13.24-1.87a.28.28,0,0,1,.08-.15.24.24,0,0,1,.17-.06h.54v2.1h1.74v.77h-1.74v3.65a.81.81,0,0,0,.18.57.68.68,0,0,0,.48.18.91.91,0,0,0,.3,0,1,1,0,0,0,.21-.1l.15-.1a.19.19,0,0,1,.11,0,.17.17,0,0,1,.15.1l.31.51a2,2,0,0,1-.66.4A2.24,2.24,0,0,1,279.73,18.94Z"/><path class="2a3f3ed2-0796-41b5-bc5d-2200193509a7" d="M290.52,14.55a5.34,5.34,0,0,1-.12,1.15,4.41,4.41,0,0,1-.36,1,3.51,3.51,0,0,1-.57.85,3.67,3.67,0,0,1-.75.67l2.2,2.38h-1a1.12,1.12,0,0,1-.38-.06.85.85,0,0,1-.31-.21l-1.51-1.64a5.25,5.25,0,0,1-.71.16,4.72,4.72,0,0,1-.77.06,4.41,4.41,0,0,1-1.73-.32,3.86,3.86,0,0,1-1.34-.9,4,4,0,0,1-.86-1.39,5.24,5.24,0,0,1,0-3.55,4.12,4.12,0,0,1,.86-1.39,4,4,0,0,1,1.34-.91,4.84,4.84,0,0,1,3.46,0,3.93,3.93,0,0,1,1.34.91,4.31,4.31,0,0,1,.87,1.39A5.08,5.08,0,0,1,290.52,14.55Zm-1.19,0a4.19,4.19,0,0,0-.22-1.42,3,3,0,0,0-.61-1.07,2.64,2.64,0,0,0-1-.67,3.4,3.4,0,0,0-1.26-.23,3.31,3.31,0,0,0-1.25.23,2.76,2.76,0,0,0-1,.67,3,3,0,0,0-.61,1.07,4.19,4.19,0,0,0-.22,1.42,4.19,4.19,0,0,0,.22,1.42,3.07,3.07,0,0,0,.61,1.06,2.62,2.62,0,0,0,1,.66,3.13,3.13,0,0,0,1.25.24,3.22,3.22,0,0,0,1.26-.24,2.5,2.5,0,0,0,1-.66,3.07,3.07,0,0,0,.61-1.06A4.19,4.19,0,0,0,289.33,14.55Z"/><path class="2a3f3ed2-0796-41b5-bc5d-2200193509a7" d="M252.9,70.58V59.65h2.21v.42a.28.28,0,0,1-.08.2.33.33,0,0,1-.22.08h-1v9.52h1a.32.32,0,0,1,.22.07.31.31,0,0,1,.08.22v.42Z"/><path class="2a3f3ed2-0796-41b5-bc5d-2200193509a7" d="M258,64h.44a1.15,1.15,0,0,0,.36-.05.79.79,0,0,0,.26-.2l2.86-3.24a.9.9,0,0,1,.25-.21.76.76,0,0,1,.32-.06h1L260.17,64l-.23.23a1.11,1.11,0,0,1-.24.16.75.75,0,0,1,.29.16,2.28,2.28,0,0,1,.27.27l3.42,4.07h-1.2l-.14,0a.39.39,0,0,1-.1-.08.94.94,0,0,1-.1-.1l-3-3.42-.12-.12-.13-.09-.18,0H258v3.93h-1.16V60.25H258Z"/><path class="2a3f3ed2-0796-41b5-bc5d-2200193509a7" d="M269.16,68.84h-.47a.65.65,0,0,1-.26,0,.29.29,0,0,1-.12-.21l-.12-.56c-.16.14-.32.27-.47.38a2.36,2.36,0,0,1-.48.29,2.45,2.45,0,0,1-.54.18,3.06,3.06,0,0,1-.63.06,2,2,0,0,1-.66-.1,1.57,1.57,0,0,1-.54-.3,1.43,1.43,0,0,1-.36-.5,1.74,1.74,0,0,1-.14-.72,1.41,1.41,0,0,1,.2-.7,1.76,1.76,0,0,1,.64-.59,4.22,4.22,0,0,1,1.15-.42,7.91,7.91,0,0,1,1.75-.17V65a1.64,1.64,0,0,0-.3-1.07,1.08,1.08,0,0,0-.9-.37,1.83,1.83,0,0,0-.66.1,3.3,3.3,0,0,0-.46.22l-.33.22a.48.48,0,0,1-.28.1.36.36,0,0,1-.19,0,.43.43,0,0,1-.13-.14l-.19-.35a3.4,3.4,0,0,1,1.08-.72,3.37,3.37,0,0,1,1.29-.24,2.21,2.21,0,0,1,.91.17,1.83,1.83,0,0,1,.66.46A2,2,0,0,1,269,64a3.09,3.09,0,0,1,.14.94Zm-2.77-.65a2,2,0,0,0,.51-.06,2.18,2.18,0,0,0,.45-.16,2.34,2.34,0,0,0,.39-.25,3,3,0,0,0,.37-.35V66.12a7.37,7.37,0,0,0-1.25.09,3.7,3.7,0,0,0-.84.25,1.13,1.13,0,0,0-.47.35.77.77,0,0,0-.15.46.93.93,0,0,0,.08.42.78.78,0,0,0,.21.29.91.91,0,0,0,.31.16A1.6,1.6,0,0,0,266.39,68.19Z"/><path class="2a3f3ed2-0796-41b5-bc5d-2200193509a7" d="M272,60v8.83H270.9V60Z"/><path class="2a3f3ed2-0796-41b5-bc5d-2200193509a7" d="M275,60v8.83H274V60Z"/><path class="2a3f3ed2-0796-41b5-bc5d-2200193509a7" d="M278.35,60.86a.72.72,0,0,1-.06.29.81.81,0,0,1-.17.24.78.78,0,0,1-.24.16.73.73,0,0,1-.3.06.72.72,0,0,1-.29-.06.74.74,0,0,1-.4-.4.72.72,0,0,1-.06-.29.73.73,0,0,1,.06-.3.82.82,0,0,1,.16-.25.78.78,0,0,1,.24-.16.72.72,0,0,1,.29-.06.73.73,0,0,1,.3.06.78.78,0,0,1,.24.16.85.85,0,0,1,.17.25A.73.73,0,0,1,278.35,60.86Zm-.24,1.91v6.07H277V62.77Z"/><path class="2a3f3ed2-0796-41b5-bc5d-2200193509a7" d="M283.48,63.77a.25.25,0,0,1-.23.13.37.37,0,0,1-.2-.07l-.28-.14a1.76,1.76,0,0,0-.39-.15,1.73,1.73,0,0,0-.54-.07,1.53,1.53,0,0,0-.49.07,1.08,1.08,0,0,0-.37.19.83.83,0,0,0-.23.27.72.72,0,0,0-.08.35.56.56,0,0,0,.13.39,1.3,1.3,0,0,0,.36.27,3.26,3.26,0,0,0,.5.2l.58.19a5.77,5.77,0,0,1,.58.22,2.14,2.14,0,0,1,.51.3,1.39,1.39,0,0,1,.35.44,1.32,1.32,0,0,1,.14.62,2,2,0,0,1-.15.78,1.71,1.71,0,0,1-.45.62,2.09,2.09,0,0,1-.72.41,2.93,2.93,0,0,1-1,.15,3,3,0,0,1-1.15-.21,2.83,2.83,0,0,1-.88-.53l.25-.41a.46.46,0,0,1,.12-.12.39.39,0,0,1,.17,0,.4.4,0,0,1,.23.09l.29.18a2.09,2.09,0,0,0,.42.19,2,2,0,0,0,.6.08,1.82,1.82,0,0,0,.55-.08,1,1,0,0,0,.39-.22.9.9,0,0,0,.23-.32,1,1,0,0,0,.08-.38.64.64,0,0,0-.14-.42,1.15,1.15,0,0,0-.36-.28,2.09,2.09,0,0,0-.5-.2l-.59-.19a4.58,4.58,0,0,1-.58-.22,1.9,1.9,0,0,1-.5-.3,1.47,1.47,0,0,1-.36-.46,1.54,1.54,0,0,1-.14-.67,1.59,1.59,0,0,1,.15-.67,1.5,1.5,0,0,1,.42-.56,2.13,2.13,0,0,1,.68-.39,2.81,2.81,0,0,1,.91-.14,2.85,2.85,0,0,1,1.08.19,2.54,2.54,0,0,1,.83.52Z"/><path class="2a3f3ed2-0796-41b5-bc5d-2200193509a7" d="M287.05,68.94a1.47,1.47,0,0,1-1.11-.4,1.61,1.61,0,0,1-.39-1.16V63.66h-.73a.23.23,0,0,1-.16-.06.19.19,0,0,1-.07-.17V63l1-.13.24-1.87a.28.28,0,0,1,.08-.15.25.25,0,0,1,.17-.06h.54v2.1h1.74v.77h-1.74v3.65a.77.77,0,0,0,.19.57.65.65,0,0,0,.48.18.88.88,0,0,0,.29,0,1,1,0,0,0,.21-.1l.15-.1a.19.19,0,0,1,.11,0,.17.17,0,0,1,.15.1l.32.51a2.13,2.13,0,0,1-.67.4A2.22,2.22,0,0,1,287.05,68.94Z"/><path class="2a3f3ed2-0796-41b5-bc5d-2200193509a7" d="M292.14,62.67a3.09,3.09,0,0,1,1.2.22,2.6,2.6,0,0,1,.92.63,2.68,2.68,0,0,1,.57,1,3.76,3.76,0,0,1,.2,1.29,3.82,3.82,0,0,1-.2,1.3,2.72,2.72,0,0,1-.57,1,2.6,2.6,0,0,1-.92.63,3.29,3.29,0,0,1-1.2.22,3.25,3.25,0,0,1-1.2-.22,2.6,2.6,0,0,1-.92-.63,2.9,2.9,0,0,1-.58-1,3.82,3.82,0,0,1-.2-1.3,3.76,3.76,0,0,1,.2-1.29,2.85,2.85,0,0,1,.58-1,2.6,2.6,0,0,1,.92-.63A3.06,3.06,0,0,1,292.14,62.67Zm0,5.42a1.55,1.55,0,0,0,1.34-.6,3.38,3.38,0,0,0,0-3.37,1.53,1.53,0,0,0-1.34-.61,1.77,1.77,0,0,0-.79.16,1.37,1.37,0,0,0-.56.45,1.85,1.85,0,0,0-.34.72,4,4,0,0,0-.11,1,4,4,0,0,0,.11,1,1.85,1.85,0,0,0,.34.72,1.55,1.55,0,0,0,.56.45A1.92,1.92,0,0,0,292.14,68.09Z"/><path class="2a3f3ed2-0796-41b5-bc5d-2200193509a7" d="M296.44,69a.6.6,0,0,1-.25.31.61.61,0,0,1-.34.1h-.45l3.61-9a.66.66,0,0,1,.22-.29.57.57,0,0,1,.34-.1H300Z"/><path class="2a3f3ed2-0796-41b5-bc5d-2200193509a7" d="M260.29,76a.29.29,0,0,1-.11.13.21.21,0,0,1-.16,0,.38.38,0,0,1-.23-.1c-.09-.07-.21-.14-.35-.23a2.85,2.85,0,0,0-.49-.22,2.13,2.13,0,0,0-.71-.1,2.09,2.09,0,0,0-.69.1,1.43,1.43,0,0,0-.5.29,1.12,1.12,0,0,0-.3.42,1.31,1.31,0,0,0-.11.52,1,1,0,0,0,.18.6,1.72,1.72,0,0,0,.47.41,3.36,3.36,0,0,0,.66.29l.76.25c.25.09.51.19.75.3a2.48,2.48,0,0,1,.66.42,1.78,1.78,0,0,1,.47.61,2.06,2.06,0,0,1,.18.9,2.86,2.86,0,0,1-.2,1.06,2.25,2.25,0,0,1-.56.86,2.45,2.45,0,0,1-.9.58,3.36,3.36,0,0,1-1.22.21,3.72,3.72,0,0,1-1.52-.3,3.84,3.84,0,0,1-1.18-.82l.34-.55a.25.25,0,0,1,.12-.11.2.2,0,0,1,.15,0,.56.56,0,0,1,.29.13,3.36,3.36,0,0,0,1,.6,2.32,2.32,0,0,0,.84.13,2.13,2.13,0,0,0,.74-.11,1.56,1.56,0,0,0,.55-.32,1.5,1.5,0,0,0,.35-.5,1.62,1.62,0,0,0,.12-.64,1.08,1.08,0,0,0-.18-.64,1.56,1.56,0,0,0-.47-.41,3,3,0,0,0-.65-.29l-.76-.24c-.26-.08-.51-.18-.76-.28a2.59,2.59,0,0,1-.65-.42,1.94,1.94,0,0,1-.47-.65,2.44,2.44,0,0,1,0-1.84,2.25,2.25,0,0,1,.52-.75,2.42,2.42,0,0,1,.83-.53,3,3,0,0,1,1.13-.2,3.73,3.73,0,0,1,1.32.23,2.94,2.94,0,0,1,1,.66Z"/><path class="2a3f3ed2-0796-41b5-bc5d-2200193509a7" d="M266.54,83.24h-.47a.6.6,0,0,1-.25,0,.27.27,0,0,1-.13-.21l-.12-.56a5.22,5.22,0,0,1-.47.38,2.36,2.36,0,0,1-.48.29,2.21,2.21,0,0,1-.53.18,3.1,3.1,0,0,1-.64.06,2.07,2.07,0,0,1-.66-.1,1.59,1.59,0,0,1-.54-.3,1.43,1.43,0,0,1-.36-.5,1.75,1.75,0,0,1-.13-.72A1.33,1.33,0,0,1,262,81a1.77,1.77,0,0,1,.64-.6,4.3,4.3,0,0,1,1.16-.42,7.81,7.81,0,0,1,1.74-.17v-.47a1.66,1.66,0,0,0-.3-1.08,1.08,1.08,0,0,0-.9-.37,1.78,1.78,0,0,0-.65.1,2.83,2.83,0,0,0-.46.22l-.34.23a.51.51,0,0,1-.28.09.32.32,0,0,1-.19,0,.57.57,0,0,1-.13-.14l-.19-.35a3.56,3.56,0,0,1,1.09-.72,3.3,3.3,0,0,1,1.29-.24,2.13,2.13,0,0,1,.9.17,1.78,1.78,0,0,1,.67.46,2.16,2.16,0,0,1,.41.73,3.1,3.1,0,0,1,.13.94Zm-2.77-.65a2.12,2.12,0,0,0,.52-.06,2.32,2.32,0,0,0,.44-.16,2.42,2.42,0,0,0,.4-.25,3.91,3.91,0,0,0,.36-.35V80.52a7.37,7.37,0,0,0-1.25.09,4,4,0,0,0-.84.25,1.2,1.2,0,0,0-.47.35.77.77,0,0,0-.15.46,1.08,1.08,0,0,0,.08.42.78.78,0,0,0,.21.29,1,1,0,0,0,.31.16A1.6,1.6,0,0,0,263.77,82.59Z"/><path class="2a3f3ed2-0796-41b5-bc5d-2200193509a7" d="M269.35,74.41v8.83h-1.07V74.41Z"/><path class="2a3f3ed2-0796-41b5-bc5d-2200193509a7" d="M271.24,83.24V77.17h.63a.27.27,0,0,1,.29.22l.08.62a3.21,3.21,0,0,1,.75-.68,1.83,1.83,0,0,1,1-.26,1.43,1.43,0,0,1,1,.34,2,2,0,0,1,.55.93,1.88,1.88,0,0,1,.8-1,2.06,2.06,0,0,1,.55-.23,2.32,2.32,0,0,1,.59-.07,2.26,2.26,0,0,1,.85.15,1.81,1.81,0,0,1,.64.45,2.28,2.28,0,0,1,.4.72,3.32,3.32,0,0,1,.13,1v3.87h-1.06V79.37a1.64,1.64,0,0,0-.32-1.08,1.09,1.09,0,0,0-.9-.37,1.39,1.39,0,0,0-.5.09,1.34,1.34,0,0,0-.42.28,1.28,1.28,0,0,0-.28.45,1.73,1.73,0,0,0-.11.63v3.87h-1.07V79.37a1.75,1.75,0,0,0-.29-1.09,1,1,0,0,0-.86-.36,1.28,1.28,0,0,0-.73.22,2.4,2.4,0,0,0-.63.57v4.53Z"/><path class="2a3f3ed2-0796-41b5-bc5d-2200193509a7" d="M283.55,77.07a3.09,3.09,0,0,1,1.2.22,2.56,2.56,0,0,1,.91.63,2.7,2.7,0,0,1,.58,1,4.29,4.29,0,0,1,0,2.59,2.74,2.74,0,0,1-.58,1,2.56,2.56,0,0,1-.91.63,3.29,3.29,0,0,1-1.2.22,3.21,3.21,0,0,1-1.2-.22,2.6,2.6,0,0,1-.92-.63,2.74,2.74,0,0,1-.58-1,4.1,4.1,0,0,1,0-2.59,2.7,2.7,0,0,1,.58-1,2.6,2.6,0,0,1,.92-.63A3,3,0,0,1,283.55,77.07Zm0,5.42a1.55,1.55,0,0,0,1.34-.6,3.38,3.38,0,0,0,0-3.37,1.53,1.53,0,0,0-1.34-.61,1.74,1.74,0,0,0-.79.16,1.37,1.37,0,0,0-.56.45,1.85,1.85,0,0,0-.34.72,4.11,4.11,0,0,0-.11,1,4,4,0,0,0,.11,1,1.85,1.85,0,0,0,.34.72,1.55,1.55,0,0,0,.56.45A1.89,1.89,0,0,0,283.55,82.49Z"/><path class="2a3f3ed2-0796-41b5-bc5d-2200193509a7" d="M287.76,83.24V77.17h.64a.26.26,0,0,1,.28.22l.09.66a3.48,3.48,0,0,1,.88-.71,2.33,2.33,0,0,1,1.13-.27,2,2,0,0,1,.88.17,1.67,1.67,0,0,1,.64.46,2.22,2.22,0,0,1,.39.73,3.5,3.5,0,0,1,.13.94v3.87h-1.07V79.37a1.59,1.59,0,0,0-.32-1.07,1.19,1.19,0,0,0-1-.38,1.81,1.81,0,0,0-.88.23,2.76,2.76,0,0,0-.76.62v4.47Z"/><path class="2a3f3ed2-0796-41b5-bc5d-2200193509a7" d="M294.1,84.56a.28.28,0,0,1,.08-.21.29.29,0,0,1,.21-.08h1V74.75h-1a.29.29,0,0,1-.21-.08.26.26,0,0,1-.08-.2v-.42h2.2V85h-2.2Z"/><path class="2a3f3ed2-0796-41b5-bc5d-2200193509a7" d="M264.35,129.09a.51.51,0,0,1-.12.13.2.2,0,0,1-.15.05.4.4,0,0,1-.24-.1l-.34-.23a3.39,3.39,0,0,0-.5-.22,2.13,2.13,0,0,0-.71-.1,2.09,2.09,0,0,0-.69.1,1.53,1.53,0,0,0-.5.29,1.25,1.25,0,0,0-.3.42,1.3,1.3,0,0,0-.1.52,1,1,0,0,0,.17.6,1.72,1.72,0,0,0,.47.41,4,4,0,0,0,.66.29l.76.25q.39.13.75.3a2.48,2.48,0,0,1,.66.42,1.78,1.78,0,0,1,.47.61,2.06,2.06,0,0,1,.18.9,2.85,2.85,0,0,1-.19,1.06,2.51,2.51,0,0,1-.56.86,2.58,2.58,0,0,1-.91.58,3.36,3.36,0,0,1-1.22.21,3.75,3.75,0,0,1-1.52-.3,3.68,3.68,0,0,1-1.17-.82l.33-.55a.34.34,0,0,1,.12-.12.26.26,0,0,1,.15,0,.48.48,0,0,1,.29.13,3.77,3.77,0,0,0,.4.3,3.24,3.24,0,0,0,.59.3,2.32,2.32,0,0,0,.84.13,2.1,2.1,0,0,0,.74-.11,1.56,1.56,0,0,0,.55-.32,1.37,1.37,0,0,0,.35-.5,1.62,1.62,0,0,0,.12-.64,1.08,1.08,0,0,0-.18-.64,1.52,1.52,0,0,0-.46-.41,3.29,3.29,0,0,0-.66-.29l-.76-.24c-.26-.08-.51-.18-.75-.28a2.48,2.48,0,0,1-.66-.42,2.09,2.09,0,0,1-.47-.65,2.57,2.57,0,0,1,0-1.84,2.25,2.25,0,0,1,.52-.75,2.42,2.42,0,0,1,.83-.53,3.08,3.08,0,0,1,1.13-.2,3.69,3.69,0,0,1,1.32.23,3.07,3.07,0,0,1,1,.66Z"/><path class="2a3f3ed2-0796-41b5-bc5d-2200193509a7" d="M267.32,127.51v8.83h-1.07v-8.83Z"/><path class="2a3f3ed2-0796-41b5-bc5d-2200193509a7" d="M271.61,130.17a2.79,2.79,0,0,1,1,.18,2.28,2.28,0,0,1,.8.53,2.34,2.34,0,0,1,.52.85,3.25,3.25,0,0,1,.19,1.16.74.74,0,0,1-.05.33.23.23,0,0,1-.21.09h-4a3.63,3.63,0,0,0,.15,1,2.12,2.12,0,0,0,.4.71,1.7,1.7,0,0,0,.6.43,2.13,2.13,0,0,0,.78.14,2,2,0,0,0,.69-.1,2.36,2.36,0,0,0,.5-.2,3.61,3.61,0,0,0,.36-.2.45.45,0,0,1,.24-.09.22.22,0,0,1,.2.1l.3.39a2.11,2.11,0,0,1-.47.42,3.23,3.23,0,0,1-.59.29,3.66,3.66,0,0,1-.65.17,3.88,3.88,0,0,1-.67.06,3.11,3.11,0,0,1-1.16-.21,2.79,2.79,0,0,1-.92-.63,2.71,2.71,0,0,1-.6-1,4.18,4.18,0,0,1-.22-1.39A3.58,3.58,0,0,1,269,132a2.75,2.75,0,0,1,.56-1,2.64,2.64,0,0,1,.89-.64A3,3,0,0,1,271.61,130.17Zm0,.79a1.62,1.62,0,0,0-1.22.44,2.14,2.14,0,0,0-.56,1.24h3.31a2.11,2.11,0,0,0-.1-.68,1.62,1.62,0,0,0-.3-.53,1.3,1.3,0,0,0-.48-.35A1.67,1.67,0,0,0,271.64,131Z"/><path class="2a3f3ed2-0796-41b5-bc5d-2200193509a7" d="M276.42,130.27v3.87a1.63,1.63,0,0,0,.31,1.07,1.21,1.21,0,0,0,1,.38,2,2,0,0,0,.89-.22,2.92,2.92,0,0,0,.76-.62v-4.48h1.07v6.07h-.64a.27.27,0,0,1-.29-.22l-.08-.65a3.48,3.48,0,0,1-.89.7,2.3,2.3,0,0,1-1.13.27,2.06,2.06,0,0,1-.88-.17,1.84,1.84,0,0,1-.64-.46,1.88,1.88,0,0,1-.38-.73,3.05,3.05,0,0,1-.13-.94v-3.87Z"/><path class="2a3f3ed2-0796-41b5-bc5d-2200193509a7" d="M284,136.44a1.47,1.47,0,0,1-1.11-.4,1.61,1.61,0,0,1-.39-1.16v-3.72h-.73a.23.23,0,0,1-.16-.06.19.19,0,0,1-.07-.17v-.43l1-.13.24-1.87a.28.28,0,0,1,.08-.15.25.25,0,0,1,.17-.06h.54v2.1h1.74v.77h-1.74v3.65a.77.77,0,0,0,.19.57.65.65,0,0,0,.48.18.85.85,0,0,0,.29,0,1,1,0,0,0,.21-.1l.15-.1a.21.21,0,0,1,.11,0,.17.17,0,0,1,.15.1l.32.51a2.13,2.13,0,0,1-.67.4A2.22,2.22,0,0,1,284,136.44Z"/><path class="2a3f3ed2-0796-41b5-bc5d-2200193509a7" d="M286.64,136.34v-8.83h1.07v3.57a3.59,3.59,0,0,1,.86-.66,2.28,2.28,0,0,1,1.09-.25,2,2,0,0,1,.88.17,1.57,1.57,0,0,1,.64.46,2.22,2.22,0,0,1,.39.73,3.5,3.5,0,0,1,.13.94v3.87h-1.07v-3.87a1.65,1.65,0,0,0-.32-1.07,1.19,1.19,0,0,0-1-.38,1.81,1.81,0,0,0-.88.23,2.76,2.76,0,0,0-.76.62v4.47Z"/></g><g id="2cd39bd4-f4b3-485a-871c-f4657df9d277" data-name="shapes"><polygon class="2a3f3ed2-0796-41b5-bc5d-2200193509a7" points="147.75 29.35 143.33 37 138.92 29.35 147.75 29.35"/><polygon class="2a3f3ed2-0796-41b5-bc5d-2200193509a7" points="147.75 71.05 143.33 78.7 138.92 71.05 147.75 71.05"/><polygon class="2a3f3ed2-0796-41b5-bc5d-2200193509a7" points="147.75 110.72 143.33 118.37 138.92 110.72 147.75 110.72"/><polygon class="2a3f3ed2-0796-41b5-bc5d-2200193509a7" points="221.42 29.35 217 37 212.58 29.35 221.42 29.35"/><polygon class="2a3f3ed2-0796-41b5-bc5d-2200193509a7" points="221.42 71.05 217 78.7 212.58 71.05 221.42 71.05"/><polygon class="2a3f3ed2-0796-41b5-bc5d-2200193509a7" points="221.42 110.72 217 118.37 212.58 110.72 221.42 110.72"/><polygon class="2a3f3ed2-0796-41b5-bc5d-2200193509a7" points="279.42 29.35 275 37 270.58 29.35 279.42 29.35"/><polygon class="2a3f3ed2-0796-41b5-bc5d-2200193509a7" points="279.42 110.72 275 118.37 270.58 110.72 279.42 110.72"/></g></svg>