<?xml version="1.0" encoding="UTF-8"?>
<svg xmlns="http://www.w3.org/2000/svg" viewBox="0 0 306.83 174.75">
  <defs>
    <style>
      .cls-1 {
        fill: none;
      }

      .cls-2 {
        fill: #3c3c3b;
      }

      .cls-3 {
        fill: #ededed;
      }
    </style>
  </defs>
  <g id="background">
    <rect class="cls-3" x="99" y="3.17" width="88.33" height="167.79" rx="5" ry="5"/>
  </g>
  <g id="shapes">
    <polygon class="cls-2" points="147.75 29.35 143.33 37 138.92 29.35 147.75 29.35"/>
    <polygon class="cls-2" points="147.75 71.05 143.33 78.7 138.92 71.05 147.75 71.05"/>
    <polygon class="cls-2" points="147.75 110.72 143.33 118.37 138.92 110.72 147.75 110.72"/>
    <polygon class="cls-2" points="221.42 29.35 217 37 212.58 29.35 221.42 29.35"/>
    <polygon class="cls-2" points="221.42 71.05 217 78.7 212.58 71.05 221.42 71.05"/>
    <polygon class="cls-2" points="221.42 110.72 217 118.37 212.58 110.72 221.42 110.72"/>
    <polygon class="cls-2" points="279.42 29.35 275 37 270.58 29.35 279.42 29.35"/>
    <polygon class="cls-2" points="279.42 110.72 275 118.37 270.58 110.72 279.42 110.72"/>
  </g>
  <g id="text-titles">
    <g>
      <rect class="cls-1" x="9" y="10" width="81" height="29"/>
      <path class="cls-2" d="M16.6,18.88h-1.25c-.25,0-.43-.1-.54-.29l-2.02-2.91c-.07-.1-.14-.17-.22-.22s-.2-.07-.36-.07h-.78v3.48h-1.4v-8.64h2.54c.57,0,1.06.06,1.47.17.41.12.75.28,1.01.49.26.21.46.47.58.77.13.3.19.63.19,1,0,.3-.04.58-.13.84-.09.26-.22.5-.39.71s-.38.4-.63.55c-.25.16-.53.28-.85.37.17.1.32.25.44.44l2.33,3.29ZM12.53,14.38c.32,0,.6-.04.84-.12.24-.08.44-.19.6-.33.16-.14.28-.31.36-.5.08-.19.12-.41.12-.65,0-.47-.16-.83-.47-1.08s-.78-.37-1.42-.37h-1.14v3.04h1.1Z"/>
      <path class="cls-2" d="M17.95,15.92c.02.35.07.65.16.9.09.25.22.47.37.63s.34.29.55.38c.21.08.45.12.72.12s.47-.03.65-.09c.18-.06.34-.12.48-.19.14-.07.25-.13.35-.19.1-.06.18-.09.26-.09.1,0,.18.04.24.12l.37.47c-.15.18-.32.33-.52.46s-.4.23-.61.3c-.22.08-.44.13-.67.17-.23.03-.45.05-.67.05-.42,0-.82-.07-1.18-.21-.36-.14-.68-.35-.94-.63s-.47-.62-.62-1.03c-.15-.41-.23-.88-.23-1.41,0-.42.07-.82.2-1.19.13-.37.33-.69.58-.96.25-.27.55-.49.91-.65s.76-.24,1.22-.24c.38,0,.72.06,1.04.18.32.12.6.3.83.54.23.24.41.52.54.87.13.34.19.73.19,1.17,0,.2-.02.33-.07.4-.04.07-.12.1-.24.1h-3.93ZM21.02,15.13c0-.22-.03-.42-.09-.6s-.15-.35-.27-.49c-.12-.14-.27-.25-.45-.32-.18-.08-.38-.12-.61-.12-.47,0-.84.13-1.1.4s-.44.64-.51,1.13h3.04Z"/>
      <path class="cls-2" d="M23.23,13.61c.69-.64,1.52-.97,2.47-.97.35,0,.67.06.94.17s.5.27.69.48.33.46.43.74c.1.29.15.6.15.95v3.89h-.58c-.12,0-.22-.02-.28-.06-.06-.04-.12-.11-.16-.23l-.13-.5c-.16.14-.31.27-.46.38-.15.11-.31.2-.47.28-.16.08-.34.13-.52.17s-.39.06-.61.06c-.25,0-.48-.03-.69-.1s-.4-.17-.55-.31c-.16-.14-.28-.31-.37-.51s-.14-.44-.14-.72c0-.24.06-.47.19-.69.13-.22.33-.43.62-.6.29-.18.67-.33,1.15-.44.47-.12,1.06-.18,1.76-.2v-.41c0-.44-.09-.77-.28-.98-.19-.22-.46-.32-.83-.32-.25,0-.46.03-.62.09-.17.06-.31.13-.44.2-.12.07-.23.14-.33.2-.1.06-.2.09-.31.09-.09,0-.16-.02-.23-.07-.06-.05-.11-.1-.15-.17l-.23-.42ZM26.65,16.2c-.46.02-.85.05-1.16.11s-.57.13-.77.22c-.2.09-.34.2-.42.32-.09.12-.13.26-.13.41s.02.27.07.37c.05.1.11.19.19.25.08.07.18.11.29.14.11.03.23.04.36.04.34,0,.62-.06.87-.19.24-.13.48-.31.71-.55v-1.13Z"/>
      <path class="cls-2" d="M34.61,10v8.88h-.78c-.17,0-.28-.08-.33-.25l-.11-.67c-.26.3-.55.54-.87.73-.33.18-.7.28-1.14.28-.34,0-.66-.07-.94-.21-.28-.14-.52-.34-.72-.6-.2-.26-.35-.59-.46-.98-.11-.39-.17-.84-.17-1.34,0-.46.06-.88.18-1.27.12-.39.3-.73.52-1.01.23-.29.5-.51.83-.67.33-.16.69-.24,1.1-.24.36,0,.67.06.92.17s.48.27.68.48v-3.29h1.29ZM33.32,14.27c-.18-.23-.38-.39-.59-.49-.22-.09-.45-.14-.7-.14-.5,0-.9.19-1.18.55-.28.37-.43.92-.43,1.64,0,.38.03.7.1.96.06.27.16.48.28.65.12.17.27.29.44.37.17.08.37.11.58.11.33,0,.61-.07.85-.21.24-.14.46-.34.66-.6v-2.85Z"/>
      <path class="cls-2" d="M39.83,13.87c-.03.06-.07.1-.11.12s-.09.04-.15.04c-.07,0-.14-.02-.22-.06s-.17-.09-.28-.14c-.11-.05-.24-.1-.38-.14s-.32-.06-.51-.06c-.16,0-.31.02-.44.06-.13.04-.24.09-.33.16s-.16.15-.21.25c-.05.09-.07.19-.07.3,0,.14.04.26.13.36.09.1.2.18.35.25.14.07.31.13.49.19.18.06.37.12.56.18s.38.14.56.22.35.19.49.31.26.27.35.44c.09.17.13.39.13.63,0,.29-.05.55-.16.8-.1.24-.26.46-.46.64-.2.18-.45.32-.75.42-.3.1-.64.15-1.02.15-.21,0-.42-.02-.62-.06-.2-.04-.39-.09-.56-.16-.18-.07-.34-.14-.5-.24-.15-.09-.29-.19-.41-.3l.3-.49c.04-.06.08-.11.13-.14.05-.03.12-.05.2-.05s.17.03.25.08c.08.05.18.11.29.18.11.06.24.12.4.18.16.05.35.08.58.08.19,0,.36-.02.5-.07.14-.05.26-.11.35-.19.09-.08.16-.17.2-.27s.07-.21.07-.33c0-.16-.04-.28-.13-.38s-.21-.19-.35-.26c-.15-.07-.31-.14-.5-.19-.19-.06-.38-.12-.57-.18s-.38-.14-.57-.22-.35-.19-.5-.32-.26-.29-.35-.47-.13-.41-.13-.68c0-.24.05-.48.15-.7.1-.22.24-.41.43-.58.19-.17.42-.3.7-.4.28-.1.6-.15.96-.15.41,0,.79.07,1.12.2s.62.31.85.54l-.29.47Z"/>
    </g>
    <g>
      <rect class="cls-1" x="9" y="48" width="81" height="26.25"/>
      <path class="cls-2" d="M19.22,48.24v8.64h-1.24v-5.92c0-.1,0-.2,0-.31,0-.11.01-.23.03-.35l-2.78,5.13c-.11.21-.27.32-.5.32h-.2c-.23,0-.39-.11-.5-.32l-2.82-5.14c.01.12.02.23.03.35,0,.12,0,.22,0,.32v5.92h-1.24v-8.64h1.05c.12,0,.22.01.29.03.07.02.13.09.19.2l2.77,5.02c.06.12.12.23.17.36.05.12.1.25.15.38.05-.13.1-.26.15-.38s.11-.25.17-.36l2.73-5.01c.06-.11.12-.18.19-.2s.16-.03.29-.03h1.05Z"/>
      <path class="cls-2" d="M20.71,51.61c.69-.64,1.52-.97,2.47-.97.35,0,.67.06.94.17s.5.27.69.48.33.46.43.74c.1.29.15.6.15.95v3.89h-.58c-.12,0-.22-.02-.28-.06-.06-.04-.12-.11-.16-.23l-.13-.5c-.16.14-.31.27-.46.38-.15.11-.31.2-.47.28-.16.08-.34.13-.52.17s-.39.06-.61.06c-.25,0-.48-.03-.69-.1s-.4-.17-.55-.31c-.16-.14-.28-.31-.37-.51s-.14-.44-.14-.72c0-.24.06-.47.19-.69.13-.22.33-.43.62-.6.29-.18.67-.33,1.15-.44.47-.12,1.06-.18,1.76-.2v-.41c0-.44-.09-.77-.28-.98-.19-.22-.46-.32-.83-.32-.25,0-.46.03-.62.09-.17.06-.31.13-.44.2-.12.07-.23.14-.33.2-.1.06-.2.09-.31.09-.09,0-.16-.02-.23-.07-.06-.05-.11-.1-.15-.17l-.23-.42ZM24.13,54.2c-.46.02-.85.05-1.16.11s-.57.13-.77.22c-.2.09-.34.2-.42.32-.09.12-.13.26-.13.41s.02.27.07.37c.05.1.11.19.19.25.08.07.18.11.29.14.11.03.23.04.36.04.34,0,.62-.06.87-.19.24-.13.48-.31.71-.55v-1.13Z"/>
      <path class="cls-2" d="M28.12,51.65c.26-.3.55-.54.87-.73.33-.18.71-.28,1.14-.28.34,0,.66.07.94.21.28.14.52.34.72.6.2.26.35.59.47.98.11.39.17.84.17,1.34,0,.45-.06.87-.18,1.26-.12.39-.3.73-.52,1.01-.23.29-.5.51-.83.67-.32.16-.69.24-1.1.24-.36,0-.67-.06-.92-.17-.25-.12-.48-.28-.68-.48v2.6h-1.29v-8.15h.78c.18,0,.29.08.34.25l.11.64ZM28.18,55.34c.18.23.38.4.59.49.21.09.45.14.71.14.5,0,.9-.18,1.18-.55.28-.37.42-.92.42-1.64,0-.38-.03-.7-.1-.96s-.16-.48-.28-.65-.27-.29-.44-.37c-.17-.08-.37-.11-.58-.11-.33,0-.61.07-.85.21-.24.14-.46.34-.66.61v2.84Z"/>
      <path class="cls-2" d="M34.89,51.65c.26-.3.55-.54.87-.73.33-.18.71-.28,1.14-.28.34,0,.66.07.94.21.28.14.52.34.72.6.2.26.35.59.47.98.11.39.17.84.17,1.34,0,.45-.06.87-.18,1.26-.12.39-.3.73-.52,1.01-.23.29-.5.51-.83.67-.32.16-.69.24-1.1.24-.36,0-.67-.06-.92-.17-.25-.12-.48-.28-.68-.48v2.6h-1.29v-8.15h.78c.18,0,.29.08.34.25l.11.64ZM34.96,55.34c.18.23.38.4.59.49.21.09.45.14.71.14.5,0,.9-.18,1.18-.55.28-.37.42-.92.42-1.64,0-.38-.03-.7-.1-.96s-.16-.48-.28-.65-.27-.29-.44-.37c-.17-.08-.37-.11-.58-.11-.33,0-.61.07-.85.21-.24.14-.46.34-.66.61v2.84Z"/>
      <path class="cls-2" d="M42,48.91c0,.12-.02.23-.07.33s-.11.2-.19.27c-.08.08-.17.14-.28.19-.11.05-.22.07-.34.07s-.23-.02-.33-.07c-.1-.05-.19-.11-.27-.19-.08-.08-.14-.17-.18-.27s-.07-.21-.07-.33.02-.23.07-.34c.05-.1.11-.19.18-.27.08-.08.17-.14.27-.19.1-.05.21-.07.33-.07s.23.02.34.07c.11.05.2.11.28.19.08.08.14.17.19.27.05.1.07.22.07.34ZM41.78,50.76v6.12h-1.29v-6.12h1.29Z"/>
      <path class="cls-2" d="M44.62,51.57c.13-.14.27-.26.41-.37.14-.11.29-.2.45-.28s.33-.14.51-.19c.18-.04.38-.07.59-.07.34,0,.63.06.88.17.25.11.47.27.64.47.17.2.31.45.39.74s.13.6.13.94v3.89h-1.28v-3.89c0-.41-.1-.73-.29-.96s-.48-.34-.87-.34c-.29,0-.55.07-.8.2s-.48.31-.69.54v4.46h-1.29v-6.12h.78c.18,0,.29.08.34.25l.09.56Z"/>
      <path class="cls-2" d="M55.42,50.98v.48c0,.16-.1.26-.29.29l-.61.1c.1.23.16.49.16.77,0,.3-.06.57-.18.82-.12.24-.28.45-.49.62-.21.17-.46.3-.74.4-.29.09-.6.14-.94.14-.13,0-.25,0-.38-.02-.12-.01-.24-.03-.36-.06-.12.07-.2.14-.26.22-.06.08-.08.15-.08.23,0,.13.06.23.17.29.12.06.27.11.46.14.19.03.41.05.65.05.24,0,.49.02.74.04s.5.05.74.1.46.12.65.23.34.25.46.43c.12.18.17.41.17.7,0,.26-.07.52-.2.77-.13.25-.32.48-.57.67-.25.2-.56.35-.92.47-.36.12-.77.18-1.23.18s-.85-.04-1.19-.13c-.34-.09-.62-.21-.85-.36s-.39-.32-.5-.52c-.11-.2-.17-.4-.17-.61,0-.29.09-.53.27-.74.18-.2.43-.36.74-.48-.17-.08-.3-.19-.41-.33-.1-.14-.15-.32-.15-.55,0-.18.07-.37.2-.56.13-.2.33-.36.59-.5-.3-.17-.54-.39-.72-.67-.18-.28-.26-.6-.26-.98,0-.3.06-.58.18-.82.12-.24.28-.45.5-.62.21-.17.46-.3.75-.4.29-.09.61-.14.95-.14.53,0,.99.11,1.38.33h1.71ZM54.12,57.18c0-.14-.04-.24-.12-.33s-.18-.15-.31-.19c-.13-.05-.29-.08-.46-.1-.18-.02-.36-.04-.56-.05-.2,0-.4-.02-.61-.03-.21-.01-.41-.03-.6-.06-.19.1-.35.22-.47.36-.12.14-.18.3-.18.49,0,.12.03.23.09.34s.16.19.29.27c.13.08.3.14.5.18.2.04.44.07.73.07.57,0,.99-.09,1.28-.26.28-.18.43-.4.43-.68ZM52.33,53.77c.4,0,.7-.1.9-.31.2-.2.3-.47.3-.8s-.1-.6-.3-.8c-.2-.2-.5-.29-.9-.29s-.7.1-.9.29c-.2.2-.3.46-.3.8,0,.16.03.31.08.44.05.14.13.25.23.35.1.1.22.17.38.23.15.05.32.08.52.08Z"/>
    </g>
    <g>
      <rect class="cls-1" x="9" y="90.5" width="81" height="29"/>
      <path class="cls-2" d="M18.58,101.11h-1.15c-.17,0-.32-.02-.46-.07-.13-.05-.25-.13-.37-.25l-1.38-1.52c-.43.13-.9.2-1.39.2-.64,0-1.23-.11-1.76-.33-.53-.22-.98-.53-1.36-.92-.38-.39-.67-.85-.88-1.39-.21-.54-.31-1.13-.31-1.77s.1-1.23.31-1.77.5-1.01.88-1.4c.38-.39.83-.7,1.36-.92.53-.22,1.12-.33,1.76-.33s1.24.11,1.77.33c.53.22.98.53,1.36.92s.67.86.88,1.4.31,1.13.31,1.77c0,.4-.04.77-.12,1.13-.08.36-.2.69-.35,1-.15.31-.34.59-.56.85-.22.26-.47.48-.75.67l2.2,2.39ZM10.94,95.06c0,.5.07.95.2,1.34.14.4.33.73.58,1,.25.27.56.48.91.63.36.15.75.22,1.19.22s.84-.07,1.2-.22c.36-.15.66-.36.91-.63.25-.27.44-.61.58-1,.13-.4.2-.84.2-1.34s-.07-.94-.2-1.34c-.13-.4-.33-.73-.58-1.01s-.55-.49-.91-.64-.76-.22-1.2-.22-.84.07-1.19.22c-.36.15-.66.36-.91.64s-.45.61-.58,1.01c-.14.4-.2.84-.2,1.34Z"/>
      <path class="cls-2" d="M24.52,93.26v6.12h-.78c-.17,0-.28-.08-.33-.25l-.1-.57c-.13.14-.26.26-.41.37s-.29.21-.45.29c-.16.08-.33.14-.51.19-.18.04-.38.07-.58.07-.34,0-.63-.06-.89-.17s-.47-.27-.65-.47-.31-.45-.39-.74-.13-.6-.13-.95v-3.89h1.29v3.89c0,.41.09.73.28.96.19.23.48.34.87.34.28,0,.55-.07.79-.2s.48-.31.69-.54v-4.46h1.29Z"/>
      <path class="cls-2" d="M25.94,94.11c.69-.64,1.52-.97,2.47-.97.35,0,.67.06.94.17s.5.27.69.48.33.46.43.74c.1.29.15.6.15.95v3.89h-.58c-.12,0-.22-.02-.28-.06-.06-.04-.12-.11-.16-.23l-.13-.5c-.16.14-.31.26-.46.38-.15.11-.31.2-.47.28-.16.08-.34.13-.52.17s-.39.06-.61.06c-.25,0-.48-.03-.69-.1-.21-.07-.4-.17-.55-.31-.16-.14-.28-.31-.37-.51s-.14-.44-.14-.72c0-.24.06-.47.19-.69.13-.22.33-.42.62-.6.29-.18.67-.33,1.15-.44.47-.12,1.06-.18,1.76-.2v-.41c0-.44-.09-.77-.28-.98-.19-.22-.46-.32-.83-.32-.25,0-.46.03-.62.09-.17.06-.31.13-.44.2-.12.07-.23.14-.33.2-.1.06-.2.09-.31.09-.09,0-.16-.02-.23-.07-.06-.05-.11-.1-.15-.17l-.23-.42ZM29.36,96.7c-.46.02-.85.05-1.16.11-.32.06-.57.13-.77.22-.2.09-.34.2-.42.32-.09.12-.13.26-.13.41s.02.27.07.37c.05.1.11.19.19.25s.18.11.29.14c.11.03.23.04.36.04.34,0,.62-.06.87-.19.24-.13.48-.31.71-.55v-1.13Z"/>
      <path class="cls-2" d="M33.32,94.07c.13-.14.27-.26.41-.37.14-.11.29-.2.45-.28s.33-.14.51-.19c.18-.04.38-.07.59-.07.34,0,.63.06.88.17.25.11.47.27.64.47.17.2.31.45.39.74s.13.6.13.94v3.89h-1.28v-3.89c0-.41-.1-.73-.29-.96s-.48-.34-.87-.34c-.29,0-.55.07-.8.2s-.48.31-.69.54v4.46h-1.29v-6.12h.78c.18,0,.29.08.34.25l.09.56Z"/>
      <path class="cls-2" d="M44.71,99.38h-1.29v-5.11h-2.98v3.47c0,.22.05.39.16.5.11.12.25.17.43.17.1,0,.19-.01.26-.04.07-.03.13-.05.19-.08.05-.03.1-.06.13-.08s.08-.04.11-.04c.07,0,.13.04.17.12l.38.63c-.2.18-.44.31-.71.41-.27.09-.55.14-.84.14-.51,0-.9-.14-1.17-.43-.27-.29-.41-.69-.41-1.21v-3.56h-.67c-.07,0-.13-.02-.19-.07-.05-.05-.08-.12-.08-.21v-.52l.99-.14.28-1.77c.02-.07.05-.12.1-.17s.11-.06.19-.06h.66v2.01h4.27v6.04ZM44.97,91.38c0,.12-.02.23-.07.33s-.11.19-.19.27c-.08.08-.17.14-.28.19s-.22.07-.33.07-.23-.02-.33-.07-.19-.11-.27-.19c-.08-.08-.14-.17-.19-.27s-.07-.21-.07-.33.02-.23.07-.34.11-.2.19-.28c.08-.08.17-.14.27-.19s.21-.07.33-.07.23.02.33.07.2.11.28.19c.08.08.14.17.19.28s.07.22.07.34Z"/>
      <path class="cls-2" d="M46.75,99.38v-5.09l-.6-.08c-.1-.02-.18-.06-.24-.11-.06-.05-.09-.13-.09-.22v-.53h.94v-.26c0-.38.06-.72.18-1.04.12-.32.3-.59.55-.82.24-.23.55-.41.92-.54.37-.13.79-.2,1.29-.2.16,0,.33.01.5.03s.31.05.44.09l-.04.67c0,.08-.06.13-.15.14-.09.01-.21.02-.37.02-.37,0-.69.03-.95.1-.26.07-.47.18-.64.32s-.28.32-.36.53-.11.46-.11.74v.22h3.75v6.04h-1.29v-5.11h-2.42v5.11h-1.29Z"/>
      <path class="cls-2" d="M57.71,94.46c-.04.05-.08.09-.11.12-.04.03-.09.04-.16.04s-.14-.02-.21-.07c-.07-.05-.16-.1-.26-.16-.1-.06-.23-.11-.37-.16s-.32-.07-.54-.07c-.28,0-.52.05-.73.15s-.39.24-.53.43-.25.41-.32.68-.1.56-.1.9.04.65.11.92c.08.27.19.49.33.68.14.18.31.32.52.42.2.1.43.14.68.14s.45-.03.61-.09c.16-.06.29-.13.39-.2s.19-.14.27-.2c.07-.06.15-.09.24-.09.1,0,.18.04.24.12l.37.47c-.15.18-.31.33-.49.46s-.37.23-.57.3c-.2.08-.41.13-.62.17-.22.03-.43.05-.65.05-.38,0-.73-.07-1.06-.21-.33-.14-.62-.35-.86-.62-.25-.27-.44-.6-.58-.99-.14-.39-.21-.83-.21-1.33,0-.45.06-.87.19-1.26.13-.39.31-.72.56-1,.25-.28.55-.5.92-.66.36-.16.78-.24,1.26-.24.44,0,.83.07,1.17.22.34.14.64.35.9.61l-.34.47Z"/>
      <path class="cls-2" d="M58.99,94.11c.69-.64,1.52-.97,2.47-.97.35,0,.67.06.94.17s.5.27.69.48.33.46.43.74c.1.29.15.6.15.95v3.89h-.58c-.12,0-.22-.02-.28-.06-.06-.04-.12-.11-.16-.23l-.13-.5c-.16.14-.31.26-.46.38-.15.11-.31.2-.47.28-.16.08-.34.13-.52.17s-.39.06-.61.06c-.25,0-.48-.03-.69-.1-.21-.07-.4-.17-.55-.31-.16-.14-.28-.31-.37-.51s-.14-.44-.14-.72c0-.24.06-.47.19-.69.13-.22.33-.42.62-.6.29-.18.67-.33,1.15-.44.47-.12,1.06-.18,1.76-.2v-.41c0-.44-.09-.77-.28-.98-.19-.22-.46-.32-.83-.32-.25,0-.46.03-.62.09-.17.06-.31.13-.44.2-.12.07-.23.14-.33.2-.1.06-.2.09-.31.09-.09,0-.16-.02-.23-.07-.06-.05-.11-.1-.15-.17l-.23-.42ZM62.41,96.7c-.46.02-.85.05-1.16.11-.32.06-.57.13-.77.22-.2.09-.34.2-.42.32-.09.12-.13.26-.13.41s.02.27.07.37c.05.1.11.19.19.25s.18.11.29.14c.11.03.23.04.36.04.34,0,.62-.06.87-.19.24-.13.48-.31.71-.55v-1.13Z"/>
      <path class="cls-2" d="M71.03,99.38h-1.29v-5.11h-2.98v3.47c0,.22.05.39.16.5.11.12.25.17.43.17.1,0,.19-.01.26-.04.07-.03.13-.05.19-.08.05-.03.1-.06.13-.08s.08-.04.11-.04c.07,0,.13.04.17.12l.38.63c-.2.18-.44.31-.71.41-.27.09-.55.14-.84.14-.51,0-.9-.14-1.17-.43-.27-.29-.41-.69-.41-1.21v-3.56h-.67c-.07,0-.13-.02-.19-.07-.05-.05-.08-.12-.08-.21v-.52l.99-.14.28-1.77c.02-.07.05-.12.1-.17s.11-.06.19-.06h.66v2.01h4.27v6.04ZM71.29,91.38c0,.12-.02.23-.07.33s-.11.19-.19.27c-.08.08-.17.14-.28.19s-.22.07-.33.07-.23-.02-.33-.07-.19-.11-.27-.19c-.08-.08-.14-.17-.19-.27s-.07-.21-.07-.33.02-.23.07-.34.11-.2.19-.28c.08-.08.17-.14.27-.19s.21-.07.33-.07.23.02.33.07.2.11.28.19c.08.08.14.17.19.28s.07.22.07.34Z"/>
      <path class="cls-2" d="M75.3,93.16c.45,0,.86.07,1.23.22.37.15.68.36.94.63s.46.6.6.99c.14.39.21.82.21,1.31s-.07.92-.21,1.31c-.14.39-.34.72-.6.99-.26.27-.57.49-.94.63-.37.15-.78.22-1.23.22s-.87-.07-1.23-.22c-.37-.15-.68-.36-.94-.63-.26-.27-.46-.6-.6-.99-.14-.39-.21-.82-.21-1.31s.07-.92.21-1.31c.14-.39.34-.72.6-.99s.57-.48.94-.63c.37-.15.78-.22,1.23-.22ZM75.3,98.46c.55,0,.96-.19,1.23-.56.27-.37.4-.9.4-1.59s-.13-1.22-.4-1.59c-.27-.37-.68-.56-1.23-.56s-.98.19-1.25.56c-.27.37-.41.9-.41,1.59s.14,1.22.41,1.59c.27.37.69.56,1.25.56Z"/>
      <path class="cls-2" d="M80.71,94.07c.13-.14.27-.26.41-.37.14-.11.29-.2.45-.28s.33-.14.51-.19.38-.07.59-.07c.34,0,.63.06.88.17.25.11.47.27.64.47.17.2.3.45.39.74s.13.6.13.94v3.89h-1.28v-3.89c0-.41-.1-.73-.29-.96-.19-.23-.48-.34-.87-.34-.29,0-.55.07-.8.2s-.48.31-.69.54v4.46h-1.29v-6.12h.78c.18,0,.29.08.34.25l.09.56Z"/>
    </g>
    <g>
      <rect class="cls-1" x="9" y="127.5" width="88.33" height="40.25"/>
      <path class="cls-2" d="M17.61,132.06c0,.64-.1,1.23-.31,1.75-.21.53-.5.99-.88,1.37s-.83.67-1.36.88c-.53.21-1.12.32-1.77.32h-3.26v-8.64h3.26c.65,0,1.24.11,1.77.32.53.21.98.5,1.36.88s.67.83.88,1.37.31,1.12.31,1.75ZM16.18,132.06c0-.5-.07-.94-.2-1.34-.13-.4-.33-.73-.58-1s-.55-.48-.91-.63c-.36-.15-.76-.22-1.2-.22h-1.85v6.37h1.85c.44,0,.84-.07,1.2-.22.36-.14.66-.35.91-.63.25-.27.44-.61.58-1,.13-.39.2-.84.2-1.34Z"/>
      <path class="cls-2" d="M20.36,128.41c0,.12-.02.23-.07.33-.05.1-.11.2-.19.27s-.17.14-.28.19c-.11.05-.22.07-.34.07s-.23-.02-.33-.07c-.1-.05-.19-.11-.27-.19s-.14-.17-.18-.27c-.05-.1-.07-.21-.07-.33s.02-.23.07-.34c.05-.1.11-.19.18-.27s.17-.14.27-.19c.1-.05.21-.07.33-.07s.23.02.34.07c.11.05.2.11.28.19s.14.17.19.27c.05.1.07.22.07.34ZM20.15,130.26v6.12h-1.29v-6.12h1.29Z"/>
      <path class="cls-2" d="M22.19,136.38v-5.09l-.6-.08c-.1-.02-.18-.06-.24-.11s-.09-.13-.09-.22v-.53h.94v-.41c0-.35.05-.67.15-.94.1-.28.25-.51.44-.7.19-.19.42-.34.69-.44s.58-.15.92-.15c.14,0,.27.01.4.03.13.02.25.05.37.08l-.02.65c0,.1-.06.17-.16.19-.1.02-.22.03-.37.03-.18,0-.34.02-.49.06s-.27.11-.37.21c-.1.1-.18.23-.23.4-.05.16-.08.37-.08.61v.38h2.59v-.59c0-.35.05-.67.15-.94s.25-.51.44-.7c.19-.19.42-.34.69-.44.27-.1.58-.15.91-.15.14,0,.27,0,.4.03.13.02.25.05.37.08l-.03.65c0,.1-.06.17-.16.19-.1.02-.22.03-.37.03-.18,0-.34.02-.49.06s-.27.11-.37.21c-.1.1-.18.23-.23.4-.05.16-.08.37-.08.61v.56h1.67v.93h-1.63v5.11h-1.28v-5.11h-2.55v5.11h-1.29Z"/>
      <path class="cls-2" d="M30.63,133.42c.02.35.07.65.16.9.09.25.22.47.37.63s.34.29.55.38c.21.08.45.12.72.12s.47-.03.65-.09c.18-.06.34-.12.48-.19.14-.07.25-.13.35-.19.1-.06.18-.09.26-.09.1,0,.18.04.24.12l.37.47c-.15.18-.32.33-.52.46s-.4.23-.61.3c-.22.08-.44.13-.67.17-.23.03-.45.05-.67.05-.42,0-.82-.07-1.18-.21-.36-.14-.68-.35-.94-.63-.27-.28-.47-.62-.62-1.03s-.23-.88-.23-1.41c0-.42.07-.82.2-1.19.13-.37.33-.69.58-.96.25-.27.55-.49.91-.65s.76-.24,1.22-.24c.38,0,.72.06,1.04.18.32.12.6.3.83.54.23.24.41.52.54.87.13.34.19.73.19,1.17,0,.2-.02.33-.07.4-.04.07-.12.1-.24.1h-3.93ZM33.71,132.63c0-.22-.03-.42-.09-.6-.06-.19-.15-.35-.27-.49-.12-.14-.27-.25-.45-.32-.18-.08-.38-.12-.61-.12-.47,0-.84.13-1.1.4-.27.27-.44.64-.51,1.13h3.04Z"/>
      <path class="cls-2" d="M37.28,131.39c.19-.39.42-.69.7-.92.27-.22.6-.33.98-.33.13,0,.26.01.37.04.12.03.22.08.31.13l-.09.97c-.02.07-.04.12-.08.14-.03.03-.08.04-.13.04-.06,0-.15-.01-.26-.03-.11-.02-.23-.03-.35-.03-.18,0-.34.03-.48.08-.14.05-.26.13-.37.23-.11.1-.21.22-.29.37-.08.14-.16.31-.23.49v3.8h-1.29v-6.12h.75c.14,0,.23.03.28.08.05.05.09.14.11.26l.08.8Z"/>
      <path class="cls-2" d="M41.22,133.42c.02.35.07.65.16.9.09.25.22.47.37.63s.34.29.55.38c.21.08.45.12.72.12s.47-.03.65-.09c.18-.06.34-.12.48-.19.14-.07.25-.13.35-.19.1-.06.18-.09.26-.09.1,0,.18.04.24.12l.37.47c-.15.18-.32.33-.52.46s-.4.23-.61.3c-.22.08-.44.13-.67.17-.23.03-.45.05-.67.05-.42,0-.82-.07-1.18-.21-.36-.14-.68-.35-.94-.63-.27-.28-.47-.62-.62-1.03s-.23-.88-.23-1.41c0-.42.07-.82.2-1.19.13-.37.33-.69.58-.96.25-.27.55-.49.91-.65s.76-.24,1.22-.24c.38,0,.72.06,1.04.18.32.12.6.3.83.54.23.24.41.52.54.87.13.34.19.73.19,1.17,0,.2-.02.33-.07.4-.04.07-.12.1-.24.1h-3.93ZM44.3,132.63c0-.22-.03-.42-.09-.6-.06-.19-.15-.35-.27-.49-.12-.14-.27-.25-.45-.32-.18-.08-.38-.12-.61-.12-.47,0-.84.13-1.1.4-.27.27-.44.64-.51,1.13h3.04Z"/>
      <path class="cls-2" d="M47.86,131.07c.13-.14.27-.26.41-.37.14-.11.29-.2.45-.28s.33-.14.51-.19c.18-.04.38-.07.59-.07.34,0,.63.06.88.17.25.11.47.27.64.47s.31.45.39.74.13.6.13.94v3.89h-1.28v-3.89c0-.41-.1-.73-.29-.96-.19-.23-.48-.34-.87-.34-.29,0-.55.07-.8.2s-.48.31-.69.54v4.46h-1.29v-6.12h.78c.18,0,.29.08.34.25l.09.56Z"/>
      <path class="cls-2" d="M59.24,136.38h-1.29v-5.11h-2.98v3.47c0,.22.05.39.16.5.11.12.25.17.43.17.1,0,.19-.01.26-.04.07-.03.13-.05.19-.08.05-.03.1-.06.13-.08s.08-.04.11-.04c.07,0,.13.04.17.12l.38.63c-.2.18-.44.31-.71.41-.27.09-.55.14-.84.14-.51,0-.9-.14-1.17-.43-.27-.29-.41-.69-.41-1.21v-3.56h-.67c-.07,0-.13-.02-.19-.07-.05-.05-.08-.12-.08-.21v-.52l.99-.14.28-1.77c.02-.07.05-.12.1-.17s.11-.06.19-.06h.66v2.01h4.27v6.04ZM59.51,128.38c0,.12-.02.22-.07.33-.05.1-.11.19-.19.27s-.17.14-.28.19-.22.07-.33.07-.23-.02-.33-.07-.19-.11-.27-.19-.14-.17-.19-.27c-.05-.1-.07-.21-.07-.33s.02-.23.07-.34c.05-.11.11-.2.19-.28s.17-.14.27-.19.21-.07.33-.07.23.02.33.07.2.11.28.19.14.17.19.28c.05.11.07.22.07.34Z"/>
      <path class="cls-2" d="M60.72,131.11c.69-.64,1.52-.97,2.47-.97.35,0,.67.06.94.17.27.11.5.28.69.48s.33.46.43.74c.1.29.15.6.15.95v3.89h-.58c-.12,0-.22-.02-.28-.06-.06-.04-.12-.11-.16-.23l-.13-.5c-.16.14-.31.26-.46.38-.15.11-.31.2-.47.28-.16.08-.34.13-.52.17s-.39.06-.61.06c-.25,0-.48-.03-.69-.1-.21-.07-.4-.17-.55-.31-.16-.14-.28-.31-.37-.51s-.14-.44-.14-.72c0-.24.06-.47.19-.69.13-.22.33-.42.62-.6.29-.18.67-.33,1.15-.44.47-.12,1.06-.18,1.76-.2v-.41c0-.44-.09-.77-.28-.98s-.46-.32-.83-.32c-.25,0-.46.03-.62.09-.17.06-.31.13-.44.2s-.23.14-.33.2c-.1.06-.2.09-.31.09-.09,0-.16-.02-.23-.07-.06-.05-.11-.1-.15-.17l-.23-.42ZM64.14,133.7c-.46.02-.85.05-1.16.11-.32.06-.57.13-.77.22-.2.09-.34.2-.42.32-.09.12-.13.26-.13.41s.02.27.07.37c.05.1.11.19.19.25s.18.11.29.14c.11.03.23.04.36.04.34,0,.62-.06.87-.19.24-.13.48-.31.71-.55v-1.13Z"/>
      <path class="cls-2" d="M68.21,127.5v8.88h-1.29v-8.88h1.29Z"/>
      <path class="cls-2" d="M15.06,144.88v.48c0,.16-.1.26-.29.29l-.61.1c.1.23.16.49.16.77,0,.3-.06.57-.18.82-.12.24-.28.45-.49.62s-.46.3-.74.4c-.29.09-.6.14-.94.14-.13,0-.25,0-.38-.02-.12-.01-.24-.03-.36-.06-.12.07-.2.14-.26.22s-.08.15-.08.23c0,.13.06.23.17.29.12.06.27.11.46.14s.41.05.65.05c.24,0,.49.02.74.04.25.02.5.05.74.1s.46.12.65.23c.19.11.34.25.46.43.12.18.17.41.17.7,0,.26-.07.52-.2.77-.13.25-.32.48-.57.67s-.56.35-.92.47c-.36.12-.77.18-1.23.18s-.85-.04-1.19-.13c-.34-.09-.62-.21-.85-.36-.23-.15-.39-.32-.5-.52-.11-.2-.17-.4-.17-.61,0-.29.09-.53.27-.74s.43-.36.74-.48c-.17-.08-.3-.19-.41-.33-.1-.14-.15-.32-.15-.55,0-.18.07-.37.2-.56.13-.2.33-.36.59-.5-.3-.17-.54-.39-.72-.67-.18-.28-.26-.6-.26-.98,0-.3.06-.58.18-.82.12-.24.28-.45.5-.62.21-.17.46-.3.75-.4s.61-.14.95-.14c.53,0,.99.11,1.38.33h1.71ZM13.76,151.08c0-.14-.04-.24-.12-.33s-.18-.15-.31-.19-.29-.08-.46-.1c-.18-.02-.36-.04-.56-.05-.2,0-.4-.02-.61-.03-.21-.01-.41-.03-.6-.06-.19.1-.35.22-.47.36s-.18.3-.18.49c0,.12.03.23.09.34.06.1.16.19.29.27s.3.14.5.18c.2.04.44.07.73.07.57,0,.99-.09,1.28-.26.28-.18.43-.4.43-.68ZM11.97,147.67c.4,0,.7-.1.9-.31.2-.2.3-.47.3-.8s-.1-.6-.3-.8c-.2-.2-.5-.29-.9-.29s-.7.1-.9.29c-.2.2-.3.46-.3.8,0,.16.03.31.08.44.05.14.13.25.23.35.1.1.22.17.38.23.15.05.32.08.52.08Z"/>
      <path class="cls-2" d="M16.91,147.82c.02.35.07.65.16.9.09.25.22.46.37.63s.34.29.55.38c.21.08.45.12.72.12s.47-.03.65-.09c.18-.06.34-.12.48-.19.14-.07.25-.13.35-.19.1-.06.18-.09.26-.09.1,0,.18.04.24.12l.37.47c-.15.18-.32.33-.52.46s-.4.22-.61.3c-.22.08-.44.13-.67.17s-.45.05-.67.05c-.42,0-.82-.07-1.18-.21-.36-.14-.68-.35-.94-.63-.27-.28-.47-.62-.62-1.03-.15-.41-.23-.88-.23-1.41,0-.42.07-.82.2-1.19.13-.37.33-.69.58-.96.25-.27.55-.49.91-.64s.76-.24,1.22-.24c.38,0,.72.06,1.04.18.32.12.6.3.83.54.23.24.41.53.54.87.13.34.19.73.19,1.17,0,.2-.02.33-.07.4s-.12.1-.24.1h-3.93ZM19.99,147.03c0-.22-.03-.42-.09-.6-.06-.19-.15-.35-.27-.49s-.27-.25-.45-.32c-.18-.08-.38-.12-.61-.12-.47,0-.84.13-1.1.4-.27.27-.44.64-.51,1.13h3.04Z"/>
      <path class="cls-2" d="M23.56,145.47c.13-.14.27-.26.41-.37s.29-.21.45-.29.33-.14.51-.19c.18-.04.38-.07.59-.07.34,0,.63.06.88.17s.47.27.64.47c.17.2.31.45.39.74s.13.6.13.95v3.89h-1.28v-3.89c0-.41-.1-.73-.29-.96-.19-.23-.48-.34-.87-.34-.29,0-.55.07-.8.2s-.48.31-.69.54v4.46h-1.29v-6.12h.78c.18,0,.29.08.34.25l.09.56Z"/>
      <path class="cls-2" d="M30.02,147.82c.02.35.07.65.16.9.09.25.22.46.37.63s.34.29.55.38c.21.08.45.12.72.12s.47-.03.65-.09c.18-.06.34-.12.48-.19.14-.07.25-.13.35-.19.1-.06.18-.09.26-.09.1,0,.18.04.24.12l.37.47c-.15.18-.32.33-.52.46s-.4.22-.61.3c-.22.08-.44.13-.67.17s-.45.05-.67.05c-.42,0-.82-.07-1.18-.21-.36-.14-.68-.35-.94-.63-.27-.28-.47-.62-.62-1.03-.15-.41-.23-.88-.23-1.41,0-.42.07-.82.2-1.19.13-.37.33-.69.58-.96.25-.27.55-.49.91-.64s.76-.24,1.22-.24c.38,0,.72.06,1.04.18.32.12.6.3.83.54.23.24.41.53.54.87.13.34.19.73.19,1.17,0,.2-.02.33-.07.4s-.12.1-.24.1h-3.93ZM33.1,147.03c0-.22-.03-.42-.09-.6-.06-.19-.15-.35-.27-.49s-.27-.25-.45-.32c-.18-.08-.38-.12-.61-.12-.47,0-.84.13-1.1.4-.27.27-.44.64-.51,1.13h3.04Z"/>
      <path class="cls-2" d="M39.38,147.82c.02.35.07.65.16.9.09.25.22.46.37.63s.34.29.55.38c.21.08.45.12.72.12s.47-.03.65-.09c.18-.06.34-.12.48-.19.14-.07.25-.13.35-.19.1-.06.18-.09.26-.09.1,0,.18.04.24.12l.37.47c-.15.18-.32.33-.52.46s-.4.22-.61.3c-.22.08-.44.13-.67.17s-.45.05-.67.05c-.42,0-.82-.07-1.18-.21-.36-.14-.68-.35-.94-.63-.27-.28-.47-.62-.62-1.03-.15-.41-.23-.88-.23-1.41,0-.42.07-.82.2-1.19.13-.37.33-.69.58-.96.25-.27.55-.49.91-.64s.76-.24,1.22-.24c.38,0,.72.06,1.04.18.32.12.6.3.83.54.23.24.41.53.54.87.13.34.19.73.19,1.17,0,.2-.02.33-.07.4s-.12.1-.24.1h-3.93ZM42.46,147.03c0-.22-.03-.42-.09-.6-.06-.19-.15-.35-.27-.49s-.27-.25-.45-.32c-.18-.08-.38-.12-.61-.12-.47,0-.84.13-1.1.4-.27.27-.44.64-.51,1.13h3.04Z"/>
      <path class="cls-2" d="M49.99,150.78h-1.24c-.1,0-.18-.03-.24-.08-.06-.05-.1-.11-.14-.17l-1.41-2.26c-.04.14-.08.25-.14.35l-1.28,1.91c-.04.06-.09.12-.15.17-.05.05-.13.08-.21.08h-1.15l2.12-3.16-2.03-2.96h1.24c.1,0,.17.02.22.04.05.03.09.08.12.14l1.39,2.16c.04-.13.09-.26.17-.38l1.17-1.76c.08-.14.18-.2.31-.2h1.18l-2.03,2.91,2.12,3.21Z"/>
      <path class="cls-2" d="M52.08,145.55c.26-.3.55-.54.87-.73.33-.18.71-.28,1.14-.28.34,0,.66.07.94.21.28.14.52.34.72.6.2.26.35.59.47.98.11.39.17.84.17,1.34,0,.45-.06.87-.18,1.26s-.3.73-.52,1.01c-.23.29-.5.51-.83.67-.32.16-.69.24-1.1.24-.36,0-.67-.06-.92-.17s-.48-.28-.68-.48v2.6h-1.29v-8.15h.78c.18,0,.29.08.34.25l.11.64ZM52.15,149.24c.18.23.38.4.59.49s.45.14.71.14c.5,0,.9-.18,1.18-.55.28-.37.42-.92.42-1.64,0-.38-.03-.7-.1-.96-.06-.27-.16-.48-.28-.65s-.27-.29-.44-.37c-.17-.08-.37-.11-.58-.11-.33,0-.61.07-.85.21-.24.14-.46.34-.66.61v2.84Z"/>
      <path class="cls-2" d="M58.85,145.79c.19-.39.42-.69.7-.92.27-.22.6-.33.98-.33.13,0,.26.01.37.04.12.03.22.08.31.13l-.09.97c-.02.07-.04.12-.08.14-.03.03-.08.04-.13.04-.06,0-.15-.01-.26-.03-.11-.02-.23-.03-.35-.03-.18,0-.34.03-.48.08-.14.05-.26.13-.37.23-.11.1-.21.22-.29.37-.08.14-.16.31-.23.49v3.8h-1.29v-6.12h.75c.14,0,.23.03.28.08.05.05.09.14.11.26l.08.8Z"/>
      <path class="cls-2" d="M62.78,147.82c.02.35.07.65.16.9.09.25.22.46.37.63s.34.29.55.38c.21.08.45.12.72.12s.47-.03.65-.09c.18-.06.34-.12.48-.19.14-.07.25-.13.35-.19.1-.06.18-.09.26-.09.1,0,.18.04.24.12l.37.47c-.15.18-.32.33-.52.46s-.4.22-.61.3c-.22.08-.44.13-.67.17s-.45.05-.67.05c-.42,0-.82-.07-1.18-.21-.36-.14-.68-.35-.94-.63-.27-.28-.47-.62-.62-1.03-.15-.41-.23-.88-.23-1.41,0-.42.07-.82.2-1.19.13-.37.33-.69.58-.96.25-.27.55-.49.91-.64s.76-.24,1.22-.24c.38,0,.72.06,1.04.18.32.12.6.3.83.54.23.24.41.53.54.87.13.34.19.73.19,1.17,0,.2-.02.33-.07.4s-.12.1-.24.1h-3.93ZM65.86,147.03c0-.22-.03-.42-.09-.6-.06-.19-.15-.35-.27-.49s-.27-.25-.45-.32c-.18-.08-.38-.12-.61-.12-.47,0-.84.13-1.1.4-.27.27-.44.64-.51,1.13h3.04Z"/>
      <path class="cls-2" d="M71.87,145.77c-.03.06-.07.1-.11.12-.04.02-.09.04-.15.04-.07,0-.14-.02-.22-.06s-.17-.09-.28-.14c-.11-.05-.24-.1-.38-.14s-.32-.06-.51-.06c-.16,0-.31.02-.44.06-.13.04-.24.09-.33.16-.09.07-.16.15-.21.25s-.07.2-.07.3c0,.14.04.26.13.36s.2.18.35.25c.14.07.31.13.49.19.18.06.37.12.56.18.19.06.38.14.56.22s.35.19.49.31.26.27.35.44c.09.17.13.39.13.63,0,.29-.05.55-.16.8-.1.24-.26.46-.46.64-.2.18-.45.32-.75.42-.3.1-.64.15-1.02.15-.21,0-.42-.02-.62-.06-.2-.04-.39-.09-.56-.16-.18-.07-.34-.14-.5-.24s-.29-.19-.41-.3l.3-.49c.04-.06.08-.11.13-.14.05-.03.12-.05.2-.05s.17.03.25.08.18.11.29.18c.11.06.24.12.4.18.16.05.35.08.58.08.19,0,.36-.02.5-.07.14-.05.26-.11.35-.19.09-.08.16-.17.2-.27.04-.1.07-.21.07-.33,0-.16-.04-.28-.13-.38-.09-.1-.21-.19-.35-.26-.15-.07-.31-.14-.5-.19s-.38-.12-.57-.18c-.19-.06-.38-.14-.57-.22s-.35-.19-.5-.32-.26-.29-.35-.47c-.09-.19-.13-.41-.13-.68,0-.24.05-.48.15-.7.1-.22.24-.41.43-.58.19-.17.42-.3.7-.4.28-.1.6-.15.96-.15.41,0,.79.07,1.12.2s.62.31.85.54l-.29.47Z"/>
      <path class="cls-2" d="M77.11,145.77c-.03.06-.07.1-.11.12-.04.02-.09.04-.15.04-.07,0-.14-.02-.22-.06s-.17-.09-.28-.14c-.11-.05-.24-.1-.38-.14-.15-.04-.32-.06-.51-.06-.16,0-.3.02-.43.06-.13.04-.24.09-.33.16-.09.07-.16.15-.21.25s-.07.2-.07.3c0,.14.04.26.13.36s.2.18.35.25c.14.07.31.13.49.19.18.06.37.12.56.18.19.06.38.14.56.22.18.08.35.19.49.31.14.12.26.27.35.44.09.17.13.39.13.63,0,.29-.05.55-.16.8-.1.24-.26.46-.46.64s-.45.32-.75.42-.64.15-1.02.15c-.21,0-.42-.02-.62-.06s-.39-.09-.56-.16c-.18-.07-.34-.14-.5-.24-.15-.09-.29-.19-.41-.3l.3-.49c.04-.06.08-.11.13-.14.05-.03.12-.05.2-.05s.17.03.25.08.18.11.29.18c.11.06.24.12.4.18.16.05.35.08.58.08.19,0,.36-.02.5-.07s.26-.11.35-.19c.09-.08.16-.17.2-.27.04-.1.07-.21.07-.33,0-.16-.04-.28-.13-.38-.09-.1-.21-.19-.35-.26-.15-.07-.31-.14-.5-.19-.19-.06-.38-.12-.57-.18-.19-.06-.38-.14-.57-.22-.19-.08-.35-.19-.5-.32-.15-.13-.26-.29-.35-.47-.09-.19-.13-.41-.13-.68,0-.24.05-.48.15-.7s.24-.41.43-.58c.19-.17.42-.3.7-.4.28-.1.6-.15.96-.15.41,0,.79.07,1.12.2s.62.31.85.54l-.29.47Z"/>
      <path class="cls-2" d="M80.26,142.81c0,.12-.02.23-.07.33-.05.1-.11.2-.19.27-.08.08-.17.14-.28.19-.11.05-.22.07-.34.07s-.22-.02-.33-.07c-.1-.05-.19-.11-.27-.19-.08-.08-.14-.17-.18-.27-.05-.1-.07-.21-.07-.33s.02-.23.07-.34.11-.2.18-.27c.08-.08.17-.14.27-.19.1-.05.21-.07.33-.07s.23.02.34.07c.11.05.2.11.28.19.08.08.14.17.19.27s.07.22.07.34ZM80.04,144.66v6.12h-1.29v-6.12h1.29Z"/>
      <path class="cls-2" d="M84.31,144.56c.45,0,.86.07,1.23.22.37.15.68.36.94.63.26.27.46.6.6.99.14.39.21.82.21,1.31s-.07.92-.21,1.31c-.14.39-.34.72-.6.99-.26.27-.57.49-.94.63-.37.15-.78.22-1.23.22s-.87-.07-1.23-.22c-.37-.15-.68-.36-.94-.63-.26-.27-.46-.61-.6-.99-.14-.39-.21-.82-.21-1.31s.07-.92.21-1.31c.14-.39.34-.72.6-.99.26-.27.57-.48.94-.63.37-.15.78-.22,1.23-.22ZM84.31,149.86c.55,0,.96-.18,1.23-.55.27-.37.4-.9.4-1.59s-.13-1.22-.4-1.59c-.27-.37-.68-.56-1.23-.56s-.98.19-1.25.56c-.27.37-.41.9-.41,1.59s.14,1.22.41,1.59c.27.37.69.55,1.25.55Z"/>
      <path class="cls-2" d="M89.72,145.47c.13-.14.27-.26.41-.37.14-.11.29-.21.45-.29s.33-.14.51-.19.38-.07.59-.07c.34,0,.63.06.88.17s.47.27.64.47c.17.2.3.45.39.74s.13.6.13.95v3.89h-1.28v-3.89c0-.41-.1-.73-.29-.96-.19-.23-.48-.34-.87-.34-.29,0-.55.07-.8.2s-.48.31-.69.54v4.46h-1.29v-6.12h.78c.18,0,.29.08.34.25l.09.56Z"/>
    </g>
    <g>
      <rect class="cls-1" x="103" y="10" width="81" height="29"/>
      <path class="cls-2" d="M126.25,11.2v3.01h3.53v.95h-3.53v3.7h-1.16v-8.6h5.3v.95h-4.13Z"/>
      <path class="cls-2" d="M130.62,13.63c.34-.32.7-.57,1.09-.73.39-.16.82-.24,1.29-.24.34,0,.64.06.91.17.26.11.49.27.67.47.18.2.32.44.41.73.09.28.14.6.14.94v3.89h-.47c-.1,0-.18-.02-.24-.05-.06-.03-.1-.1-.13-.2l-.12-.58c-.16.15-.32.28-.47.39-.15.11-.31.21-.48.29s-.35.14-.54.18c-.19.04-.4.06-.63.06s-.46-.03-.67-.1-.39-.17-.54-.3c-.15-.13-.28-.3-.37-.5-.09-.2-.13-.44-.13-.72,0-.24.07-.47.2-.69.13-.22.35-.42.64-.59.3-.17.68-.31,1.16-.42.48-.11,1.06-.17,1.75-.19v-.47c0-.47-.1-.83-.31-1.07s-.5-.36-.89-.36c-.26,0-.49.03-.66.1s-.33.14-.46.22-.24.16-.34.22c-.09.07-.19.1-.28.1-.07,0-.13-.02-.19-.06-.05-.04-.1-.08-.13-.14l-.19-.34ZM134.07,16.11c-.49.02-.91.05-1.26.12-.35.06-.63.14-.85.24s-.38.22-.47.35c-.1.14-.15.29-.15.46s.03.3.08.41c.05.12.12.21.21.28.09.07.2.13.32.16.12.03.25.05.39.05.19,0,.36-.02.52-.06.16-.04.3-.09.44-.17.14-.07.27-.16.4-.26.13-.1.25-.21.37-.34v-1.26Z"/>
      <path class="cls-2" d="M140.28,13.77c-.05.09-.12.13-.22.13-.06,0-.13-.02-.2-.07-.08-.04-.17-.09-.28-.15-.11-.05-.24-.1-.39-.15-.15-.05-.33-.07-.54-.07-.18,0-.34.02-.49.07-.14.05-.27.11-.37.19-.1.08-.18.17-.23.28s-.08.22-.08.34c0,.16.04.29.13.39.09.1.21.19.36.27.15.08.32.14.5.2.19.06.38.12.58.19.2.07.39.14.58.22.19.08.36.18.5.3.15.12.27.27.36.44.09.17.14.38.14.63,0,.28-.05.54-.15.78-.1.24-.25.44-.44.62-.2.17-.44.31-.72.41-.28.1-.61.15-.98.15-.42,0-.81-.07-1.15-.21-.34-.14-.64-.31-.88-.53l.25-.41c.03-.05.07-.09.11-.12s.1-.04.17-.04.15.03.23.08.18.12.29.19.25.13.42.19.37.08.61.08c.21,0,.39-.03.55-.08.16-.05.29-.13.39-.22.1-.09.18-.2.23-.32s.08-.25.08-.38c0-.17-.04-.31-.14-.42-.09-.11-.21-.2-.36-.28-.15-.08-.32-.15-.51-.2-.19-.06-.38-.12-.58-.18-.2-.06-.39-.14-.58-.22-.19-.08-.36-.19-.51-.31-.15-.12-.27-.28-.36-.46s-.13-.4-.13-.66c0-.23.05-.45.14-.67.1-.21.24-.4.42-.56.18-.16.41-.29.68-.39.27-.1.57-.14.92-.14.4,0,.76.06,1.08.19.32.13.59.3.83.52l-.24.39Z"/>
      <path class="cls-2" d="M143.8,18.95c-.48,0-.85-.13-1.11-.4-.26-.27-.39-.65-.39-1.16v-3.72h-.73c-.06,0-.12-.02-.16-.06-.04-.04-.07-.1-.07-.18v-.43l1-.13.25-1.88c.01-.06.04-.11.08-.15s.1-.06.17-.06h.54v2.09h1.76v.77h-1.76v3.65c0,.26.06.45.19.57s.28.19.48.19c.11,0,.21-.02.29-.05.08-.03.15-.06.21-.1.06-.04.11-.07.15-.1.04-.03.08-.04.11-.04.06,0,.11.03.15.1l.31.51c-.18.17-.41.31-.67.41-.26.1-.53.15-.8.15Z"/>
      <path class="cls-2" d="M154.83,20.63h-.96c-.14,0-.27-.02-.38-.06s-.21-.11-.31-.21l-1.51-1.64c-.46.15-.95.23-1.48.23-.63,0-1.21-.11-1.73-.32-.52-.21-.97-.52-1.34-.9-.37-.39-.66-.85-.86-1.39s-.31-1.13-.31-1.77.1-1.23.31-1.77.49-1,.86-1.39c.37-.39.82-.69,1.34-.91.52-.22,1.1-.32,1.73-.32s1.21.11,1.73.32c.52.22.97.52,1.34.91s.66.85.86,1.39c.2.54.31,1.13.31,1.77,0,.4-.04.79-.12,1.15-.08.36-.2.7-.36,1.02-.16.31-.35.6-.57.85-.22.26-.48.48-.76.67l2.2,2.38ZM147.14,14.55c0,.53.07,1,.22,1.42.14.42.35.77.62,1.06.27.29.59.51.96.67s.79.23,1.25.23.88-.08,1.26-.23.7-.38.96-.67c.26-.29.47-.64.61-1.06.14-.42.22-.89.22-1.42s-.07-1-.22-1.42c-.14-.42-.35-.78-.61-1.07-.26-.29-.58-.51-.96-.67-.38-.16-.8-.23-1.26-.23s-.88.08-1.25.23c-.38.16-.7.38-.96.67-.27.29-.47.65-.62,1.07-.14.42-.22.89-.22,1.42Z"/>
      <path class="cls-2" d="M162.13,17.07c.06,0,.12.03.17.08l.46.5c-.35.41-.78.73-1.28.95s-1.11.34-1.82.34c-.62,0-1.18-.11-1.68-.32-.5-.21-.93-.51-1.29-.9-.36-.39-.63-.85-.83-1.39s-.29-1.13-.29-1.78.1-1.24.31-1.78.49-1,.86-1.39c.37-.39.81-.69,1.33-.9.52-.21,1.09-.32,1.71-.32s1.15.1,1.62.29.88.46,1.24.8l-.38.53s-.05.07-.09.1c-.04.03-.09.04-.15.04-.07,0-.16-.04-.26-.12-.1-.08-.24-.17-.41-.26-.17-.1-.38-.18-.63-.26-.25-.08-.56-.12-.93-.12-.44,0-.85.08-1.22.23-.37.15-.68.38-.95.67-.27.29-.47.65-.62,1.07-.15.42-.22.89-.22,1.42s.08,1.01.23,1.43c.15.42.36.77.63,1.06s.58.51.94.66c.36.15.75.23,1.17.23.26,0,.49-.02.69-.05.21-.03.4-.08.57-.14s.34-.15.49-.24c.15-.1.3-.21.45-.35.07-.06.14-.09.2-.09Z"/>
    </g>
    <g>
      <rect class="cls-1" x="103" y="48" width="81" height="26.25"/>
      <path class="cls-2" d="M134.8,49.6c-.04.06-.08.1-.12.13-.04.03-.09.04-.15.04-.07,0-.15-.03-.24-.1-.09-.07-.21-.14-.34-.23-.14-.08-.3-.16-.5-.23-.19-.07-.43-.1-.71-.1-.26,0-.49.04-.69.1-.2.07-.36.17-.5.29-.13.12-.23.26-.3.42s-.1.34-.1.52c0,.24.06.44.18.6s.27.29.47.4c.19.11.41.21.66.29.25.08.5.17.76.26.26.09.51.19.76.3s.47.25.66.42.35.37.47.62c.12.24.18.54.18.9,0,.38-.06.73-.19,1.06-.13.33-.32.62-.56.86-.25.24-.55.44-.91.58-.36.14-.77.21-1.22.21-.56,0-1.07-.1-1.52-.3s-.85-.48-1.17-.82l.34-.55s.07-.08.12-.11c.05-.03.1-.04.15-.04.05,0,.11.02.18.06.07.04.14.09.22.16.08.06.18.13.29.21.11.08.23.15.37.21.14.06.29.12.47.16s.37.06.59.06c.28,0,.52-.04.74-.11.22-.08.4-.18.55-.32.15-.14.26-.3.34-.49.08-.19.12-.41.12-.64,0-.26-.06-.47-.18-.64s-.27-.3-.46-.42c-.19-.11-.41-.21-.66-.29-.25-.08-.5-.16-.76-.24s-.51-.18-.76-.29-.47-.25-.66-.42-.35-.39-.46-.65-.18-.58-.18-.96c0-.3.06-.6.18-.88s.29-.54.52-.76c.23-.22.5-.4.83-.53.33-.13.71-.2,1.14-.2.48,0,.92.08,1.31.23.39.15.74.37,1.04.66l-.28.55Z"/>
      <path class="cls-2" d="M142.72,49.23h-2.78v7.62h-1.16v-7.62h-2.79v-.98h6.73v.98Z"/>
      <path class="cls-2" d="M150.14,56.85h-.9c-.1,0-.19-.03-.25-.08-.06-.05-.11-.12-.14-.2l-.8-2.08h-3.86l-.8,2.08c-.02.07-.07.14-.14.19-.07.06-.15.08-.25.08h-.9l3.44-8.6h1.18l3.44,8.6ZM147.72,53.66l-1.35-3.5c-.04-.1-.08-.23-.13-.36-.04-.14-.09-.28-.13-.44-.08.32-.17.59-.26.81l-1.35,3.49h3.21Z"/>
      <path class="cls-2" d="M157.63,56.85h-1.03c-.21,0-.37-.08-.47-.25l-2.23-3.07c-.07-.1-.14-.17-.22-.21s-.2-.06-.36-.06h-.88v3.59h-1.16v-8.6h2.43c.54,0,1.01.06,1.41.17.4.11.72.27.98.48s.45.46.57.75.19.62.19.99c0,.3-.05.59-.14.85-.1.26-.24.5-.42.71s-.4.39-.67.54c-.26.15-.56.26-.89.34.15.08.28.21.38.37l2.51,3.41ZM153.66,52.42c.34,0,.63-.04.89-.12s.47-.2.65-.35c.17-.15.3-.33.39-.54s.13-.44.13-.69c0-.51-.17-.9-.5-1.16-.34-.26-.84-.39-1.51-.39h-1.27v3.25h1.22Z"/>
    </g>
    <g>
      <rect class="cls-1" x="103" y="90.5" width="81" height="29"/>
      <path class="cls-2" d="M107.17,99.35v-5.17l-.67-.08c-.08-.02-.15-.05-.21-.09s-.08-.1-.08-.18v-.44h.96v-.59c0-.35.05-.66.15-.93.1-.27.24-.5.42-.68.18-.19.4-.33.66-.42.26-.1.54-.14.86-.14.27,0,.52.04.75.12l-.02.53c0,.1-.06.15-.16.16-.1,0-.23.01-.39.01-.18,0-.35.02-.5.07-.15.05-.28.13-.39.23-.11.11-.19.25-.25.43-.06.18-.09.39-.09.65v.56h1.75v.77h-1.72v5.18h-1.07Z"/>
      <path class="cls-2" d="M115.72,98.5c-.13.16-.29.3-.47.42-.18.12-.38.22-.59.29-.21.08-.43.13-.65.17-.22.04-.45.06-.67.06-.42,0-.81-.07-1.16-.21-.35-.14-.66-.35-.92-.62-.26-.27-.46-.61-.6-1.02-.14-.4-.22-.87-.22-1.39,0-.42.06-.82.19-1.19.13-.37.32-.69.56-.96s.54-.48.89-.64c.35-.15.75-.23,1.19-.23.36,0,.7.06,1.01.18.31.12.58.3.8.53.23.23.4.51.53.85s.19.72.19,1.15c0,.17-.02.28-.05.34-.04.06-.1.08-.2.08h-4.06c.01.38.07.72.16,1s.22.52.39.71c.17.19.37.33.6.43.23.09.49.14.78.14.27,0,.5-.03.69-.09.19-.06.36-.13.5-.2.14-.07.26-.14.35-.2.09-.06.18-.09.24-.09.09,0,.16.03.2.1l.3.39ZM114.85,95.65c0-.25-.04-.47-.11-.68s-.17-.38-.31-.53-.3-.27-.49-.35-.41-.12-.65-.12c-.51,0-.92.15-1.21.45s-.48.71-.55,1.24h3.32Z"/>
      <path class="cls-2" d="M116.97,94.13c.34-.32.7-.57,1.09-.73.39-.16.82-.24,1.29-.24.34,0,.64.06.91.17.26.11.49.27.67.47.18.2.32.44.41.73.09.28.14.6.14.94v3.89h-.47c-.1,0-.18-.02-.24-.05-.06-.03-.1-.1-.13-.2l-.12-.58c-.16.15-.32.28-.47.39-.15.11-.31.21-.48.29s-.35.14-.54.18c-.19.04-.4.06-.63.06s-.46-.03-.67-.1c-.21-.07-.39-.17-.54-.3-.15-.13-.28-.3-.37-.5-.09-.2-.13-.44-.13-.72,0-.24.07-.47.2-.69.13-.22.35-.42.64-.59.3-.17.68-.31,1.16-.42.48-.11,1.06-.17,1.75-.19v-.47c0-.47-.1-.83-.31-1.07s-.5-.36-.89-.36c-.26,0-.48.03-.66.1-.18.07-.33.14-.46.22s-.24.16-.34.22c-.09.07-.19.1-.28.1-.07,0-.13-.02-.19-.06s-.1-.08-.13-.14l-.19-.34ZM120.42,96.61c-.49.02-.91.05-1.26.12-.35.06-.63.14-.85.24-.22.1-.38.22-.47.35-.1.14-.15.29-.15.46s.03.3.08.41c.05.12.12.21.21.29s.2.13.32.16.25.05.39.05c.19,0,.36-.02.52-.06s.3-.09.44-.17c.14-.07.27-.16.4-.26.13-.1.25-.21.37-.34v-1.26Z"/>
      <path class="cls-2" d="M124.87,99.45c-.48,0-.85-.13-1.11-.4-.26-.27-.39-.65-.39-1.16v-3.72h-.73c-.06,0-.12-.02-.16-.06-.04-.04-.07-.1-.07-.18v-.43l1-.13.25-1.88c.01-.06.04-.11.08-.15s.1-.06.17-.06h.54v2.09h1.76v.77h-1.76v3.65c0,.26.06.45.19.57s.28.19.48.19c.11,0,.21-.01.29-.04.08-.03.15-.06.21-.1.06-.04.11-.07.15-.1s.08-.04.11-.04c.06,0,.11.03.15.1l.31.51c-.18.17-.41.31-.67.41-.26.1-.53.15-.8.15Z"/>
      <path class="cls-2" d="M132.31,93.27v6.08h-.64c-.15,0-.25-.07-.29-.22l-.08-.65c-.26.29-.56.53-.89.71-.33.18-.7.27-1.13.27-.33,0-.62-.05-.88-.17s-.47-.26-.64-.46-.3-.44-.39-.73c-.09-.28-.13-.6-.13-.94v-3.88h1.07v3.88c0,.46.11.82.32,1.07.21.25.53.38.96.38.32,0,.61-.08.88-.23.27-.15.53-.36.76-.62v-4.48h1.07Z"/>
      <path class="cls-2" d="M135.01,94.49c.19-.42.43-.74.71-.98s.62-.35,1.03-.35c.13,0,.25.01.37.04s.22.07.32.13l-.08.8c-.02.1-.08.15-.18.15-.06,0-.14-.01-.25-.04-.11-.02-.23-.04-.37-.04-.19,0-.36.03-.51.08-.15.06-.28.14-.4.25-.12.11-.22.25-.32.41-.09.16-.18.35-.25.56v3.84h-1.07v-6.08h.61c.12,0,.2.02.24.07.04.04.07.12.09.23l.07.92Z"/>
      <path class="cls-2" d="M143.05,98.5c-.13.16-.29.3-.47.42-.18.12-.38.22-.59.29-.21.08-.43.13-.65.17-.22.04-.45.06-.67.06-.42,0-.81-.07-1.16-.21-.35-.14-.66-.35-.92-.62-.26-.27-.46-.61-.6-1.02-.14-.4-.22-.87-.22-1.39,0-.42.06-.82.19-1.19.13-.37.32-.69.56-.96s.54-.48.89-.64c.35-.15.75-.23,1.19-.23.36,0,.7.06,1.01.18.31.12.58.3.8.53.23.23.4.51.53.85s.19.72.19,1.15c0,.17-.02.28-.05.34-.04.06-.1.08-.2.08h-4.06c.01.38.07.72.16,1s.22.52.39.71c.17.19.37.33.6.43.23.09.49.14.78.14.27,0,.5-.03.69-.09.19-.06.36-.13.5-.2.14-.07.26-.14.35-.2.09-.06.18-.09.24-.09.09,0,.16.03.2.1l.3.39ZM142.19,95.65c0-.25-.04-.47-.11-.68s-.17-.38-.31-.53-.3-.27-.49-.35-.41-.12-.65-.12c-.51,0-.92.15-1.21.45s-.48.71-.55,1.24h3.32Z"/>
      <path class="cls-2" d="M150.7,97.57c.06,0,.12.03.17.08l.46.5c-.35.41-.78.73-1.28.95-.5.23-1.11.34-1.82.34-.62,0-1.18-.11-1.68-.32-.5-.21-.93-.51-1.29-.9-.36-.39-.63-.85-.83-1.39-.2-.54-.29-1.13-.29-1.78s.1-1.24.31-1.78.49-1,.86-1.39c.37-.39.81-.69,1.33-.9.52-.21,1.09-.32,1.71-.32s1.15.1,1.62.29.88.46,1.24.8l-.38.53s-.06.07-.09.1c-.04.03-.09.04-.15.04-.07,0-.16-.04-.26-.12-.1-.08-.24-.17-.41-.26-.17-.1-.38-.18-.63-.26-.25-.08-.56-.12-.93-.12-.44,0-.85.08-1.22.23-.37.15-.68.38-.95.67-.27.29-.47.65-.62,1.07-.15.42-.22.89-.22,1.42s.08,1.01.23,1.43c.15.42.36.78.63,1.07.27.29.58.51.94.66.36.15.75.23,1.17.23.26,0,.49-.01.69-.04s.4-.08.57-.14c.17-.06.34-.15.49-.24.15-.1.3-.21.45-.35.07-.06.14-.09.2-.09Z"/>
      <path class="cls-2" d="M154.87,93.18c.44,0,.84.07,1.2.22.36.15.66.36.91.63s.44.6.58.99c.13.39.2.82.2,1.29s-.07.91-.2,1.3c-.13.38-.33.71-.58.98-.25.27-.56.48-.91.63-.36.15-.76.22-1.2.22s-.85-.07-1.21-.22c-.36-.15-.66-.36-.92-.63-.25-.27-.45-.6-.58-.98s-.2-.82-.2-1.3.07-.91.2-1.29.33-.71.58-.99.56-.48.92-.63.76-.22,1.21-.22ZM154.87,98.6c.6,0,1.05-.2,1.34-.6.3-.4.44-.96.44-1.68s-.15-1.29-.44-1.69c-.3-.4-.74-.61-1.34-.61-.3,0-.57.05-.79.16-.23.1-.41.25-.56.45-.15.2-.26.44-.34.72-.07.29-.11.61-.11.97,0,.72.15,1.28.45,1.68.3.4.75.6,1.36.6Z"/>
      <path class="cls-2" d="M164.11,93.27v6.08h-.64c-.15,0-.25-.07-.29-.22l-.08-.65c-.26.29-.56.53-.89.71-.33.18-.7.27-1.13.27-.33,0-.62-.05-.88-.17s-.47-.26-.64-.46c-.17-.2-.3-.44-.39-.73-.09-.28-.13-.6-.13-.94v-3.88h1.07v3.88c0,.46.1.82.31,1.07.21.25.53.38.96.38.32,0,.61-.08.89-.23.27-.15.53-.36.76-.62v-4.48h1.07Z"/>
      <path class="cls-2" d="M166.81,94.15c.13-.15.27-.28.42-.4.15-.12.31-.22.47-.31.17-.09.34-.15.53-.2.19-.05.39-.07.6-.07.33,0,.62.05.88.17.25.11.47.27.64.47s.3.44.39.73.13.6.13.94v3.87h-1.07v-3.87c0-.46-.11-.82-.32-1.07s-.53-.38-.96-.38c-.32,0-.61.08-.88.23-.27.15-.53.36-.76.62v4.48h-1.07v-6.08h.64c.15,0,.25.07.28.22l.08.66Z"/>
      <path class="cls-2" d="M174.28,99.45c-.48,0-.85-.13-1.11-.4-.26-.27-.39-.65-.39-1.16v-3.72h-.73c-.06,0-.12-.02-.16-.06-.04-.04-.07-.1-.07-.18v-.43l1-.13.25-1.88c.01-.06.04-.11.08-.15s.1-.06.17-.06h.54v2.09h1.76v.77h-1.76v3.65c0,.26.06.45.19.57.12.12.28.19.48.19.11,0,.21-.01.29-.04s.15-.06.21-.1c.06-.04.11-.07.15-.1s.08-.04.11-.04c.06,0,.11.03.15.1l.31.51c-.18.17-.41.31-.67.41-.26.1-.53.15-.8.15Z"/>
      <path class="cls-2" d="M180.26,94.27c-.05.09-.12.13-.22.13-.06,0-.13-.02-.2-.07-.08-.04-.17-.09-.28-.15-.11-.05-.24-.1-.39-.15-.15-.05-.33-.07-.54-.07-.18,0-.34.02-.49.07-.14.05-.27.11-.37.19-.1.08-.18.17-.23.28s-.08.22-.08.34c0,.16.04.29.13.39.09.1.21.19.36.27.15.08.32.14.5.2.19.06.38.12.58.19.2.07.39.14.58.22.19.08.36.18.5.3.15.12.27.27.36.44.09.17.14.38.14.63,0,.28-.05.54-.15.78s-.25.44-.44.62c-.2.17-.44.31-.72.41-.28.1-.61.15-.98.15-.42,0-.81-.07-1.15-.21s-.64-.31-.88-.53l.25-.41c.03-.05.07-.09.11-.12.04-.03.1-.04.17-.04s.15.03.23.08c.08.06.18.12.29.19.11.07.25.13.42.19.16.06.37.08.61.08.21,0,.39-.03.55-.08.16-.05.29-.13.39-.22.1-.09.18-.2.23-.32s.08-.25.08-.38c0-.17-.04-.31-.14-.42-.09-.11-.21-.2-.36-.28-.15-.08-.32-.15-.51-.2-.19-.06-.38-.12-.58-.18-.2-.06-.39-.14-.58-.22-.19-.08-.36-.19-.51-.31-.15-.12-.27-.28-.36-.46s-.13-.4-.13-.66c0-.23.05-.45.14-.67.1-.21.24-.4.42-.56.18-.16.41-.29.68-.39.27-.1.57-.14.92-.14.4,0,.76.06,1.08.19.32.13.59.3.83.52l-.24.39Z"/>
    </g>
    <g>
      <rect class="cls-1" x="99" y="127.5" width="88.33" height="40.25"/>
      <path class="cls-2" d="M127.73,132.05c0,.64-.1,1.23-.31,1.76s-.49.98-.86,1.36-.82.67-1.34.87c-.52.21-1.1.31-1.73.31h-3.21v-8.6h3.21c.63,0,1.21.1,1.73.31.52.21.97.5,1.34.88s.66.83.86,1.36c.2.53.31,1.11.31,1.76ZM126.54,132.05c0-.53-.07-1-.22-1.42-.14-.42-.35-.77-.61-1.06s-.58-.51-.96-.66c-.38-.15-.8-.23-1.26-.23h-2.05v6.71h2.05c.46,0,.88-.08,1.26-.23.38-.15.7-.37.96-.66s.47-.64.61-1.05c.14-.42.22-.89.22-1.42Z"/>
      <path class="cls-2" d="M134.71,135.4v.95h-5.3v-8.6h5.3v.95h-4.13v2.86h3.35v.91h-3.35v2.93h4.14Z"/>
      <path class="cls-2" d="M140.73,129.1c-.04.06-.08.1-.12.13s-.09.04-.15.04c-.07,0-.15-.03-.24-.1-.09-.07-.21-.14-.34-.23s-.3-.16-.5-.22c-.19-.07-.43-.1-.71-.1-.26,0-.49.04-.69.11s-.36.17-.5.29-.24.26-.3.42c-.07.16-.1.34-.1.52,0,.24.06.44.18.6s.27.29.47.4c.19.11.41.21.66.29.25.08.5.17.76.26.26.09.51.19.76.3.25.11.47.25.66.42.19.17.35.37.47.62.12.24.18.54.18.9,0,.38-.06.73-.19,1.06-.13.33-.31.62-.56.86s-.55.44-.91.58c-.36.14-.76.21-1.22.21-.56,0-1.07-.1-1.52-.3s-.85-.48-1.17-.82l.34-.55s.07-.08.12-.11.1-.04.15-.04c.05,0,.11.02.18.06s.14.09.22.16c.08.06.18.13.29.21.11.08.23.15.37.21.14.06.29.12.47.16.18.04.37.06.59.06.28,0,.52-.04.74-.11.22-.08.4-.18.55-.32.15-.14.26-.3.34-.49.08-.19.12-.41.12-.64,0-.26-.06-.47-.18-.64-.12-.17-.27-.3-.47-.42-.19-.11-.41-.21-.66-.29-.25-.08-.5-.16-.76-.24-.26-.08-.51-.18-.76-.29-.25-.11-.47-.25-.66-.42-.19-.17-.35-.39-.46-.64s-.18-.58-.18-.96c0-.3.06-.6.18-.88s.29-.54.52-.76c.23-.22.5-.4.83-.53s.71-.2,1.14-.2c.48,0,.92.08,1.31.23.39.15.74.37,1.04.66l-.28.55Z"/>
      <path class="cls-2" d="M147.49,135.5c-.13.16-.29.3-.47.42-.18.12-.38.22-.59.29-.21.08-.43.13-.65.17-.22.04-.45.06-.67.06-.42,0-.81-.07-1.16-.21-.35-.14-.66-.35-.92-.62-.26-.27-.46-.61-.6-1.02-.14-.4-.22-.87-.22-1.39,0-.42.06-.82.19-1.19.13-.37.32-.69.56-.96.24-.27.54-.48.89-.64.35-.15.75-.23,1.19-.23.36,0,.7.06,1.01.18s.58.3.8.53c.23.23.4.51.53.85s.19.72.19,1.16c0,.17-.02.28-.05.34-.04.06-.1.08-.2.08h-4.06c.01.38.07.72.16,1s.22.52.39.71c.17.19.37.33.6.43.23.09.49.14.78.14.27,0,.5-.03.69-.09.19-.06.36-.13.5-.2.14-.07.26-.14.35-.2.09-.06.18-.09.24-.09.09,0,.16.03.2.1l.3.39ZM146.63,132.65c0-.25-.04-.47-.11-.68s-.17-.38-.31-.53c-.13-.15-.3-.27-.49-.35s-.41-.12-.65-.12c-.51,0-.92.15-1.21.45s-.48.71-.55,1.24h3.32Z"/>
      <path class="cls-2" d="M153.92,130.27v8.14h-1.07v-2.96c-.25.3-.54.54-.87.72-.33.18-.7.27-1.12.27-.35,0-.66-.07-.95-.2-.28-.13-.53-.33-.73-.59s-.35-.58-.46-.97c-.11-.39-.16-.83-.16-1.34,0-.45.06-.86.18-1.25.12-.39.29-.72.52-1,.22-.28.5-.51.83-.67.33-.16.69-.24,1.1-.24s.73.07,1.01.21c.28.14.52.34.73.59l.07-.47c.04-.15.14-.22.29-.22h.64ZM152.85,131.71c-.19-.26-.41-.44-.64-.55-.24-.11-.5-.17-.79-.17-.56,0-1,.2-1.3.61-.3.4-.46.98-.46,1.73,0,.4.03.74.1,1.02.07.28.17.51.3.7.13.18.29.32.49.4s.41.13.65.13c.35,0,.66-.08.92-.24.26-.16.5-.39.72-.68v-2.94Z"/>
      <path class="cls-2" d="M160.69,135.34c.12,0,.21.03.28.1.07.07.1.16.1.26v.65h-5.74v-.37c0-.08.02-.15.05-.23.03-.08.08-.15.15-.22l2.75-2.77c.23-.23.44-.46.62-.67.19-.21.35-.43.48-.65.13-.22.23-.43.31-.66.07-.22.11-.46.11-.71s-.04-.47-.12-.66c-.08-.19-.19-.35-.33-.47s-.3-.22-.49-.28c-.19-.06-.39-.09-.61-.09s-.42.03-.61.1c-.18.06-.35.15-.49.27-.14.11-.26.25-.36.41-.1.16-.16.33-.2.52-.05.14-.11.23-.2.28s-.2.06-.34.04l-.56-.1c.06-.39.17-.74.33-1.04.16-.3.37-.55.61-.76s.53-.36.84-.46c.32-.11.66-.16,1.03-.16s.7.05,1.02.16c.32.11.59.26.82.47s.41.46.55.75c.13.3.2.63.2,1.01,0,.32-.05.62-.14.89-.1.27-.23.54-.39.78s-.35.49-.57.73c-.21.24-.44.47-.68.71l-2.27,2.32c.16-.04.32-.08.49-.11.16-.03.32-.04.47-.04h2.88Z"/>
      <path class="cls-2" d="M163.16,136.48c-.05.14-.13.24-.24.31-.11.07-.22.1-.34.1h-.45l3.61-8.98c.05-.13.12-.23.22-.29.1-.07.21-.1.34-.1h.46l-3.59,8.96Z"/>
      <path class="cls-2" d="M129.79,149.9c-.13.16-.29.3-.47.42-.18.12-.38.22-.59.29-.21.08-.43.13-.65.17-.22.04-.45.06-.67.06-.42,0-.81-.07-1.16-.21-.35-.14-.66-.35-.92-.62-.26-.27-.46-.61-.6-1.02-.14-.4-.22-.87-.22-1.39,0-.42.07-.82.2-1.19.13-.37.32-.69.56-.96.24-.27.54-.48.89-.64.35-.15.75-.23,1.19-.23.36,0,.7.06,1.01.18.31.12.58.3.8.53.23.23.4.51.53.85.13.34.19.72.19,1.16,0,.17-.02.28-.05.34s-.1.08-.2.08h-4.06c.01.38.06.72.16,1,.09.28.23.52.39.71.17.19.37.33.6.43.23.09.49.14.78.14.27,0,.5-.03.69-.09.19-.06.36-.13.5-.2.14-.07.26-.14.35-.2.09-.06.17-.09.24-.09.09,0,.16.03.2.1l.3.39ZM128.93,147.05c0-.25-.04-.47-.1-.68-.07-.21-.17-.38-.31-.53-.13-.15-.3-.27-.49-.35-.19-.08-.41-.12-.65-.12-.51,0-.92.15-1.21.45s-.48.71-.56,1.24h3.32Z"/>
      <path class="cls-2" d="M136.22,141.91v8.84h-.64c-.15,0-.25-.07-.29-.22l-.1-.74c-.26.31-.56.56-.89.76-.33.19-.72.29-1.15.29-.35,0-.66-.07-.95-.2s-.53-.33-.73-.59c-.2-.26-.35-.58-.46-.97-.11-.39-.16-.83-.16-1.34,0-.45.06-.86.18-1.25.12-.39.29-.72.52-1,.22-.28.5-.51.83-.67s.69-.24,1.1-.24c.37,0,.69.06.96.19.27.13.5.3.71.52v-3.37h1.07ZM135.16,146.12c-.2-.27-.42-.46-.65-.56-.23-.11-.49-.16-.78-.16-.56,0-1,.2-1.3.61s-.46.98-.46,1.73c0,.4.03.74.1,1.02.07.28.17.51.3.7.13.18.29.32.49.4.19.08.41.13.65.13.35,0,.66-.08.92-.24s.5-.39.72-.68v-2.93Z"/>
      <path class="cls-2" d="M143.05,144.91v.4c0,.13-.08.22-.25.25l-.69.09c.14.26.2.56.2.88,0,.3-.06.57-.17.81-.11.24-.27.45-.47.62s-.44.3-.72.4c-.28.09-.58.14-.91.14-.28,0-.55-.03-.8-.1-.13.08-.23.17-.29.25-.07.09-.1.18-.1.27,0,.14.06.25.18.33.12.07.27.13.46.16.19.03.41.05.66.06s.5.02.76.04c.26.02.51.05.76.09.25.04.46.12.66.22.19.1.35.24.46.41.12.18.18.4.18.68,0,.26-.07.51-.2.76-.13.24-.32.46-.56.65-.24.19-.54.34-.9.46-.35.11-.75.17-1.2.17s-.83-.04-1.16-.13-.61-.21-.83-.35c-.22-.15-.39-.32-.5-.51-.11-.19-.17-.4-.17-.61,0-.3.09-.55.28-.76.19-.21.45-.37.77-.5-.18-.08-.32-.19-.43-.32-.11-.13-.16-.32-.16-.54,0-.09.02-.18.05-.27s.08-.19.15-.28c.07-.09.15-.18.24-.27.1-.08.21-.16.34-.22-.3-.17-.53-.39-.7-.67-.17-.28-.25-.6-.25-.97,0-.3.06-.56.17-.81.11-.24.27-.45.48-.62s.45-.3.73-.39c.28-.09.59-.14.93-.14.26,0,.51.03.74.09.23.06.44.14.62.25h1.65ZM141.96,151.08c0-.15-.04-.27-.13-.36s-.2-.16-.34-.22-.31-.09-.5-.11c-.19-.02-.39-.04-.6-.05s-.42-.02-.64-.04c-.22-.01-.42-.03-.62-.06-.22.1-.41.23-.55.39-.14.16-.21.34-.21.55,0,.14.04.26.11.38.07.12.18.22.32.31.14.09.33.15.54.2.22.05.48.08.77.08s.55-.03.77-.08c.23-.05.42-.13.58-.22.16-.1.28-.21.36-.34s.13-.28.13-.44ZM140.04,147.78c.22,0,.41-.03.57-.09.16-.06.3-.14.41-.25.11-.11.2-.24.25-.39.06-.15.08-.32.08-.5,0-.37-.11-.67-.34-.89-.23-.22-.55-.33-.98-.33s-.76.11-.99.33c-.23.22-.34.52-.34.89,0,.18.03.34.09.5s.14.28.25.39c.11.11.25.19.41.25.16.06.35.09.57.09Z"/>
      <path class="cls-2" d="M148.99,149.9c-.13.16-.29.3-.47.42-.18.12-.38.22-.59.29-.21.08-.43.13-.65.17-.22.04-.45.06-.67.06-.42,0-.81-.07-1.16-.21-.35-.14-.66-.35-.92-.62-.26-.27-.46-.61-.6-1.02-.14-.4-.22-.87-.22-1.39,0-.42.06-.82.19-1.19.13-.37.32-.69.56-.96.24-.27.54-.48.89-.64.35-.15.75-.23,1.19-.23.36,0,.7.06,1.01.18s.58.3.8.53c.23.23.4.51.53.85s.19.72.19,1.16c0,.17-.02.28-.05.34-.04.06-.1.08-.2.08h-4.06c.01.38.07.72.16,1s.22.52.39.71c.17.19.37.33.6.43.23.09.49.14.78.14.27,0,.5-.03.69-.09.19-.06.36-.13.5-.2.14-.07.26-.14.35-.2.09-.06.18-.09.24-.09.09,0,.16.03.2.1l.3.39ZM148.13,147.05c0-.25-.04-.47-.11-.68s-.17-.38-.31-.53c-.13-.15-.3-.27-.49-.35s-.41-.12-.65-.12c-.51,0-.92.15-1.21.45s-.48.71-.55,1.24h3.32Z"/>
      <path class="cls-2" d="M156.83,150.75h-1.03c-.21,0-.37-.08-.47-.25l-2.23-3.07c-.07-.1-.14-.17-.22-.21s-.2-.06-.36-.06h-.88v3.59h-1.16v-8.6h2.43c.54,0,1.01.06,1.41.17.4.11.72.27.98.48s.45.46.57.75c.12.29.19.62.19.99,0,.3-.05.59-.14.85-.1.26-.24.5-.42.71-.18.21-.4.39-.67.54-.26.15-.56.26-.89.34.15.08.28.21.38.37l2.51,3.41ZM152.86,146.32c.34,0,.63-.04.89-.12.26-.08.47-.2.65-.35s.3-.33.39-.54c.09-.21.13-.44.13-.69,0-.51-.17-.9-.5-1.16s-.84-.39-1.51-.39h-1.27v3.25h1.22Z"/>
      <path class="cls-2" d="M158.33,150.88c-.05.14-.13.24-.24.31-.11.07-.22.1-.34.1h-.45l3.61-8.98c.05-.13.12-.23.22-.29.1-.07.21-.1.34-.1h.46l-3.59,8.96Z"/>
      <path class="cls-2" d="M131.77,164.17v.98h-4.88v-8.6h1.16v7.62h3.72Z"/>
      <path class="cls-2" d="M134.16,157.16c0,.1-.02.2-.06.29-.04.09-.1.17-.17.24-.07.07-.15.12-.25.17s-.19.06-.3.06-.2-.02-.29-.06-.17-.09-.24-.17c-.07-.07-.12-.15-.16-.24-.04-.09-.06-.19-.06-.29s.02-.2.06-.3c.04-.09.09-.18.16-.25.07-.07.15-.12.24-.17s.19-.06.29-.06.2.02.3.06.18.09.25.17c.07.07.13.15.17.25.04.09.06.19.06.3ZM133.93,159.07v6.08h-1.07v-6.08h1.07Z"/>
      <path class="cls-2" d="M135.68,165.15v-6.08h.64c.15,0,.25.07.28.22l.08.62c.22-.28.48-.5.76-.68.28-.18.6-.26.97-.26.41,0,.74.11.99.34.25.23.44.54.55.92.09-.22.2-.41.34-.57.14-.16.29-.29.46-.4.17-.1.35-.18.55-.23s.39-.07.59-.07c.32,0,.61.05.86.15.25.1.46.25.64.45.17.2.31.44.4.72.09.29.14.61.14.98v3.87h-1.07v-3.87c0-.48-.1-.84-.31-1.08s-.51-.37-.9-.37c-.18,0-.34.03-.5.09-.16.06-.3.15-.42.27s-.21.27-.29.45c-.07.18-.1.39-.1.63v3.87h-1.07v-3.87c0-.49-.1-.85-.29-1.09-.2-.24-.48-.36-.86-.36-.26,0-.51.07-.73.21-.22.14-.43.33-.62.58v4.53h-1.07Z"/>
      <path class="cls-2" d="M145.55,165.15v-6.08h.64c.15,0,.25.07.28.22l.08.62c.22-.28.48-.5.76-.68.28-.18.6-.26.97-.26.41,0,.74.11.99.34.25.23.44.54.55.92.09-.22.2-.41.34-.57.14-.16.29-.29.46-.4.17-.1.35-.18.55-.23s.39-.07.59-.07c.32,0,.61.05.86.15.25.1.46.25.64.45.17.2.31.44.4.72.09.29.14.61.14.98v3.87h-1.07v-3.87c0-.48-.1-.84-.31-1.08s-.51-.37-.9-.37c-.18,0-.34.03-.5.09-.16.06-.3.15-.42.27s-.21.27-.29.45c-.07.18-.1.39-.1.63v3.87h-1.07v-3.87c0-.49-.1-.85-.29-1.09-.2-.24-.48-.36-.86-.36-.26,0-.51.07-.73.21-.22.14-.43.33-.62.58v4.53h-1.07Z"/>
      <path class="cls-2" d="M155.27,159.93c.34-.32.7-.57,1.09-.73.39-.16.82-.24,1.29-.24.34,0,.64.06.91.17s.49.27.67.47.32.44.41.73c.09.28.14.6.14.94v3.89h-.47c-.1,0-.18-.02-.24-.05s-.1-.1-.13-.2l-.12-.58c-.16.15-.32.28-.47.39-.15.11-.31.21-.48.29s-.35.14-.54.18c-.19.04-.4.06-.63.06s-.46-.03-.67-.1c-.21-.07-.39-.17-.54-.3s-.28-.3-.37-.5c-.09-.2-.13-.44-.13-.72,0-.24.07-.47.2-.69.13-.22.35-.42.64-.59s.68-.31,1.16-.42,1.06-.17,1.75-.19v-.47c0-.47-.1-.83-.31-1.07s-.5-.36-.89-.36c-.26,0-.48.03-.66.1-.18.07-.33.14-.46.22s-.24.16-.34.22c-.09.07-.19.1-.28.1-.07,0-.13-.02-.19-.06s-.1-.08-.13-.14l-.19-.34ZM158.72,162.41c-.49.02-.91.05-1.26.12-.35.06-.63.14-.85.24-.22.1-.38.22-.47.35-.1.14-.15.29-.15.46s.03.3.08.41c.05.12.12.21.21.28.09.07.2.13.32.16.12.03.25.05.39.05.19,0,.36-.02.52-.06s.3-.09.44-.17c.14-.07.27-.16.4-.26s.25-.21.37-.34v-1.26Z"/>
    </g>
    <g>
      <rect class="cls-1" x="176.5" y="10" width="81" height="29"/>
      <path class="cls-2" d="M199.75,11.2v3.01h3.53v.95h-3.53v3.7h-1.16v-8.6h5.3v.95h-4.13Z"/>
      <path class="cls-2" d="M204.12,13.63c.34-.32.7-.57,1.09-.73.39-.16.82-.24,1.29-.24.34,0,.64.06.91.17.26.11.49.27.67.47.18.2.32.44.41.73.09.28.14.6.14.94v3.89h-.47c-.1,0-.18-.02-.24-.05-.06-.03-.1-.1-.13-.2l-.12-.58c-.16.15-.32.28-.47.39-.15.11-.31.21-.48.29s-.35.14-.54.18c-.19.04-.4.06-.63.06s-.46-.03-.67-.1-.39-.17-.54-.3c-.15-.13-.28-.3-.37-.5-.09-.2-.13-.44-.13-.72,0-.24.07-.47.2-.69.13-.22.35-.42.64-.59.3-.17.68-.31,1.16-.42.48-.11,1.06-.17,1.75-.19v-.47c0-.47-.1-.83-.31-1.07s-.5-.36-.89-.36c-.26,0-.49.03-.66.1s-.33.14-.46.22-.24.16-.34.22c-.09.07-.19.1-.28.1-.07,0-.13-.02-.19-.06-.05-.04-.1-.08-.13-.14l-.19-.34ZM207.57,16.11c-.49.02-.91.05-1.26.12-.35.06-.63.14-.85.24s-.38.22-.47.35c-.1.14-.15.29-.15.46s.03.3.08.41c.05.12.12.21.21.28.09.07.2.13.32.16.12.03.25.05.39.05.19,0,.36-.02.52-.06.16-.04.3-.09.44-.17.14-.07.27-.16.4-.26.13-.1.25-.21.37-.34v-1.26Z"/>
      <path class="cls-2" d="M213.78,13.77c-.05.09-.12.13-.22.13-.06,0-.13-.02-.2-.07-.08-.04-.17-.09-.28-.15-.11-.05-.24-.1-.39-.15-.15-.05-.33-.07-.54-.07-.18,0-.34.02-.49.07-.14.05-.27.11-.37.19-.1.08-.18.17-.23.28s-.08.22-.08.34c0,.16.04.29.13.39.09.1.21.19.36.27.15.08.32.14.5.2.19.06.38.12.58.19.2.07.39.14.58.22.19.08.36.18.5.3.15.12.27.27.36.44.09.17.14.38.14.63,0,.28-.05.54-.15.78-.1.24-.25.44-.44.62-.2.17-.44.31-.72.41-.28.1-.61.15-.98.15-.42,0-.81-.07-1.15-.21-.34-.14-.64-.31-.88-.53l.25-.41c.03-.05.07-.09.11-.12s.1-.04.17-.04.15.03.23.08.18.12.29.19.25.13.42.19.37.08.61.08c.21,0,.39-.03.55-.08.16-.05.29-.13.39-.22.1-.09.18-.2.23-.32s.08-.25.08-.38c0-.17-.04-.31-.14-.42-.09-.11-.21-.2-.36-.28-.15-.08-.32-.15-.51-.2-.19-.06-.38-.12-.58-.18-.2-.06-.39-.14-.58-.22-.19-.08-.36-.19-.51-.31-.15-.12-.27-.28-.36-.46s-.13-.4-.13-.66c0-.23.05-.45.14-.67.1-.21.24-.4.42-.56.18-.16.41-.29.68-.39.27-.1.57-.14.92-.14.4,0,.76.06,1.08.19.32.13.59.3.83.52l-.24.39Z"/>
      <path class="cls-2" d="M217.3,18.95c-.48,0-.85-.13-1.11-.4-.26-.27-.39-.65-.39-1.16v-3.72h-.73c-.06,0-.12-.02-.16-.06-.04-.04-.07-.1-.07-.18v-.43l1-.13.25-1.88c.01-.06.04-.11.08-.15s.1-.06.17-.06h.54v2.09h1.76v.77h-1.76v3.65c0,.26.06.45.19.57s.28.19.48.19c.11,0,.21-.02.29-.05.08-.03.15-.06.21-.1.06-.04.11-.07.15-.1.04-.03.08-.04.11-.04.06,0,.11.03.15.1l.31.51c-.18.17-.41.31-.67.41-.26.1-.53.15-.8.15Z"/>
      <path class="cls-2" d="M228.33,20.63h-.96c-.14,0-.27-.02-.38-.06s-.21-.11-.31-.21l-1.51-1.64c-.46.15-.95.23-1.48.23-.63,0-1.21-.11-1.73-.32-.52-.21-.97-.52-1.34-.9-.37-.39-.66-.85-.86-1.39s-.31-1.13-.31-1.77.1-1.23.31-1.77.49-1,.86-1.39c.37-.39.82-.69,1.34-.91.52-.22,1.1-.32,1.73-.32s1.21.11,1.73.32c.52.22.97.52,1.34.91s.66.85.86,1.39c.2.54.31,1.13.31,1.77,0,.4-.04.79-.12,1.15-.08.36-.2.7-.36,1.02-.16.31-.35.6-.57.85-.22.26-.48.48-.76.67l2.2,2.38ZM220.64,14.55c0,.53.07,1,.22,1.42.14.42.35.77.62,1.06.27.29.59.51.96.67s.79.23,1.25.23.88-.08,1.26-.23.7-.38.96-.67c.26-.29.47-.64.61-1.06.14-.42.22-.89.22-1.42s-.07-1-.22-1.42c-.14-.42-.35-.78-.61-1.07-.26-.29-.58-.51-.96-.67-.38-.16-.8-.23-1.26-.23s-.88.08-1.25.23c-.38.16-.7.38-.96.67-.27.29-.47.65-.62,1.07-.14.42-.22.89-.22,1.42Z"/>
      <path class="cls-2" d="M235.63,17.07c.06,0,.12.03.17.08l.46.5c-.35.41-.78.73-1.28.95s-1.11.34-1.82.34c-.62,0-1.18-.11-1.68-.32-.5-.21-.93-.51-1.29-.9-.36-.39-.63-.85-.83-1.39s-.29-1.13-.29-1.78.1-1.24.31-1.78.49-1,.86-1.39c.37-.39.81-.69,1.33-.9.52-.21,1.09-.32,1.71-.32s1.15.1,1.62.29.88.46,1.24.8l-.38.53s-.05.07-.09.1c-.04.03-.09.04-.15.04-.07,0-.16-.04-.26-.12-.1-.08-.24-.17-.41-.26-.17-.1-.38-.18-.63-.26-.25-.08-.56-.12-.93-.12-.44,0-.85.08-1.22.23-.37.15-.68.38-.95.67-.27.29-.47.65-.62,1.07-.15.42-.22.89-.22,1.42s.08,1.01.23,1.43c.15.42.36.77.63,1.06s.58.51.94.66c.36.15.75.23,1.17.23.26,0,.49-.02.69-.05.21-.03.4-.08.57-.14s.34-.15.49-.24c.15-.1.3-.21.45-.35.07-.06.14-.09.2-.09Z"/>
    </g>
    <g>
      <rect class="cls-1" x="176.5" y="48" width="81" height="26.25"/>
      <path class="cls-2" d="M207.33,48.25v8.6h-1.16v-3.91h-4.64v3.91h-1.16v-8.6h1.16v3.83h4.64v-3.83h1.16Z"/>
      <path class="cls-2" d="M210.54,48.86c0,.1-.02.2-.06.29-.04.09-.1.17-.17.24-.07.07-.15.12-.25.17s-.19.06-.3.06-.2-.02-.29-.06-.17-.09-.24-.17c-.07-.07-.12-.15-.16-.24-.04-.09-.06-.19-.06-.29s.02-.2.06-.3c.04-.09.09-.18.16-.25.07-.07.15-.12.24-.17s.19-.06.29-.06.2.02.3.06.18.09.25.17c.07.07.13.15.17.25.04.09.06.19.06.3ZM210.32,50.77v6.08h-1.07v-6.08h1.07Z"/>
      <path class="cls-2" d="M216.65,49.6c-.04.06-.08.1-.12.13-.04.03-.09.04-.15.04-.07,0-.15-.03-.24-.1-.09-.07-.21-.14-.34-.23-.14-.08-.3-.16-.5-.23-.19-.07-.43-.1-.71-.1-.26,0-.49.04-.69.1-.2.07-.36.17-.5.29-.13.12-.23.26-.3.42s-.1.34-.1.52c0,.24.06.44.18.6s.27.29.47.4c.19.11.41.21.66.29.25.08.5.17.76.26.26.09.51.19.76.3s.47.25.66.42.35.37.47.62c.12.24.18.54.18.9,0,.38-.06.73-.19,1.06-.13.33-.32.62-.56.86-.25.24-.55.44-.91.58-.36.14-.77.21-1.22.21-.56,0-1.07-.1-1.52-.3s-.85-.48-1.17-.82l.34-.55s.07-.08.12-.11c.05-.03.1-.04.15-.04.05,0,.11.02.18.06.07.04.14.09.22.16.08.06.18.13.29.21.11.08.23.15.37.21.14.06.29.12.47.16s.37.06.59.06c.28,0,.52-.04.74-.11.22-.08.4-.18.55-.32.15-.14.26-.3.34-.49.08-.19.12-.41.12-.64,0-.26-.06-.47-.18-.64s-.27-.3-.46-.42c-.19-.11-.41-.21-.66-.29-.25-.08-.5-.16-.76-.24s-.51-.18-.76-.29-.47-.25-.66-.42-.35-.39-.46-.65-.18-.58-.18-.96c0-.3.06-.6.18-.88s.29-.54.52-.76c.23-.22.5-.4.83-.53.33-.13.71-.2,1.14-.2.48,0,.92.08,1.31.23.39.15.74.37,1.04.66l-.28.55Z"/>
      <path class="cls-2" d="M218.27,51.63c.34-.32.7-.57,1.09-.73.39-.16.82-.24,1.29-.24.34,0,.64.06.91.17.26.11.49.27.67.47.18.2.32.44.41.73.09.28.14.6.14.94v3.89h-.47c-.1,0-.18-.02-.24-.05-.06-.03-.1-.1-.13-.2l-.12-.58c-.16.15-.32.28-.47.39-.15.11-.31.21-.48.29s-.35.14-.54.18c-.19.04-.4.06-.63.06s-.46-.03-.67-.1-.39-.17-.54-.3c-.15-.13-.28-.3-.37-.5-.09-.2-.13-.44-.13-.72,0-.24.07-.47.2-.69.13-.22.35-.42.64-.59.3-.17.68-.31,1.16-.42.48-.11,1.06-.17,1.75-.19v-.47c0-.47-.1-.83-.31-1.07s-.5-.36-.89-.36c-.26,0-.49.03-.66.1s-.33.14-.46.22-.24.16-.34.22c-.09.07-.19.1-.28.1-.07,0-.13-.02-.19-.06-.05-.04-.1-.08-.13-.14l-.19-.34ZM221.72,54.11c-.49.02-.91.05-1.26.12-.35.06-.63.14-.85.24s-.38.22-.47.35c-.1.14-.15.29-.15.46s.03.3.08.41c.05.12.12.21.21.28.09.07.2.13.32.16.12.03.25.05.39.05.19,0,.36-.02.52-.06.16-.04.3-.09.44-.17.14-.07.27-.16.4-.26.13-.1.25-.21.37-.34v-1.26Z"/>
      <path class="cls-2" d="M226.18,56.95c-.48,0-.85-.13-1.11-.4-.26-.27-.39-.65-.39-1.16v-3.72h-.73c-.06,0-.12-.02-.16-.06-.04-.04-.07-.1-.07-.18v-.43l1-.13.25-1.88c.01-.06.04-.11.08-.15s.1-.06.17-.06h.54v2.09h1.76v.77h-1.76v3.65c0,.26.06.45.19.57s.28.19.48.19c.11,0,.21-.02.29-.05.08-.03.15-.06.21-.1.06-.04.11-.07.15-.1.04-.03.08-.04.11-.04.06,0,.11.03.15.1l.31.51c-.18.17-.41.31-.67.41-.26.1-.53.15-.8.15Z"/>
      <path class="cls-2" d="M233.69,55.84c.12,0,.21.03.28.1.07.07.1.16.1.26v.65h-5.74v-.37c0-.08.02-.15.05-.23.03-.08.08-.15.15-.22l2.75-2.77c.23-.23.44-.46.62-.67.19-.21.35-.43.48-.65.13-.22.23-.44.31-.66.07-.22.11-.46.11-.71s-.04-.47-.12-.66-.19-.35-.33-.47-.3-.22-.49-.28c-.19-.06-.39-.09-.61-.09s-.42.03-.61.1-.35.15-.49.27c-.14.11-.26.25-.36.41-.1.16-.16.33-.2.52-.05.14-.11.23-.2.28s-.2.06-.34.04l-.56-.1c.06-.39.17-.74.33-1.04.16-.3.37-.56.61-.76.25-.2.53-.36.84-.47.32-.11.66-.16,1.03-.16s.7.05,1.02.16c.32.11.59.27.82.47s.41.46.55.75c.13.3.2.63.2,1.01,0,.32-.05.62-.14.89-.1.27-.23.54-.39.78s-.35.49-.57.73c-.21.24-.44.47-.68.71l-2.27,2.32c.16-.04.32-.08.49-.1.16-.03.32-.04.47-.04h2.88Z"/>
    </g>
    <g>
      <rect class="cls-1" x="176.5" y="90.5" width="81" height="29"/>
      <path class="cls-2" d="M199.6,92.1c-.04.06-.08.1-.12.13-.04.03-.09.04-.15.04-.07,0-.15-.03-.24-.1-.09-.07-.21-.14-.34-.23-.14-.08-.3-.16-.5-.23-.19-.07-.43-.1-.71-.1-.26,0-.49.04-.69.1-.2.07-.36.17-.5.29-.13.12-.23.26-.3.42s-.1.34-.1.52c0,.24.06.44.18.6s.27.29.47.4c.19.11.41.21.66.29.25.08.5.17.76.26.26.09.51.19.76.3s.47.25.66.42.35.37.47.62c.12.24.18.54.18.9,0,.38-.06.73-.19,1.06-.13.33-.32.62-.56.86-.25.24-.55.44-.91.58-.36.14-.77.21-1.22.21-.56,0-1.07-.1-1.52-.3s-.85-.48-1.17-.82l.34-.55s.07-.08.12-.11c.05-.03.1-.04.15-.04.05,0,.11.02.18.06.07.04.14.09.22.16.08.06.18.13.29.21.11.08.23.15.37.21.14.06.29.12.47.16s.37.06.59.06c.28,0,.52-.04.74-.11s.4-.18.55-.32c.15-.14.26-.3.34-.49.08-.19.12-.41.12-.64,0-.26-.06-.47-.18-.64-.12-.17-.27-.3-.46-.42-.19-.11-.41-.21-.66-.29-.25-.08-.5-.16-.76-.24s-.51-.18-.76-.29-.47-.25-.66-.42-.35-.39-.46-.65-.18-.58-.18-.96c0-.3.06-.6.18-.88s.29-.54.52-.76c.23-.22.5-.4.83-.53.33-.13.71-.2,1.14-.2.48,0,.92.08,1.31.23.39.15.74.37,1.04.66l-.28.55Z"/>
      <path class="cls-2" d="M203.05,99.45c-.48,0-.85-.13-1.11-.4-.26-.27-.39-.65-.39-1.16v-3.72h-.73c-.06,0-.12-.02-.16-.06-.04-.04-.07-.1-.07-.18v-.43l1-.13.25-1.88c.01-.06.04-.11.08-.15s.1-.06.17-.06h.54v2.09h1.76v.77h-1.76v3.65c0,.26.06.45.19.57s.28.19.48.19c.11,0,.21-.01.29-.04.08-.03.15-.06.21-.1.06-.04.11-.07.15-.1s.08-.04.11-.04c.06,0,.11.03.15.1l.31.51c-.18.17-.41.31-.67.41-.26.1-.53.15-.8.15Z"/>
      <path class="cls-2" d="M206.5,94.49c.19-.42.43-.74.71-.98.28-.23.62-.35,1.03-.35.13,0,.25.01.37.04s.22.07.31.13l-.08.8c-.02.1-.08.15-.18.15-.06,0-.14-.01-.25-.04-.11-.02-.23-.04-.37-.04-.19,0-.36.03-.51.08-.15.06-.28.14-.4.25-.12.11-.22.25-.32.41s-.18.35-.25.56v3.84h-1.07v-6.08h.61c.12,0,.2.02.24.07.04.04.07.12.09.23l.07.92Z"/>
      <path class="cls-2" d="M211.21,91.36c0,.1-.02.2-.06.29-.04.09-.1.17-.17.24-.07.07-.15.12-.25.17s-.19.06-.3.06-.2-.02-.29-.06-.17-.09-.24-.17c-.07-.07-.12-.15-.16-.24-.04-.09-.06-.19-.06-.29s.02-.2.06-.3c.04-.09.09-.18.16-.25.07-.07.15-.12.24-.17s.19-.06.29-.06.2.02.3.06.18.09.25.17c.07.07.13.15.17.25.04.09.06.19.06.3ZM210.98,93.27v6.08h-1.07v-6.08h1.07Z"/>
      <path class="cls-2" d="M213.74,94.15c.13-.15.27-.28.42-.4.15-.12.31-.22.47-.31.17-.09.34-.15.53-.2.19-.05.39-.07.6-.07.33,0,.62.05.88.17.25.11.47.27.64.47s.3.44.39.73.13.6.13.94v3.87h-1.07v-3.87c0-.46-.11-.82-.32-1.07s-.53-.38-.96-.38c-.32,0-.61.08-.88.23-.27.15-.53.36-.76.62v4.48h-1.07v-6.08h.64c.15,0,.25.07.28.22l.08.66Z"/>
      <path class="cls-2" d="M224.56,93.51v.4c0,.13-.08.22-.25.25l-.69.09c.14.26.2.56.2.88,0,.3-.06.56-.17.81s-.27.45-.47.62c-.2.17-.44.3-.72.4-.28.09-.58.14-.91.14-.28,0-.55-.03-.8-.1-.13.08-.23.17-.29.25s-.1.18-.1.27c0,.14.06.25.18.33.12.07.27.13.46.16.19.03.41.05.66.06s.5.02.76.04c.26.02.51.05.76.09s.46.12.66.22c.19.1.35.24.46.41s.18.4.18.68c0,.26-.06.51-.19.76-.13.24-.32.46-.56.65-.24.19-.54.34-.9.46-.35.11-.75.17-1.2.17s-.83-.04-1.16-.13-.61-.21-.83-.35c-.22-.15-.38-.32-.5-.51-.11-.19-.17-.4-.17-.61,0-.3.09-.55.28-.76.19-.21.45-.37.77-.5-.18-.08-.32-.19-.43-.32-.11-.13-.16-.32-.16-.54,0-.09.02-.18.05-.27.03-.09.08-.19.15-.28.07-.09.15-.18.24-.27s.21-.16.34-.22c-.3-.17-.53-.39-.7-.67-.17-.28-.25-.6-.25-.97,0-.3.06-.56.17-.81.11-.24.27-.45.48-.62s.45-.3.73-.39c.28-.09.59-.14.93-.14.26,0,.51.03.74.09.23.06.44.14.62.25h1.65ZM223.48,99.68c0-.15-.04-.27-.13-.36s-.2-.16-.34-.22c-.14-.05-.31-.09-.49-.11-.19-.02-.39-.04-.6-.05s-.42-.02-.64-.04-.42-.03-.62-.06c-.22.1-.41.23-.55.39-.14.16-.21.34-.21.55,0,.14.03.26.1.38.07.12.18.22.32.31.14.09.33.15.54.2s.47.08.77.08.55-.03.77-.08c.23-.05.42-.13.58-.22.16-.1.28-.21.36-.34s.13-.28.13-.44ZM221.55,96.38c.22,0,.41-.03.57-.09s.3-.14.41-.25.2-.24.25-.39c.06-.15.08-.31.08-.49,0-.37-.11-.67-.34-.89-.23-.22-.55-.33-.98-.33s-.76.11-.99.33c-.23.22-.34.52-.34.89,0,.18.03.34.09.49.06.15.14.28.25.39.11.11.25.19.41.25s.35.09.57.09Z"/>
      <path class="cls-2" d="M230.54,91.73h-2.78v7.62h-1.16v-7.62h-2.79v-.98h6.73v.98Z"/>
      <path class="cls-2" d="M232.89,91.36c0,.1-.02.2-.06.29-.04.09-.1.17-.17.24-.07.07-.15.12-.25.17s-.19.06-.3.06-.2-.02-.29-.06-.17-.09-.24-.17c-.07-.07-.12-.15-.16-.24-.04-.09-.06-.19-.06-.29s.02-.2.06-.3c.04-.09.09-.18.16-.25.07-.07.15-.12.24-.17s.19-.06.29-.06.2.02.3.06.18.09.25.17c.07.07.13.15.17.25.04.09.06.19.06.3ZM232.66,93.27v6.08h-1.07v-6.08h1.07Z"/>
      <path class="cls-2" d="M239.34,98.5c-.13.16-.29.3-.47.42-.18.12-.38.22-.59.29-.21.08-.43.13-.65.17-.22.04-.45.06-.67.06-.42,0-.81-.07-1.16-.21-.35-.14-.66-.35-.92-.62-.26-.27-.46-.61-.6-1.02-.14-.4-.22-.87-.22-1.39,0-.42.06-.82.19-1.19.13-.37.32-.69.56-.96s.54-.48.89-.64c.35-.15.75-.23,1.19-.23.36,0,.7.06,1.01.18.31.12.58.3.8.53.23.23.4.51.53.85s.19.72.19,1.15c0,.17-.02.28-.05.34-.04.06-.1.08-.2.08h-4.06c.01.38.07.72.16,1s.22.52.39.71c.17.19.37.33.6.43.23.09.49.14.78.14.27,0,.5-.03.69-.09.19-.06.36-.13.5-.2.14-.07.26-.14.35-.2.09-.06.18-.09.24-.09.09,0,.16.03.2.1l.3.39ZM238.48,95.65c0-.25-.04-.47-.11-.68s-.17-.38-.31-.53-.3-.27-.49-.35-.41-.12-.65-.12c-.51,0-.92.15-1.21.45s-.48.71-.55,1.24h3.32Z"/>
    </g>
    <g>
      <rect class="cls-1" x="172.5" y="127.5" width="88.33" height="40.25"/>
      <path class="cls-2" d="M196.37,127.75c.53,0,.98.05,1.37.16.38.1.7.25.94.44.25.19.43.43.54.71.12.28.17.59.17.94,0,.21-.03.42-.1.61-.07.19-.17.38-.3.54s-.3.32-.5.45-.44.24-.71.33c.63.12,1.11.34,1.42.67s.48.76.48,1.3c0,.36-.07.7-.2,1-.13.3-.33.56-.59.77-.26.22-.58.38-.95.5-.38.12-.8.18-1.28.18h-3.04v-8.6h2.74ZM194.79,128.67v2.93h1.54c.33,0,.61-.04.85-.11.24-.07.44-.17.6-.3.16-.13.27-.28.35-.46s.11-.38.11-.6c0-.51-.15-.88-.46-1.11-.3-.23-.78-.35-1.42-.35h-1.58ZM196.65,135.43c.33,0,.62-.04.86-.11s.44-.18.59-.32c.15-.14.27-.3.34-.49.07-.19.11-.4.11-.63,0-.44-.16-.79-.47-1.05-.32-.26-.79-.39-1.42-.39h-1.86v2.99h1.86Z"/>
      <path class="cls-2" d="M200.88,131.13c.34-.32.7-.57,1.09-.73.39-.16.82-.24,1.29-.24.34,0,.64.06.91.17.26.11.49.27.67.47.18.2.32.44.41.73s.14.6.14.94v3.89h-.47c-.1,0-.18-.02-.24-.05-.06-.03-.1-.1-.13-.2l-.12-.58c-.16.15-.32.28-.47.39-.15.11-.31.21-.48.29s-.35.14-.54.18c-.19.04-.4.06-.63.06s-.46-.03-.67-.1c-.21-.07-.39-.17-.54-.3-.15-.13-.28-.3-.37-.5-.09-.2-.13-.44-.13-.72,0-.24.07-.47.2-.69.13-.22.35-.42.64-.59.3-.17.68-.31,1.16-.42.48-.11,1.06-.17,1.75-.19v-.47c0-.47-.1-.83-.31-1.07s-.5-.36-.89-.36c-.26,0-.48.03-.66.1-.18.07-.33.14-.46.22s-.24.16-.34.22-.19.1-.28.1c-.07,0-.13-.02-.19-.06s-.1-.08-.13-.14l-.19-.34ZM204.33,133.61c-.49.02-.91.05-1.26.12-.35.06-.63.14-.85.24-.22.1-.38.22-.47.35-.1.14-.15.29-.15.46s.03.3.08.41c.05.12.12.21.21.29s.2.13.32.16.25.05.39.05c.19,0,.36-.02.52-.06s.3-.09.44-.17c.14-.07.27-.16.4-.26.13-.1.25-.21.37-.34v-1.26Z"/>
      <path class="cls-2" d="M208.11,127.51v8.84h-1.07v-8.84h1.07Z"/>
      <path class="cls-2" d="M210.94,127.51v8.84h-1.07v-8.84h1.07Z"/>
      <path class="cls-2" d="M217.8,130.51v.4c0,.13-.08.22-.25.25l-.69.09c.14.26.2.56.2.88,0,.3-.06.57-.17.81-.11.24-.27.45-.47.62s-.44.3-.72.4c-.28.09-.58.14-.91.14-.28,0-.55-.03-.8-.1-.13.08-.23.17-.29.25-.07.09-.1.18-.1.27,0,.14.06.25.18.33.12.07.27.13.46.16.19.03.41.05.66.06s.5.02.76.04c.26.02.51.05.76.09.25.04.46.12.66.22.19.1.35.24.46.41.12.18.18.4.18.68,0,.26-.07.51-.2.76-.13.24-.32.46-.56.65-.24.19-.54.34-.9.46-.35.11-.75.17-1.2.17s-.83-.04-1.16-.13-.61-.21-.83-.35c-.22-.15-.39-.32-.5-.51-.11-.19-.17-.4-.17-.61,0-.3.09-.55.28-.76.19-.21.45-.37.77-.5-.18-.08-.32-.19-.43-.32-.11-.13-.16-.32-.16-.54,0-.09.02-.18.05-.27s.08-.19.15-.28c.07-.09.15-.18.24-.27.1-.08.21-.16.34-.22-.3-.17-.53-.39-.7-.67-.17-.28-.25-.6-.25-.97,0-.3.06-.56.17-.81.11-.24.27-.45.48-.62s.45-.3.73-.39c.28-.09.59-.14.93-.14.26,0,.51.03.74.09.23.06.44.14.62.25h1.65ZM216.71,136.68c0-.15-.04-.27-.13-.36s-.2-.16-.34-.22-.31-.09-.5-.11c-.19-.02-.39-.04-.6-.05s-.42-.02-.64-.04c-.22-.01-.42-.03-.62-.06-.22.1-.41.23-.55.39-.14.16-.21.34-.21.55,0,.14.04.26.11.38.07.12.18.22.32.31.14.09.33.15.54.2.22.05.48.08.77.08s.55-.03.77-.08c.23-.05.42-.13.58-.22.16-.1.28-.21.36-.34s.13-.28.13-.44ZM214.79,133.38c.22,0,.41-.03.57-.09.16-.06.3-.14.41-.25.11-.11.2-.24.25-.39.06-.15.08-.32.08-.5,0-.37-.11-.67-.34-.89-.23-.22-.55-.33-.98-.33s-.76.11-.99.33c-.23.22-.34.52-.34.89,0,.18.03.34.09.5s.14.28.25.39c.11.11.25.19.41.25.16.06.35.09.57.09Z"/>
      <path class="cls-2" d="M221.37,130.18c.44,0,.84.07,1.2.22.36.15.66.36.91.63.25.27.45.6.58.99.13.39.2.82.2,1.29s-.07.91-.2,1.3-.33.71-.58.98c-.25.27-.56.48-.91.63-.36.15-.76.22-1.2.22s-.85-.07-1.21-.22c-.36-.15-.66-.36-.92-.63-.25-.27-.45-.6-.58-.98-.13-.38-.2-.82-.2-1.3s.07-.91.2-1.29c.13-.39.33-.71.58-.99.25-.27.56-.48.92-.63.36-.15.76-.22,1.21-.22ZM221.37,135.6c.6,0,1.05-.2,1.34-.6.3-.4.44-.96.44-1.68s-.15-1.29-.44-1.69c-.3-.4-.74-.61-1.34-.61-.3,0-.57.05-.8.16-.23.1-.41.25-.56.45-.15.2-.26.44-.34.72s-.11.61-.11.97c0,.72.15,1.28.45,1.68.3.4.75.6,1.36.6Z"/>
      <path class="cls-2" d="M233.91,130.27l-1.97,6.08h-.85c-.1,0-.18-.07-.22-.2l-1.34-4.12c-.03-.09-.06-.18-.08-.28-.02-.09-.04-.19-.06-.28-.02.09-.04.18-.06.28-.02.09-.05.19-.08.29l-1.37,4.12c-.04.14-.12.2-.24.2h-.8l-1.97-6.08h.84c.08,0,.15.02.21.07.06.04.1.1.12.16l1.16,3.91c.07.29.12.56.16.82.04-.13.07-.27.11-.4s.08-.27.12-.41l1.28-3.94c.02-.06.05-.11.1-.15.05-.04.11-.06.18-.06h.47c.08,0,.15.02.2.06.05.04.09.09.11.15l1.25,3.94c.04.14.08.28.12.41s.07.27.1.4c.02-.13.04-.27.08-.4.03-.13.06-.27.1-.42l1.19-3.91c.02-.06.06-.12.11-.16s.12-.06.2-.06h.8Z"/>
      <path class="cls-2" d="M235.96,131.15c.13-.15.27-.28.42-.4.15-.12.31-.22.47-.31s.34-.15.53-.2c.19-.05.39-.07.6-.07.33,0,.62.05.88.17.25.11.47.27.64.47s.3.44.39.73.13.6.13.94v3.87h-1.07v-3.87c0-.46-.11-.82-.32-1.07s-.53-.38-.96-.38c-.32,0-.61.08-.88.23-.27.15-.53.36-.76.62v4.48h-1.07v-6.08h.64c.15,0,.25.07.28.22l.08.66Z"/>
    </g>
    <g>
      <rect class="cls-1" x="234.5" y="10" width="81" height="29"/>
      <path class="cls-2" d="M257.75,11.2v3.01h3.53v.95h-3.53v3.7h-1.16v-8.6h5.3v.95h-4.13Z"/>
      <path class="cls-2" d="M262.12,13.63c.34-.32.7-.57,1.09-.73.39-.16.82-.24,1.29-.24.34,0,.64.06.91.17.26.11.49.27.67.47.18.2.32.44.41.73.09.28.14.6.14.94v3.89h-.47c-.1,0-.18-.02-.24-.05-.06-.03-.1-.1-.13-.2l-.12-.58c-.16.15-.32.28-.47.39-.15.11-.31.21-.48.29s-.35.14-.54.18c-.19.04-.4.06-.63.06s-.46-.03-.67-.1-.39-.17-.54-.3c-.15-.13-.28-.3-.37-.5-.09-.2-.13-.44-.13-.72,0-.24.07-.47.2-.69.13-.22.35-.42.64-.59.3-.17.68-.31,1.16-.42.48-.11,1.06-.17,1.75-.19v-.47c0-.47-.1-.83-.31-1.07s-.5-.36-.89-.36c-.26,0-.49.03-.66.1s-.33.14-.46.22-.24.16-.34.22c-.09.07-.19.1-.28.1-.07,0-.13-.02-.19-.06-.05-.04-.1-.08-.13-.14l-.19-.34ZM265.57,16.11c-.49.02-.91.05-1.26.12-.35.06-.63.14-.85.24s-.38.22-.47.35c-.1.14-.15.29-.15.46s.03.3.08.41c.05.12.12.21.21.28.09.07.2.13.32.16.12.03.25.05.39.05.19,0,.36-.02.52-.06.16-.04.3-.09.44-.17.14-.07.27-.16.4-.26.13-.1.25-.21.37-.34v-1.26Z"/>
      <path class="cls-2" d="M271.78,13.77c-.05.09-.12.13-.22.13-.06,0-.13-.02-.2-.07-.08-.04-.17-.09-.28-.15-.11-.05-.24-.1-.39-.15-.15-.05-.33-.07-.54-.07-.18,0-.34.02-.49.07-.14.05-.27.11-.37.19-.1.08-.18.17-.23.28s-.08.22-.08.34c0,.16.04.29.13.39.09.1.21.19.36.27.15.08.32.14.5.2.19.06.38.12.58.19.2.07.39.14.58.22.19.08.36.18.5.3.15.12.27.27.36.44.09.17.14.38.14.63,0,.28-.05.54-.15.78-.1.24-.25.44-.44.62-.2.17-.44.31-.72.41-.28.1-.61.15-.98.15-.42,0-.81-.07-1.15-.21-.34-.14-.64-.31-.88-.53l.25-.41c.03-.05.07-.09.11-.12s.1-.04.17-.04.15.03.23.08.18.12.29.19.25.13.42.19.37.08.61.08c.21,0,.39-.03.55-.08.16-.05.29-.13.39-.22.1-.09.18-.2.23-.32s.08-.25.08-.38c0-.17-.04-.31-.14-.42-.09-.11-.21-.2-.36-.28-.15-.08-.32-.15-.51-.2-.19-.06-.38-.12-.58-.18-.2-.06-.39-.14-.58-.22-.19-.08-.36-.19-.51-.31-.15-.12-.27-.28-.36-.46s-.13-.4-.13-.66c0-.23.05-.45.14-.67.1-.21.24-.4.42-.56.18-.16.41-.29.68-.39.27-.1.57-.14.92-.14.4,0,.76.06,1.08.19.32.13.59.3.83.52l-.24.39Z"/>
      <path class="cls-2" d="M275.3,18.95c-.48,0-.85-.13-1.11-.4-.26-.27-.39-.65-.39-1.16v-3.72h-.73c-.06,0-.12-.02-.16-.06-.04-.04-.07-.1-.07-.18v-.43l1-.13.25-1.88c.01-.06.04-.11.08-.15s.1-.06.17-.06h.54v2.09h1.76v.77h-1.76v3.65c0,.26.06.45.19.57s.28.19.48.19c.11,0,.21-.02.29-.05.08-.03.15-.06.21-.1.06-.04.11-.07.15-.1.04-.03.08-.04.11-.04.06,0,.11.03.15.1l.31.51c-.18.17-.41.31-.67.41-.26.1-.53.15-.8.15Z"/>
      <path class="cls-2" d="M286.33,20.63h-.96c-.14,0-.27-.02-.38-.06s-.21-.11-.31-.21l-1.51-1.64c-.46.15-.95.23-1.48.23-.63,0-1.21-.11-1.73-.32-.52-.21-.97-.52-1.34-.9-.37-.39-.66-.85-.86-1.39s-.31-1.13-.31-1.77.1-1.23.31-1.77.49-1,.86-1.39c.37-.39.82-.69,1.34-.91.52-.22,1.1-.32,1.73-.32s1.21.11,1.73.32c.52.22.97.52,1.34.91s.66.85.86,1.39c.2.54.31,1.13.31,1.77,0,.4-.04.79-.12,1.15-.08.36-.2.7-.36,1.02-.16.31-.35.6-.57.85-.22.26-.48.48-.76.67l2.2,2.38ZM278.64,14.55c0,.53.07,1,.22,1.42.14.42.35.77.62,1.06.27.29.59.51.96.67s.79.23,1.25.23.88-.08,1.26-.23.7-.38.96-.67c.26-.29.47-.64.61-1.06.14-.42.22-.89.22-1.42s-.07-1-.22-1.42c-.14-.42-.35-.78-.61-1.07-.26-.29-.58-.51-.96-.67-.38-.16-.8-.23-1.26-.23s-.88.08-1.25.23c-.38.16-.7.38-.96.67-.27.29-.47.65-.62,1.07-.14.42-.22.89-.22,1.42Z"/>
      <path class="cls-2" d="M293.63,17.07c.06,0,.12.03.17.08l.46.5c-.35.41-.78.73-1.28.95s-1.11.34-1.82.34c-.62,0-1.18-.11-1.68-.32-.5-.21-.93-.51-1.29-.9-.36-.39-.63-.85-.83-1.39s-.29-1.13-.29-1.78.1-1.24.31-1.78.49-1,.86-1.39c.37-.39.81-.69,1.33-.9.52-.21,1.09-.32,1.71-.32s1.15.1,1.62.29.88.46,1.24.8l-.38.53s-.05.07-.09.1c-.04.03-.09.04-.15.04-.07,0-.16-.04-.26-.12-.1-.08-.24-.17-.41-.26-.17-.1-.38-.18-.63-.26-.25-.08-.56-.12-.93-.12-.44,0-.85.08-1.22.23-.37.15-.68.38-.95.67-.27.29-.47.65-.62,1.07-.15.42-.22.89-.22,1.42s.08,1.01.23,1.43c.15.42.36.77.63,1.06s.58.51.94.66c.36.15.75.23,1.17.23.26,0,.49-.02.69-.05.21-.03.4-.08.57-.14s.34-.15.49-.24c.15-.1.3-.21.45-.35.07-.06.14-.09.2-.09Z"/>
    </g>
    <g>
      <rect class="cls-1" x="235.5" y="60" width="81" height="26.25"/>
      <path class="cls-2" d="M254.1,60.35v9.52h1.01c.09,0,.16.03.21.08.05.06.08.12.08.2v.42h-2.21v-10.93h2.21v.42c0,.08-.03.15-.08.2-.05.05-.13.08-.21.08h-1.01Z"/>
      <path class="cls-2" d="M258.03,64.02h.44c.15,0,.27-.02.37-.06.09-.04.18-.1.25-.19l2.86-3.24c.08-.1.16-.18.25-.22.09-.04.2-.06.32-.06h.98l-3.28,3.7c-.08.1-.16.17-.23.24-.07.06-.15.11-.24.15.11.04.21.09.29.16.09.07.17.16.26.27l3.42,4.07h-1.01c-.08,0-.14,0-.2-.02-.05,0-.1-.03-.14-.05s-.08-.05-.1-.08c-.03-.03-.06-.06-.09-.1l-2.96-3.41c-.08-.1-.17-.17-.26-.21s-.23-.06-.42-.06h-.53v3.94h-1.16v-8.6h1.16v3.77Z"/>
      <path class="cls-2" d="M264.38,63.63c.34-.32.7-.57,1.09-.73.39-.16.82-.24,1.29-.24.34,0,.64.06.91.17.26.11.49.27.67.47.18.2.32.44.41.73.09.28.14.6.14.94v3.89h-.47c-.1,0-.18-.02-.24-.05-.06-.03-.1-.1-.13-.2l-.12-.58c-.16.15-.32.28-.47.39-.15.11-.31.21-.48.29s-.35.14-.54.18c-.19.04-.4.06-.63.06s-.46-.03-.67-.1-.39-.17-.54-.3c-.15-.13-.28-.3-.37-.5-.09-.2-.13-.44-.13-.72,0-.24.07-.47.2-.69s.35-.42.64-.59c.3-.17.68-.31,1.16-.42.48-.11,1.06-.17,1.75-.19v-.47c0-.47-.1-.83-.31-1.07s-.5-.36-.89-.36c-.26,0-.48.03-.66.1-.18.07-.33.14-.46.22s-.24.16-.34.22c-.09.07-.19.1-.28.1-.07,0-.13-.02-.19-.06s-.1-.08-.13-.14l-.19-.34ZM267.83,66.11c-.49.02-.91.05-1.26.12s-.63.14-.85.24c-.22.1-.38.22-.47.35-.1.14-.15.29-.15.46s.03.3.08.41c.05.12.12.21.21.28.09.07.2.13.32.16.12.03.25.05.39.05.19,0,.36-.02.52-.06s.3-.09.44-.17c.14-.07.27-.16.4-.26.13-.1.25-.21.37-.34v-1.26Z"/>
      <path class="cls-2" d="M271.61,60.01v8.84h-1.07v-8.84h1.07Z"/>
      <path class="cls-2" d="M274.44,60.01v8.84h-1.07v-8.84h1.07Z"/>
      <path class="cls-2" d="M277.52,60.86c0,.1-.02.2-.06.29-.04.09-.1.17-.17.24-.07.07-.15.12-.25.17s-.19.06-.3.06-.2-.02-.29-.06-.17-.09-.24-.17c-.07-.07-.12-.15-.16-.24-.04-.09-.06-.19-.06-.29s.02-.2.06-.3c.04-.09.09-.18.16-.25.07-.07.15-.12.24-.17s.19-.06.29-.06.2.02.3.06.18.09.25.17c.07.07.13.15.17.25.04.09.06.19.06.3ZM277.29,62.77v6.08h-1.07v-6.08h1.07Z"/>
      <path class="cls-2" d="M282.59,63.77c-.05.09-.12.13-.22.13-.06,0-.13-.02-.2-.07-.08-.04-.17-.09-.28-.15-.11-.05-.24-.1-.39-.15-.15-.05-.33-.07-.54-.07-.18,0-.34.02-.49.07-.14.05-.27.11-.37.19-.1.08-.18.17-.23.28-.05.11-.08.22-.08.34,0,.16.04.29.13.39s.21.19.36.27c.15.08.32.14.5.2.19.06.38.12.58.19.2.07.39.14.58.22.19.08.36.18.5.3.15.12.27.27.36.44.09.17.13.38.13.63,0,.28-.05.54-.15.78-.1.24-.25.44-.44.62-.2.17-.44.31-.72.41-.28.1-.61.15-.98.15-.42,0-.81-.07-1.15-.21-.34-.14-.64-.31-.88-.53l.25-.41c.03-.05.07-.09.11-.12s.1-.04.17-.04c.07,0,.15.03.23.08s.18.12.29.19c.11.07.25.13.42.19s.37.08.61.08c.21,0,.39-.03.55-.08.16-.05.29-.13.39-.22.1-.09.18-.2.23-.32.05-.12.08-.25.08-.38,0-.17-.04-.31-.13-.42-.09-.11-.21-.2-.36-.28-.15-.08-.32-.15-.51-.2-.19-.06-.38-.12-.58-.18s-.39-.14-.58-.22c-.19-.08-.36-.19-.51-.31-.15-.12-.27-.28-.36-.46-.09-.18-.14-.4-.14-.66,0-.23.05-.45.14-.67.1-.21.24-.4.42-.56.18-.16.41-.29.68-.39.27-.1.57-.14.92-.14.4,0,.76.06,1.08.19s.59.3.83.52l-.24.39Z"/>
      <path class="cls-2" d="M286.11,68.95c-.48,0-.85-.13-1.11-.4-.26-.27-.39-.65-.39-1.16v-3.72h-.73c-.06,0-.12-.02-.16-.06-.04-.04-.07-.1-.07-.18v-.43l1-.13.25-1.88c.01-.06.04-.11.08-.15s.1-.06.17-.06h.54v2.09h1.76v.77h-1.76v3.65c0,.26.06.45.19.57s.28.19.48.19c.11,0,.21-.02.29-.05.08-.03.15-.06.21-.1.06-.04.11-.07.15-.1.04-.03.08-.04.11-.04.06,0,.11.03.15.1l.31.51c-.18.17-.41.31-.67.41-.26.1-.53.15-.8.15Z"/>
      <path class="cls-2" d="M291.08,62.68c.44,0,.84.07,1.2.22.36.15.66.36.91.63s.45.6.58.99.2.82.2,1.29-.07.91-.2,1.3c-.13.38-.33.71-.58.98-.25.27-.56.48-.91.63-.36.15-.76.22-1.2.22s-.85-.07-1.21-.22c-.36-.15-.66-.35-.92-.63-.25-.27-.45-.6-.58-.98-.13-.38-.2-.82-.2-1.3s.07-.91.2-1.29c.13-.39.33-.71.58-.99s.56-.48.92-.63c.36-.15.76-.22,1.21-.22ZM291.08,68.1c.6,0,1.05-.2,1.34-.6s.44-.96.44-1.68-.15-1.29-.44-1.69c-.3-.4-.74-.61-1.34-.61-.3,0-.57.05-.8.16-.23.1-.41.25-.56.45-.15.2-.26.44-.34.72s-.11.61-.11.97c0,.72.15,1.28.45,1.68s.75.6,1.36.6Z"/>
      <path class="cls-2" d="M295.9,68.98c-.05.14-.13.24-.24.31-.11.07-.22.1-.34.1h-.45l3.61-8.98c.05-.13.12-.23.22-.29.1-.07.21-.1.34-.1h.46l-3.59,8.96Z"/>
      <path class="cls-2" d="M260.54,76c-.04.06-.08.1-.12.13-.04.03-.09.04-.15.04-.07,0-.15-.03-.24-.1-.09-.07-.21-.14-.34-.23-.14-.08-.3-.16-.5-.23-.19-.07-.43-.1-.71-.1-.26,0-.49.04-.69.1-.2.07-.36.17-.5.29-.13.12-.23.26-.3.42s-.1.34-.1.52c0,.24.06.44.18.6s.27.29.47.4c.19.11.41.21.66.29.25.08.5.17.76.26.26.09.51.19.76.3s.47.25.66.42.35.37.47.62c.12.24.18.54.18.9,0,.38-.06.73-.19,1.06-.13.33-.32.62-.56.86-.25.24-.55.44-.91.58-.36.14-.77.21-1.22.21-.56,0-1.07-.1-1.52-.3s-.85-.48-1.17-.82l.34-.55s.07-.08.12-.11c.05-.03.1-.04.15-.04.05,0,.11.02.18.06.07.04.14.09.22.16.08.06.18.13.29.21.11.08.23.15.37.21.14.06.29.12.47.16s.37.06.59.06c.28,0,.52-.04.74-.11.22-.08.4-.18.55-.32.15-.14.26-.3.34-.49.08-.19.12-.41.12-.64,0-.26-.06-.47-.18-.64s-.27-.3-.46-.42c-.19-.11-.41-.21-.66-.29-.25-.08-.5-.16-.76-.24s-.51-.18-.76-.29-.47-.25-.66-.42-.35-.39-.46-.65-.18-.58-.18-.96c0-.3.06-.6.18-.88s.29-.54.52-.76c.23-.22.5-.4.83-.53.33-.13.71-.2,1.14-.2.48,0,.92.08,1.31.23.39.15.74.37,1.04.66l-.28.55Z"/>
      <path class="cls-2" d="M262.16,78.03c.34-.32.7-.57,1.09-.73.39-.16.82-.24,1.29-.24.34,0,.64.06.91.17.26.11.49.27.67.47.18.2.32.44.41.73.09.28.14.6.14.94v3.89h-.47c-.1,0-.18-.02-.24-.05-.06-.03-.1-.1-.13-.2l-.12-.58c-.16.15-.32.28-.47.39-.15.11-.31.21-.48.29s-.35.14-.54.18c-.19.04-.4.06-.63.06s-.46-.03-.67-.1-.39-.17-.54-.3c-.15-.13-.28-.3-.37-.5-.09-.2-.13-.44-.13-.72,0-.24.07-.47.2-.69.13-.22.35-.42.64-.59.3-.17.68-.31,1.16-.42.48-.11,1.06-.17,1.75-.19v-.47c0-.47-.1-.83-.31-1.07s-.5-.36-.89-.36c-.26,0-.49.03-.66.1s-.33.14-.46.22-.24.16-.34.22c-.09.07-.19.1-.28.1-.07,0-.13-.02-.19-.06-.05-.04-.1-.08-.13-.14l-.19-.34ZM265.61,80.51c-.49.02-.91.05-1.26.12-.35.06-.63.14-.85.24s-.38.22-.47.35c-.1.14-.15.29-.15.46s.03.3.08.41c.05.12.12.21.21.28.09.07.2.13.32.16.12.03.25.05.39.05.19,0,.36-.02.52-.06.16-.04.3-.09.44-.17.14-.07.27-.16.4-.26.13-.1.25-.21.37-.34v-1.26Z"/>
      <path class="cls-2" d="M269.39,74.41v8.84h-1.07v-8.84h1.07Z"/>
      <path class="cls-2" d="M271.11,83.25v-6.08h.64c.15,0,.25.07.28.22l.08.62c.22-.28.48-.5.76-.68.28-.18.6-.26.97-.26.41,0,.74.11.99.34s.44.54.55.92c.09-.22.2-.41.34-.57.14-.16.29-.29.46-.4s.36-.18.55-.23c.19-.05.39-.07.59-.07.32,0,.6.05.85.15s.46.25.64.45c.17.2.31.44.4.72.09.29.14.61.14.98v3.87h-1.07v-3.87c0-.48-.1-.84-.31-1.08s-.51-.37-.9-.37c-.18,0-.34.03-.5.09-.16.06-.3.15-.42.27-.12.12-.22.27-.29.45-.07.18-.11.39-.11.63v3.87h-1.07v-3.87c0-.49-.1-.85-.29-1.09-.2-.24-.48-.36-.86-.36-.26,0-.51.07-.73.21-.22.14-.43.33-.62.58v4.53h-1.07Z"/>
      <path class="cls-2" d="M283.55,77.08c.44,0,.84.07,1.2.22.36.15.66.36.91.63s.44.6.58.99c.13.39.2.82.2,1.29s-.07.91-.2,1.3c-.13.38-.33.71-.58.98-.25.27-.56.48-.91.63-.36.15-.76.22-1.2.22s-.85-.07-1.21-.22c-.36-.15-.66-.35-.92-.63-.25-.27-.45-.6-.58-.98-.13-.38-.2-.82-.2-1.3s.07-.91.2-1.29.33-.71.58-.99.56-.48.92-.63.76-.22,1.21-.22ZM283.55,82.5c.6,0,1.05-.2,1.34-.6s.44-.96.44-1.68-.15-1.29-.44-1.69c-.3-.4-.74-.61-1.34-.61-.3,0-.57.05-.79.16-.23.1-.41.25-.56.45-.15.2-.26.44-.34.72-.07.29-.11.61-.11.97,0,.72.15,1.28.45,1.68.3.4.75.6,1.36.6Z"/>
      <path class="cls-2" d="M288.8,78.05c.13-.15.27-.28.42-.4.15-.12.3-.22.47-.31.17-.09.34-.15.53-.2.19-.05.39-.07.6-.07.33,0,.62.05.88.17.25.11.47.27.64.47.17.2.3.44.39.73s.13.6.13.94v3.87h-1.07v-3.87c0-.46-.1-.82-.31-1.07s-.53-.38-.96-.38c-.32,0-.61.08-.88.23-.27.15-.53.36-.76.62v4.48h-1.07v-6.08h.64c.15,0,.25.07.28.22l.08.66Z"/>
      <path class="cls-2" d="M295.86,84.98h-2.21v-.42c0-.08.03-.15.08-.2s.12-.08.21-.08h1.01v-9.52h-1.01c-.09,0-.16-.03-.21-.08-.05-.05-.08-.12-.08-.2v-.42h2.21v10.93Z"/>
    </g>
    <g>
      <rect class="cls-1" x="231.5" y="127.5" width="88.33" height="40.25"/>
      <path class="cls-2" d="M264.53,129.1c-.04.06-.08.1-.12.13s-.09.04-.15.04c-.07,0-.15-.03-.24-.1-.09-.07-.21-.14-.34-.23s-.3-.16-.5-.22c-.19-.07-.43-.1-.71-.1-.26,0-.49.04-.69.11s-.36.17-.5.29-.24.26-.3.42c-.07.16-.1.34-.1.52,0,.24.06.44.18.6s.27.29.47.4c.19.11.41.21.66.29.25.08.5.17.76.26.26.09.51.19.76.3.25.11.47.25.66.42.19.17.35.37.47.62.12.24.18.54.18.9,0,.38-.06.73-.19,1.06-.13.33-.31.62-.56.86s-.55.44-.91.58c-.36.14-.76.21-1.22.21-.56,0-1.07-.1-1.52-.3s-.85-.48-1.17-.82l.34-.55s.07-.08.12-.11.1-.04.15-.04c.05,0,.11.02.18.06s.14.09.22.16c.08.06.18.13.29.21.11.08.23.15.37.21.14.06.29.12.47.16.18.04.37.06.59.06.28,0,.52-.04.74-.11.22-.08.4-.18.55-.32.15-.14.26-.3.34-.49.08-.19.12-.41.12-.64,0-.26-.06-.47-.18-.64-.12-.17-.27-.3-.47-.42-.19-.11-.41-.21-.66-.29-.25-.08-.5-.16-.76-.24-.26-.08-.51-.18-.76-.29-.25-.11-.47-.25-.66-.42-.19-.17-.35-.39-.46-.64s-.18-.58-.18-.96c0-.3.06-.6.18-.88s.29-.54.52-.76c.23-.22.5-.4.83-.53s.71-.2,1.14-.2c.48,0,.92.08,1.31.23.39.15.74.37,1.04.66l-.28.55Z"/>
      <path class="cls-2" d="M267.39,127.51v8.84h-1.07v-8.84h1.07Z"/>
      <path class="cls-2" d="M274.05,135.5c-.13.16-.29.3-.47.42-.18.12-.38.22-.59.29-.21.08-.43.13-.65.17-.22.04-.45.06-.67.06-.42,0-.81-.07-1.16-.21-.35-.14-.66-.35-.92-.62-.26-.27-.46-.61-.6-1.02-.14-.4-.22-.87-.22-1.39,0-.42.07-.82.2-1.19.13-.37.32-.69.56-.96.24-.27.54-.48.89-.64.35-.15.75-.23,1.19-.23.36,0,.7.06,1.01.18.31.12.58.3.8.53.23.23.4.51.53.85.13.34.19.72.19,1.16,0,.17-.02.28-.05.34s-.1.08-.2.08h-4.06c.01.38.06.72.16,1,.09.28.23.52.39.71.17.19.37.33.6.43.23.09.49.14.78.14.27,0,.5-.03.69-.09.19-.06.36-.13.5-.2.14-.07.26-.14.35-.2.09-.06.17-.09.24-.09.09,0,.16.03.2.1l.3.39ZM273.19,132.65c0-.25-.04-.47-.1-.68-.07-.21-.17-.38-.31-.53-.13-.15-.3-.27-.49-.35-.19-.08-.41-.12-.65-.12-.51,0-.92.15-1.21.45s-.48.71-.56,1.24h3.32Z"/>
      <path class="cls-2" d="M280.46,130.27v6.08h-.64c-.15,0-.25-.07-.29-.22l-.08-.65c-.26.29-.56.53-.89.71-.33.18-.7.27-1.13.27-.33,0-.62-.05-.88-.17s-.47-.26-.64-.46c-.17-.2-.3-.44-.39-.73-.09-.28-.13-.6-.13-.94v-3.88h1.07v3.88c0,.46.1.82.31,1.07.21.25.53.38.96.38.32,0,.61-.08.89-.23.27-.15.53-.36.76-.62v-4.48h1.07Z"/>
      <path class="cls-2" d="M284.01,136.45c-.48,0-.85-.13-1.11-.4-.26-.27-.39-.65-.39-1.16v-3.72h-.73c-.06,0-.12-.02-.16-.06-.04-.04-.07-.1-.07-.18v-.43l1-.13.25-1.88c.01-.06.04-.11.08-.15s.1-.06.17-.06h.54v2.09h1.76v.77h-1.76v3.65c0,.26.06.45.19.57s.28.19.48.19c.11,0,.21-.01.29-.04.08-.03.15-.06.21-.1.06-.04.11-.07.15-.1s.08-.04.11-.04c.06,0,.11.03.15.1l.31.51c-.18.17-.41.31-.67.41-.26.1-.53.15-.8.15Z"/>
      <path class="cls-2" d="M287.52,131.08c.26-.28.55-.5.86-.66.32-.16.68-.25,1.09-.25.33,0,.62.05.88.17.25.11.47.27.64.47s.3.44.39.73.13.6.13.94v3.87h-1.07v-3.87c0-.46-.11-.82-.32-1.07s-.53-.38-.96-.38c-.32,0-.61.08-.88.23-.27.15-.53.36-.76.62v4.48h-1.07v-8.84h1.07v3.57Z"/>
    </g>
  </g>
</svg>