<svg xmlns="http://www.w3.org/2000/svg" viewBox="0 0 245 345.34"><defs><style>.e9f24118-269b-4ce3-889e-98e9d239a688{fill:none;stroke:#575756;}.b7ef590a-1211-46f6-8338-1c2663bb80c6{fill:#a7cee3;}.\36 8a25908-f815-44e5-8839-2d2fdf4ae1aa{fill:#fb8072;}.dc10a11b-2353-4abc-a0c6-8fb2e66777f9{fill:#575756;}.\30 956bcf4-f8fa-4871-b29e-33faded428ea{fill:#fff;}.\35 a89dd36-2cf5-471e-8ec5-6848b091aed0{fill:#878787;}</style></defs><title>rnaseq</title><g id="8e6e5809-6800-44ef-8d7c-2d079c14f511" data-name="boxes"><rect class="e9f24118-269b-4ce3-889e-98e9d239a688" x="31.33" y="117.41" width="8.56" height="7.67"/><rect class="e9f24118-269b-4ce3-889e-98e9d239a688" x="11.24" y="117.41" width="20.09" height="7.67"/><rect class="b7ef590a-1211-46f6-8338-1c2663bb80c6" x="31.33" y="117.41" width="8.56" height="7.67"/><rect class="68a25908-f815-44e5-8839-2d2fdf4ae1aa" x="11.24" y="117.41" width="20.09" height="7.67"/><rect class="e9f24118-269b-4ce3-889e-98e9d239a688" x="151.44" y="117.41" width="8.56" height="7.67"/><rect class="e9f24118-269b-4ce3-889e-98e9d239a688" x="131.35" y="117.41" width="20.09" height="7.67"/><rect class="b7ef590a-1211-46f6-8338-1c2663bb80c6" x="151.44" y="117.41" width="8.56" height="7.67"/><rect class="68a25908-f815-44e5-8839-2d2fdf4ae1aa" x="131.35" y="117.41" width="20.09" height="7.67"/><rect class="e9f24118-269b-4ce3-889e-98e9d239a688" x="205.53" y="141.24" width="8.56" height="7.67"/><rect class="e9f24118-269b-4ce3-889e-98e9d239a688" x="214.09" y="141.24" width="20.09" height="7.67"/><rect class="b7ef590a-1211-46f6-8338-1c2663bb80c6" x="205.53" y="141.24" width="8.56" height="7.67"/><rect class="68a25908-f815-44e5-8839-2d2fdf4ae1aa" x="214.09" y="141.24" width="20.09" height="7.67"/></g><g id="745d22f0-fd0f-4e81-a1ee-8af7f69bff6d" data-name="text-titles"><path class="dc10a11b-2353-4abc-a0c6-8fb2e66777f9" d="M105.27,81.46h3.47v1.33h-5.08V74.11h1.61Z"/><path class="dc10a11b-2353-4abc-a0c6-8fb2e66777f9" d="M111.58,74.84a.9.9,0,0,1-.29.65,1,1,0,0,1-.3.2.9.9,0,0,1-.74,0,.84.84,0,0,1-.29-.2.84.84,0,0,1-.28-.65.9.9,0,0,1,.07-.37.81.81,0,0,1,.21-.3.84.84,0,0,1,.29-.2.9.9,0,0,1,.74,0,1,1,0,0,1,.3.2.81.81,0,0,1,.21.3A.91.91,0,0,1,111.58,74.84Zm-.23,1.79v6.16h-1.48V76.63Z"/><path class="dc10a11b-2353-4abc-a0c6-8fb2e66777f9" d="M113,82.79V73.87h1.49v3.52a2.78,2.78,0,0,1,.83-.62,2.27,2.27,0,0,1,1.08-.23,1.95,1.95,0,0,1,1.64.81,2.87,2.87,0,0,1,.46,1,4.83,4.83,0,0,1,.17,1.33,4,4,0,0,1-.19,1.28,3.09,3.09,0,0,1-.53,1,2.59,2.59,0,0,1-.83.68,2.47,2.47,0,0,1-1.1.24,2,2,0,0,1-.51-.06,1.82,1.82,0,0,1-.43-.16,1.45,1.45,0,0,1-.36-.25,2.36,2.36,0,0,1-.31-.32l-.07.41a.34.34,0,0,1-.12.22.36.36,0,0,1-.24.07Zm2.88-5.1a1.48,1.48,0,0,0-.78.19,2.24,2.24,0,0,0-.61.55v2.76a1.39,1.39,0,0,0,.55.44,1.66,1.66,0,0,0,.64.12,1.48,1.48,0,0,0,.61-.12,1.32,1.32,0,0,0,.46-.39,2.06,2.06,0,0,0,.29-.65,3.63,3.63,0,0,0,.1-.93,3.94,3.94,0,0,0-.09-.91,1.72,1.72,0,0,0-.25-.61.9.9,0,0,0-.39-.34A1.25,1.25,0,0,0,115.92,77.69Z"/><path class="dc10a11b-2353-4abc-a0c6-8fb2e66777f9" d="M119.87,82.79V76.63h.87a.41.41,0,0,1,.31.09.37.37,0,0,1,.12.28l.09.75a3,3,0,0,1,.78-.9,1.62,1.62,0,0,1,1-.33,1.28,1.28,0,0,1,.75.21l-.19,1.11a.22.22,0,0,1-.08.15.25.25,0,0,1-.16.05l-.25,0a1.47,1.47,0,0,0-.41,0,1.25,1.25,0,0,0-.79.26,1.94,1.94,0,0,0-.56.75v3.83Z"/><path class="dc10a11b-2353-4abc-a0c6-8fb2e66777f9" d="M129.42,82.79h-.67a.75.75,0,0,1-.33-.06.44.44,0,0,1-.18-.26l-.13-.44a3.73,3.73,0,0,1-.46.37,2.4,2.4,0,0,1-.46.27,2.79,2.79,0,0,1-1.11.22,2.36,2.36,0,0,1-.72-.11,1.59,1.59,0,0,1-.57-.32,1.41,1.41,0,0,1-.37-.52,1.83,1.83,0,0,1-.13-.73,1.48,1.48,0,0,1,.18-.69,1.77,1.77,0,0,1,.61-.61,4,4,0,0,1,1.13-.46,7.33,7.33,0,0,1,1.76-.18v-.36a1.35,1.35,0,0,0-.26-.92.94.94,0,0,0-.76-.3,2,2,0,0,0-.6.08,2.26,2.26,0,0,0-.41.19l-.33.19a.62.62,0,0,1-.33.08.44.44,0,0,1-.26-.07.65.65,0,0,1-.17-.2l-.27-.47a3.65,3.65,0,0,1,2.56-1,2.42,2.42,0,0,1,1,.18,2,2,0,0,1,.72.49,2.34,2.34,0,0,1,.45.75,2.93,2.93,0,0,1,.15,1Zm-2.88-.92a1.86,1.86,0,0,0,.42-.05,1.39,1.39,0,0,0,.36-.12,1.81,1.81,0,0,0,.33-.2,2.15,2.15,0,0,0,.32-.29v-1a6.45,6.45,0,0,0-1.08.08,2.54,2.54,0,0,0-.7.21.77.77,0,0,0-.37.3.59.59,0,0,0-.11.36.65.65,0,0,0,.23.57A1,1,0,0,0,126.54,81.87Z"/><path class="dc10a11b-2353-4abc-a0c6-8fb2e66777f9" d="M130.88,82.79V76.63h.87a.43.43,0,0,1,.31.09.37.37,0,0,1,.12.28l.09.75a3,3,0,0,1,.78-.9,1.62,1.62,0,0,1,1-.33,1.29,1.29,0,0,1,.76.21l-.19,1.11a.22.22,0,0,1-.08.15.25.25,0,0,1-.16.05l-.25,0a1.47,1.47,0,0,0-.41,0,1.25,1.25,0,0,0-.79.26,1.94,1.94,0,0,0-.56.75v3.83Z"/><path class="dc10a11b-2353-4abc-a0c6-8fb2e66777f9" d="M138,84.48a.61.61,0,0,1-.17.24.56.56,0,0,1-.32.08h-1.1l1.15-2.47L135,76.63h1.29a.39.39,0,0,1,.28.09.52.52,0,0,1,.14.19l1.32,3.19a3.19,3.19,0,0,1,.11.33l.09.33a3.18,3.18,0,0,1,.1-.33l.12-.33,1.24-3.19a.45.45,0,0,1,.16-.2.44.44,0,0,1,.25-.08h1.19Z"/><path class="dc10a11b-2353-4abc-a0c6-8fb2e66777f9" d="M96.73,158a.42.42,0,0,1-.15.19.36.36,0,0,1-.21.05.54.54,0,0,1-.27-.09l-.35-.21a3.66,3.66,0,0,0-.48-.2,2,2,0,0,0-.64-.1,1.74,1.74,0,0,0-.59.09,1.05,1.05,0,0,0-.42.22.91.91,0,0,0-.25.34,1.13,1.13,0,0,0-.09.45.8.8,0,0,0,.17.51,1.49,1.49,0,0,0,.46.34,3.16,3.16,0,0,0,.64.26l.73.25a5.21,5.21,0,0,1,.74.3,2.32,2.32,0,0,1,.64.43,1.76,1.76,0,0,1,.45.64,2.08,2.08,0,0,1,.17.91,2.92,2.92,0,0,1-.2,1.11,2.52,2.52,0,0,1-.59.89,2.81,2.81,0,0,1-.94.6,3.61,3.61,0,0,1-1.28.22,4.36,4.36,0,0,1-.81-.08,5,5,0,0,1-.78-.23,4.52,4.52,0,0,1-.69-.36,3.75,3.75,0,0,1-.57-.47l.47-.78a.73.73,0,0,1,.16-.14.46.46,0,0,1,.2-.05.58.58,0,0,1,.33.12l.41.27a2.92,2.92,0,0,0,.56.27,2,2,0,0,0,.77.13,1.57,1.57,0,0,0,1.07-.33,1.18,1.18,0,0,0,.38-.94.86.86,0,0,0-.18-.56,1.38,1.38,0,0,0-.45-.36,3.41,3.41,0,0,0-.64-.25l-.73-.22a6.52,6.52,0,0,1-.73-.29,2.26,2.26,0,0,1-.65-.44,2,2,0,0,1-.45-.67,2.64,2.64,0,0,1-.17-1,2.26,2.26,0,0,1,.19-.92,2.29,2.29,0,0,1,.55-.8,2.76,2.76,0,0,1,.89-.56,3.27,3.27,0,0,1,1.21-.21,4,4,0,0,1,1.41.24,3.17,3.17,0,0,1,1.11.67Z"/><path class="dc10a11b-2353-4abc-a0c6-8fb2e66777f9" d="M101,158.82a2.87,2.87,0,0,1,1.07.19,2.17,2.17,0,0,1,.84.54,2.61,2.61,0,0,1,.56.87,3.42,3.42,0,0,1,.19,1.19,2.27,2.27,0,0,1,0,.28.38.38,0,0,1-.06.17.18.18,0,0,1-.1.09.43.43,0,0,1-.17,0H99.5a2.07,2.07,0,0,0,.51,1.39,1.57,1.57,0,0,0,1.17.45,1.89,1.89,0,0,0,.62-.09,3,3,0,0,0,.46-.18l.34-.19a.53.53,0,0,1,.29-.08.33.33,0,0,1,.15,0,.4.4,0,0,1,.12.1l.43.54a2.52,2.52,0,0,1-.55.49,3.42,3.42,0,0,1-.64.31,3.2,3.2,0,0,1-.68.16,3.85,3.85,0,0,1-.67,0,3.31,3.31,0,0,1-1.19-.21,2.59,2.59,0,0,1-1-.63,3.07,3.07,0,0,1-.65-1,4.16,4.16,0,0,1-.23-1.43,3.29,3.29,0,0,1,.21-1.18,2.88,2.88,0,0,1,.58-1,2.73,2.73,0,0,1,.93-.65A3.08,3.08,0,0,1,101,158.82Zm0,1.06a1.34,1.34,0,0,0-1,.37,1.77,1.77,0,0,0-.47,1h2.78a1.63,1.63,0,0,0-.08-.55,1.11,1.11,0,0,0-.24-.44,1.09,1.09,0,0,0-.41-.31A1.41,1.41,0,0,0,101,159.88Z"/><path class="dc10a11b-2353-4abc-a0c6-8fb2e66777f9" d="M110.09,158.92v8.16h-1.48V164.3a4.48,4.48,0,0,1-.4.36,2.43,2.43,0,0,1-.44.26,2,2,0,0,1-.5.18,2.49,2.49,0,0,1-.57.06,2,2,0,0,1-.92-.21,2,2,0,0,1-.72-.61,2.71,2.71,0,0,1-.47-1,5,5,0,0,1-.17-1.35,4.33,4.33,0,0,1,.19-1.27,3.09,3.09,0,0,1,.53-1A2.63,2.63,0,0,1,106,159a2.42,2.42,0,0,1,1.09-.24,2.7,2.7,0,0,1,.52,0,2.52,2.52,0,0,1,.44.15,1.54,1.54,0,0,1,.37.23q.16.14.33.3l.07-.34a.32.32,0,0,1,.14-.21.43.43,0,0,1,.24-.06ZM107.21,164a1.46,1.46,0,0,0,.78-.2,2.36,2.36,0,0,0,.62-.54v-2.76a1.43,1.43,0,0,0-.55-.43,1.53,1.53,0,0,0-.64-.13,1.33,1.33,0,0,0-.61.13,1.12,1.12,0,0,0-.46.38,1.64,1.64,0,0,0-.29.64,3.71,3.71,0,0,0-.11.93,4,4,0,0,0,.09.92,1.81,1.81,0,0,0,.25.61.93.93,0,0,0,.4.34A1.24,1.24,0,0,0,107.21,164Z"/><path class="dc10a11b-2353-4abc-a0c6-8fb2e66777f9" d="M113,158.92v3.91a1.28,1.28,0,0,0,.27.87.94.94,0,0,0,.78.31,1.65,1.65,0,0,0,.72-.17,2.77,2.77,0,0,0,.64-.47v-4.45h1.48v6.15H116a.37.37,0,0,1-.38-.27l-.1-.49c-.13.13-.26.24-.39.35a2.27,2.27,0,0,1-.44.27,3.25,3.25,0,0,1-.5.18,2.62,2.62,0,0,1-.57.06,2.24,2.24,0,0,1-.89-.17,1.78,1.78,0,0,1-.65-.49,2,2,0,0,1-.4-.74,3.09,3.09,0,0,1-.14-.94v-3.91Z"/><path class="dc10a11b-2353-4abc-a0c6-8fb2e66777f9" d="M121.05,158.82a2.92,2.92,0,0,1,1.08.19,2.33,2.33,0,0,1,.84.54,2.44,2.44,0,0,1,.55.87,3.41,3.41,0,0,1,.2,1.19,2,2,0,0,1,0,.28.38.38,0,0,1,0,.17.19.19,0,0,1-.11.09.35.35,0,0,1-.16,0h-3.81a2.17,2.17,0,0,0,.51,1.39,1.59,1.59,0,0,0,1.18.45,1.89,1.89,0,0,0,.62-.09,3.4,3.4,0,0,0,.46-.18l.34-.19a.52.52,0,0,1,.28-.08.38.38,0,0,1,.16,0,.52.52,0,0,1,.11.1l.44.54a2.35,2.35,0,0,1-.56.49,2.91,2.91,0,0,1-.64.31,3.11,3.11,0,0,1-.67.16,3.92,3.92,0,0,1-.67,0,3.36,3.36,0,0,1-1.2-.21,2.67,2.67,0,0,1-1-.63,3.05,3.05,0,0,1-.64-1,3.94,3.94,0,0,1-.23-1.43,3.52,3.52,0,0,1,.2-1.18,2.91,2.91,0,0,1,.59-1,2.73,2.73,0,0,1,.93-.65A3,3,0,0,1,121.05,158.82Zm0,1.06a1.34,1.34,0,0,0-1,.37,1.83,1.83,0,0,0-.47,1h2.79a1.92,1.92,0,0,0-.08-.55,1.11,1.11,0,0,0-.24-.44,1.17,1.17,0,0,0-.41-.31A1.46,1.46,0,0,0,121.08,159.88Z"/><path class="dc10a11b-2353-4abc-a0c6-8fb2e66777f9" d="M124.92,165.07v-6.15h.91a.37.37,0,0,1,.38.27l.1.48a4.25,4.25,0,0,1,.39-.35,4,4,0,0,1,.44-.27,2.67,2.67,0,0,1,.5-.17,2.49,2.49,0,0,1,.57-.06,2.29,2.29,0,0,1,.9.17,1.84,1.84,0,0,1,.65.48,2.18,2.18,0,0,1,.39.74,3.14,3.14,0,0,1,.14.94v3.92h-1.48v-3.92a1.35,1.35,0,0,0-.26-.87,1,1,0,0,0-.79-.31,1.54,1.54,0,0,0-.72.18,2.46,2.46,0,0,0-.63.47v4.45Z"/><path class="dc10a11b-2353-4abc-a0c6-8fb2e66777f9" d="M136.07,160.22a.53.53,0,0,1-.13.13.3.3,0,0,1-.18.05.36.36,0,0,1-.22-.07l-.26-.16a2.06,2.06,0,0,0-.36-.15,1.49,1.49,0,0,0-.51-.07,1.59,1.59,0,0,0-.68.14,1.28,1.28,0,0,0-.49.4,1.79,1.79,0,0,0-.29.64,3.2,3.2,0,0,0-.1.85,3.36,3.36,0,0,0,.11.88,1.9,1.9,0,0,0,.3.64,1.23,1.23,0,0,0,.48.4,1.45,1.45,0,0,0,.63.13A1.84,1.84,0,0,0,135,164a1.61,1.61,0,0,0,.37-.2,2.93,2.93,0,0,0,.26-.19.36.36,0,0,1,.25-.08.3.3,0,0,1,.27.13l.42.54a2.43,2.43,0,0,1-.53.49,2.85,2.85,0,0,1-.6.31,2.73,2.73,0,0,1-.64.16,3.63,3.63,0,0,1-.65,0A2.81,2.81,0,0,1,133,165a2.53,2.53,0,0,1-.87-.62,3.1,3.1,0,0,1-.6-1,4.16,4.16,0,0,1,0-2.61,2.9,2.9,0,0,1,.57-1,2.57,2.57,0,0,1,.94-.66,3.21,3.21,0,0,1,1.28-.24,3,3,0,0,1,1.21.22,2.82,2.82,0,0,1,.93.64Z"/><path class="dc10a11b-2353-4abc-a0c6-8fb2e66777f9" d="M139.27,157.12a.86.86,0,0,1-.08.36,1.21,1.21,0,0,1-.2.3,1.1,1.1,0,0,1-.31.2.9.9,0,0,1-.37.07A.86.86,0,0,1,138,158a.93.93,0,0,1-.3-.2,1.21,1.21,0,0,1-.2-.3.86.86,0,0,1-.08-.36,1,1,0,0,1,.08-.37.92.92,0,0,1,.5-.5.86.86,0,0,1,.36-.08.91.91,0,0,1,.37.08,1.1,1.1,0,0,1,.31.2.93.93,0,0,1,.2.3A1,1,0,0,1,139.27,157.12Zm-.22,1.8v6.15h-1.48v-6.15Z"/><path class="dc10a11b-2353-4abc-a0c6-8fb2e66777f9" d="M140.72,165.07v-6.15h.91a.37.37,0,0,1,.38.27l.1.48a3.25,3.25,0,0,1,.39-.35,4,4,0,0,1,.44-.27,2.58,2.58,0,0,1,.49-.17,2.65,2.65,0,0,1,.58-.06,2.24,2.24,0,0,1,.89.17,1.87,1.87,0,0,1,.66.48,2.18,2.18,0,0,1,.39.74,3.14,3.14,0,0,1,.14.94v3.92H144.6v-3.92a1.29,1.29,0,0,0-.26-.87,1,1,0,0,0-.78-.31,1.48,1.48,0,0,0-.72.18,2.5,2.5,0,0,0-.64.47v4.45Z"/><path class="dc10a11b-2353-4abc-a0c6-8fb2e66777f9" d="M149.67,158.81a3,3,0,0,1,.75.08,2.17,2.17,0,0,1,.63.24h1.77v.55a.28.28,0,0,1-.07.21.39.39,0,0,1-.24.11l-.56.1a2.07,2.07,0,0,1,.1.33,2.22,2.22,0,0,1,0,.37,1.9,1.9,0,0,1-.18.83,1.79,1.79,0,0,1-.51.62,2.29,2.29,0,0,1-.76.4,2.93,2.93,0,0,1-1,.14,3.71,3.71,0,0,1-.67-.06.46.46,0,0,0-.29.39.28.28,0,0,0,.17.27,1.43,1.43,0,0,0,.45.13,6.05,6.05,0,0,0,.63,0l.73,0a5.42,5.42,0,0,1,.72.11,2.12,2.12,0,0,1,.64.24,1.35,1.35,0,0,1,.45.44,1.42,1.42,0,0,1,.17.72,1.72,1.72,0,0,1-.2.79,2.13,2.13,0,0,1-.59.69,2.91,2.91,0,0,1-.93.48,3.79,3.79,0,0,1-1.26.19,4.87,4.87,0,0,1-1.22-.14,2.79,2.79,0,0,1-.85-.36,1.48,1.48,0,0,1-.51-.52,1.22,1.22,0,0,1-.17-.61,1,1,0,0,1,.27-.72,1.68,1.68,0,0,1,.73-.47,1.2,1.2,0,0,1-.37-.34,1,1,0,0,1-.13-.54,1,1,0,0,1,0-.29,2,2,0,0,1,.15-.29,1.27,1.27,0,0,1,.25-.27,1.41,1.41,0,0,1,.35-.23,2,2,0,0,1-.73-.68,1.76,1.76,0,0,1-.27-1,1.78,1.78,0,0,1,.19-.83,2,2,0,0,1,.5-.63,2.38,2.38,0,0,1,.78-.39A3,3,0,0,1,149.67,158.81Zm1.63,6.52a.44.44,0,0,0-.11-.3.65.65,0,0,0-.29-.18,3.64,3.64,0,0,0-.44-.1,4.28,4.28,0,0,0-.52,0h-.58a2.62,2.62,0,0,1-.57-.06,1.24,1.24,0,0,0-.41.33.66.66,0,0,0-.15.43.52.52,0,0,0,.08.3.63.63,0,0,0,.26.25,1.88,1.88,0,0,0,.46.16,4.25,4.25,0,0,0,.69.05,3.69,3.69,0,0,0,.71-.06,1.48,1.48,0,0,0,.49-.18.85.85,0,0,0,.29-.27A.67.67,0,0,0,151.3,165.33Zm-1.63-3.49a1.35,1.35,0,0,0,.48-.07.9.9,0,0,0,.55-.53,1.29,1.29,0,0,0,.07-.4,1,1,0,0,0-.28-.73,1.41,1.41,0,0,0-1.63,0,1,1,0,0,0-.28.73,1.34,1.34,0,0,0,.07.4,1,1,0,0,0,.21.32.89.89,0,0,0,.34.21A1.33,1.33,0,0,0,149.67,161.84Z"/><rect class="e9f24118-269b-4ce3-889e-98e9d239a688" x="70.5" y="5" width="103.59" height="15.33"/><rect class="e9f24118-269b-4ce3-889e-98e9d239a688" x="22.65" y="5" width="48.52" height="15.33"/><rect class="e9f24118-269b-4ce3-889e-98e9d239a688" x="174.09" y="5" width="47.42" height="15.33"/><rect class="b7ef590a-1211-46f6-8338-1c2663bb80c6" x="70.5" y="5" width="103.59" height="15.33"/><rect class="68a25908-f815-44e5-8839-2d2fdf4ae1aa" x="22.65" y="5" width="48.52" height="15.33"/><rect class="68a25908-f815-44e5-8839-2d2fdf4ae1aa" x="174.09" y="5" width="47.42" height="15.33"/><rect class="e9f24118-269b-4ce3-889e-98e9d239a688" x="31.77" y="129.29" width="61.04" height="7.67"/><rect class="e9f24118-269b-4ce3-889e-98e9d239a688" x="11.24" y="129.29" width="20.62" height="7.67"/><rect class="e9f24118-269b-4ce3-889e-98e9d239a688" x="92.88" y="129.29" width="20.62" height="7.67"/><rect class="b7ef590a-1211-46f6-8338-1c2663bb80c6" x="31.77" y="129.29" width="61.04" height="7.67"/><rect class="68a25908-f815-44e5-8839-2d2fdf4ae1aa" x="11.24" y="129.29" width="20.62" height="7.67"/><rect class="68a25908-f815-44e5-8839-2d2fdf4ae1aa" x="92.88" y="129.29" width="20.62" height="7.67"/><rect class="e9f24118-269b-4ce3-889e-98e9d239a688" x="73.28" y="24.54" width="97.28" height="7.67"/><rect class="e9f24118-269b-4ce3-889e-98e9d239a688" x="33.36" y="24.54" width="39.93" height="7.67"/><rect class="e9f24118-269b-4ce3-889e-98e9d239a688" x="170.7" y="24.54" width="40.1" height="7.67"/><rect class="b7ef590a-1211-46f6-8338-1c2663bb80c6" x="73.28" y="24.54" width="97.28" height="7.67"/><rect class="68a25908-f815-44e5-8839-2d2fdf4ae1aa" x="33.36" y="24.54" width="39.93" height="7.67"/><rect class="68a25908-f815-44e5-8839-2d2fdf4ae1aa" x="170.7" y="24.54" width="40.1" height="7.67"/><rect class="e9f24118-269b-4ce3-889e-98e9d239a688" x="82.74" y="60.24" width="78.44" height="7.67"/><rect class="e9f24118-269b-4ce3-889e-98e9d239a688" x="50.54" y="60.24" width="32.19" height="7.67"/><rect class="e9f24118-269b-4ce3-889e-98e9d239a688" x="161.29" y="60.24" width="32.34" height="7.67"/><rect class="b7ef590a-1211-46f6-8338-1c2663bb80c6" x="82.74" y="60.24" width="78.44" height="7.67"/><rect class="68a25908-f815-44e5-8839-2d2fdf4ae1aa" x="50.54" y="60.24" width="32.19" height="7.67"/><rect class="68a25908-f815-44e5-8839-2d2fdf4ae1aa" x="161.29" y="60.24" width="32.34" height="7.67"/><rect class="e9f24118-269b-4ce3-889e-98e9d239a688" x="69.36" y="36.21" width="105.31" height="7.67"/><rect class="e9f24118-269b-4ce3-889e-98e9d239a688" x="29.25" y="36.21" width="39.93" height="7.67"/><rect class="e9f24118-269b-4ce3-889e-98e9d239a688" x="174.67" y="36.21" width="40.24" height="7.67"/><rect class="b7ef590a-1211-46f6-8338-1c2663bb80c6" x="69.36" y="36.21" width="105.31" height="7.67"/><rect class="68a25908-f815-44e5-8839-2d2fdf4ae1aa" x="29.25" y="36.21" width="39.93" height="7.67"/><rect class="68a25908-f815-44e5-8839-2d2fdf4ae1aa" x="174.67" y="36.21" width="40.24" height="7.67"/><rect class="e9f24118-269b-4ce3-889e-98e9d239a688" x="109.25" y="48.29" width="26.04" height="7.67"/><rect class="e9f24118-269b-4ce3-889e-98e9d239a688" x="69.15" y="48.29" width="39.93" height="7.67"/><rect class="e9f24118-269b-4ce3-889e-98e9d239a688" x="135.43" y="48.29" width="39.59" height="7.67"/><rect class="b7ef590a-1211-46f6-8338-1c2663bb80c6" x="109.25" y="48.29" width="26.04" height="7.67"/><rect class="68a25908-f815-44e5-8839-2d2fdf4ae1aa" x="69.15" y="48.29" width="39.93" height="7.67"/><rect class="68a25908-f815-44e5-8839-2d2fdf4ae1aa" x="135.43" y="48.29" width="39.59" height="7.67"/><rect class="e9f24118-269b-4ce3-889e-98e9d239a688" x="31.33" y="227.93" width="16.32" height="7.67"/><rect class="e9f24118-269b-4ce3-889e-98e9d239a688" x="11.24" y="227.93" width="20.09" height="7.67"/><rect class="e9f24118-269b-4ce3-889e-98e9d239a688" x="47.65" y="227.93" width="6.1" height="7.67"/><rect class="b7ef590a-1211-46f6-8338-1c2663bb80c6" x="31.33" y="227.93" width="16.32" height="7.67"/><rect class="68a25908-f815-44e5-8839-2d2fdf4ae1aa" x="11.24" y="227.93" width="20.09" height="7.67"/><rect class="68a25908-f815-44e5-8839-2d2fdf4ae1aa" x="47.65" y="227.93" width="6.1" height="7.67"/><rect class="e9f24118-269b-4ce3-889e-98e9d239a688" x="31.33" y="204.24" width="17.67" height="7.67"/><rect class="e9f24118-269b-4ce3-889e-98e9d239a688" x="11.24" y="204.24" width="20.09" height="7.67"/><rect class="e9f24118-269b-4ce3-889e-98e9d239a688" x="49" y="204.24" width="4.75" height="7.67"/><rect class="b7ef590a-1211-46f6-8338-1c2663bb80c6" x="31.33" y="204.24" width="17.67" height="7.67"/><rect class="68a25908-f815-44e5-8839-2d2fdf4ae1aa" x="11.24" y="204.24" width="20.09" height="7.67"/><rect class="68a25908-f815-44e5-8839-2d2fdf4ae1aa" x="49" y="204.24" width="4.75" height="7.67"/><rect class="e9f24118-269b-4ce3-889e-98e9d239a688" x="21.93" y="193.01" width="31.82" height="7.67"/><rect class="e9f24118-269b-4ce3-889e-98e9d239a688" x="11.24" y="193.01" width="20.09" height="7.67"/><rect class="b7ef590a-1211-46f6-8338-1c2663bb80c6" x="21.93" y="193.01" width="31.82" height="7.67"/><rect class="68a25908-f815-44e5-8839-2d2fdf4ae1aa" x="11.24" y="193.01" width="20.09" height="7.67"/><rect class="e9f24118-269b-4ce3-889e-98e9d239a688" x="21.93" y="216.46" width="31.82" height="7.67"/><rect class="e9f24118-269b-4ce3-889e-98e9d239a688" x="11.24" y="216.46" width="20.09" height="7.67"/><rect class="b7ef590a-1211-46f6-8338-1c2663bb80c6" x="21.93" y="216.46" width="31.82" height="7.67"/><rect class="68a25908-f815-44e5-8839-2d2fdf4ae1aa" x="11.24" y="216.46" width="20.09" height="7.67"/><rect class="e9f24118-269b-4ce3-889e-98e9d239a688" x="151.67" y="227.93" width="16.32" height="7.67"/><rect class="e9f24118-269b-4ce3-889e-98e9d239a688" x="131.58" y="227.93" width="20.09" height="7.67"/><rect class="e9f24118-269b-4ce3-889e-98e9d239a688" x="167.99" y="227.93" width="6.1" height="7.67"/><rect class="b7ef590a-1211-46f6-8338-1c2663bb80c6" x="151.67" y="227.93" width="16.32" height="7.67"/><rect class="68a25908-f815-44e5-8839-2d2fdf4ae1aa" x="131.58" y="227.93" width="20.09" height="7.67"/><rect class="68a25908-f815-44e5-8839-2d2fdf4ae1aa" x="167.99" y="227.93" width="6.1" height="7.67"/><rect class="e9f24118-269b-4ce3-889e-98e9d239a688" x="151.67" y="204.24" width="17.67" height="7.67"/><rect class="e9f24118-269b-4ce3-889e-98e9d239a688" x="131.58" y="204.24" width="20.09" height="7.67"/><rect class="e9f24118-269b-4ce3-889e-98e9d239a688" x="169.34" y="204.24" width="4.75" height="7.67"/><rect class="b7ef590a-1211-46f6-8338-1c2663bb80c6" x="151.67" y="204.24" width="17.67" height="7.67"/><rect class="68a25908-f815-44e5-8839-2d2fdf4ae1aa" x="131.58" y="204.24" width="20.09" height="7.67"/><rect class="68a25908-f815-44e5-8839-2d2fdf4ae1aa" x="169.34" y="204.24" width="4.75" height="7.67"/><rect class="e9f24118-269b-4ce3-889e-98e9d239a688" x="142.27" y="193.01" width="31.82" height="7.67"/><rect class="e9f24118-269b-4ce3-889e-98e9d239a688" x="131.58" y="193.01" width="20.09" height="7.67"/><rect class="b7ef590a-1211-46f6-8338-1c2663bb80c6" x="142.27" y="193.01" width="31.82" height="7.67"/><rect class="68a25908-f815-44e5-8839-2d2fdf4ae1aa" x="131.58" y="193.01" width="20.09" height="7.67"/><rect class="e9f24118-269b-4ce3-889e-98e9d239a688" x="142.27" y="216.46" width="31.82" height="7.67"/><rect class="e9f24118-269b-4ce3-889e-98e9d239a688" x="131.58" y="216.46" width="20.09" height="7.67"/><rect class="b7ef590a-1211-46f6-8338-1c2663bb80c6" x="142.27" y="216.46" width="31.82" height="7.67"/><rect class="68a25908-f815-44e5-8839-2d2fdf4ae1aa" x="131.58" y="216.46" width="20.09" height="7.67"/><rect class="e9f24118-269b-4ce3-889e-98e9d239a688" x="196.64" y="227.93" width="16.32" height="7.67"/><rect class="e9f24118-269b-4ce3-889e-98e9d239a688" x="212.96" y="227.93" width="20.09" height="7.67"/><rect class="e9f24118-269b-4ce3-889e-98e9d239a688" x="190.55" y="227.93" width="6.1" height="7.67"/><rect class="b7ef590a-1211-46f6-8338-1c2663bb80c6" x="196.64" y="227.93" width="16.32" height="7.67"/><rect class="68a25908-f815-44e5-8839-2d2fdf4ae1aa" x="212.96" y="227.93" width="20.09" height="7.67"/><rect class="68a25908-f815-44e5-8839-2d2fdf4ae1aa" x="190.55" y="227.93" width="6.1" height="7.67"/><rect class="e9f24118-269b-4ce3-889e-98e9d239a688" x="195.3" y="204.24" width="17.67" height="7.67"/><rect class="e9f24118-269b-4ce3-889e-98e9d239a688" x="212.96" y="204.24" width="20.09" height="7.67"/><rect class="e9f24118-269b-4ce3-889e-98e9d239a688" x="190.55" y="204.24" width="4.75" height="7.67"/><rect class="b7ef590a-1211-46f6-8338-1c2663bb80c6" x="195.3" y="204.24" width="17.67" height="7.67"/><rect class="68a25908-f815-44e5-8839-2d2fdf4ae1aa" x="212.96" y="204.24" width="20.09" height="7.67"/><rect class="68a25908-f815-44e5-8839-2d2fdf4ae1aa" x="190.55" y="204.24" width="4.75" height="7.67"/><rect class="e9f24118-269b-4ce3-889e-98e9d239a688" x="190.55" y="193.01" width="31.82" height="7.67"/><rect class="e9f24118-269b-4ce3-889e-98e9d239a688" x="212.96" y="193.01" width="20.09" height="7.67"/><rect class="b7ef590a-1211-46f6-8338-1c2663bb80c6" x="190.55" y="193.01" width="31.82" height="7.67"/><rect class="68a25908-f815-44e5-8839-2d2fdf4ae1aa" x="212.96" y="193.01" width="20.09" height="7.67"/><rect class="e9f24118-269b-4ce3-889e-98e9d239a688" x="190.55" y="216.46" width="31.82" height="7.67"/><rect class="e9f24118-269b-4ce3-889e-98e9d239a688" x="212.96" y="216.46" width="20.09" height="7.67"/><rect class="b7ef590a-1211-46f6-8338-1c2663bb80c6" x="190.55" y="216.46" width="31.82" height="7.67"/><rect class="68a25908-f815-44e5-8839-2d2fdf4ae1aa" x="212.96" y="216.46" width="20.09" height="7.67"/><rect class="e9f24118-269b-4ce3-889e-98e9d239a688" x="152.11" y="129.29" width="61.04" height="7.67"/><rect class="e9f24118-269b-4ce3-889e-98e9d239a688" x="131.58" y="129.29" width="20.62" height="7.67"/><rect class="e9f24118-269b-4ce3-889e-98e9d239a688" x="213.22" y="129.29" width="20.62" height="7.67"/><rect class="b7ef590a-1211-46f6-8338-1c2663bb80c6" x="152.11" y="129.29" width="61.04" height="7.67"/><rect class="68a25908-f815-44e5-8839-2d2fdf4ae1aa" x="131.58" y="129.29" width="20.62" height="7.67"/><rect class="68a25908-f815-44e5-8839-2d2fdf4ae1aa" x="213.22" y="129.29" width="20.62" height="7.67"/><path class="dc10a11b-2353-4abc-a0c6-8fb2e66777f9" d="M109.86,16.13h-1.34V7.49h1.34Z"/><path class="dc10a11b-2353-4abc-a0c6-8fb2e66777f9" d="M111.5,16.13V10h.75a.3.3,0,0,1,.32.25l.08.57a4.64,4.64,0,0,1,.39-.38,2.44,2.44,0,0,1,.43-.28A2.08,2.08,0,0,1,114,10a2.45,2.45,0,0,1,.56-.07,2.08,2.08,0,0,1,.85.17,1.67,1.67,0,0,1,.61.48,2,2,0,0,1,.37.73,3.52,3.52,0,0,1,.13,1v3.89h-1.23V12.24a1.48,1.48,0,0,0-.27-1,1,1,0,0,0-.82-.35,1.58,1.58,0,0,0-.77.2,2.7,2.7,0,0,0-.66.54v4.46Z"/><path class="dc10a11b-2353-4abc-a0c6-8fb2e66777f9" d="M121.4,11.12a.28.28,0,0,1-.25.16.52.52,0,0,1-.21-.07l-.27-.14a2.08,2.08,0,0,0-.36-.14,1.77,1.77,0,0,0-.49-.06,1.7,1.7,0,0,0-.41.05,1,1,0,0,0-.32.17.91.91,0,0,0-.2.24.81.81,0,0,0-.06.31A.56.56,0,0,0,119,12a1.78,1.78,0,0,0,.33.25,4.21,4.21,0,0,0,.47.18l.54.18c.18.07.36.14.54.23a1.62,1.62,0,0,1,.46.31,1.29,1.29,0,0,1,.46,1.07,2.07,2.07,0,0,1-.15.8,1.85,1.85,0,0,1-.43.64,2,2,0,0,1-.71.42,3,3,0,0,1-1,.15,2.72,2.72,0,0,1-.58-.06,3.08,3.08,0,0,1-.54-.16,2.65,2.65,0,0,1-.48-.23l-.39-.3.29-.5a.44.44,0,0,1,.13-.14.36.36,0,0,1,.19-.05.46.46,0,0,1,.24.08l.27.18a3.43,3.43,0,0,0,.38.18,1.75,1.75,0,0,0,.56.08,1.33,1.33,0,0,0,.47-.07,1.06,1.06,0,0,0,.33-.19.86.86,0,0,0,.2-.27.92.92,0,0,0,.06-.33.53.53,0,0,0-.13-.38,1,1,0,0,0-.33-.26,2.67,2.67,0,0,0-.48-.19l-.54-.18c-.18-.07-.36-.14-.54-.23a1.86,1.86,0,0,1-.47-.32,1.43,1.43,0,0,1-.33-.47,1.56,1.56,0,0,1-.13-.68,1.82,1.82,0,0,1,.14-.7,1.66,1.66,0,0,1,.41-.58,2,2,0,0,1,.67-.4,2.57,2.57,0,0,1,.92-.15,2.83,2.83,0,0,1,1.07.2,2.26,2.26,0,0,1,.8.54Z"/><path class="dc10a11b-2353-4abc-a0c6-8fb2e66777f9" d="M125.35,9.91a2.68,2.68,0,0,1,1,.19,2.16,2.16,0,0,1,.79.53,2.69,2.69,0,0,1,.52.87,3.51,3.51,0,0,1,.18,1.17.89.89,0,0,1-.06.4.24.24,0,0,1-.23.1H123.8a2.91,2.91,0,0,0,.15.9,2,2,0,0,0,.35.64,1.38,1.38,0,0,0,.53.37,1.65,1.65,0,0,0,.68.13,1.89,1.89,0,0,0,.62-.09,2.91,2.91,0,0,0,.46-.19l.33-.2a.56.56,0,0,1,.25-.08.26.26,0,0,1,.23.12l.35.47a2.37,2.37,0,0,1-.49.46,3.19,3.19,0,0,1-.58.3,3.55,3.55,0,0,1-.64.17,4.46,4.46,0,0,1-.63,0,2.9,2.9,0,0,1-1.12-.21,2.49,2.49,0,0,1-.9-.63,3.14,3.14,0,0,1-.6-1,4.27,4.27,0,0,1-.21-1.41,3.48,3.48,0,0,1,.19-1.18,2.84,2.84,0,0,1,.55-1,2.55,2.55,0,0,1,.87-.65A2.7,2.7,0,0,1,125.35,9.91Zm0,.94a1.36,1.36,0,0,0-1.05.4,2,2,0,0,0-.49,1.13h2.9a1.89,1.89,0,0,0-.09-.6,1.36,1.36,0,0,0-.26-.49A1.1,1.1,0,0,0,126,11,1.38,1.38,0,0,0,125.37,10.85Z"/><path class="dc10a11b-2353-4abc-a0c6-8fb2e66777f9" d="M129,16.13V10h.71a.44.44,0,0,1,.27.07.49.49,0,0,1,.1.27l.07.79a2.83,2.83,0,0,1,.67-.91,1.39,1.39,0,0,1,.93-.33,1.29,1.29,0,0,1,.35,0,1,1,0,0,1,.3.14l-.08,1a.24.24,0,0,1-.08.14.21.21,0,0,1-.12,0,1,1,0,0,1-.25,0,1.87,1.87,0,0,0-.34,0,1.25,1.25,0,0,0-.45.08,1,1,0,0,0-.36.23,1.69,1.69,0,0,0-.27.36,3.91,3.91,0,0,0-.23.5v3.8Z"/><path class="dc10a11b-2353-4abc-a0c6-8fb2e66777f9" d="M135.06,16.23a1.48,1.48,0,0,1-1.12-.43,1.74,1.74,0,0,1-.39-1.21V11h-.64a.25.25,0,0,1-.17-.06.29.29,0,0,1-.08-.21v-.52l.94-.15.27-1.77a.29.29,0,0,1,.1-.16.24.24,0,0,1,.18-.07h.63v2h1.62V11h-1.62V14.5a.68.68,0,0,0,.16.5.51.51,0,0,0,.41.18.86.86,0,0,0,.24,0l.18-.09.13-.08a.16.16,0,0,1,.1,0,.19.19,0,0,1,.17.12l.37.63a1.86,1.86,0,0,1-.68.4A2.18,2.18,0,0,1,135.06,16.23Z"/><path class="0956bcf4-f8fa-4871-b29e-33faded428ea" d="M33.29,16.13H32.21a.45.45,0,0,1-.3-.09.68.68,0,0,1-.18-.23L31,13.9H27.29l-.71,1.91a.69.69,0,0,1-.17.22.44.44,0,0,1-.3.1H25l3.43-8.64h1.42Zm-5.62-3.24h3L29.45,9.73a3.68,3.68,0,0,1-.15-.41c-.05-.16-.1-.33-.14-.52-.05.19-.1.37-.15.52l-.14.42Z"/><path class="0956bcf4-f8fa-4871-b29e-33faded428ea" d="M38.35,16.13a.3.3,0,0,1-.33-.25l-.12-.66a3.11,3.11,0,0,1-.4.41,2.39,2.39,0,0,1-.47.31,2.44,2.44,0,0,1-.53.21,2.37,2.37,0,0,1-.61.07A2.05,2.05,0,0,1,35,16a2,2,0,0,1-.72-.6,2.88,2.88,0,0,1-.47-1,5,5,0,0,1-.16-1.34,4.28,4.28,0,0,1,.18-1.27,3.22,3.22,0,0,1,.52-1,2.38,2.38,0,0,1,.84-.67,2.42,2.42,0,0,1,1.09-.24,2.13,2.13,0,0,1,.92.17,2.24,2.24,0,0,1,.68.47V7.25h1.29v8.88Zm-2-.95a1.61,1.61,0,0,0,.84-.21,2.48,2.48,0,0,0,.67-.6V11.52a1.54,1.54,0,0,0-1.3-.63,1.41,1.41,0,0,0-1.18.56,2.68,2.68,0,0,0-.43,1.64,3.82,3.82,0,0,0,.1,1,2,2,0,0,0,.27.65,1.11,1.11,0,0,0,.44.37A1.59,1.59,0,0,0,36.33,15.18Z"/><path class="0956bcf4-f8fa-4871-b29e-33faded428ea" d="M44.65,16.13a.51.51,0,0,1-.28-.06.4.4,0,0,1-.17-.23l-.12-.5a4.85,4.85,0,0,1-.46.38,3.33,3.33,0,0,1-.48.28,2.64,2.64,0,0,1-.52.17,2.87,2.87,0,0,1-.61.06,2.28,2.28,0,0,1-.7-.11,1.43,1.43,0,0,1-.55-.31,1.3,1.3,0,0,1-.37-.51,1.74,1.74,0,0,1-.14-.72,1.5,1.5,0,0,1,.19-.69,1.83,1.83,0,0,1,.63-.6,3.82,3.82,0,0,1,1.14-.44,8.38,8.38,0,0,1,1.76-.2v-.41a1.43,1.43,0,0,0-.28-1,1,1,0,0,0-.83-.33,1.67,1.67,0,0,0-.63.1,2.89,2.89,0,0,0-.43.2l-.33.2a.59.59,0,0,1-.31.09.32.32,0,0,1-.22-.07.44.44,0,0,1-.16-.17l-.23-.42A3.5,3.5,0,0,1,43,9.9a2.32,2.32,0,0,1,.94.17,1.87,1.87,0,0,1,.69.48,2.09,2.09,0,0,1,.43.74,3.16,3.16,0,0,1,.14,1v3.89Zm-2.25-.8a1.91,1.91,0,0,0,.86-.19,2.72,2.72,0,0,0,.71-.55V13.45a8.47,8.47,0,0,0-1.17.12,2.89,2.89,0,0,0-.76.22,1.07,1.07,0,0,0-.43.32.74.74,0,0,0-.13.41,1,1,0,0,0,.07.36.65.65,0,0,0,.2.26.82.82,0,0,0,.28.14A1.44,1.44,0,0,0,42.4,15.33Z"/><path class="0956bcf4-f8fa-4871-b29e-33faded428ea" d="M46.73,18.16V10h.78a.3.3,0,0,1,.33.25l.11.64a2.65,2.65,0,0,1,.41-.41,2.51,2.51,0,0,1,.46-.32A2.4,2.4,0,0,1,50,9.9a2.06,2.06,0,0,1,.94.2,2,2,0,0,1,.72.61,2.87,2.87,0,0,1,.46,1A4.9,4.9,0,0,1,52.25,13a4.26,4.26,0,0,1-.18,1.26,3.13,3.13,0,0,1-.53,1,2.49,2.49,0,0,1-.83.68,2.42,2.42,0,0,1-1.09.24,2.26,2.26,0,0,1-.92-.17,2.11,2.11,0,0,1-.68-.48v2.59Zm2.8-7.23a1.56,1.56,0,0,0-.85.22,2.21,2.21,0,0,0-.66.61v2.83a1.48,1.48,0,0,0,.59.49,1.64,1.64,0,0,0,.71.14,1.4,1.4,0,0,0,1.18-.55A2.68,2.68,0,0,0,50.92,13a4.51,4.51,0,0,0-.09-1,2.05,2.05,0,0,0-.28-.65,1,1,0,0,0-.44-.36A1.34,1.34,0,0,0,49.53,10.93Z"/><path class="0956bcf4-f8fa-4871-b29e-33faded428ea" d="M55.38,16.23a1.56,1.56,0,0,1-1.17-.43,1.66,1.66,0,0,1-.41-1.21V11h-.67a.24.24,0,0,1-.27-.27v-.52l1-.15.28-1.77a.37.37,0,0,1,.1-.16.27.27,0,0,1,.2-.07h.66v2h1.7V11h-1.7V14.5a.68.68,0,0,0,.16.5.55.55,0,0,0,.43.18,1,1,0,0,0,.26,0l.19-.09.13-.08a.17.17,0,0,1,.11,0,.19.19,0,0,1,.17.12l.39.63a2,2,0,0,1-.71.4A2.4,2.4,0,0,1,55.38,16.23Z"/><path class="0956bcf4-f8fa-4871-b29e-33faded428ea" d="M60.37,9.91a3,3,0,0,1,1,.19,2.32,2.32,0,0,1,.83.53,2.56,2.56,0,0,1,.54.87,3.26,3.26,0,0,1,.2,1.17.74.74,0,0,1-.07.4.25.25,0,0,1-.24.1H58.74a3.22,3.22,0,0,0,.16.9,1.89,1.89,0,0,0,.37.64,1.45,1.45,0,0,0,.55.37,1.88,1.88,0,0,0,.72.13,2.08,2.08,0,0,0,.65-.09,2.82,2.82,0,0,0,.48-.19l.35-.2a.63.63,0,0,1,.27-.08.29.29,0,0,1,.24.12l.36.47a2.47,2.47,0,0,1-.51.46,3.46,3.46,0,0,1-1.28.47,5.16,5.16,0,0,1-.67,0A3.29,3.29,0,0,1,59.25,16a2.73,2.73,0,0,1-.94-.63,2.87,2.87,0,0,1-.62-1,4,4,0,0,1-.23-1.41,3.48,3.48,0,0,1,.2-1.18,2.9,2.9,0,0,1,.58-1,2.61,2.61,0,0,1,.91-.65A3,3,0,0,1,60.37,9.91Zm0,.94a1.46,1.46,0,0,0-1.1.4,2,2,0,0,0-.51,1.13h3a1.89,1.89,0,0,0-.09-.6,1.57,1.57,0,0,0-.28-.49A1.16,1.16,0,0,0,61,11,1.52,1.52,0,0,0,60.39,10.85Z"/><path class="0956bcf4-f8fa-4871-b29e-33faded428ea" d="M64.18,16.13V10h.75a.47.47,0,0,1,.28.07.49.49,0,0,1,.11.27l.07.79a2.75,2.75,0,0,1,.7-.91,1.65,1.65,0,0,1,1.35-.29,1,1,0,0,1,.31.14l-.09,1a.23.23,0,0,1-.07.14.29.29,0,0,1-.14,0,1,1,0,0,1-.25,0l-.36,0a1.42,1.42,0,0,0-.48.08,1.1,1.1,0,0,0-.37.23,1.76,1.76,0,0,0-.29.36,3.91,3.91,0,0,0-.23.5v3.8Z"/><path class="dc10a11b-2353-4abc-a0c6-8fb2e66777f9" d="M16.36,8.05a.6.6,0,0,1-.17.45.84.84,0,0,1-.58.17H13.08l-.35,2a6,6,0,0,1,1.14-.12,3.18,3.18,0,0,1,1.2.2,2.31,2.31,0,0,1,1.4,1.38,3,3,0,0,1,.18,1,3.13,3.13,0,0,1-.24,1.25,2.9,2.9,0,0,1-.67,1,2.94,2.94,0,0,1-1,.61,3.61,3.61,0,0,1-1.25.22,3.67,3.67,0,0,1-.75-.08,4.38,4.38,0,0,1-.67-.21,3.85,3.85,0,0,1-.57-.32,3.79,3.79,0,0,1-.48-.37l.4-.55a.38.38,0,0,1,.33-.18.51.51,0,0,1,.29.1l.36.2a2.78,2.78,0,0,0,.49.21,2,2,0,0,0,.68.1,2.06,2.06,0,0,0,.76-.14,1.49,1.49,0,0,0,.56-.39,1.54,1.54,0,0,0,.36-.59,2.39,2.39,0,0,0,.12-.77,1.78,1.78,0,0,0-.12-.67,1.25,1.25,0,0,0-.33-.51,1.54,1.54,0,0,0-.54-.33,2.55,2.55,0,0,0-.77-.11,3.66,3.66,0,0,0-.65.06,3.29,3.29,0,0,0-.67.17l-.81-.23.71-4.13h4.18Z"/><path class="dc10a11b-2353-4abc-a0c6-8fb2e66777f9" d="M19,6.91a2.86,2.86,0,0,1,.39,1.93,2.66,2.66,0,0,1-.33.93,2.76,2.76,0,0,1-.66.79l-.4-.24a.21.21,0,0,1-.1-.17A.27.27,0,0,1,18,10a1.58,1.58,0,0,0,.26-.43A2.42,2.42,0,0,0,18.42,9a2.37,2.37,0,0,0,0-.65,1.84,1.84,0,0,0-.26-.68.37.37,0,0,1-.06-.27.26.26,0,0,1,.18-.16Z"/><path class="0956bcf4-f8fa-4871-b29e-33faded428ea" d="M184.65,16.13h-1.09a.49.49,0,0,1-.3-.09.66.66,0,0,1-.17-.23l-.72-1.91h-3.72l-.72,1.91a.57.57,0,0,1-.17.22.44.44,0,0,1-.3.1h-1.08l3.42-8.64h1.42ZM179,12.89h3L180.8,9.73c0-.11-.09-.25-.14-.41s-.1-.33-.15-.52c0,.19-.1.37-.15.52s-.09.3-.14.42Z"/><path class="0956bcf4-f8fa-4871-b29e-33faded428ea" d="M189.7,16.13a.31.31,0,0,1-.33-.25l-.11-.66a4,4,0,0,1-.41.41,2.13,2.13,0,0,1-.47.31,2.25,2.25,0,0,1-.53.21,2.3,2.3,0,0,1-.6.07,2.06,2.06,0,0,1-.94-.21,2,2,0,0,1-.72-.6,2.87,2.87,0,0,1-.46-1,5,5,0,0,1-.17-1.34,4.28,4.28,0,0,1,.18-1.27,3.23,3.23,0,0,1,.53-1,2.34,2.34,0,0,1,.83-.67,2.47,2.47,0,0,1,1.1-.24,2.08,2.08,0,0,1,.91.17,2.13,2.13,0,0,1,.68.47V7.25h1.29v8.88Zm-2-.95a1.65,1.65,0,0,0,.85-.21,2.61,2.61,0,0,0,.66-.6V11.52a1.61,1.61,0,0,0-.6-.49,1.74,1.74,0,0,0-.69-.14,1.43,1.43,0,0,0-1.19.56,2.68,2.68,0,0,0-.42,1.64,4.41,4.41,0,0,0,.09,1,2,2,0,0,0,.28.65,1.11,1.11,0,0,0,.44.37A1.5,1.5,0,0,0,187.68,15.18Z"/><path class="0956bcf4-f8fa-4871-b29e-33faded428ea" d="M196,16.13a.53.53,0,0,1-.28-.06.39.39,0,0,1-.16-.23l-.13-.5a3.85,3.85,0,0,1-.46.38,3.24,3.24,0,0,1-.47.28,2.88,2.88,0,0,1-.52.17,3,3,0,0,1-.62.06,2.17,2.17,0,0,1-.69-.11,1.47,1.47,0,0,1-.56-.31,1.28,1.28,0,0,1-.36-.51,1.74,1.74,0,0,1-.14-.72,1.38,1.38,0,0,1,.19-.69,1.7,1.7,0,0,1,.62-.6,3.78,3.78,0,0,1,1.15-.44,8.28,8.28,0,0,1,1.75-.2v-.41a1.43,1.43,0,0,0-.28-1,1,1,0,0,0-.83-.33,1.65,1.65,0,0,0-.62.1,3,3,0,0,0-.44.2l-.33.2a.55.55,0,0,1-.3.09.35.35,0,0,1-.23-.07.5.5,0,0,1-.15-.17l-.24-.42a3.54,3.54,0,0,1,2.48-1,2.27,2.27,0,0,1,.93.17,1.72,1.72,0,0,1,.69.48,2.09,2.09,0,0,1,.43.74,2.87,2.87,0,0,1,.15,1v3.89Zm-2.25-.8a1.93,1.93,0,0,0,.87-.19,2.69,2.69,0,0,0,.7-.55V13.45a8.31,8.31,0,0,0-1.16.12,3,3,0,0,0-.77.22,1,1,0,0,0-.42.32.67.67,0,0,0-.13.41.8.8,0,0,0,.07.36.73.73,0,0,0,.19.26.87.87,0,0,0,.29.14A1.36,1.36,0,0,0,193.75,15.33Z"/><path class="0956bcf4-f8fa-4871-b29e-33faded428ea" d="M198.08,18.16V10h.78a.32.32,0,0,1,.34.25l.1.64a4,4,0,0,1,.41-.41,2.91,2.91,0,0,1,.46-.32,2.49,2.49,0,0,1,.54-.2,2.37,2.37,0,0,1,.61-.07,2,2,0,0,1,.93.2,2,2,0,0,1,.72.61,2.88,2.88,0,0,1,.47,1A4.92,4.92,0,0,1,203.6,13a4.26,4.26,0,0,1-.18,1.26,3.11,3.11,0,0,1-.52,1,2.59,2.59,0,0,1-.83.68,2.47,2.47,0,0,1-1.1.24,2.29,2.29,0,0,1-.92-.17,2.11,2.11,0,0,1-.68-.48v2.59Zm2.81-7.23a1.57,1.57,0,0,0-.86.22,2.48,2.48,0,0,0-.66.61v2.83a1.48,1.48,0,0,0,.59.49,1.71,1.71,0,0,0,.72.14,1.38,1.38,0,0,0,1.17-.55,2.61,2.61,0,0,0,.43-1.64,3.91,3.91,0,0,0-.1-1,1.85,1.85,0,0,0-.27-.65,1.08,1.08,0,0,0-.44-.36A1.37,1.37,0,0,0,200.89,10.93Z"/><path class="0956bcf4-f8fa-4871-b29e-33faded428ea" d="M206.74,16.23a1.59,1.59,0,0,1-1.18-.43,1.7,1.7,0,0,1-.41-1.21V11h-.67a.33.33,0,0,1-.19-.06.28.28,0,0,1-.07-.21v-.52l1-.15.28-1.77a.29.29,0,0,1,.1-.16.25.25,0,0,1,.19-.07h.66v2h1.7V11h-1.7V14.5a.73.73,0,0,0,.16.5.57.57,0,0,0,.44.18.87.87,0,0,0,.25,0l.19-.09a.74.74,0,0,0,.13-.08.19.19,0,0,1,.12,0,.19.19,0,0,1,.17.12l.38.63a1.94,1.94,0,0,1-.7.4A2.48,2.48,0,0,1,206.74,16.23Z"/><path class="0956bcf4-f8fa-4871-b29e-33faded428ea" d="M211.72,9.91a3,3,0,0,1,1.05.19,2.37,2.37,0,0,1,.82.53,2.44,2.44,0,0,1,.55.87,3.26,3.26,0,0,1,.19,1.17.89.89,0,0,1-.06.4.27.27,0,0,1-.24.1H210.1a2.9,2.9,0,0,0,.16.9,1.74,1.74,0,0,0,.37.64,1.31,1.31,0,0,0,.55.37,1.81,1.81,0,0,0,.72.13,2.08,2.08,0,0,0,.65-.09,3.69,3.69,0,0,0,.48-.19l.35-.2a.56.56,0,0,1,.26-.08.26.26,0,0,1,.24.12l.37.47a2.52,2.52,0,0,1-.52.46,3.45,3.45,0,0,1-.61.3,3.87,3.87,0,0,1-.67.17,5,5,0,0,1-.66,0,3.22,3.22,0,0,1-1.18-.21,2.64,2.64,0,0,1-.94-.63,2.88,2.88,0,0,1-.63-1,4,4,0,0,1-.22-1.41,3.25,3.25,0,0,1,.2-1.18,2.72,2.72,0,0,1,.57-1,2.65,2.65,0,0,1,.92-.65A2.9,2.9,0,0,1,211.72,9.91Zm0,.94a1.5,1.5,0,0,0-1.11.4,2,2,0,0,0-.51,1.13h3a1.89,1.89,0,0,0-.09-.6,1.37,1.37,0,0,0-.27-.49,1.12,1.12,0,0,0-.45-.32A1.48,1.48,0,0,0,211.75,10.85Z"/><path class="0956bcf4-f8fa-4871-b29e-33faded428ea" d="M215.53,16.13V10h.75a.45.45,0,0,1,.28.07.42.42,0,0,1,.11.27l.07.79a2.77,2.77,0,0,1,.71-.91,1.48,1.48,0,0,1,1-.33,1.4,1.4,0,0,1,.37,0,1,1,0,0,1,.32.14l-.09,1a.24.24,0,0,1-.08.14.25.25,0,0,1-.13,0,1,1,0,0,1-.26,0,2,2,0,0,0-.35,0,1.42,1.42,0,0,0-.48.08,1.14,1.14,0,0,0-.38.23,1.72,1.72,0,0,0-.28.36,2.9,2.9,0,0,0-.24.5v3.8Z"/><path class="dc10a11b-2353-4abc-a0c6-8fb2e66777f9" d="M228.12,7.39a3.11,3.11,0,0,1,1,.17A2.29,2.29,0,0,1,230,8a2,2,0,0,1,.53.7,2.18,2.18,0,0,1,.18.89,2,2,0,0,1-.38,1.29,2.16,2.16,0,0,1-1.05.68,2,2,0,0,1,1.62,2,2.52,2.52,0,0,1-.87,1.94,3,3,0,0,1-.93.51,3.52,3.52,0,0,1-1.13.18,3.94,3.94,0,0,1-1.15-.16,2.63,2.63,0,0,1-.84-.46,2.74,2.74,0,0,1-.58-.72A4.75,4.75,0,0,1,225,14l.56-.23a.71.71,0,0,1,.42-.06.42.42,0,0,1,.3.23l.21.41a1.66,1.66,0,0,0,.31.4,1.58,1.58,0,0,0,.47.3,1.55,1.55,0,0,0,.69.13,1.81,1.81,0,0,0,.72-.14,1.57,1.57,0,0,0,.51-.34,1.41,1.41,0,0,0,.31-.48,1.43,1.43,0,0,0,.11-.52,2.23,2.23,0,0,0-.08-.6,1,1,0,0,0-.31-.47,1.68,1.68,0,0,0-.63-.3,4.48,4.48,0,0,0-1.08-.11v-.93a3.41,3.41,0,0,0,.92-.11,1.68,1.68,0,0,0,.6-.29,1.09,1.09,0,0,0,.33-.44,1.69,1.69,0,0,0,.1-.56,1.55,1.55,0,0,0-.11-.59,1.24,1.24,0,0,0-.28-.42,1.12,1.12,0,0,0-.44-.25,1.73,1.73,0,0,0-1.1,0,1.43,1.43,0,0,0-.77.59,1.39,1.39,0,0,0-.19.45.61.61,0,0,1-.23.33.58.58,0,0,1-.41,0l-.67-.12a3.42,3.42,0,0,1,.33-1.08,2.66,2.66,0,0,1,.63-.77,2.61,2.61,0,0,1,.87-.47A3.57,3.57,0,0,1,228.12,7.39Z"/><path class="dc10a11b-2353-4abc-a0c6-8fb2e66777f9" d="M233.15,6.91a2.91,2.91,0,0,1,.36,1,2.7,2.7,0,0,1,0,1,2.66,2.66,0,0,1-.33.93,2.6,2.6,0,0,1-.66.79l-.4-.24a.21.21,0,0,1-.1-.17.27.27,0,0,1,.07-.17,1.58,1.58,0,0,0,.26-.43,2.42,2.42,0,0,0,.15-.56,2.37,2.37,0,0,0,0-.65,1.84,1.84,0,0,0-.26-.68.29.29,0,0,1-.05-.27.23.23,0,0,1,.17-.16Z"/><path class="5a89dd36-2cf5-471e-8ec5-6848b091aed0" d="M42.36,101a.58.58,0,0,1-.12.14.28.28,0,0,1-.16,0,.47.47,0,0,1-.25-.1c-.09-.07-.21-.14-.34-.22a2.59,2.59,0,0,0-.5-.23,2.29,2.29,0,0,0-.69-.1,2.2,2.2,0,0,0-.67.1,1.37,1.37,0,0,0-.49.28,1,1,0,0,0-.29.41,1.25,1.25,0,0,0-.1.51,1,1,0,0,0,.17.58,1.66,1.66,0,0,0,.47.39,3,3,0,0,0,.65.29l.76.25c.25.09.51.19.75.3a2.48,2.48,0,0,1,.66.42,1.89,1.89,0,0,1,.46.62,2.08,2.08,0,0,1,.18.91,2.85,2.85,0,0,1-.19,1.06,2.4,2.4,0,0,1-.57.86,2.6,2.6,0,0,1-.91.59,3.37,3.37,0,0,1-1.23.21,4.09,4.09,0,0,1-.8-.08,4.26,4.26,0,0,1-.74-.23,4.36,4.36,0,0,1-.64-.35,3.16,3.16,0,0,1-.55-.47l.36-.59a.69.69,0,0,1,.13-.11.3.3,0,0,1,.16,0,.52.52,0,0,1,.29.13l.41.3a3.91,3.91,0,0,0,.58.29,2.54,2.54,0,0,0,.83.13,2.27,2.27,0,0,0,.72-.11,1.44,1.44,0,0,0,.54-.31,1.15,1.15,0,0,0,.33-.48,1.52,1.52,0,0,0,.12-.62,1,1,0,0,0-.18-.63,1.43,1.43,0,0,0-.47-.4,3.53,3.53,0,0,0-.65-.28l-.75-.24a6.92,6.92,0,0,1-.76-.28,2.59,2.59,0,0,1-.65-.42,1.92,1.92,0,0,1-.46-.65,2.49,2.49,0,0,1,0-1.86,2.19,2.19,0,0,1,.52-.76,2.56,2.56,0,0,1,.84-.53,3,3,0,0,1,1.15-.2,3.54,3.54,0,0,1,1.33.23,2.93,2.93,0,0,1,1,.66Z"/><path class="5a89dd36-2cf5-471e-8ec5-6848b091aed0" d="M45.53,100.25a.81.81,0,0,1-.06.31.83.83,0,0,1-.18.25A.74.74,0,0,1,45,101a.81.81,0,0,1-.31.06.8.8,0,0,1-.3-.06.85.85,0,0,1-.25-.17,1,1,0,0,1-.17-.25.81.81,0,0,1-.06-.31.79.79,0,0,1,.48-.73.8.8,0,0,1,.3-.06.81.81,0,0,1,.31.06.74.74,0,0,1,.25.17.72.72,0,0,1,.18.25A.85.85,0,0,1,45.53,100.25Zm-.22,1.89v6.09H44.17v-6.09Z"/><path class="5a89dd36-2cf5-471e-8ec5-6848b091aed0" d="M47,108.23v-6.09h.69a.28.28,0,0,1,.29.23l.09.63a3.62,3.62,0,0,1,.88-.69,2.37,2.37,0,0,1,1.12-.26,2,2,0,0,1,.88.17,1.59,1.59,0,0,1,.64.47,2.08,2.08,0,0,1,.39.72,3.1,3.1,0,0,1,.13.94v3.88H51v-3.88a1.6,1.6,0,0,0-.3-1,1.17,1.17,0,0,0-.93-.37,1.8,1.8,0,0,0-.86.22,2.71,2.71,0,0,0-.74.59v4.47Z"/><path class="5a89dd36-2cf5-471e-8ec5-6848b091aed0" d="M55.86,102a2.89,2.89,0,0,1,.74.09,2.67,2.67,0,0,1,.63.25h1.68v.42q0,.21-.27.27l-.66.09a2,2,0,0,1,.18.84,1.78,1.78,0,0,1-.17.81,1.7,1.7,0,0,1-.48.62,2.1,2.1,0,0,1-.72.4,3.07,3.07,0,0,1-.93.14,3.21,3.21,0,0,1-.78-.09c-.25.15-.37.32-.37.5a.33.33,0,0,0,.17.31,1.18,1.18,0,0,0,.47.16,5.78,5.78,0,0,0,.65.06l.75,0a5.92,5.92,0,0,1,.75.09,2.23,2.23,0,0,1,.66.22,1.24,1.24,0,0,1,.46.42,1.18,1.18,0,0,1,.18.69,1.63,1.63,0,0,1-.2.76,1.91,1.91,0,0,1-.56.65,2.93,2.93,0,0,1-.9.46,3.8,3.8,0,0,1-1.21.18,5,5,0,0,1-1.17-.13,2.83,2.83,0,0,1-.84-.36,1.57,1.57,0,0,1-.49-.51,1.25,1.25,0,0,1-.17-.61,1.08,1.08,0,0,1,.28-.76,1.77,1.77,0,0,1,.76-.48,1.07,1.07,0,0,1-.42-.33.94.94,0,0,1,0-1.1,1.22,1.22,0,0,1,.24-.27,2,2,0,0,1,.34-.22,2,2,0,0,1-.71-.67,1.83,1.83,0,0,1-.25-1,1.78,1.78,0,0,1,.17-.81,1.91,1.91,0,0,1,.48-.61,2,2,0,0,1,.74-.4A3,3,0,0,1,55.86,102Zm1.89,6.51a.51.51,0,0,0-.12-.35,1.23,1.23,0,0,0-.34-.21,2.14,2.14,0,0,0-.48-.1l-.59,0-.62,0a5.92,5.92,0,0,1-.62-.06,1.61,1.61,0,0,0-.52.39.76.76,0,0,0-.21.53.69.69,0,0,0,.1.37.87.87,0,0,0,.31.29,2,2,0,0,0,.53.2,3.39,3.39,0,0,0,.76.07,3.57,3.57,0,0,0,.77-.08,1.93,1.93,0,0,0,.56-.21,1.24,1.24,0,0,0,.35-.33A.79.79,0,0,0,57.75,108.55Zm-1.89-3.33a1.57,1.57,0,0,0,.56-.09,1.12,1.12,0,0,0,.4-.24,1.09,1.09,0,0,0,.25-.38,1.42,1.42,0,0,0,.08-.48,1.15,1.15,0,0,0-.33-.86,1.34,1.34,0,0,0-1-.32,1.31,1.31,0,0,0-1,.32,1.15,1.15,0,0,0-.33.86,1.46,1.46,0,0,0,.08.48,1.05,1.05,0,0,0,.25.37,1.09,1.09,0,0,0,.4.25A1.59,1.59,0,0,0,55.86,105.22Z"/><path class="5a89dd36-2cf5-471e-8ec5-6848b091aed0" d="M61.16,99.38v8.85H60V99.38Z"/><path class="5a89dd36-2cf5-471e-8ec5-6848b091aed0" d="M65.36,102.05a2.88,2.88,0,0,1,1,.18,2.32,2.32,0,0,1,.81.53,2.55,2.55,0,0,1,.53.86,3.21,3.21,0,0,1,.19,1.16.88.88,0,0,1,0,.35.24.24,0,0,1-.22.09h-4a3.39,3.39,0,0,0,.16,1,1.92,1.92,0,0,0,.39.69,1.5,1.5,0,0,0,.58.41,2.06,2.06,0,0,0,.76.13,2.24,2.24,0,0,0,.68-.09,3.51,3.51,0,0,0,.5-.19l.35-.2a.48.48,0,0,1,.25-.09.23.23,0,0,1,.21.11l.32.41a2.18,2.18,0,0,1-.48.43,3.32,3.32,0,0,1-.6.29,2.91,2.91,0,0,1-.66.17,3.68,3.68,0,0,1-.66.06,3,3,0,0,1-1.17-.22,2.58,2.58,0,0,1-.93-.62,2.86,2.86,0,0,1-.61-1,4.24,4.24,0,0,1-.22-1.4,3.48,3.48,0,0,1,.2-1.18,2.72,2.72,0,0,1,.57-1,2.68,2.68,0,0,1,.9-.64A3,3,0,0,1,65.36,102.05Zm0,.83a1.55,1.55,0,0,0-1.17.44,2,2,0,0,0-.54,1.2h3.23a2,2,0,0,0-.1-.66,1.58,1.58,0,0,0-.3-.52A1.62,1.62,0,0,0,66,103,1.67,1.67,0,0,0,65.37,102.88Z"/><path class="5a89dd36-2cf5-471e-8ec5-6848b091aed0" d="M69.1,104.15h3v1h-3Z"/><path class="5a89dd36-2cf5-471e-8ec5-6848b091aed0" d="M76.17,102.05a2.8,2.8,0,0,1,1,.18,2.32,2.32,0,0,1,.81.53,2.41,2.41,0,0,1,.53.86,3.21,3.21,0,0,1,.19,1.16.73.73,0,0,1,0,.35.24.24,0,0,1-.22.09h-4a3.77,3.77,0,0,0,.16,1,1.92,1.92,0,0,0,.39.69,1.5,1.5,0,0,0,.58.41,2.06,2.06,0,0,0,.76.13,2.36,2.36,0,0,0,.69-.09,3.35,3.35,0,0,0,.49-.19l.35-.2a.48.48,0,0,1,.25-.09.21.21,0,0,1,.21.11l.32.41a2.18,2.18,0,0,1-.48.43,3,3,0,0,1-.6.29,3,3,0,0,1-.65.17,3.88,3.88,0,0,1-.67.06,3,3,0,0,1-1.17-.22,2.58,2.58,0,0,1-.93-.62,2.71,2.71,0,0,1-.6-1,4,4,0,0,1-.22-1.4,3.48,3.48,0,0,1,.19-1.18,3.06,3.06,0,0,1,.57-1,2.78,2.78,0,0,1,.9-.64A3.06,3.06,0,0,1,76.17,102.05Zm0,.83a1.58,1.58,0,0,0-1.18.44,2,2,0,0,0-.54,1.2H77.7a2,2,0,0,0-.1-.66,1.42,1.42,0,0,0-.3-.52,1.39,1.39,0,0,0-.47-.34A1.62,1.62,0,0,0,76.19,102.88Z"/><path class="5a89dd36-2cf5-471e-8ec5-6848b091aed0" d="M80,108.23v-6.09h.69a.28.28,0,0,1,.3.23l.08.63a3.62,3.62,0,0,1,.88-.69,2.4,2.4,0,0,1,1.12-.26,2,2,0,0,1,.88.17,1.59,1.59,0,0,1,.64.47,2.08,2.08,0,0,1,.39.72,3.1,3.1,0,0,1,.13.94v3.88H84v-3.88a1.6,1.6,0,0,0-.3-1,1.17,1.17,0,0,0-.93-.37,1.8,1.8,0,0,0-.86.22,2.87,2.87,0,0,0-.74.59v4.47Z"/><path class="5a89dd36-2cf5-471e-8ec5-6848b091aed0" d="M91.11,108.23a.28.28,0,0,1-.3-.22l-.1-.72a2.78,2.78,0,0,1-.42.42,2.49,2.49,0,0,1-.47.33,2.52,2.52,0,0,1-.54.21,2.82,2.82,0,0,1-.6.07,2.24,2.24,0,0,1-1-.2,2.07,2.07,0,0,1-.72-.6,2.71,2.71,0,0,1-.47-1,4.85,4.85,0,0,1-.16-1.33,4.26,4.26,0,0,1,.18-1.26,3,3,0,0,1,.52-1A2.38,2.38,0,0,1,89,102a2.22,2.22,0,0,1,.94.18,2.17,2.17,0,0,1,.7.51V99.38h1.14v8.85Zm-2.06-.83a1.71,1.71,0,0,0,.89-.23,2.31,2.31,0,0,0,.71-.66v-2.9a1.58,1.58,0,0,0-.63-.54,1.86,1.86,0,0,0-.75-.15,1.48,1.48,0,0,0-1.27.59,2.76,2.76,0,0,0-.44,1.7,4.17,4.17,0,0,0,.1,1,2,2,0,0,0,.29.68,1.35,1.35,0,0,0,.47.39A1.54,1.54,0,0,0,89.05,107.4Z"/><path class="5a89dd36-2cf5-471e-8ec5-6848b091aed0" d="M151.84,105.05v3.18h-1.23V99.62h2.58a4.65,4.65,0,0,1,1.43.2,2.63,2.63,0,0,1,1,.54,2.13,2.13,0,0,1,.6.85,2.92,2.92,0,0,1,.2,1.1,2.8,2.8,0,0,1-.21,1.1,2.35,2.35,0,0,1-.62.87,3,3,0,0,1-1,.57,4.54,4.54,0,0,1-1.4.2Zm0-1h1.35a2.79,2.79,0,0,0,.86-.12,1.78,1.78,0,0,0,.63-.37,1.33,1.33,0,0,0,.38-.55,1.83,1.83,0,0,0,.13-.71,2,2,0,0,0-.12-.72,1.45,1.45,0,0,0-.37-.54,1.73,1.73,0,0,0-.63-.34,2.9,2.9,0,0,0-.88-.11h-1.35Z"/><path class="5a89dd36-2cf5-471e-8ec5-6848b091aed0" d="M161.3,108.23a.44.44,0,0,1-.25,0,.44.44,0,0,1-.15-.21l-.12-.55a4,4,0,0,1-.47.39,3.31,3.31,0,0,1-.47.29,3.27,3.27,0,0,1-.53.17,3.06,3.06,0,0,1-.63.06,2.15,2.15,0,0,1-.68-.1,1.59,1.59,0,0,1-.54-.3,1.57,1.57,0,0,1-.36-.51,1.6,1.6,0,0,1-.14-.72,1.34,1.34,0,0,1,.2-.69,1.81,1.81,0,0,1,.63-.59,4.56,4.56,0,0,1,1.15-.43,9.17,9.17,0,0,1,1.75-.19v-.45a1.66,1.66,0,0,0-.29-1,1.1,1.1,0,0,0-.88-.35,2,2,0,0,0-.65.1,3.15,3.15,0,0,0-.45.22l-.33.21a.48.48,0,0,1-.29.1.27.27,0,0,1-.2-.07.62.62,0,0,1-.14-.14l-.21-.37a3.53,3.53,0,0,1,1.11-.72,3.38,3.38,0,0,1,1.3-.24,2.43,2.43,0,0,1,.92.16,1.93,1.93,0,0,1,.67.47,2.11,2.11,0,0,1,.42.73,3.16,3.16,0,0,1,.14.95v3.88Zm-2.28-.7a2.57,2.57,0,0,0,.5,0,2,2,0,0,0,.43-.16,2.26,2.26,0,0,0,.38-.25,3.6,3.6,0,0,0,.36-.33v-1.22a7.86,7.86,0,0,0-1.22.11,3.75,3.75,0,0,0-.82.23,1.14,1.14,0,0,0-.46.35.7.7,0,0,0-.14.44,1,1,0,0,0,.07.4.8.8,0,0,0,.52.43A1.13,1.13,0,0,0,159,107.53Z"/><path class="5a89dd36-2cf5-471e-8ec5-6848b091aed0" d="M164.81,100.25a.81.81,0,0,1-.06.31,1,1,0,0,1-.17.25.9.9,0,0,1-.26.17.81.81,0,0,1-.31.06.8.8,0,0,1-.3-.06.81.81,0,0,1-.42-.42.81.81,0,0,1-.06-.31.77.77,0,0,1,.23-.56,1,1,0,0,1,.25-.17.8.8,0,0,1,.3-.06.81.81,0,0,1,.31.06.9.9,0,0,1,.26.17.77.77,0,0,1,.23.56Zm-.22,1.89v6.09h-1.14v-6.09Z"/><path class="5a89dd36-2cf5-471e-8ec5-6848b091aed0" d="M166.3,108.23v-6.09H167a.37.37,0,0,1,.25.07.34.34,0,0,1,.09.24l.08.89a2.75,2.75,0,0,1,.7-1,1.54,1.54,0,0,1,1-.34,1.58,1.58,0,0,1,.38,0,1.07,1.07,0,0,1,.31.13l-.08.85a.18.18,0,0,1-.19.16l-.25,0a1.4,1.4,0,0,0-.37,0,1.35,1.35,0,0,0-.5.09,1.15,1.15,0,0,0-.39.24,1.58,1.58,0,0,0-.31.4,3.76,3.76,0,0,0-.25.53v3.82Z"/><path class="5a89dd36-2cf5-471e-8ec5-6848b091aed0" d="M173,102.05a2.88,2.88,0,0,1,1,.18,2.32,2.32,0,0,1,.81.53,2.55,2.55,0,0,1,.53.86,3.21,3.21,0,0,1,.19,1.16.7.7,0,0,1-.06.35q0,.09-.21.09h-4a3.39,3.39,0,0,0,.16,1,1.9,1.9,0,0,0,.38.69,1.61,1.61,0,0,0,.59.41,2.06,2.06,0,0,0,.76.13,2.24,2.24,0,0,0,.68-.09,3,3,0,0,0,.49-.19l.36-.2a.48.48,0,0,1,.25-.09.23.23,0,0,1,.21.11l.32.41a2.18,2.18,0,0,1-.48.43,3.32,3.32,0,0,1-.6.29,2.91,2.91,0,0,1-.66.17,3.68,3.68,0,0,1-.66.06,3,3,0,0,1-1.17-.22,2.58,2.58,0,0,1-.93-.62,2.86,2.86,0,0,1-.61-1,4.24,4.24,0,0,1-.22-1.4,3.48,3.48,0,0,1,.2-1.18,2.72,2.72,0,0,1,.57-1,2.58,2.58,0,0,1,.9-.64A3,3,0,0,1,173,102.05Zm0,.83a1.59,1.59,0,0,0-1.18.44,2.09,2.09,0,0,0-.53,1.2h3.23a2,2,0,0,0-.1-.66,1.58,1.58,0,0,0-.3-.52,1.62,1.62,0,0,0-.47-.34A1.67,1.67,0,0,0,173,102.88Z"/><path class="5a89dd36-2cf5-471e-8ec5-6848b091aed0" d="M181.19,108.23a.28.28,0,0,1-.3-.22l-.1-.72a2.78,2.78,0,0,1-.42.42,2.49,2.49,0,0,1-.47.33,2.52,2.52,0,0,1-.54.21,2.9,2.9,0,0,1-.6.07,2.24,2.24,0,0,1-.95-.2,2.07,2.07,0,0,1-.72-.6,2.71,2.71,0,0,1-.47-1,4.85,4.85,0,0,1-.16-1.33,4.26,4.26,0,0,1,.18-1.26,3,3,0,0,1,.52-1,2.38,2.38,0,0,1,1.93-.91,2.22,2.22,0,0,1,.94.18,2.17,2.17,0,0,1,.7.51V99.38h1.14v8.85Zm-2.06-.83a1.71,1.71,0,0,0,.89-.23,2.31,2.31,0,0,0,.71-.66v-2.9a1.58,1.58,0,0,0-.63-.54,1.87,1.87,0,0,0-.76-.15,1.48,1.48,0,0,0-1.26.59,2.75,2.75,0,0,0-.45,1.7,4.13,4.13,0,0,0,.11,1,1.84,1.84,0,0,0,.29.68,1.35,1.35,0,0,0,.47.39A1.54,1.54,0,0,0,179.13,107.4Z"/><path class="5a89dd36-2cf5-471e-8ec5-6848b091aed0" d="M183.44,104.15h3v1h-3Z"/><path class="5a89dd36-2cf5-471e-8ec5-6848b091aed0" d="M190.5,102.05a2.8,2.8,0,0,1,1,.18,2.15,2.15,0,0,1,.81.53,2.43,2.43,0,0,1,.54.86,3.21,3.21,0,0,1,.19,1.16.7.7,0,0,1-.06.35.22.22,0,0,1-.21.09h-4a3.39,3.39,0,0,0,.16,1,1.9,1.9,0,0,0,.38.69,1.61,1.61,0,0,0,.59.41,2.06,2.06,0,0,0,.76.13,2.29,2.29,0,0,0,.68-.09,3,3,0,0,0,.49-.19l.35-.2a.54.54,0,0,1,.26-.09.23.23,0,0,1,.21.11l.32.41a2,2,0,0,1-.49.43,2.94,2.94,0,0,1-.59.29,2.91,2.91,0,0,1-.66.17,3.71,3.71,0,0,1-.67.06,3,3,0,0,1-1.16-.22,2.58,2.58,0,0,1-.93-.62,2.86,2.86,0,0,1-.61-1,4.24,4.24,0,0,1-.22-1.4,3.48,3.48,0,0,1,.2-1.18,2.72,2.72,0,0,1,.57-1,2.58,2.58,0,0,1,.9-.64A3,3,0,0,1,190.5,102.05Zm0,.83a1.59,1.59,0,0,0-1.18.44,2.09,2.09,0,0,0-.53,1.2H192a2,2,0,0,0-.1-.66,1.58,1.58,0,0,0-.3-.52,1.62,1.62,0,0,0-.47-.34A1.67,1.67,0,0,0,190.52,102.88Z"/><path class="5a89dd36-2cf5-471e-8ec5-6848b091aed0" d="M194.34,108.23v-6.09H195a.28.28,0,0,1,.3.23l.09.63a3.44,3.44,0,0,1,.88-.69,2.37,2.37,0,0,1,1.12-.26,2,2,0,0,1,.88.17,1.67,1.67,0,0,1,.64.47,2.08,2.08,0,0,1,.39.72,3.1,3.1,0,0,1,.13.94v3.88h-1.14v-3.88a1.55,1.55,0,0,0-.31-1,1.14,1.14,0,0,0-.92-.37,1.8,1.8,0,0,0-.86.22,2.71,2.71,0,0,0-.74.59v4.47Z"/><path class="5a89dd36-2cf5-471e-8ec5-6848b091aed0" d="M205.45,108.23a.29.29,0,0,1-.31-.22l-.1-.72a2.33,2.33,0,0,1-.41.42,2.86,2.86,0,0,1-.47.33,2.52,2.52,0,0,1-.54.21,2.92,2.92,0,0,1-.61.07,2.23,2.23,0,0,1-.94-.2,2.2,2.2,0,0,1-.73-.6,2.87,2.87,0,0,1-.46-1,4.85,4.85,0,0,1-.16-1.33,4.26,4.26,0,0,1,.18-1.26,3,3,0,0,1,.52-1,2.34,2.34,0,0,1,.83-.67,2.42,2.42,0,0,1,1.09-.24,2.27,2.27,0,0,1,.95.18,2.17,2.17,0,0,1,.7.51V99.38h1.14v8.85Zm-2.06-.83a1.71,1.71,0,0,0,.89-.23,2.43,2.43,0,0,0,.71-.66v-2.9a1.58,1.58,0,0,0-.63-.54,1.87,1.87,0,0,0-.76-.15,1.45,1.45,0,0,0-1.26.59,2.75,2.75,0,0,0-.45,1.7,4.13,4.13,0,0,0,.11,1,1.84,1.84,0,0,0,.29.68,1.26,1.26,0,0,0,.47.39A1.54,1.54,0,0,0,203.39,107.4Z"/><rect class="e9f24118-269b-4ce3-889e-98e9d239a688" x="31.33" y="317.16" width="16.32" height="7.67"/><rect class="e9f24118-269b-4ce3-889e-98e9d239a688" x="11.24" y="317.16" width="20.09" height="7.67"/><rect class="b7ef590a-1211-46f6-8338-1c2663bb80c6" x="31.33" y="317.16" width="16.32" height="7.67"/><rect class="68a25908-f815-44e5-8839-2d2fdf4ae1aa" x="11.24" y="317.16" width="20.09" height="7.67"/><rect class="e9f24118-269b-4ce3-889e-98e9d239a688" x="31.33" y="293.47" width="17.67" height="7.67"/><rect class="e9f24118-269b-4ce3-889e-98e9d239a688" x="11.24" y="293.47" width="20.09" height="7.67"/><rect class="b7ef590a-1211-46f6-8338-1c2663bb80c6" x="31.33" y="293.47" width="17.67" height="7.67"/><rect class="68a25908-f815-44e5-8839-2d2fdf4ae1aa" x="11.24" y="293.47" width="20.09" height="7.67"/><rect class="e9f24118-269b-4ce3-889e-98e9d239a688" x="21.93" y="282.24" width="31.82" height="7.67"/><rect class="e9f24118-269b-4ce3-889e-98e9d239a688" x="11.24" y="282.24" width="20.09" height="7.67"/><rect class="b7ef590a-1211-46f6-8338-1c2663bb80c6" x="21.93" y="282.24" width="31.82" height="7.67"/><rect class="68a25908-f815-44e5-8839-2d2fdf4ae1aa" x="11.24" y="282.24" width="20.09" height="7.67"/><rect class="e9f24118-269b-4ce3-889e-98e9d239a688" x="21.93" y="305.7" width="31.82" height="7.67"/><rect class="e9f24118-269b-4ce3-889e-98e9d239a688" x="11.24" y="305.7" width="20.09" height="7.67"/><rect class="b7ef590a-1211-46f6-8338-1c2663bb80c6" x="21.93" y="305.7" width="31.82" height="7.67"/><rect class="68a25908-f815-44e5-8839-2d2fdf4ae1aa" x="11.24" y="305.7" width="20.09" height="7.67"/><rect class="e9f24118-269b-4ce3-889e-98e9d239a688" x="151.67" y="317.16" width="16.32" height="7.67"/><rect class="e9f24118-269b-4ce3-889e-98e9d239a688" x="131.58" y="317.16" width="20.09" height="7.67"/><rect class="b7ef590a-1211-46f6-8338-1c2663bb80c6" x="151.67" y="317.16" width="16.32" height="7.67"/><rect class="68a25908-f815-44e5-8839-2d2fdf4ae1aa" x="131.58" y="317.16" width="20.09" height="7.67"/><rect class="e9f24118-269b-4ce3-889e-98e9d239a688" x="151.67" y="293.47" width="17.67" height="7.67"/><rect class="e9f24118-269b-4ce3-889e-98e9d239a688" x="131.58" y="293.47" width="20.09" height="7.67"/><rect class="b7ef590a-1211-46f6-8338-1c2663bb80c6" x="151.67" y="293.47" width="17.67" height="7.67"/><rect class="68a25908-f815-44e5-8839-2d2fdf4ae1aa" x="131.58" y="293.47" width="20.09" height="7.67"/><rect class="e9f24118-269b-4ce3-889e-98e9d239a688" x="142.27" y="282.24" width="31.82" height="7.67"/><rect class="e9f24118-269b-4ce3-889e-98e9d239a688" x="131.58" y="282.24" width="20.09" height="7.67"/><rect class="b7ef590a-1211-46f6-8338-1c2663bb80c6" x="142.27" y="282.24" width="31.82" height="7.67"/><rect class="68a25908-f815-44e5-8839-2d2fdf4ae1aa" x="131.58" y="282.24" width="20.09" height="7.67"/><rect class="e9f24118-269b-4ce3-889e-98e9d239a688" x="142.27" y="305.7" width="31.82" height="7.67"/><rect class="e9f24118-269b-4ce3-889e-98e9d239a688" x="131.58" y="305.7" width="20.09" height="7.67"/><rect class="b7ef590a-1211-46f6-8338-1c2663bb80c6" x="142.27" y="305.7" width="31.82" height="7.67"/><rect class="68a25908-f815-44e5-8839-2d2fdf4ae1aa" x="131.58" y="305.7" width="20.09" height="7.67"/><rect class="e9f24118-269b-4ce3-889e-98e9d239a688" x="196.64" y="317.16" width="16.32" height="7.67"/><rect class="e9f24118-269b-4ce3-889e-98e9d239a688" x="212.96" y="317.16" width="20.09" height="7.67"/><rect class="b7ef590a-1211-46f6-8338-1c2663bb80c6" x="196.64" y="317.16" width="16.32" height="7.67"/><rect class="68a25908-f815-44e5-8839-2d2fdf4ae1aa" x="212.96" y="317.16" width="20.09" height="7.67"/><rect class="e9f24118-269b-4ce3-889e-98e9d239a688" x="195.3" y="293.47" width="17.67" height="7.67"/><rect class="e9f24118-269b-4ce3-889e-98e9d239a688" x="212.96" y="293.47" width="20.09" height="7.67"/><rect class="b7ef590a-1211-46f6-8338-1c2663bb80c6" x="195.3" y="293.47" width="17.67" height="7.67"/><rect class="68a25908-f815-44e5-8839-2d2fdf4ae1aa" x="212.96" y="293.47" width="20.09" height="7.67"/><rect class="e9f24118-269b-4ce3-889e-98e9d239a688" x="190.55" y="282.24" width="31.82" height="7.67"/><rect class="e9f24118-269b-4ce3-889e-98e9d239a688" x="212.96" y="282.24" width="20.09" height="7.67"/><rect class="b7ef590a-1211-46f6-8338-1c2663bb80c6" x="190.55" y="282.24" width="31.82" height="7.67"/><rect class="68a25908-f815-44e5-8839-2d2fdf4ae1aa" x="212.96" y="282.24" width="20.09" height="7.67"/><rect class="e9f24118-269b-4ce3-889e-98e9d239a688" x="190.55" y="305.7" width="31.82" height="7.67"/><rect class="e9f24118-269b-4ce3-889e-98e9d239a688" x="212.96" y="305.7" width="20.09" height="7.67"/><rect class="b7ef590a-1211-46f6-8338-1c2663bb80c6" x="190.55" y="305.7" width="31.82" height="7.67"/><rect class="68a25908-f815-44e5-8839-2d2fdf4ae1aa" x="212.96" y="305.7" width="20.09" height="7.67"/><path class="dc10a11b-2353-4abc-a0c6-8fb2e66777f9" d="M89.18,332.85v1.32H86.57v7.35H85v-7.35H82.33v-1.32Z"/><path class="dc10a11b-2353-4abc-a0c6-8fb2e66777f9" d="M89.16,341.52v-6.15H90a.46.46,0,0,1,.32.08.49.49,0,0,1,.12.29l.09.74a3,3,0,0,1,.77-.9,1.64,1.64,0,0,1,1-.33,1.28,1.28,0,0,1,.75.21l-.19,1.11a.24.24,0,0,1-.08.16.34.34,0,0,1-.16,0,.85.85,0,0,1-.24,0,1.66,1.66,0,0,0-.42,0,1.24,1.24,0,0,0-.79.25,1.94,1.94,0,0,0-.56.75v3.83Z"/><path class="dc10a11b-2353-4abc-a0c6-8fb2e66777f9" d="M95.86,333.57a.86.86,0,0,1-.08.36,1.21,1.21,0,0,1-.2.3,1.1,1.1,0,0,1-.31.2.9.9,0,0,1-.37.07.86.86,0,0,1-.36-.07,1,1,0,0,1-.3-.2,1.21,1.21,0,0,1-.2-.3.86.86,0,0,1-.08-.36,1,1,0,0,1,.08-.37.93.93,0,0,1,.2-.3,1,1,0,0,1,.3-.2.86.86,0,0,1,.36-.08.91.91,0,0,1,.37.08,1.1,1.1,0,0,1,.31.2.93.93,0,0,1,.2.3A1,1,0,0,1,95.86,333.57Zm-.22,1.8v6.15H94.16v-6.15Z"/><path class="dc10a11b-2353-4abc-a0c6-8fb2e66777f9" d="M97.31,341.52v-6.15h.91a.37.37,0,0,1,.38.27l.09.45a3.51,3.51,0,0,1,.34-.33,3.19,3.19,0,0,1,.38-.26,2.75,2.75,0,0,1,.43-.17,2.1,2.1,0,0,1,.51-.06,1.49,1.49,0,0,1,1,.31,1.94,1.94,0,0,1,.56.84,1.61,1.61,0,0,1,.36-.52,1.79,1.79,0,0,1,.47-.36,2.13,2.13,0,0,1,.55-.2,2.3,2.3,0,0,1,.58-.07,2.35,2.35,0,0,1,.91.16,1.73,1.73,0,0,1,.67.45,2.16,2.16,0,0,1,.41.73,3.33,3.33,0,0,1,.14,1v3.92h-1.48V337.6a1.32,1.32,0,0,0-.26-.88,1,1,0,0,0-.76-.3,1.16,1.16,0,0,0-.42.08,1,1,0,0,0-.34.23.89.89,0,0,0-.23.36,1.36,1.36,0,0,0-.09.51v3.92h-1.49V337.6a1.38,1.38,0,0,0-.24-.9,1,1,0,0,0-.74-.28,1.28,1.28,0,0,0-.6.16,2.3,2.3,0,0,0-.52.44v4.5Z"/><path class="dc10a11b-2353-4abc-a0c6-8fb2e66777f9" d="M107.42,341.52v-6.15h.9a.37.37,0,0,1,.38.27l.1.45a2.65,2.65,0,0,1,.34-.33,2.45,2.45,0,0,1,.37-.26,2.87,2.87,0,0,1,.44-.17,2,2,0,0,1,.5-.06,1.49,1.49,0,0,1,1,.31,1.86,1.86,0,0,1,.56.84,2,2,0,0,1,.36-.52,1.79,1.79,0,0,1,.47-.36,2.27,2.27,0,0,1,.55-.2,2.38,2.38,0,0,1,.59-.07,2.29,2.29,0,0,1,.9.16,1.65,1.65,0,0,1,.67.45,2,2,0,0,1,.41.73,3,3,0,0,1,.14,1v3.92h-1.48V337.6a1.27,1.27,0,0,0-.26-.88.93.93,0,0,0-.75-.3,1.22,1.22,0,0,0-.43.08,1,1,0,0,0-.34.23,1,1,0,0,0-.23.36,1.37,1.37,0,0,0-.08.51v3.92H111V337.6a1.33,1.33,0,0,0-.25-.9,1,1,0,0,0-.74-.28,1.21,1.21,0,0,0-.59.16,1.94,1.94,0,0,0-.52.44v4.5Z"/><path class="dc10a11b-2353-4abc-a0c6-8fb2e66777f9" d="M120.06,335.27a2.92,2.92,0,0,1,1.08.19,2.33,2.33,0,0,1,.84.54,2.53,2.53,0,0,1,.55.88,3.32,3.32,0,0,1,.2,1.18,2,2,0,0,1,0,.28.38.38,0,0,1,0,.17.19.19,0,0,1-.11.09.35.35,0,0,1-.16,0h-3.81a2.17,2.17,0,0,0,.51,1.39,1.59,1.59,0,0,0,1.18.45,1.89,1.89,0,0,0,.62-.09,3.4,3.4,0,0,0,.46-.18l.34-.19a.52.52,0,0,1,.28-.08.41.41,0,0,1,.16,0,.52.52,0,0,1,.11.1l.43.54a2.13,2.13,0,0,1-.55.49,2.91,2.91,0,0,1-.64.31,3.11,3.11,0,0,1-.67.16,3.92,3.92,0,0,1-.67.05,3.36,3.36,0,0,1-1.2-.21,2.59,2.59,0,0,1-1-.63,3.05,3.05,0,0,1-.64-1,3.94,3.94,0,0,1-.23-1.43,3.29,3.29,0,0,1,.2-1.18,2.91,2.91,0,0,1,.59-1,2.73,2.73,0,0,1,.93-.65A3,3,0,0,1,120.06,335.27Zm0,1.06a1.34,1.34,0,0,0-1,.37,1.83,1.83,0,0,0-.47,1h2.79a1.92,1.92,0,0,0-.08-.55,1.11,1.11,0,0,0-.24-.44,1.27,1.27,0,0,0-.41-.31A1.46,1.46,0,0,0,120.09,336.33Z"/><path class="dc10a11b-2353-4abc-a0c6-8fb2e66777f9" d="M128.27,341.52a.36.36,0,0,1-.38-.27l-.12-.59a4.89,4.89,0,0,1-.4.39,3,3,0,0,1-.46.3,2.14,2.14,0,0,1-.52.19,2.3,2.3,0,0,1-.6.07,2.05,2.05,0,0,1-.93-.21,2,2,0,0,1-.72-.61,2.88,2.88,0,0,1-.47-1,5.05,5.05,0,0,1-.16-1.35,4.33,4.33,0,0,1,.18-1.27,3.31,3.31,0,0,1,.54-1,2.43,2.43,0,0,1,.83-.67,2.33,2.33,0,0,1,1.09-.25,2.17,2.17,0,0,1,.89.17,2.2,2.2,0,0,1,.65.44v-3.25h1.48v8.91Zm-2-1.08a1.52,1.52,0,0,0,.79-.2,2.33,2.33,0,0,0,.61-.54v-2.76a1.36,1.36,0,0,0-.55-.43,1.53,1.53,0,0,0-.64-.13,1.39,1.39,0,0,0-.61.13,1.19,1.19,0,0,0-.46.38,2,2,0,0,0-.29.65,3.6,3.6,0,0,0-.1.92,4,4,0,0,0,.09.92,1.81,1.81,0,0,0,.24.61.93.93,0,0,0,.4.34A1.27,1.27,0,0,0,126.29,340.44Z"/><path class="dc10a11b-2353-4abc-a0c6-8fb2e66777f9" d="M133.09,341.52v-6.15H134a.46.46,0,0,1,.32.08.49.49,0,0,1,.12.29l.09.74a3,3,0,0,1,.77-.9,1.64,1.64,0,0,1,1-.33,1.28,1.28,0,0,1,.75.21l-.19,1.11a.24.24,0,0,1-.08.16.34.34,0,0,1-.16,0,.85.85,0,0,1-.24,0,1.66,1.66,0,0,0-.42,0,1.24,1.24,0,0,0-.79.25,1.94,1.94,0,0,0-.56.75v3.83Z"/><path class="dc10a11b-2353-4abc-a0c6-8fb2e66777f9" d="M140.54,335.27a2.9,2.9,0,0,1,1.07.19,2.33,2.33,0,0,1,.84.54,2.4,2.4,0,0,1,.55.88,3.32,3.32,0,0,1,.2,1.18,1.14,1.14,0,0,1,0,.28.38.38,0,0,1-.05.17.21.21,0,0,1-.1.09.43.43,0,0,1-.17,0h-3.81a2.17,2.17,0,0,0,.51,1.39,1.59,1.59,0,0,0,1.18.45,1.89,1.89,0,0,0,.62-.09,3,3,0,0,0,.46-.18l.34-.19a.52.52,0,0,1,.28-.08.38.38,0,0,1,.16,0,.52.52,0,0,1,.11.1l.44.54a2.35,2.35,0,0,1-.56.49,3.07,3.07,0,0,1-.63.31,3.35,3.35,0,0,1-.68.16,3.92,3.92,0,0,1-.67.05,3.36,3.36,0,0,1-1.2-.21,2.76,2.76,0,0,1-1-.63,3.05,3.05,0,0,1-.64-1,4.16,4.16,0,0,1-.23-1.43,3.52,3.52,0,0,1,.2-1.18,2.91,2.91,0,0,1,.59-1,2.73,2.73,0,0,1,.93-.65A3,3,0,0,1,140.54,335.27Zm0,1.06a1.36,1.36,0,0,0-1,.37,1.83,1.83,0,0,0-.47,1h2.79a1.92,1.92,0,0,0-.08-.55,1.11,1.11,0,0,0-.24-.44,1.17,1.17,0,0,0-.41-.31A1.41,1.41,0,0,0,140.57,336.33Z"/><path class="dc10a11b-2353-4abc-a0c6-8fb2e66777f9" d="M149.23,341.52h-.67a.75.75,0,0,1-.33-.06.41.41,0,0,1-.18-.26l-.13-.43a3.61,3.61,0,0,1-.46.36,2.4,2.4,0,0,1-.46.27,2.16,2.16,0,0,1-.51.16,2.77,2.77,0,0,1-.6.06,2.36,2.36,0,0,1-.72-.11,1.57,1.57,0,0,1-.57-.31,1.45,1.45,0,0,1-.37-.53,1.83,1.83,0,0,1-.13-.73,1.48,1.48,0,0,1,.18-.69,1.86,1.86,0,0,1,.61-.61,4,4,0,0,1,1.14-.45,7.18,7.18,0,0,1,1.75-.18v-.37a1.35,1.35,0,0,0-.26-.92.94.94,0,0,0-.76-.3,1.72,1.72,0,0,0-.6.09,2,2,0,0,0-.41.19l-.33.18a.63.63,0,0,1-.33.09.45.45,0,0,1-.26-.08.61.61,0,0,1-.17-.19l-.27-.48a3.69,3.69,0,0,1,2.56-1,2.42,2.42,0,0,1,1,.18,2,2,0,0,1,.72.49,2.18,2.18,0,0,1,.45.75,3,3,0,0,1,.15,1Zm-2.88-.92a2.72,2.72,0,0,0,.42,0,1.4,1.4,0,0,0,.36-.13,1.38,1.38,0,0,0,.33-.2,2.15,2.15,0,0,0,.32-.29v-1a6.45,6.45,0,0,0-1.08.08,3.48,3.48,0,0,0-.7.21,1,1,0,0,0-.37.3.6.6,0,0,0-.11.37.63.63,0,0,0,.23.56A1,1,0,0,0,146.35,340.6Z"/><path class="dc10a11b-2353-4abc-a0c6-8fb2e66777f9" d="M155,341.52a.37.37,0,0,1-.38-.27l-.12-.59a4.89,4.89,0,0,1-.4.39,3.52,3.52,0,0,1-.45.3,2.5,2.5,0,0,1-.52.19,2.37,2.37,0,0,1-.61.07,2,2,0,0,1-.92-.21,2,2,0,0,1-.72-.61,2.71,2.71,0,0,1-.47-1,5,5,0,0,1-.17-1.35,4,4,0,0,1,.19-1.27,3.09,3.09,0,0,1,.53-1,2.38,2.38,0,0,1,.84-.67,2.28,2.28,0,0,1,1.09-.25,2.12,2.12,0,0,1,.88.17,2.2,2.2,0,0,1,.65.44v-3.25h1.49v8.91Zm-2-1.08a1.48,1.48,0,0,0,.78-.2,2.18,2.18,0,0,0,.61-.54v-2.76a1.34,1.34,0,0,0-.54-.43,1.56,1.56,0,0,0-.64-.13,1.33,1.33,0,0,0-.61.13,1.06,1.06,0,0,0-.46.38,1.78,1.78,0,0,0-.3.65,4.11,4.11,0,0,0-.1.92,4,4,0,0,0,.09.92,1.81,1.81,0,0,0,.25.61,1,1,0,0,0,.39.34A1.29,1.29,0,0,0,153.05,340.44Z"/><path class="dc10a11b-2353-4abc-a0c6-8fb2e66777f9" d="M161.18,336.57a.51.51,0,0,1-.12.13.31.31,0,0,1-.17,0,.53.53,0,0,1-.23-.06l-.29-.14-.37-.13a1.73,1.73,0,0,0-.49-.06,1.11,1.11,0,0,0-.69.19.58.58,0,0,0-.25.48.51.51,0,0,0,.13.34,1.26,1.26,0,0,0,.34.23,3.87,3.87,0,0,0,.49.19l.55.17.55.22a2,2,0,0,1,.48.31,1.6,1.6,0,0,1,.35.46,1.48,1.48,0,0,1,.12.63,2,2,0,0,1-.16.82,1.78,1.78,0,0,1-.47.65,2.28,2.28,0,0,1-.77.42,3.15,3.15,0,0,1-1.06.16,3.26,3.26,0,0,1-.62-.06,3.83,3.83,0,0,1-.58-.16,3.43,3.43,0,0,1-.51-.24,2.25,2.25,0,0,1-.42-.3l.34-.56a.49.49,0,0,1,.16-.16.48.48,0,0,1,.22-.05.4.4,0,0,1,.26.08l.29.16a2.7,2.7,0,0,0,.38.17,1.75,1.75,0,0,0,.56.08,1.53,1.53,0,0,0,.45-.06.83.83,0,0,0,.31-.17.66.66,0,0,0,.18-.23.71.71,0,0,0,.06-.28.48.48,0,0,0-.13-.36,1.28,1.28,0,0,0-.34-.24,3.12,3.12,0,0,0-.49-.18l-.56-.18a5.25,5.25,0,0,1-.55-.22,1.91,1.91,0,0,1-.49-.33,1.34,1.34,0,0,1-.34-.49,1.6,1.6,0,0,1-.13-.69,1.79,1.79,0,0,1,.15-.72,1.73,1.73,0,0,1,.44-.6,2.32,2.32,0,0,1,.73-.41,3,3,0,0,1,1-.15,3.11,3.11,0,0,1,1.16.21,2.54,2.54,0,0,1,.87.55Z"/><path class="dc10a11b-2353-4abc-a0c6-8fb2e66777f9" d="M96.87,249v3.39H95.25v-8.68H97.9a5.61,5.61,0,0,1,1.52.18,3.07,3.07,0,0,1,1,.52,2,2,0,0,1,.59.79,2.53,2.53,0,0,1,.19,1,2.43,2.43,0,0,1-.13.82,2.29,2.29,0,0,1-.37.71,2.48,2.48,0,0,1-.6.56,3,3,0,0,1-.81.38,1.65,1.65,0,0,1,.52.5L102,252.4h-1.46a.65.65,0,0,1-.35-.09.64.64,0,0,1-.25-.24l-1.83-2.78a.66.66,0,0,0-.22-.22.84.84,0,0,0-.36-.06Zm0-1.16h1a2.41,2.41,0,0,0,.8-.12,1.59,1.59,0,0,0,.56-.31,1.23,1.23,0,0,0,.32-.48,1.46,1.46,0,0,0,.11-.6,1.25,1.25,0,0,0-.43-1A2.13,2.13,0,0,0,97.9,245h-1Z"/><path class="dc10a11b-2353-4abc-a0c6-8fb2e66777f9" d="M107.8,252.4h-.67a.62.62,0,0,1-.33-.07.38.38,0,0,1-.18-.25l-.13-.44c-.16.14-.31.26-.46.37a2.4,2.4,0,0,1-.46.27,2.76,2.76,0,0,1-.51.16,3.64,3.64,0,0,1-.6.05,2.37,2.37,0,0,1-.72-.1,1.59,1.59,0,0,1-.57-.32,1.41,1.41,0,0,1-.37-.52,1.83,1.83,0,0,1-.13-.73,1.48,1.48,0,0,1,.18-.69,1.69,1.69,0,0,1,.61-.61,3.63,3.63,0,0,1,1.13-.46,7.33,7.33,0,0,1,1.76-.18v-.36a1.38,1.38,0,0,0-.26-.92,1,1,0,0,0-.76-.3,2,2,0,0,0-.6.08,2.76,2.76,0,0,0-.42.19l-.32.19a.73.73,0,0,1-.33.08.38.38,0,0,1-.26-.08.52.52,0,0,1-.17-.19l-.27-.47a3.63,3.63,0,0,1,2.56-1,2.61,2.61,0,0,1,1,.17,2,2,0,0,1,1.16,1.25,2.69,2.69,0,0,1,.16,1Zm-2.88-.93a1.87,1.87,0,0,0,.42,0,1.9,1.9,0,0,0,.36-.12,3,3,0,0,0,.33-.21,2.67,2.67,0,0,0,.32-.28v-1a5.54,5.54,0,0,0-1.08.08,2.54,2.54,0,0,0-.7.21.81.81,0,0,0-.37.29.72.72,0,0,0,.11.93A1,1,0,0,0,104.92,251.47Z"/><path class="dc10a11b-2353-4abc-a0c6-8fb2e66777f9" d="M108.4,246.24h1.17a.52.52,0,0,1,.29.08.35.35,0,0,1,.14.2l.88,3.28c.05.18.09.36.12.53l.09.52c0-.17.09-.35.14-.52s.1-.35.16-.53l1-3.3a.33.33,0,0,1,.14-.19.38.38,0,0,1,.25-.08h.66a.43.43,0,0,1,.27.08.33.33,0,0,1,.14.19l1,3.36c.05.18.1.34.14.51l.12.48.09-.51c0-.17.08-.35.13-.54l.92-3.28a.31.31,0,0,1,.14-.2.47.47,0,0,1,.26-.08h1.13l-2,6.16h-1.2q-.19,0-.27-.27l-1.11-3.55c0-.12-.07-.24-.1-.36a3.59,3.59,0,0,1-.08-.35c0,.12,0,.24-.08.36s-.06.24-.09.36l-1.12,3.54a.34.34,0,0,1-.33.27h-1.13Z"/><path class="dc10a11b-2353-4abc-a0c6-8fb2e66777f9" d="M121,252.4v-6.16h.87a.43.43,0,0,1,.31.09.46.46,0,0,1,.12.28l.09.75a2.89,2.89,0,0,1,.78-.9,1.6,1.6,0,0,1,1-.33,1.29,1.29,0,0,1,.76.21l-.19,1.11a.22.22,0,0,1-.08.15.25.25,0,0,1-.16,0,1,1,0,0,1-.25,0,2.09,2.09,0,0,0-.41,0,1.23,1.23,0,0,0-.79.26,1.9,1.9,0,0,0-.56.74v3.84Z"/><path class="dc10a11b-2353-4abc-a0c6-8fb2e66777f9" d="M128.4,246.14a3,3,0,0,1,1.07.19,2.57,2.57,0,0,1,.85.54,2.53,2.53,0,0,1,.55.88,3.36,3.36,0,0,1,.2,1.18,1.91,1.91,0,0,1,0,.28.56.56,0,0,1-.05.18.24.24,0,0,1-.11.09.42.42,0,0,1-.17,0h-3.8a2.09,2.09,0,0,0,.51,1.4,1.62,1.62,0,0,0,1.18.44,2.33,2.33,0,0,0,.62-.08,3.21,3.21,0,0,0,.45-.19l.34-.19a.67.67,0,0,1,.29-.08.24.24,0,0,1,.15,0,.23.23,0,0,1,.12.1l.43.54a2.5,2.5,0,0,1-.55.48,2.9,2.9,0,0,1-.64.31,3.22,3.22,0,0,1-.68.17,5.16,5.16,0,0,1-.67.05,3.11,3.11,0,0,1-1.19-.22,2.59,2.59,0,0,1-1-.63,2.82,2.82,0,0,1-.64-1,3.88,3.88,0,0,1-.24-1.42,3.35,3.35,0,0,1,.21-1.19,2.74,2.74,0,0,1,.58-1,2.81,2.81,0,0,1,.93-.66A3.08,3.08,0,0,1,128.4,246.14Zm0,1.07a1.37,1.37,0,0,0-1,.36,1.8,1.8,0,0,0-.47,1h2.78a1.9,1.9,0,0,0-.07-.54,1.61,1.61,0,0,0-.24-.45,1.12,1.12,0,0,0-.41-.3A1.34,1.34,0,0,0,128.43,247.21Z"/><path class="dc10a11b-2353-4abc-a0c6-8fb2e66777f9" d="M137.09,252.4h-.66a.62.62,0,0,1-.33-.07.38.38,0,0,1-.18-.25l-.13-.44c-.16.14-.31.26-.46.37a2.48,2.48,0,0,1-.47.27,2.76,2.76,0,0,1-.51.16,3.64,3.64,0,0,1-.6.05,2.37,2.37,0,0,1-.72-.1,1.47,1.47,0,0,1-.56-.32,1.3,1.3,0,0,1-.37-.52,1.83,1.83,0,0,1-.14-.73,1.5,1.5,0,0,1,.19-.69,1.62,1.62,0,0,1,.61-.61,3.63,3.63,0,0,1,1.13-.46,7.27,7.27,0,0,1,1.76-.18v-.36a1.38,1.38,0,0,0-.26-.92,1,1,0,0,0-.76-.3,2,2,0,0,0-.6.08,2.76,2.76,0,0,0-.42.19l-.32.19a.76.76,0,0,1-.33.08.37.37,0,0,1-.26-.08.66.66,0,0,1-.18-.19l-.27-.47a3.65,3.65,0,0,1,2.56-1,2.66,2.66,0,0,1,1,.17,2,2,0,0,1,1.16,1.25,2.93,2.93,0,0,1,.15,1Zm-2.88-.93a1.76,1.76,0,0,0,.42,0,2.29,2.29,0,0,0,.37-.12,3,3,0,0,0,.33-.21,3.76,3.76,0,0,0,.32-.28v-1a5.54,5.54,0,0,0-1.08.08,2.43,2.43,0,0,0-.7.21.91.91,0,0,0-.38.29.72.72,0,0,0-.11.37.66.66,0,0,0,.23.56A1,1,0,0,0,134.21,251.47Z"/><path class="dc10a11b-2353-4abc-a0c6-8fb2e66777f9" d="M142.88,252.4a.36.36,0,0,1-.37-.27l-.12-.6a2.92,2.92,0,0,1-.4.39,2.59,2.59,0,0,1-.46.3,2.16,2.16,0,0,1-.52.2,2.9,2.9,0,0,1-.6.07,2.05,2.05,0,0,1-.93-.21,2.1,2.1,0,0,1-.72-.61,3,3,0,0,1-.47-1,5,5,0,0,1-.16-1.34,4.4,4.4,0,0,1,.18-1.28,3.31,3.31,0,0,1,.54-1,2.56,2.56,0,0,1,.83-.67,2.42,2.42,0,0,1,1.09-.24,2.18,2.18,0,0,1,.89.16,2.4,2.4,0,0,1,.65.44v-3.25h1.48v8.92Zm-2-1.09a1.52,1.52,0,0,0,.79-.19,2.38,2.38,0,0,0,.61-.55v-2.76a1.45,1.45,0,0,0-.55-.43,1.7,1.7,0,0,0-.64-.13,1.51,1.51,0,0,0-.61.13,1.19,1.19,0,0,0-.46.38,1.86,1.86,0,0,0-.29.65,3.63,3.63,0,0,0-.1.93,4.66,4.66,0,0,0,.08.91,1.72,1.72,0,0,0,.25.61,1,1,0,0,0,.4.35A1.24,1.24,0,0,0,140.91,251.31Z"/><path class="dc10a11b-2353-4abc-a0c6-8fb2e66777f9" d="M149.05,247.44a.6.6,0,0,1-.13.14.4.4,0,0,1-.17,0,.53.53,0,0,1-.23-.06l-.28-.13a2.64,2.64,0,0,0-.37-.13,1.75,1.75,0,0,0-.49-.07,1.18,1.18,0,0,0-.69.19.58.58,0,0,0-.25.49.44.44,0,0,0,.13.33,1.14,1.14,0,0,0,.34.24,2.67,2.67,0,0,0,.48.18l.55.18a4.33,4.33,0,0,1,.56.22,1.88,1.88,0,0,1,.48.31,1.37,1.37,0,0,1,.47,1.09,2.22,2.22,0,0,1-.16.82,1.77,1.77,0,0,1-.48.64,2.06,2.06,0,0,1-.77.43,3.37,3.37,0,0,1-1,.15,4.21,4.21,0,0,1-.62-.05,4.91,4.91,0,0,1-.58-.16,3.56,3.56,0,0,1-.52-.24,3.82,3.82,0,0,1-.42-.3l.35-.57a.36.36,0,0,1,.15-.15.41.41,0,0,1,.23-.06.5.5,0,0,1,.26.08l.29.17a2,2,0,0,0,.38.17,1.68,1.68,0,0,0,.55.08,1.42,1.42,0,0,0,.45-.07,1.2,1.2,0,0,0,.32-.16A.69.69,0,0,0,148,251a.87.87,0,0,0,.05-.28.48.48,0,0,0-.13-.35.87.87,0,0,0-.34-.24,3.69,3.69,0,0,0-.48-.19l-.56-.17a5.48,5.48,0,0,1-.56-.23,2,2,0,0,1-.49-.32,1.72,1.72,0,0,1-.34-.49,1.82,1.82,0,0,1-.13-.7,1.7,1.7,0,0,1,.59-1.31,2.24,2.24,0,0,1,.73-.41,3.26,3.26,0,0,1,2.16,0,2.72,2.72,0,0,1,.87.56Z"/></g><g id="34eebd82-1bbf-47b8-a7c5-aaf5e2faf719" data-name="shapes"><polygon class="dc10a11b-2353-4abc-a0c6-8fb2e66777f9" points="126.58 170.96 122.17 178.61 117.75 170.96 126.58 170.96"/><polygon class="dc10a11b-2353-4abc-a0c6-8fb2e66777f9" points="126.5 89.58 122.08 97.23 117.67 89.58 126.5 89.58"/><polygon class="dc10a11b-2353-4abc-a0c6-8fb2e66777f9" points="43.83 119.03 47.65 121.24 43.83 123.45 43.83 119.03"/><polygon class="dc10a11b-2353-4abc-a0c6-8fb2e66777f9" points="11.24 185.38 15.06 187.59 11.24 189.8 11.24 185.38"/><polygon class="dc10a11b-2353-4abc-a0c6-8fb2e66777f9" points="163.94 119.03 167.76 121.24 163.94 123.45 163.94 119.03"/><polygon class="dc10a11b-2353-4abc-a0c6-8fb2e66777f9" points="131.35 185.38 135.18 187.59 131.35 189.8 131.35 185.38"/><polygon class="dc10a11b-2353-4abc-a0c6-8fb2e66777f9" points="201.59 142.86 197.76 145.07 201.59 147.28 201.59 142.86"/><polygon class="dc10a11b-2353-4abc-a0c6-8fb2e66777f9" points="233.26 185.38 229.44 187.59 233.26 189.8 233.26 185.38"/><polygon class="dc10a11b-2353-4abc-a0c6-8fb2e66777f9" points="126.58 259.2 122.17 266.85 117.75 259.2 126.58 259.2"/><polygon class="dc10a11b-2353-4abc-a0c6-8fb2e66777f9" points="11.24 274.61 15.06 276.82 11.24 279.03 11.24 274.61"/><polygon class="dc10a11b-2353-4abc-a0c6-8fb2e66777f9" points="131.35 274.61 135.18 276.82 131.35 279.03 131.35 274.61"/><polygon class="dc10a11b-2353-4abc-a0c6-8fb2e66777f9" points="233.26 274.61 229.44 276.82 233.26 279.03 233.26 274.61"/></g></svg>