<svg xmlns="http://www.w3.org/2000/svg" viewBox="0 0 376.67 172.67"><defs><style>.\32 0cfff59-25ff-41a5-8f0d-5c1b37887e56,.\36 b579370-6132-4708-b2c2-824a07e07814{fill:none;}.\31 bf01a2e-4922-43bd-9e2d-ee0f85ddde5e,.\32 0cfff59-25ff-41a5-8f0d-5c1b37887e56,.\36 b579370-6132-4708-b2c2-824a07e07814,.\37 bfcd962-d7e0-4420-a9e5-e60b7cb907bc,.c6365269-e70e-4a77-aea5-4f163326cf6d{stroke:#575756;stroke-miterlimit:10;}.\32 0cfff59-25ff-41a5-8f0d-5c1b37887e56{stroke-width:0.75px;}.\31 bf01a2e-4922-43bd-9e2d-ee0f85ddde5e{fill:#a7cee3;}.\31 bf01a2e-4922-43bd-9e2d-ee0f85ddde5e,.\37 bfcd962-d7e0-4420-a9e5-e60b7cb907bc,.c6365269-e70e-4a77-aea5-4f163326cf6d{stroke-width:0.5px;}.\32 dbb3ee9-f884-45ac-b53a-4f5718ca2822,.\37 bfcd962-d7e0-4420-a9e5-e60b7cb907bc{fill:#575756;}.c6365269-e70e-4a77-aea5-4f163326cf6d{fill:#fffbbf;}</style></defs><title>rnaseq</title><g id="f8de883e-4b31-47ab-bbbc-1af4e1a99005" data-name="lines"><line class="6b579370-6132-4708-b2c2-824a07e07814" x1="4.33" y1="21.99" x2="249" y2="21.99"/><line class="6b579370-6132-4708-b2c2-824a07e07814" x1="4.33" y1="36.12" x2="249" y2="36.12"/><line class="6b579370-6132-4708-b2c2-824a07e07814" x1="85.7" y1="7.87" x2="249" y2="7.87"/><line class="6b579370-6132-4708-b2c2-824a07e07814" x1="4.33" y1="116.54" x2="78.92" y2="116.54"/><line class="6b579370-6132-4708-b2c2-824a07e07814" x1="29.14" y1="104.66" x2="78.92" y2="104.66"/><line class="6b579370-6132-4708-b2c2-824a07e07814" x1="91.36" y1="116.54" x2="165.94" y2="116.54"/><line class="6b579370-6132-4708-b2c2-824a07e07814" x1="116.16" y1="104.41" x2="165.94" y2="104.41"/><line class="6b579370-6132-4708-b2c2-824a07e07814" x1="4.33" y1="165.9" x2="78.92" y2="165.9"/><line class="6b579370-6132-4708-b2c2-824a07e07814" x1="29.14" y1="154.03" x2="78.92" y2="154.03"/><line class="6b579370-6132-4708-b2c2-824a07e07814" x1="91.36" y1="165.9" x2="165.94" y2="165.9"/><line class="6b579370-6132-4708-b2c2-824a07e07814" x1="116.16" y1="153.78" x2="165.94" y2="153.78"/><line class="20cfff59-25ff-41a5-8f0d-5c1b37887e56" x1="4.33" y1="47.87" x2="249" y2="47.87"/><line class="20cfff59-25ff-41a5-8f0d-5c1b37887e56" x1="4.91" y1="49.25" x2="4.91" y2="47.75"/><line class="20cfff59-25ff-41a5-8f0d-5c1b37887e56" x1="31.26" y1="49.25" x2="31.26" y2="47.75"/><line class="20cfff59-25ff-41a5-8f0d-5c1b37887e56" x1="58.77" y1="49.25" x2="58.77" y2="47.75"/><line class="20cfff59-25ff-41a5-8f0d-5c1b37887e56" x1="113.03" y1="49.25" x2="113.03" y2="47.75"/><line class="20cfff59-25ff-41a5-8f0d-5c1b37887e56" x1="140.3" y1="49.25" x2="140.3" y2="47.75"/><line class="20cfff59-25ff-41a5-8f0d-5c1b37887e56" x1="194.24" y1="49.25" x2="194.24" y2="47.75"/><line class="20cfff59-25ff-41a5-8f0d-5c1b37887e56" x1="221.37" y1="49.25" x2="221.37" y2="47.75"/><line class="20cfff59-25ff-41a5-8f0d-5c1b37887e56" x1="248.71" y1="49.25" x2="248.71" y2="47.75"/><line class="20cfff59-25ff-41a5-8f0d-5c1b37887e56" x1="166.98" y1="49.25" x2="166.98" y2="47.75"/><line class="20cfff59-25ff-41a5-8f0d-5c1b37887e56" x1="85.9" y1="49.25" x2="85.9" y2="47.75"/></g><g id="a22960e7-f955-4813-a49a-bac645ec020d" data-name="boxes"><rect class="1bf01a2e-4922-43bd-9e2d-ee0f85ddde5e" x="4.33" y="17.78" width="53.86" height="7.67"/><rect class="1bf01a2e-4922-43bd-9e2d-ee0f85ddde5e" x="166.49" y="18.03" width="82.15" height="7.67"/><rect class="7bfcd962-d7e0-4420-a9e5-e60b7cb907bc" x="4.33" y="31.91" width="53.86" height="7.67"/><rect class="7bfcd962-d7e0-4420-a9e5-e60b7cb907bc" x="166.49" y="32.16" width="82.15" height="7.67"/><rect class="c6365269-e70e-4a77-aea5-4f163326cf6d" x="85.7" y="4.03" width="27.5" height="7.67"/><rect class="7bfcd962-d7e0-4420-a9e5-e60b7cb907bc" x="85.7" y="31.91" width="27.5" height="7.67"/><rect class="c6365269-e70e-4a77-aea5-4f163326cf6d" x="193.99" y="4.28" width="54.64" height="7.67"/><rect class="1bf01a2e-4922-43bd-9e2d-ee0f85ddde5e" x="4.33" y="112.33" width="16.42" height="7.67"/><rect class="1bf01a2e-4922-43bd-9e2d-ee0f85ddde5e" x="16.37" y="91.14" width="3.39" height="3.83"/><rect class="1bf01a2e-4922-43bd-9e2d-ee0f85ddde5e" x="63.59" y="85.04" width="3.39" height="3.83"/><rect class="1bf01a2e-4922-43bd-9e2d-ee0f85ddde5e" x="68.78" y="85.04" width="3.39" height="3.83"/><rect class="1bf01a2e-4922-43bd-9e2d-ee0f85ddde5e" x="73.74" y="85.04" width="3.39" height="3.83"/><rect class="1bf01a2e-4922-43bd-9e2d-ee0f85ddde5e" x="53.76" y="112.58" width="25.04" height="7.67"/><rect class="c6365269-e70e-4a77-aea5-4f163326cf6d" x="29.14" y="100.58" width="8.38" height="7.67"/><rect class="c6365269-e70e-4a77-aea5-4f163326cf6d" x="29.13" y="91.14" width="3.32" height="3.83"/><rect class="c6365269-e70e-4a77-aea5-4f163326cf6d" x="34.31" y="91.14" width="3.32" height="3.83"/><rect class="c6365269-e70e-4a77-aea5-4f163326cf6d" x="62.48" y="91.14" width="3.32" height="3.83"/><rect class="c6365269-e70e-4a77-aea5-4f163326cf6d" x="66.82" y="91.14" width="3.32" height="3.83"/><rect class="c6365269-e70e-4a77-aea5-4f163326cf6d" x="71.11" y="91.14" width="3.32" height="3.83"/><rect class="c6365269-e70e-4a77-aea5-4f163326cf6d" x="75.33" y="91.14" width="3.32" height="3.83"/><rect class="c6365269-e70e-4a77-aea5-4f163326cf6d" x="116.03" y="91.14" width="3.32" height="3.83"/><rect class="c6365269-e70e-4a77-aea5-4f163326cf6d" x="121.21" y="91.14" width="3.32" height="3.83"/><rect class="c6365269-e70e-4a77-aea5-4f163326cf6d" x="149.38" y="91.14" width="3.32" height="3.83"/><rect class="c6365269-e70e-4a77-aea5-4f163326cf6d" x="153.72" y="91.14" width="3.32" height="3.83"/><rect class="c6365269-e70e-4a77-aea5-4f163326cf6d" x="158.01" y="91.14" width="3.32" height="3.83"/><rect class="c6365269-e70e-4a77-aea5-4f163326cf6d" x="162.24" y="91.14" width="3.32" height="3.83"/><rect class="c6365269-e70e-4a77-aea5-4f163326cf6d" x="149.38" y="85.04" width="3.32" height="3.83"/><rect class="c6365269-e70e-4a77-aea5-4f163326cf6d" x="153.72" y="85.04" width="3.32" height="3.83"/><rect class="c6365269-e70e-4a77-aea5-4f163326cf6d" x="158.01" y="85.04" width="3.32" height="3.83"/><rect class="c6365269-e70e-4a77-aea5-4f163326cf6d" x="162.24" y="85.04" width="3.32" height="3.83"/><rect class="c6365269-e70e-4a77-aea5-4f163326cf6d" x="62.15" y="100.83" width="16.66" height="7.67"/><rect class="1bf01a2e-4922-43bd-9e2d-ee0f85ddde5e" x="91.36" y="112.33" width="16.42" height="7.67"/><rect class="1bf01a2e-4922-43bd-9e2d-ee0f85ddde5e" x="140.79" y="112.58" width="25.04" height="7.67"/><rect class="c6365269-e70e-4a77-aea5-4f163326cf6d" x="116.16" y="100.58" width="8.38" height="7.67"/><rect class="c6365269-e70e-4a77-aea5-4f163326cf6d" x="149.18" y="100.83" width="16.66" height="7.67"/><rect class="1bf01a2e-4922-43bd-9e2d-ee0f85ddde5e" x="4.33" y="161.7" width="16.42" height="7.67"/><rect class="1bf01a2e-4922-43bd-9e2d-ee0f85ddde5e" x="65.59" y="134.41" width="3.39" height="3.83"/><rect class="1bf01a2e-4922-43bd-9e2d-ee0f85ddde5e" x="70.78" y="134.41" width="3.39" height="3.83"/><rect class="1bf01a2e-4922-43bd-9e2d-ee0f85ddde5e" x="63.59" y="140.51" width="3.39" height="3.83"/><rect class="1bf01a2e-4922-43bd-9e2d-ee0f85ddde5e" x="68.78" y="140.51" width="3.39" height="3.83"/><rect class="1bf01a2e-4922-43bd-9e2d-ee0f85ddde5e" x="73.74" y="140.51" width="3.39" height="3.83"/><rect class="1bf01a2e-4922-43bd-9e2d-ee0f85ddde5e" x="7.78" y="134.41" width="3.39" height="3.83"/><rect class="1bf01a2e-4922-43bd-9e2d-ee0f85ddde5e" x="12.97" y="134.41" width="3.39" height="3.83"/><rect class="1bf01a2e-4922-43bd-9e2d-ee0f85ddde5e" x="5.78" y="140.51" width="3.39" height="3.83"/><rect class="1bf01a2e-4922-43bd-9e2d-ee0f85ddde5e" x="10.97" y="140.51" width="3.39" height="3.83"/><rect class="1bf01a2e-4922-43bd-9e2d-ee0f85ddde5e" x="15.92" y="140.51" width="3.39" height="3.83"/><rect class="1bf01a2e-4922-43bd-9e2d-ee0f85ddde5e" x="53.76" y="161.95" width="25.04" height="7.67"/><rect class="c6365269-e70e-4a77-aea5-4f163326cf6d" x="29.14" y="149.95" width="8.38" height="7.67"/><rect class="c6365269-e70e-4a77-aea5-4f163326cf6d" x="116.03" y="140.51" width="3.32" height="3.83"/><rect class="c6365269-e70e-4a77-aea5-4f163326cf6d" x="120.89" y="140.51" width="3.32" height="3.83"/><rect class="c6365269-e70e-4a77-aea5-4f163326cf6d" x="149.38" y="140.51" width="3.32" height="3.83"/><rect class="c6365269-e70e-4a77-aea5-4f163326cf6d" x="153.72" y="140.51" width="3.32" height="3.83"/><rect class="c6365269-e70e-4a77-aea5-4f163326cf6d" x="158.01" y="140.51" width="3.32" height="3.83"/><rect class="c6365269-e70e-4a77-aea5-4f163326cf6d" x="162.24" y="140.51" width="3.32" height="3.83"/><rect class="c6365269-e70e-4a77-aea5-4f163326cf6d" x="62.15" y="150.2" width="16.66" height="7.67"/><rect class="1bf01a2e-4922-43bd-9e2d-ee0f85ddde5e" x="91.36" y="161.7" width="16.42" height="7.67"/><rect class="1bf01a2e-4922-43bd-9e2d-ee0f85ddde5e" x="140.79" y="161.95" width="25.04" height="7.67"/><rect class="c6365269-e70e-4a77-aea5-4f163326cf6d" x="116.16" y="149.95" width="8.38" height="7.67"/><rect class="c6365269-e70e-4a77-aea5-4f163326cf6d" x="149.18" y="150.2" width="16.66" height="7.67"/></g><g id="7baab488-4896-405a-94ef-524049a79bf6" data-name="text-annotations"><path class="2dbb3ee9-f884-45ac-b53a-4f5718ca2822" d="M264.64,11.87h-1.49V3.92h1.49Z"/><path class="2dbb3ee9-f884-45ac-b53a-4f5718ca2822" d="M269.7,7.33a.34.34,0,0,1-.12.12.24.24,0,0,1-.15,0,.42.42,0,0,1-.21-.06L269,7.31a1.7,1.7,0,0,0-.34-.12,1.53,1.53,0,0,0-.45-.06,1,1,0,0,0-.63.17.52.52,0,0,0-.23.45.41.41,0,0,0,.12.3,1,1,0,0,0,.31.22,3.68,3.68,0,0,0,.44.17l.51.16.5.2a1.74,1.74,0,0,1,.45.29,1.27,1.27,0,0,1,.31.41,1.31,1.31,0,0,1,.12.58,1.87,1.87,0,0,1-.15.76,1.66,1.66,0,0,1-.44.59,1.9,1.9,0,0,1-.7.39,3.15,3.15,0,0,1-1,.14,3.66,3.66,0,0,1-.57-.05,4.61,4.61,0,0,1-.53-.15,2.26,2.26,0,0,1-.47-.22,1.92,1.92,0,0,1-.39-.27l.32-.52a.47.47,0,0,1,.14-.14.35.35,0,0,1,.21,0,.44.44,0,0,1,.24.07l.26.15a2.29,2.29,0,0,0,.35.16,1.74,1.74,0,0,0,.51.07,1.22,1.22,0,0,0,.41-.06,1,1,0,0,0,.29-.15.5.5,0,0,0,.16-.22.57.57,0,0,0,.06-.25.46.46,0,0,0-.12-.33,1,1,0,0,0-.32-.22,3.12,3.12,0,0,0-.44-.17l-.51-.16c-.18-.06-.35-.13-.51-.2a1.77,1.77,0,0,1-.45-.3,1.34,1.34,0,0,1-.31-.45,1.56,1.56,0,0,1-.12-.64,1.66,1.66,0,0,1,.14-.66,1.41,1.41,0,0,1,.4-.54,2.06,2.06,0,0,1,.67-.38,2.82,2.82,0,0,1,.92-.14,3,3,0,0,1,1.06.19,2.5,2.5,0,0,1,.8.51Z"/><path class="2dbb3ee9-f884-45ac-b53a-4f5718ca2822" d="M273.57,6.14a3.17,3.17,0,0,1,1.14.2,2.46,2.46,0,0,1,.88.58,2.63,2.63,0,0,1,.56.91,3.57,3.57,0,0,1,.2,1.21,3.53,3.53,0,0,1-.2,1.21,2.58,2.58,0,0,1-.56.92,2.33,2.33,0,0,1-.88.58,3.38,3.38,0,0,1-2.29,0,2.45,2.45,0,0,1-.89-.58,2.58,2.58,0,0,1-.56-.92,3.3,3.3,0,0,1-.2-1.21,3.34,3.34,0,0,1,.2-1.21,2.63,2.63,0,0,1,.56-.91,2.59,2.59,0,0,1,.89-.58A3.19,3.19,0,0,1,273.57,6.14Zm0,4.77a1.22,1.22,0,0,0,1-.47A2.43,2.43,0,0,0,275,9.05a2.43,2.43,0,0,0-.34-1.39,1.2,1.2,0,0,0-1-.48,1.21,1.21,0,0,0-1.06.48,2.38,2.38,0,0,0-.34,1.39,2.3,2.3,0,0,0,.34,1.38A1.21,1.21,0,0,0,273.57,10.91Z"/><path class="2dbb3ee9-f884-45ac-b53a-4f5718ca2822" d="M277.65,11.87V7.25l-.49-.07a.49.49,0,0,1-.25-.12.26.26,0,0,1-.1-.23V6.28h.84V5.86A2.41,2.41,0,0,1,277.8,5a1.59,1.59,0,0,1,.42-.65,1.87,1.87,0,0,1,.66-.42,2.66,2.66,0,0,1,.88-.14,2.36,2.36,0,0,1,.72.11l0,.68a.22.22,0,0,1-.15.2,1.51,1.51,0,0,1-.32,0,1.4,1.4,0,0,0-.43.06.6.6,0,0,0-.32.18.82.82,0,0,0-.21.34,2,2,0,0,0-.06.52v.38h1.46v1H279v4.62Z"/><path class="2dbb3ee9-f884-45ac-b53a-4f5718ca2822" d="M283.67,6.14a3.19,3.19,0,0,1,1.15.2,2.55,2.55,0,0,1,.88.58,2.63,2.63,0,0,1,.56.91,3.57,3.57,0,0,1,.2,1.21,3.53,3.53,0,0,1-.2,1.21,2.58,2.58,0,0,1-.56.92,2.41,2.41,0,0,1-.88.58,3,3,0,0,1-1.15.2,3.05,3.05,0,0,1-1.15-.2,2.5,2.5,0,0,1-.88-.58,2.58,2.58,0,0,1-.56-.92A3.3,3.3,0,0,1,280.87,9a3.34,3.34,0,0,1,.21-1.21,2.45,2.45,0,0,1,1.44-1.49A3.27,3.27,0,0,1,283.67,6.14Zm0,4.77a1.23,1.23,0,0,0,1.05-.47,2.43,2.43,0,0,0,.34-1.39,2.43,2.43,0,0,0-.34-1.39,1.39,1.39,0,0,0-2.1,0,2.38,2.38,0,0,0-.34,1.39,2.3,2.3,0,0,0,.34,1.38A1.21,1.21,0,0,0,283.67,10.91Z"/><path class="2dbb3ee9-f884-45ac-b53a-4f5718ca2822" d="M287.52,11.87V6.23h.8a.39.39,0,0,1,.29.08.49.49,0,0,1,.11.26l.08.68a2.62,2.62,0,0,1,.71-.82,1.52,1.52,0,0,1,.91-.31,1.2,1.2,0,0,1,.7.2l-.18,1c0,.07,0,.12-.07.14a.25.25,0,0,1-.15,0l-.23,0a1.29,1.29,0,0,0-.38,0,1.17,1.17,0,0,0-.72.23,1.88,1.88,0,0,0-.51.69v3.51Z"/><path class="2dbb3ee9-f884-45ac-b53a-4f5718ca2822" d="M292,11.87V6.23h.83a.34.34,0,0,1,.35.25l.09.41a2.91,2.91,0,0,1,.31-.3,1.85,1.85,0,0,1,.34-.23,2,2,0,0,1,.4-.16,1.73,1.73,0,0,1,.47-.06,1.32,1.32,0,0,1,.87.29,1.78,1.78,0,0,1,.52.77,1.52,1.52,0,0,1,.33-.48,1.5,1.5,0,0,1,.43-.33,1.91,1.91,0,0,1,.5-.19,2.48,2.48,0,0,1,.54-.06,2.37,2.37,0,0,1,.83.14,1.66,1.66,0,0,1,.61.42,1.92,1.92,0,0,1,.38.67,3.17,3.17,0,0,1,.13.91v3.59h-1.36V8.28a1.19,1.19,0,0,0-.24-.81.87.87,0,0,0-.69-.27,1,1,0,0,0-.39.07,1.1,1.1,0,0,0-.31.2,1,1,0,0,0-.21.34,1.16,1.16,0,0,0-.08.47v3.59H295.3V8.28a1.22,1.22,0,0,0-.23-.82.83.83,0,0,0-.68-.26,1.14,1.14,0,0,0-.54.14,2,2,0,0,0-.48.4v4.13Z"/><path class="2dbb3ee9-f884-45ac-b53a-4f5718ca2822" d="M310.46,11.87h-1.14a.55.55,0,0,1-.32-.09.56.56,0,0,1-.17-.24l-.6-1.63h-3.29l-.6,1.63a.51.51,0,0,1-.17.23.49.49,0,0,1-.32.1H302.7l3.13-7.95h1.51Zm-5.14-3h2.53l-1-2.65c0-.11-.09-.25-.14-.41a5.36,5.36,0,0,1-.16-.52c-.05.19-.1.36-.15.52s-.1.3-.15.42Z"/><path class="2dbb3ee9-f884-45ac-b53a-4f5718ca2822" d="M264.64,25.21h-1.49v-8h1.49Z"/><path class="2dbb3ee9-f884-45ac-b53a-4f5718ca2822" d="M269.7,20.66a.51.51,0,0,1-.12.13.33.33,0,0,1-.15,0,.54.54,0,0,1-.21-.05l-.26-.13-.34-.12a1.53,1.53,0,0,0-.45-.06,1,1,0,0,0-.63.18.5.5,0,0,0-.23.44.45.45,0,0,0,.12.31.93.93,0,0,0,.31.21,2.52,2.52,0,0,0,.44.17l.51.16.5.2a1.74,1.74,0,0,1,.45.29,1.39,1.39,0,0,1,.31.41,1.35,1.35,0,0,1,.12.59,1.86,1.86,0,0,1-.15.75,1.5,1.5,0,0,1-.44.59,1.9,1.9,0,0,1-.7.39,2.87,2.87,0,0,1-1,.14,2.75,2.75,0,0,1-.57-.05,3.18,3.18,0,0,1-.53-.14,4.12,4.12,0,0,1-.47-.22,2.44,2.44,0,0,1-.39-.28l.32-.52a.47.47,0,0,1,.14-.14.43.43,0,0,1,.21-.05.55.55,0,0,1,.24.07l.26.16.35.15a1.46,1.46,0,0,0,.51.07,1.22,1.22,0,0,0,.41-.06.67.67,0,0,0,.29-.15.54.54,0,0,0,.16-.21.62.62,0,0,0,.06-.26.44.44,0,0,0-.12-.32.86.86,0,0,0-.32-.22,2.24,2.24,0,0,0-.44-.17l-.51-.16a3.89,3.89,0,0,1-.51-.21,1.77,1.77,0,0,1-.45-.3,1.34,1.34,0,0,1-.31-.45,1.48,1.48,0,0,1-.12-.63,1.63,1.63,0,0,1,.14-.66,1.45,1.45,0,0,1,.4-.55,2.06,2.06,0,0,1,.67-.38,2.82,2.82,0,0,1,.92-.14,2.78,2.78,0,0,1,1.06.2,2.47,2.47,0,0,1,.8.5Z"/><path class="2dbb3ee9-f884-45ac-b53a-4f5718ca2822" d="M273.57,19.47a3,3,0,0,1,1.14.21,2.33,2.33,0,0,1,.88.58,2.46,2.46,0,0,1,.56.91,3.73,3.73,0,0,1,0,2.41,2.58,2.58,0,0,1-.56.92,2.33,2.33,0,0,1-.88.58,3.23,3.23,0,0,1-2.29,0,2.45,2.45,0,0,1-.89-.58,2.58,2.58,0,0,1-.56-.92,3.73,3.73,0,0,1,0-2.41,2.43,2.43,0,0,1,1.45-1.49A3,3,0,0,1,273.57,19.47Zm0,4.77a1.19,1.19,0,0,0,1-.47,2.43,2.43,0,0,0,.34-1.39,2.46,2.46,0,0,0-.34-1.39,1.38,1.38,0,0,0-2.1,0,2.34,2.34,0,0,0-.34,1.38,2.36,2.36,0,0,0,.34,1.39A1.23,1.23,0,0,0,273.57,24.24Z"/><path class="2dbb3ee9-f884-45ac-b53a-4f5718ca2822" d="M277.65,25.21V20.59l-.49-.08a.58.58,0,0,1-.25-.11.28.28,0,0,1-.1-.23v-.56h.84v-.42a2.31,2.31,0,0,1,.15-.86,1.63,1.63,0,0,1,.42-.66,1.72,1.72,0,0,1,.66-.41,2.43,2.43,0,0,1,.88-.14,2.37,2.37,0,0,1,.72.1l0,.68a.21.21,0,0,1-.15.2,1,1,0,0,1-.32,0,1.81,1.81,0,0,0-.43.05.77.77,0,0,0-.32.18.89.89,0,0,0-.21.34,2,2,0,0,0-.06.53v.37h1.46v1H279v4.63Z"/><path class="2dbb3ee9-f884-45ac-b53a-4f5718ca2822" d="M283.67,19.47a3,3,0,0,1,1.15.21,2.41,2.41,0,0,1,.88.58,2.46,2.46,0,0,1,.56.91,3.73,3.73,0,0,1,0,2.41,2.58,2.58,0,0,1-.56.92,2.41,2.41,0,0,1-.88.58,3,3,0,0,1-1.15.21,3.06,3.06,0,0,1-1.15-.21,2.5,2.5,0,0,1-.88-.58,2.58,2.58,0,0,1-.56-.92,3.56,3.56,0,0,1,0-2.41,2.46,2.46,0,0,1,.56-.91,2.5,2.5,0,0,1,.88-.58A3.06,3.06,0,0,1,283.67,19.47Zm0,4.77a1.2,1.2,0,0,0,1.05-.47,2.43,2.43,0,0,0,.34-1.39,2.46,2.46,0,0,0-.34-1.39,1.21,1.21,0,0,0-1.05-.48,1.19,1.19,0,0,0-1.05.49,2.34,2.34,0,0,0-.34,1.38,2.36,2.36,0,0,0,.34,1.39A1.23,1.23,0,0,0,283.67,24.24Z"/><path class="2dbb3ee9-f884-45ac-b53a-4f5718ca2822" d="M287.52,25.21V19.56h.8a.44.44,0,0,1,.29.08.49.49,0,0,1,.11.26l.08.69a2.66,2.66,0,0,1,.71-.83,1.51,1.51,0,0,1,.91-.3,1.2,1.2,0,0,1,.7.19l-.18,1a.21.21,0,0,1-.07.14.24.24,0,0,1-.15,0,.84.84,0,0,1-.23,0,1.76,1.76,0,0,0-.38,0,1.12,1.12,0,0,0-.72.24,1.76,1.76,0,0,0-.51.68v3.52Z"/><path class="2dbb3ee9-f884-45ac-b53a-4f5718ca2822" d="M292,25.21V19.56h.83a.35.35,0,0,1,.35.25l.09.42a2.91,2.91,0,0,1,.31-.3,1.51,1.51,0,0,1,.34-.24,2,2,0,0,1,.4-.16,1.73,1.73,0,0,1,.47-.06,1.32,1.32,0,0,1,.87.29,1.85,1.85,0,0,1,.52.77,1.52,1.52,0,0,1,.33-.48,2,2,0,0,1,.43-.33,2.3,2.3,0,0,1,.5-.18,2,2,0,0,1,.54-.07,2.16,2.16,0,0,1,.83.15,1.46,1.46,0,0,1,.61.42,1.75,1.75,0,0,1,.38.67,3,3,0,0,1,.13.9v3.6h-1.36v-3.6a1.19,1.19,0,0,0-.24-.81.87.87,0,0,0-.69-.27,1,1,0,0,0-.39.07,1,1,0,0,0-.31.21.89.89,0,0,0-.21.34,1.11,1.11,0,0,0-.08.46v3.6H295.3v-3.6a1.24,1.24,0,0,0-.23-.82.87.87,0,0,0-.68-.26,1,1,0,0,0-.54.15,1.76,1.76,0,0,0-.48.4v4.13Z"/><path class="2dbb3ee9-f884-45ac-b53a-4f5718ca2822" d="M303.47,25.21v-8h2.75a5.13,5.13,0,0,1,1.33.15,2.65,2.65,0,0,1,.91.42,1.67,1.67,0,0,1,.52.67,2.23,2.23,0,0,1,.16.88,1.61,1.61,0,0,1-.08.54,1.42,1.42,0,0,1-.25.47,2.16,2.16,0,0,1-.44.41,2.93,2.93,0,0,1-.64.31c1.09.24,1.64.83,1.64,1.77a2.18,2.18,0,0,1-.19.93,2,2,0,0,1-.56.74,2.73,2.73,0,0,1-.91.49,3.88,3.88,0,0,1-1.23.18ZM305,20.7h1.19a2,2,0,0,0,1.14-.28,1,1,0,0,0,.39-.87,1.06,1.06,0,0,0-.35-.89,1.82,1.82,0,0,0-1.1-.26H305Zm0,1v2.33h1.51a2,2,0,0,0,.69-.1,1.12,1.12,0,0,0,.44-.26,1,1,0,0,0,.24-.39,1.4,1.4,0,0,0,.08-.47,1.14,1.14,0,0,0-.09-.46.87.87,0,0,0-.25-.35,1.16,1.16,0,0,0-.46-.22,2.13,2.13,0,0,0-.66-.08Z"/><path class="2dbb3ee9-f884-45ac-b53a-4f5718ca2822" d="M266.19,39a2.14,2.14,0,0,0,.87-.16,2,2,0,0,0,.66-.46,2.15,2.15,0,0,0,.4-.71,2.67,2.67,0,0,0,.14-.91V31.93h1.06v4.79a3.66,3.66,0,0,1-.21,1.26,3,3,0,0,1-.62,1,2.76,2.76,0,0,1-1,.67,3.7,3.7,0,0,1-2.62,0,2.76,2.76,0,0,1-1-.67,2.81,2.81,0,0,1-.62-1,3.44,3.44,0,0,1-.22-1.26V31.93h1.06v4.78a2.9,2.9,0,0,0,.14.91,2.07,2.07,0,0,0,.41.71,1.94,1.94,0,0,0,.65.47A2.23,2.23,0,0,0,266.19,39Z"/><path class="2dbb3ee9-f884-45ac-b53a-4f5718ca2822" d="M271,39.81V34.24h.59a.26.26,0,0,1,.26.2l.08.61a2.94,2.94,0,0,1,.81-.65,2,2,0,0,1,1-.25,2,2,0,0,1,.81.15,1.57,1.57,0,0,1,.58.43,1.88,1.88,0,0,1,.36.67,2.93,2.93,0,0,1,.12.86v3.55h-1V36.26a1.51,1.51,0,0,0-.29-1,1.09,1.09,0,0,0-.88-.35,1.63,1.63,0,0,0-.81.21,2.66,2.66,0,0,0-.7.57v4.1Z"/><path class="2dbb3ee9-f884-45ac-b53a-4f5718ca2822" d="M278.43,32.49a.63.63,0,0,1-.06.27,1.07,1.07,0,0,1-.15.22.91.91,0,0,1-.23.15.76.76,0,0,1-.27,0,.75.75,0,0,1-.26,0,.71.71,0,0,1-.22-.15.62.62,0,0,1-.15-.22.63.63,0,0,1-.06-.27.6.6,0,0,1,.06-.27.57.57,0,0,1,.15-.23.71.71,0,0,1,.22-.15.58.58,0,0,1,.26-.05.59.59,0,0,1,.27.05.67.67,0,0,1,.38.38A.6.6,0,0,1,278.43,32.49Zm-.22,1.75v5.57h-1V34.24Z"/><path class="2dbb3ee9-f884-45ac-b53a-4f5718ca2822" d="M282.19,34.15a3,3,0,0,1,1.1.2,2.38,2.38,0,0,1,.84.58,2.63,2.63,0,0,1,.53.91,4,4,0,0,1,0,2.37,2.68,2.68,0,0,1-.53.9,2.38,2.38,0,0,1-.84.58,3,3,0,0,1-1.1.2,2.92,2.92,0,0,1-1.1-.2,2.38,2.38,0,0,1-.84-.58,2.7,2.7,0,0,1-.54-.9,4,4,0,0,1,0-2.37,2.65,2.65,0,0,1,.54-.91,2.38,2.38,0,0,1,.84-.58A2.92,2.92,0,0,1,282.19,34.15Zm0,5a1.42,1.42,0,0,0,1.23-.55,3.12,3.12,0,0,0,0-3.09,1.43,1.43,0,0,0-1.23-.56,1.83,1.83,0,0,0-.73.14,1.48,1.48,0,0,0-.51.42,1.84,1.84,0,0,0-.31.66,3.46,3.46,0,0,0-.1.89,3.38,3.38,0,0,0,.1.88,1.84,1.84,0,0,0,.31.66,1.45,1.45,0,0,0,.51.41A1.67,1.67,0,0,0,282.19,39.12Z"/><path class="2dbb3ee9-f884-45ac-b53a-4f5718ca2822" d="M286.05,39.81V34.24h.58a.26.26,0,0,1,.27.2l.07.61a3.13,3.13,0,0,1,.82-.65,2.25,2.25,0,0,1,1.84-.1,1.57,1.57,0,0,1,.58.43,1.88,1.88,0,0,1,.36.67,2.93,2.93,0,0,1,.12.86v3.55h-1V36.26a1.51,1.51,0,0,0-.29-1,1.09,1.09,0,0,0-.88-.35,1.7,1.7,0,0,0-.82.21,2.62,2.62,0,0,0-.69.57v4.1Z"/><path class="2dbb3ee9-f884-45ac-b53a-4f5718ca2822" d="M320.77,10.91h3.41v.9h-4.47V3.92h1.06Z"/><path class="2dbb3ee9-f884-45ac-b53a-4f5718ca2822" d="M327.21,6.15a2.56,2.56,0,0,1,.93.16,2.29,2.29,0,0,1,.73.49,2.34,2.34,0,0,1,.48.78,2.91,2.91,0,0,1,.17,1.06.58.58,0,0,1,0,.31c0,.05-.09.07-.18.07h-3.71a3.07,3.07,0,0,0,.14.92,1.79,1.79,0,0,0,.37.65,1.26,1.26,0,0,0,.55.39,1.8,1.8,0,0,0,.71.13A2.38,2.38,0,0,0,328,11a2.77,2.77,0,0,0,.45-.19,2.45,2.45,0,0,0,.33-.18.4.4,0,0,1,.22-.09.24.24,0,0,1,.19.1l.27.36a2.25,2.25,0,0,1-.43.38,2.53,2.53,0,0,1-.55.26,3,3,0,0,1-.59.16,3.2,3.2,0,0,1-.61.05,2.87,2.87,0,0,1-1.07-.19,2.41,2.41,0,0,1-.84-.57,2.81,2.81,0,0,1-.55-.94,3.8,3.8,0,0,1-.2-1.27,3.24,3.24,0,0,1,.18-1.09,2.64,2.64,0,0,1,.51-.88,2.4,2.4,0,0,1,.82-.58A2.75,2.75,0,0,1,327.21,6.15Zm0,.72a1.46,1.46,0,0,0-1.11.41,2,2,0,0,0-.51,1.13h3a2.06,2.06,0,0,0-.09-.62,1.39,1.39,0,0,0-.28-.49,1.19,1.19,0,0,0-.44-.32A1.4,1.4,0,0,0,327.23,6.87Z"/><path class="2dbb3ee9-f884-45ac-b53a-4f5718ca2822" d="M330.77,11.81V6.23h.58a.26.26,0,0,1,.27.21l.07.6a3.61,3.61,0,0,1,.82-.65,2.15,2.15,0,0,1,1-.24,2,2,0,0,1,.81.15,1.47,1.47,0,0,1,.58.43,1.72,1.72,0,0,1,.36.67,2.88,2.88,0,0,1,.12.86v3.55h-1V8.26a1.51,1.51,0,0,0-.29-1,1.06,1.06,0,0,0-.88-.35,1.63,1.63,0,0,0-.81.21,2.47,2.47,0,0,0-.7.56v4.11Z"/><path class="2dbb3ee9-f884-45ac-b53a-4f5718ca2822" d="M338.76,6.14a3,3,0,0,1,.68.08,2.27,2.27,0,0,1,.58.23h1.51v.37c0,.12-.08.2-.23.23l-.63.09a1.86,1.86,0,0,1,0,1.53,1.56,1.56,0,0,1-.44.57,1.92,1.92,0,0,1-.66.37,2.75,2.75,0,0,1-.84.12,2.86,2.86,0,0,1-.73-.09.92.92,0,0,0-.27.24.48.48,0,0,0-.09.26.34.34,0,0,0,.16.31,1.09,1.09,0,0,0,.42.15,3.64,3.64,0,0,0,.6.05h.69a3.82,3.82,0,0,1,.68.06,1.93,1.93,0,0,1,.6.2,1,1,0,0,1,.42.38,1.15,1.15,0,0,1,.16.64,1.49,1.49,0,0,1-.18.7,1.92,1.92,0,0,1-.51.6,2.44,2.44,0,0,1-.82.42,3.38,3.38,0,0,1-1.09.16,4.21,4.21,0,0,1-1.07-.12,2.75,2.75,0,0,1-.77-.32,1.53,1.53,0,0,1-.45-.47,1.15,1.15,0,0,1-.15-.56,1,1,0,0,1,.26-.7,1.63,1.63,0,0,1,.72-.46,1,1,0,0,1-.38-.3.79.79,0,0,1-.14-.49,1.18,1.18,0,0,1,0-.25,1,1,0,0,1,.14-.25,1.27,1.27,0,0,1,.22-.25,1.84,1.84,0,0,1,.31-.2,1.81,1.81,0,0,1-.65-.61,1.74,1.74,0,0,1-.23-.9,1.67,1.67,0,0,1,.16-.74,1.59,1.59,0,0,1,.43-.56,1.88,1.88,0,0,1,.67-.36A2.57,2.57,0,0,1,338.76,6.14Zm1.74,6a.51.51,0,0,0-.11-.34.7.7,0,0,0-.32-.2,2.39,2.39,0,0,0-.46-.11,4.63,4.63,0,0,0-.54,0h-.58a2.12,2.12,0,0,1-.57-.07,1.66,1.66,0,0,0-.51.36.72.72,0,0,0-.19.51.7.7,0,0,0,.09.35.9.9,0,0,0,.3.28,1.8,1.8,0,0,0,.5.19,2.91,2.91,0,0,0,.7.07,3.71,3.71,0,0,0,.71-.07,1.72,1.72,0,0,0,.53-.21,1.05,1.05,0,0,0,.34-.32A.81.81,0,0,0,340.5,12.09Zm-1.74-3a1.44,1.44,0,0,0,.53-.08,1,1,0,0,0,.38-.23,1,1,0,0,0,.23-.35A1.34,1.34,0,0,0,340,8a1.1,1.1,0,0,0-.31-.81,1.52,1.52,0,0,0-1.81,0,1.1,1.1,0,0,0-.31.81,1.34,1.34,0,0,0,.08.46,1,1,0,0,0,.24.35,1,1,0,0,0,.38.23A1.37,1.37,0,0,0,338.76,9.08Z"/><path class="2dbb3ee9-f884-45ac-b53a-4f5718ca2822" d="M344.2,11.89a1.38,1.38,0,0,1-1-.36,1.47,1.47,0,0,1-.35-1.07V7.05h-.67a.19.19,0,0,1-.21-.21V6.45l.91-.12.23-1.72a.17.17,0,0,1,.07-.13.2.2,0,0,1,.15-.05h.5V6.34h1.59v.71h-1.59V10.4a.68.68,0,0,0,.17.52.6.6,0,0,0,.44.17.68.68,0,0,0,.26,0l.2-.09.14-.09a.16.16,0,0,1,.1,0,.17.17,0,0,1,.14.09l.28.47a1.69,1.69,0,0,1-.61.37A2,2,0,0,1,344.2,11.89Z"/><path class="2dbb3ee9-f884-45ac-b53a-4f5718ca2822" d="M346.61,11.81V3.7h1V7a3,3,0,0,1,.79-.6,2,2,0,0,1,1-.23,2,2,0,0,1,.81.15,1.47,1.47,0,0,1,.58.43,1.72,1.72,0,0,1,.36.67,2.88,2.88,0,0,1,.12.86v3.55h-1V8.26a1.51,1.51,0,0,0-.29-1,1.06,1.06,0,0,0-.88-.35,1.63,1.63,0,0,0-.81.21,2.47,2.47,0,0,0-.7.56v4.11Z"/><path class="2dbb3ee9-f884-45ac-b53a-4f5718ca2822" d="M352.75,6.81h4.72v.74h-4.72Zm0,1.84h4.72v.74h-4.72Z"/><path class="2dbb3ee9-f884-45ac-b53a-4f5718ca2822" d="M361.71,3.84a2.75,2.75,0,0,1,.93.14,2.26,2.26,0,0,1,.73.41,1.83,1.83,0,0,1,.47.63,1.9,1.9,0,0,1,.17.83,2.26,2.26,0,0,1-.09.67,1.73,1.73,0,0,1-.28.52,1.75,1.75,0,0,1-.43.38,2.44,2.44,0,0,1-.57.24,2.15,2.15,0,0,1,1.16.69,1.84,1.84,0,0,1,.39,1.2,2.19,2.19,0,0,1-.21,1,2,2,0,0,1-.56.74,2.52,2.52,0,0,1-.83.47,3.11,3.11,0,0,1-1,.16,3.43,3.43,0,0,1-1.08-.15,2.18,2.18,0,0,1-1.26-1.09,4.9,4.9,0,0,1-.33-.81l.42-.18a.59.59,0,0,1,.23-.05.41.41,0,0,1,.19.05.29.29,0,0,1,.13.14s0,0,0,0l0,.05q.07.16.18.36a1.6,1.6,0,0,0,.76.68,1.78,1.78,0,0,0,.69.12,1.83,1.83,0,0,0,.73-.14,1.45,1.45,0,0,0,.51-.35,1.28,1.28,0,0,0,.31-.47,1.26,1.26,0,0,0,.11-.53,1.81,1.81,0,0,0-.09-.58.93.93,0,0,0-.3-.46,1.71,1.71,0,0,0-.62-.3,4,4,0,0,0-1-.11V7.41a3.1,3.1,0,0,0,.86-.11,1.74,1.74,0,0,0,.58-.28,1,1,0,0,0,.32-.44,1.43,1.43,0,0,0,.11-.56,1.48,1.48,0,0,0-.11-.59,1.08,1.08,0,0,0-.3-.42,1.26,1.26,0,0,0-.44-.25,1.92,1.92,0,0,0-.55-.08,1.63,1.63,0,0,0-.55.09,1.39,1.39,0,0,0-.45.24,1.46,1.46,0,0,0-.33.37,2.11,2.11,0,0,0-.19.47.4.4,0,0,1-.14.23.33.33,0,0,1-.22.08h-.13l-.51-.09a2.85,2.85,0,0,1,.3-1,2.21,2.21,0,0,1,.56-.69,2.32,2.32,0,0,1,.77-.43A3.19,3.19,0,0,1,361.71,3.84Z"/><path class="2dbb3ee9-f884-45ac-b53a-4f5718ca2822" d="M320.77,24.24h3.41v.9h-4.47V17.26h1.06Z"/><path class="2dbb3ee9-f884-45ac-b53a-4f5718ca2822" d="M327.21,19.48a2.56,2.56,0,0,1,.93.17,2.11,2.11,0,0,1,.73.48,2.34,2.34,0,0,1,.48.78,3,3,0,0,1,.17,1.06.55.55,0,0,1,0,.31.19.19,0,0,1-.18.08h-3.71a3.18,3.18,0,0,0,.14.92,1.87,1.87,0,0,0,.37.65,1.45,1.45,0,0,0,.55.39,2,2,0,0,0,.71.13,2,2,0,0,0,.64-.09,4.2,4.2,0,0,0,.45-.18l.33-.19a.46.46,0,0,1,.22-.08.23.23,0,0,1,.19.09l.27.36a2,2,0,0,1-.43.38,2.56,2.56,0,0,1-.55.27,3,3,0,0,1-.59.15,3.23,3.23,0,0,1-.61.06,2.87,2.87,0,0,1-1.07-.2,2.41,2.41,0,0,1-.84-.57,2.67,2.67,0,0,1-.55-.93,3.86,3.86,0,0,1-.2-1.28,3.24,3.24,0,0,1,.18-1.09,2.64,2.64,0,0,1,.51-.88,2.54,2.54,0,0,1,.82-.58A2.75,2.75,0,0,1,327.21,19.48Zm0,.72a1.5,1.5,0,0,0-1.11.41,2,2,0,0,0-.51,1.14h3a2.08,2.08,0,0,0-.09-.63,1.39,1.39,0,0,0-.28-.49,1.32,1.32,0,0,0-.44-.32A1.57,1.57,0,0,0,327.23,20.2Z"/><path class="2dbb3ee9-f884-45ac-b53a-4f5718ca2822" d="M330.77,25.14V19.57h.58a.26.26,0,0,1,.27.2l.07.61a3.13,3.13,0,0,1,.82-.65,2,2,0,0,1,1-.25,2,2,0,0,1,.81.15,1.57,1.57,0,0,1,.58.43,1.88,1.88,0,0,1,.36.67,2.93,2.93,0,0,1,.12.86v3.55h-1V21.59a1.51,1.51,0,0,0-.29-1,1.09,1.09,0,0,0-.88-.35,1.63,1.63,0,0,0-.81.21,2.51,2.51,0,0,0-.7.57v4.1Z"/><path class="2dbb3ee9-f884-45ac-b53a-4f5718ca2822" d="M338.76,19.47a3,3,0,0,1,.68.08,2.72,2.72,0,0,1,.58.24h1.51v.36c0,.12-.08.2-.23.23l-.63.09a1.74,1.74,0,0,1,.18.8,1.78,1.78,0,0,1-.15.74,1.75,1.75,0,0,1-.44.57,1.9,1.9,0,0,1-.66.36,2.74,2.74,0,0,1-.84.13A2.48,2.48,0,0,1,338,23a.94.94,0,0,0-.27.25.43.43,0,0,0-.09.25.34.34,0,0,0,.16.31,1.09,1.09,0,0,0,.42.15,3.64,3.64,0,0,0,.6.05h.69a3.82,3.82,0,0,1,.68.06,2.23,2.23,0,0,1,.6.2,1,1,0,0,1,.42.39,1.09,1.09,0,0,1,.16.63,1.49,1.49,0,0,1-.18.7,2,2,0,0,1-.51.61,2.87,2.87,0,0,1-.82.42,3.67,3.67,0,0,1-1.09.16,4.21,4.21,0,0,1-1.07-.12,2.48,2.48,0,0,1-.77-.33,1.34,1.34,0,0,1-.45-.47,1.12,1.12,0,0,1-.15-.56,1,1,0,0,1,.26-.7,1.72,1.72,0,0,1,.72-.46,1,1,0,0,1-.38-.29.85.85,0,0,1-.14-.5,1.18,1.18,0,0,1,0-.25,1,1,0,0,1,.14-.25,1.23,1.23,0,0,1,.22-.24,1.41,1.41,0,0,1,.31-.21,1.73,1.73,0,0,1-.65-.61,1.71,1.71,0,0,1-.23-.89,1.64,1.64,0,0,1,.16-.74,1.72,1.72,0,0,1,.43-.57,2.26,2.26,0,0,1,.67-.36A2.86,2.86,0,0,1,338.76,19.47Zm1.74,6a.53.53,0,0,0-.11-.34.8.8,0,0,0-.32-.2,1.85,1.85,0,0,0-.46-.1,3.12,3.12,0,0,0-.54,0h-.58a2.12,2.12,0,0,1-.57-.07,1.66,1.66,0,0,0-.51.36.76.76,0,0,0-.19.52.73.73,0,0,0,.09.35,1,1,0,0,0,.3.28,1.81,1.81,0,0,0,.5.18,2.91,2.91,0,0,0,.7.07,3,3,0,0,0,.71-.07,1.72,1.72,0,0,0,.53-.21,1,1,0,0,0,.34-.32A.81.81,0,0,0,340.5,25.42Zm-1.74-3a1.44,1.44,0,0,0,.53-.09,1,1,0,0,0,.38-.23.93.93,0,0,0,.23-.35,1.34,1.34,0,0,0,.08-.46,1.1,1.1,0,0,0-.31-.81,1.52,1.52,0,0,0-1.81,0,1.1,1.1,0,0,0-.31.81,1.34,1.34,0,0,0,.08.46,1,1,0,0,0,.24.35,1,1,0,0,0,.38.23A1.36,1.36,0,0,0,338.76,22.42Z"/><path class="2dbb3ee9-f884-45ac-b53a-4f5718ca2822" d="M344.2,25.23a1.38,1.38,0,0,1-1-.37,1.46,1.46,0,0,1-.35-1.06V20.39h-.67a.25.25,0,0,1-.15-.05.22.22,0,0,1-.06-.17v-.39l.91-.11.23-1.72a.19.19,0,0,1,.07-.14.25.25,0,0,1,.15,0h.5v1.92h1.59v.71h-1.59v3.34a.67.67,0,0,0,.17.52.57.57,0,0,0,.44.17.68.68,0,0,0,.26,0,.61.61,0,0,0,.2-.09l.14-.09a.16.16,0,0,1,.1,0,.17.17,0,0,1,.14.09l.28.47a1.69,1.69,0,0,1-.61.37A2.06,2.06,0,0,1,344.2,25.23Z"/><path class="2dbb3ee9-f884-45ac-b53a-4f5718ca2822" d="M346.61,25.14V17h1v3.28a2.84,2.84,0,0,1,.79-.61,2.17,2.17,0,0,1,1-.23,2,2,0,0,1,.81.15,1.57,1.57,0,0,1,.58.43,1.88,1.88,0,0,1,.36.67,2.93,2.93,0,0,1,.12.86v3.55h-1V21.59a1.51,1.51,0,0,0-.29-1,1.09,1.09,0,0,0-.88-.35,1.63,1.63,0,0,0-.81.21,2.51,2.51,0,0,0-.7.57v4.1Z"/><path class="2dbb3ee9-f884-45ac-b53a-4f5718ca2822" d="M352.75,20.14h4.72v.74h-4.72Zm0,1.84h4.72v.75h-4.72Z"/><path class="2dbb3ee9-f884-45ac-b53a-4f5718ca2822" d="M363.68,17.69a.45.45,0,0,1-.13.34.62.62,0,0,1-.45.14h-2.47l-.36,2.06a6,6,0,0,1,1.14-.13,3,3,0,0,1,1.08.18,2.18,2.18,0,0,1,.79.5,2.23,2.23,0,0,1,.48.76,2.62,2.62,0,0,1,.17.94,2.8,2.8,0,0,1-.23,1.14,2.47,2.47,0,0,1-.6.86,2.59,2.59,0,0,1-.9.56,3.31,3.31,0,0,1-1.11.19,3.62,3.62,0,0,1-.67-.07,3.4,3.4,0,0,1-.59-.19,2.44,2.44,0,0,1-.51-.26,2.86,2.86,0,0,1-.42-.31l.29-.42a.31.31,0,0,1,.27-.14.43.43,0,0,1,.24.08l.34.19a3.05,3.05,0,0,0,.47.19,2,2,0,0,0,.63.09,1.91,1.91,0,0,0,.74-.14,1.56,1.56,0,0,0,.57-.37,2,2,0,0,0,.36-.59,2.29,2.29,0,0,0,.12-.76,2,2,0,0,0-.1-.67,1.22,1.22,0,0,0-.33-.5A1.45,1.45,0,0,0,362,21a2.21,2.21,0,0,0-.76-.11,3.2,3.2,0,0,0-.61,0,3.92,3.92,0,0,0-.66.15l-.62-.18.64-3.68h3.73Z"/><path class="2dbb3ee9-f884-45ac-b53a-4f5718ca2822" d="M185.84,93.37h3.41v.9h-4.48V86.39h1.07Z"/><path class="2dbb3ee9-f884-45ac-b53a-4f5718ca2822" d="M192.33,88.61a3,3,0,0,1,1.1.2,2.26,2.26,0,0,1,.83.58,2.52,2.52,0,0,1,.53.9,3.82,3.82,0,0,1,0,2.38,2.52,2.52,0,0,1-.53.9,2.13,2.13,0,0,1-.83.57,3.15,3.15,0,0,1-2.21,0,2.32,2.32,0,0,1-.84-.57,2.52,2.52,0,0,1-.53-.9,3.82,3.82,0,0,1,0-2.38,2.52,2.52,0,0,1,.53-.9,2.48,2.48,0,0,1,.84-.58A3,3,0,0,1,192.33,88.61Zm0,5a1.42,1.42,0,0,0,1.23-.55,3.2,3.2,0,0,0,0-3.1,1.42,1.42,0,0,0-1.23-.55,1.83,1.83,0,0,0-.73.14,1.29,1.29,0,0,0-.51.41,1.81,1.81,0,0,0-.31.67,3.38,3.38,0,0,0-.1.88,3.46,3.46,0,0,0,.1.89,1.84,1.84,0,0,0,.31.66,1.29,1.29,0,0,0,.51.41A1.83,1.83,0,0,0,192.33,93.58Z"/><path class="2dbb3ee9-f884-45ac-b53a-4f5718ca2822" d="M198.06,88.6a3,3,0,0,1,.68.08,2.29,2.29,0,0,1,.58.24h1.51v.36c0,.12-.08.2-.23.23l-.63.09a1.86,1.86,0,0,1,0,1.53,1.56,1.56,0,0,1-.44.57,1.92,1.92,0,0,1-.66.37,2.75,2.75,0,0,1-.84.12,2.86,2.86,0,0,1-.73-.09,1.09,1.09,0,0,0-.27.24.48.48,0,0,0-.09.26.34.34,0,0,0,.16.31,1.09,1.09,0,0,0,.42.15,3.64,3.64,0,0,0,.6,0h.69a3.82,3.82,0,0,1,.68.06,2.23,2.23,0,0,1,.6.2,1,1,0,0,1,.42.38,1.15,1.15,0,0,1,.16.64,1.49,1.49,0,0,1-.18.7,1.82,1.82,0,0,1-.51.6,2.65,2.65,0,0,1-.82.43,3.68,3.68,0,0,1-1.09.15,4.21,4.21,0,0,1-1.07-.12,2.75,2.75,0,0,1-.77-.32,1.43,1.43,0,0,1-.45-.47,1.15,1.15,0,0,1-.15-.56,1,1,0,0,1,.26-.7,1.63,1.63,0,0,1,.72-.46,1,1,0,0,1-.38-.3.79.79,0,0,1-.14-.49,1.18,1.18,0,0,1,0-.25,1,1,0,0,1,.14-.25,1,1,0,0,1,.22-.24,1.41,1.41,0,0,1,.31-.21,1.81,1.81,0,0,1-.65-.61,1.73,1.73,0,0,1-.23-.89,1.71,1.71,0,0,1,.59-1.31,1.88,1.88,0,0,1,.67-.36A2.57,2.57,0,0,1,198.06,88.6Zm1.74,6a.47.47,0,0,0-.12-.34.7.7,0,0,0-.31-.2,1.85,1.85,0,0,0-.46-.1,3.12,3.12,0,0,0-.54,0h-.58a2.12,2.12,0,0,1-.57-.07,1.66,1.66,0,0,0-.51.36.72.72,0,0,0-.19.51.7.7,0,0,0,.09.35.9.9,0,0,0,.3.28,1.54,1.54,0,0,0,.5.19,2.85,2.85,0,0,0,.7.07,3,3,0,0,0,.71-.07,1.72,1.72,0,0,0,.53-.21.92.92,0,0,0,.33-.32A.73.73,0,0,0,199.8,94.55Zm-1.74-3a1.44,1.44,0,0,0,.53-.08,1,1,0,0,0,.38-.23,1,1,0,0,0,.23-.35,1.34,1.34,0,0,0,.08-.46,1.1,1.1,0,0,0-.31-.81,1.52,1.52,0,0,0-1.81,0,1.1,1.1,0,0,0-.31.81,1.34,1.34,0,0,0,.08.46,1,1,0,0,0,.24.35.9.9,0,0,0,.38.23A1.37,1.37,0,0,0,198.06,91.54Z"/><path class="2dbb3ee9-f884-45ac-b53a-4f5718ca2822" d="M202.93,93.28a1.63,1.63,0,0,1,.55.09,1.22,1.22,0,0,1,.43.25,1.09,1.09,0,0,1,.29.41,1.25,1.25,0,0,1,.11.53,1.51,1.51,0,0,1-.08.48,2.06,2.06,0,0,1-.21.42,2.08,2.08,0,0,1-.3.38q-.16.19-.36.39l-1.21,1.24a1.1,1.1,0,0,1,.26-.06l.25,0h1.54a.25.25,0,0,1,.15,0,.19.19,0,0,1,.05.14v.35h-3.06v-.2a.5.5,0,0,1,0-.12.42.42,0,0,1,.08-.12L202.91,96l.34-.35a2.53,2.53,0,0,0,.25-.35,1.26,1.26,0,0,0,.17-.35,1.21,1.21,0,0,0,.06-.38.78.78,0,0,0-.07-.35.69.69,0,0,0-.17-.26,1.17,1.17,0,0,0-.27-.15,1.13,1.13,0,0,0-.32,0,.83.83,0,0,0-.32.06.72.72,0,0,0-.26.14.67.67,0,0,0-.19.22.83.83,0,0,0-.12.27.26.26,0,0,1-.07.14.29.29,0,0,1-.14,0h-.07l-.3,0a1.84,1.84,0,0,1,.17-.56,1.44,1.44,0,0,1,.33-.4,1.41,1.41,0,0,1,.45-.25A1.63,1.63,0,0,1,202.93,93.28Z"/><path class="2dbb3ee9-f884-45ac-b53a-4f5718ca2822" d="M206.31,90.81a8.31,8.31,0,0,0,.31,2.28,9.1,9.1,0,0,0,.87,2.12.26.26,0,0,1,0,.1.29.29,0,0,1,0,.09.28.28,0,0,1,0,.13l-.1.09-.44.26a10.55,10.55,0,0,1-.7-1.25,9.6,9.6,0,0,1-.47-1.25,9.23,9.23,0,0,1-.26-1.27,11.07,11.07,0,0,1-.08-1.3,11.24,11.24,0,0,1,.08-1.31,9.4,9.4,0,0,1,.26-1.26,9,9,0,0,1,.47-1.24,9.91,9.91,0,0,1,.7-1.26l.44.27a.39.39,0,0,1,.1.08.28.28,0,0,1,0,.13.38.38,0,0,1-.06.19,8.7,8.7,0,0,0-1.18,4.4Z"/><path class="2dbb3ee9-f884-45ac-b53a-4f5718ca2822" d="M209.6,93.52h1.7V88.15c0-.17,0-.33,0-.49l-1.41,1.2a.24.24,0,0,1-.11.06.18.18,0,0,1-.1,0,.4.4,0,0,1-.15,0s-.08,0-.1-.09l-.31-.42,2.35-2h.79v7.15h1.56v.75H209.6Z"/><path class="2dbb3ee9-f884-45ac-b53a-4f5718ca2822" d="M220.45,90.33a6.3,6.3,0,0,1-.22,1.79,3.74,3.74,0,0,1-.61,1.25,2.39,2.39,0,0,1-.91.74,2.76,2.76,0,0,1-2.25,0,2.43,2.43,0,0,1-.9-.74,3.74,3.74,0,0,1-.61-1.25,7.39,7.39,0,0,1,0-3.58,3.7,3.7,0,0,1,.61-1.26,2.43,2.43,0,0,1,.9-.74,2.76,2.76,0,0,1,2.25,0,2.39,2.39,0,0,1,.91.74,3.7,3.7,0,0,1,.61,1.26A6.3,6.3,0,0,1,220.45,90.33Zm-1,0a6,6,0,0,0-.16-1.52,3.08,3.08,0,0,0-.4-1,1.49,1.49,0,0,0-1.29-.7,1.56,1.56,0,0,0-.7.16,1.58,1.58,0,0,0-.59.54,3.08,3.08,0,0,0-.4,1,6.55,6.55,0,0,0-.15,1.52,6.46,6.46,0,0,0,.15,1.51,3,3,0,0,0,.4,1,1.51,1.51,0,0,0,1.29.69,1.59,1.59,0,0,0,.7-.16,1.55,1.55,0,0,0,.59-.53,3,3,0,0,0,.4-1A5.92,5.92,0,0,0,219.44,90.33Z"/><path class="2dbb3ee9-f884-45ac-b53a-4f5718ca2822" d="M221.67,94.38a.57.57,0,0,1-.23.29.59.59,0,0,1-.31.09h-.41l3.3-8.23a.58.58,0,0,1,.21-.27.52.52,0,0,1,.31-.09H225Z"/><path class="2dbb3ee9-f884-45ac-b53a-4f5718ca2822" d="M226.47,93.52h1.69V88.15a3.93,3.93,0,0,1,0-.49l-1.41,1.2-.11.06a.22.22,0,0,1-.11,0,.4.4,0,0,1-.15,0,.26.26,0,0,1-.09-.09L226,88.4l2.34-2h.8v7.15h1.55v.75h-4.22Z"/><path class="2dbb3ee9-f884-45ac-b53a-4f5718ca2822" d="M237.32,90.33a6.28,6.28,0,0,1-.23,1.79,3.93,3.93,0,0,1-.6,1.25,2.46,2.46,0,0,1-.91.74,2.73,2.73,0,0,1-1.13.24,2.62,2.62,0,0,1-1.12-.24,2.46,2.46,0,0,1-.91-.74,3.55,3.55,0,0,1-.6-1.25,7.39,7.39,0,0,1,0-3.58,3.52,3.52,0,0,1,.6-1.26,2.46,2.46,0,0,1,.91-.74,2.62,2.62,0,0,1,1.12-.24,2.73,2.73,0,0,1,1.13.24,2.46,2.46,0,0,1,.91.74,3.89,3.89,0,0,1,.6,1.26A6.28,6.28,0,0,1,237.32,90.33Zm-1,0a6.55,6.55,0,0,0-.15-1.52,3.08,3.08,0,0,0-.41-1,1.58,1.58,0,0,0-.59-.54,1.56,1.56,0,0,0-.7-.16,1.49,1.49,0,0,0-1.29.7,3.33,3.33,0,0,0-.4,1,6.55,6.55,0,0,0-.15,1.52,6.46,6.46,0,0,0,.15,1.51,3.28,3.28,0,0,0,.4,1,1.55,1.55,0,0,0,.59.53,1.59,1.59,0,0,0,.7.16,1.51,1.51,0,0,0,1.29-.69,3,3,0,0,0,.41-1A6.46,6.46,0,0,0,236.3,90.33Z"/><path class="2dbb3ee9-f884-45ac-b53a-4f5718ca2822" d="M239.29,90.81a9.16,9.16,0,0,0-.3-2.29,9.06,9.06,0,0,0-.88-2.11.38.38,0,0,1-.06-.19.28.28,0,0,1,0-.13.39.39,0,0,1,.1-.08l.44-.27a11.33,11.33,0,0,1,.7,1.26,8.89,8.89,0,0,1,.46,1.24,9.44,9.44,0,0,1,.27,1.26,11.24,11.24,0,0,1,.08,1.31,11.07,11.07,0,0,1-.08,1.3,9.26,9.26,0,0,1-.27,1.27,9.51,9.51,0,0,1-.46,1.25,12.18,12.18,0,0,1-.7,1.25l-.44-.26-.1-.09a.28.28,0,0,1,0-.13s0-.06,0-.09a.93.93,0,0,1,.05-.1,9.1,9.1,0,0,0,.87-2.12A8.71,8.71,0,0,0,239.29,90.81Z"/><path class="2dbb3ee9-f884-45ac-b53a-4f5718ca2822" d="M215.29,108.27a6.45,6.45,0,0,1-.22,1.81,3.85,3.85,0,0,1-.61,1.27,2.61,2.61,0,0,1-.93.74,2.69,2.69,0,0,1-1.16.25,2.58,2.58,0,0,1-1.15-.25,2.52,2.52,0,0,1-.93-.74,3.85,3.85,0,0,1-.61-1.27,7.56,7.56,0,0,1,0-3.62,3.7,3.7,0,0,1,.61-1.26,2.66,2.66,0,0,1,.93-.75,2.72,2.72,0,0,1,1.15-.24,2.83,2.83,0,0,1,1.16.24,2.75,2.75,0,0,1,.93.75,3.7,3.7,0,0,1,.61,1.26A6.5,6.5,0,0,1,215.29,108.27Zm-1.4,0a6.4,6.4,0,0,0-.13-1.43,2.93,2.93,0,0,0-.33-.9,1.28,1.28,0,0,0-.49-.47,1.25,1.25,0,0,0-.57-.13,1.28,1.28,0,0,0-.57.13,1.26,1.26,0,0,0-.48.47,2.93,2.93,0,0,0-.33.9,7.13,7.13,0,0,0-.12,1.43,7,7,0,0,0,.12,1.43,2.9,2.9,0,0,0,.33.91,1.26,1.26,0,0,0,.48.47,1.28,1.28,0,0,0,.57.13,1.25,1.25,0,0,0,.57-.13,1.28,1.28,0,0,0,.49-.47,2.9,2.9,0,0,0,.33-.91A6.28,6.28,0,0,0,213.89,108.27Z"/><path class="2dbb3ee9-f884-45ac-b53a-4f5718ca2822" d="M258.54,93.37H262v.9h-4.48V86.39h1.07Z"/><path class="2dbb3ee9-f884-45ac-b53a-4f5718ca2822" d="M265,88.61a3,3,0,0,1,1.1.2,2.38,2.38,0,0,1,.84.58,2.68,2.68,0,0,1,.53.9,4,4,0,0,1,0,2.38,2.68,2.68,0,0,1-.53.9,2.24,2.24,0,0,1-.84.57,2.8,2.8,0,0,1-1.1.2,2.73,2.73,0,0,1-1.1-.2,2.24,2.24,0,0,1-.84-.57,2.7,2.7,0,0,1-.54-.9,4,4,0,0,1,0-2.38,2.7,2.7,0,0,1,.54-.9,2.38,2.38,0,0,1,.84-.58A2.92,2.92,0,0,1,265,88.61Zm0,5a1.42,1.42,0,0,0,1.23-.55,3.13,3.13,0,0,0,0-3.1,1.42,1.42,0,0,0-1.23-.55,1.83,1.83,0,0,0-.73.14,1.45,1.45,0,0,0-.51.41,1.81,1.81,0,0,0-.31.67,3.38,3.38,0,0,0-.1.88,3.46,3.46,0,0,0,.1.89,1.84,1.84,0,0,0,.31.66,1.45,1.45,0,0,0,.51.41A1.83,1.83,0,0,0,265,93.58Z"/><path class="2dbb3ee9-f884-45ac-b53a-4f5718ca2822" d="M270.76,88.6a2.88,2.88,0,0,1,.68.08,2.15,2.15,0,0,1,.58.24h1.51v.36c0,.12-.08.2-.23.23l-.63.09a1.86,1.86,0,0,1,0,1.53,1.56,1.56,0,0,1-.44.57,1.92,1.92,0,0,1-.66.37,2.75,2.75,0,0,1-.84.12,2.86,2.86,0,0,1-.73-.09,1.09,1.09,0,0,0-.27.24.48.48,0,0,0-.09.26.34.34,0,0,0,.16.31,1.15,1.15,0,0,0,.42.15,3.64,3.64,0,0,0,.6,0h.69a3.82,3.82,0,0,1,.68.06,2,2,0,0,1,.6.2,1.13,1.13,0,0,1,.43.38,1.24,1.24,0,0,1,.15.64,1.48,1.48,0,0,1-.17.7,1.74,1.74,0,0,1-.52.6,2.54,2.54,0,0,1-.82.43,3.64,3.64,0,0,1-1.09.15,4.21,4.21,0,0,1-1.07-.12,2.56,2.56,0,0,1-.76-.32,1.37,1.37,0,0,1-.46-.47,1.15,1.15,0,0,1-.15-.56,1,1,0,0,1,.26-.7,1.76,1.76,0,0,1,.72-.46,1,1,0,0,1-.38-.3.81.81,0,0,1-.09-.74,1,1,0,0,1,.13-.25,1.26,1.26,0,0,1,.22-.24,1.69,1.69,0,0,1,.31-.21,1.71,1.71,0,0,1-.64-.61,1.65,1.65,0,0,1-.24-.89,1.75,1.75,0,0,1,.16-.74,1.54,1.54,0,0,1,.44-.57,1.8,1.8,0,0,1,.67-.36A2.51,2.51,0,0,1,270.76,88.6Zm1.74,6a.51.51,0,0,0-.11-.34.73.73,0,0,0-.32-.2,1.87,1.87,0,0,0-.45-.1,3.31,3.31,0,0,0-.55,0h-.58a2.12,2.12,0,0,1-.57-.07,1.79,1.79,0,0,0-.51.36.72.72,0,0,0-.19.51.62.62,0,0,0,.1.35.78.78,0,0,0,.29.28,1.54,1.54,0,0,0,.5.19,2.91,2.91,0,0,0,.7.07,3,3,0,0,0,.71-.07,1.9,1.9,0,0,0,.54-.21,1.12,1.12,0,0,0,.33-.32A.81.81,0,0,0,272.5,94.55Zm-1.74-3a1.44,1.44,0,0,0,.53-.08,1,1,0,0,0,.38-.23,1,1,0,0,0,.23-.35,1.34,1.34,0,0,0,.08-.46,1.06,1.06,0,0,0-.31-.81,1.26,1.26,0,0,0-.91-.3,1.21,1.21,0,0,0-.89.3,1.06,1.06,0,0,0-.31.81,1.14,1.14,0,0,0,.08.46,1,1,0,0,0,.23.35,1,1,0,0,0,.38.23A1.37,1.37,0,0,0,270.76,91.54Z"/><path class="2dbb3ee9-f884-45ac-b53a-4f5718ca2822" d="M275.64,93.28a1.61,1.61,0,0,1,.54.09,1.36,1.36,0,0,1,.44.25,1.22,1.22,0,0,1,.29.41,1.25,1.25,0,0,1,.1.53,1.51,1.51,0,0,1-.07.48,2.06,2.06,0,0,1-.21.42,3.57,3.57,0,0,1-.3.38l-.37.39-1.21,1.24a1.22,1.22,0,0,1,.26-.06l.26,0h1.53a.21.21,0,0,1,.15,0,.2.2,0,0,1,.06.14v.35H274v-.2a.5.5,0,0,1,0-.12.83.83,0,0,1,.08-.12L275.62,96l.33-.35a2.63,2.63,0,0,0,.26-.35,1.58,1.58,0,0,0,.16-.35,1.21,1.21,0,0,0,.06-.38,1,1,0,0,0-.06-.35.86.86,0,0,0-.18-.26,1.1,1.1,0,0,0-.26-.15,1.14,1.14,0,0,0-.33,0,.87.87,0,0,0-.32.06A.82.82,0,0,0,275,94a.67.67,0,0,0-.19.22.81.81,0,0,0-.11.27.27.27,0,0,1-.08.14.25.25,0,0,1-.13,0h-.08l-.3,0a1.6,1.6,0,0,1,.18-.56,1.26,1.26,0,0,1,.32-.4,1.41,1.41,0,0,1,.45-.25A1.73,1.73,0,0,1,275.64,93.28Z"/><path class="2dbb3ee9-f884-45ac-b53a-4f5718ca2822" d="M279,90.81a8.7,8.7,0,0,0,.3,2.28,9.1,9.1,0,0,0,.87,2.12.31.31,0,0,1,.05.1s0,.06,0,.09a.2.2,0,0,1,0,.13l-.1.09-.43.26a10.67,10.67,0,0,1-.71-1.25,9.51,9.51,0,0,1-.46-1.25,8,8,0,0,1-.26-1.27,9.25,9.25,0,0,1-.09-1.3,9.4,9.4,0,0,1,.09-1.31,8.06,8.06,0,0,1,.26-1.26A8.89,8.89,0,0,1,279,87a10,10,0,0,1,.71-1.26l.43.27a.39.39,0,0,1,.1.08.2.2,0,0,1,0,.13.38.38,0,0,1-.06.19,9,9,0,0,0-.87,2.11A8.72,8.72,0,0,0,279,90.81Z"/><path class="2dbb3ee9-f884-45ac-b53a-4f5718ca2822" d="M282.31,93.52H284V88.15a3.93,3.93,0,0,1,0-.49l-1.41,1.2-.11.06a.22.22,0,0,1-.11,0,.4.4,0,0,1-.15,0,.26.26,0,0,1-.09-.09l-.31-.42,2.34-2h.8v7.15h1.55v.75h-4.22Z"/><path class="2dbb3ee9-f884-45ac-b53a-4f5718ca2822" d="M293.16,90.33a6.28,6.28,0,0,1-.23,1.79,3.73,3.73,0,0,1-.6,1.25,2.46,2.46,0,0,1-.91.74,2.7,2.7,0,0,1-1.13.24,2.62,2.62,0,0,1-1.12-.24,2.46,2.46,0,0,1-.91-.74,3.73,3.73,0,0,1-.6-1.25,7.39,7.39,0,0,1,0-3.58,3.69,3.69,0,0,1,.6-1.26,2.46,2.46,0,0,1,.91-.74,2.62,2.62,0,0,1,1.12-.24,2.7,2.7,0,0,1,1.13.24,2.46,2.46,0,0,1,.91.74,3.69,3.69,0,0,1,.6,1.26A6.28,6.28,0,0,1,293.16,90.33Zm-1,0a6.55,6.55,0,0,0-.15-1.52,3.08,3.08,0,0,0-.41-1,1.58,1.58,0,0,0-.59-.54,1.56,1.56,0,0,0-.7-.16,1.49,1.49,0,0,0-1.29.7,3.33,3.33,0,0,0-.4,1,6.55,6.55,0,0,0-.15,1.52,6.46,6.46,0,0,0,.15,1.51,3.28,3.28,0,0,0,.4,1,1.55,1.55,0,0,0,.59.53,1.59,1.59,0,0,0,.7.16,1.51,1.51,0,0,0,1.29-.69,3,3,0,0,0,.41-1A6.46,6.46,0,0,0,292.14,90.33Z"/><path class="2dbb3ee9-f884-45ac-b53a-4f5718ca2822" d="M294.37,94.38a.57.57,0,0,1-.23.29.59.59,0,0,1-.31.09h-.41l3.31-8.23a.51.51,0,0,1,.2-.27.54.54,0,0,1,.31-.09h.42Z"/><path class="2dbb3ee9-f884-45ac-b53a-4f5718ca2822" d="M301,86.3a3,3,0,0,1,.92.14,2.07,2.07,0,0,1,.73.41,1.8,1.8,0,0,1,.48.64,2,2,0,0,1,.17.83,1.91,1.91,0,0,1-.1.66,1.51,1.51,0,0,1-.27.52,1.73,1.73,0,0,1-.43.38,3,3,0,0,1-.57.25,2.12,2.12,0,0,1,1.16.68,1.84,1.84,0,0,1,.38,1.2,2.23,2.23,0,0,1-.2,1,2.3,2.3,0,0,1-.57.74,2.47,2.47,0,0,1-.83.46,3.12,3.12,0,0,1-1,.17,3.35,3.35,0,0,1-1.07-.16,2.13,2.13,0,0,1-1.26-1.08,5.43,5.43,0,0,1-.34-.82l.42-.18a.68.68,0,0,1,.23-.05.42.42,0,0,1,.2.05.32.32,0,0,1,.13.15.08.08,0,0,0,0,0s0,0,0,0a3.2,3.2,0,0,0,.19.36,1.48,1.48,0,0,0,.29.38,1.58,1.58,0,0,0,.47.3,1.71,1.71,0,0,0,.69.12,1.78,1.78,0,0,0,.72-.14,1.62,1.62,0,0,0,.52-.34,1.57,1.57,0,0,0,.31-.48,1.44,1.44,0,0,0,.11-.53,1.81,1.81,0,0,0-.09-.58,1,1,0,0,0-.31-.45,1.66,1.66,0,0,0-.61-.31,4,4,0,0,0-1-.11v-.71a3,3,0,0,0,.85-.11,1.65,1.65,0,0,0,.58-.28,1.09,1.09,0,0,0,.33-.44,1.43,1.43,0,0,0,.1-.56,1.35,1.35,0,0,0-.11-.59,1.17,1.17,0,0,0-.29-.42,1.36,1.36,0,0,0-.44-.25,2,2,0,0,0-.56-.08,1.67,1.67,0,0,0-.55.09,1.7,1.7,0,0,0-.44.24,1.51,1.51,0,0,0-.33.38,1.8,1.8,0,0,0-.2.47.47.47,0,0,1-.13.23.42.42,0,0,1-.23.07h-.12l-.51-.09a2.94,2.94,0,0,1,.29-1,2.44,2.44,0,0,1,.56-.7,2.37,2.37,0,0,1,.78-.43A3.14,3.14,0,0,1,301,86.3Z"/><path class="2dbb3ee9-f884-45ac-b53a-4f5718ca2822" d="M305.61,90.81a8.7,8.7,0,0,0-1.18-4.4.36.36,0,0,1-.05-.19.28.28,0,0,1,0-.13.39.39,0,0,1,.1-.08l.44-.27a9.91,9.91,0,0,1,.7,1.26,9,9,0,0,1,.47,1.24,9.4,9.4,0,0,1,.26,1.26,11.24,11.24,0,0,1,.08,1.31,11.07,11.07,0,0,1-.08,1.3,9.23,9.23,0,0,1-.26,1.27,9.6,9.6,0,0,1-.47,1.25,10.55,10.55,0,0,1-.7,1.25l-.44-.26-.1-.09a.33.33,0,0,1,0-.22.26.26,0,0,1,0-.1,9.59,9.59,0,0,0,.88-2.12A8.7,8.7,0,0,0,305.61,90.81Z"/><path class="2dbb3ee9-f884-45ac-b53a-4f5718ca2822" d="M308.15,94.38a.55.55,0,0,1-.22.29.61.61,0,0,1-.31.09h-.42l3.31-8.23a.57.57,0,0,1,.2-.27.55.55,0,0,1,.32-.09h.41Z"/><path class="2dbb3ee9-f884-45ac-b53a-4f5718ca2822" d="M313,90.81a8.7,8.7,0,0,0,.3,2.28,9.59,9.59,0,0,0,.88,2.12.26.26,0,0,1,0,.1.33.33,0,0,1,0,.22l-.1.09-.44.26a10.55,10.55,0,0,1-.7-1.25,9.6,9.6,0,0,1-.47-1.25,9.23,9.23,0,0,1-.26-1.27,11.07,11.07,0,0,1-.08-1.3,11.24,11.24,0,0,1,.08-1.31,9.4,9.4,0,0,1,.26-1.26,9,9,0,0,1,.47-1.24,9.91,9.91,0,0,1,.7-1.26l.44.27a.39.39,0,0,1,.1.08.28.28,0,0,1,0,.13.36.36,0,0,1-.05.19,8.7,8.7,0,0,0-1.18,4.4Z"/><path class="2dbb3ee9-f884-45ac-b53a-4f5718ca2822" d="M318.25,89.44a2.64,2.64,0,0,1,.89.15,2.3,2.3,0,0,1,.75.46,2.15,2.15,0,0,1,.5.74,2.41,2.41,0,0,1,.19,1,2.6,2.6,0,0,1-.2,1A2.48,2.48,0,0,1,319,94.16a3,3,0,0,1-1.1.2,3,3,0,0,1-1.07-.19,2.34,2.34,0,0,1-.82-.54,2.4,2.4,0,0,1-.53-.85,3.23,3.23,0,0,1-.18-1.11,2.82,2.82,0,0,1,.23-1.1,5.26,5.26,0,0,1,.73-1.26l2-2.69a1,1,0,0,1,.22-.17.78.78,0,0,1,.31-.06h.87l-2.73,3.46a2.38,2.38,0,0,1,1.36-.41Zm-2,2.4a2.17,2.17,0,0,0,.11.69,1.46,1.46,0,0,0,.32.54,1.59,1.59,0,0,0,.52.35,1.9,1.9,0,0,0,.7.12,2,2,0,0,0,.71-.12,1.75,1.75,0,0,0,.55-.36,1.58,1.58,0,0,0,.35-.53,1.85,1.85,0,0,0,.12-.67,1.94,1.94,0,0,0-.12-.7,1.55,1.55,0,0,0-.34-.53,1.49,1.49,0,0,0-.53-.33,1.81,1.81,0,0,0-.67-.11,1.85,1.85,0,0,0-.72.13,1.7,1.7,0,0,0-.54.36,1.66,1.66,0,0,0-.34.53A1.68,1.68,0,0,0,316.21,91.84Z"/><path class="2dbb3ee9-f884-45ac-b53a-4f5718ca2822" d="M321.94,94.38a.57.57,0,0,1-.23.29.61.61,0,0,1-.31.09H321l3.3-8.23a.64.64,0,0,1,.2-.27.57.57,0,0,1,.32-.09h.41Z"/><path class="2dbb3ee9-f884-45ac-b53a-4f5718ca2822" d="M328.56,86.3a3,3,0,0,1,.93.14,2.26,2.26,0,0,1,.73.41,1.78,1.78,0,0,1,.47.64,1.87,1.87,0,0,1,.17.83,2.19,2.19,0,0,1-.09.66,1.73,1.73,0,0,1-.28.52,1.57,1.57,0,0,1-.43.38,3,3,0,0,1-.57.25,2.09,2.09,0,0,1,1.16.68A1.84,1.84,0,0,1,331,92a2.24,2.24,0,0,1-.21,1,2.14,2.14,0,0,1-.56.74,2.69,2.69,0,0,1-.83.46,3.12,3.12,0,0,1-1,.17,3.42,3.42,0,0,1-1.08-.16,2.5,2.5,0,0,1-.75-.43,2.72,2.72,0,0,1-.51-.65,5.4,5.4,0,0,1-.33-.82l.42-.18a.59.59,0,0,1,.23-.05.38.38,0,0,1,.19.05.28.28,0,0,1,.13.15.08.08,0,0,1,0,0l0,0,.18.36a1.79,1.79,0,0,0,.3.38,1.58,1.58,0,0,0,.47.3,1.71,1.71,0,0,0,.69.12,1.81,1.81,0,0,0,.72-.14,1.62,1.62,0,0,0,.52-.34,1.79,1.79,0,0,0,.31-.48,1.42,1.42,0,0,0,.1-.53,2.14,2.14,0,0,0-.08-.58,1,1,0,0,0-.31-.45,1.71,1.71,0,0,0-.62-.31,4,4,0,0,0-1-.11v-.71a3,3,0,0,0,.86-.11,1.74,1.74,0,0,0,.58-.28,1.09,1.09,0,0,0,.33-.44,1.64,1.64,0,0,0,.1-.56,1.51,1.51,0,0,0-.11-.59,1.17,1.17,0,0,0-.29-.42,1.41,1.41,0,0,0-.45-.25,1.92,1.92,0,0,0-.55-.08,1.64,1.64,0,0,0-1,.33,1.51,1.51,0,0,0-.33.38,1.78,1.78,0,0,0-.19.47.48.48,0,0,1-.14.23.36.36,0,0,1-.22.07h-.13l-.51-.09a2.72,2.72,0,0,1,.3-1,2.14,2.14,0,0,1,.56-.7,2.32,2.32,0,0,1,.77-.43A3.19,3.19,0,0,1,328.56,86.3Z"/><path class="2dbb3ee9-f884-45ac-b53a-4f5718ca2822" d="M333.17,90.81a8.72,8.72,0,0,0-.3-2.29,9,9,0,0,0-.87-2.11.38.38,0,0,1-.06-.19.2.2,0,0,1,0-.13.39.39,0,0,1,.1-.08l.43-.27a10,10,0,0,1,.71,1.26,8.89,8.89,0,0,1,.46,1.24,8.06,8.06,0,0,1,.26,1.26,9.4,9.4,0,0,1,.09,1.31,9.25,9.25,0,0,1-.09,1.3,8,8,0,0,1-.26,1.27,9.51,9.51,0,0,1-.46,1.25,10.67,10.67,0,0,1-.71,1.25l-.43-.26-.1-.09a.2.2,0,0,1,0-.13s0-.06,0-.09a.31.31,0,0,1,.05-.1,9.1,9.1,0,0,0,.87-2.12A8.7,8.7,0,0,0,333.17,90.81Z"/><path class="2dbb3ee9-f884-45ac-b53a-4f5718ca2822" d="M338.42,87.85V90.2h2.23V91h-2.23v2.36h-.81V91h-2.23V90.2h2.23V87.85Z"/><path class="2dbb3ee9-f884-45ac-b53a-4f5718ca2822" d="M342.8,90.81a8.31,8.31,0,0,0,.31,2.28,9.1,9.1,0,0,0,.87,2.12.26.26,0,0,1,0,.1.29.29,0,0,1,0,.09.28.28,0,0,1,0,.13l-.1.09-.44.26a12.18,12.18,0,0,1-.7-1.25,8.27,8.27,0,0,1-.46-1.25,9.26,9.26,0,0,1-.27-1.27,11.07,11.07,0,0,1-.08-1.3A11.24,11.24,0,0,1,342,89.5a9.44,9.44,0,0,1,.27-1.26,7.79,7.79,0,0,1,.46-1.24,11.33,11.33,0,0,1,.7-1.26l.44.27a.39.39,0,0,1,.1.08.28.28,0,0,1,0,.13.38.38,0,0,1-.06.19,9.06,9.06,0,0,0-.88,2.11A8.72,8.72,0,0,0,342.8,90.81Z"/><path class="2dbb3ee9-f884-45ac-b53a-4f5718ca2822" d="M349.48,91.42h1.19V92a.19.19,0,0,1-.21.21h-1v2.08h-.86V92.19h-3.5a.33.33,0,0,1-.19-.06.29.29,0,0,1-.1-.16l-.1-.5,3.84-5.08h.91Zm-.86-3.25c0-.09,0-.19,0-.3a2.07,2.07,0,0,1,0-.35l-2.86,3.9h2.82Z"/><path class="2dbb3ee9-f884-45ac-b53a-4f5718ca2822" d="M351.78,94.38a.57.57,0,0,1-.23.29.59.59,0,0,1-.31.09h-.41l3.3-8.23a.58.58,0,0,1,.21-.27.54.54,0,0,1,.31-.09h.41Z"/><path class="2dbb3ee9-f884-45ac-b53a-4f5718ca2822" d="M360.38,86.81a.48.48,0,0,1-.14.35.58.58,0,0,1-.44.13h-2.48L357,89.36a5.32,5.32,0,0,1,1.14-.13,3.08,3.08,0,0,1,1.09.18,2.23,2.23,0,0,1,.78.5,2,2,0,0,1,.49.76,2.81,2.81,0,0,1,.16.94,2.7,2.7,0,0,1-.82,2,2.76,2.76,0,0,1-.9.55,3.18,3.18,0,0,1-1.12.2,3.71,3.71,0,0,1-.67-.07,3.4,3.4,0,0,1-.59-.19,3.06,3.06,0,0,1-.51-.26,2.89,2.89,0,0,1-.42-.32l.3-.41a.29.29,0,0,1,.26-.15.51.51,0,0,1,.25.09l.33.19a3.53,3.53,0,0,0,.47.19,2,2,0,0,0,.64.08,2,2,0,0,0,.74-.13,1.47,1.47,0,0,0,.56-.38,1.5,1.5,0,0,0,.36-.58,2.06,2.06,0,0,0,.13-.76,2,2,0,0,0-.11-.67,1.34,1.34,0,0,0-.32-.51,1.56,1.56,0,0,0-.55-.32,2.15,2.15,0,0,0-.75-.12,4.44,4.44,0,0,0-.62,0,6.29,6.29,0,0,0-.66.16l-.62-.18.64-3.68h3.74Z"/><path class="2dbb3ee9-f884-45ac-b53a-4f5718ca2822" d="M363,90.81a8.72,8.72,0,0,0-.3-2.29,9.06,9.06,0,0,0-.88-2.11.38.38,0,0,1-.06-.19.28.28,0,0,1,0-.13.39.39,0,0,1,.1-.08l.44-.27a11.33,11.33,0,0,1,.7,1.26,7.79,7.79,0,0,1,.46,1.24,9.44,9.44,0,0,1,.27,1.26,11.24,11.24,0,0,1,.08,1.31,11.07,11.07,0,0,1-.08,1.3,9.26,9.26,0,0,1-.27,1.27,8.27,8.27,0,0,1-.46,1.25,12.18,12.18,0,0,1-.7,1.25l-.44-.26-.1-.09a.28.28,0,0,1,0-.13.29.29,0,0,1,0-.09.26.26,0,0,1,0-.1,9.1,9.1,0,0,0,.87-2.12A8.31,8.31,0,0,0,363,90.81Z"/><path class="2dbb3ee9-f884-45ac-b53a-4f5718ca2822" d="M366.32,90.81a8.72,8.72,0,0,0-.3-2.29,9.06,9.06,0,0,0-.88-2.11.38.38,0,0,1-.06-.19.28.28,0,0,1,0-.13.39.39,0,0,1,.1-.08l.44-.27a11.33,11.33,0,0,1,.7,1.26,7.79,7.79,0,0,1,.46,1.24,9.44,9.44,0,0,1,.27,1.26,11.24,11.24,0,0,1,.08,1.31,11.07,11.07,0,0,1-.08,1.3,9.26,9.26,0,0,1-.27,1.27,8.27,8.27,0,0,1-.46,1.25,12.18,12.18,0,0,1-.7,1.25l-.44-.26-.1-.09a.28.28,0,0,1,0-.13.29.29,0,0,1,0-.09.26.26,0,0,1,0-.1,9.1,9.1,0,0,0,.87-2.12A8.31,8.31,0,0,0,366.32,90.81Z"/><path class="2dbb3ee9-f884-45ac-b53a-4f5718ca2822" d="M307.41,108.27a6.45,6.45,0,0,1-.22,1.81,3.86,3.86,0,0,1-.62,1.27,2.45,2.45,0,0,1-.93.74,2.66,2.66,0,0,1-1.16.25,2.61,2.61,0,0,1-1.15-.25,2.49,2.49,0,0,1-.92-.74,3.85,3.85,0,0,1-.61-1.27,7.56,7.56,0,0,1,0-3.62,3.7,3.7,0,0,1,.61-1.26,2.63,2.63,0,0,1,.92-.75,2.75,2.75,0,0,1,1.15-.24,2.8,2.8,0,0,1,1.16.24,2.57,2.57,0,0,1,.93.75,3.71,3.71,0,0,1,.62,1.26A6.5,6.5,0,0,1,307.41,108.27Zm-1.4,0a7,7,0,0,0-.13-1.43,2.92,2.92,0,0,0-.34-.9,1.26,1.26,0,0,0-.48-.47,1.33,1.33,0,0,0-.58-.13,1.24,1.24,0,0,0-.56.13,1.26,1.26,0,0,0-.48.47,2.93,2.93,0,0,0-.33.9,6.4,6.4,0,0,0-.13,1.43,6.28,6.28,0,0,0,.13,1.43,2.9,2.9,0,0,0,.33.91,1.26,1.26,0,0,0,.48.47,1.24,1.24,0,0,0,.56.13,1.33,1.33,0,0,0,.58-.13,1.26,1.26,0,0,0,.48-.47,2.89,2.89,0,0,0,.34-.91A6.91,6.91,0,0,0,306,108.27Z"/><path class="2dbb3ee9-f884-45ac-b53a-4f5718ca2822" d="M308.09,111.5a.87.87,0,0,1,.06-.32.83.83,0,0,1,.17-.27,1,1,0,0,1,.27-.17.72.72,0,0,1,.33-.07.75.75,0,0,1,.33.07.78.78,0,0,1,.26.17,1.06,1.06,0,0,1,.18.27.87.87,0,0,1,.06.32.88.88,0,0,1-.06.33,1,1,0,0,1-.18.26.78.78,0,0,1-.26.17.75.75,0,0,1-.33.07.72.72,0,0,1-.33-.07,1,1,0,0,1-.27-.17.78.78,0,0,1-.17-.26A.88.88,0,0,1,308.09,111.5Z"/><path class="2dbb3ee9-f884-45ac-b53a-4f5718ca2822" d="M313.47,104.21a3,3,0,0,1,1,.16,2.33,2.33,0,0,1,.78.46,2.16,2.16,0,0,1,.5.72,2.12,2.12,0,0,1,.19.93,2.64,2.64,0,0,1-.13.81,3.61,3.61,0,0,1-.35.71,5.29,5.29,0,0,1-.51.66c-.19.22-.4.43-.61.65l-1.79,1.83a3.34,3.34,0,0,1,.51-.11,2.81,2.81,0,0,1,.49,0h2a.5.5,0,0,1,.35.13.45.45,0,0,1,.13.33v.81h-5.46v-.45a.81.81,0,0,1,.24-.56l2.42-2.42c.2-.21.38-.4.54-.59a3.88,3.88,0,0,0,.4-.56,2.68,2.68,0,0,0,.25-.55,2,2,0,0,0,.08-.6,1.28,1.28,0,0,0-.08-.5.85.85,0,0,0-.24-.37,1,1,0,0,0-.36-.22,1.42,1.42,0,0,0-.48-.08,1.29,1.29,0,0,0-.8.25,1.38,1.38,0,0,0-.45.67.55.55,0,0,1-.18.3.49.49,0,0,1-.3.09l-.19,0-.71-.13a2.8,2.8,0,0,1,.32-1,2.33,2.33,0,0,1,.59-.72,2.65,2.65,0,0,1,.81-.44A3.53,3.53,0,0,1,313.47,104.21Z"/><path class="2dbb3ee9-f884-45ac-b53a-4f5718ca2822" d="M322,104.87a.62.62,0,0,1-.19.48.84.84,0,0,1-.61.18H319l-.28,1.66a5.15,5.15,0,0,1,1-.11,2.85,2.85,0,0,1,1.1.19,2.13,2.13,0,0,1,1.29,1.29,2.67,2.67,0,0,1,.17,1,3.11,3.11,0,0,1-.22,1.16,2.79,2.79,0,0,1-.62.89,2.73,2.73,0,0,1-.94.57,3.25,3.25,0,0,1-1.18.21,3.22,3.22,0,0,1-.71-.08,3.33,3.33,0,0,1-.63-.21,2.77,2.77,0,0,1-.54-.29,2.73,2.73,0,0,1-.45-.36l.42-.57a.39.39,0,0,1,.35-.19.54.54,0,0,1,.28.09l.32.19a3.05,3.05,0,0,0,.44.19,1.72,1.72,0,0,0,.6.09,1.69,1.69,0,0,0,.66-.12,1.17,1.17,0,0,0,.47-.34,1.46,1.46,0,0,0,.29-.52,2.22,2.22,0,0,0,.09-.65,1.34,1.34,0,0,0-.37-1,1.5,1.5,0,0,0-1.11-.37,3.39,3.39,0,0,0-1.16.21l-.85-.24.66-3.86H322Z"/><path class="2dbb3ee9-f884-45ac-b53a-4f5718ca2822" d="M189,142.74h3.41v.9H188v-7.89H189Z"/><path class="2dbb3ee9-f884-45ac-b53a-4f5718ca2822" d="M195.52,138a2.8,2.8,0,0,1,1.1.2,2.35,2.35,0,0,1,.83.58,2.52,2.52,0,0,1,.53.9,3.82,3.82,0,0,1,0,2.38,2.52,2.52,0,0,1-.53.9,2.2,2.2,0,0,1-.83.57,3.15,3.15,0,0,1-2.21,0,2.32,2.32,0,0,1-.84-.57,2.68,2.68,0,0,1-.53-.9,3.82,3.82,0,0,1,0-2.38,2.68,2.68,0,0,1,.53-.9,2.48,2.48,0,0,1,.84-.58A2.82,2.82,0,0,1,195.52,138Zm0,5a1.44,1.44,0,0,0,1.23-.55,3.2,3.2,0,0,0,0-3.1,1.42,1.42,0,0,0-1.23-.55,1.64,1.64,0,0,0-.73.14,1.29,1.29,0,0,0-.51.41,1.84,1.84,0,0,0-.31.66,3.51,3.51,0,0,0-.1.89,3.46,3.46,0,0,0,.1.89,1.84,1.84,0,0,0,.31.66,1.38,1.38,0,0,0,.51.41A1.79,1.79,0,0,0,195.52,143Z"/><path class="2dbb3ee9-f884-45ac-b53a-4f5718ca2822" d="M201.25,138a3,3,0,0,1,.68.08,2.27,2.27,0,0,1,.58.23H204v.37c0,.12-.08.2-.23.23l-.63.09a1.86,1.86,0,0,1,0,1.53,1.56,1.56,0,0,1-.44.57,1.92,1.92,0,0,1-.66.37,2.75,2.75,0,0,1-.84.12,3,3,0,0,1-.74-.09,1,1,0,0,0-.26.24.48.48,0,0,0-.09.26.34.34,0,0,0,.16.31,1,1,0,0,0,.42.15,3.64,3.64,0,0,0,.6,0H202a3.85,3.85,0,0,1,.69.06,1.93,1.93,0,0,1,.6.2,1,1,0,0,1,.42.38,1.15,1.15,0,0,1,.16.64,1.49,1.49,0,0,1-.18.7,1.92,1.92,0,0,1-.51.6,2.44,2.44,0,0,1-.82.42,3.38,3.38,0,0,1-1.09.16,4.21,4.21,0,0,1-1.07-.12,2.75,2.75,0,0,1-.77-.32,1.53,1.53,0,0,1-.45-.47,1.15,1.15,0,0,1-.15-.56,1,1,0,0,1,.26-.7,1.63,1.63,0,0,1,.72-.46,1,1,0,0,1-.38-.3.79.79,0,0,1-.14-.49,1.18,1.18,0,0,1,0-.25,1,1,0,0,1,.14-.25,1.27,1.27,0,0,1,.22-.25,1.84,1.84,0,0,1,.31-.2,1.81,1.81,0,0,1-.65-.61,1.74,1.74,0,0,1-.23-.9,1.67,1.67,0,0,1,.16-.74,1.59,1.59,0,0,1,.43-.56,1.88,1.88,0,0,1,.67-.36A2.57,2.57,0,0,1,201.25,138Zm1.74,5.95a.47.47,0,0,0-.12-.34.62.62,0,0,0-.31-.2,2.39,2.39,0,0,0-.46-.11,4.63,4.63,0,0,0-.54,0H201a2.12,2.12,0,0,1-.57-.07,1.66,1.66,0,0,0-.51.36.72.72,0,0,0-.19.51.7.7,0,0,0,.09.35.9.9,0,0,0,.3.28,1.69,1.69,0,0,0,.5.19,2.91,2.91,0,0,0,.7.07,3.71,3.71,0,0,0,.71-.07,1.72,1.72,0,0,0,.53-.21.92.92,0,0,0,.33-.32A.73.73,0,0,0,203,143.92Zm-1.74-3a1.44,1.44,0,0,0,.53-.08,1,1,0,0,0,.38-.23,1,1,0,0,0,.23-.35,1.34,1.34,0,0,0,.08-.46,1.1,1.1,0,0,0-.31-.81,1.52,1.52,0,0,0-1.81,0,1.1,1.1,0,0,0-.31.81,1.34,1.34,0,0,0,.08.46,1,1,0,0,0,.24.35,1,1,0,0,0,.38.23A1.37,1.37,0,0,0,201.25,140.91Z"/><path class="2dbb3ee9-f884-45ac-b53a-4f5718ca2822" d="M206.12,142.65a1.63,1.63,0,0,1,.55.09,1.22,1.22,0,0,1,.43.25,1.14,1.14,0,0,1,.29.4,1.19,1.19,0,0,1,.11.54,1.51,1.51,0,0,1-.08.48,2.67,2.67,0,0,1-.2.42,2.72,2.72,0,0,1-.31.38q-.16.19-.36.39l-1.21,1.23.26-.05a1.1,1.1,0,0,1,.25,0h1.54a.25.25,0,0,1,.15.05.19.19,0,0,1,.05.14v.35h-3.06v-.2a.5.5,0,0,1,0-.12.83.83,0,0,1,.08-.12l1.47-1.48c.12-.12.24-.24.34-.36a2.46,2.46,0,0,0,.25-.34,1.41,1.41,0,0,0,.17-.35,1.21,1.21,0,0,0,.06-.38.83.83,0,0,0-.07-.36.74.74,0,0,0-.17-.25,1.17,1.17,0,0,0-.27-.15,1,1,0,0,0-.64,0,.93.93,0,0,0-.26.15.76.76,0,0,0-.19.21.75.75,0,0,0-.11.28.26.26,0,0,1-.08.13.22.22,0,0,1-.14,0h-.07l-.3-.05a1.84,1.84,0,0,1,.17-.56,1.44,1.44,0,0,1,.33-.4,1.24,1.24,0,0,1,.45-.25A1.67,1.67,0,0,1,206.12,142.65Z"/><path class="2dbb3ee9-f884-45ac-b53a-4f5718ca2822" d="M209.5,140.18a8.31,8.31,0,0,0,.31,2.28,9.1,9.1,0,0,0,.87,2.12.26.26,0,0,1,0,.1.29.29,0,0,1,0,.09.28.28,0,0,1,0,.13.39.39,0,0,1-.1.08l-.44.27a9.91,9.91,0,0,1-.7-1.26,9,9,0,0,1-.47-1.24,9.26,9.26,0,0,1-.34-2.57,9.13,9.13,0,0,1,.34-2.57,8.51,8.51,0,0,1,.47-1.24,9.91,9.91,0,0,1,.7-1.26l.44.27a.39.39,0,0,1,.1.08.28.28,0,0,1,0,.13.41.41,0,0,1-.06.19,8.88,8.88,0,0,0-.88,2.11A8.72,8.72,0,0,0,209.5,140.18Z"/><path class="2dbb3ee9-f884-45ac-b53a-4f5718ca2822" d="M214.79,138.81a2.74,2.74,0,0,1,.9.15,2.25,2.25,0,0,1,.74.46,2.15,2.15,0,0,1,.5.74,2.69,2.69,0,0,1,0,2,2.38,2.38,0,0,1-.55.81,2.7,2.7,0,0,1-.86.55,3,3,0,0,1-1.09.19,2.85,2.85,0,0,1-1.08-.19,2.19,2.19,0,0,1-.82-.53,2.4,2.4,0,0,1-.53-.85,3.25,3.25,0,0,1-.18-1.12,3.1,3.1,0,0,1,.23-1.1,5.8,5.8,0,0,1,.73-1.25l2-2.69a.74.74,0,0,1,.21-.17.79.79,0,0,1,.32-.07h.86l-2.73,3.46a3,3,0,0,1,.62-.3A2.5,2.5,0,0,1,214.79,138.81Zm-2,2.4a2.17,2.17,0,0,0,.11.69,1.48,1.48,0,0,0,.33.54,1.54,1.54,0,0,0,.51.35,1.94,1.94,0,0,0,.7.12,1.8,1.8,0,0,0,.71-.13,1.48,1.48,0,0,0,.55-.35,1.58,1.58,0,0,0,.35-.53,1.67,1.67,0,0,0,.13-.67,1.75,1.75,0,0,0-.13-.7,1.46,1.46,0,0,0-.34-.53,1.54,1.54,0,0,0-.52-.33,1.87,1.87,0,0,0-.68-.11,1.8,1.8,0,0,0-.71.13,1.54,1.54,0,0,0-.89.89A1.68,1.68,0,0,0,212.75,141.21Z"/><path class="2dbb3ee9-f884-45ac-b53a-4f5718ca2822" d="M218.48,143.75a.57.57,0,0,1-.23.29.59.59,0,0,1-.31.09h-.41l3.3-8.23a.58.58,0,0,1,.21-.27.52.52,0,0,1,.31-.1h.41Z"/><path class="2dbb3ee9-f884-45ac-b53a-4f5718ca2822" d="M223.28,142.89H225v-5.38a3.85,3.85,0,0,1,0-.48l-1.41,1.2-.11.06a.22.22,0,0,1-.11,0,.32.32,0,0,1-.14,0,.3.3,0,0,1-.1-.09l-.31-.42,2.34-2h.8v7.15h1.55v.75h-4.22Z"/><path class="2dbb3ee9-f884-45ac-b53a-4f5718ca2822" d="M234.13,139.7a6.33,6.33,0,0,1-.23,1.79,3.73,3.73,0,0,1-.6,1.25,2.46,2.46,0,0,1-.91.74,2.7,2.7,0,0,1-1.13.24,2.62,2.62,0,0,1-1.12-.24,2.46,2.46,0,0,1-.91-.74,3.55,3.55,0,0,1-.6-1.25,7.39,7.39,0,0,1,0-3.58,3.52,3.52,0,0,1,.6-1.26,2.46,2.46,0,0,1,.91-.74,2.62,2.62,0,0,1,1.12-.24,2.7,2.7,0,0,1,1.13.24,2.46,2.46,0,0,1,.91.74,3.69,3.69,0,0,1,.6,1.26A6.28,6.28,0,0,1,234.13,139.7Zm-1,0a6.55,6.55,0,0,0-.15-1.52,3,3,0,0,0-.41-1,1.58,1.58,0,0,0-.59-.54,1.56,1.56,0,0,0-.7-.16,1.49,1.49,0,0,0-1.29.7,3.22,3.22,0,0,0-.4,1,6.55,6.55,0,0,0-.15,1.52,6.46,6.46,0,0,0,.15,1.51,3.28,3.28,0,0,0,.4,1,1.63,1.63,0,0,0,.59.53,1.59,1.59,0,0,0,.7.16,1.56,1.56,0,0,0,.7-.16,1.63,1.63,0,0,0,.59-.53,3,3,0,0,0,.41-1A6.46,6.46,0,0,0,233.11,139.7Z"/><path class="2dbb3ee9-f884-45ac-b53a-4f5718ca2822" d="M236.1,140.18a8.72,8.72,0,0,0-.3-2.29,8.88,8.88,0,0,0-.88-2.11.41.41,0,0,1-.06-.19.28.28,0,0,1,0-.13.39.39,0,0,1,.1-.08l.44-.27a11.33,11.33,0,0,1,.7,1.26,8.45,8.45,0,0,1,.46,1.24,9.44,9.44,0,0,1,.27,1.26,11.24,11.24,0,0,1,.08,1.31,11.07,11.07,0,0,1-.08,1.3,9.26,9.26,0,0,1-.27,1.27,8.89,8.89,0,0,1-.46,1.24,11.33,11.33,0,0,1-.7,1.26L235,145a.39.39,0,0,1-.1-.08.28.28,0,0,1,0-.13s0-.06,0-.09a.93.93,0,0,1,0-.1,9.1,9.1,0,0,0,.87-2.12A8.71,8.71,0,0,0,236.1,140.18Z"/><path class="2dbb3ee9-f884-45ac-b53a-4f5718ca2822" d="M200.15,157.73H203v1.13h-2.85Z"/><path class="2dbb3ee9-f884-45ac-b53a-4f5718ca2822" d="M209.65,157.64a6.5,6.5,0,0,1-.22,1.81,3.86,3.86,0,0,1-.62,1.27,2.45,2.45,0,0,1-.93.74,2.79,2.79,0,0,1-2.31,0,2.49,2.49,0,0,1-.92-.74,3.85,3.85,0,0,1-.61-1.27,7.56,7.56,0,0,1,0-3.62,3.7,3.7,0,0,1,.61-1.26,2.52,2.52,0,0,1,.92-.75,2.9,2.9,0,0,1,2.31,0,2.47,2.47,0,0,1,.93.75,3.71,3.71,0,0,1,.62,1.26A6.5,6.5,0,0,1,209.65,157.64Zm-1.4,0a6.4,6.4,0,0,0-.13-1.43,2.53,2.53,0,0,0-.34-.9,1.26,1.26,0,0,0-.48-.47,1.33,1.33,0,0,0-.58-.13,1.24,1.24,0,0,0-.56.13,1.26,1.26,0,0,0-.48.47,2.74,2.74,0,0,0-.33.9,7.93,7.93,0,0,0,0,2.86,2.74,2.74,0,0,0,.33.9,1.19,1.19,0,0,0,.48.47,1.25,1.25,0,0,0,.56.14,1.34,1.34,0,0,0,.58-.14,1.19,1.19,0,0,0,.48-.47,2.53,2.53,0,0,0,.34-.9A6.34,6.34,0,0,0,208.25,157.64Z"/><path class="2dbb3ee9-f884-45ac-b53a-4f5718ca2822" d="M210.33,160.87a.87.87,0,0,1,.06-.32.71.71,0,0,1,.18-.27.88.88,0,0,1,.59-.24.72.72,0,0,1,.33.07.78.78,0,0,1,.26.17.85.85,0,0,1,.18.27.87.87,0,0,1,.06.32.88.88,0,0,1-.06.33.81.81,0,0,1-.18.26.78.78,0,0,1-.26.17.88.88,0,0,1-.33.07,1,1,0,0,1-.33-.07.78.78,0,0,1-.26-.17.68.68,0,0,1-.18-.26A.88.88,0,0,1,210.33,160.87Z"/><path class="2dbb3ee9-f884-45ac-b53a-4f5718ca2822" d="M218.43,153.67v.58a1.27,1.27,0,0,1-.06.43,1.86,1.86,0,0,1-.11.27l-3,6.21a.9.9,0,0,1-.26.32.75.75,0,0,1-.47.14h-1l3.08-6.08a3.11,3.11,0,0,1,.43-.64h-3.81a.28.28,0,0,1-.22-.1.29.29,0,0,1-.09-.22v-.91Z"/><path class="2dbb3ee9-f884-45ac-b53a-4f5718ca2822" d="M222.22,153.58a3,3,0,0,1,1,.15,2.27,2.27,0,0,1,.76.44,1.81,1.81,0,0,1,.48.65,2,2,0,0,1,.17.81,2.26,2.26,0,0,1-.09.67,1.56,1.56,0,0,1-.25.5,1.49,1.49,0,0,1-.39.36,2.16,2.16,0,0,1-.53.25,2.05,2.05,0,0,1,1.06.69,1.83,1.83,0,0,1,.36,1.16,2.46,2.46,0,0,1-.22,1.05,2.39,2.39,0,0,1-.6.77,2.87,2.87,0,0,1-.86.47,3.72,3.72,0,0,1-2.09,0,2.23,2.23,0,0,1-.78-.41,2.58,2.58,0,0,1-.56-.66,4.68,4.68,0,0,1-.39-.9l.6-.25a.81.81,0,0,1,.31-.06.51.51,0,0,1,.25.06.42.42,0,0,1,.18.17,2.88,2.88,0,0,0,.22.38,1.3,1.3,0,0,0,.28.34,1.49,1.49,0,0,0,.39.23,1.36,1.36,0,0,0,.53.09,1.4,1.4,0,0,0,.6-.11,1.21,1.21,0,0,0,.43-.29,1.19,1.19,0,0,0,.26-.41,1.2,1.2,0,0,0,.09-.45,2.12,2.12,0,0,0-.06-.52.8.8,0,0,0-.26-.4,1.28,1.28,0,0,0-.55-.25,3.57,3.57,0,0,0-1-.1v-1a3.23,3.23,0,0,0,.83-.09,1.48,1.48,0,0,0,.52-.24.84.84,0,0,0,.27-.38,1.51,1.51,0,0,0,.08-.48A1.1,1.1,0,0,0,223,155a1.17,1.17,0,0,0-.84-.29,1.24,1.24,0,0,0-.8.26,1.42,1.42,0,0,0-.45.65.55.55,0,0,1-.18.3.49.49,0,0,1-.3.09h-.19l-.71-.13a2.8,2.8,0,0,1,.32-1,2.2,2.2,0,0,1,.59-.72,2.36,2.36,0,0,1,.81-.44A3.53,3.53,0,0,1,222.22,153.58Z"/><path class="2dbb3ee9-f884-45ac-b53a-4f5718ca2822" d="M273.46,142.74h3.41v.9h-4.48v-7.89h1.07Z"/><path class="2dbb3ee9-f884-45ac-b53a-4f5718ca2822" d="M280,138a2.77,2.77,0,0,1,1.1.2,2.38,2.38,0,0,1,.84.58,2.68,2.68,0,0,1,.53.9,4,4,0,0,1,0,2.38,2.68,2.68,0,0,1-.53.9,2.24,2.24,0,0,1-.84.57,3.13,3.13,0,0,1-2.2,0,2.24,2.24,0,0,1-.84-.57,2.7,2.7,0,0,1-.54-.9,4,4,0,0,1,0-2.38,2.7,2.7,0,0,1,.54-.9,2.38,2.38,0,0,1,.84-.58A2.77,2.77,0,0,1,280,138Zm0,5a1.44,1.44,0,0,0,1.23-.55,3.13,3.13,0,0,0,0-3.1,1.42,1.42,0,0,0-1.23-.55,1.67,1.67,0,0,0-.73.14,1.45,1.45,0,0,0-.51.41,1.84,1.84,0,0,0-.31.66,3.51,3.51,0,0,0-.1.89,3.46,3.46,0,0,0,.1.89,1.84,1.84,0,0,0,.31.66,1.57,1.57,0,0,0,.51.41A1.83,1.83,0,0,0,280,143Z"/><path class="2dbb3ee9-f884-45ac-b53a-4f5718ca2822" d="M285.69,138a3,3,0,0,1,.68.08,2.06,2.06,0,0,1,.57.23h1.51v.37c0,.12-.07.2-.23.23l-.63.09a1.76,1.76,0,0,1,0,1.53,1.56,1.56,0,0,1-.44.57,1.92,1.92,0,0,1-.66.37,2.73,2.73,0,0,1-.83.12,2.94,2.94,0,0,1-.74-.09.92.92,0,0,0-.27.24.48.48,0,0,0-.09.26.34.34,0,0,0,.16.31,1.14,1.14,0,0,0,.43.15,3.42,3.42,0,0,0,.59,0h.69a3.82,3.82,0,0,1,.68.06,1.77,1.77,0,0,1,.6.2,1.13,1.13,0,0,1,.43.38,1.24,1.24,0,0,1,.16.64,1.49,1.49,0,0,1-.18.7,1.83,1.83,0,0,1-.52.6,2.35,2.35,0,0,1-.82.42,3.33,3.33,0,0,1-1.09.16,4.26,4.26,0,0,1-1.07-.12,2.56,2.56,0,0,1-.76-.32,1.57,1.57,0,0,1-.46-.47,1.15,1.15,0,0,1-.15-.56,1,1,0,0,1,.26-.7,1.76,1.76,0,0,1,.72-.46.93.93,0,0,1-.37-.3.74.74,0,0,1-.15-.49.79.79,0,0,1,.05-.25,1,1,0,0,1,.13-.25,1.34,1.34,0,0,1,.23-.25,1.74,1.74,0,0,1,.3-.2,1.71,1.71,0,0,1-.64-.61,1.66,1.66,0,0,1-.24-.9,1.82,1.82,0,0,1,.16-.74,1.61,1.61,0,0,1,.44-.56,1.88,1.88,0,0,1,.67-.36A2.57,2.57,0,0,1,285.69,138Zm1.73,5.95a.47.47,0,0,0-.11-.34.67.67,0,0,0-.31-.2,2.82,2.82,0,0,0-.46-.11,4.8,4.8,0,0,0-.55,0h-.58a2,2,0,0,1-.56-.07,1.66,1.66,0,0,0-.51.36.73.73,0,0,0-.2.51.62.62,0,0,0,.1.35.78.78,0,0,0,.29.28,1.8,1.8,0,0,0,.5.19,2.94,2.94,0,0,0,.71.07,3.79,3.79,0,0,0,.71-.07,2,2,0,0,0,.53-.21,1.12,1.12,0,0,0,.33-.32A.72.72,0,0,0,287.42,143.92Zm-1.73-3a1.42,1.42,0,0,0,.52-.08,1,1,0,0,0,.38-.23.89.89,0,0,0,.23-.35,1.14,1.14,0,0,0,.08-.46,1.06,1.06,0,0,0-.31-.81,1.25,1.25,0,0,0-.9-.3,1.22,1.22,0,0,0-.9.3,1.06,1.06,0,0,0-.31.81,1.14,1.14,0,0,0,.08.46,1,1,0,0,0,.23.35,1,1,0,0,0,.38.23A1.39,1.39,0,0,0,285.69,140.91Z"/><path class="2dbb3ee9-f884-45ac-b53a-4f5718ca2822" d="M290.56,142.65a1.61,1.61,0,0,1,.54.09,1.26,1.26,0,0,1,.44.25,1.28,1.28,0,0,1,.29.4,1.33,1.33,0,0,1,.1.54,1.51,1.51,0,0,1-.07.48,2.06,2.06,0,0,1-.21.42,3.57,3.57,0,0,1-.3.38l-.37.39-1.21,1.23.26-.05a1.18,1.18,0,0,1,.26,0h1.54a.19.19,0,0,1,.2.19v.35H289v-.2a.27.27,0,0,1,0-.12.37.37,0,0,1,.07-.12l1.48-1.48q.18-.18.33-.36a2.56,2.56,0,0,0,.26-.34,1.81,1.81,0,0,0,.16-.35,1.21,1.21,0,0,0,.06-.38,1,1,0,0,0-.06-.36.72.72,0,0,0-.44-.4,1.14,1.14,0,0,0-.33-.05,1.13,1.13,0,0,0-.32.05,1.1,1.1,0,0,0-.26.15.81.81,0,0,0-.3.49c0,.06,0,.11-.08.13a.19.19,0,0,1-.13,0h-.08l-.29-.05a1.6,1.6,0,0,1,.17-.56,1.26,1.26,0,0,1,.32-.4,1.29,1.29,0,0,1,.46-.25A1.63,1.63,0,0,1,290.56,142.65Z"/><path class="2dbb3ee9-f884-45ac-b53a-4f5718ca2822" d="M293.94,140.18a8.7,8.7,0,0,0,.3,2.28,9.1,9.1,0,0,0,.87,2.12.31.31,0,0,1,.05.1.28.28,0,0,1,0,.09.2.2,0,0,1,0,.13.39.39,0,0,1-.1.08l-.43.27a8.81,8.81,0,0,1-.7-1.26,7.85,7.85,0,0,1-.47-1.24,8,8,0,0,1-.26-1.27,9.25,9.25,0,0,1-.09-1.3,9.4,9.4,0,0,1,.09-1.31,8.06,8.06,0,0,1,.26-1.26,7.5,7.5,0,0,1,.47-1.24,8.81,8.81,0,0,1,.7-1.26l.43.27a.39.39,0,0,1,.1.08.2.2,0,0,1,0,.13.41.41,0,0,1-.06.19,8.86,8.86,0,0,0-.87,2.11A8.72,8.72,0,0,0,293.94,140.18Z"/><path class="2dbb3ee9-f884-45ac-b53a-4f5718ca2822" d="M299.22,138.81a2.66,2.66,0,0,1,.9.15,2.25,2.25,0,0,1,.74.46,2.32,2.32,0,0,1,.51.74,2.69,2.69,0,0,1,0,2,2.55,2.55,0,0,1-.56.81,2.65,2.65,0,0,1-.85.55,3,3,0,0,1-1.1.19,2.85,2.85,0,0,1-1.08-.19A2.28,2.28,0,0,1,297,143a2.38,2.38,0,0,1-.52-.85,3,3,0,0,1-.19-1.12,3.1,3.1,0,0,1,.23-1.1,6.25,6.25,0,0,1,.73-1.25l2-2.69a.67.67,0,0,1,.22-.17.74.74,0,0,1,.31-.07h.87l-2.74,3.46a3.05,3.05,0,0,1,.63-.3A2.43,2.43,0,0,1,299.22,138.81Zm-2,2.4a1.92,1.92,0,0,0,.11.69,1.46,1.46,0,0,0,.32.54,1.49,1.49,0,0,0,.52.35,2.05,2.05,0,0,0,1.41,0,1.53,1.53,0,0,0,.54-.35,1.61,1.61,0,0,0,.36-.53,1.85,1.85,0,0,0,.12-.67,1.94,1.94,0,0,0-.12-.7,1.61,1.61,0,0,0-.34-.53,1.59,1.59,0,0,0-.53-.33,1.87,1.87,0,0,0-.68-.11,1.8,1.8,0,0,0-.71.13,1.7,1.7,0,0,0-.54.36,1.5,1.5,0,0,0-.34.53A1.68,1.68,0,0,0,297.19,141.21Z"/><path class="2dbb3ee9-f884-45ac-b53a-4f5718ca2822" d="M302.91,143.75a.52.52,0,0,1-.23.29.59.59,0,0,1-.31.09H302l3.31-8.23a.51.51,0,0,1,.2-.27.55.55,0,0,1,.31-.1h.42Z"/><path class="2dbb3ee9-f884-45ac-b53a-4f5718ca2822" d="M309.54,135.67a2.73,2.73,0,0,1,.92.14,2.07,2.07,0,0,1,.73.41,1.74,1.74,0,0,1,.48.63,2.07,2.07,0,0,1,.17.84,2,2,0,0,1-.1.66,1.51,1.51,0,0,1-.27.52,1.75,1.75,0,0,1-.43.38,2.44,2.44,0,0,1-.57.24,2.19,2.19,0,0,1,1.16.69,1.84,1.84,0,0,1,.38,1.2,2.19,2.19,0,0,1-.2,1,2.3,2.3,0,0,1-.56.74,2.47,2.47,0,0,1-.84.47,3,3,0,0,1-1,.16,3.37,3.37,0,0,1-1.07-.15,2.27,2.27,0,0,1-.75-.43,2.21,2.21,0,0,1-.51-.66,6,6,0,0,1-.34-.81l.42-.18a.68.68,0,0,1,.23-.05.42.42,0,0,1,.2.05.29.29,0,0,1,.13.14l0,.05,0,0c.05.11.12.23.19.36a1.32,1.32,0,0,0,.3.38,1.53,1.53,0,0,0,.46.3,1.78,1.78,0,0,0,.69.12,1.74,1.74,0,0,0,.72-.14,1.49,1.49,0,0,0,.52-.35,1.47,1.47,0,0,0,.42-1,1.81,1.81,0,0,0-.09-.58,1,1,0,0,0-.31-.46,1.65,1.65,0,0,0-.61-.3,4,4,0,0,0-1-.11v-.71a3,3,0,0,0,.85-.11,1.65,1.65,0,0,0,.58-.28,1.16,1.16,0,0,0,.33-.44,1.43,1.43,0,0,0,.1-.56,1.32,1.32,0,0,0-.11-.59,1.06,1.06,0,0,0-.29-.42,1.26,1.26,0,0,0-.44-.25,2,2,0,0,0-.55-.08,1.59,1.59,0,0,0-.55.09,1.39,1.39,0,0,0-.45.24,1.46,1.46,0,0,0-.33.37,2.14,2.14,0,0,0-.2.47.39.39,0,0,1-.13.23.34.34,0,0,1-.23.08h-.12l-.51-.09a3.08,3.08,0,0,1,.29-1,2.53,2.53,0,0,1,.56-.69,2.47,2.47,0,0,1,.78-.43A3.14,3.14,0,0,1,309.54,135.67Z"/><path class="2dbb3ee9-f884-45ac-b53a-4f5718ca2822" d="M314.15,140.18a8.72,8.72,0,0,0-.3-2.29,8.49,8.49,0,0,0-.88-2.11.54.54,0,0,1-.05-.19.2.2,0,0,1,0-.13.21.21,0,0,1,.1-.08l.43-.27a9.91,9.91,0,0,1,.7,1.26,8.51,8.51,0,0,1,.47,1.24,9.4,9.4,0,0,1,.26,1.26,11.24,11.24,0,0,1,.08,1.31,11.07,11.07,0,0,1-.08,1.3,9.23,9.23,0,0,1-.26,1.27,9,9,0,0,1-.47,1.24,9.91,9.91,0,0,1-.7,1.26l-.43-.27a.21.21,0,0,1-.1-.08.2.2,0,0,1,0-.13.28.28,0,0,1,0-.09.69.69,0,0,1,0-.1,9.59,9.59,0,0,0,.88-2.12A8.7,8.7,0,0,0,314.15,140.18Z"/><path class="2dbb3ee9-f884-45ac-b53a-4f5718ca2822" d="M316.7,143.75a.62.62,0,0,1-.23.29.61.61,0,0,1-.31.09h-.42l3.31-8.23a.64.64,0,0,1,.2-.27.58.58,0,0,1,.32-.1H320Z"/><path class="2dbb3ee9-f884-45ac-b53a-4f5718ca2822" d="M321.5,140.18a8.31,8.31,0,0,0,.31,2.28,9.1,9.1,0,0,0,.87,2.12.26.26,0,0,1,0,.1.33.33,0,0,1,0,.22.39.39,0,0,1-.1.08l-.44.27a9.91,9.91,0,0,1-.7-1.26,9,9,0,0,1-.47-1.24,9.23,9.23,0,0,1-.26-1.27,11.07,11.07,0,0,1-.08-1.3,11.24,11.24,0,0,1,.08-1.31,9.4,9.4,0,0,1,.26-1.26,8.51,8.51,0,0,1,.47-1.24,9.91,9.91,0,0,1,.7-1.26l.44.27a.39.39,0,0,1,.1.08.28.28,0,0,1,0,.13.38.38,0,0,1-.05.19,8.49,8.49,0,0,0-.88,2.11A8.72,8.72,0,0,0,321.5,140.18Z"/><path class="2dbb3ee9-f884-45ac-b53a-4f5718ca2822" d="M324.79,142.89h1.7v-5.38c0-.16,0-.32,0-.48l-1.41,1.2a.24.24,0,0,1-.11.06.18.18,0,0,1-.1,0,.33.33,0,0,1-.15,0,.45.45,0,0,1-.1-.09l-.31-.42,2.35-2h.79v7.15H329v.75h-4.23Z"/><path class="2dbb3ee9-f884-45ac-b53a-4f5718ca2822" d="M335.64,139.7a6.35,6.35,0,0,1-.22,1.79,3.74,3.74,0,0,1-.61,1.25,2.39,2.39,0,0,1-.91.74,2.76,2.76,0,0,1-2.25,0,2.43,2.43,0,0,1-.9-.74,3.74,3.74,0,0,1-.61-1.25,7.39,7.39,0,0,1,0-3.58,3.7,3.7,0,0,1,.61-1.26,2.43,2.43,0,0,1,.9-.74,2.76,2.76,0,0,1,2.25,0,2.39,2.39,0,0,1,.91.74,3.7,3.7,0,0,1,.61,1.26A6.3,6.3,0,0,1,335.64,139.7Zm-1,0a6.5,6.5,0,0,0-.16-1.52,3,3,0,0,0-.4-1,1.49,1.49,0,0,0-1.29-.7,1.56,1.56,0,0,0-.7.16,1.51,1.51,0,0,0-.59.54,3,3,0,0,0-.4,1,6.5,6.5,0,0,0-.16,1.52,6.41,6.41,0,0,0,.16,1.51,3,3,0,0,0,.4,1,1.51,1.51,0,0,0,1.29.69,1.59,1.59,0,0,0,.7-.16,1.63,1.63,0,0,0,.59-.53,3,3,0,0,0,.4-1A6.41,6.41,0,0,0,334.63,139.7Z"/><path class="2dbb3ee9-f884-45ac-b53a-4f5718ca2822" d="M336.86,143.75a.57.57,0,0,1-.23.29.59.59,0,0,1-.31.09h-.41l3.3-8.23a.58.58,0,0,1,.21-.27.52.52,0,0,1,.31-.1h.41Z"/><path class="2dbb3ee9-f884-45ac-b53a-4f5718ca2822" d="M345.45,136.18a.48.48,0,0,1-.13.35.59.59,0,0,1-.44.13H342.4l-.36,2.07a5.32,5.32,0,0,1,1.14-.13,3,3,0,0,1,1.08.18,2.18,2.18,0,0,1,.79.5,1.86,1.86,0,0,1,.48.75,2.67,2.67,0,0,1,.17.95,2.88,2.88,0,0,1-.22,1.13,2.6,2.6,0,0,1-1.51,1.42,3.08,3.08,0,0,1-1.11.19,3.71,3.71,0,0,1-.67-.06,3.4,3.4,0,0,1-.59-.19,4.06,4.06,0,0,1-.51-.26,2.89,2.89,0,0,1-.42-.32l.3-.41a.29.29,0,0,1,.26-.15.51.51,0,0,1,.25.09l.33.19a3.53,3.53,0,0,0,.47.19,2.35,2.35,0,0,0,.63.08,2,2,0,0,0,.75-.13,1.55,1.55,0,0,0,.56-.38,1.5,1.5,0,0,0,.36-.58,2.3,2.3,0,0,0,.13-.77,2,2,0,0,0-.11-.66,1.25,1.25,0,0,0-.33-.51,1.32,1.32,0,0,0-.54-.32,2.16,2.16,0,0,0-.76-.12,4.42,4.42,0,0,0-.61.05,4.5,4.5,0,0,0-.66.16l-.62-.18.64-3.69h3.73Z"/><path class="2dbb3ee9-f884-45ac-b53a-4f5718ca2822" d="M348.1,140.18a9.16,9.16,0,0,0-.3-2.29,8.88,8.88,0,0,0-.88-2.11.41.41,0,0,1-.06-.19.28.28,0,0,1,0-.13.39.39,0,0,1,.1-.08l.43-.27a10,10,0,0,1,.71,1.26,8.45,8.45,0,0,1,.46,1.24,8.06,8.06,0,0,1,.26,1.26,9.4,9.4,0,0,1,.09,1.31,9.25,9.25,0,0,1-.09,1.3,8,8,0,0,1-.26,1.27,8.89,8.89,0,0,1-.46,1.24,10,10,0,0,1-.71,1.26L347,145a.39.39,0,0,1-.1-.08.28.28,0,0,1,0-.13s0-.06,0-.09a.93.93,0,0,1,.05-.1,9.1,9.1,0,0,0,.87-2.12A8.71,8.71,0,0,0,348.1,140.18Z"/><path class="2dbb3ee9-f884-45ac-b53a-4f5718ca2822" d="M351.39,140.18a9.15,9.15,0,0,0-.29-2.29,9.32,9.32,0,0,0-.88-2.11.41.41,0,0,1-.06-.19.28.28,0,0,1,0-.13.39.39,0,0,1,.1-.08l.43-.27a10,10,0,0,1,.71,1.26,8.45,8.45,0,0,1,.46,1.24,8.06,8.06,0,0,1,.26,1.26,9.4,9.4,0,0,1,.09,1.31,9.25,9.25,0,0,1-.09,1.3,8,8,0,0,1-.26,1.27,8.89,8.89,0,0,1-.46,1.24,10,10,0,0,1-.71,1.26l-.43-.27a.39.39,0,0,1-.1-.08.28.28,0,0,1,0-.13s0-.06,0-.09a.93.93,0,0,1,.05-.1,9.1,9.1,0,0,0,.87-2.12A8.7,8.7,0,0,0,351.39,140.18Z"/><path class="2dbb3ee9-f884-45ac-b53a-4f5718ca2822" d="M315,157.64a6.48,6.48,0,0,1-.23,1.81,3.66,3.66,0,0,1-.61,1.27,2.45,2.45,0,0,1-.93.74,2.69,2.69,0,0,1-1.16.25,2.61,2.61,0,0,1-1.15-.25,2.42,2.42,0,0,1-.92-.74,3.66,3.66,0,0,1-.61-1.27,7.56,7.56,0,0,1,0-3.62,3.53,3.53,0,0,1,.61-1.26,2.44,2.44,0,0,1,.92-.75,2.75,2.75,0,0,1,1.15-.24,2.83,2.83,0,0,1,1.16.24,2.47,2.47,0,0,1,.93.75,3.53,3.53,0,0,1,.61,1.26A6.48,6.48,0,0,1,315,157.64Zm-1.41,0a7.13,7.13,0,0,0-.12-1.43,3,3,0,0,0-.34-.9,1.22,1.22,0,0,0-.49-.47,1.29,1.29,0,0,0-1.13,0,1.14,1.14,0,0,0-.48.47,3,3,0,0,0-.34.9,8.58,8.58,0,0,0,0,2.86,3,3,0,0,0,.34.9,1.08,1.08,0,0,0,.48.47,1.21,1.21,0,0,0,1.13,0,1.15,1.15,0,0,0,.49-.47,3,3,0,0,0,.34-.9A7.06,7.06,0,0,0,313.62,157.64Z"/></g><g id="80e36495-dc5d-4403-8b4d-b6e0e0573e61" data-name="text-titles"><path class="2dbb3ee9-f884-45ac-b53a-4f5718ca2822" d="M16,72a.3.3,0,0,1,.23.1l.63.69a3.47,3.47,0,0,1-1.3,1,4.49,4.49,0,0,1-1.85.35A4.34,4.34,0,0,1,12,73.85a3.78,3.78,0,0,1-1.32-.92,4.18,4.18,0,0,1-.84-1.4,5.42,5.42,0,0,1-.29-1.79A4.75,4.75,0,0,1,9.83,68a4,4,0,0,1,.91-1.4,4.18,4.18,0,0,1,1.4-.91A4.82,4.82,0,0,1,14,65.31a4.18,4.18,0,0,1,1.69.31,3.89,3.89,0,0,1,1.24.82l-.54.75a.34.34,0,0,1-.12.12.33.33,0,0,1-.21.06.5.5,0,0,1-.28-.11,3.51,3.51,0,0,0-.37-.23,2.29,2.29,0,0,0-.56-.24,3.14,3.14,0,0,0-2,.11,2.4,2.4,0,0,0-.89.61,2.85,2.85,0,0,0-.57,1,3.64,3.64,0,0,0-.21,1.27,3.79,3.79,0,0,0,.21,1.31,2.83,2.83,0,0,0,.56,1,2.3,2.3,0,0,0,.83.59,2.58,2.58,0,0,0,1,.21,3.49,3.49,0,0,0,.59,0,2.61,2.61,0,0,0,.5-.11,2.3,2.3,0,0,0,.42-.2,2.61,2.61,0,0,0,.4-.3.38.38,0,0,1,.13-.09A.32.32,0,0,1,16,72Z"/><path class="2dbb3ee9-f884-45ac-b53a-4f5718ca2822" d="M20.6,67.83a3.35,3.35,0,0,1,1.25.22,2.72,2.72,0,0,1,.95.63,2.82,2.82,0,0,1,.62,1,4.22,4.22,0,0,1,0,2.63,2.82,2.82,0,0,1-.62,1,2.62,2.62,0,0,1-.95.64,3.35,3.35,0,0,1-1.25.22A3.4,3.4,0,0,1,19.34,74a2.65,2.65,0,0,1-1-.64,2.82,2.82,0,0,1-.62-1,4,4,0,0,1,0-2.63,2.82,2.82,0,0,1,.62-1,2.76,2.76,0,0,1,1-.63A3.4,3.4,0,0,1,20.6,67.83Zm0,5.2a1.29,1.29,0,0,0,1.13-.51A2.58,2.58,0,0,0,22.1,71a2.55,2.55,0,0,0-.37-1.51A1.28,1.28,0,0,0,20.6,69a1.34,1.34,0,0,0-1.16.53,3.27,3.27,0,0,0,0,3A1.33,1.33,0,0,0,20.6,73Z"/><path class="2dbb3ee9-f884-45ac-b53a-4f5718ca2822" d="M24.79,74.08V67.93h.91a.36.36,0,0,1,.37.27l.11.48a2.88,2.88,0,0,1,.83-.62,2.58,2.58,0,0,1,.49-.17,2.65,2.65,0,0,1,.58-.06A2.28,2.28,0,0,1,29,68a1.87,1.87,0,0,1,.65.48,2,2,0,0,1,.4.74,3.14,3.14,0,0,1,.13.94v3.92H28.67V70.16a1.35,1.35,0,0,0-.26-.87,1,1,0,0,0-.78-.31,1.48,1.48,0,0,0-.72.18,2.34,2.34,0,0,0-.64.47v4.45Z"/><path class="2dbb3ee9-f884-45ac-b53a-4f5718ca2822" d="M35.94,74.08a.36.36,0,0,1-.37-.27l-.12-.59a5,5,0,0,1-.41.39,3.52,3.52,0,0,1-.45.3,2.31,2.31,0,0,1-.52.19,2.35,2.35,0,0,1-.6.07,2.05,2.05,0,0,1-.93-.21,2,2,0,0,1-.72-.61,2.88,2.88,0,0,1-.47-1A5.05,5.05,0,0,1,31.19,71a4.33,4.33,0,0,1,.18-1.27,3.11,3.11,0,0,1,.54-1,2.43,2.43,0,0,1,.83-.67,2.3,2.3,0,0,1,1.09-.25,2.09,2.09,0,0,1,.88.17,2.12,2.12,0,0,1,.66.44V65.17h1.48v8.91ZM34,73a1.52,1.52,0,0,0,.79-.2,2.33,2.33,0,0,0,.61-.54V69.5a1.36,1.36,0,0,0-.55-.43,1.53,1.53,0,0,0-.64-.13,1.36,1.36,0,0,0-.61.13,1.12,1.12,0,0,0-.46.38,1.78,1.78,0,0,0-.29.65,3.6,3.6,0,0,0-.1.92,4.09,4.09,0,0,0,.08.92,1.81,1.81,0,0,0,.25.61.93.93,0,0,0,.4.34A1.24,1.24,0,0,0,34,73Z"/><path class="2dbb3ee9-f884-45ac-b53a-4f5718ca2822" d="M40.25,66.13a.86.86,0,0,1-.08.36,1.21,1.21,0,0,1-.2.3,1.1,1.1,0,0,1-.31.2.9.9,0,0,1-.37.07.86.86,0,0,1-.36-.07,1,1,0,0,1-.3-.2,1.21,1.21,0,0,1-.2-.3.86.86,0,0,1-.08-.36,1,1,0,0,1,.08-.37.93.93,0,0,1,.2-.3,1,1,0,0,1,.3-.2.86.86,0,0,1,.36-.08.91.91,0,0,1,.37.08,1.1,1.1,0,0,1,.31.2.93.93,0,0,1,.2.3A1,1,0,0,1,40.25,66.13ZM40,67.93v6.15H38.55V67.93Z"/><path class="2dbb3ee9-f884-45ac-b53a-4f5718ca2822" d="M43.72,74.18a1.59,1.59,0,0,1-1.22-.45,1.76,1.76,0,0,1-.44-1.26V69h-.62a.32.32,0,0,1-.21-.08.3.3,0,0,1-.09-.24v-.58l1-.17.31-1.68a.25.25,0,0,1,.11-.18.32.32,0,0,1,.22-.07h.77V68h1.62V69H43.55v3.33a.64.64,0,0,0,.14.45.48.48,0,0,0,.38.16.71.71,0,0,0,.23,0l.17-.07.12-.07a.23.23,0,0,1,.11,0,.2.2,0,0,1,.11,0l.08.1.45.72a2.23,2.23,0,0,1-.74.41A2.94,2.94,0,0,1,43.72,74.18Z"/><path class="2dbb3ee9-f884-45ac-b53a-4f5718ca2822" d="M48.15,66.13a.86.86,0,0,1-.08.36,1,1,0,0,1-.21.3.93.93,0,0,1-.3.2,1,1,0,0,1-.74,0,1,1,0,0,1-.29-.2,1,1,0,0,1-.2-.3.86.86,0,0,1-.08-.36,1,1,0,0,1,.08-.37.79.79,0,0,1,.2-.3,1,1,0,0,1,.29-.2.9.9,0,0,1,.74,0,.93.93,0,0,1,.3.2.81.81,0,0,1,.21.3A1,1,0,0,1,48.15,66.13Zm-.22,1.8v6.15H46.44V67.93Z"/><path class="2dbb3ee9-f884-45ac-b53a-4f5718ca2822" d="M52.23,67.83a3.35,3.35,0,0,1,1.25.22,2.72,2.72,0,0,1,1,.63,2.82,2.82,0,0,1,.62,1,4.22,4.22,0,0,1,0,2.63,2.82,2.82,0,0,1-.62,1,2.62,2.62,0,0,1-1,.64,3.35,3.35,0,0,1-1.25.22A3.4,3.4,0,0,1,51,74a2.74,2.74,0,0,1-1-.64,2.82,2.82,0,0,1-.62-1,4,4,0,0,1,0-2.63,2.82,2.82,0,0,1,.62-1,2.86,2.86,0,0,1,1-.63A3.4,3.4,0,0,1,52.23,67.83Zm0,5.2a1.29,1.29,0,0,0,1.13-.51A2.58,2.58,0,0,0,53.73,71a2.55,2.55,0,0,0-.37-1.51A1.28,1.28,0,0,0,52.23,69a1.31,1.31,0,0,0-1.15.53,3.19,3.19,0,0,0,0,3A1.3,1.3,0,0,0,52.23,73Z"/><path class="2dbb3ee9-f884-45ac-b53a-4f5718ca2822" d="M56.42,74.08V67.93h.91a.38.38,0,0,1,.38.27l.1.48a2.88,2.88,0,0,1,.83-.62,2.58,2.58,0,0,1,.49-.17,2.65,2.65,0,0,1,.58-.06,2.24,2.24,0,0,1,.89.17,1.87,1.87,0,0,1,.65.48,2,2,0,0,1,.4.74,3.14,3.14,0,0,1,.13.94v3.92H60.3V70.16a1.29,1.29,0,0,0-.26-.87,1,1,0,0,0-.78-.31,1.48,1.48,0,0,0-.72.18,2.34,2.34,0,0,0-.64.47v4.45Z"/><path class="2dbb3ee9-f884-45ac-b53a-4f5718ca2822" d="M73.27,74.08H72a.53.53,0,0,1-.34-.1.63.63,0,0,1-.2-.26L70.83,72H67.24l-.65,1.77a.54.54,0,0,1-.19.25.55.55,0,0,1-.34.11H64.8l3.41-8.67h1.65Zm-5.62-3.27h2.77l-1.06-2.89c0-.13-.1-.28-.16-.45s-.11-.37-.17-.57c0,.2-.11.39-.16.57s-.11.33-.16.46Z"/><path class="2dbb3ee9-f884-45ac-b53a-4f5718ca2822" d="M102.78,72a.3.3,0,0,1,.23.1l.63.69a3.52,3.52,0,0,1-1.29,1,4.52,4.52,0,0,1-1.85.35,4.35,4.35,0,0,1-1.74-.33,3.87,3.87,0,0,1-1.32-.92,4.18,4.18,0,0,1-.84-1.4,5.42,5.42,0,0,1-.29-1.79A4.75,4.75,0,0,1,96.64,68a4,4,0,0,1,.91-1.4A4.13,4.13,0,0,1,99,65.64a4.73,4.73,0,0,1,1.8-.33,4.18,4.18,0,0,1,1.69.31,3.89,3.89,0,0,1,1.24.82l-.54.75a.34.34,0,0,1-.12.12.33.33,0,0,1-.21.06.5.5,0,0,1-.28-.11l-.36-.23a2.57,2.57,0,0,0-.57-.24,2.9,2.9,0,0,0-.86-.11,2.94,2.94,0,0,0-1.12.22,2.36,2.36,0,0,0-.88.61,2.71,2.71,0,0,0-.58,1A3.64,3.64,0,0,0,98,69.74a3.79,3.79,0,0,0,.21,1.31,2.83,2.83,0,0,0,.56,1,2.3,2.3,0,0,0,.83.59,2.61,2.61,0,0,0,1,.21,3.49,3.49,0,0,0,.59,0,2.45,2.45,0,0,0,.5-.11,2,2,0,0,0,.42-.2,2.2,2.2,0,0,0,.4-.3.38.38,0,0,1,.13-.09A.32.32,0,0,1,102.78,72Z"/><path class="2dbb3ee9-f884-45ac-b53a-4f5718ca2822" d="M107.41,67.83a3.35,3.35,0,0,1,1.25.22,2.72,2.72,0,0,1,1,.63,2.82,2.82,0,0,1,.62,1,4.22,4.22,0,0,1,0,2.63,2.82,2.82,0,0,1-.62,1,2.62,2.62,0,0,1-1,.64,3.35,3.35,0,0,1-1.25.22,3.4,3.4,0,0,1-1.26-.22,2.74,2.74,0,0,1-1-.64,2.82,2.82,0,0,1-.62-1,4,4,0,0,1,0-2.63,2.82,2.82,0,0,1,.62-1,2.86,2.86,0,0,1,1-.63A3.4,3.4,0,0,1,107.41,67.83Zm0,5.2a1.29,1.29,0,0,0,1.13-.51,2.58,2.58,0,0,0,.37-1.52,2.55,2.55,0,0,0-.37-1.51,1.28,1.28,0,0,0-1.13-.53,1.31,1.31,0,0,0-1.15.53,3.19,3.19,0,0,0,0,3A1.3,1.3,0,0,0,107.41,73Z"/><path class="2dbb3ee9-f884-45ac-b53a-4f5718ca2822" d="M111.6,74.08V67.93h.91a.38.38,0,0,1,.38.27l.1.48a2.88,2.88,0,0,1,.83-.62,2.58,2.58,0,0,1,.49-.17,2.65,2.65,0,0,1,.58-.06,2.28,2.28,0,0,1,.89.17,1.87,1.87,0,0,1,.65.48,2,2,0,0,1,.4.74,3.14,3.14,0,0,1,.13.94v3.92h-1.48V70.16a1.29,1.29,0,0,0-.26-.87,1,1,0,0,0-.78-.31,1.48,1.48,0,0,0-.72.18,2.34,2.34,0,0,0-.64.47v4.45Z"/><path class="2dbb3ee9-f884-45ac-b53a-4f5718ca2822" d="M122.75,74.08a.36.36,0,0,1-.37-.27l-.12-.59a5,5,0,0,1-.41.39,3.52,3.52,0,0,1-.45.3,2.14,2.14,0,0,1-.52.19,2.35,2.35,0,0,1-.6.07,2.05,2.05,0,0,1-.93-.21,2,2,0,0,1-.72-.61,2.88,2.88,0,0,1-.47-1A5.05,5.05,0,0,1,118,71a4.33,4.33,0,0,1,.18-1.27,3.11,3.11,0,0,1,.54-1,2.43,2.43,0,0,1,.83-.67,2.3,2.3,0,0,1,1.09-.25,2.09,2.09,0,0,1,.88.17,2.12,2.12,0,0,1,.66.44V65.17h1.48v8.91Zm-2-1.08a1.52,1.52,0,0,0,.79-.2,2.33,2.33,0,0,0,.61-.54V69.5a1.36,1.36,0,0,0-.55-.43,1.53,1.53,0,0,0-.64-.13,1.36,1.36,0,0,0-.61.13,1.19,1.19,0,0,0-.46.38,1.78,1.78,0,0,0-.29.65,3.6,3.6,0,0,0-.1.92,4.77,4.77,0,0,0,.08.92,1.81,1.81,0,0,0,.25.61.93.93,0,0,0,.4.34A1.24,1.24,0,0,0,120.78,73Z"/><path class="2dbb3ee9-f884-45ac-b53a-4f5718ca2822" d="M127.06,66.13a.73.73,0,0,1-.08.36,1.21,1.21,0,0,1-.2.3,1.1,1.1,0,0,1-.31.2.9.9,0,0,1-.37.07.86.86,0,0,1-.36-.07.92.92,0,0,1-.5-.5.86.86,0,0,1-.07-.36.94.94,0,0,1,.07-.37.93.93,0,0,1,.2-.3,1.21,1.21,0,0,1,.3-.2.86.86,0,0,1,.36-.08.91.91,0,0,1,.37.08,1.1,1.1,0,0,1,.31.2.93.93,0,0,1,.2.3A.8.8,0,0,1,127.06,66.13Zm-.22,1.8v6.15h-1.48V67.93Z"/><path class="2dbb3ee9-f884-45ac-b53a-4f5718ca2822" d="M130.54,74.18a1.6,1.6,0,0,1-1.23-.45,1.76,1.76,0,0,1-.44-1.26V69h-.62A.32.32,0,0,1,128,69a.33.33,0,0,1-.08-.24v-.58l1-.17.31-1.68a.25.25,0,0,1,.11-.18.32.32,0,0,1,.22-.07h.77V68H132V69h-1.62v3.33a.64.64,0,0,0,.14.45.48.48,0,0,0,.38.16.83.83,0,0,0,.24,0l.16-.07.12-.07a.23.23,0,0,1,.11,0,.2.2,0,0,1,.11,0l.09.1.44.72a2.23,2.23,0,0,1-.74.41A2.83,2.83,0,0,1,130.54,74.18Z"/><path class="2dbb3ee9-f884-45ac-b53a-4f5718ca2822" d="M135,66.13a.86.86,0,0,1-.08.36,1,1,0,0,1-.21.3.93.93,0,0,1-.3.2.94.94,0,0,1-.37.07.86.86,0,0,1-.36-.07.93.93,0,0,1-.3-.2,1,1,0,0,1-.2-.3.86.86,0,0,1-.08-.36,1,1,0,0,1,.08-.37.79.79,0,0,1,.2-.3.93.93,0,0,1,.3-.2.86.86,0,0,1,.36-.08,1,1,0,0,1,.37.08.93.93,0,0,1,.3.2.81.81,0,0,1,.21.3A1,1,0,0,1,135,66.13Zm-.22,1.8v6.15h-1.49V67.93Z"/><path class="2dbb3ee9-f884-45ac-b53a-4f5718ca2822" d="M139,67.83a3.31,3.31,0,0,1,1.25.22,2.86,2.86,0,0,1,1,.63,3,3,0,0,1,.61,1,4.22,4.22,0,0,1,0,2.63,3,3,0,0,1-.61,1,2.74,2.74,0,0,1-1,.64,3.31,3.31,0,0,1-1.25.22,3.4,3.4,0,0,1-1.26-.22,2.74,2.74,0,0,1-1-.64,3,3,0,0,1-.62-1,4,4,0,0,1,0-2.63,3,3,0,0,1,.62-1,2.86,2.86,0,0,1,1-.63A3.4,3.4,0,0,1,139,67.83Zm0,5.2a1.32,1.32,0,0,0,1.14-.51,2.67,2.67,0,0,0,.36-1.52,2.63,2.63,0,0,0-.36-1.51,1.5,1.5,0,0,0-2.29,0,3.19,3.19,0,0,0,0,3A1.3,1.3,0,0,0,139,73Z"/><path class="2dbb3ee9-f884-45ac-b53a-4f5718ca2822" d="M143.23,74.08V67.93h.91a.37.37,0,0,1,.38.27l.1.48a3.25,3.25,0,0,1,.39-.35,4,4,0,0,1,.44-.27,2.58,2.58,0,0,1,.49-.17,2.65,2.65,0,0,1,.58-.06,2.24,2.24,0,0,1,.89.17,1.87,1.87,0,0,1,.65.48,2,2,0,0,1,.4.74,3.14,3.14,0,0,1,.14.94v3.92h-1.49V70.16a1.29,1.29,0,0,0-.26-.87,1,1,0,0,0-.78-.31,1.48,1.48,0,0,0-.72.18,2.5,2.5,0,0,0-.64.47v4.45Z"/><path class="2dbb3ee9-f884-45ac-b53a-4f5718ca2822" d="M152.45,74.08V65.41h3a5.53,5.53,0,0,1,1.45.16,2.68,2.68,0,0,1,1,.46,1.76,1.76,0,0,1,.57.73,2.42,2.42,0,0,1,.18,1,1.85,1.85,0,0,1-.09.58,1.55,1.55,0,0,1-.28.52,2,2,0,0,1-.48.44,2.47,2.47,0,0,1-.69.34c1.19.27,1.79.91,1.79,1.93a2.45,2.45,0,0,1-.21,1,2.31,2.31,0,0,1-.62.81,2.75,2.75,0,0,1-1,.53,4.25,4.25,0,0,1-1.34.19Zm1.62-4.92h1.29a2.18,2.18,0,0,0,1.25-.3,1.09,1.09,0,0,0,.42-1,1.15,1.15,0,0,0-.38-1,2,2,0,0,0-1.2-.29h-1.38Zm0,1.12v2.54h1.64a2,2,0,0,0,.75-.11,1.24,1.24,0,0,0,.48-.28,1,1,0,0,0,.27-.42,1.7,1.7,0,0,0,.08-.51,1.36,1.36,0,0,0-.09-.51.88.88,0,0,0-.28-.38,1.33,1.33,0,0,0-.49-.25,3.07,3.07,0,0,0-.73-.08Z"/><path class="2dbb3ee9-f884-45ac-b53a-4f5718ca2822" d="M200,72.78a2,2,0,0,0,.83-.16,1.76,1.76,0,0,0,.63-.43,1.94,1.94,0,0,0,.39-.69,2.84,2.84,0,0,0,.13-.9V65.41h1.62V70.6a4.09,4.09,0,0,1-.25,1.43,3.35,3.35,0,0,1-.72,1.14,3.26,3.26,0,0,1-1.13.74,4,4,0,0,1-1.5.27,3.93,3.93,0,0,1-1.5-.27,3.21,3.21,0,0,1-1.14-.74,3.33,3.33,0,0,1-.71-1.14,3.87,3.87,0,0,1-.25-1.43V65.41H198V70.6a2.84,2.84,0,0,0,.13.9,2,2,0,0,0,.39.68,1.63,1.63,0,0,0,.62.44A2,2,0,0,0,200,72.78Z"/><path class="2dbb3ee9-f884-45ac-b53a-4f5718ca2822" d="M205.15,74.08V67.93h.9a.37.37,0,0,1,.38.27l.1.48c.13-.13.26-.24.39-.35a4,4,0,0,1,.44-.27,2.67,2.67,0,0,1,.5-.17,2.56,2.56,0,0,1,.57-.06,2.29,2.29,0,0,1,.9.17,1.87,1.87,0,0,1,.65.48,2.18,2.18,0,0,1,.39.74,3.14,3.14,0,0,1,.14.94v3.92H209V70.16a1.35,1.35,0,0,0-.26-.87A1,1,0,0,0,208,69a1.54,1.54,0,0,0-.72.18,2.46,2.46,0,0,0-.63.47v4.45Z"/><path class="2dbb3ee9-f884-45ac-b53a-4f5718ca2822" d="M213.77,66.13a.86.86,0,0,1-.08.36,1,1,0,0,1-.21.3.93.93,0,0,1-.3.2,1,1,0,0,1-.74,0,1,1,0,0,1-.29-.2,1,1,0,0,1-.2-.3.86.86,0,0,1-.08-.36,1,1,0,0,1,.08-.37.79.79,0,0,1,.2-.3,1,1,0,0,1,.29-.2.9.9,0,0,1,.74,0,.93.93,0,0,1,.3.2.81.81,0,0,1,.21.3A1,1,0,0,1,213.77,66.13Zm-.22,1.8v6.15h-1.49V67.93Z"/><path class="2dbb3ee9-f884-45ac-b53a-4f5718ca2822" d="M217.85,67.83a3.35,3.35,0,0,1,1.25.22,2.86,2.86,0,0,1,1,.63,3,3,0,0,1,.61,1,4.22,4.22,0,0,1,0,2.63,3,3,0,0,1-.61,1,2.74,2.74,0,0,1-1,.64,3.35,3.35,0,0,1-1.25.22,3.4,3.4,0,0,1-1.26-.22,2.74,2.74,0,0,1-1-.64,2.82,2.82,0,0,1-.62-1,4,4,0,0,1,0-2.63,2.82,2.82,0,0,1,.62-1,2.86,2.86,0,0,1,1-.63A3.4,3.4,0,0,1,217.85,67.83Zm0,5.2a1.29,1.29,0,0,0,1.13-.51,2.58,2.58,0,0,0,.37-1.52,2.55,2.55,0,0,0-.37-1.51,1.28,1.28,0,0,0-1.13-.53,1.31,1.31,0,0,0-1.15.53,3.19,3.19,0,0,0,0,3A1.3,1.3,0,0,0,217.85,73Z"/><path class="2dbb3ee9-f884-45ac-b53a-4f5718ca2822" d="M222,74.08V67.93H223a.38.38,0,0,1,.38.27l.1.48a2.88,2.88,0,0,1,.83-.62,2.58,2.58,0,0,1,.49-.17,2.65,2.65,0,0,1,.58-.06,2.24,2.24,0,0,1,.89.17,1.87,1.87,0,0,1,.65.48,2,2,0,0,1,.4.74,3.14,3.14,0,0,1,.13.94v3.92h-1.48V70.16a1.29,1.29,0,0,0-.26-.87,1,1,0,0,0-.78-.31,1.48,1.48,0,0,0-.72.18,2.34,2.34,0,0,0-.64.47v4.45Z"/><path class="2dbb3ee9-f884-45ac-b53a-4f5718ca2822" d="M303.22,65.41v1.32h-2.61v7.35H299V66.73h-2.62V65.41Z"/><path class="2dbb3ee9-f884-45ac-b53a-4f5718ca2822" d="M303.21,74.08V67.93h.87a.43.43,0,0,1,.31.08.49.49,0,0,1,.12.29l.09.74a2.89,2.89,0,0,1,.78-.9,1.62,1.62,0,0,1,1-.33,1.29,1.29,0,0,1,.76.21l-.19,1.11a.24.24,0,0,1-.08.16.27.27,0,0,1-.16,0,1,1,0,0,1-.25,0,1.53,1.53,0,0,0-.41,0,1.24,1.24,0,0,0-.79.25,1.85,1.85,0,0,0-.56.75v3.83Z"/><path class="2dbb3ee9-f884-45ac-b53a-4f5718ca2822" d="M309.46,67.93v3.91a1.33,1.33,0,0,0,.26.87,1,1,0,0,0,.79.31,1.65,1.65,0,0,0,.72-.17,2.46,2.46,0,0,0,.63-.47V67.93h1.49v6.15h-.91a.37.37,0,0,1-.38-.27l-.1-.49a3.23,3.23,0,0,1-.4.35,1.94,1.94,0,0,1-.43.27,2.7,2.7,0,0,1-.5.18,2.62,2.62,0,0,1-.57.06,2.21,2.21,0,0,1-.89-.17,1.9,1.9,0,0,1-.66-.49,2.09,2.09,0,0,1-.39-.74,3.09,3.09,0,0,1-.14-.94V67.93Z"/><path class="2dbb3ee9-f884-45ac-b53a-4f5718ca2822" d="M317,74.18a1.63,1.63,0,0,1-1.23-.45,1.75,1.75,0,0,1-.43-1.26V69h-.63a.29.29,0,0,1-.29-.32v-.58l1-.17.31-1.68a.33.33,0,0,1,.11-.18A.32.32,0,0,1,316,66h.77V68h1.62V69h-1.62v3.33a.69.69,0,0,0,.14.45.5.5,0,0,0,.39.16.75.75,0,0,0,.23,0,.59.59,0,0,0,.16-.07.35.35,0,0,0,.12-.07l.11,0a.18.18,0,0,1,.11,0l.09.1.44.72a2.14,2.14,0,0,1-.74.41A2.83,2.83,0,0,1,317,74.18Z"/><path class="2dbb3ee9-f884-45ac-b53a-4f5718ca2822" d="M319.57,74.08V65.17h1.49v3.42a3,3,0,0,1,.79-.55,2.28,2.28,0,0,1,1-.21,2.33,2.33,0,0,1,.9.17,2.07,2.07,0,0,1,.65.48,2.18,2.18,0,0,1,.39.74,3.14,3.14,0,0,1,.14.94v3.92h-1.49V70.16a1.29,1.29,0,0,0-.26-.87,1,1,0,0,0-.78-.31,1.48,1.48,0,0,0-.72.18,2.46,2.46,0,0,0-.63.47v4.45Z"/></g></svg>