<?xml version="1.0" encoding="UTF-8"?>
<svg xmlns="http://www.w3.org/2000/svg" viewBox="0 0 245 345.34">
  <defs>
    <style>
      .cls-1, .cls-2 {
        fill: none;
      }

      .cls-2 {
        stroke: #575756;
      }

      .cls-3 {
        fill: #fff;
      }

      .cls-4 {
        fill: #878787;
      }

      .cls-5 {
        fill: #a7cee3;
      }

      .cls-6 {
        fill: #575756;
      }

      .cls-7 {
        fill: #fb8072;
      }
    </style>
  </defs>
  <g id="shapes">
    <polygon class="cls-6" points="126.58 170.96 122.17 178.61 117.75 170.96 126.58 170.96"/>
    <polygon class="cls-6" points="126.5 89.58 122.08 97.23 117.67 89.58 126.5 89.58"/>
    <polygon class="cls-6" points="43.83 119.03 47.65 121.24 43.83 123.45 43.83 119.03"/>
    <polygon class="cls-6" points="11.24 185.38 15.06 187.59 11.24 189.8 11.24 185.38"/>
    <polygon class="cls-6" points="163.94 119.03 167.76 121.24 163.94 123.45 163.94 119.03"/>
    <polygon class="cls-6" points="131.35 185.38 135.18 187.59 131.35 189.8 131.35 185.38"/>
    <polygon class="cls-6" points="201.59 142.86 197.77 145.07 201.59 147.28 201.59 142.86"/>
    <polygon class="cls-6" points="233.26 185.38 229.44 187.59 233.26 189.8 233.26 185.38"/>
    <polygon class="cls-6" points="126.58 259.2 122.17 266.85 117.75 259.2 126.58 259.2"/>
    <polygon class="cls-6" points="11.24 274.61 15.06 276.82 11.24 279.03 11.24 274.61"/>
    <polygon class="cls-6" points="131.35 274.61 135.18 276.82 131.35 279.03 131.35 274.61"/>
    <polygon class="cls-6" points="193.08 274.61 189.25 276.82 193.08 279.03 193.08 274.61"/>
  </g>
  <g id="boxes">
    <g>
      <g>
        <rect class="cls-2" x="31.33" y="117.41" width="8.56" height="7.67"/>
        <rect class="cls-2" x="11.24" y="117.41" width="20.09" height="7.67"/>
      </g>
      <g>
        <rect class="cls-5" x="31.33" y="117.41" width="8.56" height="7.67"/>
        <rect class="cls-7" x="11.24" y="117.41" width="20.09" height="7.67"/>
      </g>
    </g>
    <g>
      <g>
        <rect class="cls-2" x="151.44" y="117.41" width="8.56" height="7.67"/>
        <rect class="cls-2" x="131.35" y="117.41" width="20.09" height="7.67"/>
      </g>
      <g>
        <rect class="cls-5" x="151.44" y="117.41" width="8.56" height="7.67"/>
        <rect class="cls-7" x="131.35" y="117.41" width="20.09" height="7.67"/>
      </g>
    </g>
    <g>
      <g>
        <rect class="cls-2" x="205.53" y="141.24" width="8.56" height="7.67"/>
        <rect class="cls-2" x="214.09" y="141.24" width="20.09" height="7.67"/>
      </g>
      <g>
        <rect class="cls-5" x="205.53" y="141.24" width="8.56" height="7.67"/>
        <rect class="cls-7" x="214.09" y="141.24" width="20.09" height="7.67"/>
      </g>
    </g>
  </g>
  <g id="text-titles">
    <g>
      <rect class="cls-1" x="74.31" y="73.87" width="95.55" height="10.83"/>
      <path class="cls-6" d="M109.44,81.46v1.33h-5.08v-8.68h1.61v7.34h3.47Z"/>
      <path class="cls-6" d="M112.1,74.84c0,.13-.03.25-.08.36-.05.11-.12.21-.21.29s-.19.15-.3.2c-.12.05-.24.08-.37.08s-.25-.02-.36-.08c-.11-.05-.21-.12-.3-.2s-.15-.18-.2-.29c-.05-.11-.07-.23-.07-.36s.02-.26.07-.37c.05-.12.12-.22.2-.3s.18-.15.3-.2c.11-.05.24-.07.36-.07s.26.02.37.07c.12.05.22.12.3.2s.16.18.21.3c.05.12.08.24.08.37ZM111.89,76.63v6.16h-1.49v-6.16h1.49Z"/>
      <path class="cls-6" d="M114.89,77.39c.25-.26.52-.47.83-.62.3-.15.65-.23,1.04-.23.36,0,.68.07.96.21.29.14.53.34.73.6s.36.58.46.95c.11.37.16.79.16,1.25,0,.5-.06.95-.19,1.36-.12.41-.3.76-.53,1.05-.23.29-.51.52-.83.68-.32.16-.68.24-1.08.24-.19,0-.37-.02-.52-.06-.16-.04-.3-.09-.43-.16s-.25-.15-.36-.25c-.11-.1-.22-.21-.32-.33l-.07.41c-.02.1-.06.18-.12.22-.06.04-.14.07-.24.07h-.98v-8.92h1.48v3.52ZM114.89,81.19c.17.2.35.35.55.43s.41.13.63.13.43-.04.62-.12c.18-.08.34-.21.46-.38.13-.17.23-.4.29-.67s.1-.59.1-.97c0-.68-.11-1.16-.34-1.47-.22-.3-.55-.45-.97-.45-.28,0-.53.06-.74.2-.21.13-.41.31-.61.55v2.76Z"/>
      <path class="cls-6" d="M121.61,77.7c.19-.37.42-.66.68-.87.26-.21.58-.31.94-.31.28,0,.51.06.68.19l-.1,1.11c-.02.07-.05.12-.09.15-.04.03-.09.04-.15.04s-.15-.01-.27-.03-.23-.03-.34-.03c-.16,0-.31.02-.44.07-.13.05-.24.12-.34.21-.1.09-.19.2-.27.33s-.15.27-.22.44v3.79h-1.48v-6.16h.87c.15,0,.26.03.32.08.06.05.1.15.12.29l.09.7Z"/>
      <path class="cls-6" d="M124.47,77.49c.71-.65,1.56-.97,2.56-.97.36,0,.68.06.97.18.28.12.52.28.72.49s.34.46.45.75c.1.29.15.61.15.96v3.89h-.67c-.14,0-.25-.02-.32-.06-.08-.04-.14-.13-.18-.25l-.13-.44c-.16.14-.31.26-.46.37-.15.11-.3.19-.46.27-.16.07-.33.13-.51.17-.18.04-.38.06-.6.06-.26,0-.5-.04-.72-.1-.22-.07-.41-.18-.57-.32-.16-.14-.28-.31-.37-.52-.09-.21-.13-.45-.13-.73,0-.16.03-.31.08-.47.05-.15.14-.3.25-.44s.27-.27.46-.4c.19-.12.42-.23.69-.32.27-.09.59-.17.96-.22s.78-.09,1.25-.1v-.36c0-.41-.09-.72-.26-.92-.18-.2-.43-.3-.76-.3-.24,0-.44.03-.6.08-.16.06-.3.12-.42.19-.12.07-.23.13-.33.19-.1.06-.21.08-.33.08-.1,0-.19-.03-.26-.08-.07-.05-.13-.12-.17-.19l-.26-.47ZM127.87,80.16c-.43.02-.79.06-1.08.11-.29.05-.53.12-.7.21s-.3.18-.38.29c-.08.11-.11.23-.11.37,0,.26.08.45.23.56.15.11.35.17.6.17.3,0,.57-.06.79-.17.22-.11.44-.28.65-.5v-1.04Z"/>
      <path class="cls-6" d="M132.1,77.7c.19-.37.42-.66.68-.87.26-.21.58-.31.94-.31.28,0,.51.06.68.19l-.1,1.11c-.02.07-.05.12-.09.15-.04.03-.09.04-.15.04s-.15-.01-.27-.03-.23-.03-.34-.03c-.16,0-.31.02-.44.07-.13.05-.24.12-.34.21-.1.09-.19.2-.27.33s-.15.27-.22.44v3.79h-1.48v-6.16h.87c.15,0,.26.03.32.08.06.05.1.15.12.29l.09.7Z"/>
      <path class="cls-6" d="M140.77,76.63l-3.35,7.85c-.04.1-.1.18-.17.24-.07.05-.18.08-.32.08h-1.1l1.15-2.47-2.49-5.69h1.3c.12,0,.21.03.27.08.07.06.12.12.15.19l1.31,3.19c.04.11.08.22.11.32.03.11.06.22.09.33.04-.11.07-.22.11-.33.04-.11.08-.22.12-.33l1.24-3.19c.03-.08.08-.15.16-.2.07-.05.16-.08.25-.08h1.19Z"/>
    </g>
    <g>
      <rect class="cls-1" x="74.31" y="156.16" width="95.55" height="10.83"/>
      <path class="cls-6" d="M96.84,157.97c-.05.08-.1.15-.15.18-.05.04-.12.06-.2.06s-.17-.03-.27-.09c-.1-.06-.21-.13-.35-.21s-.29-.14-.48-.21c-.18-.06-.4-.09-.64-.09-.22,0-.42.03-.59.08-.17.05-.31.13-.42.22-.11.1-.2.21-.25.34-.06.13-.08.28-.08.44,0,.2.06.37.17.51.11.14.26.25.45.35.19.1.4.18.64.26s.49.16.74.24.5.19.74.3c.24.11.45.26.64.43.19.17.34.39.45.64.11.25.17.56.17.92,0,.39-.07.76-.2,1.1s-.33.64-.59.89c-.26.25-.57.45-.95.6-.37.15-.8.22-1.28.22-.28,0-.55-.03-.82-.08-.27-.05-.53-.13-.77-.23-.25-.1-.48-.22-.69-.36s-.41-.3-.58-.47l.47-.77c.04-.06.09-.1.16-.14.06-.04.13-.06.2-.06.1,0,.21.04.32.12.12.08.25.17.41.27.16.1.35.19.56.27.21.08.47.12.77.12.46,0,.82-.11,1.07-.33.25-.22.38-.53.38-.94,0-.23-.06-.41-.17-.56-.11-.14-.26-.27-.45-.36-.19-.1-.4-.18-.64-.25s-.48-.14-.73-.22-.49-.18-.73-.29c-.24-.11-.45-.26-.64-.44-.19-.18-.34-.41-.45-.67-.11-.27-.17-.6-.17-1,0-.32.06-.62.19-.92s.31-.57.55-.8c.24-.23.54-.42.89-.56.35-.14.76-.21,1.21-.21.51,0,.98.08,1.42.24.43.16.8.38,1.1.67l-.4.76Z"/>
      <path class="cls-6" d="M99.69,162.18c.02.32.08.59.17.82.09.23.2.42.35.57.14.15.32.26.51.34.2.07.42.11.66.11s.45-.03.62-.08c.17-.06.33-.12.46-.19s.24-.13.34-.19c.1-.06.19-.08.29-.08.12,0,.22.05.28.14l.43.54c-.16.19-.35.35-.55.48s-.42.23-.64.31c-.22.08-.45.13-.68.17-.23.03-.45.05-.67.05-.43,0-.83-.07-1.19-.21-.37-.14-.69-.35-.96-.63-.27-.28-.49-.62-.64-1.03s-.23-.88-.23-1.42c0-.42.07-.82.2-1.19s.33-.69.58-.97c.25-.27.56-.49.93-.65.37-.16.78-.24,1.24-.24.39,0,.75.06,1.07.19s.61.31.85.54c.24.24.42.53.56.88.13.35.2.74.2,1.19,0,.22-.02.38-.07.45-.05.08-.14.12-.28.12h-3.81ZM102.52,161.29c0-.19-.03-.37-.08-.54-.05-.17-.14-.32-.24-.45-.11-.13-.25-.23-.41-.3s-.36-.11-.58-.11c-.43,0-.76.12-1.01.37s-.4.59-.47,1.04h2.8Z"/>
      <path class="cls-6" d="M110.3,158.92v8.17h-1.48v-2.79c-.24.26-.52.47-.83.63-.31.16-.67.24-1.07.24-.34,0-.64-.07-.92-.21-.28-.14-.52-.34-.72-.61-.2-.27-.36-.59-.47-.99-.11-.39-.17-.84-.17-1.34,0-.46.06-.88.19-1.27.12-.39.3-.73.53-1.02.23-.29.51-.51.83-.67.32-.16.69-.24,1.09-.24s.71.07.97.2.49.31.7.53l.08-.35c.05-.18.18-.27.37-.27h.91ZM108.82,160.49c-.16-.2-.35-.35-.55-.43-.2-.08-.41-.13-.64-.13s-.43.04-.61.13c-.18.08-.33.21-.46.38-.13.17-.23.39-.29.65-.07.26-.1.57-.1.93s.03.67.09.92.14.45.25.61.24.27.4.34c.16.07.33.11.52.11.31,0,.57-.06.79-.19s.42-.31.61-.55v-2.76Z"/>
      <path class="cls-6" d="M117.07,158.92v6.16h-.91c-.2,0-.32-.09-.37-.27l-.1-.49c-.25.26-.53.46-.83.62-.3.16-.66.24-1.07.24-.34,0-.63-.06-.89-.17-.26-.11-.47-.28-.65-.48-.18-.21-.31-.46-.4-.74-.09-.29-.13-.6-.13-.95v-3.91h1.48v3.91c0,.38.09.67.26.87s.43.31.78.31c.26,0,.5-.06.72-.17.22-.11.44-.27.64-.47v-4.45h1.48Z"/>
      <path class="cls-6" d="M119.67,162.18c.02.32.08.59.17.82.09.23.2.42.35.57.14.15.31.26.51.34s.42.11.66.11.45-.03.62-.08c.17-.06.33-.12.46-.19.13-.07.24-.13.34-.19.1-.06.19-.08.29-.08.12,0,.22.05.28.14l.43.54c-.16.19-.35.35-.55.48s-.42.23-.64.31c-.22.08-.45.13-.68.17-.23.03-.45.05-.67.05-.43,0-.83-.07-1.19-.21-.37-.14-.69-.35-.96-.63-.27-.28-.49-.62-.64-1.03-.16-.41-.23-.88-.23-1.42,0-.42.07-.82.2-1.19.14-.37.33-.69.58-.97.25-.27.56-.49.93-.65.37-.16.78-.24,1.24-.24.39,0,.75.06,1.07.19.33.12.61.31.85.54.24.24.42.53.55.88.13.35.2.74.2,1.19,0,.22-.02.38-.07.45-.05.08-.14.12-.28.12h-3.81ZM122.5,161.29c0-.19-.03-.37-.08-.54s-.13-.32-.24-.45c-.11-.13-.25-.23-.41-.3s-.36-.11-.58-.11c-.43,0-.76.12-1.01.37s-.4.59-.47,1.04h2.8Z"/>
      <path class="cls-6" d="M126.33,159.67c.12-.12.25-.24.39-.34.14-.11.28-.2.44-.27.15-.07.32-.13.5-.17s.37-.06.58-.06c.34,0,.63.06.89.17s.48.27.65.48.31.45.4.74.14.6.14.95v3.92h-1.48v-3.92c0-.38-.09-.67-.26-.87s-.43-.31-.79-.31c-.26,0-.5.06-.72.17-.22.12-.44.27-.64.47v4.45h-1.48v-6.16h.91c.19,0,.32.09.38.27l.1.49Z"/>
      <path class="cls-6" d="M136.12,160.22c-.04.06-.09.1-.13.13-.04.03-.1.05-.18.05s-.15-.02-.22-.07c-.07-.05-.16-.1-.26-.16-.1-.06-.22-.11-.36-.16-.14-.05-.31-.07-.51-.07-.26,0-.49.05-.68.14-.2.09-.36.23-.49.41s-.23.39-.29.64c-.06.25-.1.53-.1.85s.04.62.1.88c.07.26.17.47.3.64.13.17.29.31.48.4.19.09.4.13.64.13s.43-.03.57-.09c.15-.06.27-.12.37-.19.1-.07.19-.13.26-.19.07-.06.16-.09.25-.09.12,0,.21.05.27.14l.43.54c-.16.19-.34.35-.53.48-.19.13-.39.23-.6.31s-.42.13-.64.17c-.22.03-.44.05-.65.05-.38,0-.74-.07-1.07-.21-.34-.14-.63-.35-.88-.62-.25-.27-.45-.61-.6-1-.15-.39-.22-.84-.22-1.35,0-.45.07-.87.2-1.26.13-.39.32-.72.57-1,.25-.28.56-.5.94-.66.37-.16.8-.24,1.28-.24s.86.07,1.21.22c.35.15.66.36.93.64l-.39.54Z"/>
      <path class="cls-6" d="M139.24,157.12c0,.13-.03.25-.08.36-.05.11-.12.21-.21.29s-.19.15-.3.2c-.12.05-.24.08-.37.08s-.25-.02-.36-.08c-.11-.05-.21-.12-.3-.2s-.15-.18-.2-.29c-.05-.11-.08-.23-.08-.36s.03-.26.08-.37.12-.22.2-.3.18-.15.3-.2.23-.08.36-.08.26.03.37.08c.12.05.22.12.3.2s.15.18.21.3c.05.12.08.24.08.37ZM139.03,158.92v6.16h-1.49v-6.16h1.49Z"/>
      <path class="cls-6" d="M141.93,159.67c.12-.12.25-.24.39-.34.14-.11.28-.2.44-.27.15-.07.32-.13.5-.17s.37-.06.58-.06c.34,0,.63.06.89.17s.48.27.65.48.31.45.4.74.14.6.14.95v3.92h-1.48v-3.92c0-.38-.09-.67-.26-.87s-.43-.31-.79-.31c-.26,0-.5.06-.72.17-.22.12-.44.27-.64.47v4.45h-1.48v-6.16h.91c.19,0,.32.09.38.27l.1.49Z"/>
      <path class="cls-6" d="M152.71,159.13v.55c0,.18-.11.28-.32.32l-.55.1c.08.21.13.44.13.7,0,.3-.06.58-.18.83s-.29.46-.51.63c-.22.17-.47.3-.77.4-.29.09-.61.14-.95.14-.12,0-.24,0-.35-.02-.11-.01-.22-.03-.33-.05-.19.12-.29.25-.29.39,0,.12.06.21.17.27.11.06.27.1.45.12.19.02.4.04.64.04.24,0,.49.02.74.04.25.02.5.06.74.11s.45.13.64.24c.19.11.34.25.45.44.11.19.17.42.17.72,0,.27-.07.54-.2.79-.13.26-.33.48-.58.68-.25.2-.57.36-.94.48s-.79.18-1.26.18-.87-.04-1.21-.14c-.34-.09-.63-.21-.86-.36-.23-.15-.4-.32-.51-.52-.11-.2-.17-.4-.17-.61,0-.29.09-.53.26-.72.17-.19.41-.35.72-.46-.16-.08-.29-.2-.39-.34-.1-.14-.14-.32-.14-.55,0-.09.02-.19.05-.29.03-.1.08-.2.15-.29.07-.1.15-.19.25-.27.1-.09.22-.16.35-.23-.31-.17-.56-.39-.74-.67s-.27-.61-.27-.98c0-.3.06-.58.18-.83.12-.25.29-.46.51-.63.22-.17.48-.31.77-.4s.62-.14.97-.14c.26,0,.51.03.74.08.23.05.44.13.64.24h1.77ZM151.23,165.35c0-.12-.04-.22-.11-.29-.07-.08-.17-.13-.29-.18s-.27-.07-.44-.09c-.17-.02-.34-.04-.53-.04-.19,0-.38-.02-.58-.03s-.39-.02-.58-.05c-.16.09-.3.2-.4.32-.1.12-.15.27-.15.43,0,.11.03.21.08.3.05.09.14.18.26.24.12.07.27.12.46.16.19.04.42.06.69.06s.51-.02.71-.06c.2-.04.36-.1.49-.17.13-.07.23-.16.29-.26.06-.1.09-.21.09-.33ZM149.56,161.84c.18,0,.34-.02.48-.08.14-.05.25-.12.34-.21.09-.09.16-.19.2-.32s.07-.26.07-.41c0-.3-.09-.54-.27-.72s-.46-.27-.82-.27-.64.09-.82.27c-.18.18-.27.42-.27.72,0,.14.02.28.07.4s.11.23.2.32c.09.09.2.16.34.21.14.05.3.08.48.08Z"/>
    </g>
    <g>
      <g>
        <rect class="cls-2" x="70.5" y="5" width="103.59" height="15.33"/>
        <rect class="cls-2" x="22.65" y="5" width="48.52" height="15.33"/>
        <rect class="cls-2" x="174.09" y="5" width="47.42" height="15.33"/>
      </g>
      <g>
        <rect class="cls-5" x="70.5" y="5" width="103.59" height="15.33"/>
        <rect class="cls-7" x="22.65" y="5" width="48.52" height="15.33"/>
        <rect class="cls-7" x="174.09" y="5" width="47.42" height="15.33"/>
      </g>
    </g>
    <g>
      <g>
        <rect class="cls-2" x="31.77" y="129.29" width="61.04" height="7.67"/>
        <rect class="cls-2" x="11.24" y="129.29" width="20.62" height="7.67"/>
        <rect class="cls-2" x="92.88" y="129.29" width="20.62" height="7.67"/>
      </g>
      <g>
        <rect class="cls-5" x="31.77" y="129.29" width="61.04" height="7.67"/>
        <rect class="cls-7" x="11.24" y="129.29" width="20.62" height="7.67"/>
        <rect class="cls-7" x="92.88" y="129.29" width="20.62" height="7.67"/>
      </g>
    </g>
    <g>
      <g>
        <rect class="cls-2" x="73.28" y="24.54" width="97.28" height="7.67"/>
        <rect class="cls-2" x="33.36" y="24.54" width="39.93" height="7.67"/>
        <rect class="cls-2" x="170.7" y="24.54" width="40.1" height="7.67"/>
      </g>
      <g>
        <rect class="cls-5" x="73.28" y="24.54" width="97.28" height="7.67"/>
        <rect class="cls-7" x="33.36" y="24.54" width="39.93" height="7.67"/>
        <rect class="cls-7" x="170.7" y="24.54" width="40.1" height="7.67"/>
      </g>
    </g>
    <g>
      <g>
        <rect class="cls-2" x="82.74" y="60.24" width="78.44" height="7.67"/>
        <rect class="cls-2" x="50.54" y="60.24" width="32.19" height="7.67"/>
        <rect class="cls-2" x="161.29" y="60.24" width="32.34" height="7.67"/>
      </g>
      <g>
        <rect class="cls-5" x="82.74" y="60.24" width="78.44" height="7.67"/>
        <rect class="cls-7" x="50.54" y="60.24" width="32.19" height="7.67"/>
        <rect class="cls-7" x="161.29" y="60.24" width="32.34" height="7.67"/>
      </g>
    </g>
    <g>
      <g>
        <rect class="cls-2" x="69.36" y="36.21" width="105.31" height="7.67"/>
        <rect class="cls-2" x="29.25" y="36.21" width="39.93" height="7.67"/>
        <rect class="cls-2" x="174.67" y="36.21" width="40.24" height="7.67"/>
      </g>
      <g>
        <rect class="cls-5" x="69.36" y="36.21" width="105.31" height="7.67"/>
        <rect class="cls-7" x="29.25" y="36.21" width="39.93" height="7.67"/>
        <rect class="cls-7" x="174.67" y="36.21" width="40.24" height="7.67"/>
      </g>
    </g>
    <g>
      <g>
        <rect class="cls-2" x="109.25" y="48.29" width="26.04" height="7.67"/>
        <rect class="cls-2" x="69.15" y="48.29" width="39.93" height="7.67"/>
        <rect class="cls-2" x="135.43" y="48.29" width="39.59" height="7.67"/>
      </g>
      <g>
        <rect class="cls-5" x="109.25" y="48.29" width="26.04" height="7.67"/>
        <rect class="cls-7" x="69.15" y="48.29" width="39.93" height="7.67"/>
        <rect class="cls-7" x="135.43" y="48.29" width="39.59" height="7.67"/>
      </g>
    </g>
    <g>
      <g>
        <rect class="cls-2" x="31.33" y="227.93" width="16.32" height="7.67"/>
        <rect class="cls-2" x="11.24" y="227.93" width="20.09" height="7.67"/>
        <rect class="cls-2" x="47.65" y="227.93" width="6.1" height="7.67"/>
      </g>
      <g>
        <rect class="cls-5" x="31.33" y="227.93" width="16.32" height="7.67"/>
        <rect class="cls-7" x="11.24" y="227.93" width="20.09" height="7.67"/>
        <rect class="cls-7" x="47.65" y="227.93" width="6.1" height="7.67"/>
      </g>
    </g>
    <g>
      <g>
        <rect class="cls-2" x="31.33" y="204.24" width="17.67" height="7.67"/>
        <rect class="cls-2" x="11.24" y="204.24" width="20.09" height="7.67"/>
        <rect class="cls-2" x="49" y="204.24" width="4.75" height="7.67"/>
      </g>
      <g>
        <rect class="cls-5" x="31.33" y="204.24" width="17.67" height="7.67"/>
        <rect class="cls-7" x="11.24" y="204.24" width="20.09" height="7.67"/>
        <rect class="cls-7" x="49" y="204.24" width="4.75" height="7.67"/>
      </g>
    </g>
    <g>
      <g>
        <rect class="cls-2" x="21.93" y="193.01" width="31.82" height="7.67"/>
        <rect class="cls-2" x="11.24" y="193.01" width="20.09" height="7.67"/>
      </g>
      <g>
        <rect class="cls-5" x="21.93" y="193.01" width="31.82" height="7.67"/>
        <rect class="cls-7" x="11.24" y="193.01" width="20.09" height="7.67"/>
      </g>
    </g>
    <g>
      <g>
        <rect class="cls-2" x="21.93" y="216.46" width="31.82" height="7.67"/>
        <rect class="cls-2" x="11.24" y="216.46" width="20.09" height="7.67"/>
      </g>
      <g>
        <rect class="cls-5" x="21.93" y="216.46" width="31.82" height="7.67"/>
        <rect class="cls-7" x="11.24" y="216.46" width="20.09" height="7.67"/>
      </g>
    </g>
    <g>
      <g>
        <rect class="cls-2" x="151.67" y="227.93" width="16.32" height="7.67"/>
        <rect class="cls-2" x="131.58" y="227.93" width="20.09" height="7.67"/>
        <rect class="cls-2" x="167.99" y="227.93" width="6.1" height="7.67"/>
      </g>
      <g>
        <rect class="cls-5" x="151.67" y="227.93" width="16.32" height="7.67"/>
        <rect class="cls-7" x="131.58" y="227.93" width="20.09" height="7.67"/>
        <rect class="cls-7" x="167.99" y="227.93" width="6.1" height="7.67"/>
      </g>
    </g>
    <g>
      <g>
        <rect class="cls-2" x="151.67" y="204.24" width="17.67" height="7.67"/>
        <rect class="cls-2" x="131.58" y="204.24" width="20.09" height="7.67"/>
        <rect class="cls-2" x="169.34" y="204.24" width="4.75" height="7.67"/>
      </g>
      <g>
        <rect class="cls-5" x="151.67" y="204.24" width="17.67" height="7.67"/>
        <rect class="cls-7" x="131.58" y="204.24" width="20.09" height="7.67"/>
        <rect class="cls-7" x="169.34" y="204.24" width="4.75" height="7.67"/>
      </g>
    </g>
    <g>
      <g>
        <rect class="cls-2" x="142.27" y="193.01" width="31.82" height="7.67"/>
        <rect class="cls-2" x="131.58" y="193.01" width="20.09" height="7.67"/>
      </g>
      <g>
        <rect class="cls-5" x="142.27" y="193.01" width="31.82" height="7.67"/>
        <rect class="cls-7" x="131.58" y="193.01" width="20.09" height="7.67"/>
      </g>
    </g>
    <g>
      <g>
        <rect class="cls-2" x="142.27" y="216.46" width="31.82" height="7.67"/>
        <rect class="cls-2" x="131.58" y="216.46" width="20.09" height="7.67"/>
      </g>
      <g>
        <rect class="cls-5" x="142.27" y="216.46" width="31.82" height="7.67"/>
        <rect class="cls-7" x="131.58" y="216.46" width="20.09" height="7.67"/>
      </g>
    </g>
    <g>
      <g>
        <rect class="cls-2" x="196.64" y="227.93" width="16.32" height="7.67"/>
        <rect class="cls-2" x="212.96" y="227.93" width="20.09" height="7.67"/>
        <rect class="cls-2" x="190.55" y="227.93" width="6.1" height="7.67"/>
      </g>
      <g>
        <rect class="cls-5" x="196.64" y="227.93" width="16.32" height="7.67"/>
        <rect class="cls-7" x="212.96" y="227.93" width="20.09" height="7.67"/>
        <rect class="cls-7" x="190.55" y="227.93" width="6.1" height="7.67"/>
      </g>
    </g>
    <g>
      <g>
        <rect class="cls-2" x="195.3" y="204.24" width="17.67" height="7.67"/>
        <rect class="cls-2" x="212.96" y="204.24" width="20.09" height="7.67"/>
        <rect class="cls-2" x="190.55" y="204.24" width="4.75" height="7.67"/>
      </g>
      <g>
        <rect class="cls-5" x="195.3" y="204.24" width="17.67" height="7.67"/>
        <rect class="cls-7" x="212.96" y="204.24" width="20.09" height="7.67"/>
        <rect class="cls-7" x="190.55" y="204.24" width="4.75" height="7.67"/>
      </g>
    </g>
    <g>
      <g>
        <rect class="cls-2" x="190.55" y="193.01" width="31.82" height="7.67"/>
        <rect class="cls-2" x="212.96" y="193.01" width="20.09" height="7.67"/>
      </g>
      <g>
        <rect class="cls-5" x="190.55" y="193.01" width="31.82" height="7.67"/>
        <rect class="cls-7" x="212.96" y="193.01" width="20.09" height="7.67"/>
      </g>
    </g>
    <g>
      <g>
        <rect class="cls-2" x="190.55" y="216.46" width="31.82" height="7.67"/>
        <rect class="cls-2" x="212.96" y="216.46" width="20.09" height="7.67"/>
      </g>
      <g>
        <rect class="cls-5" x="190.55" y="216.46" width="31.82" height="7.67"/>
        <rect class="cls-7" x="212.96" y="216.46" width="20.09" height="7.67"/>
      </g>
    </g>
    <g>
      <g>
        <rect class="cls-2" x="152.11" y="129.29" width="61.04" height="7.67"/>
        <rect class="cls-2" x="131.58" y="129.29" width="20.62" height="7.67"/>
        <rect class="cls-2" x="213.22" y="129.29" width="20.62" height="7.67"/>
      </g>
      <g>
        <rect class="cls-5" x="152.11" y="129.29" width="61.04" height="7.67"/>
        <rect class="cls-7" x="131.58" y="129.29" width="20.62" height="7.67"/>
        <rect class="cls-7" x="213.22" y="129.29" width="20.62" height="7.67"/>
      </g>
    </g>
    <g>
      <rect class="cls-1" x="73.13" y="7.25" width="97.92" height="10.42"/>
      <path class="cls-6" d="M109.86,16.13h-1.34V7.49h1.34v8.64Z"/>
      <path class="cls-6" d="M112.65,10.82c.13-.14.26-.26.39-.37.13-.11.28-.2.43-.28s.31-.14.49-.19c.17-.04.36-.07.56-.07.32,0,.6.06.84.17.24.11.45.27.61.47.17.2.29.45.37.74.08.29.13.6.13.94v3.89h-1.22v-3.89c0-.41-.09-.73-.27-.96-.18-.23-.46-.34-.83-.34-.27,0-.53.07-.76.2s-.45.31-.66.54v4.46h-1.23v-6.12h.74c.17,0,.27.08.32.25l.09.56Z"/>
      <path class="cls-6" d="M121.4,11.12c-.03.06-.07.1-.1.12s-.08.04-.14.04c-.06,0-.13-.02-.21-.06-.08-.04-.17-.09-.27-.14-.1-.05-.22-.1-.36-.14-.14-.04-.3-.06-.49-.06-.15,0-.29.02-.41.06s-.23.09-.31.16c-.08.07-.15.15-.2.25-.04.09-.07.19-.07.3,0,.14.04.26.13.36.08.1.19.18.33.25.14.07.29.13.47.19.18.06.35.12.54.18.18.06.36.14.54.22.17.08.33.19.47.31.14.12.25.27.33.44s.13.39.13.63c0,.29-.05.55-.15.8-.1.24-.24.46-.43.64-.19.18-.43.32-.71.42-.28.1-.61.15-.97.15-.2,0-.4-.02-.59-.06s-.37-.09-.54-.16c-.17-.07-.33-.14-.47-.24-.15-.09-.28-.19-.39-.3l.29-.49c.03-.06.08-.11.13-.14.05-.03.12-.05.19-.05.08,0,.16.03.24.08.08.05.17.11.27.18.1.06.23.12.38.18.15.05.33.08.55.08.18,0,.34-.02.47-.07.13-.05.24-.11.33-.19.09-.08.15-.17.19-.27s.06-.21.06-.33c0-.16-.04-.28-.13-.38s-.2-.19-.33-.26c-.14-.07-.3-.14-.47-.19-.18-.06-.36-.12-.54-.18s-.36-.14-.54-.22c-.18-.08-.33-.19-.47-.32-.14-.13-.25-.29-.33-.47s-.13-.41-.13-.68c0-.24.05-.48.14-.7.09-.22.23-.41.41-.58s.4-.3.67-.4.57-.15.92-.15c.39,0,.75.07,1.07.2.32.13.59.31.81.54l-.27.47Z"/>
      <path class="cls-6" d="M123.8,13.17c.01.35.07.65.15.9.09.25.2.47.35.63.15.17.32.29.53.38s.43.12.68.12.45-.03.62-.09c.18-.06.33-.12.46-.19.13-.07.24-.13.33-.19.09-.06.17-.09.25-.09.1,0,.18.04.23.12l.35.47c-.14.18-.31.33-.49.46s-.38.23-.58.3c-.21.08-.42.13-.63.17-.22.03-.43.05-.63.05-.4,0-.78-.07-1.12-.21s-.64-.35-.9-.63c-.25-.28-.45-.62-.59-1.03-.14-.41-.21-.88-.21-1.41,0-.42.06-.82.19-1.19s.31-.69.55-.96.53-.49.87-.65c.34-.16.73-.24,1.16-.24.36,0,.69.06.99.18.3.12.57.3.79.54.22.24.39.52.52.87.12.34.19.73.19,1.17,0,.2-.02.33-.06.4-.04.07-.12.1-.23.1h-3.74ZM126.73,12.38c0-.22-.03-.42-.09-.6-.06-.19-.15-.35-.26-.49-.11-.14-.26-.25-.43-.32-.17-.08-.37-.12-.59-.12-.45,0-.8.13-1.05.4-.25.27-.42.64-.49,1.13h2.9Z"/>
      <path class="cls-6" d="M130.14,11.14c.18-.39.4-.69.66-.92.26-.22.57-.33.93-.33.13,0,.24.01.35.04.11.03.21.08.3.13l-.09.97c-.02.07-.04.12-.07.14s-.08.04-.13.04c-.06,0-.14-.01-.25-.03-.11-.02-.22-.03-.34-.03-.17,0-.32.03-.45.08-.13.05-.25.13-.35.23-.1.1-.2.22-.28.37s-.15.31-.22.49v3.8h-1.23v-6.12h.71c.13,0,.22.03.27.08.05.05.08.14.1.26l.07.8Z"/>
      <path class="cls-6" d="M135.06,16.23c-.48,0-.86-.14-1.12-.43s-.39-.69-.39-1.21v-3.56h-.64c-.07,0-.13-.02-.18-.07-.05-.05-.07-.12-.07-.21v-.52l.94-.14.27-1.77c.02-.07.05-.12.1-.17.04-.04.11-.06.18-.06h.63v2.01h1.62v.93h-1.62v3.47c0,.22.05.39.15.5.1.12.24.17.41.17.09,0,.18-.01.25-.04.07-.03.13-.05.18-.08.05-.03.09-.06.13-.08.04-.03.07-.04.11-.04.07,0,.12.04.17.12l.37.63c-.19.18-.42.31-.67.41-.26.09-.53.14-.8.14Z"/>
    </g>
    <g>
      <rect class="cls-1" x="23.11" y="7.25" width="46.39" height="10.42"/>
      <path class="cls-3" d="M33.19,16.13h-1.09c-.12,0-.22-.03-.3-.09-.08-.06-.13-.14-.17-.23l-.72-1.91h-3.72l-.72,1.91c-.03.08-.09.15-.17.22-.08.07-.18.1-.3.1h-1.09l3.43-8.64h1.42l3.43,8.64ZM30.53,12.89l-1.19-3.16c-.1-.24-.19-.55-.29-.93-.04.19-.09.36-.14.52-.05.16-.1.3-.14.42l-1.19,3.15h2.96Z"/>
      <path class="cls-3" d="M39.02,7.25v8.88h-.78c-.17,0-.28-.08-.33-.25l-.11-.67c-.26.3-.55.54-.87.73-.33.18-.7.28-1.14.28-.34,0-.66-.07-.94-.21-.28-.14-.52-.34-.72-.6-.2-.26-.35-.59-.46-.98-.11-.39-.17-.84-.17-1.34,0-.46.06-.88.18-1.27.12-.39.3-.73.52-1.01.23-.29.5-.51.83-.67.33-.16.69-.24,1.1-.24.36,0,.67.06.92.17s.48.27.68.48v-3.29h1.29ZM37.73,11.52c-.18-.23-.38-.39-.59-.49-.22-.09-.45-.14-.7-.14-.5,0-.9.19-1.18.55-.28.37-.43.92-.43,1.64,0,.38.03.7.1.96.06.27.16.48.28.65.12.17.27.29.44.37.17.08.37.11.58.11.33,0,.61-.07.85-.21.24-.14.46-.34.66-.6v-2.85Z"/>
      <path class="cls-3" d="M40.44,10.86c.69-.64,1.52-.97,2.47-.97.35,0,.67.06.94.17.27.11.5.27.69.48s.33.46.43.74.15.6.15.95v3.89h-.58c-.12,0-.22-.02-.28-.06-.06-.04-.12-.11-.16-.23l-.12-.5c-.16.14-.31.27-.46.38-.15.11-.31.2-.47.28-.16.08-.34.13-.52.17-.19.04-.39.06-.62.06-.25,0-.48-.03-.69-.1s-.4-.17-.55-.31-.28-.31-.37-.51-.13-.44-.13-.72c0-.24.06-.47.19-.69.13-.22.33-.43.62-.6.29-.18.67-.33,1.15-.44.47-.12,1.06-.18,1.75-.2v-.41c0-.44-.09-.77-.28-.98-.19-.22-.46-.32-.83-.32-.25,0-.46.03-.62.09-.17.06-.31.13-.44.2-.12.07-.23.14-.33.2-.1.06-.2.09-.31.09-.09,0-.16-.02-.23-.07-.06-.05-.11-.1-.15-.17l-.23-.42ZM43.86,13.45c-.46.02-.85.05-1.16.11s-.57.13-.77.22c-.2.09-.34.2-.42.32-.09.12-.13.26-.13.41s.02.27.07.37c.05.1.11.19.19.25.08.07.18.11.29.14.11.03.23.04.36.04.34,0,.62-.06.87-.19.24-.13.48-.31.71-.55v-1.13Z"/>
      <path class="cls-3" d="M47.85,10.9c.26-.3.55-.54.87-.73s.71-.28,1.14-.28c.34,0,.66.07.94.21.28.14.52.34.72.6.2.26.36.59.46.98.11.39.17.84.17,1.34,0,.45-.06.87-.18,1.26-.12.39-.3.73-.53,1.01-.23.29-.5.51-.83.67-.32.16-.69.24-1.1.24-.36,0-.67-.06-.92-.17-.25-.12-.48-.28-.68-.48v2.6h-1.29v-8.15h.78c.18,0,.29.08.34.25l.11.64ZM47.91,14.59c.18.23.38.4.59.49.21.09.45.14.71.14.5,0,.9-.18,1.18-.55.28-.37.42-.92.42-1.64,0-.38-.03-.7-.1-.96s-.16-.48-.28-.65c-.12-.17-.27-.29-.44-.37-.17-.08-.37-.11-.58-.11-.33,0-.61.07-.85.21-.24.14-.46.34-.66.61v2.84Z"/>
      <path class="cls-3" d="M55.28,16.23c-.51,0-.9-.14-1.17-.43-.28-.29-.41-.69-.41-1.21v-3.56h-.67c-.07,0-.13-.02-.19-.07-.05-.05-.08-.12-.08-.21v-.52l.99-.14.28-1.77c.02-.07.05-.12.1-.17s.11-.06.19-.06h.66v2.01h1.7v.93h-1.7v3.47c0,.22.05.39.16.5.11.12.25.17.43.17.1,0,.19-.01.26-.04.07-.03.13-.05.19-.08.05-.03.1-.06.13-.08.04-.03.08-.04.11-.04.07,0,.13.04.17.12l.38.63c-.2.18-.44.31-.71.41-.27.09-.55.14-.84.14Z"/>
      <path class="cls-3" d="M58.59,13.17c.02.35.07.65.16.9.09.25.21.47.37.63.15.17.34.29.55.38s.45.12.72.12.47-.03.65-.09c.18-.06.34-.12.48-.19.14-.07.25-.13.35-.19.1-.06.18-.09.26-.09.1,0,.18.04.24.12l.37.47c-.15.18-.32.33-.52.46s-.4.23-.61.3c-.22.08-.44.13-.67.17-.23.03-.45.05-.67.05-.42,0-.82-.07-1.18-.21s-.68-.35-.94-.63c-.27-.28-.47-.62-.62-1.03-.15-.41-.23-.88-.23-1.41,0-.42.07-.82.2-1.19s.33-.69.58-.96c.25-.27.55-.49.91-.65.36-.16.76-.24,1.22-.24.38,0,.72.06,1.04.18.32.12.6.3.83.54.23.24.41.52.54.87.13.34.2.73.2,1.17,0,.2-.02.33-.07.4-.04.07-.12.1-.24.1h-3.93ZM61.67,12.38c0-.22-.03-.42-.09-.6-.06-.19-.15-.35-.27-.49-.12-.14-.27-.25-.45-.32-.18-.08-.38-.12-.61-.12-.47,0-.84.13-1.1.4s-.44.64-.51,1.13h3.04Z"/>
      <path class="cls-3" d="M65.25,11.14c.19-.39.42-.69.7-.92.27-.22.6-.33.98-.33.13,0,.26.01.37.04.12.03.22.08.31.13l-.09.97c-.02.07-.04.12-.08.14s-.08.04-.13.04c-.06,0-.15-.01-.26-.03s-.23-.03-.35-.03c-.18,0-.34.03-.48.08-.14.05-.26.13-.37.23-.11.1-.21.22-.29.37s-.16.31-.23.49v3.8h-1.29v-6.12h.75c.14,0,.23.03.28.08s.09.14.11.26l.08.8Z"/>
    </g>
    <g>
      <rect class="cls-1" x="10.42" y="7.25" width="11.58" height="10.42"/>
      <path class="cls-6" d="M12.73,10.68c.21-.04.41-.08.6-.1s.37-.03.55-.03c.45,0,.85.07,1.2.2.35.13.64.32.87.56.23.24.41.51.53.83.12.32.18.66.18,1.03,0,.46-.08.88-.24,1.25-.16.38-.38.7-.67.96s-.62.47-1,.61-.8.22-1.25.22c-.26,0-.52-.03-.75-.08-.24-.05-.46-.12-.67-.21-.21-.09-.4-.19-.58-.31-.18-.12-.33-.24-.47-.37l.4-.55c.08-.12.2-.18.34-.18.09,0,.18.03.29.1.1.06.22.13.36.21.14.07.3.14.49.21.19.06.41.1.67.1.28,0,.54-.05.76-.14.22-.09.41-.22.57-.39.15-.17.27-.37.35-.6s.12-.49.12-.76c0-.25-.04-.48-.11-.68s-.18-.37-.33-.51c-.15-.14-.33-.25-.55-.32-.22-.07-.47-.11-.76-.11-.21,0-.43.02-.65.05-.22.04-.45.09-.67.17l-.8-.23.71-4.13h4.18v.56c0,.18-.06.33-.17.45-.12.12-.31.17-.58.17h-2.53l-.35,2.01Z"/>
      <path class="cls-6" d="M19.04,6.91c.18.3.3.62.37.95s.07.66.02.98c-.05.32-.16.63-.33.93s-.39.56-.66.79l-.4-.25c-.07-.04-.1-.1-.09-.17,0-.07.03-.12.07-.17.09-.11.18-.25.25-.43.08-.17.13-.36.15-.57.03-.21.02-.42-.02-.65s-.12-.45-.26-.68c-.06-.1-.08-.19-.05-.27.03-.08.09-.13.17-.16l.79-.31Z"/>
    </g>
    <g>
      <rect class="cls-1" x="175.78" y="7.25" width="43.75" height="10.42"/>
      <path class="cls-3" d="M184.54,16.13h-1.09c-.12,0-.22-.03-.3-.09-.08-.06-.13-.14-.17-.23l-.72-1.91h-3.72l-.72,1.91c-.03.08-.09.15-.17.22-.08.07-.18.1-.3.1h-1.09l3.43-8.64h1.42l3.43,8.64ZM181.89,12.89l-1.19-3.16c-.1-.24-.19-.55-.29-.93-.04.19-.09.36-.14.52-.05.16-.1.3-.14.42l-1.19,3.15h2.96Z"/>
      <path class="cls-3" d="M190.38,7.25v8.88h-.78c-.17,0-.28-.08-.33-.25l-.11-.67c-.26.3-.55.54-.87.73-.33.18-.7.28-1.14.28-.34,0-.66-.07-.94-.21-.28-.14-.52-.34-.72-.6-.2-.26-.35-.59-.46-.98-.11-.39-.17-.84-.17-1.34,0-.46.06-.88.18-1.27.12-.39.3-.73.52-1.01.23-.29.5-.51.83-.67.33-.16.69-.24,1.1-.24.36,0,.67.06.92.17s.48.27.68.48v-3.29h1.29ZM189.09,11.52c-.18-.23-.38-.39-.59-.49-.22-.09-.45-.14-.7-.14-.5,0-.9.19-1.18.55-.28.37-.43.92-.43,1.64,0,.38.03.7.1.96.06.27.16.48.28.65.12.17.27.29.44.37.17.08.37.11.58.11.33,0,.61-.07.85-.21.24-.14.46-.34.66-.6v-2.85Z"/>
      <path class="cls-3" d="M191.8,10.86c.69-.64,1.52-.97,2.47-.97.35,0,.67.06.94.17.27.11.5.27.69.48.19.21.33.46.43.74.1.29.15.6.15.95v3.89h-.58c-.12,0-.22-.02-.28-.06-.06-.04-.12-.11-.16-.23l-.13-.5c-.16.14-.31.27-.46.38-.15.11-.31.2-.47.28-.16.08-.34.13-.52.17-.19.04-.39.06-.62.06-.25,0-.48-.03-.69-.1s-.4-.17-.55-.31-.28-.31-.37-.51-.13-.44-.13-.72c0-.24.06-.47.19-.69.13-.22.33-.43.62-.6.29-.18.67-.33,1.15-.44.47-.12,1.06-.18,1.75-.2v-.41c0-.44-.09-.77-.28-.98-.19-.22-.46-.32-.83-.32-.25,0-.46.03-.62.09-.17.06-.31.13-.44.2-.12.07-.23.14-.33.2s-.2.09-.31.09c-.09,0-.16-.02-.23-.07-.06-.05-.11-.1-.15-.17l-.23-.42ZM195.22,13.45c-.46.02-.85.05-1.16.11-.32.06-.57.13-.77.22-.2.09-.34.2-.42.32-.09.12-.13.26-.13.41s.02.27.07.37.11.19.19.25c.08.07.18.11.29.14.11.03.23.04.36.04.34,0,.62-.06.87-.19s.48-.31.71-.55v-1.13Z"/>
      <path class="cls-3" d="M199.2,10.9c.26-.3.55-.54.87-.73.33-.18.71-.28,1.14-.28.34,0,.66.07.94.21.28.14.52.34.72.6.2.26.36.59.47.98.11.39.17.84.17,1.34,0,.45-.06.87-.18,1.26-.12.39-.3.73-.52,1.01-.23.29-.5.51-.83.67-.32.16-.69.24-1.1.24-.36,0-.67-.06-.92-.17-.25-.12-.48-.28-.68-.48v2.6h-1.29v-8.15h.78c.18,0,.29.08.34.25l.11.64ZM199.27,14.59c.18.23.38.4.59.49.21.09.45.14.71.14.5,0,.9-.18,1.18-.55.28-.37.42-.92.42-1.64,0-.38-.03-.7-.1-.96-.06-.27-.16-.48-.28-.65s-.27-.29-.44-.37c-.17-.08-.37-.11-.58-.11-.33,0-.61.07-.85.21s-.46.34-.66.61v2.84Z"/>
      <path class="cls-3" d="M206.63,16.23c-.51,0-.9-.14-1.17-.43-.27-.29-.41-.69-.41-1.21v-3.56h-.67c-.07,0-.13-.02-.19-.07s-.08-.12-.08-.21v-.52l.99-.14.28-1.77c.02-.07.05-.12.1-.17s.11-.06.19-.06h.66v2.01h1.7v.93h-1.7v3.47c0,.22.05.39.16.5.11.12.25.17.43.17.1,0,.19-.01.26-.04.07-.03.13-.05.19-.08.05-.03.1-.06.13-.08.04-.03.08-.04.11-.04.07,0,.13.04.17.12l.38.63c-.2.18-.44.31-.71.41-.27.09-.55.14-.84.14Z"/>
      <path class="cls-3" d="M209.95,13.17c.02.35.07.65.16.9.09.25.21.47.37.63.15.17.34.29.55.38s.45.12.72.12.47-.03.65-.09c.18-.06.34-.12.48-.19.14-.07.25-.13.35-.19s.18-.09.26-.09c.1,0,.18.04.24.12l.37.47c-.15.18-.32.33-.52.46-.19.12-.4.23-.61.3-.22.08-.44.13-.67.17-.23.03-.45.05-.67.05-.42,0-.82-.07-1.18-.21-.36-.14-.68-.35-.94-.63-.27-.28-.47-.62-.62-1.03-.15-.41-.23-.88-.23-1.41,0-.42.07-.82.2-1.19s.33-.69.58-.96.55-.49.91-.65c.36-.16.76-.24,1.21-.24.38,0,.72.06,1.04.18.32.12.6.3.83.54.23.24.41.52.54.87.13.34.2.73.2,1.17,0,.2-.02.33-.07.4-.04.07-.12.1-.24.1h-3.93ZM213.03,12.38c0-.22-.03-.42-.09-.6-.06-.19-.15-.35-.27-.49-.12-.14-.27-.25-.45-.32-.18-.08-.38-.12-.61-.12-.47,0-.84.13-1.1.4-.27.27-.44.64-.51,1.13h3.04Z"/>
      <path class="cls-3" d="M216.6,11.14c.19-.39.42-.69.7-.92.27-.22.6-.33.98-.33.13,0,.26.01.37.04.12.03.22.08.31.13l-.09.97c-.02.07-.04.12-.08.14-.03.03-.08.04-.13.04-.06,0-.15-.01-.26-.03s-.23-.03-.35-.03c-.18,0-.34.03-.48.08-.14.05-.26.13-.37.23-.11.1-.21.22-.29.37s-.16.31-.23.49v3.8h-1.29v-6.12h.75c.14,0,.23.03.28.08.05.05.09.14.11.26l.08.8Z"/>
    </g>
    <g>
      <rect class="cls-1" x="223.25" y="7.25" width="12.1" height="10.42"/>
      <path class="cls-6" d="M225.23,9.87c.06-.41.17-.77.34-1.07s.38-.56.63-.77.54-.36.87-.47.68-.16,1.06-.16.73.05,1.05.17c.31.11.58.26.81.46.23.2.4.43.52.7.12.27.18.57.18.89,0,.28-.03.52-.1.73-.07.21-.16.4-.28.56-.12.16-.27.29-.45.4-.18.11-.37.2-.59.27.54.16.94.41,1.21.75.27.34.4.77.4,1.29,0,.42-.08.79-.23,1.11-.16.32-.37.6-.63.82-.27.22-.58.4-.93.51-.35.12-.73.18-1.12.18-.44,0-.83-.05-1.15-.16-.32-.11-.6-.26-.84-.46-.23-.2-.43-.44-.58-.72-.16-.28-.29-.59-.4-.94l.56-.23c.15-.06.29-.08.42-.05.13.03.23.1.29.22.06.13.14.27.22.41s.18.28.31.4c.13.12.28.22.47.31.19.08.42.12.69.12s.52-.04.72-.14c.21-.09.38-.21.52-.35.14-.14.24-.3.31-.48.07-.18.1-.35.1-.52,0-.22-.03-.42-.08-.6s-.15-.34-.3-.46-.36-.23-.64-.3c-.27-.07-.63-.11-1.08-.11v-.93c.36,0,.67-.04.92-.11s.45-.17.6-.29c.15-.12.26-.27.32-.44.07-.17.1-.36.1-.56,0-.22-.03-.41-.1-.58s-.16-.31-.29-.42c-.12-.11-.27-.2-.43-.26-.17-.06-.35-.08-.56-.08s-.38.03-.54.08c-.17.06-.31.13-.44.23s-.24.22-.33.36c-.09.14-.15.29-.19.45-.06.16-.13.27-.22.33-.09.06-.23.07-.41.04l-.68-.12Z"/>
      <path class="cls-6" d="M233.15,6.91c.18.3.3.62.37.95.06.33.07.66.02.98-.05.32-.16.63-.33.93s-.39.56-.66.79l-.4-.25c-.07-.04-.1-.1-.09-.17,0-.07.03-.12.07-.17.09-.11.18-.25.25-.43.08-.17.13-.36.15-.57.03-.21.02-.42-.02-.65s-.12-.45-.26-.68c-.06-.1-.08-.19-.05-.27.03-.08.09-.13.17-.16l.79-.31Z"/>
    </g>
    <g>
      <rect class="cls-1" x="16.96" y="99.37" width="95.55" height="10.83"/>
      <path class="cls-4" d="M42.32,101.02c-.04.07-.08.12-.12.15-.04.03-.1.05-.17.05-.07,0-.15-.03-.25-.1-.09-.07-.21-.14-.35-.22-.14-.08-.3-.16-.49-.22-.19-.07-.42-.1-.69-.1-.25,0-.47.03-.66.1s-.35.16-.48.27c-.13.11-.23.25-.29.4-.07.15-.1.32-.1.5,0,.23.06.42.18.58.12.15.27.28.46.39.19.11.41.2.65.28.24.08.49.16.75.25.26.09.51.19.75.3.24.11.46.25.65.42s.35.38.46.62.18.55.18.9c0,.38-.06.74-.2,1.07-.13.33-.32.62-.57.87s-.55.44-.92.58c-.36.14-.77.21-1.23.21-.28,0-.54-.03-.8-.08-.26-.05-.51-.13-.74-.23-.23-.1-.45-.22-.65-.35-.2-.14-.38-.29-.54-.47l.37-.61s.08-.09.13-.12c.05-.03.11-.05.17-.05.08,0,.18.04.29.13.11.09.25.19.41.29s.36.2.58.29c.23.09.5.13.83.13.26,0,.5-.04.71-.1.21-.07.38-.17.53-.3.14-.13.25-.29.33-.47.08-.18.11-.39.11-.61,0-.25-.06-.46-.17-.62-.12-.16-.27-.29-.46-.4-.19-.11-.41-.2-.65-.28s-.49-.15-.75-.24-.51-.18-.75-.29-.46-.25-.65-.42c-.19-.17-.35-.39-.46-.65-.12-.26-.17-.58-.17-.97,0-.31.06-.61.18-.89s.29-.54.53-.77c.23-.22.51-.4.85-.53.34-.13.72-.2,1.15-.2.48,0,.93.08,1.34.23.41.15.76.38,1.06.66l-.31.61Z"/>
      <path class="cls-4" d="M45.54,100.25c0,.11-.02.21-.07.31-.04.1-.1.18-.18.26-.07.07-.16.13-.26.17s-.2.06-.31.06-.21-.02-.31-.06-.18-.1-.25-.17c-.07-.07-.13-.16-.17-.26-.04-.1-.06-.2-.06-.31s.02-.22.06-.31c.04-.1.1-.18.17-.26.07-.07.16-.13.25-.17s.2-.06.31-.06.21.02.31.06.19.1.26.17c.07.07.13.16.18.26.04.1.07.2.07.31ZM45.32,102.13v6.1h-1.17v-6.1h1.17Z"/>
      <path class="cls-4" d="M48.12,102.98c.13-.14.27-.27.41-.38.14-.12.3-.22.46-.3.16-.08.34-.15.52-.19s.38-.07.6-.07c.34,0,.63.06.88.17s.47.27.64.47c.17.2.3.45.39.73.09.28.13.6.13.94v3.88h-1.18v-3.88c0-.44-.1-.77-.3-1.02s-.51-.36-.92-.36c-.3,0-.58.07-.84.21s-.51.33-.73.58v4.47h-1.17v-6.1h.7c.16,0,.27.08.31.23l.09.61Z"/>
      <path class="cls-4" d="M58.93,102.36v.44c0,.14-.09.23-.27.27l-.65.1c.06.12.1.25.13.39.03.14.05.28.05.44,0,.3-.06.57-.17.81-.12.24-.28.45-.48.62-.21.17-.45.3-.73.4-.28.09-.59.14-.93.14-.28,0-.53-.03-.77-.09-.12.07-.21.15-.27.24-.06.09-.09.17-.09.25,0,.14.06.24.18.31.12.07.27.12.46.15.19.03.41.05.65.06.25,0,.5.02.75.04s.5.05.75.1.46.12.65.22.34.24.46.42c.12.18.18.41.18.69,0,.26-.06.52-.2.77-.13.25-.32.47-.57.66-.25.19-.55.35-.91.46-.36.12-.76.17-1.21.17s-.84-.04-1.18-.13c-.33-.09-.61-.21-.83-.35-.22-.15-.39-.32-.5-.52-.11-.2-.17-.4-.17-.61,0-.3.09-.55.28-.75.18-.21.44-.37.76-.48-.18-.08-.32-.19-.42-.33-.1-.14-.16-.32-.16-.55,0-.09.02-.18.05-.27.03-.09.08-.19.15-.28.07-.09.15-.18.25-.27.1-.08.21-.16.34-.23-.3-.17-.54-.39-.71-.67-.17-.28-.26-.6-.26-.97,0-.3.06-.57.17-.81.12-.24.28-.45.48-.62.21-.17.45-.3.74-.4.29-.09.6-.14.94-.14.53,0,.98.11,1.36.33h1.69ZM57.74,108.55c0-.14-.04-.26-.12-.34s-.19-.15-.33-.2c-.14-.05-.3-.09-.48-.11s-.38-.04-.58-.05c-.2-.01-.41-.02-.62-.03-.21-.01-.42-.03-.61-.06-.21.1-.38.23-.51.38-.13.15-.2.32-.2.52,0,.13.03.25.1.36.07.11.17.21.31.29.14.08.31.15.52.19.21.05.46.07.75.07s.54-.02.76-.08c.22-.05.41-.12.55-.21.15-.09.26-.2.34-.32s.12-.26.12-.41ZM55.88,105.19c.21,0,.39-.03.55-.08s.29-.14.4-.24c.11-.1.19-.23.24-.37s.08-.3.08-.47c0-.35-.11-.63-.32-.84-.21-.21-.53-.31-.95-.31s-.73.1-.94.31-.32.49-.32.84c0,.17.03.33.08.47.05.14.13.26.24.37s.24.18.4.24.34.09.54.09Z"/>
      <path class="cls-4" d="M61.2,99.37v8.86h-1.18v-8.86h1.18Z"/>
      <path class="cls-4" d="M67.87,107.36c-.14.17-.31.31-.5.44-.19.12-.39.22-.6.3-.21.08-.43.13-.66.17-.23.04-.45.05-.67.05-.42,0-.81-.07-1.17-.21-.36-.14-.67-.35-.93-.62s-.47-.61-.61-1.02-.22-.87-.22-1.4c0-.42.07-.82.2-1.19.13-.37.32-.69.57-.96s.55-.49.9-.64c.36-.16.76-.23,1.2-.23.37,0,.71.06,1.03.18.31.12.58.3.81.53s.41.52.54.86c.13.34.2.73.2,1.16,0,.18-.02.3-.06.36s-.11.09-.22.09h-4c.01.36.06.68.16.95s.22.49.38.67c.16.18.36.31.58.4.22.09.47.13.75.13.26,0,.48-.03.67-.09s.35-.12.49-.19c.14-.07.25-.13.35-.19.09-.06.18-.09.25-.09.1,0,.17.04.22.11l.34.43ZM66.9,104.5c0-.23-.03-.45-.1-.64-.07-.2-.16-.37-.29-.51s-.28-.26-.47-.34c-.18-.08-.4-.12-.64-.12-.49,0-.88.14-1.16.43-.28.28-.46.68-.54,1.18h3.19Z"/>
      <path class="cls-4" d="M69.13,104.12h3v1h-3v-1Z"/>
      <path class="cls-4" d="M78.69,107.36c-.14.17-.31.31-.5.44s-.39.22-.6.3c-.21.08-.43.13-.66.17-.23.04-.45.05-.67.05-.42,0-.81-.07-1.17-.21-.36-.14-.67-.35-.93-.62-.26-.27-.47-.61-.61-1.02-.15-.41-.22-.87-.22-1.4,0-.42.07-.82.2-1.19.13-.37.32-.69.57-.96s.55-.49.9-.64c.36-.16.76-.23,1.2-.23.37,0,.72.06,1.03.18s.58.3.81.53c.23.23.41.52.54.86.13.34.19.73.19,1.16,0,.18-.02.3-.06.36-.04.06-.11.09-.22.09h-4c.01.36.06.68.16.95s.22.49.38.67.36.31.58.4c.22.09.47.13.75.13.26,0,.49-.03.67-.09.19-.06.35-.12.49-.19.14-.07.25-.13.35-.19s.18-.09.25-.09c.1,0,.17.04.22.11l.34.43ZM77.72,104.5c0-.23-.03-.45-.1-.64-.07-.2-.16-.37-.29-.51-.13-.14-.28-.26-.47-.34s-.4-.12-.64-.12c-.49,0-.88.14-1.16.43-.28.28-.46.68-.54,1.18h3.19Z"/>
      <path class="cls-4" d="M81.14,102.98c.13-.14.27-.27.41-.38.14-.12.3-.22.46-.3.16-.08.34-.15.52-.19s.38-.07.6-.07c.34,0,.63.06.88.17s.47.27.64.47c.17.2.3.45.39.73.09.28.13.6.13.94v3.88h-1.18v-3.88c0-.44-.1-.77-.3-1.02s-.51-.36-.92-.36c-.3,0-.58.07-.84.21s-.51.33-.73.58v4.47h-1.17v-6.1h.7c.16,0,.27.08.31.23l.09.61Z"/>
      <path class="cls-4" d="M91.86,99.37v8.86h-.71c-.16,0-.27-.08-.31-.23l-.1-.7c-.26.31-.55.56-.88.74s-.71.28-1.14.28c-.35,0-.66-.07-.95-.2-.28-.14-.52-.33-.72-.6-.2-.26-.35-.59-.46-.98-.11-.39-.16-.83-.16-1.34,0-.45.06-.87.18-1.26.12-.39.29-.72.52-1.01.23-.28.5-.51.83-.67s.69-.24,1.1-.24c.37,0,.68.06.94.18.26.12.49.29.69.51v-3.34h1.18ZM90.68,103.61c-.19-.25-.4-.43-.62-.53-.22-.1-.47-.15-.75-.15-.54,0-.95.19-1.25.58-.29.39-.44.95-.44,1.69,0,.39.03.72.1.99.07.27.16.5.29.67.12.17.28.3.46.38s.39.12.62.12c.34,0,.63-.08.88-.23s.48-.37.7-.64v-2.89Z"/>
    </g>
    <g>
      <rect class="cls-1" x="130.47" y="99.37" width="95.55" height="10.83"/>
      <path class="cls-4" d="M153.15,99.61c.55,0,1.03.06,1.44.19.41.13.75.31,1.01.54.27.23.47.52.6.85.13.33.2.7.2,1.1s-.07.78-.21,1.11c-.14.34-.35.63-.62.87-.27.24-.61.43-1.02.57-.41.13-.87.2-1.4.2h-1.33v3.17h-1.28v-8.62h2.61ZM153.15,104.05c.32,0,.61-.04.85-.13s.45-.2.62-.36c.17-.15.29-.34.38-.55.08-.21.13-.45.13-.71,0-.52-.16-.94-.49-1.24-.33-.3-.82-.45-1.49-.45h-1.33v3.43h1.33Z"/>
      <path class="cls-4" d="M157.21,102.98c.34-.32.71-.57,1.11-.73.4-.16.83-.24,1.31-.24.35,0,.66.06.92.17.27.11.49.27.68.48.18.2.32.45.42.73.09.28.14.6.14.94v3.89h-.52c-.12,0-.2-.02-.26-.06-.06-.04-.11-.11-.14-.21l-.13-.53c-.16.14-.31.27-.46.38-.15.11-.31.2-.48.28s-.34.14-.53.18c-.19.04-.4.06-.62.06-.24,0-.47-.03-.68-.1s-.39-.17-.55-.3c-.16-.14-.28-.31-.37-.51s-.13-.44-.13-.71c0-.24.07-.47.2-.69.13-.22.34-.42.64-.6.29-.18.68-.32,1.15-.43.47-.11,1.06-.18,1.75-.19v-.44c0-.46-.1-.8-.29-1.03-.2-.23-.48-.34-.86-.34-.26,0-.47.03-.65.1-.17.06-.32.14-.45.21-.13.08-.24.15-.33.21-.09.06-.19.1-.29.1-.08,0-.15-.02-.21-.07-.06-.04-.11-.1-.14-.16l-.21-.38ZM160.65,105.52c-.48.02-.88.05-1.21.11-.33.06-.6.14-.81.23-.21.1-.36.21-.45.34s-.14.27-.14.44c0,.15.02.28.08.39.05.11.12.2.2.27.09.07.19.12.3.15s.24.05.38.05c.18,0,.34-.02.5-.05.15-.04.29-.09.42-.15s.26-.15.38-.24c.12-.1.24-.21.35-.33v-1.2Z"/>
      <path class="cls-4" d="M164.81,100.25c0,.11-.02.21-.07.31s-.1.18-.18.26c-.07.07-.16.13-.26.17-.1.04-.2.06-.31.06s-.21-.02-.31-.06c-.1-.04-.18-.1-.25-.17-.07-.07-.13-.16-.17-.26s-.06-.2-.06-.31.02-.22.06-.31.1-.18.17-.26c.07-.07.16-.13.25-.17.1-.04.2-.06.31-.06s.21.02.31.06c.1.04.19.1.26.17.07.07.13.16.18.26s.07.2.07.31ZM164.59,102.13v6.1h-1.17v-6.1h1.17Z"/>
      <path class="cls-4" d="M167.39,103.3c.2-.4.43-.71.71-.94.28-.23.61-.34,1-.34.13,0,.26.02.38.04.12.03.22.08.31.14l-.08.88c-.03.11-.09.16-.2.16-.06,0-.14-.01-.25-.03s-.23-.03-.36-.03c-.19,0-.35.03-.5.08-.14.05-.27.13-.39.24s-.21.24-.3.39c-.09.15-.17.33-.25.52v3.82h-1.17v-6.1h.67c.13,0,.21.02.26.07s.08.13.1.24l.07.86Z"/>
      <path class="cls-4" d="M175.46,107.36c-.14.17-.31.31-.5.44-.19.12-.39.22-.6.3-.21.08-.43.13-.66.17-.23.04-.45.05-.67.05-.42,0-.81-.07-1.17-.21-.36-.14-.67-.35-.93-.62-.26-.27-.47-.61-.61-1.02-.15-.41-.22-.87-.22-1.4,0-.42.07-.82.2-1.19.13-.37.32-.69.57-.96s.55-.49.9-.64c.36-.16.76-.23,1.2-.23.37,0,.72.06,1.03.18.31.12.58.3.81.53.23.23.41.52.54.86.13.34.19.73.19,1.16,0,.18-.02.3-.06.36s-.11.09-.22.09h-4c.01.36.06.68.16.95s.22.49.38.67c.16.18.36.31.58.4.22.09.47.13.75.13.26,0,.49-.03.68-.09.19-.06.35-.12.49-.19.14-.07.25-.13.35-.19.09-.06.18-.09.25-.09.1,0,.17.04.22.11l.34.43ZM174.5,104.5c0-.23-.03-.45-.1-.64-.07-.2-.16-.37-.29-.51-.13-.14-.28-.26-.47-.34-.18-.08-.4-.12-.64-.12-.49,0-.88.14-1.16.43-.28.28-.46.68-.54,1.18h3.19Z"/>
      <path class="cls-4" d="M181.92,99.37v8.86h-.71c-.16,0-.27-.08-.31-.23l-.1-.7c-.26.31-.55.56-.88.74s-.71.28-1.14.28c-.35,0-.66-.07-.95-.2-.28-.14-.52-.33-.72-.6-.2-.26-.35-.59-.46-.98-.11-.39-.16-.83-.16-1.34,0-.45.06-.87.18-1.26.12-.39.29-.72.52-1.01.23-.28.5-.51.83-.67s.69-.24,1.1-.24c.37,0,.68.06.94.18.26.12.49.29.69.51v-3.34h1.18ZM180.74,103.61c-.19-.25-.4-.43-.62-.53s-.47-.15-.75-.15c-.54,0-.95.19-1.25.58-.29.39-.44.95-.44,1.69,0,.39.03.72.1.99.07.27.16.5.29.67.13.17.28.3.46.38s.39.12.62.12c.34,0,.63-.08.88-.23s.48-.37.7-.64v-2.89Z"/>
      <path class="cls-4" d="M183.46,104.12h3v1h-3v-1Z"/>
      <path class="cls-4" d="M193.02,107.36c-.14.17-.31.31-.5.44-.19.12-.39.22-.6.3-.21.08-.43.13-.66.17-.23.04-.45.05-.67.05-.42,0-.81-.07-1.17-.21-.36-.14-.67-.35-.93-.62s-.47-.61-.61-1.02c-.15-.41-.22-.87-.22-1.4,0-.42.07-.82.2-1.19.13-.37.32-.69.57-.96.25-.27.55-.49.9-.64.36-.16.76-.23,1.2-.23.37,0,.71.06,1.03.18.31.12.58.3.81.53.23.23.41.52.54.86.13.34.2.73.2,1.16,0,.18-.02.3-.06.36s-.11.09-.22.09h-4c.01.36.06.68.16.95s.22.49.38.67.35.31.58.4c.22.09.47.13.75.13.26,0,.48-.03.67-.09s.35-.12.49-.19.25-.13.35-.19.18-.09.25-.09c.1,0,.17.04.22.11l.34.43ZM192.06,104.5c0-.23-.03-.45-.1-.64-.07-.2-.16-.37-.29-.51s-.28-.26-.47-.34c-.18-.08-.4-.12-.64-.12-.49,0-.88.14-1.16.43-.28.28-.46.68-.54,1.18h3.19Z"/>
      <path class="cls-4" d="M195.47,102.98c.13-.14.27-.27.41-.38.14-.12.3-.22.46-.3.16-.08.34-.15.52-.19.19-.05.38-.07.6-.07.34,0,.63.06.88.17s.47.27.64.47c.17.2.3.45.39.73.09.28.13.6.13.94v3.88h-1.18v-3.88c0-.44-.1-.77-.3-1.02s-.51-.36-.92-.36c-.3,0-.58.07-.84.21-.26.14-.51.33-.73.58v4.47h-1.17v-6.1h.7c.16,0,.27.08.31.23l.09.61Z"/>
      <path class="cls-4" d="M206.19,99.37v8.86h-.71c-.16,0-.27-.08-.31-.23l-.1-.7c-.26.31-.56.56-.89.74-.33.19-.71.28-1.14.28-.35,0-.66-.07-.95-.2-.28-.14-.52-.33-.72-.6-.2-.26-.35-.59-.46-.98-.11-.39-.16-.83-.16-1.34,0-.45.06-.87.18-1.26.12-.39.29-.72.52-1.01.23-.28.5-.51.83-.67.32-.16.69-.24,1.1-.24.37,0,.68.06.94.18.26.12.49.29.69.51v-3.34h1.18ZM205.02,103.61c-.19-.25-.4-.43-.62-.53-.22-.1-.47-.15-.75-.15-.54,0-.95.19-1.24.58-.29.39-.44.95-.44,1.69,0,.39.03.72.1.99.07.27.16.5.29.67.13.17.28.3.46.38.18.08.39.12.62.12.34,0,.63-.08.88-.23s.48-.37.7-.64v-2.89Z"/>
    </g>
    <g>
      <rect class="cls-2" x="10.98" y="317.16" width="16.32" height="7.67"/>
      <rect class="cls-5" x="10.98" y="317.16" width="16.32" height="7.67"/>
    </g>
    <g>
      <rect class="cls-2" x="10.98" y="293.47" width="17.67" height="7.67"/>
      <rect class="cls-5" x="10.98" y="293.47" width="17.67" height="7.67"/>
    </g>
    <g>
      <rect class="cls-2" x="10.98" y="282.24" width="22.42" height="7.67"/>
      <rect class="cls-5" x="10.98" y="282.24" width="22.42" height="7.67"/>
    </g>
    <g>
      <rect class="cls-2" x="10.98" y="305.7" width="22.42" height="7.67"/>
      <rect class="cls-5" x="10.98" y="305.7" width="22.42" height="7.67"/>
    </g>
    <g>
      <rect class="cls-2" x="131.35" y="317.16" width="16.32" height="7.67"/>
      <rect class="cls-5" x="131.35" y="317.16" width="16.32" height="7.67"/>
    </g>
    <g>
      <rect class="cls-2" x="131.35" y="293.47" width="17.67" height="7.67"/>
      <rect class="cls-5" x="131.35" y="293.47" width="17.67" height="7.67"/>
    </g>
    <g>
      <rect class="cls-2" x="131.35" y="282.24" width="22.42" height="7.67"/>
      <rect class="cls-5" x="131.35" y="282.24" width="22.42" height="7.67"/>
    </g>
    <g>
      <rect class="cls-2" x="131.35" y="305.7" width="22.42" height="7.67"/>
      <rect class="cls-5" x="131.35" y="305.7" width="22.42" height="7.67"/>
    </g>
    <g>
      <rect class="cls-2" x="176.32" y="317.16" width="16.32" height="7.67"/>
      <rect class="cls-5" x="176.32" y="317.16" width="16.32" height="7.67"/>
    </g>
    <g>
      <rect class="cls-2" x="174.97" y="293.47" width="17.67" height="7.67"/>
      <rect class="cls-5" x="174.97" y="293.47" width="17.67" height="7.67"/>
    </g>
    <g>
      <rect class="cls-2" x="170.22" y="282.24" width="22.42" height="7.67"/>
      <rect class="cls-5" x="170.22" y="282.24" width="22.42" height="7.67"/>
    </g>
    <g>
      <rect class="cls-2" x="170.22" y="305.7" width="22.42" height="7.67"/>
      <rect class="cls-5" x="170.22" y="305.7" width="22.42" height="7.67"/>
    </g>
    <g>
      <rect class="cls-1" x="74.31" y="332.61" width="95.55" height="10.83"/>
      <path class="cls-6" d="M89.79,334.17h-2.62v7.35h-1.61v-7.35h-2.62v-1.33h6.85v1.33Z"/>
      <path class="cls-6" d="M90.89,336.43c.19-.37.42-.66.68-.87.26-.21.58-.32.94-.32.28,0,.51.06.68.19l-.1,1.11c-.02.07-.05.12-.09.15s-.09.04-.15.04-.15,0-.27-.03c-.12-.02-.23-.03-.34-.03-.16,0-.31.02-.44.07-.13.05-.24.12-.34.21-.1.09-.19.2-.27.33s-.15.27-.22.44v3.79h-1.48v-6.16h.87c.15,0,.26.03.32.08.06.05.1.15.12.29l.09.7Z"/>
      <path class="cls-6" d="M95.71,333.57c0,.13-.03.25-.08.36-.05.11-.12.21-.21.29s-.19.15-.3.2c-.12.05-.24.08-.37.08s-.25-.02-.36-.08c-.11-.05-.21-.12-.3-.2s-.15-.18-.2-.29c-.05-.11-.07-.23-.07-.36s.02-.26.07-.37c.05-.12.12-.22.2-.3s.18-.15.3-.2c.11-.05.24-.08.36-.08s.26.03.37.08.22.12.3.2.16.18.21.3.08.24.08.37ZM95.5,335.37v6.16h-1.49v-6.16h1.49Z"/>
      <path class="cls-6" d="M97.01,341.52v-6.16h.91c.19,0,.32.09.38.27l.1.46c.11-.12.22-.23.34-.33.12-.1.24-.19.38-.26.13-.07.28-.13.43-.17s.32-.06.51-.06c.39,0,.71.1.96.31s.44.49.56.84c.1-.2.22-.38.36-.52.14-.15.3-.27.47-.36.17-.09.35-.16.55-.2.19-.04.39-.07.58-.07.34,0,.64.05.91.16.26.1.49.26.67.46.18.2.32.44.41.73.09.29.14.62.14.99v3.92h-1.48v-3.92c0-.39-.09-.69-.26-.89-.17-.2-.42-.3-.76-.3-.15,0-.29.03-.42.08-.13.05-.24.13-.34.23-.1.1-.18.22-.23.37-.06.15-.08.32-.08.51v3.92h-1.49v-3.92c0-.41-.08-.71-.25-.9-.17-.19-.41-.28-.73-.28-.22,0-.42.05-.6.16-.19.11-.36.25-.52.44v4.51h-1.48Z"/>
      <path class="cls-6" d="M107.06,341.52v-6.16h.91c.19,0,.32.09.38.27l.1.46c.11-.12.22-.23.34-.33.12-.1.24-.19.38-.26.13-.07.28-.13.43-.17s.32-.06.51-.06c.39,0,.71.1.96.31s.44.49.56.84c.1-.2.22-.38.36-.52.14-.15.3-.27.47-.36.17-.09.35-.16.55-.2.19-.04.39-.07.58-.07.34,0,.64.05.91.16.26.1.49.26.67.46.18.2.32.44.41.73.09.29.14.62.14.99v3.92h-1.48v-3.92c0-.39-.09-.69-.26-.89-.17-.2-.42-.3-.76-.3-.15,0-.29.03-.42.08-.13.05-.24.13-.34.23-.1.1-.18.22-.23.37-.06.15-.08.32-.08.51v3.92h-1.49v-3.92c0-.41-.08-.71-.25-.9-.17-.19-.41-.28-.73-.28-.22,0-.42.05-.6.16-.19.11-.36.25-.52.44v4.51h-1.48Z"/>
      <path class="cls-6" d="M118.25,338.63c.02.32.08.59.17.82.09.23.2.42.35.57.14.15.32.26.51.34.2.07.42.11.66.11s.45-.03.62-.08c.17-.06.33-.12.46-.19s.24-.13.34-.19c.1-.06.19-.08.29-.08.12,0,.22.05.28.14l.43.54c-.16.19-.35.35-.55.48s-.42.23-.64.31c-.22.08-.45.13-.68.17-.23.03-.45.05-.67.05-.43,0-.83-.07-1.19-.21-.37-.14-.69-.35-.96-.63-.27-.28-.49-.62-.64-1.03s-.23-.88-.23-1.42c0-.42.07-.82.2-1.19s.33-.69.58-.97c.25-.27.56-.49.93-.65.37-.16.78-.24,1.24-.24.39,0,.75.06,1.07.19s.61.31.85.54c.24.24.42.53.56.88.13.35.2.74.2,1.19,0,.22-.02.38-.07.45-.05.08-.14.12-.28.12h-3.81ZM121.08,337.74c0-.19-.03-.37-.08-.54-.05-.17-.14-.32-.24-.45-.11-.13-.25-.23-.41-.3s-.36-.11-.58-.11c-.43,0-.76.12-1.01.37s-.4.59-.47,1.04h2.8Z"/>
      <path class="cls-6" d="M128.87,332.61v8.92h-.91c-.2,0-.32-.09-.37-.27l-.13-.59c-.25.28-.53.51-.86.69-.32.18-.7.26-1.12.26-.34,0-.64-.07-.92-.21s-.52-.34-.72-.61c-.2-.27-.36-.59-.47-.99-.11-.39-.17-.84-.17-1.34,0-.46.06-.88.19-1.27.12-.39.3-.73.53-1.02.23-.29.51-.51.83-.67s.69-.24,1.09-.24c.34,0,.64.05.88.16.24.11.46.25.65.44v-3.25h1.48ZM127.38,336.94c-.17-.2-.35-.35-.55-.43s-.41-.13-.64-.13-.43.04-.61.13-.33.21-.46.38c-.13.17-.23.39-.29.65-.07.26-.1.57-.1.93s.03.67.09.92c.06.25.14.45.25.61.11.16.24.27.4.34.16.07.33.11.52.11.31,0,.57-.06.79-.19.22-.13.42-.31.61-.55v-2.76Z"/>
      <path class="cls-6" d="M134.64,336.43c.19-.37.42-.66.68-.87.26-.21.58-.32.94-.32.28,0,.51.06.68.19l-.1,1.11c-.02.07-.05.12-.09.15s-.09.04-.15.04-.15,0-.27-.03c-.12-.02-.23-.03-.34-.03-.16,0-.31.02-.44.07-.13.05-.24.12-.34.21-.1.09-.19.2-.27.33s-.15.27-.22.44v3.79h-1.48v-6.16h.87c.15,0,.26.03.32.08.06.05.1.15.12.29l.09.7Z"/>
      <path class="cls-6" d="M138.69,338.63c.02.32.08.59.17.82.09.23.2.42.35.57.14.15.32.26.51.34.2.07.42.11.66.11s.45-.03.62-.08c.17-.06.33-.12.46-.19s.24-.13.34-.19c.1-.06.19-.08.29-.08.12,0,.22.05.28.14l.43.54c-.16.19-.35.35-.55.48s-.42.23-.64.31c-.22.08-.45.13-.68.17-.23.03-.45.05-.67.05-.43,0-.83-.07-1.19-.21-.37-.14-.69-.35-.96-.63-.27-.28-.49-.62-.64-1.03s-.23-.88-.23-1.42c0-.42.07-.82.2-1.19s.33-.69.58-.97c.25-.27.56-.49.93-.65.37-.16.78-.24,1.24-.24.39,0,.75.06,1.07.19s.61.31.85.54c.24.24.42.53.56.88.13.35.2.74.2,1.19,0,.22-.02.38-.07.45-.05.08-.14.12-.28.12h-3.81ZM141.52,337.74c0-.19-.03-.37-.08-.54-.05-.17-.14-.32-.24-.45-.11-.13-.25-.23-.41-.3s-.36-.11-.58-.11c-.43,0-.76.12-1.01.37s-.4.59-.47,1.04h2.8Z"/>
      <path class="cls-6" d="M143.81,336.22c.71-.65,1.56-.97,2.56-.97.36,0,.68.06.97.18.28.12.52.28.72.49.2.21.34.46.45.75.1.29.15.61.15.96v3.89h-.67c-.14,0-.25-.02-.32-.06s-.14-.13-.18-.25l-.13-.44c-.16.14-.31.26-.46.37-.15.11-.3.2-.46.27-.16.07-.33.13-.51.17-.18.04-.38.06-.6.06-.26,0-.5-.04-.72-.1-.22-.07-.41-.18-.57-.32s-.28-.31-.37-.52c-.09-.21-.13-.45-.13-.73,0-.16.03-.31.08-.46.05-.15.14-.3.25-.44.12-.14.27-.27.46-.4.19-.12.42-.23.69-.32.27-.09.59-.17.96-.22.36-.06.78-.09,1.25-.11v-.36c0-.41-.09-.72-.26-.92-.18-.2-.43-.3-.76-.3-.24,0-.44.03-.6.08-.16.06-.3.12-.42.19-.12.07-.23.13-.33.19-.1.06-.21.08-.33.08-.1,0-.19-.03-.26-.08-.07-.05-.13-.12-.17-.19l-.26-.47ZM147.21,338.89c-.43.02-.79.06-1.08.11-.29.05-.53.12-.7.21-.18.08-.3.18-.38.29-.08.11-.11.23-.11.37,0,.26.08.45.23.56.15.11.36.17.6.17.3,0,.57-.06.79-.17.22-.11.44-.28.65-.5v-1.04Z"/>
      <path class="cls-6" d="M155.39,332.61v8.92h-.91c-.2,0-.32-.09-.37-.27l-.13-.59c-.25.28-.53.51-.86.69-.32.18-.7.26-1.12.26-.34,0-.64-.07-.92-.21s-.52-.34-.72-.61c-.2-.27-.36-.59-.47-.99-.11-.39-.17-.84-.17-1.34,0-.46.06-.88.19-1.27.12-.39.3-.73.53-1.02.23-.29.51-.51.83-.67s.69-.24,1.09-.24c.34,0,.64.05.88.16.24.11.46.25.65.44v-3.25h1.48ZM153.91,336.94c-.17-.2-.35-.35-.55-.43s-.41-.13-.64-.13-.43.04-.61.13-.33.21-.46.38c-.13.17-.23.39-.29.65-.07.26-.1.57-.1.93s.03.67.09.92c.06.25.14.45.25.61.11.16.24.27.4.34.16.07.33.11.52.11.31,0,.57-.06.79-.19.22-.13.42-.31.61-.55v-2.76Z"/>
      <path class="cls-6" d="M160.61,336.57c-.04.06-.08.11-.13.13s-.1.04-.17.04c-.07,0-.15-.02-.23-.06s-.18-.08-.28-.14c-.11-.05-.23-.09-.37-.13-.14-.04-.3-.06-.49-.06-.29,0-.52.06-.69.19s-.25.29-.25.49c0,.13.04.24.13.33.09.09.2.17.34.24.14.07.3.13.48.18.18.05.36.11.55.18.19.06.37.14.55.22.18.08.34.19.48.31.14.13.26.28.34.45.09.18.13.39.13.64,0,.3-.05.57-.16.82-.11.25-.26.47-.47.65-.21.18-.46.32-.77.43-.31.1-.66.15-1.06.15-.21,0-.42-.02-.62-.06-.2-.04-.4-.09-.58-.16-.19-.07-.36-.15-.52-.24s-.3-.19-.42-.3l.34-.56c.04-.07.1-.12.16-.16.06-.04.14-.05.23-.05s.18.03.26.08.18.11.29.17c.11.06.23.12.38.17.15.05.33.08.55.08.18,0,.33-.02.45-.06s.23-.1.31-.17c.08-.07.14-.15.18-.24s.06-.18.06-.28c0-.14-.04-.26-.13-.35s-.2-.17-.34-.24-.3-.13-.49-.18c-.18-.05-.37-.11-.56-.18-.19-.06-.38-.14-.56-.22-.18-.09-.34-.2-.49-.33-.14-.13-.26-.29-.34-.49-.09-.19-.13-.42-.13-.7,0-.25.05-.49.15-.72.1-.23.25-.43.44-.6.19-.17.44-.31.73-.41.29-.1.62-.15,1-.15.42,0,.81.07,1.16.21.35.14.64.32.87.55l-.34.53Z"/>
    </g>
    <g>
      <rect class="cls-1" x="74.31" y="243.48" width="95.55" height="10.83"/>
      <path class="cls-6" d="M102.4,252.4h-1.46c-.28,0-.48-.11-.6-.32l-1.82-2.78c-.07-.1-.14-.18-.22-.22-.08-.04-.2-.07-.36-.07h-.69v3.39h-1.61v-8.68h2.65c.59,0,1.09.06,1.52.18.42.12.77.29,1.04.51.27.22.47.48.6.79.13.31.19.64.19,1.01,0,.29-.04.57-.13.83-.09.26-.21.5-.37.71s-.36.4-.6.56-.51.29-.81.38c.1.06.2.13.29.21.09.08.17.18.24.29l2.17,3.2ZM98.25,247.85c.3,0,.57-.04.79-.11.23-.08.41-.18.56-.31.15-.13.25-.29.33-.48.07-.18.11-.39.11-.61,0-.44-.15-.78-.44-1.01-.29-.24-.73-.35-1.33-.35h-1.03v2.88h1.01Z"/>
      <path class="cls-6" d="M102.87,247.1c.71-.65,1.56-.97,2.56-.97.36,0,.68.06.97.18.28.12.52.28.72.49.2.21.34.46.45.75.1.29.15.61.15.96v3.89h-.67c-.14,0-.25-.02-.32-.06s-.14-.13-.18-.25l-.13-.44c-.16.14-.31.26-.46.37-.15.11-.3.19-.46.27-.16.07-.33.13-.51.17-.18.04-.38.06-.6.06-.26,0-.5-.04-.72-.11-.22-.07-.41-.17-.57-.32-.16-.14-.28-.31-.37-.52s-.13-.45-.13-.73c0-.16.03-.31.08-.47.05-.15.14-.3.25-.44.12-.14.27-.27.46-.4.19-.12.42-.23.69-.32.27-.09.59-.17.96-.22.36-.06.78-.09,1.25-.1v-.36c0-.41-.09-.72-.26-.92s-.43-.3-.76-.3c-.24,0-.44.03-.6.08-.16.06-.3.12-.42.19-.12.07-.23.13-.33.19-.1.06-.21.08-.33.08-.1,0-.19-.03-.26-.08-.07-.05-.13-.12-.17-.19l-.26-.47ZM106.27,249.77c-.43.02-.79.06-1.08.11s-.53.12-.7.21c-.18.08-.3.18-.38.29-.08.11-.11.23-.11.37,0,.26.08.45.23.56.15.11.36.17.6.17.3,0,.57-.05.79-.17.22-.11.44-.28.65-.5v-1.04Z"/>
      <path class="cls-6" d="M117.84,246.24l-1.96,6.16h-1.19c-.14,0-.23-.09-.28-.26l-1.1-3.56c-.04-.12-.07-.24-.1-.36-.03-.12-.06-.24-.08-.36-.02.12-.05.24-.08.36s-.06.24-.1.36l-1.12,3.55c-.05.18-.15.26-.32.26h-1.14l-1.95-6.16h1.18c.11,0,.2.03.28.08.08.05.13.12.15.2l.88,3.29c.04.18.08.36.12.53.03.17.06.34.09.52.04-.17.09-.34.14-.52s.1-.35.16-.53l1.02-3.3c.02-.08.07-.15.14-.2.07-.05.15-.08.25-.08h.65c.1,0,.19.03.27.08s.12.12.15.2l.99,3.3c.05.18.1.36.15.53.05.17.09.35.13.52.05-.34.13-.69.22-1.05l.91-3.29c.03-.08.08-.15.15-.2.07-.05.16-.08.26-.08h1.13Z"/>
      <path class="cls-6" d="M122.75,247.31c.19-.37.42-.66.68-.87.26-.21.58-.31.94-.31.28,0,.51.06.68.19l-.1,1.11c-.02.07-.05.12-.09.15-.04.03-.09.04-.15.04-.06,0-.15-.01-.27-.03-.12-.02-.23-.03-.35-.03-.16,0-.31.02-.44.07s-.24.12-.34.21c-.1.09-.19.2-.27.33s-.15.27-.22.44v3.79h-1.48v-6.16h.87c.15,0,.26.03.32.08.06.05.1.15.12.29l.09.7Z"/>
      <path class="cls-6" d="M126.79,249.5c.02.32.08.59.17.82.09.23.2.42.35.57.14.15.31.26.51.34s.42.11.66.11.45-.03.62-.08c.17-.06.33-.12.46-.19.13-.07.24-.13.34-.19.1-.06.19-.08.29-.08.12,0,.22.05.28.14l.43.54c-.16.19-.35.35-.55.48s-.42.23-.64.31c-.22.08-.45.13-.68.17-.23.03-.45.05-.67.05-.43,0-.83-.07-1.19-.21-.37-.14-.69-.35-.96-.63-.27-.28-.49-.62-.64-1.03-.16-.41-.23-.88-.23-1.42,0-.42.07-.81.2-1.18.14-.37.33-.69.58-.97.25-.27.56-.49.93-.65s.78-.24,1.24-.24c.39,0,.75.06,1.07.19.33.12.61.3.85.54.24.24.42.53.55.88.13.35.2.74.2,1.18,0,.22-.02.38-.07.45s-.14.12-.28.12h-3.81ZM129.62,248.61c0-.19-.03-.37-.08-.54s-.13-.32-.24-.45c-.11-.13-.25-.23-.41-.3-.17-.07-.36-.11-.58-.11-.43,0-.76.12-1.01.37-.25.24-.4.59-.47,1.04h2.8Z"/>
      <path class="cls-6" d="M131.92,247.1c.71-.65,1.56-.97,2.56-.97.36,0,.68.06.97.18s.52.28.72.49.34.46.45.75c.1.29.15.61.15.96v3.89h-.67c-.14,0-.25-.02-.32-.06-.08-.04-.14-.13-.18-.25l-.13-.44c-.16.14-.31.26-.46.37-.15.11-.3.19-.46.27s-.33.13-.51.17c-.18.04-.38.06-.6.06-.26,0-.5-.04-.72-.11s-.41-.17-.57-.32c-.16-.14-.28-.31-.37-.52-.09-.21-.13-.45-.13-.73,0-.16.03-.31.08-.47.05-.15.14-.3.25-.44.12-.14.27-.27.46-.4.19-.12.42-.23.69-.32.27-.09.59-.17.96-.22.36-.06.78-.09,1.25-.1v-.36c0-.41-.09-.72-.26-.92-.18-.2-.43-.3-.76-.3-.24,0-.44.03-.6.08s-.3.12-.42.19c-.12.07-.23.13-.33.19s-.21.08-.33.08c-.1,0-.19-.03-.26-.08s-.13-.12-.17-.19l-.26-.47ZM135.31,249.77c-.43.02-.79.06-1.08.11s-.53.12-.7.21-.3.18-.38.29-.11.23-.11.37c0,.26.08.45.23.56.15.11.35.17.6.17.3,0,.57-.05.79-.17.22-.11.44-.28.65-.5v-1.04Z"/>
      <path class="cls-6" d="M143.5,243.48v8.92h-.91c-.2,0-.32-.09-.37-.27l-.13-.59c-.25.28-.53.51-.85.69s-.7.26-1.12.26c-.34,0-.64-.07-.92-.21-.28-.14-.52-.34-.72-.61-.2-.27-.36-.59-.47-.99-.11-.39-.17-.84-.17-1.34,0-.46.06-.88.19-1.27.12-.39.3-.73.53-1.02.23-.29.51-.51.83-.67.32-.16.69-.24,1.09-.24.34,0,.64.05.88.16.24.11.46.25.65.44v-3.25h1.48ZM142.02,247.81c-.17-.2-.35-.35-.55-.43-.2-.08-.41-.13-.64-.13s-.43.04-.61.13c-.18.08-.33.21-.46.38s-.23.39-.29.65c-.07.26-.1.57-.1.93s.03.67.09.92.14.45.25.61c.11.16.24.27.4.34.16.07.33.1.52.1.31,0,.57-.06.79-.19s.42-.31.61-.55v-2.76Z"/>
      <path class="cls-6" d="M148.72,247.44c-.04.06-.08.11-.13.14-.04.03-.1.04-.17.04s-.15-.02-.23-.06-.18-.08-.29-.13-.23-.09-.37-.13-.3-.06-.49-.06c-.29,0-.52.06-.69.19s-.25.29-.25.49c0,.13.04.24.13.33s.2.17.34.24c.14.07.3.13.48.18.18.05.36.11.55.18.19.06.37.14.55.22.18.08.34.19.48.31.14.13.26.28.34.45s.13.39.13.64c0,.3-.05.57-.16.82-.11.25-.26.47-.47.65-.21.18-.46.32-.77.43-.31.1-.66.15-1.06.15-.21,0-.42-.02-.62-.06s-.4-.09-.58-.16c-.19-.07-.36-.15-.52-.24-.16-.09-.3-.19-.42-.3l.34-.56c.04-.07.1-.12.16-.16.06-.04.14-.05.23-.05s.18.03.26.08.18.11.29.17c.11.06.24.12.38.17.15.05.33.08.56.08.18,0,.33-.02.45-.06s.23-.1.31-.17c.08-.07.14-.15.18-.24.04-.09.06-.18.06-.28,0-.14-.04-.26-.13-.35-.09-.09-.2-.17-.34-.24-.14-.07-.3-.13-.49-.18-.18-.05-.37-.11-.56-.18-.19-.06-.38-.14-.56-.23-.18-.09-.34-.19-.49-.33-.14-.13-.26-.29-.34-.49s-.13-.42-.13-.7c0-.25.05-.49.15-.72.1-.23.25-.43.44-.6.19-.17.44-.31.73-.41.29-.1.62-.15,1-.15.42,0,.81.07,1.16.21.35.14.64.32.87.55l-.34.53Z"/>
    </g>
  </g>
</svg>